<svg width="111" height="112" viewBox="0 0 111 112" fill="none" xmlns="http://www.w3.org/2000/svg">
<path d="M55.645 107.356C84.0072 107.356 106.999 84.3642 106.999 56.0019C106.999 27.6396 84.0072 4.64746 55.645 4.64746C27.2827 4.64746 4.29053 27.6396 4.29053 56.0019C4.29053 84.3642 27.2827 107.356 55.645 107.356Z" fill="url(#paint0_linear_698_8404)"/>
<path d="M55.7415 111.143L55.7187 110.588C56.459 110.557 57.1915 110.517 57.9167 110.466L57.9556 111.02C57.2254 111.072 56.4873 111.113 55.7415 111.143ZM53.5101 111.107C52.7681 111.078 52.0223 111.035 51.2942 110.978L51.3376 110.424C52.0584 110.481 52.7965 110.524 53.5317 110.551L53.5101 111.107ZM60.1654 110.831L60.1098 110.278C60.8462 110.204 61.5748 110.119 62.2945 110.023L62.3684 110.574C61.642 110.671 60.9084 110.756 60.1654 110.831ZM49.0845 110.761C48.352 110.674 47.6123 110.571 46.8853 110.455L46.9732 109.907C47.6923 110.021 48.4243 110.123 49.1495 110.209L49.0845 110.761ZM64.5604 110.246L64.4692 109.698C65.195 109.577 65.9225 109.443 66.6328 109.3L66.7423 109.844C66.0265 109.989 65.2929 110.124 64.5604 110.246ZM44.7006 110.061C43.9754 109.915 43.2462 109.753 42.5337 109.579L42.666 109.039C43.3707 109.211 44.0921 109.372 44.8101 109.516L44.7006 110.061ZM68.9098 109.368L68.7808 108.827C69.4961 108.657 70.2125 108.472 70.9094 108.279L71.0584 108.815C70.3542 109.01 69.6312 109.196 68.9098 109.368ZM40.3868 109.009C39.6809 108.806 38.9674 108.585 38.266 108.352L38.4405 107.825C39.1352 108.055 39.8416 108.274 40.5396 108.474L40.3868 109.009ZM73.1842 108.183L73.0158 107.654C73.7172 107.431 74.4174 107.194 75.0982 106.949L75.2867 107.471C74.5992 107.719 73.8917 107.959 73.1842 108.183ZM36.1668 107.608C35.4732 107.346 34.778 107.067 34.1011 106.779L34.3184 106.268C34.9886 106.553 35.6767 106.829 36.3636 107.088L36.1668 107.608ZM77.3608 106.679L77.1524 106.164C77.836 105.886 78.5157 105.596 79.172 105.299L79.401 105.805C78.738 106.105 78.0516 106.399 77.3608 106.679ZM32.0714 105.868C31.3978 105.549 30.7281 105.215 30.0807 104.875L30.3391 104.383C30.9799 104.719 31.6429 105.05 32.3093 105.365L32.0714 105.868ZM81.4034 104.85L81.1539 104.353C81.8086 104.024 82.4616 103.679 83.0963 103.326L83.3664 103.812C82.725 104.168 82.0648 104.518 81.4034 104.85ZM28.1321 103.804C27.4924 103.435 26.8516 103.048 26.2292 102.654L26.5265 102.184C27.1423 102.574 27.7759 102.957 28.41 103.322L28.1321 103.804ZM85.2843 102.693L84.9942 102.22C85.6178 101.837 86.2397 101.438 86.8427 101.033L87.1534 101.495C86.5437 101.904 85.9146 102.308 85.2843 102.693ZM24.374 101.43C23.7683 101.012 23.1614 100.575 22.5706 100.131L22.9051 99.6867C23.4898 100.126 24.09 100.558 24.6903 100.972L24.374 101.43ZM88.9685 100.216L88.6384 99.7678C89.2242 99.3371 89.8094 98.8858 90.3785 98.4267L90.7269 98.8591C90.1517 99.3237 89.5604 99.78 88.9685 100.216ZM20.821 98.7624C20.2469 98.2939 19.6773 97.8098 19.1287 97.3241L19.4966 96.9078C20.0402 97.3886 20.6037 97.8676 21.1728 98.3311L20.821 98.7624ZM92.4259 97.4286L92.0591 97.0112C92.6043 96.5305 93.1484 96.0303 93.6753 95.524L94.0604 95.9252C93.528 96.4371 92.9778 96.9428 92.4259 97.4286ZM17.4942 95.8196C16.9585 95.3067 16.4299 94.7792 15.9225 94.2513L16.3232 93.8661C16.8251 94.388 17.3486 94.9104 17.8788 95.4184L17.4942 95.8196ZM95.6277 94.3513L95.2253 93.9678C95.7283 93.4409 96.2268 92.8952 96.7076 92.3461L97.1255 92.7118C96.6397 93.267 96.1362 93.8189 95.6277 94.3513ZM14.4147 92.6223C13.9212 92.0671 13.436 91.4991 12.9742 90.9345L13.4038 90.5821C13.8612 91.1412 14.3408 91.7036 14.8299 92.2533L14.4147 92.6223ZM98.5516 91.0084L98.1175 90.661C98.5721 90.0941 99.0218 89.5072 99.4536 88.917L99.9021 89.2455C99.4653 89.8418 99.0112 90.4354 98.5516 91.0084ZM11.6009 89.1905C11.1563 88.6013 10.7189 87.9967 10.3004 87.3931L10.7572 87.0769C11.1713 87.6743 11.6042 88.2729 12.0444 88.8559L11.6009 89.1905ZM101.173 87.4309L100.711 87.1213C101.113 86.5217 101.51 85.8998 101.892 85.2734L102.367 85.563C101.981 86.196 101.579 86.8246 101.173 87.4309ZM9.07324 85.5457C8.67754 84.9233 8.29017 84.2858 7.9217 83.6511L8.40243 83.3721C8.76702 84.0002 9.15049 84.6315 9.54231 85.2478L9.07324 85.5457ZM103.482 83.6467L102.995 83.3771C103.345 82.748 103.69 82.0944 104.02 81.4359L104.518 81.6848C104.183 82.3506 103.834 83.0109 103.482 83.6467ZM6.84796 81.7121C6.50394 81.0602 6.16937 80.3938 5.85369 79.7319L6.355 79.4923C6.66789 80.147 6.99858 80.8067 7.33982 81.452L6.84796 81.7121ZM105.472 79.6819L104.965 79.4534C105.265 78.7898 105.556 78.1102 105.829 77.4332L106.345 77.6416C106.068 78.3247 105.774 79.011 105.472 79.6819ZM4.9389 77.7144C4.65046 77.042 4.37147 76.3512 4.10804 75.6626L4.62712 75.4641C4.88833 76.1466 5.16509 76.8302 5.4502 77.496L4.9389 77.7144ZM107.134 75.567L106.611 75.3797C106.856 74.6939 107.092 73.9925 107.312 73.2961L107.841 73.4628C107.62 74.1664 107.382 74.8739 107.134 75.567ZM3.35831 73.5718C3.12322 72.8721 2.8998 72.159 2.69416 71.4526L3.22825 71.2976C3.43111 71.9967 3.65286 72.702 3.88517 73.3945L3.35831 73.5718ZM108.466 71.3326L107.93 71.187C108.122 70.475 108.302 69.7575 108.465 69.0545L109.007 69.1795C108.843 69.8893 108.661 70.614 108.466 71.3326ZM2.11616 69.309C1.93776 68.5877 1.77326 67.859 1.62598 67.1432L2.17062 67.0321C2.31568 67.7401 2.47908 68.4615 2.65526 69.1757L2.11616 69.309ZM109.463 67.0071L108.918 66.9026C109.055 66.1856 109.18 65.4565 109.289 64.7351L109.838 64.8179C109.728 65.5471 109.602 66.2834 109.463 67.0071ZM1.22361 64.9596C1.10412 64.231 0.999082 63.4918 0.910159 62.7616L1.46146 62.6943C1.54983 63.4168 1.65433 64.1493 1.77215 64.8701L1.22361 64.9596ZM110.129 62.6171L109.576 62.5548C109.659 61.8295 109.727 61.0932 109.782 60.3651L110.337 60.4062C110.282 61.1409 110.212 61.8851 110.129 62.6171ZM0.685617 60.5529C0.625039 59.8127 0.579465 59.0674 0.548898 58.3365L1.10466 58.3138C1.13412 59.0368 1.17969 59.7749 1.23916 60.5079L0.685617 60.5529ZM110.46 58.1887L109.904 58.1682C109.931 57.4462 109.944 56.7187 109.944 56.0051L110.5 55.969V56.0051C110.501 56.7254 110.487 57.4601 110.46 58.1887ZM1.05633 56.1168H0.50056L0.5 56.0057C0.5 55.2659 0.514452 54.5196 0.543351 53.7821L1.09912 53.8037C1.07022 54.5334 1.05577 55.2732 1.05577 56.0012L1.05633 56.1168ZM109.901 53.7704C109.873 53.0362 109.831 52.2976 109.776 51.5745L110.33 51.5323C110.386 52.262 110.428 53.0079 110.457 53.7492L109.901 53.7704ZM1.22915 51.6096L0.67561 51.5657C0.73341 50.8376 0.807342 50.0945 0.895709 49.3565L1.44701 49.4221C1.36031 50.1535 1.28695 50.8893 1.22915 51.6096ZM109.569 49.3854C109.486 48.6551 109.388 47.9215 109.279 47.2057L109.828 47.1217C109.939 47.8448 110.038 48.5856 110.122 49.3231L109.569 49.3854ZM1.7538 47.2462L1.20582 47.1579C1.32253 46.432 1.45646 45.6973 1.60263 44.9737L2.14728 45.0838C2.00223 45.8001 1.86995 46.5282 1.7538 47.2462ZM108.905 45.0376C108.767 44.3157 108.613 43.5915 108.449 42.8863L108.991 42.7601C109.156 43.4726 109.311 44.2034 109.451 44.9326L108.905 45.0376ZM2.62802 42.9391L2.08838 42.8068C2.264 42.0893 2.45685 41.3673 2.66082 40.6615L3.19491 40.8155C2.99317 41.5146 2.80197 42.2288 2.62802 42.9391ZM107.911 40.7543C107.717 40.0446 107.508 39.3349 107.29 38.6452L107.82 38.4774C108.04 39.1743 108.251 39.8907 108.448 40.6076L107.911 40.7543ZM3.84849 38.7169L3.32106 38.5413C3.55337 37.8455 3.80402 37.1396 4.06801 36.4438L4.58765 36.6405C4.32699 37.3291 4.07802 38.0277 3.84849 38.7169ZM106.588 36.5611C106.34 35.8725 106.076 35.1811 105.802 34.507L106.318 34.298C106.594 34.9794 106.861 35.6769 107.111 36.3727L106.588 36.5611ZM5.41185 34.597L4.90056 34.3786C5.189 33.7022 5.49633 33.0197 5.81534 32.35L6.31665 32.589C6.00153 33.252 5.69696 33.9279 5.41185 34.597ZM104.935 32.4857C104.635 31.8232 104.316 31.1557 103.986 30.501L104.483 30.2515C104.816 30.9128 105.139 31.587 105.441 32.2567L104.935 32.4857ZM7.30257 30.6205L6.81071 30.3615C7.15584 29.7057 7.51766 29.051 7.88614 28.4147L8.36687 28.6931C8.00284 29.3228 7.64437 29.9714 7.30257 30.6205ZM102.957 28.5575C102.6 27.9184 102.227 27.2787 101.847 26.6573L102.321 26.3672C102.705 26.9952 103.082 27.6416 103.442 28.2874L102.957 28.5575ZM9.5073 26.8113L9.03824 26.5139C9.43617 25.8865 9.84909 25.2629 10.2659 24.661L10.7228 24.9772C10.3104 25.573 9.90134 26.1899 9.5073 26.8113ZM100.658 24.805C100.252 24.1997 99.8254 23.5934 99.3924 23.0043L99.8398 22.6747C100.278 23.2705 100.709 23.8829 101.12 24.4948L100.658 24.805ZM12.0105 23.1932L11.5664 22.8587C12.0055 22.2751 12.4673 21.6871 12.9386 21.1108L13.3682 21.4626C12.9019 22.0334 12.4451 22.6158 12.0105 23.1932ZM98.0486 21.2586C97.5868 20.6845 97.1099 20.1171 96.6309 19.5719L97.0488 19.2051C97.5329 19.7564 98.0147 20.3299 98.4815 20.9102L98.0486 21.2586ZM14.7943 19.7892L14.3786 19.4201C14.8632 18.8738 15.3701 18.3253 15.8847 17.789L16.2854 18.1736C15.7763 18.7049 15.2745 19.2484 14.7943 19.7892ZM95.1464 17.9529C94.6462 17.4299 94.1232 16.9075 93.5925 16.4001L93.9765 15.9983C94.5134 16.5113 95.0419 17.0398 95.5477 17.5683L95.1464 17.9529ZM17.8416 16.6202L17.4564 16.2195C17.9888 15.7082 18.5374 15.2013 19.0887 14.7139L19.4572 15.1302C18.912 15.6132 18.3679 16.1145 17.8416 16.6202ZM91.9724 14.9168C91.4222 14.4344 90.8559 13.9597 90.2896 13.5051L90.6369 13.0716C91.2099 13.5312 91.7829 14.0114 92.3387 14.4988L91.9724 14.9168ZM21.1295 13.7063L20.7777 13.2761C21.349 12.8093 21.9364 12.3486 22.5239 11.9067L22.8585 12.3508C22.2766 12.7882 21.6952 13.2439 21.1295 13.7063ZM88.5461 12.1674C87.9598 11.7378 87.354 11.3132 86.7471 10.9069L87.0567 10.4451C87.6702 10.8558 88.2821 11.2848 88.8751 11.7189L88.5461 12.1674ZM24.6391 11.0659L24.3235 10.609C24.9315 10.1889 25.5534 9.77649 26.1725 9.38468L26.4698 9.8543C25.8574 10.2422 25.241 10.6502 24.6391 11.0659ZM84.8964 9.7248C84.2739 9.34577 83.6343 8.97452 82.9957 8.62216L83.2647 8.13586C83.9099 8.49211 84.5557 8.86726 85.1849 9.25018L84.8964 9.7248ZM28.3466 8.71665L28.0688 8.2359C28.7057 7.86687 29.3587 7.50619 30.009 7.16439L30.2674 7.65623C29.6244 7.99525 28.978 8.35207 28.3466 8.71665ZM81.0505 7.59955C80.403 7.27554 79.735 6.95875 79.0653 6.65808L79.2932 6.15123C79.9695 6.45524 80.6448 6.77536 81.2989 7.10271L81.0505 7.59955ZM32.2303 6.67476L31.9914 6.17291C32.6511 5.85946 33.3297 5.55323 34.0105 5.262L34.2289 5.77276C33.5553 6.0612 32.8828 6.36408 32.2303 6.67476ZM77.0434 5.79721C76.3676 5.52544 75.6768 5.26255 74.9893 5.01691L75.1761 4.49394C75.8708 4.74237 76.5688 5.00747 77.2507 5.28202L77.0434 5.79721ZM36.2613 4.95356L36.064 4.43392C36.7543 4.1716 37.4579 3.92038 38.1554 3.68751L38.331 4.21438C37.6407 4.44558 36.9444 4.69457 36.2613 4.95356ZM72.9058 4.31609C72.2116 4.09712 71.5024 3.88759 70.7972 3.69418L70.945 3.15843C71.6558 3.35406 72.3722 3.56469 73.073 3.78589L72.9058 4.31609ZM40.429 3.5608L40.2751 3.02671C40.9787 2.82274 41.7 2.62989 42.4186 2.4526L42.552 2.99226C41.8401 3.16732 41.1259 3.3585 40.429 3.5608ZM68.6669 3.15009C67.96 2.98281 67.2369 2.82497 66.5189 2.68158L66.6273 2.13693C67.352 2.28143 68.0812 2.44038 68.7948 2.60934L68.6669 3.15009ZM44.6973 2.50985L44.5867 1.96576C45.3092 1.81848 46.0434 1.68454 46.7703 1.56671L46.8592 2.11526C46.1395 2.23141 45.4126 2.36424 44.6973 2.50985ZM64.3553 2.28754C63.6384 2.16972 62.9131 2.0619 62.1789 1.9652L62.2517 1.41443C62.9914 1.51169 63.7234 1.62007 64.4453 1.73956L64.3553 2.28754ZM49.0356 1.80847L48.9695 1.2566C49.697 1.16879 50.4406 1.09431 51.1781 1.03485L51.2225 1.58894C50.4923 1.6473 49.757 1.72122 49.0356 1.80847ZM59.9936 1.71343C59.2706 1.64174 58.5403 1.58005 57.8017 1.52948L57.8395 0.974822C58.5837 1.02595 59.3206 1.0882 60.0492 1.16045L59.9936 1.71343ZM53.4167 1.45667L53.395 0.901459C54.1275 0.872003 54.8745 0.857001 55.6142 0.856445V1.41221C54.8817 1.41277 54.142 1.42777 53.4167 1.45667Z" fill="#98C6CF"/>
<path d="M85.1155 82.1685H28.1445V90.7389H85.1155V82.1685Z" fill="#003940"/>
<path d="M84.8537 87.5731H28.4068C27.3347 87.5731 26.4566 86.7211 26.4244 85.649L25.0466 31.897H88.2144L86.8367 85.649C86.8039 86.7211 85.9258 87.5731 84.8537 87.5731Z" fill="#003940"/>
<path d="M80.699 36.9999L79.7908 83.5654L80.2075 83.5736L81.1157 37.008L80.699 36.9999Z" fill="#98C6CF"/>
<path d="M32.5681 36.9885L32.1514 36.9966L33.0503 83.5621L33.467 83.5541L32.5681 36.9885Z" fill="#98C6CF"/>
<path d="M68.4487 36.9823L68.2019 83.5488L68.6187 83.551L68.8655 36.9845L68.4487 36.9823Z" fill="#98C6CF"/>
<path d="M56.5407 36.9823L56.2939 83.5488L56.7108 83.551L56.9576 36.9845L56.5407 36.9823Z" fill="#98C6CF"/>
<path d="M44.8033 36.9987L44.3865 37.001L44.6379 83.5675L45.0548 83.5652L44.8033 36.9987Z" fill="#98C6CF"/>
<path d="M85.1161 87.3647H28.1445V87.7816H85.1161V87.3647Z" fill="#98C6CF"/>
<path d="M90.0093 29.2339H23.2512V33.4033H90.0093V29.2339Z" fill="#003940"/>
<path d="M88.2137 24.9574C68.5251 22.3208 44.7345 22.3208 25.0459 24.9574V29.234H88.2137V24.9574Z" fill="#003940"/>
<path d="M88.1916 33.1943H25.0693V33.6112H88.1916V33.1943Z" fill="#98C6CF"/>
<path d="M88.1916 29.0254H25.0693V29.4422H88.1916V29.0254Z" fill="#98C6CF"/>
<path d="M89.9862 31.1104H23.2737V31.5272H89.9862V31.1104Z" fill="#98C6CF"/>
<path d="M67.1342 29.2336H46.1257V27.9414C46.1257 27.4835 46.497 27.1128 46.9544 27.1128H66.305C66.763 27.1128 67.1337 27.484 67.1337 27.9414V29.2336H67.1342Z" fill="#98C6CF"/>
<path d="M19.4641 52.6138L21.6249 90.1691C21.6433 90.4881 21.9339 90.7388 22.2869 90.7388H29.4612C29.8319 90.7388 30.132 90.4664 30.132 90.1308V89.2421H41.8515V90.1141C41.8515 90.4592 42.1599 90.7388 42.5406 90.7388H49.7028C50.0524 90.7388 50.3403 90.4909 50.3586 90.1747L52.52 52.6138H19.4641Z" fill="#1F8297"/>
<path d="M40.6584 85.5537H31.3248C30.6646 85.5537 30.1294 86.0389 30.1294 86.6374V89.2423H41.8544V86.6374C41.8538 86.0389 41.3186 85.5537 40.6584 85.5537Z" fill="#98C6CF"/>
<path d="M54.1292 51.2358H17.8538V54.7639H54.1292V51.2358Z" fill="#1F8297"/>
<path d="M54.1292 50.2202H17.8538V51.2356H54.1292V50.2202Z" fill="#1F8297"/>
<path d="M40.8098 47.0347H31.1733V48.2157H40.8098V47.0347Z" fill="#1F8297"/>
<path d="M51.2775 50.2204H20.7048V48.2925C30.6586 47.5138 40.8491 47.5138 51.2775 48.2925V50.2204Z" fill="#1F8297"/>
<path d="M40.8046 47.9783C37.5918 47.8988 34.3527 47.8966 31.1782 47.9705L31.1682 47.5537C34.3489 47.4798 37.5945 47.482 40.8141 47.5615L40.8046 47.9783Z" fill="#98C6CF"/>
<path d="M52.3951 54.5557H19.5872V54.9725H52.3951V54.5557Z" fill="#98C6CF"/>
<path d="M51.2777 50.0117H20.7056V50.4285H51.2777V50.0117Z" fill="#98C6CF"/>
<path d="M32.5638 69.4338L33.5086 69.9279L32.3971 66.0581L28.5662 67.3425L29.6038 67.8855L29.023 68.9659C28.6912 69.5833 28.7929 70.273 29.1642 70.7649L29.1631 70.7643L31.3022 74.2073C31.5251 74.5658 31.9174 74.7842 32.3393 74.7842H34.8096V71.4274H31.5284L32.5638 69.4338Z" fill="white"/>
<path d="M35.9412 63.3382L36.4881 62.4612C36.5275 62.3979 36.5709 62.3384 36.6165 62.2828C36.5709 62.3389 36.5275 62.3979 36.4881 62.4612L35.9412 63.3382L37.0855 65.2712L36.1663 65.8114L40.0383 66.9157L40.9748 62.9853L39.9649 63.5789L39.3553 62.5146C39.0068 61.906 38.3682 61.6276 37.7541 61.6826L37.7552 61.6815L33.702 61.6759C33.2796 61.6754 32.8873 61.8927 32.6638 62.2511L31.3567 64.3475L34.205 66.1232L35.9412 63.3382Z" fill="white"/>
<path d="M43.2725 69.0975L42.107 66.9194L39.1476 68.5028L40.6954 71.3961L38.4495 71.4239L38.4395 70.3574L35.5518 73.1629L38.4912 75.9345L38.4801 74.7635L39.7067 74.7657C40.408 74.7669 40.9677 74.3523 41.2267 73.7926V73.7943L43.253 70.2841C43.4642 69.9184 43.4714 69.4693 43.2725 69.0975Z" fill="white"/>
<path d="M41.9041 86.6374H41.4873V83.2645C41.4873 82.8499 41.1616 82.5125 40.7609 82.5125H31.2206C30.8199 82.5125 30.4942 82.8499 30.4942 83.2645V86.6374H30.0774V83.2645C30.0774 82.6203 30.5904 82.0957 31.2206 82.0957H40.7609C41.3911 82.0957 41.9041 82.6198 41.9041 83.2645V86.6374Z" fill="#98C6CF"/>
<path d="M87.567 90.7386H66.9708C66.0527 90.7386 65.3091 90.0344 65.3091 89.1663L64.2292 58.6187H90.3086L89.2287 89.1663C89.2287 90.0344 88.4845 90.7386 87.567 90.7386Z" fill="white"/>
<path d="M90.6327 60.3829H63.9048C63.5413 60.3829 63.2473 60.0883 63.2473 59.7254V56.8938C63.2473 56.5303 63.5419 56.2363 63.9048 56.2363H90.6327C90.9962 56.2363 91.2901 56.5309 91.2901 56.8938V59.7254C91.2907 60.0883 90.9962 60.3829 90.6327 60.3829Z" fill="white"/>
<path d="M80.7931 59.5475H73.7432C72.8228 59.5475 72.0742 58.7988 72.0742 57.8791V55.1953C72.0742 54.2755 72.8228 53.5269 73.7432 53.5269H80.7931C81.7134 53.5269 82.462 54.2755 82.462 55.1953V57.8791C82.462 58.7988 81.714 59.5475 80.7931 59.5475ZM73.7437 54.6378C73.4364 54.6378 73.1863 54.8879 73.1863 55.1947V57.8785C73.1863 58.1859 73.4364 58.4354 73.7437 58.4354H80.7936C81.101 58.4354 81.3511 58.1853 81.3511 57.8785V55.1947C81.3511 54.8879 81.101 54.6378 80.7936 54.6378H73.7437Z" fill="white"/>
<path d="M90.3086 60.1748H64.2292V60.5916H90.3086V60.1748Z" fill="#98C6CF"/>
<path d="M77.6454 86.42H76.8918C76.1131 86.42 75.479 85.7864 75.479 85.0073V66.0084C75.479 65.2298 76.1131 64.5962 76.8918 64.5962H77.6454C78.424 64.5962 79.0581 65.2298 79.0581 66.0084V85.0073C79.0581 85.7864 78.4246 86.42 77.6454 86.42ZM76.8918 65.0136C76.3427 65.0136 75.8958 65.4604 75.8958 66.009V85.0078C75.8958 85.5569 76.3427 86.0037 76.8918 86.0037H77.6454C78.1945 86.0037 78.6413 85.5569 78.6413 85.0078V66.009C78.6413 65.4599 78.1945 65.0136 77.6454 65.0136H76.8918Z" fill="#98C6CF"/>
<path d="M70.9601 86.4195H70.2737C69.4762 86.4195 68.827 85.8003 68.827 85.04L68.3435 65.9812C68.3435 65.2153 68.9926 64.5962 69.7902 64.5962H70.4765C71.2741 64.5962 71.9232 65.2153 71.9232 65.9756L72.4067 85.0345C72.4067 85.8009 71.7576 86.4195 70.9601 86.4195ZM69.7902 65.013C69.2227 65.013 68.7603 65.4448 68.7603 65.9756L69.2438 85.0345C69.2438 85.5702 69.7057 86.0026 70.2737 86.0026H70.9601C71.5275 86.0026 71.9899 85.5708 71.9899 85.04L71.5064 65.9812C71.5064 65.4454 71.0445 65.013 70.4765 65.013H69.7902Z" fill="#98C6CF"/>
<path d="M84.2639 86.4195H83.5775C82.78 86.4195 82.1309 85.8003 82.1309 85.04L82.6144 65.9706C82.6144 65.2153 83.2635 64.5962 84.061 64.5962H84.7474C85.5444 64.5962 86.1935 65.2153 86.1935 65.9756L85.71 85.045C85.71 85.8009 85.0608 86.4195 84.2639 86.4195ZM84.0605 65.013C83.4925 65.013 83.0306 65.4448 83.0306 65.9756L82.5471 85.045C82.5471 85.5708 83.009 86.0026 83.577 86.0026H84.2633C84.8308 86.0026 85.2932 85.5708 85.2932 85.04L85.7767 65.9706C85.7767 65.4448 85.3148 65.013 84.7474 65.013H84.0605Z" fill="#98C6CF"/>
<defs>
<linearGradient id="paint0_linear_698_8404" x1="132.743" y1="4.64746" x2="-25.1172" y2="93.411" gradientUnits="userSpaceOnUse">
<stop stop-color="#1F8297"/>
<stop offset="0.448113" stop-color="#166C7D"/>
<stop offset="1" stop-color="#003940"/>
</linearGradient>
</defs>
</svg>
