<svg width="169" height="204" viewBox="0 0 169 204" fill="none" xmlns="http://www.w3.org/2000/svg">
<path opacity="0.5" d="M11.5218 195.346H158.019C158.019 195.346 161.809 178.819 155.165 169.687C147.11 158.617 138.306 163.012 134.764 158.556C130.071 152.653 132.794 127.761 105.491 127.972C86.453 128.119 77.5208 150.213 71.9139 150.213C64.7815 150.213 54.8831 142.19 36.9438 147.088C6.02017 155.534 11.5218 195.346 11.5218 195.346Z" fill="#DBF1FF"/>
<path d="M94.8167 193.115C94.8167 193.115 88.1836 183.302 92.4104 179.543C95.0011 177.237 96.2683 184.618 96.2683 184.618C96.2683 184.618 97.738 170.534 102.515 173.506C104.85 174.958 99.943 187.947 99.943 187.947C99.943 187.947 103.434 181.193 106.19 183.048C110.64 186.042 100.036 193.015 100.036 193.015L94.8167 193.115Z" fill="#A2DDD0"/>
<path d="M110.041 183.267C110.113 183.267 110.18 183.22 110.199 183.145C110.214 183.084 110.578 181.644 109.762 180.422C109.205 179.585 108.237 179.063 106.891 178.874C106.799 178.863 106.718 178.924 106.705 179.012C106.692 179.102 106.756 179.184 106.845 179.196C108.096 179.373 108.986 179.845 109.49 180.601C110.227 181.705 109.887 183.049 109.884 183.064C109.861 183.15 109.913 183.239 110.001 183.261C110.013 183.265 110.027 183.267 110.041 183.267Z" fill="#A2DDD0"/>
<path d="M89.9572 178.865C90.0135 178.852 90.0649 178.81 90.0816 178.751C90.3403 177.868 90.7873 177.303 91.4094 177.068C92.6308 176.599 94.1506 177.534 94.166 177.544C94.241 177.592 94.3425 177.568 94.3908 177.492C94.4378 177.416 94.4137 177.316 94.3375 177.268C94.2707 177.227 92.6642 176.244 91.2931 176.762C90.57 177.039 90.0587 177.675 89.7683 178.659C89.7436 178.745 89.7925 178.836 89.8785 178.86C89.9058 178.869 89.9318 178.869 89.9572 178.865Z" fill="#A2DDD0"/>
<path d="M97.3411 193.069L100.769 177.116C100.788 177.029 100.732 176.942 100.643 176.921C100.555 176.905 100.469 176.96 100.449 177.048L97.005 193.075L97.3411 193.069Z" fill="#E0FBF0"/>
<path d="M99.1655 193.034L105.479 185.373C105.537 185.304 105.527 185.203 105.456 185.145C105.386 185.087 105.284 185.098 105.226 185.166L98.7359 193.043L99.1655 193.034Z" fill="#E0FBF0"/>
<path d="M96.1736 193.091L93.5786 181.403C93.5612 181.313 93.4758 181.26 93.3848 181.279C93.2963 181.297 93.2412 181.385 93.2616 181.475L95.8418 193.096L96.1736 193.091Z" fill="#E0FBF0"/>
<path d="M101.115 193.115C101.115 193.115 96.1205 185.726 99.3033 182.895C101.254 181.159 102.208 186.717 102.208 186.717C102.208 186.717 103.315 176.112 106.912 178.349C108.671 179.443 104.975 189.224 104.975 189.224C104.975 189.224 107.605 184.138 109.679 185.534C113.03 187.789 105.045 193.04 105.045 193.04L101.115 193.115Z" fill="#A2DDD0"/>
<path d="M112.579 185.7C112.633 185.7 112.684 185.664 112.698 185.607C112.71 185.562 112.984 184.477 112.369 183.557C111.95 182.926 111.221 182.534 110.207 182.392C110.138 182.383 110.077 182.429 110.067 182.495C110.057 182.563 110.105 182.625 110.173 182.634C111.115 182.767 111.785 183.122 112.164 183.692C112.72 184.523 112.463 185.535 112.461 185.546C112.444 185.611 112.483 185.678 112.549 185.695C112.558 185.698 112.569 185.7 112.579 185.7Z" fill="#A2DDD0"/>
<path d="M97.456 182.384C97.4984 182.374 97.5371 182.343 97.5497 182.299C97.7445 181.633 98.0811 181.208 98.5496 181.032C99.4693 180.678 100.614 181.383 100.625 181.39C100.682 181.426 100.758 181.408 100.795 181.35C100.83 181.293 100.812 181.218 100.754 181.182C100.704 181.151 99.4945 180.411 98.4619 180.801C97.9175 181.01 97.5324 181.489 97.3138 182.23C97.2952 182.294 97.332 182.362 97.3968 182.381C97.4173 182.387 97.4369 182.388 97.456 182.384Z" fill="#A2DDD0"/>
<path d="M103.016 193.078L105.598 181.065C105.612 180.999 105.569 180.934 105.503 180.918C105.436 180.906 105.372 180.947 105.357 181.014L102.763 193.083L103.016 193.078Z" fill="#E0FBF0"/>
<path d="M104.39 193.055L109.144 187.286C109.188 187.234 109.18 187.158 109.127 187.115C109.074 187.07 108.997 187.079 108.954 187.13L104.066 193.061L104.39 193.055Z" fill="#E0FBF0"/>
<path d="M102.137 193.096L100.183 184.295C100.17 184.228 100.106 184.187 100.037 184.202C99.9704 184.216 99.9289 184.282 99.9443 184.349L101.887 193.1L102.137 193.096Z" fill="#E0FBF0"/>
<path d="M140.134 19.1434C140.134 26.4675 134.188 32.4059 126.852 32.4059C119.516 32.4059 113.57 26.4675 113.57 19.1434C113.57 11.8192 119.516 5.88086 126.852 5.88086C134.188 5.88086 140.134 11.8186 140.134 19.1434Z" fill="#FFDD82"/>
<path d="M126.314 1.03041C126.322 1.83459 126.33 2.63877 126.338 3.44295C126.34 3.55916 126.34 3.67413 126.341 3.79034C126.345 4.07097 126.587 4.34109 126.88 4.32749C127.169 4.31451 127.421 4.09136 127.418 3.79034C127.411 2.98616 127.402 2.18198 127.394 1.37779C127.393 1.2622 127.392 1.14662 127.391 1.03041C127.388 0.749162 127.146 0.479658 126.853 0.492638C126.563 0.506237 126.311 0.729382 126.314 1.03041Z" fill="#FFAD0D"/>
<path d="M126.301 34.4972C126.309 35.3014 126.317 36.1056 126.324 36.9097C126.325 37.026 126.327 37.1415 126.328 37.2571C126.33 37.5384 126.573 37.8079 126.866 37.7949C127.155 37.7819 127.407 37.5582 127.404 37.2571C127.396 36.4529 127.389 35.6488 127.381 34.8446C127.379 34.729 127.378 34.6134 127.377 34.4972C127.375 34.2153 127.131 33.9465 126.839 33.9594C126.55 33.973 126.298 34.1962 126.301 34.4972Z" fill="#FFAD0D"/>
<path d="M144.978 18.3555C144.173 18.3666 143.368 18.3778 142.562 18.3883C142.447 18.3901 142.33 18.3914 142.214 18.3932C141.933 18.3975 141.663 18.638 141.676 18.9304C141.689 19.2184 141.913 19.4719 142.214 19.4675C143.02 19.4564 143.825 19.4453 144.631 19.4341C144.747 19.4335 144.863 19.431 144.978 19.4292C145.259 19.4255 145.529 19.185 145.516 18.892C145.504 18.6052 145.281 18.3518 144.978 18.3555Z" fill="#FFAD0D"/>
<path d="M111.463 18.4805C110.658 18.4923 109.852 18.5028 109.047 18.5139C108.931 18.5157 108.815 18.5176 108.7 18.5188C108.419 18.5225 108.148 18.763 108.162 19.056C108.174 19.3434 108.398 19.5975 108.7 19.5931C109.505 19.582 110.311 19.5709 111.116 19.5604C111.232 19.5585 111.348 19.5573 111.464 19.5554C111.745 19.5523 112.015 19.3113 112.002 19.0183C111.988 18.7302 111.764 18.4768 111.463 18.4805Z" fill="#FFAD0D"/>
<path d="M139.379 5.49668C138.743 5.99427 138.107 6.49063 137.472 6.98822C137.382 7.05807 137.292 7.12853 137.203 7.19838C137.102 7.2775 137.045 7.45737 137.045 7.57853C137.045 7.71019 137.104 7.86781 137.203 7.95868C137.305 8.05263 137.44 8.12248 137.583 8.11568C137.735 8.10888 137.845 8.05078 137.964 7.95868C138.6 7.46109 139.236 6.96411 139.871 6.46776C139.961 6.39729 140.051 6.32682 140.141 6.25697C140.242 6.17847 140.298 5.9986 140.298 5.87745C140.298 5.74578 140.24 5.58816 140.141 5.4973C140.038 5.40396 139.904 5.3335 139.761 5.3403C139.608 5.3471 139.498 5.40458 139.379 5.49668Z" fill="#FFAD0D"/>
<path d="M114.518 29.8163C113.888 30.32 113.258 30.8244 112.629 31.3282C112.54 31.3999 112.45 31.4716 112.361 31.5427C112.261 31.6237 112.204 31.8005 112.204 31.9228C112.204 32.0545 112.262 32.2121 112.361 32.303C112.464 32.3963 112.598 32.4668 112.741 32.4606C112.893 32.4538 113.005 32.3963 113.122 32.303C113.751 31.7992 114.381 31.2948 115.01 30.7904C115.1 30.7187 115.189 30.6477 115.278 30.576C115.379 30.4956 115.436 30.3188 115.436 30.1958C115.436 30.0648 115.377 29.9065 115.278 29.8163C115.176 29.7223 115.041 29.6519 114.898 29.6587C114.747 29.6661 114.636 29.7223 114.518 29.8163Z" fill="#FFAD0D"/>
<path d="M113.02 7.1074C113.624 7.64393 114.227 8.17984 114.831 8.717C114.916 8.79241 115 8.8672 115.085 8.94199C115.295 9.12928 115.641 9.1639 115.845 8.94199C116.034 8.73801 116.07 8.38197 115.845 8.18232C115.242 7.64579 114.638 7.10925 114.034 6.57272C113.949 6.49792 113.865 6.4219 113.781 6.3471C113.57 6.16043 113.224 6.12458 113.02 6.3471C112.833 6.5517 112.795 6.90836 113.02 7.1074Z" fill="#FFAD0D"/>
<path d="M138.289 29.9737C138.99 30.3743 139.691 30.7748 140.391 31.1754C140.49 31.2316 140.588 31.2891 140.688 31.3447C140.932 31.4844 141.287 31.4096 141.424 31.1525C141.559 30.8966 141.491 30.5659 141.23 30.4169C140.529 30.0164 139.829 29.6158 139.127 29.2153C139.029 29.1584 138.93 29.1022 138.831 29.0459C138.587 28.9062 138.231 28.981 138.095 29.2394C137.96 29.494 138.028 29.8247 138.289 29.9737Z" fill="#FFAD0D"/>
<path d="M63.8381 27.2184C64.4305 26.2814 64.6998 25.1897 64.5661 24.0833C64.451 23.1011 63.926 22.0905 62.943 21.7486C61.4932 21.2443 59.2225 21.9013 58.8053 23.5418C58.7421 23.7334 58.4555 23.6543 58.5032 23.459C58.7675 22.6511 58.8808 21.7511 58.7279 20.9092C58.5973 20.1823 58.2382 19.4906 57.5442 19.1711C56.9159 18.8818 56.1749 18.9325 55.5243 19.1099C54.4354 19.4041 53.17 20.1656 52.6717 21.2597C52.6203 21.4371 52.5615 21.6127 52.499 21.7851C52.4291 21.9705 52.1598 21.8995 52.2 21.701C52.2353 21.5206 52.296 21.3487 52.3684 21.1837C52.6519 20.2107 52.7448 19.1797 52.6414 18.1709C52.5337 17.1244 52.1951 16.0606 51.5314 15.2348C50.7849 14.3083 49.6793 13.7822 48.5006 13.7155C47.1275 13.6388 45.7328 14.1018 44.6049 14.8819C44.0837 15.2429 43.5767 15.6564 43.152 16.1293C42.9155 16.3944 42.689 16.6955 42.5361 17.0231C42.494 17.3377 42.4253 17.6474 42.3262 17.9496C42.2674 18.1172 42.0241 18.0881 42.0185 17.9076C42.008 17.5689 42.0934 17.245 42.2327 16.9427C42.4135 15.4907 41.9907 13.9294 41.3698 12.656C40.6845 11.2591 39.569 9.85096 38.0158 9.41209C36.4285 8.96519 34.8301 9.79409 33.7722 10.958C32.5743 12.2802 31.8835 14.0357 31.491 15.7584C31.1146 17.423 30.9716 19.2168 31.3028 20.903C31.3406 21.0984 31.0571 21.1824 31.0013 20.9859C30.6473 19.7045 30.1322 18.4343 29.3429 17.3562C28.6873 16.4593 27.76 15.678 26.6203 15.5631C25.3711 15.4363 24.0748 16.0464 23.2403 16.9625C21.5813 18.7804 21.8308 21.6479 22.9129 23.6889C23.0107 23.8719 22.7649 24.0029 22.6448 23.8466C22.1843 23.2408 21.5466 22.7741 20.7858 22.6523C19.6393 22.4657 18.4464 23.0924 17.81 24.0419C17.4987 24.5073 17.3123 25.0531 17.3352 25.6169C17.3612 26.2746 17.677 26.8624 18.1196 27.3316C18.1518 27.3674 18.1648 27.407 18.1617 27.4441H63.6858C63.7372 27.3674 63.7904 27.2951 63.8381 27.2184Z" fill="#84B8DA"/>
<path d="M73.0434 34.7921C73.016 34.1008 72.8605 33.4013 72.5648 32.7705C72.3331 32.2752 72.0206 31.816 71.5525 31.5089C69.954 30.4603 67.3552 31.1583 66.5903 32.909C66.5058 33.0802 66.261 32.9308 66.335 32.7617C66.7453 31.9241 66.8042 30.9396 66.6245 30.0353C66.4611 29.2251 66.106 28.4315 65.5313 27.8208C64.8705 27.1176 63.9622 26.7723 62.9898 26.8312C61.904 26.8979 60.8586 27.4237 60.047 28.1192C59.6751 28.4371 59.3147 28.7789 59.0021 29.1553C58.7867 29.4138 58.5861 29.7049 58.4589 30.0208C58.4206 30.2049 58.3786 30.3869 58.3245 30.5668C58.2787 30.7199 58.0177 30.6961 58.034 30.5275C58.035 30.5146 58.0376 30.5022 58.0387 30.4893H58.0382C58.0387 30.4872 58.0397 30.4851 58.0397 30.4841C58.0613 30.3037 58.1059 30.1305 58.1695 29.9645C58.4805 28.4299 58.2551 26.7779 57.6894 25.3261C57.1409 23.9234 56.1628 22.5408 54.7066 21.9482C53.1243 21.3061 51.2936 21.7559 50.0833 22.9099C48.781 24.1534 48.1117 25.9533 47.7514 27.6678C47.5434 28.6595 47.4241 29.6729 47.5176 30.6852C47.6321 31.9313 47.9857 33.1443 48.0445 34.3976C48.0508 34.5083 47.9158 34.5806 47.8212 34.5243C47.3605 34.243 46.8867 33.9535 46.3619 33.8025C45.8187 33.6463 45.2645 33.6908 44.756 33.94C43.9328 34.3428 43.1307 35.3847 43.313 36.3319C43.344 36.4922 43.1328 36.5899 43.0414 36.4441C42.6185 35.7667 42.1504 35.107 41.5742 34.545C41.073 34.0558 40.4626 33.6174 39.7502 33.5057C38.9885 33.3858 38.2316 33.7105 37.6826 34.2223C36.5915 35.2435 36.1886 36.9849 36.8316 38.3437H72.0101C72.7098 37.2956 73.0927 36.0501 73.0434 34.7921Z" fill="#DBF1FF"/>
<path d="M161.567 30.2008C161.538 29.4583 161.375 28.707 161.064 28.0294C160.821 27.4974 160.492 27.0043 160 26.6744C158.32 25.5482 155.59 26.2979 154.786 28.1783C154.697 28.3621 154.44 28.2016 154.518 28.02C154.949 27.1204 155.011 26.063 154.822 25.0917C154.65 24.2215 154.277 23.369 153.673 22.7132C152.978 21.9579 152.024 21.5869 151.002 21.6502C149.861 21.7219 148.763 22.2866 147.91 23.0336C147.519 23.3751 147.14 23.7422 146.812 24.1465C146.585 24.4242 146.375 24.7368 146.241 25.0761C146.201 25.2738 146.156 25.4693 146.1 25.6626C146.052 25.827 145.777 25.8014 145.794 25.6204C145.795 25.6065 145.798 25.5932 145.799 25.5793H145.799C145.799 25.5771 145.8 25.5748 145.8 25.5737C145.823 25.3799 145.87 25.1939 145.937 25.0156C146.264 23.3673 146.027 21.593 145.432 20.0336C144.856 18.527 143.828 17.042 142.298 16.4056C140.635 15.7158 138.711 16.199 137.439 17.4385C136.071 18.7741 135.368 20.7073 134.989 22.5488C134.77 23.6139 134.645 24.7024 134.743 25.7898C134.864 27.1281 135.235 28.431 135.297 29.7771C135.304 29.896 135.162 29.9737 135.062 29.9132C134.578 29.6111 134.08 29.3001 133.529 29.1379C132.958 28.9702 132.376 29.018 131.841 29.2856C130.976 29.7182 130.133 30.8373 130.325 31.8546C130.357 32.0268 130.135 32.1318 130.039 31.9752C129.595 31.2477 129.103 30.539 128.498 29.9354C127.971 29.41 127.33 28.9391 126.581 28.8191C125.781 28.6903 124.985 29.0391 124.408 29.5888C123.262 30.6857 122.838 32.556 123.514 34.0155H160.481C161.216 32.8898 161.619 31.552 161.567 30.2008Z" fill="#DBF1FF"/>
<path d="M56.228 77.6074C54.6309 80.2814 52.9099 82.8497 50.9897 85.2839C50.8008 85.525 50.9835 85.9119 51.2849 85.97C54.5319 86.5993 57.7794 87.2316 61.0232 87.8559C63.7092 88.3745 67.6649 88.5068 71.7717 87.3874C76.716 86.0361 80.9324 82.2476 82.2082 76.8737C83.3231 72.1784 78.697 69.8239 74.9134 68.5852C70.2482 67.0591 65.5286 69.0198 61.8088 71.4403C59.3914 73.0141 57.7131 75.1238 56.228 77.6074Z" fill="#A2DDD0"/>
<path d="M51.2868 85.638C53.3136 84.9599 55.349 84.2775 57.2656 83.3256C57.4247 83.2477 57.58 83.163 57.7348 83.0796C57.3411 83.5413 56.9499 84.0068 56.5815 84.4858C56.1135 85.0928 55.734 85.7548 55.5186 86.491C55.4499 86.7358 55.8189 86.8891 55.8894 86.6431C56.1024 85.91 56.4757 85.2671 56.9418 84.67C57.4841 83.9796 58.0623 83.3157 58.62 82.6401C58.6491 82.6135 58.6597 82.5801 58.6652 82.5517C59.9776 81.7636 61.2219 80.8685 62.5429 80.0878C63.9643 79.2497 65.4506 78.5481 66.9753 77.93C66.8664 79.8035 65.3831 81.4007 64.3147 82.8323C63.6659 83.7026 63.0184 84.5717 62.3696 85.4427C61.8725 86.1146 61.3637 86.8106 61.4441 87.6846C61.4689 87.9405 61.8626 87.8849 61.8409 87.6277C61.7425 86.5924 62.7126 85.6547 63.2846 84.8845C63.9507 83.9888 64.6161 83.0956 65.2829 82.2012C66.2684 80.8803 67.3313 79.474 67.3728 77.7699C69.6063 76.8866 71.9129 76.1714 74.199 75.4661C74.9518 75.2349 75.707 75.0019 76.4666 74.7899C74.9938 79.9383 71.9407 84.4963 67.6105 87.6945C67.4037 87.8484 67.6519 88.1593 67.8587 88.0079C72.3146 84.717 75.4544 79.9871 76.9129 74.6656C78.4692 74.2391 80.0471 73.9041 81.6678 73.8021C81.9235 73.7854 81.8659 73.3929 81.6102 73.4065C81.0116 73.4448 80.4204 73.5165 79.8317 73.6086C79.823 73.6019 79.8138 73.5932 79.802 73.5876C77.5369 72.3093 75.1294 71.3278 72.6105 70.6794C70.0997 70.0334 67.1524 69.3943 64.618 70.2188C64.3729 70.2967 64.5344 70.6614 64.7789 70.5817C66.1285 70.1434 67.5486 70.2071 68.9383 70.3839C70.1863 70.5372 71.4201 70.7752 72.6316 71.0929C74.9258 71.6925 77.1345 72.5813 79.2114 73.7181C78.4017 73.8695 77.6007 74.0636 76.8052 74.2812C76.7303 74.2534 76.6473 74.2663 76.6009 74.3368C76.1787 74.4542 75.7565 74.5785 75.3356 74.7052C74.4732 74.9648 73.6097 75.2269 72.7504 75.497C70.9119 74.6632 69.0392 74.0963 67.0378 73.8077C64.8192 73.4887 62.5888 73.2279 60.3633 72.9423C60.1095 72.9065 60.0612 73.3039 60.3138 73.3373C62.4668 73.6148 64.618 73.8744 66.768 74.1724C68.656 74.4357 70.4302 74.9314 72.1704 75.6775C71.1533 76.0002 70.1424 76.3321 69.1408 76.6875C68.5106 76.9101 67.8853 77.1419 67.2644 77.3872C67.1765 77.3613 67.0608 77.3984 67.0069 77.4886C65.8233 77.964 64.6601 78.4888 63.5328 79.0852C63.5285 79.0846 63.5217 79.0828 63.5155 79.0815C62.2136 79.0389 61.0801 78.3571 59.8519 78.0146C58.5272 77.6438 57.2767 77.8459 55.9705 78.1778C55.7229 78.2409 55.7774 78.6352 56.0244 78.5722C56.6824 78.4053 57.346 78.2335 58.027 78.197C58.7141 78.1568 59.3852 78.2736 60.0364 78.4857C60.9959 78.7997 61.9183 79.2645 62.9187 79.424C61.2002 80.4006 59.6254 81.6023 57.8896 82.5517C55.7508 83.723 53.4293 84.5013 51.1259 85.2739C50.8826 85.3549 51.0435 85.7202 51.2868 85.638Z" fill="#E0FBF0"/>
<path d="M73.8585 67.142C75.4476 67.3887 77.1023 67.3349 78.7248 66.9906C79.9716 66.726 81.123 66.527 81.518 65.0039C82.3103 61.9479 81.479 58.6521 79.8837 56.3588C79.5803 55.9249 79.2436 55.5355 78.8907 55.1665C78.1318 54.196 77.218 53.3758 76.165 52.7811C74.2082 51.6753 71.958 51.3279 69.7028 51.3514C68.5885 51.3625 67.4693 51.4639 66.3519 51.5968C64.9925 51.7606 63.4746 52.1686 62.3318 51.2852C62.078 51.0862 61.7666 51.3823 61.7771 51.7C61.8508 53.7306 61.9331 55.7889 62.4705 57.6971C62.988 59.5348 63.9717 61.0615 65.211 62.3355C67.5764 64.7715 70.5484 66.6327 73.8585 67.142Z" fill="#A2DDD0"/>
<path d="M73.0803 66.6874C73.8956 65.8894 74.9696 65.5927 76.0864 65.7281C76.7185 65.8035 77.3016 65.856 77.9287 65.7108C78.5298 65.5754 79.0987 65.3263 79.6595 65.0778C78.8938 64.1506 78.1033 63.2414 77.2261 62.4174C77.2032 62.3952 77.1803 62.3766 77.1574 62.355C74.1525 62.5311 71.802 64.8343 68.8306 65.1835C68.6151 65.2113 68.5557 64.8775 68.7736 64.8497C71.6484 64.5116 73.9377 62.3426 76.8125 62.0441C75.7354 61.1076 74.5345 60.3448 73.2759 59.6649C72.8531 59.4356 72.4272 59.2106 72.0025 58.985C71.2145 59.1562 70.523 59.5586 69.7888 59.8701C69.1494 60.1415 68.4913 60.2972 67.7943 60.3275C66.4008 60.3869 65.0265 60.0512 63.633 60.1217C63.4176 60.1297 63.3569 59.7959 63.5761 59.7867C64.9417 59.7193 66.2881 60.0277 67.6525 59.9937C68.4554 59.9746 69.1846 59.7749 69.9126 59.4442C70.458 59.1951 70.9898 58.9275 71.5587 58.7525C70.1349 58.0052 68.7142 57.2585 67.3547 56.403C65.4982 56.5193 63.4937 56.5384 62.078 55.1408C61.9232 54.9875 62.1832 54.7663 62.3374 54.9195C63.5464 56.1138 65.2642 56.1743 66.8706 56.0927C66.3599 55.7608 65.8604 55.4097 65.3732 55.0358C64.0435 54.0152 62.8338 52.8501 61.8291 51.5063C61.6991 51.3332 61.9573 51.1113 62.0885 51.2868C63.5395 53.229 65.4134 54.7601 67.4383 56.0606C67.5225 56.0575 67.5813 56.1101 67.6098 56.1725C67.8227 56.3091 68.0394 56.4426 68.2561 56.5724C68.235 56.0563 68.1471 55.5507 68.0153 55.0555C67.7175 53.9485 67.1956 52.8927 66.6849 51.8716C66.5877 51.6769 66.8973 51.5316 66.9938 51.7282C67.7856 53.3167 68.5774 54.969 68.599 56.7764C68.7705 56.879 68.9426 56.976 69.1153 57.0768C70.0854 57.63 71.0894 58.1338 72.0861 58.6487C72.0942 58.6518 72.0991 58.6543 72.1059 58.6586C72.6396 58.9337 73.1725 59.2149 73.6944 59.506C73.9724 58.1987 73.4629 56.9105 72.9392 55.7281C72.3684 54.438 71.8905 53.1764 71.7562 51.7609C71.7357 51.5446 72.0706 51.4865 72.0911 51.7028C72.1666 52.4915 72.3245 53.2692 72.5913 54.0171C72.8482 54.7459 73.1967 55.4388 73.492 56.1515C73.9587 57.2752 74.2844 58.4713 74.0021 59.6828C75.1027 60.3139 76.1576 61.0056 77.1122 61.8562C77.7095 62.3896 78.2636 62.9614 78.7978 63.5566C79.5184 62.1399 78.9576 60.5025 78.4629 59.0968C77.9392 57.6164 77.6179 56.1682 77.821 54.5907C77.8495 54.3744 78.1862 54.4022 78.1596 54.6204C78.0482 55.4777 78.068 56.3419 78.2394 57.1887C78.4295 58.1221 78.8059 58.9992 79.0944 59.901C79.5035 61.1793 79.7054 62.6022 79.0368 63.8224C79.6224 64.4906 80.1826 65.1804 80.7416 65.8703C80.8791 66.0378 80.6222 66.2615 80.4835 66.0909C80.2829 65.8424 80.083 65.5971 79.8818 65.3529C78.8579 65.8072 77.7975 66.2455 76.6541 66.1416C76.0412 66.0866 75.4618 65.9636 74.8471 66.0977C74.2565 66.2238 73.7303 66.5261 73.2995 66.9477C73.1441 67.0979 72.9243 66.8395 73.0803 66.6874Z" fill="#E0FBF0"/>
<path d="M6.80952 194.109C6.80952 196.499 41.4549 198.435 84.1909 198.435C126.927 198.435 161.571 196.499 161.571 194.109C161.571 191.719 126.926 189.781 84.1909 189.781C41.4549 189.781 6.80952 191.719 6.80952 194.109Z" fill="#69ABB9"/>
<path d="M31.1589 193.249C31.1589 193.249 39.8776 177.315 34.0901 175.286C30.2675 173.947 29.0232 188.851 29.0232 188.851C29.0232 188.851 28.6815 172.328 23.6096 174.44C19.7796 176.035 24.8966 187.963 24.8966 187.963C24.8966 187.963 19.3382 183.463 18.6374 186.29C17.5225 190.781 23.9185 193.331 23.9185 193.331L31.1589 193.249Z" fill="#A2DDD0"/>
<path d="M29.3662 193.271L33.585 180.066C33.6079 179.994 33.5683 179.917 33.4952 179.893C33.4222 179.87 33.3442 179.909 33.3213 179.983L29.0734 193.276L29.3662 193.271Z" fill="#E0FBF0"/>
<path d="M28.2679 193.284L25.2439 178.89C25.2284 178.815 25.1535 178.767 25.0805 178.782C25.0056 178.798 24.9573 178.872 24.9721 178.946L27.9844 193.288L28.2679 193.284Z" fill="#E0FBF0"/>
<path d="M26.7123 193.302L20.9669 188.363C20.9068 188.313 20.8208 188.321 20.7713 188.377C20.7217 188.436 20.7267 188.523 20.7849 188.573L26.2938 193.306L26.7123 193.302Z" fill="#E0FBF0"/>
<path d="M37.5221 174.15L37.753 173.994C37.735 173.968 35.9819 171.421 33.4271 171.923L33.4809 172.195C35.8575 171.729 37.5079 174.123 37.5221 174.15Z" fill="#A2DDD0"/>
<path d="M15.627 186.655L15.8981 186.59C15.6295 185.483 15.7372 184.643 16.2182 184.091C16.9889 183.207 18.4789 183.344 18.4932 183.345L18.521 183.07C18.456 183.063 16.8768 182.918 16.0108 183.909C15.466 184.532 15.3367 185.458 15.627 186.655Z" fill="#A2DDD0"/>
<path d="M133.057 192.151C133.057 192.151 122.626 172.565 131.1 172.773C134.585 172.86 137.594 188.433 137.594 188.433C137.594 188.433 136.91 174.221 143.881 176.452C147.651 177.66 141.946 188.433 141.946 188.433C141.946 188.433 147.111 181.476 150.019 183.452C154.755 186.669 146.065 192.205 146.065 192.205L133.057 192.151Z" fill="#A2DDD0"/>
<path d="M128.483 192.134C128.483 192.134 126.644 181.766 122.605 181.946C119.715 182.072 122.322 189.094 124.772 192.127C124.772 192.127 128.369 192.134 128.483 192.134Z" fill="#A2DDD0"/>
<path d="M135.59 192.161L131.246 176.813C131.216 176.708 131.108 176.648 131.006 176.677C130.902 176.706 130.843 176.813 130.872 176.918L135.186 192.158L135.59 192.161Z" fill="#E0FBF0"/>
<path d="M139.189 192.177L142.2 179.754C142.225 179.651 142.16 179.548 142.057 179.522C141.952 179.5 141.848 179.561 141.822 179.665L138.79 192.176H139.189V192.177Z" fill="#E0FBF0"/>
<path d="M126.578 192.128L123.797 185.202C123.758 185.103 123.645 185.055 123.546 185.093C123.445 185.133 123.397 185.248 123.436 185.345L126.158 192.128H126.578Z" fill="#E0FBF0"/>
<path d="M142.386 192.195L147.856 186.034C147.929 185.955 147.92 185.831 147.839 185.76C147.76 185.689 147.638 185.695 147.564 185.777L141.867 192.195H142.386Z" fill="#E0FBF0"/>
<path d="M135.327 172.332C135.35 172.332 135.373 172.328 135.396 172.321C135.497 172.282 135.548 172.171 135.507 172.07C135.439 171.884 133.747 167.516 130.866 166.502C129.805 166.129 128.718 166.26 127.637 166.895C127.543 166.95 127.514 167.067 127.567 167.161C127.621 167.253 127.741 167.283 127.833 167.229C128.811 166.657 129.789 166.533 130.735 166.866C133.447 167.821 135.129 172.164 135.144 172.208C135.174 172.286 135.249 172.332 135.327 172.332Z" fill="#A2DDD0"/>
<path d="M83.4682 191.936C75.897 191.936 69.7376 185.785 69.7376 178.226C69.7376 173.297 72.4358 168.733 76.6967 166.313V32.6846C76.6967 28.9565 79.7339 25.9238 83.4682 25.9238C87.2012 25.9238 90.2391 28.9565 90.2391 32.6846V166.313C94.5 168.732 97.1976 173.296 97.1976 178.226C97.1976 185.786 91.0388 191.936 83.4682 191.936Z" fill="#47B881"/>
<path d="M88.5459 167.342V32.686C88.5459 29.8855 86.2723 27.6152 83.4676 27.6152C80.6623 27.6152 78.3886 29.8855 78.3886 32.686V167.342C74.2824 169.256 71.4295 173.405 71.4295 178.227C71.4295 184.865 76.8196 190.247 83.4676 190.247C90.1149 190.247 95.5044 184.865 95.5044 178.227C95.505 173.404 92.6522 169.256 88.5459 167.342Z" fill="#E9F3F5"/>
<path d="M88.5459 167.341V128.205H78.3893V167.341C74.283 169.255 71.4302 173.404 71.4302 178.227C71.4302 184.865 76.8203 190.246 83.4682 190.246C90.1156 190.246 95.505 184.865 95.505 178.227C95.505 173.403 92.6522 169.255 88.5459 167.341Z" fill="#0C9D61"/>
<path d="M91.9311 178.422C91.9311 183.088 88.1416 186.873 83.4682 186.873C78.7929 186.873 75.0035 183.088 75.0035 178.422C75.0035 173.754 78.7929 169.971 83.4682 169.971C88.1423 169.97 91.9311 173.754 91.9311 178.422Z" fill="#A2DDD0"/>
<path d="M79.708 180.029C80.9316 183.294 86.1886 183.363 87.2304 179.924C87.3109 179.659 86.8977 179.547 86.8185 179.81C85.9066 182.815 81.1977 182.787 80.1205 179.916C80.0248 179.661 79.611 179.772 79.708 180.029Z" fill="#003940" stroke="#003940"/>
<path d="M81.2453 175.871C81.2453 176.371 81.2453 176.87 81.2453 177.371C81.2453 177.645 81.6736 177.646 81.6736 177.371C81.6736 176.87 81.6736 176.371 81.6736 175.871C81.6736 175.595 81.2453 175.595 81.2453 175.871Z" fill="#003940" stroke="#003940"/>
<path d="M85.2609 175.871C85.2609 176.371 85.2609 176.87 85.2609 177.371C85.2609 177.645 85.6893 177.646 85.6893 177.371C85.6893 176.87 85.6893 176.371 85.6893 175.871C85.6893 175.595 85.2609 175.595 85.2609 175.871Z" fill="#003940" stroke="#003940"/>
<path d="M47.1018 115.475C47.8697 114.208 48.6656 112.942 49.7651 111.942C50.1071 111.632 51.4769 110.125 51.9262 110.346C52.2147 110.488 51.0322 112.209 51.0322 112.209C50.7482 112.63 50.5021 113.131 50.4062 113.653C50.5459 113.495 50.6984 113.347 50.8743 113.223C51.0933 113.065 51.4966 112.791 51.7729 113.008C52.0584 113.229 51.8718 113.69 51.7744 113.952C51.6634 114.245 51.5456 114.521 51.4943 114.834C51.455 115.072 51.4369 115.305 51.3523 115.535C51.1651 116.034 50.7558 116.493 50.4122 116.884C50.0211 117.328 49.5529 117.586 49.0893 117.938C48.5373 118.359 48.2979 119.004 48.0336 119.624C47.8358 120.086 47.6387 120.549 47.4416 121.012L45.5614 118.101C46.065 117.219 46.5747 116.344 47.1018 115.475Z" fill="#BF7968"/>
<path d="M51.609 113.336V106.088C51.609 105.105 52.4147 104.305 53.4047 104.305H69.9492C70.9392 104.305 71.7449 105.105 71.7449 106.088V107.329C71.7449 107.444 71.8378 107.536 71.9525 107.536H73.3419C73.8312 107.536 74.23 107.931 74.23 108.419V110.766C74.23 111.266 73.8222 111.67 73.32 111.67H71.9525C71.8378 111.67 71.7449 111.763 71.7449 111.878V113.335C71.7449 114.318 70.9392 115.118 69.9492 115.118H53.4047C52.4147 115.119 51.609 114.319 51.609 113.336ZM71.8702 107.88C71.6112 107.88 71.4013 107.67 71.4013 107.412V106.088C71.4013 105.293 70.7496 104.648 69.9492 104.648H53.4047C52.6035 104.648 51.9526 105.293 51.9526 106.088V113.336C51.9526 114.13 52.6043 114.775 53.4047 114.775H69.9492C70.7504 114.775 71.4013 114.13 71.4013 113.336V111.797C71.4013 111.538 71.6105 111.328 71.8702 111.328H73.32C73.6327 111.328 73.8871 111.077 73.8871 110.767V108.42C73.8871 108.121 73.6425 107.88 73.3419 107.88H71.8702Z" fill="#4087AA"/>
<path d="M54.3361 113.835H65.0532C65.4293 113.835 65.7351 113.576 65.7351 113.259V106.87C65.7351 106.553 65.4293 106.295 65.0532 106.295H54.4162C53.9952 106.295 53.6533 106.582 53.6533 106.938V113.259C53.6542 113.576 53.9601 113.835 54.3361 113.835Z" fill="#0C9D61"/>
<path d="M67.7344 113.835H68.2666C68.5365 113.835 68.7556 113.546 68.7556 113.191V106.938C68.7556 106.582 68.5365 106.295 68.2666 106.295H67.7344C67.4639 106.295 67.2454 106.582 67.2454 106.938V113.191C67.2454 113.546 67.4639 113.835 67.7344 113.835Z" fill="#A2DDD0"/>
<path d="M72.0312 112.52C71.998 112.324 71.8371 111.805 71.52 111.987C71.1991 112.174 71.2874 113.008 71.2519 113.312C71.159 114.105 70.6961 114.658 70.1366 115.171C70.197 114.969 70.2393 114.763 70.2499 114.547C70.2642 114.28 70.2831 113.791 69.9508 113.675C69.6095 113.554 69.3188 113.956 69.1504 114.179C68.9617 114.427 68.7925 114.674 68.5539 114.887C68.3742 115.045 68.1839 115.185 68.0374 115.378C67.7157 115.806 67.5458 116.398 67.3986 116.897C67.2325 117.463 67.2649 117.998 67.2158 118.578C67.1562 119.267 66.7371 119.816 66.3535 120.369C66.0688 120.782 65.7834 121.197 65.4972 121.61L68.9647 121.641C69.4427 120.744 69.9116 119.842 70.3647 118.937C71.0246 117.608 71.7299 116.282 71.9262 114.798C72.0214 114.086 72.152 113.235 72.0312 112.52Z" fill="#BF7968"/>
<path d="M47.5896 105.315C47.4763 105.167 46.8904 104.669 46.7295 104.317C46.2923 103.36 46.4577 102.466 45.8664 101.684L38.9368 102.313C38.9096 102.346 38.8741 102.376 38.8484 102.41C38.2489 103.201 37.9302 104.206 37.7271 105.166C37.4847 106.315 37.4371 107.529 37.6289 108.688C37.6833 109.013 37.9461 110.193 38.4044 110.505C38.4203 110.883 38.4361 111.263 38.4512 111.641C38.4686 112.065 38.4286 112.552 38.5033 112.969L45.5251 112.33C45.501 111.84 45.4579 111.349 45.3953 110.865C45.9118 110.442 46.3943 109.956 46.6132 109.32C46.7522 108.917 46.7393 108.503 46.7333 108.083C46.7227 107.358 46.8126 106.821 47.3729 106.325C47.579 106.141 47.7633 105.998 47.7331 105.693C47.718 105.555 47.6757 105.426 47.5896 105.315Z" fill="#BF7968"/>
<path d="M37.7716 189.269L33.1367 189.234C33.0106 190.07 32.5024 190.806 32.4345 191.654C32.3748 192.406 32.7863 193.138 33.4818 193.446C33.8948 193.628 34.3615 193.668 34.8032 193.723C35.3379 193.792 35.8853 193.891 36.4252 193.894C37.2098 193.897 37.8418 193.484 37.8954 192.659C37.9317 192.11 37.7429 191.566 37.6931 191.025C37.6372 190.436 37.6734 189.849 37.7716 189.269Z" fill="#12252E"/>
<path d="M38.2271 189.273C38.1651 186.586 38.1493 183.895 38.446 181.223C38.7881 178.145 39.8188 175.217 39.985 172.115C40.0726 170.464 43.4117 156.703 44.3276 153.715C45.3093 157.267 46.2448 160.832 47.4628 164.292C48.1145 166.151 48.255 167.972 48.3894 169.945C48.5125 171.727 48.6899 173.502 48.9247 175.27C49.4209 179.02 52.0041 189.253 52.0358 189.377L57.1321 189.412C57.0241 185.93 55.8031 175.466 55.9715 173.597C56.1376 171.743 56.5393 153.46 54.7701 146.305L34.931 146.158C34.4711 149.377 33.9697 152.607 33.7447 155.85C33.4744 159.749 33.9033 163.642 33.8746 167.541C33.8467 171.435 32.9262 175.179 32.6611 179.043C32.4278 182.435 32.5509 185.84 32.72 189.231L38.2271 189.273Z" fill="#2A817D"/>
<path d="M32.2813 116.606C33.7477 115.145 35.7857 114.813 37.4379 113.718C37.5384 113.462 37.9235 112.554 38.0526 112.431C38.3282 112.166 45.5765 112.164 45.7102 112.309C46.124 112.744 46.5008 113.286 46.7454 113.878C47.271 114.147 47.8238 114.347 48.4241 114.441C49.1437 114.552 49.849 114.764 50.5406 115.016C51.4898 115.362 52.4481 115.779 53.3625 116.28V126.527C53.3602 126.525 53.358 126.525 53.3557 126.523C52.8505 133.713 55.6165 140.709 56.3814 147.812C54.7157 147.855 36.8678 149.2 33.87 149.966C33.1836 146.804 33.0537 143.564 33.0469 140.337C33.0386 137.469 33.124 134.598 32.976 131.727C32.9057 130.341 32.7789 128.951 32.5584 127.578C32.3137 126.062 31.906 124.615 31.4937 123.148C30.8624 120.877 30.5732 118.312 32.2813 116.606Z" fill="#2F627C"/>
<path d="M52.8407 125.108L51.9232 115.658C52.2804 115.779 52.6331 115.909 52.9774 116.059C54.3789 116.672 55.6565 117.6 56.9093 118.541C58.1998 119.509 59.485 120.48 60.8849 121.228C61.9617 121.805 63.0793 122.262 64.2203 122.6C64.622 121.684 66.5702 119.421 66.5702 119.421C67.8652 121.104 69.7213 121.22 69.7213 121.22C69.682 122.287 69.648 123.357 69.5982 124.422C69.5212 126.082 69.1715 127.623 66.8956 128.584C66.7235 128.657 66.5385 128.714 66.3542 128.744C64.9089 128.972 63.3942 128.505 61.9882 128.01C60.5368 127.495 59.1187 126.863 57.6621 126.375C56.9259 126.13 56.1813 125.921 55.4277 125.786C54.9943 125.707 53.2757 125.177 52.8407 125.108Z" fill="#2F627C"/>
<path d="M52.2366 189.377L56.873 189.409C56.984 190.248 57.4832 190.992 57.5383 191.842C57.5874 192.597 57.1653 193.32 56.4638 193.617C56.0485 193.794 55.5833 193.825 55.1393 193.877C54.6032 193.937 54.0542 194.026 53.5166 194.02C52.7312 194.014 52.1053 193.588 52.063 192.767C52.0343 192.218 52.2321 191.674 52.2903 191.136C52.3529 190.547 52.3273 189.958 52.2366 189.377Z" fill="#12252E"/>
<path d="M36.4812 105.474C36.497 105.557 36.5152 105.643 36.5318 105.728C36.5627 107.747 37.1532 110.277 39.1407 111.078C39.7463 111.322 40.4191 111.318 41.036 111.534C41.5948 111.725 41.915 111.746 42.4337 111.437C43.3603 110.884 44.5133 110.415 44.7293 109.253C44.8478 108.614 44.7489 107.955 44.8803 107.317C45.0306 106.583 45.4315 105.904 45.7019 105.208C46.0122 104.417 46.8376 103.612 47.2483 102.784C47.5421 102.45 47.7709 102.076 47.7709 101.653C47.7686 100.893 47.5534 100.004 47.1917 99.337C46.3196 97.7386 44.5956 98.0718 43.068 98.1503C42.1121 98.1978 41.1712 97.9369 40.216 98.0145C39.4465 98.0734 38.6861 98.3176 38.036 98.7391C36.7311 99.5843 35.9896 101.051 36.0613 102.599C36.1059 103.559 36.3158 104.526 36.4812 105.474Z" fill="#12252E"/>
</svg>
