<svg width="146" height="140" viewBox="0 0 146 140" fill="none" xmlns="http://www.w3.org/2000/svg">
<path d="M104.068 38.3722L88.712 37.8408V34.1491L94.6972 34.0068L104.068 38.3722Z" fill="url(#paint0_linear_2605_12590)"/>
<path d="M89.1261 34.1484H34.4708V41.141H89.1261V34.1484Z" fill="url(#paint1_linear_2605_12590)"/>
<path opacity="0.9" d="M103.456 139.032H42.876V37.5752H105.018C105.906 37.5752 106.626 38.2855 106.626 39.1617V135.905C106.626 137.632 105.207 139.032 103.456 139.032Z" fill="url(#paint2_linear_2605_12590)"/>
<path d="M92.8096 139.178H33.833C32.0306 139.178 30.5696 137.737 30.5696 135.959V39.6782C30.5696 38.5976 31.4578 37.7217 32.5533 37.7217H92.4364C93.4767 37.7217 94.32 38.5535 94.32 39.5796V137.688C94.32 138.511 93.6438 139.178 92.8096 139.178Z" fill="#BAD8DF"/>
<path d="M86.2008 126.277H39.8026C39.1701 126.277 38.6573 125.771 38.6573 125.148V51.4294C38.6573 50.8055 39.1701 50.2998 39.8026 50.2998H86.2008C86.8333 50.2998 87.346 50.8055 87.346 51.4294V125.148C87.346 125.771 86.8332 126.277 86.2008 126.277Z" fill="url(#paint3_linear_2605_12590)"/>
<path d="M52.6648 75.8682H42.3392V78.5972H52.6648V75.8682Z" fill="#BAD8DF"/>
<path d="M63.6054 75.8682H52.3152V78.5972H63.6054V75.8682Z" fill="#F7A47A"/>
<path d="M73.9245 75.8682H62.6343V78.5972H73.9245V75.8682Z" fill="#F7A47A"/>
<path d="M83.3728 75.8682H72.9529V78.5972H83.3728V75.8682Z" fill="url(#paint4_linear_2605_12590)"/>
<path d="M52.4427 54.7451H42.1171V57.4742H52.4427V54.7451Z" fill="#BAD8DF"/>
<path d="M63.3835 54.7451H52.0933V57.4742H63.3835V54.7451Z" fill="#F7A47A"/>
<path d="M73.7023 54.7451H62.4121V57.4742H73.7023V54.7451Z" fill="#F7A47A"/>
<path d="M83.151 54.7451H72.7311V57.4742H83.151V54.7451Z" fill="url(#paint5_linear_2605_12590)"/>
<path d="M50.9171 69.0136H52.9151V63.8403C52.9151 63.5869 52.9224 63.3219 52.9367 63.045L51.7591 64.0092C51.683 64.0702 51.6068 64.1137 51.5307 64.1394C51.4547 64.1653 51.3808 64.1782 51.3094 64.1782C51.1857 64.1782 51.0753 64.1512 50.9777 64.0972C50.8801 64.0434 50.8076 63.9858 50.7601 63.9248L50.0605 63.0097L53.3004 60.3281H55.1273V69.0136H56.84V70.5902H50.9171V69.0136Z" fill="white"/>
<path d="M65.3893 65.4593C65.3893 66.3556 65.2917 67.1321 65.0966 67.789C64.9014 68.4461 64.6316 68.9903 64.2868 69.422C63.9416 69.8538 63.5326 70.1751 63.0592 70.3862C62.5858 70.5974 62.0731 70.703 61.5215 70.703C60.9695 70.703 60.459 70.5974 59.9907 70.3862C59.5221 70.1751 59.1165 69.8538 58.7739 69.422C58.4314 68.9903 58.1638 68.4461 57.9711 67.789C57.7784 67.1321 57.682 66.3556 57.682 65.4593C57.682 64.5631 57.7784 63.7866 57.9711 63.1296C58.1638 62.4727 58.4314 61.9285 58.7739 61.4966C59.1165 61.0649 59.522 60.7447 59.9907 60.5358C60.459 60.3272 60.9695 60.2227 61.5215 60.2227C62.0731 60.2227 62.5858 60.3272 63.0592 60.5358C63.5326 60.7447 63.9417 61.065 64.2868 61.4966C64.6316 61.9284 64.9014 62.4726 65.0966 63.1296C65.2917 63.7866 65.3893 64.5632 65.3893 65.4593ZM63.1056 65.4593C63.1056 64.7509 63.0603 64.1701 62.97 63.7172C62.8796 63.2644 62.7595 62.909 62.6097 62.6509C62.4599 62.3929 62.2897 62.2157 62.0994 62.1195C61.909 62.0234 61.7163 61.9753 61.5215 61.9753C61.3264 61.9753 61.1347 62.0235 60.9469 62.1195C60.7589 62.2158 60.5926 62.3929 60.4474 62.6509C60.3023 62.909 60.1857 63.2645 60.0977 63.7172C60.0096 64.1701 59.9657 64.7509 59.9657 65.4593C59.9657 66.1726 60.0095 66.7544 60.0977 67.2048C60.1857 67.6553 60.3023 68.0107 60.4474 68.2711C60.5926 68.5316 60.7589 68.71 60.9469 68.8061C61.1347 68.9023 61.3264 68.9505 61.5215 68.9505C61.7163 68.9505 61.909 68.9023 62.0994 68.8061C62.2897 68.71 62.4599 68.5316 62.6097 68.2711C62.7595 68.0107 62.8796 67.6553 62.97 67.2048C63.0602 66.7544 63.1056 66.1726 63.1056 65.4593Z" fill="white"/>
<path d="M70.5844 64.0935C70.9601 64.0935 71.3311 64.1545 71.6976 64.2765C72.0639 64.3986 72.3922 64.5862 72.6825 64.8396C72.9725 65.0929 73.2069 65.4132 73.3853 65.8003C73.5637 66.1875 73.6529 66.6438 73.6529 67.1693C73.6529 67.6479 73.5625 68.1019 73.3818 68.5312C73.201 68.9606 72.9452 69.336 72.6145 69.6575C72.2838 69.9789 71.8856 70.2335 71.4193 70.4212C70.9531 70.6088 70.4369 70.7027 69.8708 70.7027C69.2903 70.7027 68.7694 70.6123 68.3079 70.4317C67.8463 70.2511 67.455 69.9988 67.1341 69.675C66.8128 69.3513 66.5679 68.9642 66.3988 68.5138C66.23 68.0633 66.1455 67.5682 66.1455 67.0286C66.1455 66.5172 66.2455 66.008 66.4452 65.5013C66.6452 64.9945 66.9399 64.4784 67.3303 63.9527L69.6708 60.8347C69.7755 60.6938 69.9325 60.5755 70.1419 60.4792C70.3511 60.3831 70.5889 60.335 70.8555 60.335H72.8251L69.7421 63.9667C69.6946 64.0185 69.6481 64.0712 69.6031 64.1251C69.5579 64.1792 69.5139 64.2319 69.4711 64.2836C69.6374 64.2227 69.8124 64.1756 69.9955 64.1427C70.1786 64.11 70.375 64.0935 70.5844 64.0935ZM68.2721 67.3242C68.2721 67.5775 68.3031 67.8052 68.365 68.0069C68.4268 68.2087 68.5219 68.3824 68.6505 68.5278C68.7787 68.6733 68.9404 68.7847 69.1356 68.8622C69.3307 68.9396 69.5614 68.9783 69.8279 68.9783C70.0562 68.9783 70.2691 68.9361 70.4667 68.8516C70.6639 68.7672 70.8341 68.651 70.9768 68.5032C71.1197 68.3553 71.2326 68.1819 71.3158 67.9823C71.3991 67.7829 71.4406 67.566 71.4406 67.3313C71.4406 67.0685 71.4015 66.834 71.323 66.6274C71.2444 66.421 71.134 66.2473 70.9911 66.1066C70.8484 65.9658 70.6759 65.8579 70.4737 65.7828C70.2716 65.7078 70.0468 65.6702 69.7994 65.6702C69.5757 65.6702 69.3712 65.7088 69.1858 65.7863C69.0001 65.8638 68.8396 65.9753 68.7039 66.1207C68.5683 66.2661 68.4624 66.4398 68.3865 66.6415C68.3101 66.8433 68.2721 67.0708 68.2721 67.3242Z" fill="white"/>
<path d="M55.4114 89.7415C55.4114 90.6378 55.3139 91.4144 55.1191 92.0713C54.9239 92.7283 54.6539 93.2725 54.3089 93.7042C53.964 94.136 53.5549 94.4573 53.0817 94.6684C52.6081 94.8796 52.0955 94.9852 51.5436 94.9852C50.9917 94.9852 50.4815 94.8796 50.0128 94.6684C49.5442 94.4573 49.1388 94.136 48.7962 93.7042C48.4535 93.2725 48.1859 92.7283 47.9934 92.0713C47.8007 91.4144 47.7043 90.6378 47.7043 89.7415C47.7043 88.8453 47.8007 88.0688 47.9934 87.4118C48.1859 86.7548 48.4535 86.2106 48.7962 85.7788C49.1388 85.3471 49.5442 85.0269 50.0128 84.8181C50.4815 84.6094 50.9917 84.5049 51.5436 84.5049C52.0955 84.5049 52.6081 84.6094 53.0817 84.8181C53.5548 85.0269 53.9639 85.3471 54.3089 85.7788C54.6539 86.2106 54.9239 86.7548 55.1191 87.4118C55.3139 88.0688 55.4114 88.8453 55.4114 89.7415ZM53.1281 89.7415C53.1281 89.0331 53.0828 88.4524 52.9925 87.9995C52.9019 87.5466 52.7819 87.1912 52.6321 86.9331C52.4821 86.6751 52.312 86.4979 52.1218 86.4017C51.9315 86.3057 51.7388 86.2575 51.5437 86.2575C51.3486 86.2575 51.1573 86.3057 50.9693 86.4017C50.7813 86.498 50.6147 86.6751 50.4698 86.9331C50.3245 87.1912 50.2081 87.5467 50.1201 87.9995C50.0321 88.4523 49.988 89.0331 49.988 89.7415C49.988 90.4548 50.0321 91.0366 50.1201 91.487C50.2081 91.9375 50.3245 92.293 50.4698 92.5534C50.6147 92.8138 50.7813 92.9922 50.9693 93.0883C51.1573 93.1846 51.3486 93.2327 51.5437 93.2327C51.7389 93.2327 51.9315 93.1846 52.1218 93.0883C52.312 92.9922 52.4821 92.8138 52.6321 92.5534C52.7819 92.293 52.9019 91.9375 52.9925 91.487C53.0827 91.0366 53.1281 90.4548 53.1281 89.7415Z" fill="white"/>
<path d="M56.125 93.7682C56.125 93.5991 56.1571 93.442 56.2212 93.2965C56.2855 93.1512 56.3735 93.0244 56.4853 92.9164C56.5972 92.8085 56.729 92.7228 56.8815 92.6595C57.0335 92.5962 57.2 92.5645 57.3808 92.5645C57.5568 92.5645 57.7209 92.5962 57.8734 92.6595C58.0254 92.7228 58.1587 92.8085 58.2728 92.9164C58.3871 93.0244 58.4763 93.1511 58.5405 93.2965C58.6048 93.442 58.637 93.5991 58.637 93.7682C58.637 93.9371 58.6048 94.0954 58.5405 94.2432C58.4764 94.391 58.3872 94.519 58.2728 94.6269C58.1587 94.7348 58.0254 94.8193 57.8734 94.8802C57.7209 94.9411 57.5568 94.9718 57.3808 94.9718C57.2 94.9718 57.0336 94.9411 56.8815 94.8802C56.729 94.8193 56.5971 94.7349 56.4853 94.6269C56.3734 94.519 56.2854 94.391 56.2212 94.2432C56.1571 94.0954 56.125 93.9371 56.125 93.7682Z" fill="white"/>
<path d="M67.0575 89.7415C67.0575 90.6378 66.96 91.4144 66.7649 92.0713C66.5698 92.7283 66.2999 93.2725 65.9551 93.7042C65.6099 94.136 65.2008 94.4573 64.7275 94.6684C64.2541 94.8796 63.7414 94.9852 63.1898 94.9852C62.6378 94.9852 62.1273 94.8796 61.659 94.6684C61.1903 94.4573 60.7847 94.136 60.4422 93.7042C60.0997 93.2725 59.832 92.7283 59.6394 92.0713C59.4467 91.4144 59.3503 90.6378 59.3503 89.7415C59.3503 88.8453 59.4467 88.0688 59.6394 87.4118C59.8321 86.7548 60.0997 86.2106 60.4422 85.7788C60.7847 85.3471 61.1903 85.0269 61.659 84.8181C62.1273 84.6094 62.6378 84.5049 63.1898 84.5049C63.7414 84.5049 64.2541 84.6094 64.7275 84.8181C65.2009 85.0269 65.61 85.3471 65.9551 85.7788C66.2999 86.2106 66.5698 86.7548 66.7649 87.4118C66.96 88.0688 67.0575 88.8453 67.0575 89.7415ZM64.7738 89.7415C64.7738 89.0331 64.7285 88.4524 64.6383 87.9995C64.5479 87.5466 64.4278 87.1912 64.278 86.9331C64.1282 86.6751 63.958 86.4979 63.7677 86.4017C63.5773 86.3057 63.3846 86.2575 63.1898 86.2575C62.9947 86.2575 62.803 86.3057 62.6152 86.4017C62.4272 86.498 62.2608 86.6751 62.1157 86.9331C61.9706 87.1912 61.854 87.5467 61.766 87.9995C61.6779 88.4523 61.6339 89.0331 61.6339 89.7415C61.6339 90.4548 61.6778 91.0366 61.766 91.487C61.854 91.9375 61.9706 92.293 62.1157 92.5534C62.2608 92.8138 62.4272 92.9922 62.6152 93.0883C62.803 93.1846 62.9947 93.2327 63.1898 93.2327C63.3846 93.2327 63.5773 93.1846 63.7677 93.0883C63.958 92.9922 64.1282 92.8138 64.278 92.5534C64.4278 92.293 64.5479 91.9375 64.6383 91.487C64.7285 91.0366 64.7738 90.4548 64.7738 89.7415Z" fill="white"/>
<path d="M74.465 85.518C74.465 85.6682 74.4411 85.8043 74.3937 85.9262C74.346 86.0482 74.2711 86.155 74.1688 86.2465C74.0666 86.338 73.9321 86.4083 73.7657 86.4577C73.5991 86.5069 73.3993 86.5316 73.1662 86.5316H70.6828L70.3903 88.2279C70.5852 88.1951 70.773 88.1704 70.954 88.1539C71.1347 88.1376 71.3109 88.1294 71.4821 88.1294C72.0292 88.1294 72.5121 88.2115 72.9306 88.3757C73.3493 88.54 73.7014 88.7641 73.987 89.0479C74.2724 89.3319 74.4875 89.6649 74.6328 90.0474C74.7778 90.4299 74.8504 90.8392 74.8504 91.2756C74.8504 91.8246 74.7516 92.3255 74.5542 92.7783C74.3568 93.2312 74.0819 93.6218 73.73 93.9502C73.3779 94.2787 72.9582 94.5333 72.4705 94.7139C71.9829 94.8945 71.4487 94.9849 70.8684 94.9849C70.5305 94.9849 70.2083 94.9497 69.9015 94.8793C69.5946 94.8089 69.3068 94.7139 69.038 94.5942C68.7692 94.4746 68.5207 94.3362 68.2922 94.1789C68.0639 94.0218 67.8569 93.8541 67.6714 93.6757L68.3566 92.7748C68.4279 92.6809 68.511 92.6094 68.6063 92.56C68.7014 92.5108 68.8037 92.4861 68.9131 92.4861C69.0559 92.4861 69.1901 92.5249 69.3163 92.6023C69.4424 92.6797 69.5803 92.7642 69.7302 92.8557C69.88 92.9472 70.0549 93.0306 70.2546 93.1055C70.4546 93.1806 70.7019 93.2182 70.9968 93.2182C71.2919 93.2182 71.5439 93.1701 71.7533 93.0738C71.9627 92.9778 72.1327 92.8463 72.2635 92.6797C72.3944 92.5132 72.4895 92.3184 72.5491 92.0955C72.6083 91.8727 72.6383 91.6345 72.6383 91.3811C72.6383 90.8838 72.4954 90.5049 72.2101 90.2444C71.9247 89.984 71.5201 89.8538 70.9968 89.8538C70.5305 89.8538 70.0737 89.9407 69.6267 90.1142L68.2566 89.7482L69.1415 84.6172H74.4651V85.518H74.465Z" fill="white"/>
<path opacity="0.42" d="M59.9412 122.383H41.8889C41.5536 122.383 41.2816 122.115 41.2816 121.784V102.362C41.2816 102.031 41.5535 101.763 41.8889 101.763H59.9412C60.2766 101.763 60.5485 102.031 60.5485 102.362V121.784C60.5485 122.115 60.2766 122.383 59.9412 122.383Z" fill="url(#paint6_linear_2605_12590)"/>
<path d="M46.1302 101.763H41.282V103.799H46.1302V101.763Z" fill="#BAD8DF"/>
<path d="M51.2669 101.763H45.9657V103.799H51.2669V101.763Z" fill="#F7A47A"/>
<path d="M56.1121 101.763H50.8109V103.799H56.1121V101.763Z" fill="#F7A47A"/>
<path d="M60.5485 101.763H55.6559V103.799H60.5485V101.763Z" fill="url(#paint7_linear_2605_12590)"/>
<path d="M57.3253 116.173H44.3165C43.568 116.173 42.9612 115.574 42.9612 114.836V111.841C42.9612 111.102 43.568 110.504 44.3165 110.504H57.3253C58.0738 110.504 58.6806 111.102 58.6806 111.841V114.836C58.6806 115.574 58.0738 116.173 57.3253 116.173Z" fill="white"/>
<path d="M58.055 109.067H43.9436C43.4995 109.067 43.1395 108.712 43.1395 108.274V107.721C43.1395 107.283 43.4995 106.928 43.9436 106.928H58.055C58.499 106.928 58.859 107.283 58.859 107.721V108.274C58.859 108.712 58.499 109.067 58.055 109.067Z" fill="white"/>
<path d="M57.8766 120.329H51.8033C51.3592 120.329 50.9993 119.974 50.9993 119.536V118.982C50.9993 118.544 51.3592 118.189 51.8033 118.189H57.8766C58.3206 118.189 58.6806 118.544 58.6806 118.982V119.536C58.6806 119.974 58.3206 120.329 57.8766 120.329Z" fill="white"/>
<path opacity="0.42" d="M83.7775 122.383H65.7253C65.3899 122.383 65.1179 122.115 65.1179 121.784V102.362C65.1179 102.031 65.3898 101.763 65.7253 101.763H83.7775C84.1129 101.763 84.3848 102.031 84.3848 102.362V121.784C84.3848 122.115 84.1129 122.383 83.7775 122.383Z" fill="url(#paint8_linear_2605_12590)"/>
<path d="M81.1664 116.349H68.1576C67.409 116.349 66.8022 115.75 66.8022 115.012V112.016C66.8022 111.278 67.409 110.68 68.1576 110.68H81.1664C81.9149 110.68 82.5217 111.278 82.5217 112.016V115.012C82.5217 115.75 81.9149 116.349 81.1664 116.349Z" fill="white"/>
<path d="M81.896 109.244H67.7846C67.3406 109.244 66.9806 108.889 66.9806 108.451V107.898C66.9806 107.46 67.3406 107.104 67.7846 107.104H81.896C82.3401 107.104 82.7001 107.46 82.7001 107.898V108.451C82.7001 108.889 82.3401 109.244 81.896 109.244Z" fill="white"/>
<path d="M81.7179 120.505H75.6446C75.2005 120.505 74.8406 120.15 74.8406 119.712V119.158C74.8406 118.72 75.2005 118.365 75.6446 118.365H81.7179C82.1619 118.365 82.5219 118.72 82.5219 119.158V119.712C82.5219 120.15 82.1619 120.505 81.7179 120.505Z" fill="white"/>
<path d="M70.0702 101.763H65.2219V103.799H70.0702V101.763Z" fill="#BAD8DF"/>
<path d="M75.2073 101.763H69.9061V103.799H75.2073V101.763Z" fill="#F7A47A"/>
<path d="M80.0523 101.763H74.7511V103.799H80.0523V101.763Z" fill="#F7A47A"/>
<path d="M84.4889 101.763H79.5963V103.799H84.4889V101.763Z" fill="url(#paint9_linear_2605_12590)"/>
<path d="M96.5028 42.3768C96.3887 42.3768 96.2765 42.3229 96.2073 42.2228C96.0965 42.0621 96.1388 41.8431 96.3017 41.7339C97.9753 40.6114 100.058 39.2144 102.318 39.2085C102.323 39.2085 102.328 39.2085 102.333 39.2085C103.619 39.2085 104.787 39.663 105.917 40.1027C106.81 40.4498 107.653 40.7777 108.552 40.9025C109.844 41.0815 110.937 40.6134 112.093 40.1174C112.613 39.8944 113.151 39.6638 113.722 39.4858C115.992 38.7783 117.965 38.6283 119.585 39.0401C120.436 39.2563 121.168 39.6529 121.875 40.0364C122.682 40.4734 123.443 40.8862 124.369 41.0535C127.694 41.6544 132.299 41.2473 134.555 38.9331C134.692 38.793 134.918 38.7889 135.06 38.9234C135.202 39.0581 135.206 39.2809 135.07 39.421C132.618 41.9359 127.864 42.4006 124.241 41.7459C123.201 41.5579 122.352 41.098 121.532 40.6533C120.832 40.274 120.171 39.9158 119.407 39.7216C117.918 39.3434 116.078 39.4898 113.937 40.157C113.401 40.3238 112.881 40.547 112.378 40.7629C111.182 41.276 109.944 41.8066 108.452 41.5995C107.469 41.4631 106.547 41.1045 105.655 40.7576C104.538 40.323 103.483 39.9125 102.333 39.9125C102.329 39.9125 102.324 39.9125 102.32 39.9125C100.278 39.9179 98.296 41.2476 96.7031 42.316C96.6417 42.3571 96.5718 42.3768 96.5028 42.3768Z" fill="#BAD8DF"/>
<path d="M125.126 45.5962C124.272 45.5962 123.577 45.5558 123.155 45.5229C121.648 45.4059 120.283 44.8124 118.962 44.2384C117.515 43.6091 116.145 43.012 114.643 43.0253C113.196 43.0353 111.912 43.5086 110.552 44.0098C109.88 44.2576 109.185 44.5138 108.466 44.7103C105.686 45.4707 102.922 44.4838 100.824 43.5392C100.645 43.4586 100.566 43.2498 100.647 43.073C100.729 42.8961 100.941 42.8182 101.12 42.899C103.108 43.7939 105.717 44.7314 108.275 44.0321C108.964 43.8438 109.644 43.5931 110.302 43.3505C111.66 42.85 113.064 42.3324 114.639 42.3215C116.295 42.3078 117.798 42.963 119.25 43.5945C120.516 44.1447 121.825 44.7137 123.211 44.8214C126.354 45.0652 130.569 44.7411 132.967 43.0988C133.129 42.9879 133.351 43.0276 133.464 43.1872C133.576 43.3469 133.536 43.5662 133.374 43.677C131.018 45.2901 127.473 45.5962 125.126 45.5962Z" fill="#BAD8DF"/>
<path d="M106.468 60.3075C106.354 60.3075 106.241 60.2536 106.172 60.1534C106.061 59.9928 106.104 59.7738 106.267 59.6645C107.94 58.5421 110.023 57.145 112.283 57.1391C112.288 57.1391 112.293 57.1391 112.297 57.1391C113.583 57.1391 114.752 57.5936 115.882 58.0333C116.774 58.3805 117.617 58.7083 118.517 58.8331C119.811 59.0123 120.902 58.5439 122.058 58.048C122.578 57.825 123.115 57.5944 123.687 57.4164C125.957 56.7089 127.93 56.559 129.55 56.9707C130.401 57.1869 131.133 57.5835 131.84 57.967C132.647 58.404 133.408 58.8168 134.334 58.9842C137.659 59.5852 142.264 59.1778 144.52 56.8637C144.657 56.7235 144.883 56.7194 145.025 56.854C145.167 56.9887 145.171 57.2115 145.035 57.3515C142.583 59.8664 137.829 60.3314 134.206 59.6765C133.166 59.4886 132.317 59.0287 131.497 58.5839C130.797 58.2046 130.136 57.8464 129.372 57.6522C127.884 57.274 126.043 57.4204 123.902 58.0876C123.366 58.2545 122.846 58.4777 122.343 58.6936C121.147 59.2066 119.909 59.7373 118.418 59.5301C117.434 59.3937 116.512 59.035 115.62 58.6881C114.503 58.2536 113.448 57.843 112.298 57.843C112.294 57.843 112.289 57.843 112.285 57.843C110.244 57.8485 108.261 59.1781 106.668 60.2466C106.606 60.2878 106.537 60.3075 106.468 60.3075Z" fill="#BAD8DF"/>
<path d="M135.091 63.527C134.237 63.527 133.542 63.4865 133.119 63.4537C131.613 63.3366 130.247 62.7431 128.927 62.1692C127.48 61.5399 126.117 60.9449 124.608 60.956C123.161 60.966 121.876 61.4394 120.517 61.9406C119.845 62.1884 119.149 62.4446 118.431 62.6411C115.652 63.4012 112.886 62.4146 110.789 61.47C110.609 61.3893 110.53 61.1805 110.612 61.0037C110.694 60.8268 110.906 60.7488 111.085 60.8297C113.073 61.7247 115.682 62.6621 118.24 61.9629C118.929 61.7746 119.609 61.5238 120.267 61.2812C121.625 60.7808 123.029 60.2632 124.603 60.2522C126.262 60.2382 127.762 60.8937 129.215 61.5251C130.481 62.0754 131.79 62.6444 133.176 62.752C136.319 62.9959 140.533 62.6719 142.932 61.0294C143.094 60.9185 143.316 60.9581 143.428 61.1178C143.541 61.2775 143.501 61.4968 143.339 61.6077C140.983 63.2208 137.438 63.527 135.091 63.527Z" fill="#BAD8DF"/>
<path d="M58.7368 22.7714C65.0034 22.7714 70.0836 17.7608 70.0836 11.58C70.0836 5.39921 65.0034 0.388672 58.7368 0.388672C52.4701 0.388672 47.39 5.39921 47.39 11.58C47.39 17.7608 52.4701 22.7714 58.7368 22.7714Z" fill="white"/>
<path d="M58.7366 23.0356C52.3324 23.0356 47.1222 17.8968 47.1222 11.5803C47.1222 5.26384 52.3324 0.125 58.7366 0.125C65.1408 0.125 70.351 5.26384 70.351 11.5803C70.351 17.8968 65.1408 23.0356 58.7366 23.0356ZM58.7366 0.652911C52.6275 0.652911 47.6574 5.55493 47.6574 11.5803C47.6574 17.6057 52.6275 22.5077 58.7366 22.5077C64.8456 22.5077 69.8157 17.6057 69.8157 11.5803C69.8157 5.55493 64.8456 0.652911 58.7366 0.652911Z" fill="#BAD8DF"/>
<path d="M61.7613 13.8464C61.7613 17.4871 59.4495 19.2785 56.5979 19.2785C53.7463 19.2785 51.4346 17.4871 51.4346 13.8464C51.4346 10.9338 54.7392 6.19091 56.061 4.41033C56.327 4.05203 56.8689 4.05203 57.1349 4.41033C58.4567 6.19096 61.7613 10.9338 61.7613 13.8464Z" fill="#98C6CF"/>
<path d="M56.664 18.4264C54.1782 18.4264 52.1559 16.5364 52.1559 14.2133C52.1559 13.6721 52.2641 13.1452 52.4776 12.6472C52.4991 12.597 52.5578 12.5734 52.6086 12.5948C52.6594 12.616 52.6832 12.6738 52.6617 12.724C52.4587 13.1976 52.3557 13.6987 52.3557 14.2133C52.3557 16.4277 54.2884 18.2293 56.664 18.2293C57.6887 18.2293 58.6816 17.8882 59.4599 17.2688C59.5029 17.2347 59.5658 17.2413 59.6004 17.2837C59.6351 17.326 59.6283 17.3881 59.5854 17.4222C58.7717 18.0698 57.7342 18.4264 56.664 18.4264Z" fill="#E9F3F5"/>
<path d="M65.2299 5.4947V4.7793H63.0556V5.4947H65.2299Z" fill="#BAD8DF"/>
<path d="M64.4827 6.69006V5.97461H63.0557V6.69006H64.4827Z" fill="#BAD8DF"/>
<path d="M66.3293 7.88537V7.16992L63.0556 7.16992V7.88537L66.3293 7.88537Z" fill="#BAD8DF"/>
<path d="M63.842 9.08063V8.36523H63.0555V9.08063H63.842Z" fill="#BAD8DF"/>
<path d="M66.4767 10.2769V9.56152H63.0558V10.2769H66.4767Z" fill="#BAD8DF"/>
<path d="M65.4006 11.4722V10.7568H63.0556V11.4722H65.4006Z" fill="#BAD8DF"/>
<path d="M64.8669 12.6666V11.9512H63.0557V12.6666H64.8669Z" fill="#BAD8DF"/>
<path d="M66.9913 13.8629V13.1475H63.0557V13.8629H66.9913Z" fill="#BAD8DF"/>
<path d="M67.3944 15.0582V14.3428H63.0558V15.0582H67.3944Z" fill="#BAD8DF"/>
<path d="M65.9452 16.2535V15.5381H63.0557V16.2535H65.9452Z" fill="#BAD8DF"/>
<path d="M63.7694 17.4488V16.7334H63.0559V17.4488H63.7694Z" fill="#BAD8DF"/>
<path d="M65.1553 18.6441V17.9287H63.0558V18.6441H65.1553Z" fill="#BAD8DF"/>
<path d="M30.9016 27.5968C37.498 27.5968 42.8455 22.3225 42.8455 15.8164C42.8455 9.31036 37.498 4.03613 30.9016 4.03613C24.3051 4.03613 18.9576 9.31036 18.9576 15.8164C18.9576 22.3225 24.3051 27.5968 30.9016 27.5968Z" fill="white"/>
<path d="M30.9016 27.8609C24.1682 27.8609 18.6902 22.4579 18.6902 15.8167C18.6902 9.17552 24.1682 3.77246 30.9016 3.77246C37.6351 3.77246 43.1132 9.17552 43.1132 15.8167C43.1132 22.4579 37.6351 27.8609 30.9016 27.8609ZM30.9016 4.30032C24.4633 4.30032 19.2254 9.46656 19.2254 15.8167C19.2254 22.1668 24.4633 27.333 30.9016 27.333C37.34 27.333 42.578 22.1668 42.578 15.8167C42.578 9.4665 37.3399 4.30032 30.9016 4.30032Z" fill="#BAD8DF"/>
<path d="M30.7004 19.3234V6.40316C30.7004 5.66689 30.0897 5.06445 29.3431 5.06445H29.0536C28.3071 5.06445 27.6963 5.66689 27.6963 6.40316V19.3135C26.5814 19.8568 25.8142 20.9892 25.8142 22.2987C25.8142 24.1368 27.325 25.6269 29.1886 25.6269C31.0522 25.6269 32.563 24.1368 32.563 22.2987C32.563 20.9968 31.8047 19.8703 30.7004 19.3234Z" fill="white"/>
<path d="M29.1884 25.891C27.1803 25.891 25.5466 24.2796 25.5466 22.2989C25.5466 20.9777 26.2634 19.7873 27.4286 19.1539V6.40344C27.4286 5.51975 28.1576 4.80078 29.0536 4.80078H29.343C30.239 4.80078 30.9679 5.51975 30.9679 6.40344V19.1649C32.121 19.8012 32.8304 20.9874 32.8304 22.299C32.8305 24.2796 31.1967 25.891 29.1884 25.891ZM29.0536 5.32869C28.4527 5.32869 27.9638 5.8109 27.9638 6.40344V19.4779L27.8147 19.5504C26.7458 20.0713 26.0818 21.1245 26.0818 22.2989C26.0818 23.9885 27.4754 25.3631 29.1884 25.3631C30.9016 25.3631 32.2952 23.9885 32.2952 22.2989C32.2952 21.1332 31.638 20.0835 30.5803 19.5594L30.4328 19.4864V6.40344C30.4328 5.81085 29.9438 5.32869 29.343 5.32869H29.0536Z" fill="#98C6CF"/>
<path d="M30.0368 19.8201V6.89675C30.0368 6.49543 29.7039 6.16699 29.297 6.16699H29.0804C28.6735 6.16699 28.3406 6.49537 28.3406 6.89675V19.8201C27.264 20.171 26.4868 21.1708 26.4868 22.3502C26.4868 23.822 27.6965 25.0151 29.1887 25.0151C30.681 25.0151 31.8906 23.822 31.8906 22.3502C31.8906 21.1708 31.1134 20.171 30.0368 19.8201Z" fill="#98C6CF"/>
<path d="M35.8995 17.3668C37.5194 17.3668 38.8326 16.0716 38.8326 14.4739C38.8326 12.8762 37.5194 11.5811 35.8995 11.5811C34.2796 11.5811 32.9664 12.8762 32.9664 14.4739C32.9664 16.0716 34.2796 17.3668 35.8995 17.3668Z" fill="#F7A47A"/>
<path d="M38.8259 16.5957C38.8145 16.5957 38.803 16.5925 38.7929 16.5857C38.7659 16.5677 38.7589 16.5316 38.7771 16.5049C38.8042 16.4655 38.8305 16.4254 38.8558 16.385C38.8729 16.3577 38.9092 16.3492 38.9369 16.3661C38.9646 16.383 38.9732 16.4188 38.9561 16.4461C38.9299 16.4879 38.9028 16.5292 38.8748 16.5701C38.8634 16.5867 38.8448 16.5957 38.8259 16.5957Z" fill="#F7A47A"/>
<path d="M35.8418 18.1598L35.807 18.1596C35.7745 18.1593 35.7484 18.133 35.7487 18.1009C35.749 18.0687 35.7743 18.0429 35.8083 18.0433L35.8418 18.0435C35.9274 18.0435 36.014 18.0404 36.0991 18.0343C36.1319 18.0328 36.1599 18.0561 36.1622 18.0881C36.1646 18.1202 36.1401 18.148 36.1077 18.1504C36.0196 18.1566 35.9302 18.1598 35.8418 18.1598ZM35.5122 18.1449C35.5105 18.1449 35.5086 18.1448 35.5068 18.1447C35.4075 18.1357 35.3073 18.1226 35.2089 18.1057C35.1768 18.1002 35.1553 18.0701 35.1609 18.0384C35.1665 18.0068 35.1969 17.9858 35.2291 17.9911C35.3244 18.0075 35.4215 18.0202 35.5175 18.0288C35.55 18.0318 35.5739 18.0601 35.5709 18.092C35.568 18.1223 35.5423 18.1449 35.5122 18.1449ZM36.3971 18.1174C36.3686 18.1174 36.3435 18.0969 36.339 18.0683C36.334 18.0365 36.356 18.0068 36.3881 18.0019C36.4835 17.9873 36.5796 17.9685 36.6736 17.9461C36.7053 17.9385 36.7371 17.9577 36.7447 17.9889C36.7523 18.0202 36.7329 18.0516 36.7012 18.0591C36.6041 18.0822 36.5049 18.1017 36.4063 18.1167C36.4032 18.1172 36.4001 18.1174 36.3971 18.1174ZM34.9298 18.0447C34.9249 18.0447 34.9199 18.0442 34.915 18.0429C34.8184 18.0181 34.7217 17.9891 34.6274 17.9566C34.5967 17.946 34.5805 17.9128 34.5912 17.8826C34.602 17.8522 34.6357 17.8363 34.6663 17.8468C34.7575 17.8782 34.8512 17.9063 34.9447 17.9303C34.9762 17.9384 34.9951 17.9701 34.9869 18.0012C34.98 18.0274 34.9561 18.0447 34.9298 18.0447ZM36.9718 17.9806C36.9471 17.9806 36.9241 17.9651 36.9159 17.9407C36.9057 17.9102 36.9225 17.8773 36.9533 17.8673C37.0451 17.8373 37.1367 17.8032 37.2255 17.7659C37.2556 17.7533 37.2901 17.7671 37.3029 17.7966C37.3156 17.8262 37.3016 17.8603 37.2717 17.8729C37.1799 17.9114 37.0852 17.9466 36.9903 17.9776C36.9842 17.9796 36.978 17.9806 36.9718 17.9806ZM34.3719 17.8525C34.3639 17.8525 34.3558 17.8508 34.348 17.8474C34.2568 17.8075 34.1661 17.7632 34.0786 17.716C34.0501 17.7006 34.0396 17.6653 34.0552 17.6371C34.0708 17.609 34.1067 17.5987 34.1352 17.614C34.2199 17.6597 34.3075 17.7025 34.3959 17.7413C34.4256 17.7543 34.439 17.7887 34.4258 17.818C34.4161 17.8396 34.3945 17.8525 34.3719 17.8525ZM37.5158 17.7523C37.4947 17.7523 37.4742 17.7411 37.4636 17.7213C37.4485 17.6929 37.4595 17.6578 37.4883 17.6427C37.5737 17.5984 37.6584 17.5499 37.74 17.4986C37.7675 17.4814 37.8039 17.4894 37.8214 17.5165C37.8389 17.5436 37.8307 17.5795 37.8033 17.5967C37.7189 17.6497 37.6314 17.6997 37.5433 17.7456C37.5345 17.7502 37.5251 17.7523 37.5158 17.7523ZM33.8536 17.5727C33.8425 17.5727 33.8313 17.5696 33.8212 17.5631C33.7379 17.5089 33.656 17.4505 33.5775 17.3897C33.5519 17.3699 33.5474 17.3333 33.5676 17.3081C33.5877 17.2829 33.6248 17.2785 33.6503 17.2983C33.7263 17.3572 33.8056 17.4136 33.8862 17.466C33.9134 17.4837 33.9208 17.5198 33.9029 17.5466C33.8916 17.5635 33.8728 17.5727 33.8536 17.5727ZM38.0146 17.4392C37.9967 17.4392 37.9791 17.4313 37.9675 17.4161C37.9479 17.3905 37.9531 17.3541 37.979 17.3347C37.9929 17.3244 38.0067 17.3139 38.0205 17.3033C38.083 17.2551 38.1447 17.2043 38.2038 17.1522C38.2281 17.1309 38.2654 17.133 38.2871 17.1569C38.3087 17.1809 38.3066 17.2176 38.2823 17.239C38.2213 17.2927 38.1576 17.3452 38.093 17.3949C38.0787 17.4059 38.0644 17.4168 38.0501 17.4275C38.0394 17.4354 38.0269 17.4392 38.0146 17.4392ZM33.3893 17.2128C33.3749 17.2128 33.3605 17.2076 33.3492 17.1972C33.2763 17.1305 33.205 17.0596 33.1375 16.9867C33.1155 16.963 33.1172 16.9262 33.1412 16.9046C33.1653 16.8829 33.2026 16.8846 33.2245 16.9083C33.2899 16.9788 33.3588 17.0474 33.4294 17.112C33.4533 17.1339 33.4546 17.1706 33.4325 17.1942C33.4208 17.2065 33.4051 17.2128 33.3893 17.2128ZM38.4555 17.0507C38.4408 17.0507 38.4263 17.0454 38.4149 17.0347C38.3913 17.0126 38.3904 16.9758 38.4127 16.9525C38.4793 16.8834 38.5438 16.8107 38.6043 16.7365C38.6248 16.7115 38.6619 16.7076 38.6872 16.7276C38.7126 16.7477 38.7166 16.7843 38.6962 16.8094C38.6336 16.8861 38.567 16.9612 38.4982 17.0326C38.4866 17.0446 38.471 17.0507 38.4555 17.0507ZM32.9905 16.7824C32.9729 16.7824 32.9556 16.7746 32.9439 16.7598C32.8826 16.6819 32.8239 16.6006 32.7695 16.5183C32.7518 16.4914 32.7594 16.4554 32.7867 16.4379C32.8139 16.4203 32.8505 16.4279 32.8683 16.4548C32.9209 16.5344 32.9778 16.6131 33.0371 16.6886C33.0571 16.714 33.0524 16.7505 33.0267 16.7702C33.0159 16.7784 33.0032 16.7824 32.9905 16.7824ZM32.6675 16.294C32.6465 16.294 32.6262 16.283 32.6156 16.2636C32.568 16.1769 32.5235 16.0873 32.4834 15.9972C32.4703 15.9678 32.4839 15.9335 32.5137 15.9206C32.5435 15.9077 32.5783 15.9211 32.5914 15.9505C32.6302 16.0376 32.6732 16.1243 32.7193 16.2083C32.7348 16.2365 32.7241 16.2718 32.6955 16.287C32.6865 16.2918 32.6769 16.294 32.6675 16.294ZM32.4297 15.7602C32.4052 15.7602 32.3823 15.745 32.374 15.7209C32.3416 15.6279 32.3127 15.5323 32.2881 15.4367C32.2801 15.4056 32.2992 15.374 32.3307 15.3661C32.3622 15.3581 32.3943 15.377 32.4023 15.4081C32.4261 15.5007 32.4541 15.5932 32.4854 15.6831C32.496 15.7135 32.4796 15.7466 32.4488 15.757C32.4425 15.7591 32.4361 15.7602 32.4297 15.7602Z" fill="#F7A47A"/>
<path d="M32.2838 15.1927C32.2555 15.1927 32.2305 15.1725 32.2257 15.1441C32.2175 15.0955 32.2103 15.0467 32.2042 14.998C32.2001 14.9661 32.2231 14.9371 32.2554 14.9331C32.2874 14.929 32.3171 14.9517 32.3212 14.9836C32.3272 15.0308 32.3341 15.0779 32.342 15.1249C32.3474 15.1566 32.3257 15.1866 32.2936 15.1918C32.2903 15.1924 32.287 15.1927 32.2838 15.1927Z" fill="#F7A47A"/>
<path d="M32.9437 12.3551C32.9315 12.3551 32.9191 12.3513 32.9086 12.3436C32.8825 12.3245 32.877 12.2881 32.8964 12.2623C32.9261 12.2229 32.9567 12.184 32.9881 12.1456C33.0086 12.1206 33.0458 12.1168 33.071 12.1369C33.0963 12.1571 33.1003 12.1937 33.0798 12.2187C33.0493 12.2558 33.0198 12.2934 32.9911 12.3316C32.9795 12.347 32.9617 12.3551 32.9437 12.3551Z" fill="#F7A47A"/>
<path d="M39.3713 13.7637C39.3439 13.7637 39.3193 13.7447 39.3136 13.7171C39.2946 13.6251 39.2717 13.5328 39.2453 13.4429C39.2363 13.412 39.2543 13.3798 39.2856 13.3709C39.3169 13.3619 39.3495 13.3798 39.3586 13.4106C39.3858 13.5036 39.4096 13.5989 39.4292 13.694C39.4356 13.7254 39.415 13.7561 39.3832 13.7625C39.3792 13.7633 39.3752 13.7637 39.3713 13.7637ZM39.2097 13.2125C39.1859 13.2125 39.1635 13.1982 39.1546 13.175C39.1208 13.0873 39.083 12.9999 39.0421 12.9153C39.0281 12.8863 39.0406 12.8516 39.07 12.8378C39.0994 12.824 39.1346 12.8363 39.1485 12.8653C39.1908 12.9528 39.2299 13.0431 39.2648 13.1337C39.2763 13.1637 39.261 13.1973 39.2306 13.2087C39.2238 13.2113 39.2167 13.2125 39.2097 13.2125ZM38.9597 12.6944C38.9394 12.6944 38.9196 12.6841 38.9086 12.6655C38.8609 12.5844 38.8092 12.5041 38.755 12.427C38.7365 12.4006 38.7432 12.3643 38.77 12.3461C38.7967 12.3278 38.8334 12.3344 38.852 12.3608C38.9079 12.4405 38.9613 12.5234 39.0105 12.6071C39.0269 12.6349 39.0173 12.6705 38.9892 12.6866C38.9799 12.6919 38.9697 12.6944 38.9597 12.6944ZM38.6283 12.2226C38.6113 12.2226 38.5943 12.2153 38.5827 12.2013C38.5225 12.1287 38.4587 12.0576 38.3929 11.9901C38.3704 11.967 38.3711 11.9302 38.3946 11.9079C38.418 11.8857 38.4554 11.8864 38.4779 11.9096C38.5458 11.9793 38.6117 12.0527 38.674 12.1277C38.6946 12.1525 38.6908 12.1892 38.6657 12.2095C38.6547 12.2183 38.6415 12.2226 38.6283 12.2226ZM33.2258 12.0249C33.2112 12.0249 33.1966 12.0196 33.1852 12.0089C33.1616 11.9867 33.1607 11.9499 33.1831 11.9267C33.2508 11.8566 33.3223 11.7883 33.3956 11.7237C33.4199 11.7023 33.4572 11.7044 33.4789 11.7283C33.5006 11.7523 33.4985 11.789 33.4742 11.8104C33.4032 11.873 33.334 11.9391 33.2685 12.0069C33.2569 12.0189 33.2414 12.0249 33.2258 12.0249ZM38.2254 11.8092C38.2115 11.8092 38.1976 11.8043 38.1864 11.7946C38.1153 11.7324 38.0407 11.6724 37.9647 11.6163C37.9387 11.597 37.9334 11.5605 37.953 11.5349C37.9725 11.5092 38.0094 11.504 38.0354 11.5232C38.114 11.5813 38.191 11.6433 38.2646 11.7075C38.2889 11.7288 38.2912 11.7655 38.2696 11.7896C38.2579 11.8025 38.2417 11.8092 38.2254 11.8092ZM33.6597 11.6425C33.6419 11.6425 33.6243 11.6346 33.6127 11.6195C33.5931 11.594 33.5981 11.5575 33.624 11.5381C33.7024 11.4793 33.7841 11.423 33.8666 11.371C33.8939 11.3536 33.9304 11.3615 33.948 11.3886C33.9655 11.4156 33.9575 11.4516 33.9301 11.4689C33.8503 11.5193 33.7713 11.5738 33.6953 11.6307C33.6847 11.6386 33.6721 11.6425 33.6597 11.6425ZM37.7604 11.4653C37.7497 11.4653 37.7388 11.4624 37.7291 11.4563C37.6485 11.4063 37.565 11.359 37.481 11.3158C37.4521 11.3009 37.4409 11.2658 37.4559 11.2373C37.471 11.2089 37.5066 11.1979 37.5355 11.2127C37.6224 11.2574 37.7086 11.3062 37.7918 11.3579C37.8194 11.3751 37.8277 11.411 37.8103 11.4381C37.7992 11.4556 37.78 11.4653 37.7604 11.4653ZM34.1496 11.3331C34.1285 11.3331 34.1082 11.3219 34.0975 11.3023C34.0822 11.274 34.0931 11.2388 34.1219 11.2237C34.2087 11.1781 34.2984 11.1356 34.3886 11.0972C34.4185 11.0844 34.4531 11.098 34.466 11.1275C34.4789 11.157 34.4652 11.1912 34.4353 11.2039C34.3481 11.2411 34.2613 11.2822 34.1773 11.3263C34.1685 11.3309 34.159 11.3331 34.1496 11.3331ZM37.245 11.2001C37.2373 11.2001 37.2295 11.1985 37.222 11.1954C37.1345 11.1589 37.0444 11.1255 36.9541 11.0962C36.9232 11.0861 36.9065 11.0532 36.9167 11.0228C36.9269 10.9923 36.9602 10.9758 36.9911 10.9858C37.0844 11.0162 37.1775 11.0507 37.2679 11.0884C37.2979 11.1009 37.312 11.135 37.2993 11.1646C37.2897 11.1868 37.2679 11.2001 37.245 11.2001ZM34.6837 11.1057C34.6591 11.1057 34.6361 11.0904 34.6278 11.0662C34.6174 11.0358 34.6339 11.0028 34.6648 10.9925C34.7577 10.9615 34.8532 10.9338 34.9487 10.9103C34.9801 10.9025 35.0122 10.9214 35.0202 10.9526C35.0281 10.9838 35.0089 11.0153 34.9773 11.0231C34.8849 11.0459 34.7925 11.0726 34.7026 11.1026C34.6962 11.1047 34.6899 11.1057 34.6837 11.1057ZM36.6929 11.0201C36.6883 11.0201 36.6836 11.0196 36.6789 11.0185C36.5865 10.9963 36.4921 10.9776 36.3983 10.9628C36.3661 10.9578 36.3442 10.928 36.3494 10.8962C36.3545 10.8645 36.3846 10.8428 36.4169 10.848C36.5138 10.8633 36.6113 10.8826 36.7068 10.9055C36.7385 10.9131 36.7579 10.9445 36.7502 10.9757C36.7436 11.0023 36.7195 11.0201 36.6929 11.0201ZM35.2479 10.9665C35.2195 10.9665 35.1946 10.9463 35.1898 10.9179C35.1845 10.8862 35.2062 10.8563 35.2383 10.851C35.3354 10.8352 35.4342 10.8231 35.5319 10.8151C35.5645 10.812 35.5928 10.8363 35.5955 10.8683C35.5982 10.9002 35.5741 10.9284 35.5416 10.931C35.4471 10.9387 35.3515 10.9504 35.2576 10.9658C35.2543 10.9662 35.2511 10.9665 35.2479 10.9665ZM36.1185 10.9298C36.117 10.9298 36.1154 10.9297 36.1139 10.9296C36.0218 10.9225 35.9285 10.919 35.8365 10.919H35.8276C35.7951 10.919 35.7687 10.8929 35.7687 10.8608C35.7687 10.8287 35.7951 10.8027 35.8276 10.8027H35.8365C35.9315 10.8027 36.028 10.8065 36.1231 10.8137C36.1555 10.8163 36.1798 10.8442 36.1772 10.8762C36.1748 10.9067 36.149 10.9298 36.1185 10.9298Z" fill="#F7A47A"/>
<path d="M39.4326 14.1943C39.4021 14.1943 39.3763 14.1712 39.3739 14.1407C39.3701 14.0933 39.3654 14.0459 39.3597 13.9985C39.3558 13.9667 39.3789 13.9377 39.4112 13.934C39.4435 13.9304 39.4729 13.9529 39.4767 13.9848C39.4826 14.0337 39.4875 14.0827 39.4914 14.1317C39.4939 14.1637 39.4697 14.1917 39.4372 14.1942C39.4357 14.1943 39.4341 14.1943 39.4326 14.1943Z" fill="#F7A47A"/>
<path d="M86.6003 24.3221C92.8185 24.3221 97.8594 19.3502 97.8594 13.2172C97.8594 7.08413 92.8185 2.1123 86.6003 2.1123C80.3821 2.1123 75.3412 7.08413 75.3412 13.2172C75.3412 19.3502 80.3821 24.3221 86.6003 24.3221Z" fill="white"/>
<path d="M86.6001 24.5853C80.2443 24.5853 75.0735 19.4852 75.0735 13.2164C75.0735 6.94768 80.2443 1.84766 86.6001 1.84766C92.956 1.84766 98.1268 6.94768 98.1268 13.2164C98.1268 19.4852 92.956 24.5853 86.6001 24.5853ZM86.6001 2.37557C80.5395 2.37557 75.6087 7.23878 75.6087 13.2164C75.6087 19.1942 80.5395 24.0574 86.6001 24.0574C92.6609 24.0574 97.5916 19.1942 97.5916 13.2164C97.5916 7.23878 92.6609 2.37557 86.6001 2.37557Z" fill="#BAD8DF"/>
<path d="M77.2335 16.8427C77.1192 16.8427 77.0072 16.7888 76.938 16.6886C76.8272 16.5278 76.8695 16.309 77.0324 16.1997C77.8128 15.6765 78.8813 14.9599 80.0219 14.9569C80.0244 14.9569 80.0268 14.9569 80.0293 14.9569C80.6812 14.9569 81.2583 15.1814 81.8164 15.3985C82.2339 15.5609 82.6281 15.7143 83.0376 15.7711C83.6071 15.85 84.0833 15.6451 84.6359 15.408C84.8898 15.2991 85.152 15.1866 85.4353 15.0983C86.5579 14.7486 87.5383 14.6758 88.3493 14.8818C88.7799 14.9913 89.1412 15.1871 89.4907 15.3765C89.8639 15.5788 90.2163 15.7698 90.631 15.8447C92.1776 16.1244 94.3139 15.9421 95.3485 14.881C95.4853 14.7409 95.7111 14.7368 95.8531 14.8713C95.9951 15.006 95.9994 15.2288 95.8628 15.3688C94.6391 16.624 92.2883 16.8599 90.5025 16.537C89.974 16.4415 89.5536 16.2137 89.147 15.9933C88.8219 15.8172 88.5149 15.6507 88.1713 15.5634C87.4917 15.3909 86.6437 15.46 85.6503 15.7695C85.4025 15.8466 85.1576 15.9517 84.9206 16.0534C84.3235 16.3096 83.7043 16.5745 82.9383 16.468C82.445 16.3996 81.9924 16.2235 81.5546 16.0533C81.0336 15.8506 80.5341 15.6617 80.0237 15.6607C79.1017 15.6631 78.1769 16.2834 77.4338 16.7817C77.3723 16.823 77.3025 16.8427 77.2335 16.8427Z" fill="#98C6CF"/>
<path d="M90.9543 18.3859C90.5414 18.3859 90.2055 18.3664 90.0004 18.3505C89.2464 18.292 88.577 18.001 87.9296 17.7195C87.2538 17.4257 86.6175 17.1403 85.9345 17.1532C85.2732 17.1578 84.6722 17.3793 84.036 17.6138C83.7098 17.734 83.3727 17.8583 83.0203 17.9546C81.6296 18.3352 80.2633 17.849 79.2284 17.3831C79.0493 17.3024 78.9702 17.0936 79.0521 16.9168C79.134 16.7399 79.3455 16.6622 79.5249 16.7428C80.4494 17.1591 81.6602 17.5962 82.8296 17.2764C83.152 17.1883 83.4745 17.0694 83.7861 16.9545C84.4525 16.7088 85.1418 16.4548 85.9296 16.4493C85.9369 16.4492 85.9444 16.4492 85.9519 16.4492C86.7772 16.4492 87.5093 16.7675 88.2174 17.0754C88.8376 17.3451 89.4233 17.5996 90.0565 17.6488C91.5317 17.763 93.5046 17.615 94.6149 16.8547C94.7768 16.7439 94.9994 16.7835 95.1115 16.9432C95.2238 17.1029 95.1838 17.3221 95.0219 17.433C93.851 18.2346 92.1046 18.3859 90.9543 18.3859Z" fill="#98C6CF"/>
<path d="M80.7267 10.8118C80.6124 10.8118 80.5004 10.7579 80.4312 10.6578C80.3203 10.497 80.3627 10.2782 80.5256 10.1689C81.2125 9.70817 82.1534 9.07729 83.1642 9.07461C83.1663 9.07461 83.1686 9.07461 83.1708 9.07461C83.7492 9.07461 84.2578 9.27251 84.7497 9.46383C85.1123 9.60483 85.4544 9.73799 85.8072 9.7869C86.2915 9.85374 86.7036 9.67735 87.1804 9.47272C87.4034 9.37711 87.6339 9.27818 87.8838 9.20035C88.8732 8.89217 89.7391 8.82816 90.4563 9.01055C90.8384 9.10753 91.1568 9.28018 91.4648 9.44711C91.7877 9.62213 92.0926 9.78742 92.4478 9.85164C93.7886 10.0941 95.6389 9.93784 96.532 9.02191C96.6687 8.88175 96.8943 8.87765 97.0365 9.01218C97.1785 9.14681 97.1829 9.36959 97.0463 9.50974C95.965 10.6189 93.8928 10.8283 92.3192 10.5439C91.8502 10.4592 91.4796 10.2583 91.1211 10.064C90.8394 9.91133 90.5733 9.76707 90.2782 9.69213C89.692 9.54309 88.9588 9.60356 88.0987 9.87152C87.8843 9.93825 87.6808 10.0257 87.4651 10.1181C86.9375 10.3447 86.3911 10.5789 85.7079 10.4839C85.2713 10.4233 84.8729 10.2684 84.4879 10.1186C84.0383 9.94372 83.6135 9.77853 83.1706 9.77853C83.1691 9.77853 83.1675 9.77853 83.1659 9.77853C82.3737 9.78059 81.5716 10.3186 80.9269 10.7509C80.8655 10.7921 80.7957 10.8118 80.7267 10.8118Z" fill="#98C6CF"/>
<path d="M92.7219 12.1614C92.3597 12.1614 92.0649 12.1443 91.8851 12.1303C91.2181 12.0786 90.6292 11.8226 90.0599 11.575C89.4787 11.3224 88.9295 11.0837 88.3488 11.0837C88.3439 11.0837 88.339 11.0837 88.3339 11.0838C87.7637 11.0877 87.2421 11.28 86.6898 11.4836C86.4037 11.5891 86.1079 11.6981 85.7978 11.7829C84.5679 12.1191 83.3635 11.6912 82.4521 11.2808C82.2728 11.2001 82.1937 10.9913 82.2756 10.8145C82.3575 10.6376 82.5695 10.5598 82.7483 10.6405C83.5999 11.0239 84.6055 11.3787 85.6072 11.1046C85.8873 11.0281 86.1558 10.9291 86.44 10.8243C87.0262 10.6082 87.6323 10.3848 88.3291 10.3799C89.0638 10.3811 89.7187 10.6576 90.3477 10.931C90.8862 11.1651 91.3949 11.3863 91.9412 11.4287C93.2234 11.5279 94.9361 11.4003 95.8973 10.7423C96.059 10.6314 96.2816 10.671 96.3938 10.8307C96.5062 10.9904 96.4661 11.2097 96.3043 11.3205C95.2708 12.028 93.7331 12.1614 92.7219 12.1614Z" fill="#98C6CF"/>
<path d="M24.7962 50.5593C29.3381 46.0797 29.3381 38.8168 24.7962 34.3372C20.2544 29.8575 12.8906 29.8575 8.34874 34.3372C3.80689 38.8168 3.80689 46.0797 8.34874 50.5593C12.8906 55.039 20.2544 55.039 24.7962 50.5593Z" fill="white"/>
<path d="M16.573 54.1846C10.0126 54.1846 4.67517 48.9203 4.67517 42.4497C4.67517 35.9791 10.0126 30.7148 16.573 30.7148C23.1335 30.7148 28.4709 35.9791 28.4709 42.4497C28.4709 48.9203 23.1334 54.1846 16.573 54.1846ZM16.573 31.2428C10.3077 31.2428 5.21041 36.2702 5.21041 42.4497C5.21041 48.6293 10.3077 53.6567 16.573 53.6567C22.8383 53.6567 27.9356 48.6293 27.9356 42.4497C27.9356 36.2702 22.8383 31.2428 16.573 31.2428Z" fill="#BAD8DF"/>
<path d="M23.8066 40.3047C23.574 39.8917 23.2891 39.5143 22.9562 39.1706L22.9546 39.1662L22.9504 39.1646C22.0739 38.2621 20.8558 37.5995 19.3081 37.1905C12.7489 35.4572 7.74572 38.4539 7.53606 38.5822C7.34986 38.6962 7.28241 38.926 7.37002 39.1241C7.45778 39.3222 7.68526 39.4248 7.89609 39.3677C7.90393 39.3657 8.08906 39.3173 8.38483 39.3954C8.92018 39.5369 9.95782 40.1448 10.8912 42.628C11.976 45.514 14.5988 48.8383 17.5127 49.6082C18.9643 49.9918 21.1406 49.9064 23.2645 47.3205C23.3725 47.189 23.3928 47.0089 23.3192 46.8585C23.3072 46.8269 23.2897 46.7713 23.2647 46.695C22.8452 45.4126 22.199 44.3323 21.5807 43.3432C22.1717 43.9149 22.9143 44.512 23.5597 45.2665C23.6637 45.388 23.8275 45.4439 23.9855 45.4118C24.1436 45.3798 24.2714 45.265 24.3183 45.1124C24.3501 45.0096 25.0802 42.5666 23.8066 40.3047Z" fill="#98C6CF"/>
<path d="M22.2666 44.2252C19.1666 40.6007 15.1348 38.881 9.94272 38.9671L9.93958 38.7911C15.1884 38.7048 19.2662 40.4442 22.4028 44.1118L22.2666 44.2252Z" fill="white"/>
<defs>
<linearGradient id="paint0_linear_2605_12590" x1="107.917" y1="34.0068" x2="101.593" y2="46.5147" gradientUnits="userSpaceOnUse">
<stop stop-color="#1F8297"/>
<stop offset="0.448113" stop-color="#166C7D"/>
<stop offset="1" stop-color="#003940"/>
</linearGradient>
<linearGradient id="paint1_linear_2605_12590" x1="102.825" y1="34.1484" x2="97.383" y2="58.0668" gradientUnits="userSpaceOnUse">
<stop stop-color="#1F8297"/>
<stop offset="0.448113" stop-color="#166C7D"/>
<stop offset="1" stop-color="#003940"/>
</linearGradient>
<linearGradient id="paint2_linear_2605_12590" x1="122.605" y1="37.5752" x2="7.95564" y2="78.083" gradientUnits="userSpaceOnUse">
<stop stop-color="#1F8297"/>
<stop offset="0.448113" stop-color="#166C7D"/>
<stop offset="1" stop-color="#003940"/>
</linearGradient>
<linearGradient id="paint3_linear_2605_12590" x1="99.5496" y1="50.2998" x2="12.3755" y2="81.7117" gradientUnits="userSpaceOnUse">
<stop stop-color="#1F8297"/>
<stop offset="0.448113" stop-color="#166C7D"/>
<stop offset="1" stop-color="#003940"/>
</linearGradient>
<linearGradient id="paint4_linear_2605_12590" x1="83.3728" y1="75.8682" x2="81.9459" y2="81.066" gradientUnits="userSpaceOnUse">
<stop stop-color="#F7A47A"/>
<stop offset="1" stop-color="#F26721"/>
</linearGradient>
<linearGradient id="paint5_linear_2605_12590" x1="83.151" y1="54.7451" x2="81.7241" y2="59.943" gradientUnits="userSpaceOnUse">
<stop stop-color="#F7A47A"/>
<stop offset="1" stop-color="#F26721"/>
</linearGradient>
<linearGradient id="paint6_linear_2605_12590" x1="65.3777" y1="101.763" x2="34.8336" y2="117.81" gradientUnits="userSpaceOnUse">
<stop stop-color="#1F8297"/>
<stop offset="0.448113" stop-color="#166C7D"/>
<stop offset="1" stop-color="#003940"/>
</linearGradient>
<linearGradient id="paint7_linear_2605_12590" x1="60.5485" y1="101.763" x2="59.0202" y2="105.266" gradientUnits="userSpaceOnUse">
<stop stop-color="#F7A47A"/>
<stop offset="1" stop-color="#F26721"/>
</linearGradient>
<linearGradient id="paint8_linear_2605_12590" x1="89.214" y1="101.763" x2="58.6699" y2="117.81" gradientUnits="userSpaceOnUse">
<stop stop-color="#1F8297"/>
<stop offset="0.448113" stop-color="#166C7D"/>
<stop offset="1" stop-color="#003940"/>
</linearGradient>
<linearGradient id="paint9_linear_2605_12590" x1="84.4889" y1="101.763" x2="82.9606" y2="105.266" gradientUnits="userSpaceOnUse">
<stop stop-color="#F7A47A"/>
<stop offset="1" stop-color="#F26721"/>
</linearGradient>
</defs>
</svg>
