<svg width="195" height="168" viewBox="0 0 195 168" fill="none" xmlns="http://www.w3.org/2000/svg">
<g clip-path="url(#clip0_2605_12590)">
<path d="M131.068 67.3722L115.712 66.8408V63.1491L121.697 63.0068L131.068 67.3722Z" fill="url(#paint0_linear_2605_12590)"/>
<path d="M116.126 63.1484H61.4708V70.141H116.126V63.1484Z" fill="url(#paint1_linear_2605_12590)"/>
<path opacity="0.9" d="M130.456 168.032H69.876V66.5752H132.018C132.906 66.5752 133.626 67.2855 133.626 68.1617V164.905C133.626 166.632 132.207 168.032 130.456 168.032Z" fill="url(#paint2_linear_2605_12590)"/>
<path d="M119.81 168.178H60.833C59.0306 168.178 57.5696 166.737 57.5696 164.959V68.6782C57.5696 67.5976 58.4578 66.7217 59.5533 66.7217H119.436C120.477 66.7217 121.32 67.5535 121.32 68.5796V166.688C121.32 167.511 120.644 168.178 119.81 168.178Z" fill="#BAD8DF"/>
<path d="M113.201 155.277H66.8026C66.1701 155.277 65.6573 154.771 65.6573 154.148V80.4294C65.6573 79.8055 66.1701 79.2998 66.8026 79.2998H113.201C113.833 79.2998 114.346 79.8055 114.346 80.4294V154.148C114.346 154.771 113.833 155.277 113.201 155.277Z" fill="url(#paint3_linear_2605_12590)"/>
<path d="M79.6648 104.868H69.3392V107.597H79.6648V104.868Z" fill="#BAD8DF"/>
<path d="M90.6054 104.868H79.3152V107.597H90.6054V104.868Z" fill="#F7A47A"/>
<path d="M100.924 104.868H89.6343V107.597H100.924V104.868Z" fill="#F7A47A"/>
<path d="M110.373 104.868H99.9529V107.597H110.373V104.868Z" fill="url(#paint4_linear_2605_12590)"/>
<path d="M79.4427 83.7451H69.1171V86.4742H79.4427V83.7451Z" fill="#BAD8DF"/>
<path d="M90.3835 83.7451H79.0933V86.4742H90.3835V83.7451Z" fill="#F7A47A"/>
<path d="M100.702 83.7451H89.4121V86.4742H100.702V83.7451Z" fill="#F7A47A"/>
<path d="M110.151 83.7451H99.7311V86.4742H110.151V83.7451Z" fill="url(#paint5_linear_2605_12590)"/>
<path d="M77.9171 98.0136H79.9151V92.8403C79.9151 92.5869 79.9224 92.3219 79.9367 92.045L78.7591 93.0092C78.683 93.0702 78.6068 93.1137 78.5307 93.1394C78.4547 93.1653 78.3808 93.1782 78.3094 93.1782C78.1857 93.1782 78.0753 93.1512 77.9777 93.0972C77.8801 93.0434 77.8076 92.9858 77.7601 92.9248L77.0605 92.0097L80.3004 89.3281H82.1273V98.0136H83.84V99.5902H77.9171V98.0136Z" fill="white"/>
<path d="M92.3893 94.4593C92.3893 95.3556 92.2917 96.1321 92.0966 96.789C91.9014 97.4461 91.6316 97.9903 91.2868 98.422C90.9416 98.8538 90.5326 99.1751 90.0592 99.3862C89.5858 99.5974 89.0731 99.703 88.5215 99.703C87.9695 99.703 87.459 99.5974 86.9907 99.3862C86.5221 99.1751 86.1165 98.8538 85.7739 98.422C85.4314 97.9903 85.1638 97.4461 84.9711 96.789C84.7784 96.1321 84.682 95.3556 84.682 94.4593C84.682 93.5631 84.7784 92.7866 84.9711 92.1296C85.1638 91.4727 85.4314 90.9285 85.7739 90.4966C86.1165 90.0649 86.522 89.7447 86.9907 89.5358C87.459 89.3272 87.9695 89.2227 88.5215 89.2227C89.0731 89.2227 89.5858 89.3272 90.0592 89.5358C90.5326 89.7447 90.9417 90.065 91.2868 90.4966C91.6316 90.9284 91.9014 91.4726 92.0966 92.1296C92.2917 92.7866 92.3893 93.5632 92.3893 94.4593ZM90.1056 94.4593C90.1056 93.7509 90.0603 93.1701 89.97 92.7172C89.8796 92.2644 89.7595 91.909 89.6097 91.6509C89.4599 91.3929 89.2897 91.2157 89.0994 91.1195C88.909 91.0234 88.7163 90.9753 88.5215 90.9753C88.3264 90.9753 88.1347 91.0235 87.9469 91.1195C87.7589 91.2158 87.5926 91.3929 87.4474 91.6509C87.3023 91.909 87.1857 92.2645 87.0977 92.7172C87.0096 93.1701 86.9657 93.7509 86.9657 94.4593C86.9657 95.1726 87.0095 95.7544 87.0977 96.2048C87.1857 96.6553 87.3023 97.0107 87.4474 97.2711C87.5926 97.5316 87.7589 97.71 87.9469 97.8061C88.1347 97.9023 88.3264 97.9505 88.5215 97.9505C88.7163 97.9505 88.909 97.9023 89.0994 97.8061C89.2897 97.71 89.4599 97.5316 89.6097 97.2711C89.7595 97.0107 89.8796 96.6553 89.97 96.2048C90.0602 95.7544 90.1056 95.1726 90.1056 94.4593Z" fill="white"/>
<path d="M97.5844 93.0935C97.9601 93.0935 98.3311 93.1545 98.6976 93.2765C99.0639 93.3986 99.3922 93.5862 99.6825 93.8396C99.9725 94.0929 100.207 94.4132 100.385 94.8003C100.564 95.1875 100.653 95.6438 100.653 96.1693C100.653 96.6479 100.562 97.1019 100.382 97.5312C100.201 97.9606 99.9452 98.336 99.6145 98.6575C99.2838 98.9789 98.8856 99.2335 98.4193 99.4212C97.9531 99.6088 97.4369 99.7027 96.8708 99.7027C96.2903 99.7027 95.7694 99.6123 95.3079 99.4317C94.8463 99.2511 94.455 98.9988 94.1341 98.675C93.8128 98.3513 93.5679 97.9642 93.3988 97.5138C93.23 97.0633 93.1455 96.5682 93.1455 96.0286C93.1455 95.5172 93.2455 95.008 93.4452 94.5013C93.6452 93.9945 93.9399 93.4784 94.3303 92.9527L96.6708 89.8347C96.7755 89.6938 96.9325 89.5755 97.1419 89.4792C97.3511 89.3831 97.5889 89.335 97.8555 89.335H99.8251L96.7421 92.9667C96.6946 93.0185 96.6481 93.0712 96.6031 93.1251C96.5579 93.1792 96.5139 93.2319 96.4711 93.2836C96.6374 93.2227 96.8124 93.1756 96.9955 93.1427C97.1786 93.11 97.375 93.0935 97.5844 93.0935ZM95.2721 96.3242C95.2721 96.5775 95.3031 96.8052 95.365 97.0069C95.4268 97.2087 95.5219 97.3824 95.6505 97.5278C95.7787 97.6733 95.9404 97.7847 96.1356 97.8622C96.3307 97.9396 96.5614 97.9783 96.8279 97.9783C97.0562 97.9783 97.2691 97.9361 97.4667 97.8516C97.6639 97.7672 97.8341 97.651 97.9768 97.5032C98.1197 97.3553 98.2326 97.1819 98.3158 96.9823C98.3991 96.7829 98.4406 96.566 98.4406 96.3313C98.4406 96.0685 98.4015 95.834 98.323 95.6274C98.2444 95.421 98.134 95.2473 97.9911 95.1066C97.8484 94.9658 97.6759 94.8579 97.4737 94.7828C97.2716 94.7078 97.0468 94.6702 96.7994 94.6702C96.5757 94.6702 96.3712 94.7088 96.1858 94.7863C96.0001 94.8638 95.8396 94.9753 95.7039 95.1207C95.5683 95.2661 95.4624 95.4398 95.3865 95.6415C95.3101 95.8433 95.2721 96.0708 95.2721 96.3242Z" fill="white"/>
<path d="M82.4114 118.741C82.4114 119.638 82.3139 120.414 82.1191 121.071C81.9239 121.728 81.6539 122.273 81.3089 122.704C80.964 123.136 80.5549 123.457 80.0817 123.668C79.6081 123.88 79.0955 123.985 78.5436 123.985C77.9917 123.985 77.4815 123.88 77.0128 123.668C76.5442 123.457 76.1388 123.136 75.7962 122.704C75.4535 122.273 75.1859 121.728 74.9934 121.071C74.8007 120.414 74.7043 119.638 74.7043 118.741C74.7043 117.845 74.8007 117.069 74.9934 116.412C75.1859 115.755 75.4535 115.211 75.7962 114.779C76.1388 114.347 76.5442 114.027 77.0128 113.818C77.4815 113.609 77.9917 113.505 78.5436 113.505C79.0955 113.505 79.6081 113.609 80.0817 113.818C80.5548 114.027 80.9639 114.347 81.3089 114.779C81.6539 115.211 81.9239 115.755 82.1191 116.412C82.3139 117.069 82.4114 117.845 82.4114 118.741ZM80.1281 118.741C80.1281 118.033 80.0828 117.452 79.9925 116.999C79.9019 116.547 79.7819 116.191 79.6321 115.933C79.4821 115.675 79.312 115.498 79.1218 115.402C78.9315 115.306 78.7388 115.257 78.5437 115.257C78.3486 115.257 78.1573 115.306 77.9693 115.402C77.7813 115.498 77.6147 115.675 77.4698 115.933C77.3245 116.191 77.2081 116.547 77.1201 116.999C77.0321 117.452 76.988 118.033 76.988 118.741C76.988 119.455 77.0321 120.037 77.1201 120.487C77.2081 120.938 77.3245 121.293 77.4698 121.553C77.6147 121.814 77.7813 121.992 77.9693 122.088C78.1573 122.185 78.3486 122.233 78.5437 122.233C78.7389 122.233 78.9315 122.185 79.1218 122.088C79.312 121.992 79.4821 121.814 79.6321 121.553C79.7819 121.293 79.9019 120.938 79.9925 120.487C80.0827 120.037 80.1281 119.455 80.1281 118.741Z" fill="white"/>
<path d="M83.125 122.768C83.125 122.599 83.1571 122.442 83.2212 122.297C83.2855 122.151 83.3735 122.024 83.4853 121.916C83.5972 121.809 83.729 121.723 83.8815 121.659C84.0335 121.596 84.2 121.564 84.3808 121.564C84.5568 121.564 84.7209 121.596 84.8734 121.659C85.0254 121.723 85.1587 121.809 85.2728 121.916C85.3871 122.024 85.4763 122.151 85.5405 122.297C85.6048 122.442 85.637 122.599 85.637 122.768C85.637 122.937 85.6048 123.095 85.5405 123.243C85.4764 123.391 85.3872 123.519 85.2728 123.627C85.1587 123.735 85.0254 123.819 84.8734 123.88C84.7209 123.941 84.5568 123.972 84.3808 123.972C84.2 123.972 84.0336 123.941 83.8815 123.88C83.729 123.819 83.5971 123.735 83.4853 123.627C83.3734 123.519 83.2854 123.391 83.2212 123.243C83.1571 123.095 83.125 122.937 83.125 122.768Z" fill="white"/>
<path d="M94.0575 118.741C94.0575 119.638 93.96 120.414 93.7649 121.071C93.5698 121.728 93.2999 122.273 92.9551 122.704C92.6099 123.136 92.2008 123.457 91.7275 123.668C91.2541 123.88 90.7414 123.985 90.1898 123.985C89.6378 123.985 89.1273 123.88 88.659 123.668C88.1903 123.457 87.7847 123.136 87.4422 122.704C87.0997 122.273 86.832 121.728 86.6394 121.071C86.4467 120.414 86.3503 119.638 86.3503 118.741C86.3503 117.845 86.4467 117.069 86.6394 116.412C86.8321 115.755 87.0997 115.211 87.4422 114.779C87.7847 114.347 88.1903 114.027 88.659 113.818C89.1273 113.609 89.6378 113.505 90.1898 113.505C90.7414 113.505 91.2541 113.609 91.7275 113.818C92.2009 114.027 92.61 114.347 92.9551 114.779C93.2999 115.211 93.5698 115.755 93.7649 116.412C93.96 117.069 94.0575 117.845 94.0575 118.741ZM91.7738 118.741C91.7738 118.033 91.7285 117.452 91.6383 116.999C91.5479 116.547 91.4278 116.191 91.278 115.933C91.1282 115.675 90.958 115.498 90.7677 115.402C90.5773 115.306 90.3846 115.257 90.1898 115.257C89.9947 115.257 89.803 115.306 89.6152 115.402C89.4272 115.498 89.2608 115.675 89.1157 115.933C88.9706 116.191 88.854 116.547 88.766 116.999C88.6779 117.452 88.6339 118.033 88.6339 118.741C88.6339 119.455 88.6778 120.037 88.766 120.487C88.854 120.938 88.9706 121.293 89.1157 121.553C89.2608 121.814 89.4272 121.992 89.6152 122.088C89.803 122.185 89.9947 122.233 90.1898 122.233C90.3846 122.233 90.5773 122.185 90.7677 122.088C90.958 121.992 91.1282 121.814 91.278 121.553C91.4278 121.293 91.5479 120.938 91.6383 120.487C91.7285 120.037 91.7738 119.455 91.7738 118.741Z" fill="white"/>
<path d="M101.465 114.518C101.465 114.668 101.441 114.804 101.394 114.926C101.346 115.048 101.271 115.155 101.169 115.246C101.067 115.338 100.932 115.408 100.766 115.458C100.599 115.507 100.399 115.532 100.166 115.532H97.6828L97.3903 117.228C97.5852 117.195 97.773 117.17 97.954 117.154C98.1347 117.138 98.3109 117.129 98.4821 117.129C99.0292 117.129 99.5121 117.212 99.9306 117.376C100.349 117.54 100.701 117.764 100.987 118.048C101.272 118.332 101.488 118.665 101.633 119.047C101.778 119.43 101.85 119.839 101.85 120.276C101.85 120.825 101.752 121.326 101.554 121.778C101.357 122.231 101.082 122.622 100.73 122.95C100.378 123.279 99.9582 123.533 99.4705 123.714C98.9829 123.894 98.4487 123.985 97.8684 123.985C97.5305 123.985 97.2083 123.95 96.9015 123.879C96.5946 123.809 96.3068 123.714 96.038 123.594C95.7692 123.475 95.5207 123.336 95.2922 123.179C95.0639 123.022 94.8569 122.854 94.6714 122.676L95.3566 121.775C95.4279 121.681 95.511 121.609 95.6063 121.56C95.7014 121.511 95.8037 121.486 95.9131 121.486C96.0559 121.486 96.1901 121.525 96.3163 121.602C96.4424 121.68 96.5803 121.764 96.7302 121.856C96.88 121.947 97.0549 122.031 97.2546 122.106C97.4546 122.181 97.7019 122.218 97.9968 122.218C98.2919 122.218 98.5439 122.17 98.7533 122.074C98.9627 121.978 99.1327 121.846 99.2635 121.68C99.3944 121.513 99.4895 121.318 99.5491 121.096C99.6083 120.873 99.6383 120.635 99.6383 120.381C99.6383 119.884 99.4954 119.505 99.2101 119.244C98.9247 118.984 98.5201 118.854 97.9968 118.854C97.5305 118.854 97.0737 118.941 96.6267 119.114L95.2566 118.748L96.1415 113.617H101.465V114.518H101.465Z" fill="white"/>
<path opacity="0.42" d="M86.9412 151.383H68.8889C68.5536 151.383 68.2816 151.115 68.2816 150.784V131.362C68.2816 131.031 68.5535 130.763 68.8889 130.763H86.9412C87.2766 130.763 87.5485 131.031 87.5485 131.362V150.784C87.5485 151.115 87.2766 151.383 86.9412 151.383Z" fill="url(#paint6_linear_2605_12590)"/>
<path d="M73.1302 130.763H68.282V132.799H73.1302V130.763Z" fill="#BAD8DF"/>
<path d="M78.2669 130.763H72.9657V132.799H78.2669V130.763Z" fill="#F7A47A"/>
<path d="M83.1121 130.763H77.8109V132.799H83.1121V130.763Z" fill="#F7A47A"/>
<path d="M87.5485 130.763H82.6559V132.799H87.5485V130.763Z" fill="url(#paint7_linear_2605_12590)"/>
<path d="M84.3253 145.173H71.3165C70.568 145.173 69.9612 144.574 69.9612 143.836V140.841C69.9612 140.102 70.568 139.504 71.3165 139.504H84.3253C85.0738 139.504 85.6806 140.102 85.6806 140.841V143.836C85.6806 144.574 85.0738 145.173 84.3253 145.173Z" fill="white"/>
<path d="M85.055 138.067H70.9436C70.4995 138.067 70.1395 137.712 70.1395 137.274V136.721C70.1395 136.283 70.4995 135.928 70.9436 135.928H85.055C85.499 135.928 85.859 136.283 85.859 136.721V137.274C85.859 137.712 85.499 138.067 85.055 138.067Z" fill="white"/>
<path d="M84.8766 149.329H78.8033C78.3592 149.329 77.9993 148.974 77.9993 148.536V147.982C77.9993 147.544 78.3592 147.189 78.8033 147.189H84.8766C85.3206 147.189 85.6806 147.544 85.6806 147.982V148.536C85.6806 148.974 85.3206 149.329 84.8766 149.329Z" fill="white"/>
<path opacity="0.42" d="M110.777 151.383H92.7253C92.3899 151.383 92.1179 151.115 92.1179 150.784V131.362C92.1179 131.031 92.3898 130.763 92.7253 130.763H110.777C111.113 130.763 111.385 131.031 111.385 131.362V150.784C111.385 151.115 111.113 151.383 110.777 151.383Z" fill="url(#paint8_linear_2605_12590)"/>
<path d="M108.166 145.349H95.1576C94.409 145.349 93.8022 144.75 93.8022 144.012V141.016C93.8022 140.278 94.409 139.68 95.1576 139.68H108.166C108.915 139.68 109.522 140.278 109.522 141.016V144.012C109.522 144.75 108.915 145.349 108.166 145.349Z" fill="white"/>
<path d="M108.896 138.244H94.7846C94.3406 138.244 93.9806 137.889 93.9806 137.451V136.898C93.9806 136.46 94.3406 136.104 94.7846 136.104H108.896C109.34 136.104 109.7 136.46 109.7 136.898V137.451C109.7 137.889 109.34 138.244 108.896 138.244Z" fill="white"/>
<path d="M108.718 149.505H102.645C102.201 149.505 101.841 149.15 101.841 148.712V148.158C101.841 147.72 102.201 147.365 102.645 147.365H108.718C109.162 147.365 109.522 147.72 109.522 148.158V148.712C109.522 149.15 109.162 149.505 108.718 149.505Z" fill="white"/>
<path d="M97.0702 130.763H92.2219V132.799H97.0702V130.763Z" fill="#BAD8DF"/>
<path d="M102.207 130.763H96.9061V132.799H102.207V130.763Z" fill="#F7A47A"/>
<path d="M107.052 130.763H101.751V132.799H107.052V130.763Z" fill="#F7A47A"/>
<path d="M111.489 130.763H106.596V132.799H111.489V130.763Z" fill="url(#paint9_linear_2605_12590)"/>
<path d="M123.503 71.3768C123.389 71.3768 123.276 71.3229 123.207 71.2228C123.096 71.0621 123.139 70.8431 123.302 70.7339C124.975 69.6114 127.058 68.2144 129.318 68.2085C129.323 68.2085 129.328 68.2085 129.333 68.2085C130.619 68.2085 131.787 68.663 132.917 69.1027C133.81 69.4498 134.653 69.7777 135.552 69.9025C136.844 70.0815 137.937 69.6134 139.093 69.1174C139.613 68.8944 140.151 68.6638 140.722 68.4858C142.992 67.7783 144.965 67.6283 146.585 68.0401C147.436 68.2563 148.168 68.6529 148.875 69.0364C149.682 69.4734 150.443 69.8862 151.369 70.0535C154.694 70.6544 159.299 70.2473 161.555 67.9331C161.692 67.793 161.918 67.7889 162.06 67.9234C162.202 68.0581 162.206 68.2809 162.07 68.421C159.618 70.9359 154.864 71.4006 151.241 70.7459C150.201 70.5579 149.352 70.098 148.532 69.6533C147.832 69.274 147.171 68.9158 146.407 68.7216C144.918 68.3434 143.078 68.4898 140.937 69.157C140.401 69.3238 139.881 69.547 139.378 69.7629C138.182 70.276 136.944 70.8066 135.452 70.5995C134.469 70.4631 133.547 70.1045 132.655 69.7576C131.538 69.323 130.483 68.9125 129.333 68.9125C129.329 68.9125 129.324 68.9125 129.32 68.9125C127.278 68.9179 125.296 70.2476 123.703 71.316C123.642 71.3571 123.572 71.3768 123.503 71.3768Z" fill="#BAD8DF"/>
<path d="M152.126 74.5962C151.272 74.5962 150.577 74.5558 150.155 74.5229C148.648 74.4059 147.283 73.8124 145.962 73.2384C144.515 72.6091 143.145 72.012 141.643 72.0253C140.196 72.0353 138.912 72.5086 137.552 73.0098C136.88 73.2576 136.185 73.5138 135.466 73.7103C132.686 74.4707 129.922 73.4838 127.824 72.5392C127.645 72.4586 127.566 72.2498 127.647 72.073C127.729 71.8961 127.941 71.8182 128.12 71.899C130.108 72.7939 132.717 73.7314 135.275 73.0321C135.964 72.8438 136.644 72.5931 137.302 72.3505C138.66 71.85 140.064 71.3324 141.639 71.3215C143.295 71.3078 144.798 71.963 146.25 72.5945C147.516 73.1447 148.825 73.7137 150.211 73.8214C153.354 74.0652 157.569 73.7411 159.967 72.0988C160.129 71.9879 160.351 72.0276 160.464 72.1872C160.576 72.3469 160.536 72.5662 160.374 72.677C158.018 74.2901 154.473 74.5962 152.126 74.5962Z" fill="#BAD8DF"/>
<path d="M133.468 89.3075C133.354 89.3075 133.241 89.2536 133.172 89.1534C133.061 88.9928 133.104 88.7738 133.267 88.6645C134.94 87.5421 137.023 86.145 139.283 86.1391C139.288 86.1391 139.293 86.1391 139.297 86.1391C140.583 86.1391 141.752 86.5936 142.882 87.0333C143.774 87.3805 144.617 87.7083 145.517 87.8331C146.811 88.0123 147.902 87.5439 149.058 87.048C149.578 86.825 150.115 86.5944 150.687 86.4164C152.957 85.7089 154.93 85.559 156.55 85.9707C157.401 86.1869 158.133 86.5835 158.84 86.967C159.647 87.404 160.408 87.8168 161.334 87.9842C164.659 88.5852 169.264 88.1778 171.52 85.8637C171.657 85.7235 171.883 85.7194 172.025 85.854C172.167 85.9887 172.171 86.2115 172.035 86.3515C169.583 88.8664 164.829 89.3314 161.206 88.6765C160.166 88.4886 159.317 88.0287 158.497 87.5839C157.797 87.2046 157.136 86.8464 156.372 86.6522C154.884 86.274 153.043 86.4204 150.902 87.0876C150.366 87.2545 149.846 87.4777 149.343 87.6936C148.147 88.2066 146.909 88.7373 145.418 88.5301C144.434 88.3937 143.512 88.035 142.62 87.6881C141.503 87.2536 140.448 86.843 139.298 86.843C139.294 86.843 139.289 86.843 139.285 86.843C137.244 86.8485 135.261 88.1781 133.668 89.2466C133.606 89.2878 133.537 89.3075 133.468 89.3075Z" fill="#BAD8DF"/>
<path d="M162.091 92.527C161.237 92.527 160.542 92.4865 160.119 92.4537C158.613 92.3366 157.247 91.7431 155.927 91.1692C154.48 90.5399 153.117 89.9449 151.608 89.956C150.161 89.966 148.876 90.4394 147.517 90.9406C146.845 91.1884 146.149 91.4446 145.431 91.6411C142.652 92.4012 139.886 91.4146 137.789 90.47C137.609 90.3893 137.53 90.1805 137.612 90.0037C137.694 89.8268 137.906 89.7488 138.085 89.8297C140.073 90.7247 142.682 91.6621 145.24 90.9629C145.929 90.7746 146.609 90.5238 147.267 90.2812C148.625 89.7808 150.029 89.2632 151.603 89.2522C153.262 89.2382 154.762 89.8937 156.215 90.5251C157.481 91.0754 158.79 91.6444 160.176 91.752C163.319 91.9959 167.533 91.6719 169.932 90.0294C170.094 89.9185 170.316 89.9581 170.428 90.1178C170.541 90.2775 170.501 90.4968 170.339 90.6077C167.983 92.2208 164.438 92.527 162.091 92.527Z" fill="#BAD8DF"/>
<path d="M85.7368 51.7714C92.0034 51.7714 97.0836 46.7608 97.0836 40.58C97.0836 34.3992 92.0034 29.3887 85.7368 29.3887C79.4701 29.3887 74.39 34.3992 74.39 40.58C74.39 46.7608 79.4701 51.7714 85.7368 51.7714Z" fill="white"/>
<path d="M85.7366 52.0356C79.3324 52.0356 74.1222 46.8968 74.1222 40.5803C74.1222 34.2638 79.3324 29.125 85.7366 29.125C92.1408 29.125 97.351 34.2638 97.351 40.5803C97.351 46.8968 92.1408 52.0356 85.7366 52.0356ZM85.7366 29.6529C79.6275 29.6529 74.6574 34.5549 74.6574 40.5803C74.6574 46.6057 79.6275 51.5077 85.7366 51.5077C91.8456 51.5077 96.8157 46.6057 96.8157 40.5803C96.8157 34.5549 91.8456 29.6529 85.7366 29.6529Z" fill="#BAD8DF"/>
<path d="M88.7613 42.8464C88.7613 46.4871 86.4495 48.2785 83.5979 48.2785C80.7463 48.2785 78.4346 46.4871 78.4346 42.8464C78.4346 39.9338 81.7392 35.1909 83.061 33.4103C83.327 33.052 83.8689 33.052 84.1349 33.4103C85.4567 35.191 88.7613 39.9338 88.7613 42.8464Z" fill="#98C6CF"/>
<path d="M83.664 47.4264C81.1782 47.4264 79.1559 45.5364 79.1559 43.2133C79.1559 42.6721 79.2641 42.1452 79.4776 41.6472C79.4991 41.597 79.5578 41.5734 79.6086 41.5948C79.6594 41.616 79.6832 41.6738 79.6617 41.724C79.4587 42.1976 79.3557 42.6987 79.3557 43.2133C79.3557 45.4277 81.2884 47.2293 83.664 47.2293C84.6887 47.2293 85.6816 46.8882 86.4599 46.2688C86.5029 46.2347 86.5658 46.2413 86.6004 46.2837C86.6351 46.326 86.6283 46.3881 86.5854 46.4222C85.7717 47.0698 84.7342 47.4264 83.664 47.4264Z" fill="#E9F3F5"/>
<path d="M92.2299 34.4947V33.7793H90.0556V34.4947H92.2299Z" fill="#BAD8DF"/>
<path d="M91.4827 35.6901V34.9746H90.0557V35.6901H91.4827Z" fill="#BAD8DF"/>
<path d="M93.3293 36.8854V36.1699H90.0556V36.8854H93.3293Z" fill="#BAD8DF"/>
<path d="M90.842 38.0806V37.3652H90.0555V38.0806H90.842Z" fill="#BAD8DF"/>
<path d="M93.4767 39.2769V38.5615H90.0558V39.2769H93.4767Z" fill="#BAD8DF"/>
<path d="M92.4006 40.4722V39.7568H90.0556V40.4722H92.4006Z" fill="#BAD8DF"/>
<path d="M91.8669 41.6666V40.9512H90.0557V41.6666H91.8669Z" fill="#BAD8DF"/>
<path d="M93.9913 42.8629V42.1475H90.0557V42.8629H93.9913Z" fill="#BAD8DF"/>
<path d="M94.3944 44.0582V43.3428H90.0558V44.0582H94.3944Z" fill="#BAD8DF"/>
<path d="M92.9452 45.2535V44.5381H90.0557V45.2535H92.9452Z" fill="#BAD8DF"/>
<path d="M90.7694 46.4488V45.7334H90.0559V46.4488H90.7694Z" fill="#BAD8DF"/>
<path d="M92.1553 47.6441V46.9287H90.0558V47.6441H92.1553Z" fill="#BAD8DF"/>
<path d="M57.9016 56.5968C64.498 56.5968 69.8455 51.3225 69.8455 44.8164C69.8455 38.3104 64.498 33.0361 57.9016 33.0361C51.3051 33.0361 45.9576 38.3104 45.9576 44.8164C45.9576 51.3225 51.3051 56.5968 57.9016 56.5968Z" fill="white"/>
<path d="M57.9016 56.8609C51.1682 56.8609 45.6902 51.4579 45.6902 44.8167C45.6902 38.1755 51.1682 32.7725 57.9016 32.7725C64.6351 32.7725 70.1132 38.1755 70.1132 44.8167C70.1132 51.4579 64.6351 56.8609 57.9016 56.8609ZM57.9016 33.3003C51.4633 33.3003 46.2254 38.4666 46.2254 44.8167C46.2254 51.1668 51.4633 56.333 57.9016 56.333C64.34 56.333 69.578 51.1668 69.578 44.8167C69.578 38.4665 64.3399 33.3003 57.9016 33.3003Z" fill="#BAD8DF"/>
<path d="M57.7004 48.3234V35.4032C57.7004 34.6669 57.0897 34.0645 56.3431 34.0645H56.0536C55.3071 34.0645 54.6963 34.6669 54.6963 35.4032V48.3135C53.5814 48.8568 52.8142 49.9892 52.8142 51.2987C52.8142 53.1368 54.325 54.6269 56.1886 54.6269C58.0522 54.6269 59.563 53.1368 59.563 51.2987C59.563 49.9968 58.8047 48.8703 57.7004 48.3234Z" fill="white"/>
<path d="M56.1884 54.891C54.1803 54.891 52.5466 53.2796 52.5466 51.2989C52.5466 49.9777 53.2634 48.7873 54.4286 48.1539V35.4034C54.4286 34.5198 55.1576 33.8008 56.0536 33.8008H56.343C57.239 33.8008 57.9679 34.5198 57.9679 35.4034V48.1649C59.121 48.8012 59.8304 49.9874 59.8304 51.299C59.8305 53.2796 58.1967 54.891 56.1884 54.891ZM56.0536 34.3287C55.4527 34.3287 54.9638 34.8109 54.9638 35.4034V48.4779L54.8147 48.5504C53.7458 49.0713 53.0818 50.1245 53.0818 51.2989C53.0818 52.9885 54.4754 54.3631 56.1884 54.3631C57.9016 54.3631 59.2952 52.9885 59.2952 51.2989C59.2952 50.1332 58.638 49.0835 57.5803 48.5594L57.4328 48.4864V35.4034C57.4328 34.8108 56.9438 34.3287 56.343 34.3287H56.0536Z" fill="#98C6CF"/>
<path d="M57.0368 48.8201V35.8967C57.0368 35.4954 56.7039 35.167 56.297 35.167H56.0804C55.6735 35.167 55.3406 35.4954 55.3406 35.8967V48.8201C54.264 49.171 53.4868 50.1708 53.4868 51.3502C53.4868 52.822 54.6965 54.0151 56.1887 54.0151C57.681 54.0151 58.8906 52.822 58.8906 51.3502C58.8906 50.1708 58.1134 49.171 57.0368 48.8201Z" fill="#98C6CF"/>
<path d="M62.8995 46.3668C64.5194 46.3668 65.8326 45.0716 65.8326 43.4739C65.8326 41.8762 64.5194 40.5811 62.8995 40.5811C61.2796 40.5811 59.9664 41.8762 59.9664 43.4739C59.9664 45.0716 61.2796 46.3668 62.8995 46.3668Z" fill="#F7A47A"/>
<path d="M65.8259 45.5957C65.8145 45.5957 65.803 45.5925 65.7929 45.5857C65.7659 45.5677 65.7589 45.5316 65.7771 45.5049C65.8042 45.4655 65.8305 45.4254 65.8558 45.385C65.8729 45.3577 65.9092 45.3492 65.9369 45.3661C65.9646 45.383 65.9732 45.4188 65.9561 45.4461C65.9299 45.4879 65.9028 45.5292 65.8748 45.5701C65.8634 45.5867 65.8448 45.5957 65.8259 45.5957Z" fill="#F7A47A"/>
<path d="M62.8418 47.1598L62.807 47.1596C62.7745 47.1593 62.7484 47.133 62.7487 47.1009C62.749 47.0687 62.7743 47.0429 62.8083 47.0433L62.8418 47.0435C62.9274 47.0435 63.014 47.0404 63.0991 47.0343C63.1319 47.0328 63.1599 47.0561 63.1622 47.0881C63.1646 47.1202 63.1401 47.148 63.1077 47.1504C63.0196 47.1566 62.9302 47.1598 62.8418 47.1598ZM62.5122 47.1449C62.5105 47.1449 62.5086 47.1448 62.5068 47.1447C62.4075 47.1357 62.3073 47.1226 62.2089 47.1057C62.1768 47.1002 62.1553 47.0701 62.1609 47.0384C62.1665 47.0068 62.1969 46.9858 62.2291 46.9911C62.3244 47.0075 62.4215 47.0202 62.5175 47.0288C62.55 47.0318 62.5739 47.0601 62.5709 47.092C62.568 47.1223 62.5423 47.1449 62.5122 47.1449ZM63.3971 47.1174C63.3686 47.1174 63.3435 47.0969 63.339 47.0683C63.334 47.0365 63.356 47.0068 63.3881 47.0019C63.4835 46.9873 63.5796 46.9685 63.6736 46.9461C63.7053 46.9385 63.7371 46.9577 63.7447 46.9889C63.7523 47.0202 63.7329 47.0516 63.7012 47.0591C63.6041 47.0822 63.5049 47.1017 63.4063 47.1167C63.4032 47.1172 63.4001 47.1174 63.3971 47.1174ZM61.9298 47.0447C61.9249 47.0447 61.9199 47.0442 61.915 47.0429C61.8184 47.0181 61.7217 46.9891 61.6274 46.9566C61.5967 46.946 61.5805 46.9128 61.5912 46.8826C61.602 46.8522 61.6357 46.8363 61.6663 46.8468C61.7575 46.8782 61.8512 46.9063 61.9447 46.9303C61.9762 46.9384 61.9951 46.9701 61.9869 47.0012C61.98 47.0274 61.9561 47.0447 61.9298 47.0447ZM63.9718 46.9806C63.9471 46.9806 63.9241 46.9651 63.9159 46.9407C63.9057 46.9102 63.9225 46.8773 63.9533 46.8673C64.0451 46.8373 64.1367 46.8032 64.2255 46.7659C64.2556 46.7533 64.2901 46.7671 64.3029 46.7966C64.3156 46.8262 64.3016 46.8603 64.2717 46.8729C64.1799 46.9114 64.0852 46.9466 63.9903 46.9776C63.9842 46.9796 63.978 46.9806 63.9718 46.9806ZM61.3719 46.8525C61.3639 46.8525 61.3558 46.8508 61.348 46.8474C61.2568 46.8075 61.1661 46.7632 61.0786 46.716C61.0501 46.7006 61.0396 46.6653 61.0552 46.6371C61.0708 46.609 61.1067 46.5987 61.1352 46.614C61.2199 46.6597 61.3075 46.7025 61.3959 46.7413C61.4256 46.7543 61.439 46.7887 61.4258 46.818C61.4161 46.8396 61.3945 46.8525 61.3719 46.8525ZM64.5158 46.7523C64.4947 46.7523 64.4742 46.7411 64.4636 46.7213C64.4485 46.6929 64.4595 46.6578 64.4883 46.6427C64.5737 46.5984 64.6584 46.5499 64.74 46.4986C64.7675 46.4814 64.8039 46.4894 64.8214 46.5165C64.8389 46.5436 64.8307 46.5795 64.8033 46.5967C64.7189 46.6497 64.6314 46.6997 64.5433 46.7456C64.5345 46.7502 64.5251 46.7523 64.5158 46.7523ZM60.8536 46.5727C60.8425 46.5727 60.8313 46.5696 60.8212 46.5631C60.7379 46.5089 60.656 46.4505 60.5775 46.3897C60.5519 46.3699 60.5474 46.3333 60.5676 46.3081C60.5877 46.2829 60.6248 46.2785 60.6503 46.2983C60.7263 46.3572 60.8056 46.4136 60.8862 46.466C60.9134 46.4837 60.9208 46.5198 60.9029 46.5466C60.8916 46.5635 60.8728 46.5727 60.8536 46.5727ZM65.0146 46.4392C64.9967 46.4392 64.9791 46.4313 64.9675 46.4161C64.9479 46.3905 64.9531 46.3541 64.979 46.3347C64.9929 46.3244 65.0067 46.3139 65.0205 46.3033C65.083 46.2551 65.1447 46.2043 65.2038 46.1522C65.2281 46.1309 65.2654 46.133 65.2871 46.1569C65.3087 46.1809 65.3066 46.2176 65.2823 46.239C65.2213 46.2927 65.1576 46.3452 65.093 46.3949C65.0787 46.4059 65.0644 46.4168 65.0501 46.4275C65.0394 46.4354 65.0269 46.4392 65.0146 46.4392ZM60.3893 46.2128C60.3749 46.2128 60.3605 46.2076 60.3492 46.1972C60.2763 46.1305 60.205 46.0596 60.1375 45.9867C60.1155 45.963 60.1172 45.9262 60.1412 45.9046C60.1653 45.8829 60.2026 45.8846 60.2245 45.9083C60.2899 45.9788 60.3588 46.0474 60.4294 46.112C60.4533 46.1339 60.4546 46.1706 60.4325 46.1942C60.4208 46.2065 60.4051 46.2128 60.3893 46.2128ZM65.4555 46.0507C65.4408 46.0507 65.4263 46.0454 65.4149 46.0347C65.3913 46.0126 65.3904 45.9758 65.4127 45.9525C65.4793 45.8834 65.5438 45.8107 65.6043 45.7365C65.6248 45.7115 65.6619 45.7076 65.6872 45.7276C65.7126 45.7477 65.7166 45.7843 65.6962 45.8094C65.6336 45.8861 65.567 45.9612 65.4982 46.0326C65.4866 46.0446 65.471 46.0507 65.4555 46.0507ZM59.9905 45.7824C59.9729 45.7824 59.9556 45.7746 59.9439 45.7598C59.8826 45.6819 59.8239 45.6006 59.7695 45.5183C59.7518 45.4914 59.7594 45.4554 59.7867 45.4379C59.8139 45.4203 59.8505 45.4279 59.8683 45.4548C59.9209 45.5344 59.9778 45.6131 60.0371 45.6886C60.0571 45.714 60.0524 45.7505 60.0267 45.7702C60.0159 45.7784 60.0032 45.7824 59.9905 45.7824ZM59.6675 45.294C59.6465 45.294 59.6262 45.283 59.6156 45.2636C59.568 45.1769 59.5235 45.0873 59.4834 44.9972C59.4703 44.9678 59.4839 44.9335 59.5137 44.9206C59.5435 44.9077 59.5783 44.9211 59.5914 44.9505C59.6302 45.0376 59.6732 45.1243 59.7193 45.2083C59.7348 45.2365 59.7241 45.2718 59.6955 45.287C59.6865 45.2918 59.6769 45.294 59.6675 45.294ZM59.4297 44.7602C59.4052 44.7602 59.3823 44.745 59.374 44.7209C59.3416 44.6279 59.3127 44.5323 59.2881 44.4367C59.2801 44.4056 59.2992 44.374 59.3307 44.3661C59.3622 44.3581 59.3943 44.377 59.4023 44.4081C59.4261 44.5007 59.4541 44.5932 59.4854 44.6831C59.496 44.7135 59.4796 44.7466 59.4488 44.757C59.4425 44.7591 59.4361 44.7602 59.4297 44.7602Z" fill="#F7A47A"/>
<path d="M59.2838 44.1927C59.2555 44.1927 59.2305 44.1725 59.2257 44.1441C59.2175 44.0955 59.2103 44.0467 59.2042 43.998C59.2001 43.9661 59.2231 43.9371 59.2554 43.9331C59.2874 43.929 59.3171 43.9517 59.3212 43.9836C59.3272 44.0308 59.3341 44.0779 59.342 44.1249C59.3474 44.1566 59.3257 44.1866 59.2936 44.1918C59.2903 44.1924 59.287 44.1927 59.2838 44.1927Z" fill="#F7A47A"/>
<path d="M59.9437 41.3551C59.9315 41.3551 59.9191 41.3513 59.9086 41.3436C59.8825 41.3245 59.877 41.2881 59.8964 41.2623C59.9261 41.2229 59.9567 41.184 59.9881 41.1456C60.0086 41.1206 60.0458 41.1168 60.071 41.1369C60.0963 41.1571 60.1003 41.1937 60.0798 41.2187C60.0493 41.2558 60.0198 41.2934 59.9911 41.3316C59.9795 41.347 59.9617 41.3551 59.9437 41.3551Z" fill="#F7A47A"/>
<path d="M66.3713 42.7637C66.3439 42.7637 66.3193 42.7447 66.3136 42.7171C66.2946 42.6251 66.2717 42.5328 66.2453 42.4429C66.2363 42.412 66.2543 42.3798 66.2856 42.3709C66.3169 42.3619 66.3495 42.3798 66.3586 42.4106C66.3858 42.5036 66.4096 42.5989 66.4292 42.694C66.4356 42.7254 66.415 42.7561 66.3832 42.7625C66.3792 42.7633 66.3752 42.7637 66.3713 42.7637ZM66.2097 42.2125C66.1859 42.2125 66.1635 42.1982 66.1546 42.175C66.1208 42.0873 66.083 41.9999 66.0421 41.9153C66.0281 41.8863 66.0406 41.8516 66.07 41.8378C66.0994 41.824 66.1346 41.8363 66.1485 41.8653C66.1908 41.9528 66.2299 42.0431 66.2648 42.1337C66.2763 42.1637 66.261 42.1973 66.2306 42.2087C66.2238 42.2113 66.2167 42.2125 66.2097 42.2125ZM65.9597 41.6944C65.9394 41.6944 65.9196 41.6841 65.9086 41.6655C65.8609 41.5844 65.8092 41.5041 65.755 41.427C65.7365 41.4006 65.7432 41.3643 65.77 41.3461C65.7967 41.3278 65.8334 41.3344 65.852 41.3608C65.9079 41.4405 65.9613 41.5234 66.0105 41.6071C66.0269 41.6349 66.0173 41.6705 65.9892 41.6866C65.9799 41.6919 65.9697 41.6944 65.9597 41.6944ZM65.6283 41.2226C65.6113 41.2226 65.5943 41.2153 65.5827 41.2013C65.5225 41.1287 65.4587 41.0576 65.3929 40.9901C65.3704 40.967 65.3711 40.9302 65.3946 40.9079C65.418 40.8857 65.4554 40.8864 65.4779 40.9096C65.5458 40.9793 65.6117 41.0527 65.674 41.1277C65.6946 41.1525 65.6908 41.1892 65.6657 41.2095C65.6547 41.2183 65.6415 41.2226 65.6283 41.2226ZM60.2258 41.0249C60.2112 41.0249 60.1966 41.0196 60.1852 41.0089C60.1616 40.9867 60.1607 40.9499 60.1831 40.9267C60.2508 40.8566 60.3223 40.7883 60.3956 40.7237C60.4199 40.7023 60.4572 40.7044 60.4789 40.7283C60.5006 40.7523 60.4985 40.789 60.4742 40.8104C60.4032 40.873 60.334 40.9391 60.2685 41.0069C60.2569 41.0189 60.2414 41.0249 60.2258 41.0249ZM65.2254 40.8092C65.2115 40.8092 65.1976 40.8043 65.1864 40.7946C65.1153 40.7324 65.0407 40.6724 64.9647 40.6163C64.9387 40.597 64.9334 40.5605 64.953 40.5349C64.9725 40.5092 65.0094 40.504 65.0354 40.5232C65.114 40.5813 65.191 40.6433 65.2646 40.7075C65.2889 40.7288 65.2912 40.7655 65.2696 40.7896C65.2579 40.8025 65.2417 40.8092 65.2254 40.8092ZM60.6597 40.6425C60.6419 40.6425 60.6243 40.6346 60.6127 40.6195C60.5931 40.594 60.5981 40.5575 60.624 40.5381C60.7024 40.4793 60.7841 40.423 60.8666 40.371C60.8939 40.3536 60.9304 40.3615 60.948 40.3886C60.9655 40.4156 60.9575 40.4516 60.9301 40.4689C60.8503 40.5193 60.7713 40.5738 60.6953 40.6307C60.6847 40.6386 60.6721 40.6425 60.6597 40.6425ZM64.7604 40.4653C64.7497 40.4653 64.7388 40.4624 64.7291 40.4563C64.6485 40.4063 64.565 40.359 64.481 40.3158C64.4521 40.3009 64.4409 40.2658 64.4559 40.2373C64.471 40.2089 64.5066 40.1979 64.5355 40.2127C64.6224 40.2574 64.7086 40.3062 64.7918 40.3579C64.8194 40.3751 64.8277 40.411 64.8103 40.4381C64.7992 40.4556 64.78 40.4653 64.7604 40.4653ZM61.1496 40.3331C61.1285 40.3331 61.1082 40.3219 61.0975 40.3023C61.0822 40.274 61.0931 40.2388 61.1219 40.2237C61.2087 40.1781 61.2984 40.1356 61.3886 40.0972C61.4185 40.0844 61.4531 40.098 61.466 40.1275C61.4789 40.157 61.4652 40.1912 61.4353 40.2039C61.3481 40.2411 61.2613 40.2822 61.1773 40.3263C61.1685 40.3309 61.159 40.3331 61.1496 40.3331ZM64.245 40.2001C64.2373 40.2001 64.2295 40.1985 64.222 40.1954C64.1345 40.1589 64.0444 40.1255 63.9541 40.0962C63.9232 40.0861 63.9065 40.0532 63.9167 40.0228C63.9269 39.9923 63.9602 39.9758 63.9911 39.9858C64.0844 40.0162 64.1775 40.0507 64.2679 40.0884C64.2979 40.1009 64.312 40.135 64.2993 40.1646C64.2897 40.1868 64.2679 40.2001 64.245 40.2001ZM61.6837 40.1057C61.6591 40.1057 61.6361 40.0904 61.6278 40.0662C61.6174 40.0358 61.6339 40.0028 61.6648 39.9925C61.7577 39.9615 61.8532 39.9338 61.9487 39.9103C61.9801 39.9025 62.0122 39.9214 62.0202 39.9526C62.0281 39.9838 62.0089 40.0153 61.9773 40.0231C61.8849 40.0459 61.7925 40.0726 61.7026 40.1026C61.6962 40.1047 61.6899 40.1057 61.6837 40.1057ZM63.6929 40.0201C63.6883 40.0201 63.6836 40.0196 63.6789 40.0185C63.5865 39.9963 63.4921 39.9776 63.3983 39.9628C63.3661 39.9578 63.3442 39.928 63.3494 39.8962C63.3545 39.8645 63.3846 39.8428 63.4169 39.848C63.5138 39.8633 63.6113 39.8826 63.7068 39.9055C63.7385 39.9131 63.7579 39.9445 63.7502 39.9757C63.7436 40.0023 63.7195 40.0201 63.6929 40.0201ZM62.2479 39.9665C62.2195 39.9665 62.1946 39.9463 62.1898 39.9179C62.1845 39.8862 62.2062 39.8563 62.2383 39.851C62.3354 39.8352 62.4342 39.8231 62.5319 39.8151C62.5645 39.812 62.5928 39.8363 62.5955 39.8683C62.5982 39.9002 62.5741 39.9284 62.5416 39.931C62.4471 39.9387 62.3515 39.9504 62.2576 39.9658C62.2543 39.9662 62.2511 39.9665 62.2479 39.9665ZM63.1185 39.9298C63.117 39.9298 63.1154 39.9297 63.1139 39.9296C63.0218 39.9225 62.9285 39.919 62.8365 39.919H62.8276C62.7951 39.919 62.7687 39.8929 62.7687 39.8608C62.7687 39.8287 62.7951 39.8027 62.8276 39.8027H62.8365C62.9315 39.8027 63.028 39.8065 63.1231 39.8137C63.1555 39.8163 63.1798 39.8442 63.1772 39.8762C63.1748 39.9067 63.149 39.9298 63.1185 39.9298Z" fill="#F7A47A"/>
<path d="M66.4326 43.1943C66.4021 43.1943 66.3763 43.1712 66.3739 43.1407C66.3701 43.0933 66.3654 43.0459 66.3597 42.9985C66.3558 42.9667 66.3789 42.9377 66.4112 42.934C66.4435 42.9304 66.4729 42.9529 66.4767 42.9848C66.4826 43.0337 66.4875 43.0827 66.4914 43.1317C66.4939 43.1637 66.4697 43.1917 66.4372 43.1942C66.4357 43.1943 66.4341 43.1943 66.4326 43.1943Z" fill="#F7A47A"/>
<path d="M113.6 53.3221C119.819 53.3221 124.859 48.3502 124.859 42.2172C124.859 36.0841 119.819 31.1123 113.6 31.1123C107.382 31.1123 102.341 36.0841 102.341 42.2172C102.341 48.3502 107.382 53.3221 113.6 53.3221Z" fill="white"/>
<path d="M113.6 53.5853C107.244 53.5853 102.073 48.4852 102.073 42.2164C102.073 35.9477 107.244 30.8477 113.6 30.8477C119.956 30.8477 125.127 35.9477 125.127 42.2164C125.127 48.4852 119.956 53.5853 113.6 53.5853ZM113.6 31.3756C107.539 31.3756 102.609 36.2388 102.609 42.2164C102.609 48.1942 107.539 53.0574 113.6 53.0574C119.661 53.0574 124.592 48.1942 124.592 42.2164C124.592 36.2388 119.661 31.3756 113.6 31.3756Z" fill="#BAD8DF"/>
<path d="M104.233 45.8427C104.119 45.8427 104.007 45.7888 103.938 45.6886C103.827 45.5278 103.87 45.309 104.032 45.1997C104.813 44.6765 105.881 43.9599 107.022 43.9569C107.024 43.9569 107.027 43.9569 107.029 43.9569C107.681 43.9569 108.258 44.1814 108.816 44.3985C109.234 44.5609 109.628 44.7143 110.038 44.7711C110.607 44.85 111.083 44.6451 111.636 44.408C111.89 44.2991 112.152 44.1866 112.435 44.0983C113.558 43.7486 114.538 43.6758 115.349 43.8818C115.78 43.9913 116.141 44.1871 116.491 44.3765C116.864 44.5788 117.216 44.7698 117.631 44.8447C119.178 45.1244 121.314 44.9421 122.348 43.881C122.485 43.7409 122.711 43.7368 122.853 43.8713C122.995 44.006 122.999 44.2288 122.863 44.3688C121.639 45.624 119.288 45.8599 117.502 45.537C116.974 45.4415 116.554 45.2137 116.147 44.9933C115.822 44.8172 115.515 44.6507 115.171 44.5634C114.492 44.3909 113.644 44.46 112.65 44.7695C112.403 44.8466 112.158 44.9517 111.921 45.0534C111.324 45.3096 110.704 45.5745 109.938 45.468C109.445 45.3996 108.992 45.2235 108.555 45.0533C108.034 44.8506 107.534 44.6617 107.024 44.6607C106.102 44.6631 105.177 45.2834 104.434 45.7817C104.372 45.823 104.302 45.8427 104.233 45.8427Z" fill="#98C6CF"/>
<path d="M117.954 47.3859C117.541 47.3859 117.206 47.3664 117 47.3505C116.246 47.292 115.577 47.001 114.93 46.7195C114.254 46.4257 113.618 46.1403 112.935 46.1532C112.273 46.1578 111.672 46.3793 111.036 46.6138C110.71 46.734 110.373 46.8583 110.02 46.9546C108.63 47.3352 107.263 46.849 106.228 46.3831C106.049 46.3024 105.97 46.0936 106.052 45.9168C106.134 45.7399 106.345 45.6622 106.525 45.7428C107.449 46.1591 108.66 46.5962 109.83 46.2764C110.152 46.1883 110.474 46.0694 110.786 45.9545C111.453 45.7088 112.142 45.4548 112.93 45.4493C112.937 45.4492 112.944 45.4492 112.952 45.4492C113.777 45.4492 114.509 45.7675 115.217 46.0754C115.838 46.3451 116.423 46.5996 117.056 46.6488C118.532 46.763 120.505 46.615 121.615 45.8547C121.777 45.7439 121.999 45.7835 122.111 45.9432C122.224 46.1029 122.184 46.3221 122.022 46.433C120.851 47.2346 119.105 47.3859 117.954 47.3859Z" fill="#98C6CF"/>
<path d="M107.727 39.8118C107.612 39.8118 107.5 39.7579 107.431 39.6578C107.32 39.497 107.363 39.2782 107.526 39.1689C108.213 38.7082 109.153 38.0773 110.164 38.0746C110.166 38.0746 110.169 38.0746 110.171 38.0746C110.749 38.0746 111.258 38.2725 111.75 38.4638C112.112 38.6048 112.454 38.738 112.807 38.7869C113.292 38.8537 113.704 38.6773 114.18 38.4727C114.403 38.3771 114.634 38.2782 114.884 38.2004C115.873 37.8922 116.739 37.8282 117.456 38.0105C117.838 38.1075 118.157 38.2802 118.465 38.4471C118.788 38.6221 119.093 38.7874 119.448 38.8516C120.789 39.0941 122.639 38.9378 123.532 38.0219C123.669 37.8818 123.894 37.8777 124.037 38.0122C124.178 38.1468 124.183 38.3696 124.046 38.5097C122.965 39.6189 120.893 39.8283 119.319 39.5439C118.85 39.4592 118.48 39.2583 118.121 39.064C117.839 38.9113 117.573 38.7671 117.278 38.6921C116.692 38.5431 115.959 38.6036 115.099 38.8715C114.884 38.9383 114.681 39.0257 114.465 39.1181C113.938 39.3447 113.391 39.5789 112.708 39.4839C112.271 39.4233 111.873 39.2684 111.488 39.1186C111.038 38.9437 110.613 38.7785 110.171 38.7785C110.169 38.7785 110.167 38.7785 110.166 38.7785C109.374 38.7806 108.572 39.3186 107.927 39.7509C107.866 39.7921 107.796 39.8118 107.727 39.8118Z" fill="#98C6CF"/>
<path d="M119.722 41.1614C119.36 41.1614 119.065 41.1443 118.885 41.1303C118.218 41.0786 117.629 40.8226 117.06 40.575C116.479 40.3224 115.93 40.0837 115.349 40.0837C115.344 40.0837 115.339 40.0837 115.334 40.0838C114.764 40.0877 114.242 40.28 113.69 40.4836C113.404 40.5891 113.108 40.6981 112.798 40.7829C111.568 41.1191 110.363 40.6912 109.452 40.2808C109.273 40.2001 109.194 39.9913 109.276 39.8145C109.358 39.6376 109.57 39.5598 109.748 39.6405C110.6 40.0239 111.606 40.3787 112.607 40.1046C112.887 40.0281 113.156 39.9291 113.44 39.8243C114.026 39.6082 114.632 39.3848 115.329 39.3799C116.064 39.3811 116.719 39.6576 117.348 39.931C117.886 40.1651 118.395 40.3863 118.941 40.4287C120.223 40.5279 121.936 40.4003 122.897 39.7423C123.059 39.6314 123.282 39.671 123.394 39.8307C123.506 39.9904 123.466 40.2097 123.304 40.3205C122.271 41.028 120.733 41.1614 119.722 41.1614Z" fill="#98C6CF"/>
<path d="M51.7962 79.5603C56.3381 75.0807 56.3381 67.8178 51.7962 63.3381C47.2544 58.8585 39.8906 58.8585 35.3487 63.3381C30.8069 67.8178 30.8069 75.0807 35.3487 79.5603C39.8906 84.0399 47.2544 84.0399 51.7962 79.5603Z" fill="white"/>
<path d="M43.573 83.1846C37.0126 83.1846 31.6752 77.9203 31.6752 71.4497C31.6752 64.9791 37.0126 59.7148 43.573 59.7148C50.1335 59.7148 55.4709 64.9791 55.4709 71.4497C55.4709 77.9203 50.1334 83.1846 43.573 83.1846ZM43.573 60.2428C37.3077 60.2428 32.2104 65.2702 32.2104 71.4497C32.2104 77.6293 37.3077 82.6567 43.573 82.6567C49.8383 82.6567 54.9356 77.6293 54.9356 71.4497C54.9356 65.2702 49.8383 60.2428 43.573 60.2428Z" fill="#BAD8DF"/>
<path d="M50.8066 69.3047C50.574 68.8917 50.2891 68.5143 49.9562 68.1706L49.9546 68.1662L49.9504 68.1646C49.0739 67.2621 47.8558 66.5995 46.3081 66.1905C39.7489 64.4572 34.7457 67.4539 34.5361 67.5822C34.3499 67.6962 34.2824 67.926 34.37 68.1241C34.4578 68.3222 34.6853 68.4248 34.8961 68.3677C34.9039 68.3657 35.0891 68.3173 35.3848 68.3954C35.9202 68.5369 36.9578 69.1448 37.8912 71.628C38.976 74.514 41.5988 77.8383 44.5127 78.6082C45.9643 78.9918 48.1406 78.9064 50.2645 76.3205C50.3725 76.189 50.3928 76.0089 50.3192 75.8585C50.3072 75.8269 50.2897 75.7713 50.2647 75.695C49.8452 74.4126 49.199 73.3323 48.5807 72.3432C49.1717 72.9149 49.9143 73.512 50.5597 74.2665C50.6637 74.388 50.8275 74.4439 50.9855 74.4118C51.1436 74.3798 51.2714 74.265 51.3183 74.1124C51.3501 74.0096 52.0802 71.5666 50.8066 69.3047Z" fill="#98C6CF"/>
<path d="M49.2666 73.2262C46.1666 69.6017 42.1348 67.8819 36.9427 67.9681L36.9396 67.7921C42.1884 67.7058 46.2662 69.4452 49.4028 73.1128L49.2666 73.2262Z" fill="white"/>
</g>
<defs>
<linearGradient id="paint0_linear_2605_12590" x1="134.917" y1="63.0068" x2="128.593" y2="75.5147" gradientUnits="userSpaceOnUse">
<stop stop-color="#1F8297"/>
<stop offset="0.448113" stop-color="#166C7D"/>
<stop offset="1" stop-color="#003940"/>
</linearGradient>
<linearGradient id="paint1_linear_2605_12590" x1="129.825" y1="63.1484" x2="124.383" y2="87.0668" gradientUnits="userSpaceOnUse">
<stop stop-color="#1F8297"/>
<stop offset="0.448113" stop-color="#166C7D"/>
<stop offset="1" stop-color="#003940"/>
</linearGradient>
<linearGradient id="paint2_linear_2605_12590" x1="149.605" y1="66.5752" x2="34.9556" y2="107.083" gradientUnits="userSpaceOnUse">
<stop stop-color="#1F8297"/>
<stop offset="0.448113" stop-color="#166C7D"/>
<stop offset="1" stop-color="#003940"/>
</linearGradient>
<linearGradient id="paint3_linear_2605_12590" x1="126.55" y1="79.2998" x2="39.3755" y2="110.712" gradientUnits="userSpaceOnUse">
<stop stop-color="#1F8297"/>
<stop offset="0.448113" stop-color="#166C7D"/>
<stop offset="1" stop-color="#003940"/>
</linearGradient>
<linearGradient id="paint4_linear_2605_12590" x1="110.373" y1="104.868" x2="108.946" y2="110.066" gradientUnits="userSpaceOnUse">
<stop stop-color="#F7A47A"/>
<stop offset="1" stop-color="#F26721"/>
</linearGradient>
<linearGradient id="paint5_linear_2605_12590" x1="110.151" y1="83.7451" x2="108.724" y2="88.943" gradientUnits="userSpaceOnUse">
<stop stop-color="#F7A47A"/>
<stop offset="1" stop-color="#F26721"/>
</linearGradient>
<linearGradient id="paint6_linear_2605_12590" x1="92.3777" y1="130.763" x2="61.8336" y2="146.81" gradientUnits="userSpaceOnUse">
<stop stop-color="#1F8297"/>
<stop offset="0.448113" stop-color="#166C7D"/>
<stop offset="1" stop-color="#003940"/>
</linearGradient>
<linearGradient id="paint7_linear_2605_12590" x1="87.5485" y1="130.763" x2="86.0202" y2="134.266" gradientUnits="userSpaceOnUse">
<stop stop-color="#F7A47A"/>
<stop offset="1" stop-color="#F26721"/>
</linearGradient>
<linearGradient id="paint8_linear_2605_12590" x1="116.214" y1="130.763" x2="85.6699" y2="146.81" gradientUnits="userSpaceOnUse">
<stop stop-color="#1F8297"/>
<stop offset="0.448113" stop-color="#166C7D"/>
<stop offset="1" stop-color="#003940"/>
</linearGradient>
<linearGradient id="paint9_linear_2605_12590" x1="111.489" y1="130.763" x2="109.961" y2="134.266" gradientUnits="userSpaceOnUse">
<stop stop-color="#F7A47A"/>
<stop offset="1" stop-color="#F26721"/>
</linearGradient>
<clipPath id="clip0_2605_12590">
<rect width="195" height="168" fill="white"/>
</clipPath>
</defs>
</svg>
