<svg width="191" height="150" viewBox="0 0 191 150" fill="none" xmlns="http://www.w3.org/2000/svg">
<g clip-path="url(#clip0_2811_12542)">
<path d="M187.509 103.714V103.759C187.509 105.175 187.485 106.569 187.433 107.946C187.405 108.775 187.364 109.6 187.314 110.418C187.306 110.541 187.299 110.662 187.29 110.784C187.217 111.926 187.121 113.058 187.005 114.185C186.986 114.358 186.968 114.529 186.95 114.701C186.864 115.478 186.768 116.254 186.661 117.028C186.565 117.729 186.457 118.429 186.342 119.129C186.332 119.195 186.321 119.26 186.31 119.326C186.281 119.499 186.251 119.67 186.221 119.841C186.071 120.705 185.907 121.568 185.725 122.434C185.603 123.027 185.472 123.62 185.337 124.21C185.252 124.579 185.165 124.949 185.074 125.317C185.02 125.545 184.963 125.773 184.906 126C184.8 126.425 184.691 126.847 184.578 127.268C184.392 127.977 184.196 128.68 183.99 129.382C183.77 130.142 183.54 130.896 183.3 131.646C183.265 131.757 183.23 131.868 183.193 131.977C182.954 132.716 182.706 133.45 182.447 134.179C182.227 134.809 181.999 135.435 181.764 136.057C181.611 136.465 181.454 136.873 181.293 137.278C181.228 137.446 181.162 137.614 181.093 137.78C181.028 137.95 180.959 138.117 180.89 138.287C180.606 138.984 180.314 139.678 180.013 140.366C179.95 140.516 179.884 140.665 179.817 140.815C179.365 141.841 178.893 142.855 178.403 143.861C177.729 145.248 177.021 146.616 176.28 147.963C176.216 148.08 176.152 148.196 176.087 148.312C176.084 148.317 176.082 148.324 176.078 148.329C176.058 148.367 176.038 148.403 176.016 148.441C175.971 148.525 175.922 148.608 175.875 148.69H14.4047C14.3342 148.564 14.2635 148.438 14.1948 148.312C14.1276 148.193 14.0622 148.073 13.995 147.954C13.8639 147.715 13.733 147.474 13.6053 147.232C10.997 142.392 8.80706 137.29 7.09067 131.977C7.08229 131.954 7.07392 131.932 7.06711 131.909C6.36666 129.745 5.74544 127.547 5.20623 125.317C5.11724 124.949 5.02981 124.579 4.94588 124.21C4.55447 122.512 4.21193 120.797 3.91807 119.066C3.05481 113.985 2.60303 108.764 2.60303 103.436C2.60303 101.577 2.65852 99.7314 2.76758 97.8991C2.78608 97.57 2.80789 97.2425 2.83145 96.9149C2.98431 94.6946 3.21779 92.4962 3.52509 90.3214C3.54184 90.1954 3.56034 90.0695 3.58215 89.9435C3.58721 89.8998 3.59384 89.8595 3.5989 89.8142C3.68964 89.1928 3.78702 88.5747 3.89119 87.955C4.5344 84.1275 5.41616 80.3773 6.51953 76.721C6.62702 76.36 6.73783 76.0005 6.85213 75.6394C7.49202 73.5973 8.20573 71.5853 8.98331 69.6035C9.22516 68.9854 9.4754 68.369 9.73575 67.756C10.2362 66.5553 10.762 65.3662 11.3127 64.1922C11.3984 64.0124 11.4841 63.8294 11.568 63.6514C11.8586 63.0485 12.1507 62.4489 12.4513 61.8526C15.1453 56.5052 18.3428 51.4568 21.9807 46.766C22.5466 46.032 23.1277 45.3082 23.7173 44.5945C25.6235 42.2803 27.6422 40.0617 29.7634 37.9455C30.3747 37.3342 30.9945 36.7346 31.6225 36.1401C32.5345 35.2802 33.4649 34.4354 34.4088 33.6159C35.0538 33.0549 35.7036 32.5025 36.362 31.9599C44.7056 25.0891 54.2752 19.6527 64.6912 16.0252C66.7402 15.3115 68.8227 14.6681 70.9338 14.0989C78.6509 12.0113 86.7643 10.8994 95.1398 10.8994C112.354 10.8994 128.474 15.6003 142.277 23.791C151.795 29.4323 160.212 36.7346 167.134 45.2949C168.763 47.3103 170.308 49.3912 171.765 51.5393C172.204 52.1858 172.635 52.8391 173.059 53.4975C175.334 57.0446 177.377 60.7545 179.16 64.6089C179.402 65.1345 179.642 65.6603 179.876 66.1909C179.991 66.453 180.107 66.72 180.217 66.9852C181.115 69.0796 181.92 71.2141 182.64 73.384C182.749 73.7166 182.858 74.049 182.964 74.3832C183.082 74.7544 183.198 75.1255 183.31 75.4985C183.384 75.7386 183.455 75.9787 183.525 76.219C184.068 78.0596 184.553 79.9238 184.988 81.81C185.065 82.1426 185.139 82.475 185.213 82.8093C185.431 83.7968 185.635 84.7912 185.828 85.7903C185.855 85.9298 185.88 86.0692 185.907 86.2085C186.043 86.9272 186.174 87.683 186.296 88.4354C186.317 88.5581 186.337 88.6806 186.357 88.8015C186.422 89.213 186.484 89.6227 186.543 90.0225C186.562 90.1569 186.614 90.5062 186.629 90.6388C186.726 91.3089 186.77 91.6667 186.849 92.3402C186.855 92.3889 186.886 92.6475 186.892 92.6962C187.104 94.4864 187.248 96.2836 187.358 98.104C187.465 99.9213 187.509 101.868 187.509 103.714Z" fill="#F2F2F2"/>
<path d="M27.0949 72.3441V68.2747V67.8294V64.4149H20.396V57.8828H19.2476V67.8294H11.5474V72.3441H9.42725V126.382H29.2151V72.3441H27.0949Z" fill="#E5E5E5"/>
<path d="M15.199 75.0039H13.4321V78.2357H15.199V75.0039Z" fill="white"/>
<path d="M18.8498 75.0039H17.083V78.2357H18.8498V75.0039Z" fill="white"/>
<path d="M25.6819 75.0039H23.915V78.2357H25.6819V75.0039Z" fill="white"/>
<path d="M15.199 80.1533H13.4321V83.3851H15.199V80.1533Z" fill="white"/>
<path d="M18.8498 80.1533H17.083V83.3851H18.8498V80.1533Z" fill="white"/>
<path d="M22.031 80.1533H20.2642V83.3851H22.031V80.1533Z" fill="white"/>
<path d="M25.6819 80.1533H23.915V83.3851H25.6819V80.1533Z" fill="white"/>
<path d="M18.8503 85.3047H17.0835V88.5364H18.8503V85.3047Z" fill="white"/>
<path d="M22.03 85.3047H20.2632V88.5364H22.03V85.3047Z" fill="white"/>
<path d="M25.6814 85.3047H23.9146V88.5364H25.6814V85.3047Z" fill="white"/>
<path d="M15.199 90.458H13.4321V93.6898H15.199V90.458Z" fill="white"/>
<path d="M18.8498 90.458H17.083V93.6898H18.8498V90.458Z" fill="white"/>
<path d="M22.031 90.458H20.2642V93.6898H22.031V90.458Z" fill="white"/>
<path d="M25.6819 90.458H23.915V93.6898H25.6819V90.458Z" fill="white"/>
<path d="M15.1985 95.6084H13.4316V98.8401H15.1985V95.6084Z" fill="white"/>
<path d="M18.8503 95.6084H17.0835V98.8401H18.8503V95.6084Z" fill="white"/>
<path d="M22.03 95.6084H20.2632V98.8401H22.03V95.6084Z" fill="white"/>
<path d="M185.074 125.317C185.02 125.545 184.963 125.773 184.906 126C184.429 127.908 183.893 129.789 183.3 131.646C183.277 131.72 183.253 131.792 183.23 131.865C183.218 131.903 183.205 131.94 183.193 131.977C181.386 137.556 179.063 142.904 176.28 147.962C176.216 148.08 176.153 148.196 176.087 148.312C176.065 148.355 176.042 148.397 176.017 148.441C175.971 148.525 175.923 148.607 175.875 148.69H14.405C14.3345 148.564 14.2638 148.438 14.1951 148.312C14.1279 148.192 14.0625 148.073 13.9953 147.954C13.8642 147.715 13.7334 147.473 13.6056 147.232C10.9974 142.392 8.80737 137.289 7.09098 131.977C7.0826 131.954 7.07423 131.932 7.06742 131.908C7.06236 131.893 7.0573 131.88 7.05399 131.865C6.35877 129.715 5.74226 127.532 5.20654 125.316L185.074 125.317Z" fill="#BFBFBF"/>
<path d="M185.074 125.317C185.02 125.545 184.963 125.773 184.906 126C184.558 127.392 184.179 128.771 183.767 130.137C183.616 130.642 183.46 131.144 183.3 131.646C183.277 131.72 183.253 131.791 183.23 131.863V131.865H7.05381V131.863C6.86744 131.29 6.68771 130.714 6.51478 130.136C6.03612 128.548 5.59952 126.94 5.20654 125.316L185.074 125.317Z" fill="white"/>
<path d="M183.767 130.136C183.616 130.641 183.46 131.144 183.3 131.646C183.276 131.72 183.253 131.79 183.229 131.862H7.05368C6.86732 131.29 6.68758 130.714 6.51465 130.136L183.767 130.136Z" fill="#A0A0A0"/>
<path d="M62.1618 28.3164C62.1618 28.3164 60.7499 29.4575 61.5653 31.5175C62.3778 33.5775 64.7451 33.2337 64.7451 33.2337C64.7451 33.2337 64.6021 34.2835 65.1801 35.7653C65.7582 37.2472 67.3132 38.8751 67.3861 39.3803C67.4561 39.8853 66.7351 39.9584 65.3232 41.0082C63.9143 42.0551 64.0603 42.9586 64.0603 42.9586C60.3724 41.3672 57.9868 41.7294 56.3955 43.8259C54.8041 45.9224 55.7078 49.8994 55.7078 49.8994C55.7078 49.8994 54.0799 51.4909 55.1297 53.7334C56.1764 55.9729 60.2995 56.9496 60.2995 56.9496C64.7086 58.1423 79.8221 59.2286 84.6663 57.6007C89.5104 55.9727 90.7946 52.9635 89.9273 51.1195C89.0571 49.2756 86.9971 48.4936 86.9971 48.4936C86.9971 48.4936 89.0297 47.7056 89.3825 45.3716C89.7355 43.0408 87.6665 41.8389 87.6665 41.8389C88.5336 41.0082 88.5154 39.0547 88.5154 39.0547C88.5154 39.0547 91.049 38.5443 91.2622 35.896C91.5182 32.714 87.7579 32.3301 87.7579 32.3301C87.7579 32.3301 89.7083 31.5724 91.4975 29.7803C93.2866 27.9912 92.5473 25.0274 92.5473 25.0274C92.5473 25.0274 95.0058 25.3166 97.2453 22.8579C99.4879 20.3993 98.9097 16.5683 98.9097 16.5683C110.625 17.7977 110.984 6.30191 103.9 3.11918C96.8133 -0.0605725 90.5237 4.20545 90.5237 4.20545C90.5237 4.20545 90.1616 2.03588 86.9058 2.17897C83.6531 2.32503 82.7127 4.89002 82.7127 4.89002C82.7127 4.89002 81.955 0.228401 76.4232 0.00940245C70.8913 -0.20663 68.9409 3.37169 68.9409 3.37169C68.9409 3.37169 67.5291 0.55402 63.8411 1.96294C60.1532 3.37169 60.9505 6.37188 60.9505 6.37188C60.9505 6.37188 56.5385 6.73397 54.0129 10.4219C51.4905 14.1098 54.7767 17.5085 54.7767 17.5085C54.7767 17.5085 52.9966 20.6883 54.8772 24.3762C56.7576 28.0639 62.1618 28.3164 62.1618 28.3164Z" fill="#8AA4A7"/>
<path d="M72.8818 28.0273C72.8818 28.0273 75.0392 29.3479 77.1023 28.2616C79.1623 27.1783 78.5111 25.3618 78.5111 25.3618C78.5111 25.3618 80.5436 27.2879 82.9048 26.013C85.2053 24.7685 84.5388 22.675 84.5053 22.5717C84.554 22.6052 85.7803 23.4723 87.1618 22.5687C88.5705 21.6466 88.7318 20.5635 88.7318 20.5635C88.7318 20.5635 90.9378 23.7159 94.5709 22.5687C98.204 21.4215 98.9099 17.3989 98.9099 16.5683C110.625 17.7977 110.984 6.30189 103.9 3.11917C96.8134 -0.0605879 90.5239 4.20544 90.5239 4.20544C90.5239 4.20544 90.1618 2.03587 86.906 2.17896C83.6533 2.32502 82.7129 4.89001 82.7129 4.89001C82.7129 4.89001 80.0383 8.10937 79.6031 10.5679C79.171 13.0265 81.1397 15.5185 81.5202 18.1231C81.9006 20.7247 80.8173 22.027 79.4692 22.4623C78.1212 22.8943 75.9183 23.0404 75.9183 23.0404C75.9183 23.0404 76.8221 24.6287 75.9183 26.0041C75.0149 27.376 74.1112 27.6652 72.8818 28.0273Z" fill="#B0C2C4"/>
<path d="M86.9532 41.2994C86.6708 43.1013 85.7664 44.7787 84.9967 45.9319C84.3479 46.9068 83.7999 47.5085 83.7999 47.5085C83.205 48.2817 76.3269 48.675 69.3246 48.2883C66.4905 48.1304 63.6365 47.8446 61.1691 47.4041C58.7049 46.9637 56.624 46.3686 55.3399 45.5923C53.9918 44.7788 53.0035 43.9652 52.2875 43.1786C52.2875 43.1786 52.2875 43.1786 52.2875 43.1753C49.9544 40.607 50.5058 38.2974 50.758 36.9662C51.0875 35.2281 50.6673 35.5274 50.2167 33.4297C49.7831 31.3926 51.5244 30.0074 51.6219 29.9301C51.5715 30.0277 50.7177 31.732 51.4471 32.9827C52.1968 34.2701 53.2825 35.7359 53.2825 35.7359C53.2825 35.7359 53.1851 33.6718 53.5146 32.4112C53.844 31.1539 53.9617 30.5857 53.9918 28.1889C54.022 25.866 53.3263 24.8844 53.286 24.8272C53.3195 24.834 53.8945 25.0355 54.8021 26.6593C55.2592 27.4794 55.6191 28.1048 55.8946 28.5081C55.8946 28.5081 55.8946 28.5114 55.8979 28.5149C56.1838 28.9318 56.3787 29.1066 56.4998 29.0157C56.6006 28.9384 56.5938 28.7165 56.5266 28.3502C56.4324 27.8626 56.2342 27.1231 56.0393 26.1415C55.6997 24.4237 56.0393 22.5479 56.0393 22.5479C56.0393 22.5479 57.3571 22.4067 58.8161 24.3429C60.2751 26.2827 59.7741 27.9602 59.7741 27.9602C60.5944 27.7384 60.9138 27.0995 61.0717 26.1012C61.2331 25.1027 60.1135 23.506 60.7927 22.3866C61.4717 21.2705 62.2114 21.0688 62.971 19.3712C63.7274 17.6735 62.8298 15.6161 62.8298 15.6161C66.763 18.2148 66.1242 20.1914 65.2266 22.2287C64.3291 24.2658 65.556 25.3416 65.8855 24.834C66.2149 24.323 66.0333 23.3952 66.8133 22.1379C67.5931 20.8807 69.4792 21.1798 69.4792 21.1798C69.4792 21.1798 69.5699 21.6572 69.264 22.1681C68.9614 22.6758 69.0019 23.8758 69.3246 23.7549C69.6507 23.6339 70.1683 22.7969 70.4977 21.8992C70.8272 20.9983 70.4977 19.4721 70.4977 19.4721C70.4977 19.4721 70.8272 19.5023 71.607 20.3999C72.3869 21.2976 71.7852 22.8572 71.755 23.3045C71.7281 23.7549 72.1752 24.1751 73.2206 23.1565C74.2627 22.1379 73.9736 20.2519 73.4056 18.3628C72.8341 16.4768 73.614 14.8599 75.2916 13.7404C76.9691 12.621 76.9691 9.98535 76.9691 9.98535C76.9691 9.98535 77.4867 10.8627 77.369 16.0969C77.2479 21.3277 76.3707 22.6456 77.6884 24.0843C79.0062 25.5231 79.3962 27.4091 78.8246 28.31C78.2564 29.2077 77.4463 31.2752 78.8246 31.0935C80.2029 30.9153 81.1039 28.2193 81.1039 28.2193C81.1039 28.2193 82.3006 28.5186 82.5393 31.3355C82.6199 32.2634 82.5763 33.198 82.4788 34.0384C82.2839 35.7529 81.8804 37.0672 81.8804 37.0672C82.314 36.6739 82.5629 36.5294 82.7646 36.2469V36.2436C82.9763 35.9478 83.1377 35.5007 83.4 34.4685C83.9177 32.4314 85.1581 32.4314 85.1581 32.4314C85.1581 32.4314 83.9175 33.4702 84.7984 35.6688C85.6756 37.8638 87.4742 37.9847 86.9532 41.2994Z" fill="#F64C4C"/>
<path d="M61.169 47.4045C58.7048 46.9641 56.6239 46.369 55.3398 45.5927C53.9917 44.7792 53.0034 43.9656 52.2874 43.179C52.2874 43.179 52.2874 43.179 52.2874 43.1757C52.2706 43.0816 51.9681 41.2057 52.0857 39.1012C52.2066 36.9463 52.4656 36.3682 52.4656 36.3682C52.4656 36.3682 53.3026 36.9263 53.8035 38.3247C53.8035 38.3247 53.9043 35.2085 54.1631 34.1091C54.4219 33.0133 54.4624 33.4502 55.2993 31.5745C56.0994 29.7827 55.9144 28.6195 55.8976 28.5153C56.1835 28.9322 56.3784 29.107 56.4995 29.0161C56.6004 28.9388 56.5936 28.7169 56.5264 28.3506C57.0172 28.3977 57.4978 28.8985 57.8777 29.8768C58.2576 30.855 58.2173 30.8852 58.8458 32.324C59.4747 33.7592 61.9019 39.9683 61.169 47.4045Z" fill="#FFDD82"/>
<path d="M62.3799 37.2049C62.3799 37.2049 61.179 33.0511 61.3052 30.4548C61.4314 27.8586 62.5897 25.8018 62.5897 25.8018C62.5897 25.8018 62.3901 27.3995 62.8094 28.1183C63.2287 28.8372 65.8649 30.2351 65.9448 35.1878C65.9448 35.1878 63.7679 36.5559 62.3799 37.2049Z" fill="#FFDD82"/>
<path d="M84.9966 45.9318C84.3478 46.9068 83.7998 47.5084 83.7998 47.5084C83.205 48.2816 76.3268 48.675 69.3245 48.2883C69.3245 48.2883 67.741 44.8122 70.7363 36.9056C70.7363 36.9056 72.2053 33.9405 73.4055 31.9335C74.6022 29.9266 74.3637 27.4087 73.5837 26.3027C73.5837 26.3027 75.5301 27.5701 75.5602 29.7216C75.5906 31.873 75.1099 32.6226 75.5602 32.8008C76.0108 32.9823 76.7301 32.3234 76.8479 31.2141C76.969 30.1048 76.9084 28.7264 78.1354 28.2188C78.1354 28.2188 77.5672 30.3266 77.779 31.503C77.9876 32.683 78.9152 33.0125 79.2447 34.5085C79.5741 36.0078 79.5439 36.9054 79.5439 36.9054C79.5439 36.9054 81.9039 35.5371 82.4787 34.0378C82.2838 35.7523 81.8803 37.0666 81.8803 37.0666C82.314 36.6733 82.5628 36.5288 82.7645 36.2463C82.8687 37.7188 83.2283 39.6013 83.41 39.7526C83.5882 39.9005 84.1596 39.1509 84.7278 39.5407C85.2958 39.9313 85.5042 43.1853 84.9966 45.9318Z" fill="#FFDD82"/>
<path d="M104.696 62.3525H31.2725V125.57H104.696V62.3525Z" fill="#4D7479"/>
<path d="M31.2729 62.3506V66.7351H87.4389C90.8563 66.7351 93.6267 69.5252 93.6267 72.9669V125.568H104.697V62.3506H31.2729Z" fill="#364E56"/>
<path d="M128.652 62.3525H27.7495V64.9512H128.652V62.3525Z" fill="white"/>
<path d="M49.6812 44.2432H147.139V62.3499H27.749L49.6812 44.2432Z" fill="#26575D"/>
<path d="M177.049 33.6533H146.223V125.568H177.049V33.6533Z" fill="#4D7479"/>
<path d="M146.223 33.6543V34.9316H169.95C172.336 34.9316 174.271 36.866 174.271 39.2523V125.569H177.049V33.6543H146.223Z" fill="#364E56"/>
<path d="M177.049 40.3651V39.1136H171.978V33.6533H170.858V39.1136H162.196V33.6533H161.076V39.1136H152.414V33.6533H151.295V39.1136H146.223V40.3651H155.617V47.9301H146.223V49.1816H151.295V56.7466H146.223V57.9981H155.617V65.5631H146.223V66.8146H161.076V74.3796H146.223V75.6311H155.617V83.1961H146.223V84.4476H161.076V92.0125H146.223V93.2641H155.617V100.829H146.223V102.081H161.076V109.646H146.223V110.897H155.617V118.462H146.223V119.714H161.076V125.568H162.196V119.714H170.858V125.568H171.977V119.714H177.049V118.462H167.655V110.897H177.049V109.646H171.977V102.081H177.049V100.829H167.655V93.2641H177.049V92.0125H171.977V84.4476H177.049V83.1961H167.655V75.6311H177.049V74.3796H171.977V66.8146H177.049V65.5631H167.655V57.9981H177.049V56.7466H171.977V49.1816H177.049V47.9301H167.655V40.3651H177.049ZM152.414 49.1816H161.076V56.7466H152.414V49.1816ZM166.535 118.462H156.737V110.897H166.535V118.462ZM170.858 109.646H162.196V102.081H170.858V109.646ZM166.535 100.829H156.737V93.2641H166.535V100.829ZM170.858 92.0125H162.196V84.4476H170.858V92.0125ZM166.535 83.1961H156.737V75.6311H166.535V83.1961ZM170.858 74.3796H162.196V66.8146H170.858V74.3796ZM166.535 65.5631H156.737V57.9981H166.535V65.5631ZM170.858 56.7466H162.196V49.1816H170.858V56.7466ZM166.535 47.9301H156.737V40.3651H166.535V47.9301Z" fill="white"/>
<path d="M180.013 30.4922H143.258V33.654H180.013V30.4922Z" fill="#26575D"/>
<path d="M151.262 41.5054V125.569L95.9316 125.525V41.5054L123.598 26.1387L148.022 39.7049L151.262 41.5054Z" fill="#4D7479"/>
<path d="M151.261 41.5036V125.567L148.021 125.564V39.7031L151.261 41.5036Z" fill="#364E56"/>
<path d="M123.597 26.1387L95.9316 41.5054V46.2141L123.597 30.8476L151.262 46.2141V41.5054L123.597 26.1387Z" fill="#364E56"/>
<path d="M123.594 24.0342L89.3838 43.3008L91.242 46.6003L125.452 27.3337L123.594 24.0342Z" fill="#26575D"/>
<path d="M123.591 24.0296L121.733 27.3291L155.943 46.5957L157.801 43.2962L123.591 24.0296Z" fill="#26575D"/>
<path d="M136.182 86.8906H112.766V121.152H136.182V86.8906Z" fill="#26575D"/>
<path d="M133.472 89.3359H115.478V93.1055H133.472V89.3359Z" fill="url(#paint0_linear_2811_12542)"/>
<path d="M133.471 94.2236H115.478V97.9932H133.471V94.2236Z" fill="url(#paint1_linear_2811_12542)"/>
<path d="M133.472 99.1133H115.478V102.883H133.472V99.1133Z" fill="url(#paint2_linear_2811_12542)"/>
<path d="M124.953 86.8906H123.998V121.152H124.953V86.8906Z" fill="#26575D"/>
<path d="M137.399 121.154H111.551V123.361H137.399V121.154Z" fill="white"/>
<path d="M137.399 122.886H111.551V123.361H137.399V122.886Z" fill="#26575D"/>
<path d="M139.103 123.359H109.847V125.566H139.103V123.359Z" fill="white"/>
<path d="M139.103 125.094H109.847V125.569H139.103V125.094Z" fill="#26575D"/>
<path d="M120.354 62.7285H108.607V78.6299H120.354V62.7285Z" fill="white"/>
<path d="M113.922 63.752H109.44V67.5175H113.922V63.752Z" fill="url(#paint3_linear_2811_12542)"/>
<path d="M119.54 63.752H114.985V67.5175H119.54V63.752Z" fill="url(#paint4_linear_2811_12542)"/>
<path d="M113.921 68.4297H109.439V72.9986H113.921V68.4297Z" fill="url(#paint5_linear_2811_12542)"/>
<path d="M119.541 68.4297H114.986V72.9986H119.541V68.4297Z" fill="url(#paint6_linear_2811_12542)"/>
<path d="M113.921 73.9131H109.439V77.6786H113.921V73.9131Z" fill="url(#paint7_linear_2811_12542)"/>
<path d="M119.539 73.9131H114.984V77.6786H119.539V73.9131Z" fill="url(#paint8_linear_2811_12542)"/>
<path d="M139.338 62.7285H127.592V78.6299H139.338V62.7285Z" fill="white"/>
<path d="M132.904 63.752H128.422V67.5175H132.904V63.752Z" fill="url(#paint9_linear_2811_12542)"/>
<path d="M138.523 63.752H133.968V67.5175H138.523V63.752Z" fill="url(#paint10_linear_2811_12542)"/>
<path d="M132.905 68.4297H128.423V72.9986H132.905V68.4297Z" fill="url(#paint11_linear_2811_12542)"/>
<path d="M138.522 68.4297H133.967V72.9986H138.522V68.4297Z" fill="url(#paint12_linear_2811_12542)"/>
<path d="M132.904 73.9131H128.422V77.6786H132.904V73.9131Z" fill="url(#paint13_linear_2811_12542)"/>
<path d="M138.522 73.9131H133.967V77.6786H138.522V73.9131Z" fill="url(#paint14_linear_2811_12542)"/>
<path d="M57.5772 77.2422H40.3691V110.229H57.5772V77.2422Z" fill="white"/>
<path d="M56.9149 77.9229H41.0308V109.548H56.9149V77.9229Z" fill="url(#paint15_linear_2811_12542)"/>
<path d="M56.9149 92.3631V109.481H41.0308V78.7393C41.0308 78.7393 41.5806 83.526 41.9394 86.0896C42.3058 88.6462 46.2084 89.3062 48.2931 90.383C50.3779 91.4529 51.4699 90.7097 52.6459 92.3631C53.8297 94.0095 56.9149 92.3631 56.9149 92.3631Z" fill="#FFDD82"/>
<path d="M53.4628 109.482H41.0303V97.0674C41.0303 97.0674 41.8321 99.1724 44.4667 101.68C47.8878 104.918 47.5214 103.049 48.9722 105.279C50.4235 107.509 52.4241 107.363 53.4628 109.482Z" fill="#FFFCC5"/>
<path d="M49.2751 77.5537H48.6724V109.92H49.2751V77.5537Z" fill="white"/>
<path d="M57.4251 87.3389H48.8984V87.9487H57.4251V87.3389Z" fill="white"/>
<path d="M57.4251 98.749H48.8984V99.3589H57.4251V98.749Z" fill="white"/>
<path d="M87.4434 77.2422H70.2354V110.229H87.4434V77.2422Z" fill="white"/>
<path d="M86.7816 77.9229H70.8975V109.548H86.7816V77.9229Z" fill="url(#paint16_linear_2811_12542)"/>
<path d="M79.1418 77.5537H78.5391V109.92H79.1418V77.5537Z" fill="white"/>
<path d="M87.2927 87.3389H78.7661V87.9487H87.2927V87.3389Z" fill="white"/>
<path d="M87.2927 98.749H78.7661V99.3589H87.2927V98.749Z" fill="white"/>
<path d="M78.9402 34.2319L68.1567 26.666L57.3732 34.2319H57.0171V50.9295H79.3729V34.2319H78.9402Z" fill="#4D7479"/>
<path d="M78.9402 34.2319L68.1567 26.666L57.3732 34.2319H57.0171V36.8946H57.3732L68.1567 29.3287L78.9402 36.8946H79.3729V34.2319H78.9402Z" fill="#364E56"/>
<path d="M55.3238 36.4861L54.3384 35.6989L67.9186 26.0928L68.904 26.8798L55.3238 36.4861Z" fill="#26575D"/>
<path d="M80.5148 36.4861L81.5 35.6989L67.9198 26.0928L66.9346 26.8798L80.5148 36.4861Z" fill="#26575D"/>
<path d="M73.9666 39.63C73.823 37.0108 71.2937 34.9248 68.1946 34.9248C65.0955 34.9248 62.5663 37.0108 62.4226 39.63H62.416V48.4523H73.9732V39.63H73.9666Z" fill="white"/>
<path d="M68.4893 41.6631H73.1945V39.8228H73.1887C73.069 37.6402 71.0347 35.8859 68.4893 35.7598V41.6631Z" fill="url(#paint17_linear_2811_12542)"/>
<path d="M67.9015 41.6631V35.7598C65.3561 35.8859 63.3218 37.6402 63.202 39.8228H63.1963V41.6631H67.9015Z" fill="url(#paint18_linear_2811_12542)"/>
<path d="M73.1945 42.251H68.4893V47.4551H73.1945V42.251Z" fill="url(#paint19_linear_2811_12542)"/>
<path d="M67.9006 42.251H63.1953V47.4551H67.9006V42.251Z" fill="url(#paint20_linear_2811_12542)"/>
<path d="M68.6025 108.037C69.5466 108.821 71.1152 109.416 72.2342 109.547L74.3776 109.547H86.7821C86.8916 109.459 86.9921 109.366 87.079 109.27C87.2237 109.113 87.3349 108.944 87.4064 108.764C87.4064 108.764 85.89 109.014 85.6296 108.522C85.3693 108.029 89.3111 103.72 88.2622 99.926C88.2622 99.926 86.7472 102.076 85.6951 102.055C85.6951 102.055 87.8572 100.412 86.365 97.6315C84.8744 94.8513 84.2928 90.8027 84.2928 90.8027C84.2928 90.8027 78.6152 94.5604 80.7925 98.0836C80.7925 98.0836 79.6109 97.5842 79.5867 95.6978C79.5867 95.6978 76.4654 96.8398 77.5297 98.5542C78.5939 100.269 79.5607 100.855 79.5607 100.855C79.5607 100.855 76.7074 101.143 75.3051 97.4352C73.9028 93.7277 70.407 93.8572 68.2207 94.0854C68.2207 94.0854 70.2121 95.9749 70.1041 97.7548C69.9977 99.5332 70.4559 102.458 72.5401 103.369C72.5401 103.369 70.1467 103.302 69.6701 101.729C69.6701 101.729 68.4856 102.828 69.9092 104.128C71.3344 105.43 72.9239 105.456 72.9848 106.438C72.9848 106.438 70.6674 106.84 69.897 105.028C69.8966 105.028 67.0388 106.736 68.6025 108.037Z" fill="#F64C4C"/>
<path d="M73.2707 109.27C73.6162 109.319 74.6379 109.392 75.378 109.547H85.1025C85.1483 109.515 85.1908 109.485 85.2366 109.459C85.1148 109.402 85.0097 109.34 84.9169 109.27C83.0806 107.918 86.7151 104.421 87.0971 102.554C86.5992 102.962 85.8592 103.12 85.2456 103.116C84.6047 103.12 84.2255 102.382 84.6989 102.049C84.7614 102 86.3097 100.753 85.1725 98.632C84.2423 96.8978 83.688 94.6916 83.4109 93.3457C82.1092 94.4602 80.7236 96.6024 81.5977 98.6716C82.2144 100.132 79.6625 98.8376 79.1875 96.9832C78.6835 97.3227 78.0942 98.4525 78.5511 98.9838C79.4555 100.039 79.8954 100.324 80.0066 100.395C80.7603 100.875 80.3689 101.498 79.6656 101.625C74.0549 102.335 76.3311 95.2535 70.3581 95.6631C72.4076 97.7307 70.5621 101.816 73.3286 103.197C73.9559 103.448 73.8584 104.265 73.2023 104.326C72.543 104.343 71.637 104.168 70.8179 103.687C71.6736 105.04 73.9483 104.941 74.1706 106.583C74.0519 107.793 71.1117 107.119 70.4312 106.214C68.5204 107.658 71.4665 109.016 73.2707 109.27Z" fill="#FFDD82"/>
<path d="M72.1962 107.994C72.4321 108.476 74.0248 108.995 74.9885 109.27C75.4225 109.395 75.7284 109.47 75.7284 109.47C75.7284 109.47 75.7954 109.499 75.9143 109.548H83.7097C83.6033 109.52 83.1997 109.414 82.7978 109.27C82.137 109.037 81.4747 108.707 82.1234 108.476C83.9596 107.821 82.9913 106.036 85.074 104.019C85.074 104.019 81.3362 104.202 82.9486 102.726C86.0561 99.8791 82.8938 96.627 82.8938 96.627C82.8938 96.627 83.4129 100.238 82.0412 100.738C81.5904 100.902 80.7867 100.261 80.7425 100.225C80.7699 100.264 81.1978 100.886 81.0303 101.866C80.8125 103.139 76.3804 103.192 75.6982 101.385C74.9339 99.3661 74.0553 98.9871 72.1035 97.4279C72.1445 97.5132 73.6229 100.508 73.3048 101.304C72.7643 102.655 76.5494 104.506 75.9282 105.103C75.3238 105.682 74.1773 105.024 74.1103 104.986C74.1773 105.054 75.4897 106.407 74.8762 107.388C74.2457 108.397 72.1962 107.994 72.1962 107.994Z" fill="#FFFCC5"/>
<path d="M79.1302 94.688C79.1302 94.688 80.206 94.2799 79.8352 92.0901C79.4589 89.8669 79.5661 89.5357 81.4837 88.7168C81.4837 88.7168 78.7356 88.9087 78.5786 90.2805C78.4217 91.6523 79.5898 93.544 79.1302 94.688Z" fill="#F64C4C"/>
<path d="M64.4771 97.179C64.4917 97.3495 64.5079 97.5216 64.5256 97.6921C65.2724 97.8333 65.809 98.339 66.8337 99.462C66.9087 99.5444 66.9822 99.6222 67.0557 99.6959C68.5846 101.244 69.6226 101.026 69.6226 101.026C68.6155 100.563 67.9084 99.3209 67.0557 98.3374C66.7778 98.0168 66.4852 97.7228 66.1603 97.4921C65.6665 97.1408 65.052 97.0967 64.4771 97.179Z" fill="#F64C4C"/>
<path d="M89.279 95.9707C89.1468 97.121 87.1383 97.3123 87.6447 98.7467C87.6447 98.7467 87.7057 97.9577 88.9604 97.6602C89.7387 97.4756 89.279 95.9707 89.279 95.9707Z" fill="#F64C4C"/>
<path d="M76.8496 95.8128C77.1344 95.7207 77.3997 95.4389 76.9449 94.7685C76.4902 94.098 75.9106 93.7441 75.9106 93.7441C75.9106 93.7441 76.6369 94.8316 76.4479 95.3385C76.2591 95.8455 76.6987 95.8617 76.8496 95.8128Z" fill="#F64C4C"/>
<path d="M65.3745 103.965C65.3907 104.062 65.4084 104.16 65.4274 104.258C65.817 104.19 66.2669 104.155 66.555 104.274C66.8211 104.383 66.974 104.372 67.0563 104.315C67.1623 104.243 67.1548 104.095 67.1241 104.02C67.1078 103.98 67.0858 103.94 67.0563 103.902C66.9035 103.693 66.5623 103.533 65.8832 103.757C65.6921 103.819 65.5228 103.891 65.3745 103.965Z" fill="#F64C4C"/>
<path d="M119.398 46.0553C107.636 43.1531 99.7188 41.8623 90.6294 40.1669C90.7303 39.9458 91.0082 39.3942 91.0726 39.2736L91.0725 39.2728C92.4222 36.6502 94.2021 34.2246 96.2871 32.144C96.8961 31.5364 96.5167 28.297 97.207 28.8158C110.476 38.8393 113.159 40.3175 120.072 45.4466C120.053 45.4358 119.724 45.7269 119.398 46.0553Z" fill="white"/>
<path d="M119.278 45.9846C119.081 45.9349 118.883 45.8845 118.685 45.8358C117.916 45.6431 100.686 42.0011 100.686 42.0011L97.9618 41.4944C97.9618 41.4944 93.7684 40.7318 91.6953 40.3587C91.4889 40.3219 91.4168 40.3085 91.2104 40.2716C91.1762 40.2655 91.0078 40.2355 90.9734 40.2285C90.8586 40.2085 90.7438 40.1877 90.6288 40.1669C90.6286 40.1661 88.6108 39.9266 88.6108 39.9266C88.6576 39.8265 91.4892 37.1861 91.5231 37.1318C93.3501 37.704 95.8669 38.4258 97.7465 38.9402C98.1649 39.0547 98.5841 39.1684 99.0041 39.2826C99.1547 39.3229 99.3053 39.363 99.4561 39.404C105.078 40.9189 110.782 42.3789 116.009 44.519C116.94 44.899 117.856 45.302 118.754 45.7307C118.929 45.8143 119.104 45.8986 119.278 45.9846Z" fill="white"/>
<path d="M103.628 40.1058C101.094 40.0359 93.8246 38.2882 92.498 37.7701C92.5223 37.7337 92.7006 36.5113 92.7249 36.4748C92.8376 36.3057 92.9523 36.1387 93.0694 35.9712C93.2186 35.7578 95.7035 33.6751 96.5723 34.0896C99.0626 35.2805 101.119 38.9524 103.628 40.1058Z" fill="white"/>
<path d="M103.692 38.9324C103.502 38.8499 100.176 37.2007 99.9881 37.1155C99.8506 37.0536 99.7131 36.9918 99.5768 36.9279C98.3816 36.3779 97.209 35.7825 96.0552 35.1517C96.1257 35.0716 96.1963 34.9929 96.2672 34.915C96.3839 34.7871 97.3049 31.6946 97.4245 31.5693C98.7238 32.5293 102.366 38.0096 103.692 38.9324Z" fill="white"/>
<path d="M105.469 37.1846C102.21 35.8366 99.2275 34.0368 96.2871 32.1424C96.8961 31.5348 96.9295 28.7422 97.179 26.7578C98.1462 27.561 102.794 35.1595 105.469 37.1846Z" fill="white"/>
<path d="M99.2917 36.9882C99.724 35.3728 99.4465 31.7699 99.0621 30.5414C98.1074 27.4895 97.2068 26.0002 95.1342 26.1175C94.6203 26.1466 94.3654 26.4977 94.3935 26.8933C94.4886 28.2279 95.9266 28.7833 96.3372 30.0073C96.3496 30.0442 96.3249 30.0268 96.2174 29.9874C95.1234 29.5857 94.234 28.2605 93.5878 27.3889C92.2108 25.5313 90.488 23.7968 88.3463 23.4523C87.7851 23.3621 87.7645 23.7291 87.7717 23.8388C87.9745 26.9594 90.3726 27.0894 91.6229 29.5316C91.639 29.563 91.6632 29.6043 91.6057 29.5841C90.5967 29.2283 90.3561 28.6688 89.5752 27.7797C88.2987 26.3265 85.6922 24.6548 84.0969 23.7718C83.1017 23.2209 81.9577 23.1087 81.3916 23.2719C80.4933 23.5308 80.1005 24.0219 80.403 24.7443C81.2509 26.7683 86.5819 27.3939 88.4006 29.0798C88.6732 29.3325 89.5902 30.32 88.9255 30.3268C87.7497 30.3386 86.231 29.6755 84.9005 28.6416C84.6628 28.4568 82.9328 26.6062 80.8388 27.3266C80.3565 27.4925 80.3741 28.057 80.5576 28.39C81.4528 30.0148 83.6533 29.8657 85.488 30.5531C86.791 31.0413 89.0836 31.7414 89.8355 33.0664C89.9816 33.3238 89.7341 33.2174 89.6879 33.2333C88.5632 33.6227 87.0477 33.4166 85.9925 33.4308C84.8483 33.4461 84.1803 34.0538 83.7529 34.8031C83.5074 35.2334 84.0808 35.4892 84.1124 35.5065C85.2543 36.1322 86.6655 35.3608 87.6181 35.2142C88.4845 35.0809 90.4742 35.2678 90.3892 36.2272C90.3042 37.1867 88.1045 37.3714 87.1421 37.6279C86.3865 37.8293 84.2695 37.9418 84.0386 39.0207C83.9732 39.3268 84.0508 39.4605 84.2223 39.5509C86.6512 40.8343 90.0374 39.9339 93.1332 40.0911C93.9778 40.1341 97.2612 38.8644 98.3035 38.2732C98.7787 37.8458 99.0089 37.5487 99.2917 36.9882Z" fill="white"/>
<path d="M87.6743 32.286C87.4632 32.1584 84.7409 30.5417 83.8552 31.3374C83.8089 31.3789 83.4868 31.6682 83.5009 32.0598C83.5137 32.4156 83.8002 32.7615 84.1326 32.8891C84.6851 33.1011 85.0997 32.6083 86.0781 32.3657C86.7159 32.2078 87.2803 32.2336 87.6743 32.286Z" fill="white"/>
<path d="M85.633 37.2695C85.465 37.2103 83.3036 36.4681 82.7946 37.1609C82.7681 37.197 82.5829 37.4488 82.6505 37.7235C82.7119 37.973 82.9653 38.1753 83.2188 38.2166C83.6404 38.2852 83.861 37.876 84.5168 37.5605C84.9443 37.355 85.3469 37.2902 85.633 37.2695Z" fill="white"/>
<path d="M93.5924 26.3812C93.4952 26.2319 92.2631 24.3073 92.8159 23.6489C92.8447 23.6145 93.0457 23.3753 93.3286 23.376C93.5854 23.3765 93.8421 23.5749 93.9421 23.8117C94.1084 24.2052 93.7629 24.5162 93.6116 25.228C93.5127 25.6916 93.545 26.0982 93.5924 26.3812Z" fill="white"/>
<path d="M86.391 23.9602C86.2219 23.7559 84.0726 21.1197 84.7779 20.0523C84.8147 19.9964 85.071 19.6085 85.4895 19.5614C85.8696 19.5187 86.2826 19.7684 86.4709 20.1013C86.7838 20.6547 86.3257 21.1735 86.2229 22.2515C86.1559 22.9542 86.2728 23.5498 86.391 23.9602Z" fill="white"/>
<path d="M137.717 42.6247C137.717 42.6247 137.62 42.9049 136.345 42.6903C135.07 42.4758 132.021 41.1078 132.032 40.9455C132.044 40.7832 132.867 40.6034 135.151 41.1135C137.435 41.6236 137.854 42.3966 137.717 42.6247Z" fill="#003940"/>
<path d="M135.714 40.9801C135.714 40.9801 135.152 43.3013 134.882 43.6144C134.612 43.9274 133.706 44.0354 133.382 44.0463C133.058 44.0571 132.939 43.366 132.982 42.9558C133.025 42.5455 133.015 40.5913 133.997 40.5049C134.98 40.4187 135.465 40.5158 135.714 40.9801Z" fill="#F7A47A"/>
<path d="M135.854 42.2607C135.854 42.2607 136.016 44.3694 136.059 44.9849C136.059 44.9849 135.279 46.8054 134.61 46.9135C134.61 46.9135 133.766 47.4134 133.723 46.7545C133.72 46.7166 134.346 44.5687 134.344 44.5305C134.297 43.8206 134.341 42.4272 134.344 42.2607C134.344 42.2607 135.233 42.2607 135.854 42.2607Z" fill="#F7A47A"/>
<path d="M135.919 43.0636C135.919 43.0636 136.329 42.5345 136.308 41.7248C136.286 40.9151 135.886 40.5991 135.325 40.4331C135.325 40.4331 134.936 40.3427 134.667 40.9798C134.667 40.9798 134.89 42.0164 135.005 42.2539C135.005 42.2539 135.689 42.772 135.919 43.0636Z" fill="#003940"/>
<path d="M135.249 42.2609C135.249 42.2609 135.125 42.3722 134.963 42.3722C134.801 42.3722 134.801 42.3722 134.801 42.3722C134.801 42.3722 134.693 41.9673 134.386 41.5948C134.078 41.2224 133.673 41.5192 133.435 41.2384C133.198 40.9577 133.587 40.4665 134.132 40.2021C134.677 39.9375 135.271 40.0887 135.579 40.1696C135.886 40.2506 136.34 40.8607 136.253 41.3896C136.253 41.3896 136.021 41.626 135.249 42.2609Z" fill="#003940"/>
<path d="M135.519 41.9101C135.406 41.7791 135.227 41.8288 135.081 41.9066C134.946 41.9789 134.875 42.1007 134.907 42.2165C134.983 42.4954 134.793 42.8081 134.756 43.1054C135.782 42.9997 135.738 42.1623 135.519 41.9101Z" fill="#F7A47A"/>
<path d="M135.372 42.143C135.297 42.1207 135.19 42.1387 135.153 42.1989C135.137 42.2252 135.184 42.2456 135.206 42.2198C135.222 42.1999 135.253 42.1889 135.284 42.1942C135.311 42.1987 135.335 42.2198 135.348 42.2369C135.386 42.2891 135.353 42.3571 135.326 42.4104C135.298 42.4634 135.262 42.5147 135.218 42.5622C135.172 42.6126 135.108 42.6519 135.061 42.7014C135.017 42.7486 135.103 42.8077 135.166 42.7749C135.214 42.7494 135.249 42.7119 135.284 42.6767C135.315 42.644 135.344 42.6098 135.369 42.5746C135.42 42.5023 135.463 42.4226 135.479 42.3427C135.493 42.2715 135.473 42.173 135.372 42.143Z" fill="#9E0B0B"/>
<path d="M134.715 40.9991C134.715 40.9991 134.051 43.1467 133.761 44.0841C133.761 44.0841 133.68 44.1779 133.124 44.2716C132.568 44.3653 132.014 44.0925 132.014 44.0925C132.014 44.0925 132.107 43.6324 132.278 42.567C132.448 41.5019 132.593 40.7007 132.593 40.7007C132.593 40.7007 133.301 40.6243 134.715 40.9991Z" fill="#98C6CF"/>
<path d="M132.857 41.6221C132.857 41.6221 132.729 42.0737 132.448 43.71C132.448 43.71 132.303 43.8122 132.303 43.5906C132.303 43.3692 132.544 41.8564 132.857 41.6221Z" fill="white"/>
<path d="M137.717 42.6251C137.717 42.6251 137.956 42.4009 137.678 42.0918C137.4 41.7828 136.635 41.2068 134.6 40.8415C132.565 40.4763 131.985 40.6793 132.032 40.9459C132.032 40.9459 133.265 40.8473 134.921 41.2532C136.577 41.6591 137.539 42.1962 137.717 42.6251Z" fill="#4C9BAC"/>
<path d="M132.77 40.7075C132.77 40.7075 135.32 40.9196 136.58 41.6652C136.58 41.6652 136.711 40.6372 136.395 40.0661C136.078 39.4935 135.491 39.2932 134.965 39.076C134.439 38.8599 133.875 38.7676 133.651 38.7975C133.534 38.8144 133.435 38.9236 133.335 39.102C133.243 39.2646 133.151 39.4832 133.04 39.7408C132.865 40.1507 132.804 40.3212 132.783 40.5098C132.775 40.5709 132.771 40.6346 132.77 40.7075Z" fill="#4C9BAC"/>
<path d="M132.783 40.5122C132.906 40.5616 133.068 40.5708 133.153 40.5005C133.265 40.4082 133.241 40.4433 133.427 39.9983C133.612 39.5545 133.716 39.202 133.577 39.1565C133.438 39.1097 133.335 39.1045 133.335 39.1045C133.244 39.2671 133.151 39.4858 133.041 39.7433C132.865 40.1531 132.804 40.3236 132.783 40.5122Z" fill="white"/>
<path d="M134.939 47.1949C137.732 48.3543 132.199 56.7998 131.114 57.8393C131.114 57.8393 130.618 58.3101 129.856 58.1579C128.971 57.981 128.539 57.2194 128.699 56.4197C128.786 55.8903 132.138 46.0318 134.939 47.1949Z" fill="#FFAD0D"/>
<path d="M123.568 59.1959C124.069 57.3931 126.289 57.7427 126.333 57.7465C127.216 57.8062 129.319 58.0793 134.125 59.1582L140.523 61.0072C140.523 61.0072 139.871 64.9803 136.83 65.022C133.789 65.0637 127.856 63.2035 125.301 62.4664C125.301 62.4664 122.783 62.0244 123.568 59.1959Z" fill="#FFAD0D"/>
<path d="M123.294 59.5387C123.295 59.5387 123.697 57.72 125.697 57.7207C127.397 57.7212 128.065 60.1012 128.466 61.117C129.346 63.3475 130.03 69.6747 130.029 69.6745C127.463 69.6745 122.963 69.8496 122.963 69.8496C122.659 64.7636 123.071 59.9494 123.294 59.5387Z" fill="#FFAD0D"/>
<path d="M129.958 69.859C129.865 69.8534 129.79 69.7838 129.79 69.6908C129.792 68.3991 129.291 63.9432 128.307 61.1734C128.276 61.0861 128.322 60.99 128.409 60.9589C128.497 60.928 128.593 60.9734 128.624 61.061C129.62 63.867 130.128 68.3822 130.126 69.6913C130.126 69.7841 130.051 69.859 129.958 69.859Z" fill="#C19C00"/>
<path d="M141.587 60.2812C141.587 60.2812 141.325 62.6894 140.63 66.9899C139.999 70.8951 139.659 72.392 139.659 72.392C139.659 72.392 139.574 73.8716 136.744 73.9551C134.373 74.0253 134.098 73.0141 134.098 73.0141C134.098 73.0141 133.565 71.5509 133.893 68.7163C134.33 64.9479 134.364 60.3936 134.364 60.3936C136.689 60.2968 141.587 60.2812 141.587 60.2812Z" fill="#FFAD0D"/>
<path d="M133.955 72.5248C133.881 71.2763 134.919 70.7777 134.919 70.7772C136.736 69.853 140.211 68.8619 145.492 68.082C145.492 68.082 146.067 73.9631 146.599 75.5826C146.599 75.5826 141.38 75.4528 136.426 75.2326C136.426 75.2326 134.121 75.312 133.955 72.5248Z" fill="#FFAD0D"/>
<path d="M137.662 69.9599C137.587 69.9599 137.519 69.9093 137.499 69.8332C137.476 69.7434 137.531 69.6519 137.621 69.6292C137.972 69.5402 138.28 69.461 138.559 69.389C140.512 68.8855 141.102 68.7335 145.726 68.0507C145.82 68.0369 145.903 68.1006 145.917 68.1924C145.93 68.2842 145.867 68.3695 145.775 68.3831C141.169 69.0635 140.583 69.2143 138.643 69.7142C138.363 69.7865 138.055 69.8657 137.703 69.9549C137.69 69.9583 137.676 69.9599 137.662 69.9599Z" fill="#C19C00"/>
<path d="M130.218 58.2416C130.218 58.2416 132.695 61.7878 136.466 62.1211C140.237 62.4533 142.289 62.4655 142.289 62.4655C142.289 62.4655 142.146 62.4142 141.976 61.1969C141.879 60.4991 141.774 59.4166 141.684 57.74C141.645 57.0176 141.579 56.2496 141.496 55.4682C141.453 55.0724 141.406 54.6723 141.356 54.2732C141.278 53.6455 141.191 53.0203 141.101 52.4127C141.041 52.0058 140.979 51.6067 140.917 51.2221C140.509 48.6726 140.099 46.6917 140.099 46.6917C139.584 46.3149 138.46 45.8467 136.87 45.5869C136.87 45.5869 135.909 46.0139 133.949 46.6917C133.949 46.6917 132.011 48.8588 131.896 51.4283C131.883 51.7014 131.892 51.9791 131.925 52.2588C131.941 52.387 131.955 52.5074 131.969 52.621C132.075 53.4939 132.134 53.9387 132.165 54.273C132.203 54.6576 132.204 54.8951 132.2 55.468C132.197 55.7991 132.193 56.2439 132.193 56.8949C132.193 57.6975 131.963 57.7161 131.504 58.0875C131.114 58.4031 130.512 58.3592 130.218 58.2416Z" fill="#FFAD0D"/>
<path d="M131.926 52.2576C131.941 52.3858 131.956 52.5063 131.969 52.6199L141.101 52.4113C141.041 52.0044 140.979 51.6053 140.917 51.2207L131.897 51.427C131.883 51.7002 131.892 51.9779 131.926 52.2576Z" fill="#003940"/>
<path d="M132.2 55.4684H141.496C141.453 55.0727 141.406 54.6725 141.356 54.2734H132.165C132.203 54.658 132.204 54.8955 132.2 55.4684Z" fill="#C6CEB6"/>
<path d="M130.218 58.2418C130.218 58.2418 132.695 61.788 136.466 62.1213C140.237 62.4536 142.289 62.4658 142.289 62.4658C142.289 62.4658 142.146 62.4145 141.976 61.1971C141.897 61.206 138.042 61.3261 135.234 60.6108C133.328 60.1252 132.213 58.799 131.504 58.0879C131.293 58.1003 130.864 58.2493 130.218 58.2418Z" fill="#003940"/>
<path d="M136.008 44.292C136.008 44.292 136.599 45.1488 137.24 46.1646C137.24 46.1646 135.429 47.369 133.967 47.7967C133.967 47.7967 134.028 47.1023 133.957 45.8548C133.957 45.8548 134.155 45.3434 136.008 44.292Z" fill="#FFAD0D"/>
<path d="M133.973 45.8596C133.973 45.8596 134.024 45.6674 134.046 45.5873C134.09 45.431 134.137 45.2666 134.137 45.2666C134.137 45.2666 133.213 45.421 133.201 45.8606V47.31C133.201 47.31 133.545 47.8091 133.967 47.797C133.967 47.797 134.02 47.4644 134.02 47.0486C134.02 46.4902 133.973 45.8596 133.973 45.8596Z" fill="#FFAD0D"/>
<path d="M117.12 80.6905H130.059C130.059 80.6905 130.102 80.3659 130.142 78.9842C130.165 78.2171 130.188 77.1199 130.199 75.5715C130.217 73.4803 130.185 71.5153 130.147 70.0416C130.133 69.4757 130.116 69.0354 130.116 69.0354C130.116 69.0354 124.833 68.9915 122.92 69.0258C122.92 69.0258 122.922 69.5012 122.937 70.0671C122.974 71.5119 123.047 73.3721 123.096 75.3716C123.096 75.3716 122.572 75.9792 121.061 76.1861C119.792 76.3585 117.56 76.4217 117.143 78.964C117.065 79.4467 117.051 80.0154 117.12 80.6905Z" fill="#003940"/>
<path d="M117.121 80.6913H130.059C130.059 80.6913 130.102 80.3668 130.142 78.9851C129.935 78.9821 120.036 78.8299 117.144 78.965C117.066 79.4475 117.051 80.0162 117.121 80.6913Z" fill="#FFAD0D"/>
<path d="M122.943 70.3301C122.955 70.7293 122.974 71.2235 122.988 71.7894H130.193C130.179 71.2235 130.162 70.7293 130.147 70.3301H122.943Z" fill="#FFAD0D"/>
<path d="M145.316 68.1097C145.316 68.1097 145.486 71.1136 146.021 75.5691C146.021 75.5691 146.629 75.6361 147.804 75.5893C148.426 75.5619 149.162 75.5272 149.949 75.4742C150.503 75.4377 151.084 75.392 151.665 75.3377C151.665 75.3377 151.915 77.1082 151.927 78.7014C151.929 78.7188 151.927 78.736 151.928 78.7534C151.973 80.3005 153.602 80.4735 156.888 80.6921C156.888 80.6921 156.154 71.4278 155.763 67.2276C155.763 67.2276 155.265 67.2173 154.154 67.2613C153.543 67.284 152.743 67.3272 151.739 67.3953C150.834 67.455 149.813 67.5503 148.84 67.653C148.191 67.7185 147.562 67.7886 147.008 67.8541C145.801 67.99 145.316 68.1097 145.316 68.1097Z" fill="#003940"/>
<path d="M147.008 67.8516L147.805 75.587C148.427 75.5596 148.527 75.5649 149.313 75.5116C149.313 75.5116 148.782 69.6015 148.508 67.6846C147.859 67.7502 147.562 67.7861 147.008 67.8516Z" fill="#FFAD0D"/>
<path d="M151.929 78.7526C152.103 80.8489 153.691 80.8365 156.888 80.7445C156.888 80.7445 156.155 71.4269 155.764 67.2266C155.764 67.2266 155.266 67.2163 154.154 67.2603C154.154 67.2603 154.944 76.319 155.164 78.8051C155.164 78.8051 153.87 78.7229 152.827 78.7154C152.512 78.713 152.205 78.7285 151.929 78.7526Z" fill="#FFAD0D"/>
<path d="M132.193 57.0625C132.101 57.0625 132.026 56.9873 132.026 56.8946C132.026 56.3566 132.029 55.9594 132.031 55.6506L132.032 55.4665C132.037 54.8817 132.035 54.6615 131.999 54.2891C131.977 54.057 131.941 53.7646 131.886 53.322L131.759 52.2787C131.724 51.9824 131.714 51.6932 131.729 51.4186C131.779 50.5274 131.995 49.7624 132.004 49.7303C132.029 49.6411 132.122 49.5896 132.211 49.6148C132.301 49.6402 132.352 49.7331 132.327 49.8222C132.325 49.8297 132.113 50.585 132.064 51.4374C132.05 51.6925 132.06 51.9622 132.093 52.2386L132.22 53.281C132.275 53.7267 132.311 54.0211 132.333 54.2574C132.371 54.6435 132.373 54.8831 132.368 55.4693L132.367 55.6534C132.364 55.9615 132.361 56.358 132.361 56.8948C132.361 56.9873 132.286 57.0625 132.193 57.0625Z" fill="#C19C00"/>
<path d="M119.256 43.7725L117.598 46.7805L120.245 47.9833C120.245 47.9833 121.396 46.0593 121.835 45.3006C121.835 45.3006 121.086 44.8093 119.256 43.7725Z" fill="#4C9BAC"/>
<path d="M121.519 45.1016C121.519 45.1016 123.729 46.5264 125.886 47.8677L125.756 48.9392L125.09 49.97C125.09 49.97 124.497 50.1748 124.031 50.2392C124.031 50.2392 122.147 49.1912 120.041 47.8911C120.04 47.8911 120.942 46.1835 121.519 45.1016Z" fill="#003940"/>
<path d="M158.026 70.4454C157.044 70.4454 155.948 70.4143 154.754 70.3344C150.175 70.0274 149.494 69.6102 147.839 68.2107C146.973 67.4781 145.786 66.4748 143.146 65.003C138.322 62.3133 137.43 60.682 136.567 59.1045C136.114 58.2744 135.685 57.4906 134.623 56.4809C131.216 53.241 124.61 49.5644 124.544 49.5276C124.139 49.3027 123.992 48.7917 124.217 48.386C124.442 47.9805 124.952 47.8337 125.358 48.0585C125.637 48.2127 132.217 51.875 135.781 55.2636C137.033 56.4542 137.569 57.4341 138.041 58.2985C138.824 59.73 139.563 61.082 143.964 63.5358C146.746 65.087 148.005 66.1511 148.923 66.9281C150.272 68.0683 150.634 68.3747 154.866 68.6585C159.855 68.9928 163.104 68.4304 163.137 68.4248C163.592 68.343 164.029 68.6482 164.11 69.1049C164.191 69.5615 163.887 69.9972 163.43 70.0784C163.322 70.0978 161.314 70.4454 158.026 70.4454Z" fill="#003940"/>
<path d="M124.515 53.7526C124.515 53.7526 121.174 52.1442 118.732 49.4224C118.732 49.4224 118.256 49.1336 118.676 47.6983C119.096 46.2632 119.064 46.3635 119.194 46.1836C119.324 46.0037 120.897 45.209 121.238 45.1541C121.579 45.0991 122.021 45.1761 122.318 45.6369C122.318 45.6369 123.096 45.7013 123.322 46.2168C123.338 46.2552 123.967 46.0065 124.679 46.6707C124.679 46.6707 124.882 46.5719 125.374 46.8104C125.857 47.0446 125.909 47.6915 125.788 47.923C125.666 48.1546 125.456 47.6791 125.147 48.3863C124.837 49.0936 124.953 49.2231 124.983 49.4091C125.013 49.5949 125.451 49.8794 126.166 51.9422L124.515 53.7526Z" fill="#F7A47A"/>
<path d="M123.885 47.6121C123.876 47.6121 123.867 47.6107 123.858 47.6078C123.814 47.5929 123.79 47.5455 123.805 47.5015C124.034 46.8171 124.625 46.6005 124.65 46.5916C124.694 46.5765 124.742 46.599 124.758 46.6426C124.773 46.6862 124.75 46.7342 124.707 46.7499C124.701 46.7518 124.167 46.9504 123.964 47.5549C123.953 47.59 123.92 47.6121 123.885 47.6121Z" fill="#9E0B0B"/>
<path d="M122.67 47.0791C122.658 47.0791 122.646 47.0765 122.635 47.0712C122.593 47.0517 122.575 47.0016 122.594 46.9596C122.928 46.2441 123.284 46.1399 123.299 46.1359C123.345 46.1233 123.39 46.1502 123.402 46.1949C123.415 46.2392 123.389 46.2851 123.345 46.2977C123.338 46.2998 123.041 46.3998 122.747 47.0306C122.732 47.0611 122.702 47.0791 122.67 47.0791Z" fill="#9E0B0B"/>
<path d="M121.578 46.582C121.573 46.582 121.568 46.5815 121.562 46.5806C121.517 46.572 121.487 46.5281 121.496 46.4825C121.62 45.8268 122.26 45.5692 122.287 45.5585C122.331 45.5416 122.379 45.5629 122.396 45.6062C122.412 45.6493 122.391 45.698 122.348 45.7151C122.342 45.7173 121.767 45.9508 121.661 46.5138C121.653 46.5539 121.618 46.582 121.578 46.582Z" fill="#9E0B0B"/>
<path d="M137.915 54.6145C137.915 54.6145 136.649 53.5816 135.932 53.2517C134.368 52.5313 133.283 52.7083 133.061 53.0023C132.846 53.2862 133.655 53.7999 134.488 54.0758C135.136 54.2906 135.088 54.3845 134.993 54.4557C134.898 54.5269 133.733 54.426 132.943 54.6749C132.109 54.9375 132.317 55.6659 132.584 57.0156C132.943 58.8338 134.91 59.1472 135.817 59.0554C136.725 58.9636 138.817 57.8801 138.817 57.8801C138.817 57.8801 138.326 56.1314 137.915 54.6145Z" fill="#F7A47A"/>
<path d="M138.369 46.4754C141.324 44.9747 145.177 54.7819 145.251 55.0405C145.251 55.0405 145.819 56.7937 144.295 57.3728C142.891 57.9065 142.097 56.8813 142.032 56.7966C142.032 56.7966 135.039 48.1669 138.369 46.4754Z" fill="#FFAD0D"/>
<path d="M142.031 56.9651C141.981 56.9651 141.931 56.9426 141.898 56.8998C141.871 56.8642 139.127 53.2967 137.813 50.3138C137.776 50.229 137.814 50.1297 137.899 50.0925C137.985 50.0548 138.083 50.0938 138.12 50.1786C139.417 53.1236 142.137 56.6594 142.164 56.6946C142.221 56.7681 142.207 56.8735 142.134 56.9302C142.103 56.9537 142.067 56.9651 142.031 56.9651Z" fill="#C19C00"/>
<path d="M137.241 53.6164C137.241 53.6164 137.634 57.1234 138.042 59.3385C138.042 59.3385 138.673 59.2148 139.555 59.013C141.273 58.6195 143.943 57.9306 144.736 57.2907C144.736 57.2907 145.34 56.8192 145.362 56.0165C145.385 55.0779 144.823 54.2251 143.857 54.0244C143.857 54.0244 142.079 53.6243 138.797 53.5997C138.311 53.5964 137.791 53.6007 137.241 53.6164Z" fill="#FFAD0D"/>
<path d="M141.95 53.9144C141.946 53.9144 141.942 53.9144 141.938 53.914C141.923 53.913 140.347 53.8109 138.792 53.7685C138.7 53.7659 138.627 53.6887 138.629 53.5961C138.632 53.5034 138.708 53.4289 138.802 53.4328C140.363 53.4752 141.944 53.5778 141.96 53.5788C142.053 53.5849 142.123 53.6648 142.117 53.7573C142.111 53.8463 142.037 53.9144 141.95 53.9144Z" fill="#C19C00"/>
<path d="M137.241 53.6163C137.241 53.6163 137.634 57.1233 138.042 59.3384C138.042 59.3384 138.673 59.2147 139.555 59.013L138.797 53.5998C138.311 53.5963 137.791 53.6006 137.241 53.6163Z" fill="#003940"/>
<path d="M122.462 53.2378C122.462 53.2378 122.462 53.2388 122.464 53.2388C122.758 53.6791 123.098 54.0916 123.465 54.4752C125.485 56.591 128.315 57.8416 128.891 58.0791C128.962 58.1104 130.713 58.7457 131.416 57.3801C131.963 56.32 131.018 55.31 130.981 55.2665C130.201 54.3146 128.52 52.2534 127.438 50.9256C126.854 50.2088 126.443 49.7061 126.443 49.7061L122.828 52.9132L122.462 53.2378Z" fill="#FFAD0D"/>
<path d="M130.982 55.4353C130.933 55.4353 130.885 55.4143 130.852 55.3739C130.505 54.9514 129.949 54.3038 129.36 53.6184C128.627 52.7647 127.796 51.7971 127.194 51.0592C127.135 50.9873 127.146 50.8815 127.218 50.8229C127.29 50.7642 127.396 50.7752 127.454 50.847C128.053 51.5816 128.883 52.5475 129.615 53.3996C130.205 54.0866 130.763 54.7354 131.112 55.161C131.17 55.2327 131.16 55.3384 131.088 55.3972C131.057 55.4229 131.019 55.4353 130.982 55.4353Z" fill="#C19C00"/>
<path d="M122.463 53.2396C122.758 53.6799 123.098 54.0924 123.464 54.476L127.437 50.9266C126.853 50.2098 126.443 49.707 126.443 49.707L122.828 52.9142L122.463 53.2396Z" fill="#003940"/>
<path d="M154.76 91.8271H148.669V135.534H154.76V91.8271Z" fill="#1F8297"/>
<path d="M150.36 91.8271H148.669V135.534H150.36V91.8271Z" fill="url(#paint21_linear_2811_12542)"/>
<path d="M187.509 103.713V103.759C187.509 105.174 187.485 106.568 187.433 107.946C187.405 108.775 187.365 109.6 187.314 110.418C187.306 110.54 187.299 110.661 187.291 110.784C187.217 111.926 187.121 113.058 187.005 114.185C186.987 114.358 186.968 114.529 186.95 114.7C186.864 115.478 186.768 116.254 186.661 117.028C186.565 117.728 186.458 118.429 186.342 119.129C186.332 119.194 186.322 119.26 186.31 119.325C186.281 119.498 186.251 119.67 186.221 119.841C186.072 120.704 185.907 121.568 185.726 122.434C185.603 123.027 185.472 123.62 185.338 124.209C185.252 124.579 185.165 124.948 185.074 125.316C185.02 125.545 184.963 125.773 184.906 126C184.8 126.425 184.691 126.846 184.579 127.268C184.392 127.977 184.196 128.68 183.991 129.382C183.771 130.141 183.541 130.895 183.3 131.646C183.265 131.757 183.23 131.868 183.193 131.977C182.954 132.716 182.706 133.45 182.447 134.179C182.227 134.809 181.999 135.435 181.764 136.056C181.611 136.465 181.455 136.873 181.293 137.277C181.228 137.445 181.162 137.613 181.094 137.78C181.028 137.949 180.959 138.117 180.89 138.287H154.765V89.2312C154.765 87.33 156.071 85.79 157.684 85.79H185.828C185.855 85.9295 185.88 86.0689 185.907 86.2081C186.043 86.9269 186.174 87.6827 186.297 88.4351C186.317 88.5578 186.337 88.6803 186.357 88.8012C186.422 89.2127 186.485 89.6224 186.543 90.0222C186.562 90.1566 186.614 90.5059 186.629 90.6385C186.726 91.3086 186.77 91.6664 186.849 92.3399C186.856 92.3886 186.886 92.6472 186.893 92.6959C187.104 94.4861 187.249 96.2833 187.358 98.1037C187.465 99.921 187.509 101.868 187.509 103.713Z" fill="#4C9BAC"/>
<path d="M127.73 92.7674C131.557 89.3721 137.081 86.5576 142.016 86.5576H146.92C147.886 86.5576 148.669 87.4807 148.669 88.6195V137.765H104.461V133.303H106.877V111.778L114.686 92.7674H127.73Z" fill="#4C9BAC"/>
<path d="M113.362 95.7364C112.448 96.9884 106.846 110.772 106.989 111.506C106.989 111.506 113.546 111.856 114.163 111.227C114.683 110.697 114.705 106.658 116.01 97.4456C116.11 96.7433 113.75 95.2052 113.362 95.7364Z" fill="white"/>
<path d="M130.949 96.4707H118.071V111.603H130.949V96.4707Z" fill="white"/>
<path d="M146.366 96.4707H134.938V111.603H146.366V96.4707Z" fill="white"/>
<path d="M130.95 113.505H128.051V114.43H130.95V113.505Z" fill="#003940"/>
<path d="M146.366 113.505H143.468V114.43H146.366V113.505Z" fill="#003940"/>
<path d="M148.669 122.628H106.883V126.805H148.669V122.628Z" fill="white"/>
<path d="M187.509 103.713V103.758C187.509 105.174 187.485 106.568 187.433 107.945L186.214 108.654L185.924 108.823L183.186 110.417L182.556 110.783L176.713 114.184L175.828 114.7L174.539 115.451L174.528 115.456L172.174 116.826L171.65 117.132L167.881 119.325L166.996 119.841L154.765 126.96V122.627L159.588 119.841L160.481 119.325L162.777 117.998L162.987 117.877L164.489 117.011L164.695 116.89L168.489 114.7L169.381 114.184L175.269 110.783L175.902 110.417L178.662 108.823L179.785 108.175L185.636 104.794L186.214 104.462L187.509 103.713Z" fill="white"/>
<path d="M186.661 117.029C186.565 117.73 186.457 118.43 186.342 119.13L185.997 119.327L185.096 119.842L176.169 124.943C176.169 124.943 176.169 124.943 176.167 124.943L167.703 129.78L156.716 136.058L154.764 137.173V135.453L181.79 119.842L182.683 119.327L183.982 118.576L186.388 117.187L186.661 117.029Z" fill="white"/>
<path d="M117.05 95.4365V136.572H131.996V95.4365H117.05ZM131.558 136.056H117.489V95.9537H131.558V136.056Z" fill="url(#paint22_linear_2811_12542)"/>
<path d="M133.934 95.4365V136.572H147.242V95.4365H133.934ZM146.804 136.056H134.371V95.9537H146.804V136.056Z" fill="url(#paint23_linear_2811_12542)"/>
<path d="M158.68 110.417V88.8007H186.357C186.337 88.6797 186.317 88.5571 186.297 88.4346H158.367V110.783H187.291C187.299 110.661 187.306 110.54 187.314 110.417L158.68 110.417Z" fill="url(#paint24_linear_2811_12542)"/>
<path d="M186.215 90.3955H159.996V108.824H186.215V90.3955Z" fill="#003940"/>
<path d="M172.335 91.043H160.611V108.176H172.335V91.043Z" fill="#BAD8DF"/>
<path d="M177.292 92.4697L176.811 92.4711C176.71 92.4715 176.629 92.5556 176.629 92.6591L177.475 92.6566C177.475 92.5531 177.393 92.4696 177.292 92.4697Z" fill="#FFAD0D"/>
<path d="M177.308 92.657C177.304 92.5568 177.224 92.4769 177.126 92.4772L176.764 92.4783C176.779 92.4741 176.795 92.4711 176.811 92.4711L177.292 92.4697C177.393 92.4694 177.475 92.5531 177.475 92.6566L177.308 92.657Z" fill="#F7A47A"/>
<path d="M173.513 99.4473L168.482 99.4619L168.484 100.259L173.515 100.245L173.513 99.4473Z" fill="#003940"/>
<path d="M177.407 94.7849L176.631 94.7871L176.646 99.8365L177.422 99.8342L177.407 94.7849Z" fill="#003940"/>
<path d="M176.641 96.6723C175.756 95.0004 174.194 93.7577 172.335 93.3344C171.873 93.2278 171.393 93.1723 170.899 93.1739C167.312 93.1842 164.399 96.1863 164.411 99.8642C164.421 103.542 167.349 106.527 170.936 106.517C171.416 106.515 171.885 106.46 172.335 106.356C175.252 105.69 177.434 103.012 177.425 99.8264C177.422 98.6858 177.138 97.6112 176.641 96.6723ZM172.335 105.54C171.887 105.657 171.418 105.719 170.934 105.721C167.769 105.731 165.196 103.107 165.187 99.8628C165.177 96.6169 167.737 93.9785 170.902 93.9698C171.396 93.9684 171.877 94.031 172.335 94.1493C174.809 94.7946 176.643 97.09 176.65 99.8278C176.656 102.577 174.822 104.891 172.335 105.54Z" fill="#003940"/>
<path d="M172.336 94.2715C171.879 94.1488 171.399 94.0846 170.903 94.086C167.801 94.0947 165.295 96.6792 165.304 99.8579C165.314 103.038 167.835 105.607 170.935 105.598C171.419 105.596 171.889 105.532 172.336 105.414C174.758 104.767 176.541 102.508 176.533 99.8258C176.526 97.1553 174.744 94.914 172.336 94.2715ZM172.336 104.586C171.892 104.725 171.421 104.801 170.933 104.802C168.265 104.811 166.088 102.591 166.08 99.8565C166.073 97.1202 168.236 94.889 170.905 94.8819C171.402 94.8805 171.884 94.9564 172.336 95.0979C174.311 95.72 175.752 97.6035 175.757 99.8274C175.764 102.063 174.319 103.963 172.336 104.586Z" fill="#003940"/>
<path d="M172.335 95.2206C171.883 95.0746 171.403 94.9957 170.904 94.9971C168.298 95.0044 166.183 97.1845 166.19 99.858C166.198 102.53 168.325 104.697 170.931 104.69C171.42 104.688 171.892 104.611 172.335 104.468C174.256 103.848 175.652 102.001 175.645 99.8301C175.64 97.6678 174.246 95.8368 172.335 95.2206ZM172.335 103.625C171.899 103.798 171.425 103.892 170.929 103.894C168.751 103.901 166.973 102.089 166.966 99.8552C166.961 97.6212 168.728 95.7989 170.908 95.793C171.41 95.7916 171.892 95.8863 172.335 96.0631C173.811 96.6458 174.864 98.1132 174.869 99.8318C174.875 101.558 173.82 103.038 172.335 103.625Z" fill="#003940"/>
<path d="M172.335 96.1974C171.893 96.0149 171.411 95.9156 170.908 95.917C168.795 95.9229 167.082 97.6896 167.088 99.855C167.095 102.019 168.818 103.775 170.929 103.77C171.425 103.768 171.9 103.669 172.335 103.491C173.751 102.911 174.752 101.488 174.748 99.8318C174.743 98.1847 173.744 96.7728 172.335 96.1974ZM173.423 101.631C173.144 102.042 172.77 102.381 172.335 102.616C171.915 102.844 171.435 102.973 170.928 102.974C169.243 102.978 167.869 101.578 167.864 99.8522C167.859 98.1264 169.225 96.7173 170.909 96.7129C171.423 96.7115 171.908 96.8415 172.335 97.0706C172.622 97.2254 172.882 97.427 173.107 97.6634C173.272 97.8356 173.416 98.0285 173.537 98.2372C173.813 98.7045 173.971 99.2505 173.972 99.8346C173.974 100.424 173.815 100.978 173.537 101.45C173.502 101.511 173.464 101.572 173.423 101.631Z" fill="#003940"/>
<path d="M173.538 98.5148C173.424 98.2768 173.28 98.0578 173.108 97.8606C172.89 97.6051 172.628 97.3889 172.336 97.2225C171.913 96.9815 171.427 96.8443 170.91 96.8457C169.299 96.8501 167.991 98.1978 167.996 99.8506C168.001 101.502 169.316 102.842 170.927 102.838C171.437 102.837 171.918 102.701 172.336 102.461C172.7 102.254 173.016 101.969 173.263 101.629C173.369 101.485 173.459 101.331 173.538 101.169C173.733 100.766 173.842 100.312 173.841 99.8332C173.839 99.3603 173.731 98.9134 173.538 98.5148ZM172.336 101.494C171.96 101.834 171.466 102.041 170.925 102.043C169.874 102.047 168.995 101.27 168.809 100.247C168.785 100.117 168.772 99.9838 168.772 99.8478C168.772 99.7121 168.784 99.5777 168.807 99.4493C168.987 98.4256 169.862 97.6446 170.913 97.6416C171.459 97.6402 171.958 97.8475 172.336 98.1922C172.69 98.5105 172.938 98.9457 173.027 99.4378C173.051 99.5678 173.064 99.7005 173.064 99.8363C173.064 99.9721 173.053 100.106 173.029 100.235C172.942 100.733 172.692 101.172 172.336 101.494Z" fill="#003940"/>
<path d="M177.726 95.5977L176.417 95.6015C176.417 95.7191 176.511 95.8142 176.625 95.8139L177.519 95.8112C177.633 95.8109 177.726 95.7153 177.726 95.5977Z" fill="#003940"/>
<path d="M177.82 95.5788L177.482 92.7432L176.617 92.7456L176.371 95.583L177.82 95.5788Z" fill="#FFAD0D"/>
<path d="M176.371 95.5841L176.398 95.266L176.727 95.265C177.19 95.2636 177.548 94.8481 177.492 94.3771L177.297 92.7447L177.482 92.7441L177.82 95.5798L176.371 95.5841Z" fill="#F7A47A"/>
<path d="M177.873 95.377L176.325 95.3815C176.249 95.3817 176.188 95.4447 176.188 95.522C176.189 95.5993 176.25 95.6617 176.325 95.6616L177.873 95.657C177.949 95.6568 178.01 95.5939 178.01 95.5166C178.01 95.4392 177.948 95.3768 177.873 95.377Z" fill="#003940"/>
<path d="M177.46 92.6152L176.647 92.6177C176.603 92.6179 176.568 92.6543 176.568 92.6993C176.568 92.7444 176.604 92.7807 176.648 92.7805L177.46 92.778C177.504 92.7779 177.539 92.7414 177.539 92.6964C177.539 92.6515 177.503 92.6151 177.46 92.6152Z" fill="#003940"/>
<path d="M185.636 91.043H172.335V108.176H185.636V91.043Z" fill="#E9F3F5"/>
<path d="M173.537 97.0186H173.108V102.201H173.537V97.0186Z" fill="#003940"/>
<path d="M187.005 114.186C186.986 114.358 186.968 114.53 186.949 114.701C186.864 115.479 186.768 116.255 186.661 117.029C186.565 117.729 186.457 118.43 186.342 119.13C186.331 119.195 186.321 119.261 186.31 119.326C186.281 119.499 186.251 119.671 186.221 119.842H157.888V114.186H187.005Z" fill="#003940"/>
<path d="M186.949 114.701C186.864 115.479 186.768 116.255 186.66 117.029C186.565 117.729 186.457 118.43 186.341 119.13C186.331 119.195 186.321 119.261 186.31 119.326H158.326V114.701H186.949V114.701Z" fill="#BAD8DF"/>
<path d="M184.826 118.655C185.693 118.655 186.396 117.913 186.396 116.997C186.396 116.08 185.693 115.338 184.826 115.338C183.959 115.338 183.256 116.08 183.256 116.997C183.256 117.913 183.959 118.655 184.826 118.655Z" fill="#FFAD0D"/>
<path d="M184.826 117.698C184.459 117.698 184.161 117.383 184.161 116.996C184.161 116.609 184.459 116.294 184.826 116.294C185.192 116.294 185.49 116.609 185.49 116.996C185.49 117.383 185.192 117.698 184.826 117.698Z" fill="#003940"/>
<path d="M184.826 117.388C184.621 117.388 184.454 117.212 184.454 116.995C184.454 116.779 184.621 116.603 184.826 116.603C185.031 116.603 185.198 116.779 185.198 116.995C185.198 117.212 185.031 117.388 184.826 117.388Z" fill="white"/>
<path d="M181.29 115.596H180.767V118.654H181.29V115.596Z" fill="#003940"/>
<path d="M181.653 117.577H180.415V117.935H181.653V117.577Z" fill="#4C9BAC"/>
<path d="M178.236 115.596H177.713V118.654H178.236V115.596Z" fill="#003940"/>
<path d="M178.598 116.468H177.36V116.826H178.598V116.468Z" fill="#FFAD0D"/>
<path d="M175.052 115.596H174.528V118.654H175.052V115.596Z" fill="#003940"/>
<path d="M175.414 118.1H174.176V118.458H175.414V118.1Z" fill="#FFAD0D"/>
<path d="M172.174 115.596H171.65V118.654H172.174V115.596Z" fill="#003940"/>
<path d="M172.536 115.834H171.298V116.192H172.536V115.834Z" fill="#4C9BAC"/>
<path d="M161.884 116.995C161.884 117.663 161.372 118.204 160.739 118.204C160.107 118.204 159.595 117.663 159.595 116.995C159.595 116.327 160.107 115.785 160.739 115.785C161.372 115.785 161.884 116.327 161.884 116.995Z" fill="#003940"/>
<path d="M160.74 117.98C160.227 117.98 159.81 117.539 159.81 116.997C159.81 116.454 160.227 116.014 160.74 116.014C161.253 116.014 161.671 116.455 161.671 116.997C161.671 117.539 161.253 117.98 160.74 117.98Z" fill="#4C9BAC"/>
<path d="M164.703 116.995C164.703 117.663 164.19 118.204 163.558 118.204C162.926 118.204 162.413 117.663 162.413 116.995C162.413 116.327 162.926 115.785 163.558 115.785C164.19 115.785 164.703 116.327 164.703 116.995Z" fill="#003940"/>
<path d="M163.558 117.98C163.044 117.98 162.627 117.539 162.627 116.997C162.627 116.454 163.044 116.014 163.558 116.014C164.071 116.014 164.488 116.455 164.488 116.997C164.488 117.539 164.071 117.98 163.558 117.98Z" fill="#FFAD0D"/>
<path d="M169.411 116.995C169.411 117.663 168.899 118.204 168.266 118.204C167.634 118.204 167.122 117.663 167.122 116.995C167.122 116.327 167.634 115.785 168.266 115.785C168.899 115.785 169.411 116.327 169.411 116.995Z" fill="#003940"/>
<path d="M168.266 117.98C167.753 117.98 167.336 117.539 167.336 116.997C167.336 116.454 167.753 116.014 168.266 116.014C168.779 116.014 169.197 116.455 169.197 116.997C169.197 117.539 168.779 117.98 168.266 117.98Z" fill="#4C9BAC"/>
<path d="M181.763 136.057C181.611 136.465 181.454 136.873 181.293 137.278C181.228 137.445 181.162 137.614 181.093 137.78C181.028 137.949 180.959 138.117 180.89 138.287H154.764L154.759 136.057H181.763Z" fill="#003940"/>
<path d="M154.76 133.521H148.669V135.535H154.76V133.521Z" fill="#003940"/>
<path d="M108.299 135.535L106.877 133.304H104.461V137.766H148.669L148.669 135.535H108.299Z" fill="#003940"/>
<path d="M154.76 122.628H148.669V126.805H154.76V122.628Z" fill="#EDEBEB"/>
<path d="M147.421 137.625C147.106 130.495 142.413 125.249 135.09 124.98C128.969 124.755 122.714 130.495 122.399 137.625H147.421Z" fill="#4D7479"/>
<path d="M145.452 139.472C146.394 133.667 142.453 128.198 136.648 127.256C130.844 126.314 125.375 130.256 124.433 136.06C123.491 141.865 127.432 147.334 133.237 148.276C139.041 149.218 144.51 145.276 145.452 139.472Z" fill="#003940"/>
<path d="M134.938 143.939C131.534 143.939 128.764 141.169 128.764 137.765C128.764 134.361 131.534 131.592 134.938 131.592C138.342 131.592 141.111 134.361 141.111 137.765C141.111 141.169 138.342 143.939 134.938 143.939Z" fill="white"/>
<path d="M134.938 139.465C134 139.465 133.238 138.703 133.238 137.765C133.238 136.828 134 136.065 134.938 136.065C135.875 136.065 136.638 136.828 136.638 137.765C136.638 138.703 135.875 139.465 134.938 139.465Z" fill="#003940"/>
<path d="M134.938 134.098C134.553 134.098 134.241 133.785 134.241 133.401C134.241 133.017 134.553 132.704 134.938 132.704C135.322 132.704 135.635 133.017 135.635 133.401C135.635 133.785 135.322 134.098 134.938 134.098Z" fill="#003940"/>
<path d="M134.938 142.828C134.553 142.828 134.241 142.516 134.241 142.132C134.241 141.747 134.553 141.435 134.938 141.435C135.322 141.435 135.635 141.747 135.635 142.132C135.635 142.516 135.322 142.828 134.938 142.828Z" fill="#003940"/>
<path d="M131.269 137.765C131.269 138.15 130.957 138.462 130.572 138.462C130.188 138.462 129.875 138.15 129.875 137.765C129.875 137.381 130.188 137.068 130.572 137.068C130.957 137.068 131.269 137.381 131.269 137.765Z" fill="#003940"/>
<path d="M140 137.765C140 138.15 139.688 138.462 139.303 138.462C138.919 138.462 138.606 138.15 138.606 137.765C138.606 137.381 138.919 137.068 139.303 137.068C139.688 137.068 140 137.381 140 137.765Z" fill="#003940"/>
<path d="M137.532 135.172C137.26 134.9 137.26 134.458 137.532 134.186C137.804 133.914 138.246 133.914 138.518 134.186C138.789 134.458 138.789 134.9 138.518 135.172C138.246 135.444 137.804 135.444 137.532 135.172Z" fill="#003940"/>
<path d="M131.359 141.346C131.087 141.074 131.087 140.632 131.359 140.36C131.631 140.088 132.073 140.088 132.345 140.36C132.617 140.632 132.617 141.074 132.345 141.346C132.073 141.617 131.631 141.618 131.359 141.346Z" fill="#003940"/>
<path d="M132.344 135.172C132.072 135.444 131.63 135.444 131.358 135.172C131.086 134.9 131.086 134.458 131.358 134.186C131.63 133.914 132.072 133.914 132.344 134.186C132.616 134.458 132.616 134.9 132.344 135.172Z" fill="#003940"/>
<path d="M138.518 141.346C138.246 141.617 137.804 141.617 137.532 141.346C137.26 141.074 137.26 140.632 137.532 140.36C137.804 140.088 138.246 140.088 138.518 140.36C138.789 140.632 138.789 141.074 138.518 141.346Z" fill="#003940"/>
<path d="M106.883 129.888V133.304H106.08C105.652 133.304 105.305 132.957 105.305 132.529V130.662C105.305 130.235 105.652 129.888 106.08 129.888H106.883Z" fill="#4C9BAC"/>
<path d="M106.883 126.853V130.269H106.08C105.652 130.269 105.305 129.922 105.305 129.494V127.627C105.305 127.199 105.652 126.853 106.08 126.853H106.883Z" fill="#FFAD0D"/>
<path d="M184.578 127.268C184.392 127.977 184.195 128.681 183.99 129.383C183.77 130.142 183.54 130.896 183.3 131.647C183.265 131.758 183.23 131.868 183.193 131.978C182.954 132.717 182.705 133.451 182.447 134.179C182.227 134.809 181.998 135.436 181.763 136.057C181.61 136.465 181.454 136.873 181.293 137.278C181.228 137.446 181.162 137.614 181.093 137.78C181.028 137.95 180.959 138.118 180.89 138.287H164.488C164.49 137.527 164.562 136.783 164.695 136.057C165.127 133.699 166.21 131.551 167.703 129.779C169.894 127.178 172.971 125.387 176.167 124.942C176.169 124.942 176.169 124.942 176.169 124.942C176.681 124.872 177.197 124.835 177.712 124.835C180.155 124.835 182.553 125.733 184.578 127.268Z" fill="#4D7479"/>
<path d="M114.403 94.8643H108.354V95.2665H114.403C114.497 95.2665 114.574 95.1764 114.574 95.0653C114.574 94.9543 114.497 94.8643 114.403 94.8643Z" fill="#003940"/>
<path d="M108.358 94.8643C108.358 94.8643 107.552 98.4009 107.362 99.4032C107.28 99.8354 107.312 100.284 107.605 100.56L108.237 100.994C108.411 101.113 108.631 100.98 108.651 100.743L109.099 95.2456L108.358 94.8643Z" fill="#003940"/>
<path d="M119.813 92.124H119.33V92.7676H119.813V92.124Z" fill="#003940"/>
<path d="M123.255 92.124H122.772V92.7676H123.255V92.124Z" fill="#003940"/>
<path d="M123.995 89.1572H119.053C118.761 89.1572 118.525 89.4359 118.525 89.7799V91.5304H124.523V89.7799C124.523 89.4359 124.286 89.1572 123.995 89.1572Z" fill="#4C9BAC"/>
<path d="M124.608 91.5303H118.439C118.3 91.5303 118.188 91.6631 118.188 91.8269C118.188 91.9908 118.3 92.1236 118.439 92.1236H124.608C124.747 92.1236 124.86 91.9908 124.86 91.8269C124.86 91.6631 124.747 91.5303 124.608 91.5303Z" fill="#003940"/>
<path d="M124.523 91.5309H118.525V91.2018C118.525 91.2018 123.773 91.0294 123.924 89.1577C123.924 89.1577 124.128 89.1125 124.258 89.2331C124.388 89.3537 124.523 89.4872 124.523 89.7245C124.523 89.9618 124.523 91.5309 124.523 91.5309Z" fill="#1F8297"/>
<path d="M184.988 81.8107H177.772L183.525 76.2197C183.455 75.9796 183.384 75.7395 183.31 75.4992L177.038 81.5956L169.618 74.384H182.964C182.859 74.0498 182.749 73.7172 182.64 73.3848H142.63V82.8099H185.213C185.139 82.4757 185.065 82.1431 184.988 81.8107ZM167.634 74.3841L160.213 81.5957L152.791 74.3841H167.634ZM143.628 74.3841H150.808L143.628 81.3607V74.3841ZM144.12 81.8107L151.763 74.3841H151.835L159.479 81.8107H144.12ZM160.947 81.8107L168.59 74.3841H168.662L176.304 81.8107H160.947Z" fill="#003940"/>
<path d="M166.18 81.8105H157.345V85.79H166.18V81.8105Z" fill="#003940"/>
<path d="M116.182 64.9277V82.809H143.628V64.9277H116.182ZM142.63 81.8098H117.181V65.9271H142.63V81.8098Z" fill="#003940"/>
<path d="M143.129 80.4404H116.681V82.3097H143.129V80.4404Z" fill="#003940"/>
<path d="M121.547 65.5752H121.214V82.4576H121.547V65.5752Z" fill="#003940"/>
<path d="M125.909 65.5752H125.576V82.4576H125.909V65.5752Z" fill="#003940"/>
<path d="M130.27 65.5752H129.938V82.4576H130.27V65.5752Z" fill="#003940"/>
<path d="M134.632 65.5752H134.299V82.4576H134.632V65.5752Z" fill="#003940"/>
<path d="M138.994 65.5752H138.661V82.4576H138.994V65.5752Z" fill="#003940"/>
<path d="M177.425 127.118C179.902 127.118 182.181 127.963 183.99 129.382C183.77 130.141 183.54 130.895 183.3 131.646C183.265 131.757 183.229 131.868 183.192 131.977C182.954 132.716 182.705 133.45 182.447 134.179C182.227 134.809 181.998 135.435 181.763 136.056C181.61 136.465 181.454 136.873 181.293 137.277C181.227 137.445 181.162 137.613 181.093 137.78C181.027 137.949 180.959 138.117 180.89 138.287C180.606 138.984 180.314 139.677 180.013 140.366C179.949 140.515 179.884 140.665 179.817 140.814C179.365 141.841 178.893 142.855 178.402 143.861C177.729 145.248 177.02 146.615 176.28 147.962C176.216 148.08 176.152 148.196 176.086 148.312C176.083 148.317 176.081 148.323 176.078 148.328C171.004 147.689 167.041 143.475 166.789 138.287C166.782 138.114 166.777 137.939 166.777 137.765C166.777 137.184 166.824 136.613 166.915 136.057C167.731 130.988 172.126 127.118 177.425 127.118Z" fill="#003940"/>
<path d="M182.447 134.179C182.227 134.809 181.998 135.435 181.763 136.057C181.611 136.465 181.454 136.873 181.293 137.277C181.228 137.445 181.162 137.613 181.093 137.78C181.028 137.949 180.959 138.117 180.89 138.287C180.606 138.984 180.314 139.677 180.013 140.366C179.949 140.515 179.884 140.665 179.817 140.814C179.365 141.841 178.893 142.855 178.403 143.861C178.084 143.911 177.758 143.938 177.425 143.938C174.197 143.938 171.539 141.448 171.273 138.287C171.258 138.114 171.251 137.941 171.251 137.765C171.251 137.172 171.335 136.599 171.492 136.057C172.234 133.482 174.614 131.593 177.425 131.593C179.493 131.593 181.327 132.614 182.447 134.179Z" fill="white"/>
<path d="M177.426 139.465C176.488 139.465 175.726 138.703 175.726 137.765C175.726 136.828 176.488 136.065 177.426 136.065C178.363 136.065 179.125 136.828 179.125 137.765C179.125 138.703 178.363 139.465 177.426 139.465Z" fill="#003940"/>
<path d="M177.425 134.097C177.041 134.097 176.729 133.784 176.729 133.4C176.729 133.016 177.041 132.703 177.425 132.703C177.81 132.703 178.122 133.016 178.122 133.4C178.122 133.784 177.81 134.097 177.425 134.097Z" fill="#003940"/>
<path d="M177.426 142.828C177.042 142.828 176.729 142.516 176.729 142.132C176.729 141.747 177.042 141.435 177.426 141.435C177.81 141.435 178.123 141.747 178.123 142.132C178.123 142.516 177.81 142.828 177.426 142.828Z" fill="#003940"/>
<path d="M173.757 137.764C173.757 138.149 173.444 138.461 173.06 138.461C172.676 138.461 172.363 138.149 172.363 137.764C172.363 137.38 172.676 137.067 173.06 137.067C173.444 137.067 173.757 137.38 173.757 137.764Z" fill="#003940"/>
<path d="M181.293 137.278C181.228 137.446 181.162 137.614 181.093 137.781V137.765C181.093 137.576 181.17 137.404 181.293 137.278Z" fill="#003940"/>
<path d="M180.019 135.172C179.748 134.9 179.748 134.458 180.019 134.186C180.291 133.914 180.733 133.914 181.005 134.186C181.277 134.458 181.277 134.9 181.005 135.172C180.733 135.444 180.291 135.444 180.019 135.172Z" fill="#003940"/>
<path d="M173.846 141.346C173.574 141.074 173.574 140.632 173.846 140.36C174.118 140.088 174.56 140.088 174.832 140.36C175.103 140.632 175.103 141.074 174.832 141.346C174.56 141.617 174.118 141.617 173.846 141.346Z" fill="#003940"/>
<path d="M174.831 135.172C174.559 135.444 174.117 135.444 173.845 135.172C173.574 134.9 173.574 134.458 173.845 134.186C174.117 133.914 174.559 133.914 174.831 134.186C175.103 134.458 175.103 134.9 174.831 135.172Z" fill="#003940"/>
<path d="M180.014 140.365C179.95 140.515 179.885 140.664 179.817 140.814C179.826 140.651 179.891 140.491 180.014 140.365Z" fill="#003940"/>
<path d="M52.8582 108.324C59.624 107.634 64.1261 107.539 69.3116 107.31C69.2728 107.179 69.1617 106.851 69.1353 106.779L69.1355 106.778C68.5912 105.215 67.7924 103.727 66.7968 102.406C66.5061 102.021 66.9713 100.25 66.547 100.484C58.3843 105.013 56.7768 105.624 52.5317 107.932C52.5431 107.928 52.7031 108.116 52.8582 108.324Z" fill="white"/>
<path d="M52.9302 108.295C53.0438 108.283 53.1575 108.271 53.2715 108.259C53.7142 108.212 63.577 107.541 63.577 107.541L65.1313 107.474C65.1313 107.474 67.5219 107.379 68.7035 107.335C68.8211 107.33 68.8623 107.328 68.9799 107.324C68.9994 107.324 69.0954 107.32 69.115 107.319C69.1804 107.317 69.2458 107.315 69.3113 107.312C69.3115 107.311 70.4518 107.337 70.4518 107.337C70.4337 107.278 69.0671 105.587 69.0525 105.555C67.992 105.729 66.5364 105.933 65.4513 106.071C65.2098 106.102 64.9678 106.132 64.7254 106.163C64.6385 106.173 64.5516 106.184 64.4647 106.195C61.2209 106.595 57.9357 106.959 54.8622 107.738C54.3147 107.876 53.7744 108.028 53.2415 108.196C53.1377 108.228 53.0337 108.261 52.9302 108.295Z" fill="white"/>
<path d="M62.0923 106.254C63.5059 106.414 67.6838 106.014 68.4619 105.83C68.4513 105.808 68.4481 105.115 68.4375 105.093C68.3881 104.99 68.3375 104.888 68.2855 104.786C68.2194 104.655 67.0017 103.303 66.4862 103.465C65.0087 103.931 63.5773 105.81 62.0923 106.254Z" fill="white"/>
<path d="M62.1484 105.597C62.2603 105.566 64.2384 104.911 64.3498 104.878C64.4311 104.855 64.5124 104.831 64.593 104.807C65.3006 104.595 65.9991 104.356 66.69 104.096C66.6572 104.046 66.624 103.996 66.5907 103.948C66.5359 103.867 66.2668 102.076 66.2101 101.997C65.4126 102.428 62.9578 105.189 62.1484 105.597Z" fill="white"/>
<path d="M61.2974 104.488C63.2146 103.995 65.0137 103.229 66.7969 102.407C66.5062 102.021 66.7069 100.466 66.7242 99.3438C66.1234 99.7142 62.9433 103.573 61.2974 104.488Z" fill="white"/>
<path d="M64.7464 104.865C64.6329 103.933 65.0702 101.952 65.3803 101.3C66.1508 99.6785 66.7683 98.9213 67.911 99.1494C68.1943 99.2059 68.3085 99.4211 68.2617 99.6388C68.1039 100.373 67.2611 100.569 66.9367 101.217C66.9269 101.237 66.9421 101.229 67.0049 101.215C67.6447 101.078 68.243 100.411 68.6705 99.9777C69.5818 99.0534 70.6757 98.2245 71.8931 98.2013C72.212 98.1952 72.1948 98.4008 72.182 98.4613C71.8243 100.18 70.481 100.064 69.5942 101.323C69.5828 101.339 69.5661 101.36 69.5996 101.354C70.1884 101.235 70.366 100.943 70.87 100.51C71.6936 99.8025 73.2737 99.0782 74.2298 98.7126C74.8262 98.4845 75.4709 98.5121 75.7727 98.6472C76.2517 98.8618 76.4315 99.1654 76.2066 99.5432C75.5763 100.602 72.564 100.531 71.4207 101.325C71.2493 101.444 70.6619 101.921 71.031 101.977C71.6837 102.076 72.5799 101.826 73.4006 101.356C73.5472 101.272 74.6542 100.379 75.7616 100.944C76.0167 101.074 75.9624 101.387 75.8343 101.557C75.2093 102.39 73.9977 102.135 72.924 102.373C72.1614 102.542 70.8321 102.751 70.3102 103.428C70.2088 103.56 70.3547 103.52 70.3791 103.532C70.9736 103.837 71.8322 103.842 72.4176 103.932C73.0524 104.031 73.376 104.421 73.5547 104.871C73.6573 105.13 73.3186 105.227 73.2995 105.234C72.6157 105.492 71.8918 104.952 71.3739 104.796C70.9028 104.654 69.7823 104.601 69.754 105.142C69.7259 105.682 70.9342 105.957 71.4488 106.175C71.8529 106.346 73.0209 106.575 73.0645 107.193C73.0769 107.369 73.0231 107.437 72.9207 107.473C71.4697 107.996 69.6584 107.23 67.9253 107.074C67.4524 107.031 65.7271 106.068 65.1941 105.657C64.9643 105.382 64.8596 105.199 64.7464 104.865Z" fill="white"/>
<path d="M71.5728 103.161C71.7001 103.107 73.3403 102.422 73.7701 102.934C73.7926 102.961 73.9488 103.147 73.9102 103.363C73.8751 103.56 73.6888 103.73 73.494 103.775C73.1703 103.849 72.9785 103.543 72.4538 103.331C72.1116 103.193 71.7959 103.163 71.5728 103.161Z" fill="white"/>
<path d="M72.3159 106.093C72.414 106.073 73.6737 105.83 73.9021 106.255C73.914 106.277 73.9971 106.432 73.9381 106.579C73.8843 106.713 73.7276 106.806 73.5835 106.809C73.3437 106.814 73.2533 106.569 72.9136 106.342C72.6921 106.194 72.4733 106.127 72.3159 106.093Z" fill="white"/>
<path d="M68.7472 99.4152C68.813 99.3398 69.6491 98.3668 69.3934 97.9574C69.38 97.9361 69.2871 97.7873 69.1299 97.7655C68.987 97.7456 68.8289 97.8358 68.7547 97.9595C68.6314 98.1651 68.7991 98.3652 68.8272 98.7727C68.8457 99.0383 68.7957 99.2616 68.7472 99.4152Z" fill="white"/>
<path d="M72.9404 98.6363C73.0504 98.5359 74.4521 97.2394 74.144 96.5908C74.1279 96.5569 74.0159 96.321 73.7869 96.262C73.5791 96.2084 73.3299 96.3147 73.199 96.485C72.9816 96.768 73.1956 97.0923 73.168 97.6997C73.15 98.0955 73.0383 98.4174 72.9404 98.6363Z" fill="white"/>
<path d="M30.2652 91.8477C30.2652 91.8477 30.9318 91.9047 31.8215 92.2576C33.0181 92.7319 34.2441 94.0673 34.6038 94.4418L32.4513 97.2104L30.001 96.6108C30.001 96.6108 30.0404 93.9663 30.2652 91.8477Z" fill="#003940"/>
<path d="M30.0103 90.7928C30.0103 90.7928 30.0506 91.1399 31.5732 91.2154C33.0957 91.2911 36.9521 90.4876 36.9799 90.2977C37.0076 90.1079 36.1055 89.6927 33.347 89.7023C30.5883 89.7117 29.9102 90.4956 30.0103 90.7928Z" fill="#003940"/>
<path d="M32.7319 89.4059C32.7319 89.4059 32.7911 92.2203 33.0225 92.6489C33.254 93.0776 34.2707 93.4313 34.6408 93.5257C35.0109 93.6201 35.3224 92.8548 35.3765 92.3714C35.4306 91.8882 35.9373 89.6413 34.8282 89.2932C33.7191 88.9452 33.1352 88.9343 32.7319 89.4059Z" fill="#F7A47A"/>
<path d="M32.247 90.8457C32.247 90.8457 31.5272 93.2322 31.3218 93.9298C31.3218 93.9298 31.6465 96.209 32.5024 96.5166C32.5024 96.5166 33.3469 96.8782 33.6454 96.1886C33.9129 95.5707 33.3086 94.2959 33.3212 94.2525C33.5543 93.447 33.9473 91.4202 33.9859 91.2277C33.9859 91.2277 32.9617 91.0028 32.247 90.8457Z" fill="#F7A47A"/>
<path d="M31.969 91.753C31.969 91.753 31.6304 91.0402 31.8603 90.1134C32.0899 89.1867 32.6298 88.924 33.318 88.875C33.318 88.875 33.7883 88.8694 33.9379 89.6709C33.9379 89.6709 33.4189 90.8076 33.2261 91.0519C33.2261 91.0522 32.3079 91.4758 31.969 91.753Z" fill="#003940"/>
<path d="M32.9433 91C32.9433 91 33.0581 91.1595 33.2445 91.2005C33.4309 91.2415 33.4309 91.2415 33.4309 91.2415C33.4309 91.2415 33.6575 90.8028 34.106 90.4517C34.5545 90.1008 34.9454 90.5449 35.2898 90.2819C35.6343 90.0188 35.3111 89.355 34.7504 88.9126C34.1896 88.4701 33.4679 88.494 33.0932 88.5094C32.7186 88.5247 32.0422 89.1123 32.0078 89.7431C32.0078 89.7431 32.2153 90.0738 32.9433 91Z" fill="#003940"/>
<path d="M32.7213 90.5265C32.8855 90.4045 33.0786 90.5067 33.2266 90.6332C33.3636 90.7505 33.4147 90.9088 33.3489 91.0343C33.1908 91.336 33.3306 91.7441 33.298 92.0957C32.1431 91.7143 32.4056 90.7613 32.7213 90.5265Z" fill="#F7A47A"/>
<path d="M32.8311 90.8326C32.923 90.826 33.0424 90.8738 33.0696 90.9524C33.0816 90.9869 33.0214 90.9982 33.0035 90.963C32.9897 90.9359 32.9562 90.9154 32.9201 90.9136C32.888 90.912 32.8551 90.9302 32.836 90.9466C32.7778 90.9967 32.7995 91.0838 32.8173 91.1518C32.8351 91.2199 32.8644 91.2881 32.9024 91.3535C32.9427 91.4232 33.0071 91.4848 33.0478 91.5535C33.0865 91.619 32.9726 91.6654 32.9089 91.6114C32.8597 91.5699 32.8286 91.5177 32.7983 91.4687C32.7702 91.4233 32.7463 91.3766 32.7262 91.3296C32.6852 91.2333 32.6562 91.1309 32.6583 91.0349C32.6602 90.9501 32.7075 90.8415 32.8311 90.8326Z" fill="#9E0B0B"/>
<path d="M33.8765 89.6818C33.8765 89.6818 34.0984 92.3222 34.1948 93.4748C34.1948 93.4748 34.2642 93.6032 34.8807 93.8517C35.4971 94.1002 36.2038 93.9264 36.2038 93.9264C36.2038 93.9264 36.2123 93.3729 36.2856 92.1036C36.3589 90.8341 36.3947 89.8752 36.3947 89.8752C36.3947 89.8752 35.5998 89.608 33.8765 89.6818Z" fill="#98C6CF"/>
<path d="M35.8585 90.8672C35.8585 90.8672 35.8915 91.4195 35.8013 93.3742C35.8013 93.3742 35.9421 93.5287 35.9983 93.2736C36.0543 93.0186 36.1599 91.2162 35.8585 90.8672Z" fill="white"/>
<path d="M30.0103 90.7927C30.0103 90.7927 29.7912 90.4741 30.1897 90.1886C30.5883 89.9031 31.6149 89.4337 34.0498 89.5279C36.4847 89.6221 37.1008 90.0024 36.9799 90.2976C36.9799 90.2976 35.5848 89.8722 33.5761 89.9205C31.5672 89.9689 30.3235 90.3439 30.0103 90.7927Z" fill="#4C9BAC"/>
<path d="M36.1896 89.8373C36.1896 89.8373 33.2001 89.4363 31.5615 89.976C31.5615 89.976 31.6702 88.7594 32.1787 88.1818C32.689 87.603 33.4152 87.5208 34.0754 87.4037C34.7352 87.288 35.4086 87.3245 35.6586 87.4156C35.7892 87.4646 35.8754 87.6155 35.9457 87.8461C36.0094 88.0563 36.0605 88.3313 36.1226 88.6559C36.2212 89.1723 36.2484 89.3839 36.2247 89.6063C36.2181 89.6787 36.2066 89.753 36.1896 89.8373Z" fill="#4C9BAC"/>
<path d="M36.225 89.6074C36.0716 89.6334 35.8821 89.6027 35.8025 89.5005C35.6971 89.3657 35.7151 89.4122 35.6135 88.8529C35.513 88.2954 35.4825 87.8631 35.6542 87.8458C35.8262 87.8272 35.946 87.8472 35.946 87.8472C36.0096 88.0575 36.0608 88.3325 36.1229 88.6571C36.2215 89.1734 36.2489 89.3851 36.225 89.6074Z" fill="white"/>
<path d="M41.3175 105.459C41.3175 105.459 47.1661 106.039 49.9787 107.825C49.9787 107.825 47.5678 110.638 46.9874 111.218C46.9874 111.218 42.4783 110.638 40.1567 109.7C40.1567 109.7 40.7818 107.513 41.3175 105.459Z" fill="#F7A47A"/>
<path d="M38.1198 104.233C37.8311 102.842 35.8992 95.8918 33.1156 97.113C30.2793 98.3571 34.1877 105.413 34.5622 105.841C34.5622 105.841 35.2541 107.251 36.9715 106.598C38.5799 105.985 38.1257 104.259 38.1198 104.233Z" fill="#FFAD0D"/>
<path d="M42.5953 108.121C41.797 110.165 41.7495 110.796 41.7495 110.796C41.7495 110.796 39.7946 109.833 37.9243 108.615C37.4523 108.308 36.0776 107.488 34.8293 106.207C34.7232 106.098 34.3135 105.057 35.0717 103.919C35.7343 102.925 36.8668 103.188 36.8668 103.188C37.3509 103.249 38.4152 103.596 39.7944 103.983C41.5145 104.467 41.6178 104.442 43.9674 105.143C43.9674 105.143 43.2164 106.531 42.5953 108.121Z" fill="#FFAD0D"/>
<path d="M39.9014 104.015C39.9014 104.015 38.311 106.84 37.8497 108.569C37.3574 108.295 36.8828 107.957 36.4336 107.606C36.4336 107.606 37.4036 105.34 38.3295 103.562C38.7522 103.693 39.3471 103.854 39.9014 104.015Z" fill="#003940"/>
<path d="M34.8311 101.736C34.5327 102.779 34.1973 103.742 33.8621 104.634C33.61 105.308 33.3545 105.939 33.1177 106.532H33.1146C32.6654 107.643 32.2564 108.624 31.9794 109.485C31.5242 110.907 31.8779 112.921 32.1826 115.032C32.2686 115.632 32.2878 116.026 32.3492 116.628C32.3646 116.798 29.7354 116.872 25.6019 116.431C22.1634 116.064 17.6522 114.447 17.718 114.288C18.0281 113.536 18.0297 113.389 18.3764 112.312C18.7097 111.278 19.2316 109.956 19.8469 108.279C20.4345 106.674 21.3082 104.739 22.2341 102.835C22.5632 102.155 22.8986 101.481 23.2308 100.826C24.7382 97.8417 26.1624 95.2669 26.5008 94.6085C26.5008 94.6085 27.2299 94.1348 29.7893 94.2794C29.7893 94.2794 32.8594 95.3039 34.0652 96.1066C34.0652 96.1066 35.7818 98.4479 34.8311 101.736Z" fill="#FFAD0D"/>
<path d="M22.4496 129.756C22.4496 129.756 20.4224 131.848 18.5916 133.777C16.7605 135.707 16.4989 136.066 16.4663 136.884C16.4663 136.884 20.9456 142.932 25.0326 145.385C29.1195 147.837 30.2966 145.597 30.1004 144.142C29.8935 142.607 26.3731 139.826 26.0789 138.682C25.7847 137.538 28.3758 135.216 28.3758 135.216C28.3758 135.216 26.7083 133.622 22.4496 129.756Z" fill="#003940"/>
<path d="M8.42481 132.904C8.42481 132.904 6.96162 134.482 5.78462 136.051C4.60761 137.621 3.98638 138.144 3.26709 140.236C3.26709 140.236 5.98075 144.454 12.3565 148.247C12.3565 148.247 15.5116 148.247 18.2417 148.247C18.2417 148.247 19.1409 144.945 16.4925 143.718C13.8441 142.492 13.133 141.193 13.648 140.138L15.2337 137.261C15.2337 137.261 13.5989 136.198 8.42481 132.904Z" fill="#003940"/>
<path d="M34.213 124.025C34.0851 122.823 33.2995 118.524 29.2778 110.296L20.2866 109.199C20.2866 109.199 18.6146 111.639 22.0959 115.915C25.5772 120.192 28.4229 125.554 28.9332 126.097C28.9332 126.097 30.3435 128.044 32.5945 127.39C34.7741 126.757 34.2167 124.056 34.213 124.025Z" fill="#FFAD0D"/>
<path d="M33.8725 126.447C32.1496 129.741 28.2284 136.172 27.2093 137.018L20.4429 131.167C24.0514 127.389 28.416 124.023 30.5646 122.77C32.4588 121.664 35.2095 124.061 33.8725 126.447Z" fill="#FFAD0D"/>
<path d="M21.5776 125.249C22.3929 123.816 25.1715 118.679 28.2291 110.168L19.6288 108.907C19.6288 108.907 18.3862 113.732 17.3628 117.862C16.3393 121.992 16.4719 124.107 16.4719 124.107C16.4719 125.588 17.6767 126.899 19.1537 126.789C20.7526 126.67 21.5108 125.39 21.5776 125.249Z" fill="#FFAD0D"/>
<path d="M21.6469 124.646C21.6284 125.049 21.0536 127.32 18.268 132.576C17.908 133.256 15.6259 137.914 15.029 138.655C15.029 138.655 9.15874 134.371 7.33154 133.129C7.33154 133.129 10.9825 128.265 11.5327 127.528C14.5311 123.514 16.3089 122.332 17.4256 121.474C17.4287 121.474 18.6661 120.215 20.7151 121.287C22.1311 122.027 21.6439 124.646 21.6469 124.646Z" fill="#FFAD0D"/>
<path d="M30.2649 91.8477C30.2649 91.8477 29.5039 93.3651 29.5039 94.5399L34.6594 97.2673C34.6594 97.2673 34.6845 95.6645 34.6035 94.4418C34.6035 94.4418 33.8177 94.3048 33.5722 94.2511C33.1154 94.1509 31.0233 92.3228 30.2649 91.8477Z" fill="#FFAD0D"/>
<path d="M17.5615 133.968C17.1722 134.802 16.8127 135.578 16.3845 136.27C13.5532 134.597 10.1967 132.554 8.7417 131.189C9.29295 130.406 9.75677 129.889 10.3258 129.139C10.3258 129.139 14.0453 131.777 17.5615 133.968Z" fill="#003940"/>
<path d="M30.2022 132.77C29.585 133.753 29.3946 134.07 28.8308 134.916C28.8308 134.916 24.2489 131.002 22.3906 129.23C23.0391 128.624 23.5935 128.072 24.2653 127.525C24.2653 127.525 28.3443 130.875 30.2022 132.77Z" fill="#003940"/>
<path d="M33.8621 104.634C33.61 105.307 33.3545 105.938 33.1177 106.532H33.1145C32.3209 106.286 24.4549 104.311 22.2339 102.834C22.563 102.154 22.8984 101.48 23.2306 100.825C23.2306 100.825 26.2884 102.397 29.1954 103.382C32.0995 104.366 33.8621 104.634 33.8621 104.634Z" fill="#003940"/>
<path d="M28.9308 95.1281C27.7939 93.3172 21.9314 95.4859 17.1574 100.507C16.7834 100.865 16.0868 101.91 16.6408 103.024C17.4175 104.587 19.206 103.772 19.2069 103.772C19.522 103.722 21.6855 102.509 24.7822 101.078C28.001 99.5905 30.1095 97.0059 28.9308 95.1281Z" fill="#FFAD0D"/>
<path d="M19.2067 103.941C19.1256 103.941 19.0542 103.882 19.0411 103.799C19.0267 103.707 19.0891 103.621 19.1807 103.607C19.4348 103.567 21.6198 102.608 24.7021 100.931C26.1341 100.152 26.968 99.549 28.0061 98.7093C28.078 98.6509 28.184 98.6621 28.2422 98.7343C28.3007 98.8065 28.2893 98.9121 28.2173 98.9704C27.1638 99.8228 26.3171 100.434 24.8627 101.226C21.9797 102.794 19.6029 103.88 19.2333 103.938C19.2244 103.94 19.2155 103.941 19.2067 103.941Z" fill="#C19C00"/>
<path d="M32.0515 115.421C31.9695 115.421 31.8976 115.361 31.8856 115.277C31.8566 115.076 31.8268 114.874 31.7969 114.672C31.5163 112.774 31.2261 110.812 31.6498 109.489C31.946 108.568 32.3602 107.517 32.7637 106.52L32.9766 105.994C33.1647 105.525 33.3421 105.082 33.5423 104.547L33.5828 104.44C33.8875 103.63 33.9901 103.357 34.2213 102.354C34.5483 100.937 34.2668 99.0294 34.2639 99.0104C34.2501 98.9187 34.3131 98.8331 34.4049 98.8193C34.4972 98.8055 34.5823 98.8685 34.5959 98.9601C34.6081 99.0405 34.8901 100.95 34.5485 102.43C34.312 103.454 34.1991 103.755 33.8969 104.558L33.8566 104.665C33.655 105.203 33.4769 105.648 33.2881 106.118L33.0743 106.647C32.6738 107.637 32.2623 108.68 31.9695 109.591C31.5696 110.839 31.854 112.763 32.129 114.623C32.1589 114.825 32.1889 115.028 32.2178 115.229C32.2311 115.321 32.1674 115.406 32.0756 115.419C32.0676 115.421 32.0596 115.421 32.0515 115.421Z" fill="#C19C00"/>
<path d="M32.4142 116.84C32.4142 116.84 28.9781 117.086 24.6467 116.649C21.4844 116.329 18.8203 115.086 17.6113 114.443C17.7682 114 18.0204 113.299 18.3772 112.312C18.3772 112.312 21.1551 114.154 24.985 114.837C28.8118 115.523 32.1834 115.031 32.1834 115.031C32.2696 115.631 32.3526 116.237 32.4142 116.84Z" fill="#003940"/>
<path d="M89.9983 148.268C87.715 148.268 85.3692 148.206 82.9597 148.08C67.5043 147.272 51.9465 144.756 39.1522 140.996C26.6534 137.323 18.1884 132.901 15.3168 128.547C13.1706 125.294 13.373 121.328 15.8864 117.382C17.708 114.522 20.5613 111.997 23.9209 110.273C27.4685 108.452 31.2746 107.722 34.6379 108.218C45.2287 109.781 52.9267 107.02 53.0033 106.992C53.4381 106.832 53.921 107.056 54.081 107.49C54.241 107.925 54.0187 108.408 53.5838 108.568C53.2561 108.689 45.4329 111.509 34.3929 109.88C27.6776 108.89 20.43 113.375 17.3032 118.284C16.0659 120.227 14.3448 124.023 16.7191 127.623C19.3342 131.588 27.6835 135.874 39.6262 139.385C52.2985 143.109 67.7191 145.601 83.0476 146.403C103.952 147.496 120.082 143.78 128.469 135.942C132.178 132.476 134.175 128.264 134.244 123.762C134.302 119.998 135.827 116.481 138.776 113.308C141.087 110.822 144.277 108.543 148.256 106.535C154.975 103.144 164.31 101.122 164.587 101.063C165.04 100.964 165.351 101.15 165.449 101.603C165.546 102.056 165.439 102.346 164.987 102.486C164.923 102.507 155.513 104.749 148.984 108.049C143.091 111.028 136.041 116.177 135.924 123.788C135.847 128.757 133.666 133.384 129.616 137.169C121.876 144.401 107.958 148.268 89.9983 148.268Z" fill="#003940"/>
<path d="M20.959 110.08C20.959 110.08 23.3996 111.24 24.1735 112.133C24.9474 113.026 24.4712 114.068 25.6021 114.336C26.733 114.604 26.7629 114.187 27.2391 114.336C27.7153 114.485 29.0844 114.752 30.7511 113.8C32.4179 112.848 32.4333 111.33 31.3243 110.705C30.2154 110.08 29.8285 109.901 29.9177 109.335C30.007 108.77 31.6142 109.157 31.7035 108.621C31.7929 108.085 31.5845 107.192 28.9653 107.133C26.3462 107.073 22.2686 107.133 22.2686 107.133C22.2686 107.133 21.9114 108.056 20.959 110.08Z" fill="#F7A47A"/>
<path d="M25.6027 106.769C23.338 109.201 22.2347 111.609 22.2347 111.609C20.2661 110.103 19.1232 108.61 18.2342 107.361C17.7821 106.727 17.5336 106.132 17.2569 105.576C16.3863 103.834 16.4669 102.298 16.4669 102.298C16.4669 102.298 16.2854 100.914 17.519 100.397C18.651 99.9203 19.6254 100.763 19.6254 100.763C19.6254 100.763 21.8099 102.787 22.6612 103.678C24.3481 105.444 25.6027 106.769 25.6027 106.769Z" fill="#FFAD0D"/>
<path d="M22.2113 111.639C22.1798 111.639 22.1483 111.63 22.12 111.612C20.4556 110.53 19.4166 109.053 18.3166 107.489L18.1152 107.203C18.0618 107.127 18.0798 107.023 18.1555 106.969C18.2314 106.916 18.3359 106.934 18.3895 107.01L18.5912 107.296C19.6721 108.832 20.6929 110.284 22.3029 111.33C22.3807 111.381 22.4027 111.485 22.3521 111.562C22.3201 111.612 22.2662 111.639 22.2113 111.639Z" fill="#C19C00"/>
<path d="M22.9523 103.985C21.6111 104.778 18.2334 107.362 18.2334 107.362C17.8199 106.763 17.496 106.059 17.2192 105.502C18.4496 104.376 20.9853 102.717 21.5605 102.578C21.9224 102.921 22.0198 103.001 22.3351 103.347C22.6085 103.647 22.6359 103.679 22.9523 103.985Z" fill="#003940"/>
<path d="M25.441 106.937C25.3972 106.937 25.3533 106.92 25.3203 106.886C25.3077 106.873 24.0459 105.568 22.3778 103.822C21.5394 102.944 20.3243 101.793 20.3123 101.781C20.2449 101.717 20.2419 101.611 20.3058 101.544C20.3699 101.476 20.4759 101.473 20.5431 101.537C20.5553 101.549 21.7763 102.706 22.6207 103.59C24.2881 105.335 25.5492 106.64 25.5618 106.653C25.6262 106.719 25.6244 106.826 25.5578 106.89C25.5251 106.922 25.4831 106.937 25.441 106.937Z" fill="#C19C00"/>
<path d="M56.845 105.228L57.5465 108.59L54.6628 108.962C54.6628 108.962 54.1276 106.785 53.9312 105.93C53.9312 105.93 54.7914 105.681 56.845 105.228Z" fill="#4C9BAC"/>
<path d="M54.2918 105.832C54.2918 105.832 51.7614 106.545 49.3044 107.193L49.1147 108.255L49.4486 109.436C49.4486 109.436 49.955 109.806 50.3816 110.005C50.3816 110.005 52.4903 109.557 54.8857 108.933C54.8857 108.933 54.5253 107.036 54.2918 105.832Z" fill="#003940"/>
<path d="M45.6035 106.515C45.6035 106.515 48.1036 105.847 49.3239 105.906C50.5442 105.966 51.0799 107.632 51.0799 107.841C51.0799 108.049 49.9786 108.227 49.4429 108.049C48.9072 107.87 48.8295 107.417 47.9399 107.156C47.9399 107.156 46.2286 106.827 45.6035 106.515Z" fill="#F7A47A"/>
<path d="M44.2562 110.776C44.2562 110.776 45.358 111.949 48.164 111.644C49.9997 111.445 50.674 110.88 50.7979 109.868C50.8993 109.041 50.4201 108.399 49.0536 108.522C47.4295 108.669 45.5111 108.657 44.7118 109.569C44.0035 110.377 44.2562 110.776 44.2562 110.776Z" fill="#F7A47A"/>
<path d="M189.608 149.193H0.503786C0.225631 149.193 0 148.968 0 148.689C0 148.411 0.225631 148.186 0.503786 148.186H189.608C189.887 148.186 190.112 148.411 190.112 148.689C190.112 148.968 189.887 149.193 189.608 149.193Z" fill="#003940"/>
</g>
<defs>
<linearGradient id="paint0_linear_2811_12542" x1="133.472" y1="89.3359" x2="131.854" y2="96.7015" gradientUnits="userSpaceOnUse">
<stop stop-color="#F7A47A"/>
<stop offset="1" stop-color="#F26721"/>
</linearGradient>
<linearGradient id="paint1_linear_2811_12542" x1="133.471" y1="94.2236" x2="131.854" y2="101.589" gradientUnits="userSpaceOnUse">
<stop stop-color="#F7A47A"/>
<stop offset="1" stop-color="#F26721"/>
</linearGradient>
<linearGradient id="paint2_linear_2811_12542" x1="133.472" y1="99.1133" x2="131.854" y2="106.479" gradientUnits="userSpaceOnUse">
<stop stop-color="#F7A47A"/>
<stop offset="1" stop-color="#F26721"/>
</linearGradient>
<linearGradient id="paint3_linear_2811_12542" x1="113.922" y1="63.752" x2="110.096" y2="68.0955" gradientUnits="userSpaceOnUse">
<stop stop-color="#F7A47A"/>
<stop offset="1" stop-color="#F26721"/>
</linearGradient>
<linearGradient id="paint4_linear_2811_12542" x1="119.54" y1="63.752" x2="115.723" y2="68.1568" gradientUnits="userSpaceOnUse">
<stop stop-color="#F7A47A"/>
<stop offset="1" stop-color="#F26721"/>
</linearGradient>
<linearGradient id="paint5_linear_2811_12542" x1="113.921" y1="68.4297" x2="109.252" y2="72.7988" gradientUnits="userSpaceOnUse">
<stop stop-color="#F7A47A"/>
<stop offset="1" stop-color="#F26721"/>
</linearGradient>
<linearGradient id="paint6_linear_2811_12542" x1="119.541" y1="68.4297" x2="114.868" y2="72.8742" gradientUnits="userSpaceOnUse">
<stop stop-color="#F7A47A"/>
<stop offset="1" stop-color="#F26721"/>
</linearGradient>
<linearGradient id="paint7_linear_2811_12542" x1="113.921" y1="73.9131" x2="110.095" y2="78.2567" gradientUnits="userSpaceOnUse">
<stop stop-color="#F7A47A"/>
<stop offset="1" stop-color="#F26721"/>
</linearGradient>
<linearGradient id="paint8_linear_2811_12542" x1="119.539" y1="73.9131" x2="115.722" y2="78.318" gradientUnits="userSpaceOnUse">
<stop stop-color="#F7A47A"/>
<stop offset="1" stop-color="#F26721"/>
</linearGradient>
<linearGradient id="paint9_linear_2811_12542" x1="132.904" y1="63.752" x2="129.079" y2="68.0955" gradientUnits="userSpaceOnUse">
<stop stop-color="#F7A47A"/>
<stop offset="1" stop-color="#F26721"/>
</linearGradient>
<linearGradient id="paint10_linear_2811_12542" x1="138.523" y1="63.752" x2="134.706" y2="68.1568" gradientUnits="userSpaceOnUse">
<stop stop-color="#F7A47A"/>
<stop offset="1" stop-color="#F26721"/>
</linearGradient>
<linearGradient id="paint11_linear_2811_12542" x1="132.905" y1="68.4297" x2="128.236" y2="72.7988" gradientUnits="userSpaceOnUse">
<stop stop-color="#F7A47A"/>
<stop offset="1" stop-color="#F26721"/>
</linearGradient>
<linearGradient id="paint12_linear_2811_12542" x1="138.522" y1="68.4297" x2="133.849" y2="72.8742" gradientUnits="userSpaceOnUse">
<stop stop-color="#F7A47A"/>
<stop offset="1" stop-color="#F26721"/>
</linearGradient>
<linearGradient id="paint13_linear_2811_12542" x1="132.904" y1="73.9131" x2="129.079" y2="78.2567" gradientUnits="userSpaceOnUse">
<stop stop-color="#F7A47A"/>
<stop offset="1" stop-color="#F26721"/>
</linearGradient>
<linearGradient id="paint14_linear_2811_12542" x1="138.522" y1="73.9131" x2="134.705" y2="78.318" gradientUnits="userSpaceOnUse">
<stop stop-color="#F7A47A"/>
<stop offset="1" stop-color="#F26721"/>
</linearGradient>
<linearGradient id="paint15_linear_2811_12542" x1="56.9149" y1="77.9229" x2="31.6726" y2="90.0183" gradientUnits="userSpaceOnUse">
<stop stop-color="#F7A47A"/>
<stop offset="1" stop-color="#F26721"/>
</linearGradient>
<linearGradient id="paint16_linear_2811_12542" x1="86.7816" y1="77.9229" x2="61.5393" y2="90.0183" gradientUnits="userSpaceOnUse">
<stop stop-color="#F7A47A"/>
<stop offset="1" stop-color="#F26721"/>
</linearGradient>
<linearGradient id="paint17_linear_2811_12542" x1="73.1945" y1="35.7598" x2="67.3688" y2="40.1896" gradientUnits="userSpaceOnUse">
<stop stop-color="#F7A47A"/>
<stop offset="1" stop-color="#F26721"/>
</linearGradient>
<linearGradient id="paint18_linear_2811_12542" x1="67.9015" y1="35.7598" x2="62.0758" y2="40.1896" gradientUnits="userSpaceOnUse">
<stop stop-color="#F7A47A"/>
<stop offset="1" stop-color="#F26721"/>
</linearGradient>
<linearGradient id="paint19_linear_2811_12542" x1="73.1945" y1="42.251" x2="67.9227" y2="46.7983" gradientUnits="userSpaceOnUse">
<stop stop-color="#F7A47A"/>
<stop offset="1" stop-color="#F26721"/>
</linearGradient>
<linearGradient id="paint20_linear_2811_12542" x1="67.9006" y1="42.251" x2="62.6287" y2="46.7983" gradientUnits="userSpaceOnUse">
<stop stop-color="#F7A47A"/>
<stop offset="1" stop-color="#F26721"/>
</linearGradient>
<linearGradient id="paint21_linear_2811_12542" x1="150.784" y1="91.8271" x2="147.365" y2="91.9015" gradientUnits="userSpaceOnUse">
<stop stop-color="#1F8297"/>
<stop offset="0.448113" stop-color="#166C7D"/>
<stop offset="1" stop-color="#003940"/>
</linearGradient>
<linearGradient id="paint22_linear_2811_12542" x1="135.742" y1="95.4365" x2="106.72" y2="101.366" gradientUnits="userSpaceOnUse">
<stop stop-color="#1F8297"/>
<stop offset="0.448113" stop-color="#166C7D"/>
<stop offset="1" stop-color="#003940"/>
</linearGradient>
<linearGradient id="paint23_linear_2811_12542" x1="150.578" y1="95.4365" x2="124.519" y2="100.177" gradientUnits="userSpaceOnUse">
<stop stop-color="#1F8297"/>
<stop offset="0.448113" stop-color="#166C7D"/>
<stop offset="1" stop-color="#003940"/>
</linearGradient>
<linearGradient id="paint24_linear_2811_12542" x1="194.57" y1="88.4346" x2="156.308" y2="116.301" gradientUnits="userSpaceOnUse">
<stop stop-color="#1F8297"/>
<stop offset="0.448113" stop-color="#166C7D"/>
<stop offset="1" stop-color="#003940"/>
</linearGradient>
<clipPath id="clip0_2811_12542">
<rect width="190.112" height="149.982" fill="white"/>
</clipPath>
</defs>
</svg>
