<svg width="126" height="126" viewBox="0 0 126 126" fill="none" xmlns="http://www.w3.org/2000/svg">
<path d="M125.174 63.0218C125.174 28.7069 97.3558 0.889211 63.041 0.889213C28.7261 0.889214 0.908443 28.7069 0.908445 63.0218C0.908446 97.3366 28.7261 125.154 63.041 125.154C97.3558 125.154 125.174 97.3366 125.174 63.0218Z" fill="url(#paint0_linear_2651_13810)"/>
<path d="M34.4601 45.442C34.3498 45.1027 34.1723 44.7902 33.9962 44.48C33.5219 43.6463 33.0046 42.7692 32.1571 42.3197C31.5004 41.9713 30.6524 41.8787 30.2249 41.2708C30.7154 40.9048 31.3568 40.8275 31.9657 40.7626C32.1762 40.7401 32.3923 40.7182 32.5975 40.7707C32.8271 40.8294 33.0222 40.9763 33.2083 41.1224C34.0678 41.7957 34.8891 42.5277 35.5667 43.3838C36.0625 44.0099 36.4767 44.6957 36.8532 45.3986C37.0441 45.7551 37.225 46.1168 37.4035 46.4795C37.5538 46.7854 37.7728 47.1103 37.7556 47.464C37.7017 48.5644 36.0286 47.8414 35.5629 47.515C35.2575 47.3007 34.9845 47.0273 34.818 46.6904C34.6247 46.2977 34.5937 45.8534 34.4601 45.442Z" fill="#98C6CF"/>
<path d="M38.3224 51.3065C38.5228 51.6558 38.8941 51.8715 39.2696 52.0161C39.6452 52.1607 40.0427 52.2518 40.4011 52.4346C40.8792 52.678 41.3297 53.0931 41.8632 53.0339C41.9324 53.0263 42.0035 53.0091 42.0584 52.9662C42.1978 52.8569 42.1753 52.6417 42.1252 52.4723C41.9119 51.7493 41.4285 51.1094 40.7919 50.7061C40.6306 50.604 40.4564 50.5138 40.3304 50.3702C40.2293 50.2547 40.1653 50.112 40.0928 49.976C39.817 49.4592 39.3126 48.7863 38.6364 49.0206C38.1849 49.1767 38.173 49.8056 38.151 50.1974C38.1301 50.573 38.1296 50.97 38.3224 51.3065Z" fill="#98C6CF"/>
<path d="M34.0172 49.7555C34.0411 49.7708 34.0659 49.7861 34.0941 49.7889C34.1241 49.7918 34.1532 49.7794 34.179 49.7646C34.3785 49.6515 34.4396 49.3967 34.4677 49.169C34.5002 48.9042 34.5111 48.6241 34.3995 48.3821C34.3093 48.1865 34.1365 48.0338 33.9371 47.956C33.8354 47.9164 33.7266 47.8958 33.6173 47.8987C33.4708 47.9025 33.4174 47.9722 33.3344 48.0819C33.2217 48.2308 33.059 48.3998 33.0728 48.6011C33.0881 48.823 33.2695 49.0416 33.4045 49.2067C33.5835 49.4253 33.7934 49.5875 34.0172 49.7555Z" fill="#98C6CF"/>
<path d="M44.1433 54.8234C44.3127 54.9083 44.4716 55.0138 44.6439 55.093C44.9006 55.2109 45.1851 55.2686 45.4676 55.26C45.4795 55.2595 45.4919 55.2591 45.5019 55.2524C45.5143 55.2443 45.52 55.2295 45.5243 55.2156C45.5931 55.0028 45.5563 54.7666 45.469 54.5604C45.3817 54.3543 45.2466 54.1725 45.113 53.993C45.0099 53.8542 44.9035 53.7124 44.757 53.6208C44.547 53.4891 44.2726 53.4614 44.0302 53.4619C43.8393 53.4624 43.6332 53.4805 43.46 53.5688C43.102 53.7506 43.1841 54.192 43.4356 54.4354C43.6327 54.6244 43.9047 54.7041 44.1433 54.8234Z" fill="#98C6CF"/>
<path d="M124.67 55.07C123.504 55.2929 122.308 55.3649 121.123 55.2785C121.227 55.7252 121.33 56.2029 121.172 56.6338C121.014 57.0642 120.482 57.3887 120.084 57.1602C119.776 56.9836 119.692 56.5861 119.638 56.2353C119.247 53.6966 118.596 50.7947 116.313 49.617C116.087 49.501 115.836 49.4037 115.586 49.4437C115.16 49.512 114.902 49.9334 114.663 50.2922C113.385 52.2173 111.042 53.3831 108.736 53.2433C108.278 53.2156 107.762 53.1583 107.418 53.4609C107.196 53.6556 107.104 53.9543 107.018 54.2363C105.626 58.7889 103.05 62.974 99.6133 66.2681C98.9953 66.8603 98.3234 67.465 98.0662 68.2815C97.5356 69.9636 98.9677 71.7106 98.7386 73.4596C98.4967 75.3069 96.5153 76.5075 96.1121 78.3261C95.8587 79.4681 96.2743 80.6401 96.6833 81.7358C97.0689 82.7694 97.4549 83.803 97.8405 84.8367C98.1402 85.6393 98.4475 86.4563 98.9801 87.1273C100.391 88.9048 102.931 89.1993 105.195 89.3558C107.189 89.4937 109.519 89.4942 110.772 87.9356C113.271 86.4878 112.813 91.9852 112.396 92.9353C111.647 94.6432 111.219 96.4915 111.143 98.355C111.107 99.2406 111.202 100.112 111.235 100.995C111.249 101.363 111.326 101.683 111.439 101.984C120.029 91.3267 125.175 77.7769 125.175 63.0236C125.175 60.3288 125.004 57.6746 124.67 55.07Z" fill="#98C6CF"/>
<path d="M29.985 113.223C30.5291 112.338 31.599 111.895 32.6345 111.809C33.67 111.722 34.7036 111.934 35.7335 112.071C38.1658 112.395 40.7355 112.277 42.9288 111.178C44.6243 110.327 46.0903 108.902 47.9642 108.609C49.4918 108.369 51.0241 108.932 52.5683 109.008C54.6332 109.109 56.6308 108.343 58.5558 107.589C58.9309 107.442 59.3246 107.281 59.5723 106.963C59.7584 106.724 59.84 106.421 59.9063 106.125C60.2814 104.458 60.5758 102.371 62.1893 101.806C62.9237 101.549 63.7368 101.714 64.5061 101.595C66.3032 101.318 67.4796 99.6145 68.3939 98.0421C68.8229 97.3043 69.2572 96.4936 69.1517 95.647C69.1068 95.2862 68.9646 94.9445 68.8029 94.6186C67.67 92.3361 65.4505 90.6235 62.9552 90.1066C62.2355 89.9577 61.4338 89.8709 60.9328 89.334C60.3592 88.7199 60.4064 87.7631 60.0791 86.989C59.3847 85.3484 57.2373 84.8903 56.112 83.5088C55.3919 82.625 55.1624 81.4549 54.8651 80.3545C54.4161 78.6914 53.7628 77.0832 52.9248 75.5781C52.658 75.099 52.3555 74.6123 51.8893 74.324C51.204 73.8998 50.3274 73.9943 49.5481 73.7891C48.1503 73.4211 47.1897 72.1212 46.6405 70.7841C46.0912 69.447 45.8354 67.9977 45.2151 66.6925C44.2201 64.599 42.2697 62.9827 40.0278 62.3943C39.2977 62.2025 38.5337 62.1118 37.8489 61.795C37.0587 61.429 36.4335 60.7905 35.7263 60.2822C33.8356 58.9246 31.2792 58.5466 29.0764 59.2987C28.6746 58.0303 27.8348 56.7805 26.5138 56.6183C26.1545 56.5744 25.7718 56.6388 25.4439 56.4861C25.0708 56.3124 24.8723 55.9063 24.7229 55.5231C24.1545 54.0657 24.0157 52.1297 25.2755 51.2029C25.7074 50.8851 26.2437 50.7415 26.7 50.4599C27.1562 50.1779 27.5513 49.6596 27.4153 49.1409C27.349 48.8866 27.1671 48.6809 26.9911 48.4862C25.9617 47.3452 24.9319 46.2042 23.9026 45.0627C23.7599 44.9043 23.6105 44.7325 23.5828 44.5211C23.549 44.262 23.7088 44.0172 23.8892 43.8277C24.4957 43.1892 25.3752 42.889 26.0643 42.3407C26.7534 41.7919 27.2297 40.7392 26.6856 40.0463C26.2385 39.4765 25.3719 39.488 24.6714 39.6731C23.9713 39.8583 23.256 40.1661 22.5492 40.0072C21.7847 39.8354 21.2231 39.1248 21.047 38.3613C20.8709 37.5978 21.0226 36.7942 21.2751 36.0526C22.5158 32.4067 26.4127 29.8575 30.2504 30.1825C30.6121 30.213 30.9876 30.2722 31.2849 30.4807C31.5579 30.6721 31.7507 30.9794 32.0604 31.104C32.3887 31.2357 32.7633 31.1274 33.1122 31.1837C33.4777 31.2428 33.7879 31.4771 34.0742 31.7124C34.8564 32.3552 35.5855 33.0619 36.2522 33.8236C36.6535 34.2817 37.0558 34.8834 36.8463 35.4556C36.7294 35.7753 36.445 35.9982 36.2321 36.2635C35.6538 36.9841 35.618 37.9843 35.6079 38.9082C35.6056 39.1167 35.6132 39.3506 35.7621 39.4971C36.0088 39.74 36.4245 39.5648 36.7017 39.3568C38.1119 38.2964 38.9985 36.5713 39.0391 34.8076C39.0505 34.3132 39.0224 33.7539 39.3683 33.4003C39.6022 33.1617 39.9496 33.0834 40.2774 33.0185C42.2554 32.6267 44.2511 32.3242 46.2563 32.1118C46.6152 32.0736 47.0031 32.0259 47.2642 31.7773C47.5028 31.5502 47.581 31.207 47.7347 30.9159C48.1356 30.1586 49.0255 29.8002 49.8702 29.6566C50.7149 29.5125 51.5943 29.5187 52.396 29.2166C53.3295 28.8644 54.0629 28.1295 54.9329 27.6404C56.5988 26.7037 58.6174 26.7342 60.5276 26.7895C60.9772 27.963 62.4245 28.4111 63.6805 28.3839C64.937 28.3567 66.2035 28.0141 67.4357 28.2598C67.418 27.3412 66.4941 26.8401 65.5784 26.7705C64.9628 26.7237 64.2322 26.7709 63.8576 26.2804C63.6715 26.037 63.6276 25.7058 63.6839 25.4047C63.8122 24.7161 64.4149 24.1936 65.0749 23.9592C65.7349 23.7249 66.4521 23.7273 67.1522 23.7326C68.6344 23.7435 70.1166 23.7545 71.5983 23.766C70.5833 24.7027 69.2533 25.2911 67.878 25.4128C67.606 25.9492 68.056 26.5977 68.5934 26.8678C69.1307 27.1379 69.7582 27.1928 70.2893 27.4753C70.6411 27.6624 70.9374 27.9425 71.2934 28.1214C71.6494 28.2999 72.1156 28.3553 72.421 28.0995C72.7241 27.8456 72.7513 27.3694 72.5914 27.0076C72.4315 26.6459 72.1271 26.372 71.8312 26.11C72.2521 25.523 72.6367 24.9098 72.9817 24.2756C73.3831 23.5388 73.7181 22.5844 73.2199 21.9096C72.8257 21.3757 72.0178 21.2082 71.7505 20.6007C71.6608 20.3969 71.6465 20.1693 71.6336 19.9469C71.5411 18.3664 71.4485 16.7859 71.3559 15.2054C70.9193 15.1114 70.4487 15.1839 70.0608 15.4053C69.9314 15.4793 69.8045 15.5714 69.6561 15.5857C69.5397 15.5972 69.4242 15.5585 69.3168 15.5122C68.6759 15.2359 68.1801 14.6437 68.0207 13.9642C67.9434 13.6354 67.9401 13.287 67.8112 12.9744C67.5421 12.3216 66.759 11.9866 66.0584 12.0744C65.3579 12.1622 64.7428 12.5936 64.2556 13.1047C64.3954 13.4264 64.0088 13.8267 63.6824 13.6988C62.99 13.768 62.6479 14.6084 62.0561 14.9754C61.4415 15.3567 60.6045 15.1686 60.0361 14.7215C59.4678 14.2744 59.1075 13.6206 58.7624 12.9849C58.4938 12.4896 58.2251 11.9947 57.956 11.4994C57.6558 10.9463 57.3475 10.304 57.567 9.71418C57.7918 9.11003 58.4718 8.82753 59.0884 8.63856C63.1804 7.38637 67.6361 7.35106 71.7477 8.53787C71.7988 8.88861 71.8503 9.23983 71.9013 9.59058C71.2466 9.92176 70.5012 10.0711 69.7697 10.0177C69.3865 10.5035 69.6308 11.215 69.9229 11.7609C70.4168 12.6853 71.0958 13.6211 72.1065 13.8983C73.1173 14.1756 74.4176 13.3786 74.2416 12.3455C74.7555 12.3512 75.2699 12.3565 75.7839 12.3622C75.9461 12.3641 76.1213 12.3617 76.2516 12.2648C76.5212 12.0649 76.4119 11.6392 76.2482 11.3462C75.9237 10.7664 75.4837 10.252 74.9612 9.84207C75.6054 9.15967 75.5882 7.96092 74.9235 7.29761C76.3785 6.73928 77.9108 6.38328 79.4627 6.24298C79.2494 7.01033 79.7729 7.77815 80.3231 8.35366C80.8733 8.92917 81.518 9.51519 81.6258 10.304C81.7924 11.5237 80.5984 12.565 80.5822 13.7962C80.5684 14.8284 81.3782 15.6926 81.57 16.7067C81.6464 17.1094 81.6311 17.5513 81.8644 17.8878C82.2438 18.4342 83.0436 18.4146 83.7041 18.3363C84.1493 18.2838 84.6108 18.2256 84.9921 17.9894C85.3733 17.7532 85.6506 17.285 85.5203 16.856C87.683 16.6647 89.8457 16.4733 92.0084 16.282C92.2561 13.2655 91.0697 10.1623 88.8727 8.08023C88.8603 7.25132 87.9097 6.80275 87.1056 6.60041C85.8725 6.29023 84.6103 6.09505 83.3409 6.01822C82.9525 5.99484 82.5206 5.96334 82.2567 5.67797C82.0563 5.46085 82.0047 5.15066 81.9103 4.87054C81.717 4.2998 81.3338 3.856 80.8623 3.48998C75.2165 1.80211 69.2352 0.891602 63.0406 0.891602C52.3512 0.891602 42.2922 3.59211 33.5082 8.34651C31.1222 12.3016 26.9987 15.0016 24.3125 18.7968C22.9515 20.72 21.9856 22.8889 21.0288 25.0415C19.9537 27.461 18.8786 29.8799 17.8034 32.2994C17.3835 33.2442 16.9597 34.2029 16.8008 35.2246C16.4114 37.7333 17.655 40.1757 18.8595 42.4104C19.1849 43.0141 19.5104 43.6173 19.8354 44.2209C20.6352 45.705 21.4364 47.1906 22.1369 48.7243C22.3626 49.2182 22.5821 49.7427 22.5406 50.2843C22.4891 50.9481 22.0515 51.5317 21.9809 52.1941C21.9174 52.7892 22.157 53.3704 22.3913 53.9211C23.0546 55.4796 23.7179 57.0377 24.3812 58.5963C24.5296 58.9446 24.7964 59.3608 25.1676 59.2834C25.5241 59.2095 25.6749 58.7094 26.0352 58.6554C26.4633 58.5915 26.6637 59.1637 26.6995 59.5951C26.7629 60.3543 26.8264 61.114 26.8899 61.8732C26.9343 62.4034 26.9767 62.9512 26.8064 63.4552C26.6059 64.0479 26.1368 64.506 25.6658 64.9178C24.1808 66.2182 22.5153 67.3143 21.1291 68.7192C19.7423 70.1246 18.6218 71.9399 18.6065 73.9141C18.5679 78.8188 21.3395 83.6247 24.0496 87.7134C24.5497 88.4684 25.0817 89.2114 25.4349 90.0451C26.4685 92.486 25.8248 95.3082 24.8327 97.7663C24.3039 99.0767 23.6711 100.381 23.5585 101.79C23.3347 104.588 25.1968 107.31 24.6909 110.072C24.5974 110.583 24.4232 111.101 24.5325 111.609C24.5516 111.697 24.5902 111.778 24.6241 111.861C26.2986 113.18 28.0438 114.413 29.8509 115.557C29.6381 114.729 29.6667 113.741 29.985 113.223Z" fill="#98C6CF"/>
<defs>
<linearGradient id="paint0_linear_2651_13810" x1="0.908444" y1="-30.2573" x2="108.301" y2="160.734" gradientUnits="userSpaceOnUse">
<stop stop-color="#1F8297"/>
<stop offset="0.448113" stop-color="#166C7D"/>
<stop offset="1" stop-color="#003940"/>
</linearGradient>
</defs>
</svg>
