<svg width="195" height="161" viewBox="0 0 195 161" fill="none" xmlns="http://www.w3.org/2000/svg">
<g clip-path="url(#clip0_2651_13810)">
<path d="M162.174 99.0218C162.174 64.7069 134.356 36.8892 100.041 36.8892C65.7261 36.8892 37.9084 64.7069 37.9084 99.0218C37.9084 133.337 65.7261 161.154 100.041 161.154C134.356 161.154 162.174 133.337 162.174 99.0218Z" fill="url(#paint0_linear_2651_13810)"/>
<path d="M71.4601 81.442C71.3498 81.1027 71.1723 80.7902 70.9962 80.48C70.5219 79.6463 70.0046 78.7692 69.1571 78.3197C68.5004 77.9713 67.6524 77.8787 67.2249 77.2708C67.7154 76.9048 68.3568 76.8275 68.9657 76.7626C69.1762 76.7401 69.3923 76.7182 69.5975 76.7707C69.8271 76.8294 70.0222 76.9763 70.2083 77.1224C71.0678 77.7957 71.8891 78.5277 72.5667 79.3838C73.0625 80.0099 73.4767 80.6957 73.8532 81.3986C74.0441 81.7551 74.225 82.1168 74.4035 82.4795C74.5538 82.7854 74.7728 83.1103 74.7556 83.464C74.7017 84.5644 73.0286 83.8414 72.5629 83.515C72.2575 83.3007 71.9845 83.0273 71.818 82.6904C71.6247 82.2977 71.5937 81.8534 71.4601 81.442Z" fill="#98C6CF"/>
<path d="M75.3224 87.3065C75.5228 87.6558 75.8941 87.8715 76.2696 88.0161C76.6452 88.1607 77.0427 88.2518 77.4011 88.4346C77.8792 88.678 78.3297 89.0931 78.8632 89.0339C78.9324 89.0263 79.0035 89.0091 79.0584 88.9662C79.1978 88.8569 79.1753 88.6417 79.1252 88.4723C78.9119 87.7493 78.4285 87.1094 77.7919 86.7061C77.6306 86.604 77.4564 86.5138 77.3304 86.3702C77.2293 86.2547 77.1653 86.112 77.0928 85.976C76.817 85.4592 76.3126 84.7863 75.6364 85.0206C75.1849 85.1767 75.173 85.8056 75.151 86.1974C75.1301 86.573 75.1296 86.97 75.3224 87.3065Z" fill="#98C6CF"/>
<path d="M71.0172 85.7555C71.0411 85.7708 71.0659 85.7861 71.0941 85.7889C71.1241 85.7918 71.1532 85.7794 71.179 85.7646C71.3785 85.6515 71.4396 85.3967 71.4677 85.169C71.5002 84.9042 71.5111 84.6241 71.3995 84.3821C71.3093 84.1865 71.1365 84.0338 70.9371 83.956C70.8354 83.9164 70.7266 83.8958 70.6173 83.8987C70.4708 83.9025 70.4174 83.9722 70.3344 84.0819C70.2217 84.2308 70.059 84.3998 70.0728 84.6011C70.0881 84.823 70.2695 85.0416 70.4045 85.2067C70.5835 85.4253 70.7934 85.5875 71.0172 85.7555Z" fill="#98C6CF"/>
<path d="M81.1433 90.8234C81.3127 90.9083 81.4716 91.0138 81.6439 91.093C81.9006 91.2109 82.1851 91.2686 82.4676 91.26C82.4795 91.2595 82.4919 91.2591 82.5019 91.2524C82.5143 91.2443 82.52 91.2295 82.5243 91.2156C82.5931 91.0028 82.5563 90.7666 82.469 90.5604C82.3817 90.3543 82.2466 90.1725 82.113 89.993C82.0099 89.8542 81.9035 89.7124 81.757 89.6208C81.547 89.4891 81.2726 89.4614 81.0302 89.4619C80.8393 89.4624 80.6332 89.4805 80.46 89.5688C80.102 89.7506 80.1841 90.192 80.4356 90.4354C80.6327 90.6244 80.9047 90.7041 81.1433 90.8234Z" fill="#98C6CF"/>
<path d="M161.67 91.07C160.504 91.2929 159.308 91.3649 158.123 91.2785C158.227 91.7252 158.33 92.2029 158.172 92.6338C158.014 93.0642 157.482 93.3887 157.084 93.1602C156.776 92.9836 156.692 92.5861 156.638 92.2353C156.247 89.6966 155.596 86.7947 153.313 85.617C153.087 85.501 152.836 85.4037 152.586 85.4437C152.16 85.512 151.902 85.9334 151.663 86.2922C150.385 88.2173 148.042 89.3831 145.736 89.2433C145.278 89.2156 144.762 89.1583 144.418 89.4609C144.196 89.6556 144.104 89.9543 144.018 90.2363C142.626 94.7889 140.05 98.974 136.613 102.268C135.995 102.86 135.323 103.465 135.066 104.281C134.536 105.964 135.968 107.711 135.739 109.46C135.497 111.307 133.515 112.508 133.112 114.326C132.859 115.468 133.274 116.64 133.683 117.736C134.069 118.769 134.455 119.803 134.84 120.837C135.14 121.639 135.447 122.456 135.98 123.127C137.391 124.905 139.931 125.199 142.195 125.356C144.189 125.494 146.519 125.494 147.772 123.936C150.271 122.488 149.813 127.985 149.396 128.935C148.647 130.643 148.219 132.491 148.143 134.355C148.107 135.241 148.202 136.112 148.235 136.995C148.249 137.363 148.326 137.683 148.439 137.984C157.029 127.327 162.175 113.777 162.175 99.0236C162.175 96.3288 162.004 93.6746 161.67 91.07Z" fill="#98C6CF"/>
<path d="M66.985 149.223C67.5291 148.338 68.5989 147.895 69.6345 147.809C70.67 147.722 71.7036 147.934 72.7335 148.071C75.1658 148.395 77.7355 148.277 79.9288 147.178C81.6243 146.327 83.0903 144.902 84.9642 144.609C86.4918 144.369 88.0241 144.932 89.5683 145.008C91.6332 145.109 93.6308 144.343 95.5558 143.589C95.9309 143.442 96.3246 143.281 96.5723 142.963C96.7584 142.724 96.84 142.421 96.9063 142.125C97.2814 140.458 97.5758 138.371 99.1893 137.806C99.9237 137.549 100.737 137.714 101.506 137.595C103.303 137.318 104.48 135.614 105.394 134.042C105.823 133.304 106.257 132.494 106.152 131.647C106.107 131.286 105.965 130.945 105.803 130.619C104.67 128.336 102.45 126.623 99.9552 126.107C99.2355 125.958 98.4338 125.871 97.9328 125.334C97.3592 124.72 97.4064 123.763 97.0791 122.989C96.3847 121.348 94.2373 120.89 93.112 119.509C92.3919 118.625 92.1624 117.455 91.8651 116.354C91.4161 114.691 90.7628 113.083 89.9248 111.578C89.658 111.099 89.3555 110.612 88.8893 110.324C88.204 109.9 87.3274 109.994 86.5481 109.789C85.1503 109.421 84.1897 108.121 83.6405 106.784C83.0912 105.447 82.8354 103.998 82.2151 102.693C81.2201 100.599 79.2697 98.9827 77.0278 98.3943C76.2977 98.2025 75.5337 98.1118 74.8489 97.795C74.0587 97.429 73.4335 96.7905 72.7263 96.2822C70.8356 94.9246 68.2792 94.5466 66.0764 95.2987C65.6746 94.0303 64.8347 92.7805 63.5138 92.6183C63.1545 92.5744 62.7718 92.6388 62.4439 92.4861C62.0708 92.3124 61.8723 91.9063 61.7229 91.5231C61.1545 90.0657 61.0157 88.1297 62.2755 87.2029C62.7074 86.8851 63.2437 86.7415 63.7 86.4599C64.1562 86.1779 64.5513 85.6596 64.4153 85.1409C64.349 84.8866 64.1671 84.6809 63.9911 84.4862C62.9617 83.3452 61.9319 82.2042 60.9026 81.0627C60.7599 80.9043 60.6105 80.7325 60.5828 80.5211C60.549 80.262 60.7088 80.0172 60.8892 79.8277C61.4957 79.1892 62.3752 78.889 63.0643 78.3407C63.7534 77.7919 64.2297 76.7392 63.6856 76.0463C63.2385 75.4765 62.3719 75.488 61.6714 75.6731C60.9713 75.8583 60.256 76.1661 59.5492 76.0072C58.7847 75.8354 58.2231 75.1248 58.047 74.3613C57.8709 73.5978 58.0226 72.7942 58.2751 72.0526C59.5158 68.4067 63.4127 65.8575 67.2504 66.1825C67.6121 66.213 67.9876 66.2722 68.2849 66.4807C68.5579 66.6721 68.7507 66.9794 69.0604 67.104C69.3887 67.2357 69.7633 67.1274 70.1122 67.1837C70.4777 67.2428 70.7879 67.4771 71.0742 67.7124C71.8564 68.3552 72.5855 69.0619 73.2522 69.8236C73.6535 70.2817 74.0558 70.8834 73.8463 71.4556C73.7294 71.7753 73.445 71.9982 73.2321 72.2635C72.6538 72.9841 72.618 73.9843 72.6079 74.9082C72.6056 75.1167 72.6132 75.3506 72.7621 75.4971C73.0088 75.74 73.4245 75.5648 73.7017 75.3568C75.1119 74.2964 75.9985 72.5713 76.0391 70.8076C76.0505 70.3132 76.0224 69.7539 76.3683 69.4003C76.6022 69.1617 76.9496 69.0834 77.2774 69.0185C79.2554 68.6267 81.2511 68.3242 83.2563 68.1118C83.6152 68.0736 84.0031 68.0259 84.2642 67.7773C84.5028 67.5502 84.581 67.207 84.7347 66.9159C85.1356 66.1586 86.0255 65.8002 86.8702 65.6566C87.7149 65.5125 88.5943 65.5187 89.396 65.2166C90.3295 64.8644 91.0629 64.1295 91.9329 63.6404C93.5988 62.7037 95.6174 62.7342 97.5276 62.7895C97.9772 63.963 99.4245 64.4111 100.681 64.3839C101.937 64.3567 103.204 64.0141 104.436 64.2598C104.418 63.3412 103.494 62.8401 102.578 62.7705C101.963 62.7237 101.232 62.7709 100.858 62.2804C100.671 62.037 100.628 61.7058 100.684 61.4047C100.812 60.7161 101.415 60.1936 102.075 59.9592C102.735 59.7249 103.452 59.7273 104.152 59.7326C105.634 59.7435 107.117 59.7545 108.598 59.766C107.583 60.7027 106.253 61.2911 104.878 61.4128C104.606 61.9492 105.056 62.5977 105.593 62.8678C106.131 63.1379 106.758 63.1928 107.289 63.4753C107.641 63.6624 107.937 63.9425 108.293 64.1214C108.649 64.2999 109.116 64.3553 109.421 64.0995C109.724 63.8456 109.751 63.3694 109.591 63.0076C109.432 62.6459 109.127 62.372 108.831 62.11C109.252 61.523 109.637 60.9098 109.982 60.2756C110.383 59.5388 110.718 58.5844 110.22 57.9096C109.826 57.3757 109.018 57.2082 108.751 56.6007C108.661 56.3969 108.647 56.1693 108.634 55.9469C108.541 54.3664 108.448 52.7859 108.356 51.2054C107.919 51.1114 107.449 51.1839 107.061 51.4053C106.931 51.4793 106.805 51.5714 106.656 51.5857C106.54 51.5972 106.424 51.5585 106.317 51.5122C105.676 51.2359 105.18 50.6437 105.021 49.9642C104.943 49.6354 104.94 49.287 104.811 48.9744C104.542 48.3216 103.759 47.9866 103.058 48.0744C102.358 48.1622 101.743 48.5936 101.256 49.1047C101.395 49.4264 101.009 49.8267 100.682 49.6988C99.99 49.768 99.6479 50.6084 99.0561 50.9754C98.4415 51.3567 97.6045 51.1686 97.0361 50.7215C96.4678 50.2744 96.1075 49.6206 95.7624 48.9849C95.4938 48.4896 95.2251 47.9947 94.956 47.4994C94.6558 46.9463 94.3475 46.304 94.567 45.7142C94.7918 45.11 95.4718 44.8275 96.0884 44.6386C100.18 43.3864 104.636 43.3511 108.748 44.5379C108.799 44.8886 108.85 45.2398 108.901 45.5906C108.247 45.9218 107.501 46.0711 106.77 46.0177C106.386 46.5035 106.631 47.215 106.923 47.7609C107.417 48.6853 108.096 49.6211 109.107 49.8983C110.117 50.1756 111.418 49.3786 111.242 48.3455C111.756 48.3512 112.27 48.3565 112.784 48.3622C112.946 48.3641 113.121 48.3617 113.252 48.2648C113.521 48.0649 113.412 47.6392 113.248 47.3462C112.924 46.7664 112.484 46.252 111.961 45.8421C112.605 45.1597 112.588 43.9609 111.923 43.2976C113.378 42.7393 114.911 42.3833 116.463 42.243C116.249 43.0103 116.773 43.7782 117.323 44.3537C117.873 44.9292 118.518 45.5152 118.626 46.304C118.792 47.5237 117.598 48.565 117.582 49.7962C117.568 50.8284 118.378 51.6926 118.57 52.7067C118.646 53.1094 118.631 53.5513 118.864 53.8878C119.244 54.4342 120.044 54.4146 120.704 54.3363C121.149 54.2838 121.611 54.2256 121.992 53.9894C122.373 53.7532 122.651 53.285 122.52 52.856C124.683 52.6647 126.846 52.4733 129.008 52.282C129.256 49.2655 128.07 46.1623 125.873 44.0802C125.86 43.2513 124.91 42.8027 124.106 42.6004C122.872 42.2902 121.61 42.0951 120.341 42.0182C119.952 41.9948 119.521 41.9633 119.257 41.678C119.056 41.4608 119.005 41.1507 118.91 40.8705C118.717 40.2998 118.334 39.856 117.862 39.49C112.217 37.8021 106.235 36.8916 100.041 36.8916C89.3512 36.8916 79.2922 39.5921 70.5082 44.3465C68.1222 48.3016 63.9987 51.0016 61.3125 54.7968C59.9515 56.72 58.9856 58.8889 58.0288 61.0415C56.9537 63.461 55.8786 65.8799 54.8034 68.2994C54.3835 69.2442 53.9597 70.2029 53.8008 71.2246C53.4114 73.7333 54.655 76.1757 55.8595 78.4104C56.1849 79.0141 56.5104 79.6173 56.8354 80.2209C57.6352 81.705 58.4364 83.1906 59.1369 84.7243C59.3626 85.2182 59.5821 85.7427 59.5406 86.2843C59.4891 86.9481 59.0515 87.5317 58.9809 88.1941C58.9174 88.7892 59.157 89.3704 59.3913 89.9211C60.0546 91.4796 60.7179 93.0377 61.3812 94.5963C61.5296 94.9446 61.7964 95.3608 62.1676 95.2834C62.5241 95.2095 62.6749 94.7094 63.0352 94.6554C63.4633 94.5915 63.6637 95.1637 63.6995 95.5951C63.7629 96.3543 63.8264 97.114 63.8899 97.8732C63.9343 98.4034 63.9767 98.9512 63.8064 99.4552C63.6059 100.048 63.1368 100.506 62.6658 100.918C61.1808 102.218 59.5153 103.314 58.1291 104.719C56.7423 106.125 55.6218 107.94 55.6065 109.914C55.5679 114.819 58.3395 119.625 61.0496 123.713C61.5497 124.468 62.0817 125.211 62.4349 126.045C63.4685 128.486 62.8248 131.308 61.8327 133.766C61.3039 135.077 60.6711 136.381 60.5585 137.79C60.3347 140.588 62.1968 143.31 61.6909 146.072C61.5974 146.583 61.4232 147.101 61.5325 147.609C61.5516 147.697 61.5902 147.778 61.6241 147.861C63.2986 149.18 65.0438 150.413 66.8509 151.557C66.6381 150.729 66.6667 149.741 66.985 149.223Z" fill="#98C6CF"/>
</g>
<defs>
<linearGradient id="paint0_linear_2651_13810" x1="37.9084" y1="5.74268" x2="145.301" y2="196.734" gradientUnits="userSpaceOnUse">
<stop stop-color="#1F8297"/>
<stop offset="0.448113" stop-color="#166C7D"/>
<stop offset="1" stop-color="#003940"/>
</linearGradient>
<clipPath id="clip0_2651_13810">
<rect width="195" height="161" fill="white"/>
</clipPath>
</defs>
</svg>
