<svg width="195" height="167" viewBox="0 0 195 167" fill="none" xmlns="http://www.w3.org/2000/svg">
<g clip-path="url(#clip0_2761_31482)">
<path d="M150.708 12.0762H148.749V20.932H150.708V12.0762Z" fill="#1F8297"/>
<path d="M170.254 12.0762H168.294V20.932H170.254V12.0762Z" fill="#1F8297"/>
<path d="M171.616 51.0875H148.596C148.177 51.0875 147.838 50.7006 147.838 50.2235V19.9753C147.838 19.4981 148.177 19.1113 148.596 19.1113H171.616C172.035 19.1113 172.374 19.4982 172.374 19.9753V50.2235C172.374 50.7006 172.035 51.0875 171.616 51.0875Z" fill="url(#paint0_linear_2761_31482)"/>
<path d="M178.803 167C178.133 167 177.586 166.363 177.579 165.569L176.291 21.7089C176.236 16.9139 172.411 13.0097 167.765 13.0097H146.524C145.848 13.0097 145.3 12.3621 145.3 11.5634C145.3 10.7647 145.848 10.1172 146.524 10.1172H167.765C173.744 10.1172 178.667 15.3017 178.74 21.6741L180.028 165.539C180.035 166.337 179.493 166.992 178.817 167C178.812 167 178.808 167 178.803 167Z" fill="#1F8297"/>
<path d="M154.873 30.4813H153.875C153.812 30.4813 153.761 30.4211 153.761 30.3468V27.7664C153.761 27.6921 153.812 27.6318 153.875 27.6318H154.873C154.936 27.6318 154.987 27.692 154.987 27.7664V30.3468C154.987 30.4211 154.936 30.4813 154.873 30.4813Z" fill="white"/>
<path d="M166.352 30.6679H167.35C167.413 30.6679 167.464 30.6077 167.464 30.5333V27.9529C167.464 27.8786 167.413 27.8184 167.35 27.8184H166.352C166.289 27.8184 166.238 27.8786 166.238 27.9529V30.5333C166.238 30.6077 166.289 30.6679 166.352 30.6679Z" fill="white"/>
<path d="M157.272 45.083H155.79C155.685 45.083 155.599 44.9822 155.599 44.8577V42.3414C155.599 42.2537 155.659 42.1826 155.734 42.1826H157.368C157.42 42.1826 157.463 42.2328 157.463 42.2947V44.8578C157.463 44.9822 157.378 45.083 157.272 45.083Z" fill="white"/>
<path d="M165.301 45.083H163.819C163.714 45.083 163.628 44.9822 163.628 44.8577V42.2874C163.628 42.2295 163.668 42.1826 163.717 42.1826H165.407C165.454 42.1826 165.492 42.2277 165.492 42.2833V44.8577C165.492 44.9822 165.407 45.083 165.301 45.083Z" fill="white"/>
<path d="M154.587 29.6651H154.108V27.275C154.108 26.6161 154.562 26.0801 155.12 26.0801H156.824V26.6461H155.12C154.826 26.6461 154.587 26.9282 154.587 27.275V29.6651Z" fill="white"/>
<path d="M166.638 29.8477H167.117V27.4576C167.117 26.7987 166.663 26.2627 166.105 26.2627H164.401V26.8287H166.105C166.399 26.8287 166.638 27.1109 166.638 27.4576V29.8477Z" fill="white"/>
<path d="M164.798 25.6336C161.995 24.7964 159.171 24.6603 156.398 25.5816C155.906 25.7452 155.531 26.2744 155.531 26.8788V41.395C155.531 41.6554 155.778 41.8918 155.999 41.8918H165.203C165.423 41.8918 165.596 41.6554 165.596 41.395V26.8589C165.596 26.2829 165.271 25.7747 164.798 25.6336ZM158.848 26.0423H162.629C162.806 26.0423 162.949 26.2113 162.949 26.4197C162.949 26.6281 162.806 26.797 162.629 26.797H158.848C158.672 26.797 158.529 26.6281 158.529 26.4197C158.529 26.2113 158.672 26.0423 158.848 26.0423ZM158.686 40.1937H156.907C156.699 40.1937 156.532 39.9665 156.532 39.722C156.532 39.4773 156.7 39.2503 156.907 39.2503H158.686C158.893 39.2503 159.061 39.4773 159.061 39.722C159.061 39.9665 158.893 40.1937 158.686 40.1937ZM164.213 40.1937H162.433C162.226 40.1937 162.058 39.9667 162.058 39.722C162.058 39.4775 162.226 39.2503 162.433 39.2503H164.213C164.42 39.2503 164.588 39.4775 164.588 39.722C164.588 39.9667 164.42 40.1937 164.213 40.1937ZM164.638 36.4303C164.638 36.715 164.426 36.9665 164.154 37.052C161.821 37.7859 159.499 37.7338 157.243 37.1148C156.816 36.9976 156.49 36.6046 156.49 36.1627V28.4871C156.49 28.1145 156.834 27.7405 157.208 27.7405H163.633C164.16 27.7405 164.638 28.2393 164.638 28.7659V36.4303Z" fill="white"/>
<path d="M116.178 93.4609H113.714V164.847H116.178V93.4609Z" fill="#1F8297"/>
<path d="M79.1629 93.4609H76.6982V164.847H79.1629V93.4609Z" fill="#1F8297"/>
<path d="M151.022 146.712H42.0176V149.636H151.022V146.712Z" fill="#A45940"/>
<path d="M42.115 93.4609H36.6172V164.847H42.115V93.4609Z" fill="#1F8297"/>
<path d="M156.52 93.4609H151.022V164.847H156.52V93.4609Z" fill="#47383A"/>
<path d="M165.812 88.5918H27.3257V93.4615H165.812V88.5918Z" fill="#1F8297"/>
<path d="M156.448 79.123H36.6882C31.517 79.123 27.3247 83.3202 27.3247 88.4974V88.5922H165.812V88.4974C165.812 83.3202 161.62 79.123 156.448 79.123Z" fill="#98C6CF"/>
<path d="M74.8057 94.9453H44.2134V145.176H74.8057V94.9453Z" fill="#BAD8DF"/>
<path d="M111.821 94.9453H81.229V145.176H111.821V94.9453Z" fill="#BAD8DF"/>
<path d="M148.862 94.9453H118.27V145.176H148.862V94.9453Z" fill="#BAD8DF"/>
<path d="M79.1629 74.9375H76.6982V90.8129H79.1629V74.9375Z" fill="#1F8297"/>
<path d="M41.8299 78.6602H39.3652V90.8128H41.8299V78.6602Z" fill="#1F8297"/>
<path d="M116.178 74.9375H113.714V90.8129H116.178V74.9375Z" fill="#1F8297"/>
<path d="M153.487 78.6602H151.022V90.8128H153.487V78.6602Z" fill="#1F8297"/>
<path d="M52.742 93.4609H51.0498V96.2147H52.742V93.4609Z" fill="#7D9894"/>
<path d="M67.9714 93.4609H66.2793V96.2147H67.9714V93.4609Z" fill="#7D9894"/>
<path d="M89.7996 93.4609H88.1074V96.2147H89.7996V93.4609Z" fill="#7D9894"/>
<path d="M105.029 93.4609H103.337V96.2147H105.029V93.4609Z" fill="#7D9894"/>
<path d="M126.797 93.4609H125.104V96.2147H126.797V93.4609Z" fill="#7D9894"/>
<path d="M142.026 93.4609H140.334V96.2147H142.026V93.4609Z" fill="#7D9894"/>
<path d="M52.742 143.799H51.0498V146.553H52.742V143.799Z" fill="#7D9894"/>
<path d="M67.9714 143.799H66.2793V146.553H67.9714V143.799Z" fill="#7D9894"/>
<path d="M89.7996 143.799H88.1074V146.553H89.7996V143.799Z" fill="#7D9894"/>
<path d="M105.029 143.799H103.337V146.553H105.029V143.799Z" fill="#7D9894"/>
<path d="M126.797 143.799H125.104V146.553H126.797V143.799Z" fill="#7D9894"/>
<path d="M142.026 143.799H140.334V146.553H142.026V143.799Z" fill="#7D9894"/>
<g opacity="0.5">
<path d="M136.522 96.8506L124.755 142.694H136.206L148.16 96.8506H136.522Z" fill="white"/>
<path d="M132.322 96.8506L120.701 142.694H123.619L135.295 96.8506H132.322Z" fill="white"/>
</g>
<g opacity="0.5">
<path d="M98.9694 96.8506L87.2021 142.694H98.6529L110.607 96.8506H98.9694Z" fill="white"/>
<path d="M94.7696 96.8506L83.1479 142.694H86.0661L97.7427 96.8506H94.7696Z" fill="white"/>
</g>
<g opacity="0.5">
<path d="M61.417 96.8506L49.6489 142.694H61.0997L73.0539 96.8506H61.417Z" fill="white"/>
<path d="M57.2164 96.8506L45.5947 142.694H48.5128L60.1895 96.8506H57.2164Z" fill="white"/>
</g>
<path d="M116.213 74.937H76.9242C76.002 74.937 75.2549 74.189 75.2549 73.2657V66.641C75.2549 65.7177 76.002 64.9697 76.9242 64.9697H116.213C117.136 64.9697 117.883 65.7177 117.883 66.641V73.2657C117.883 74.189 117.135 74.937 116.213 74.937Z" fill="#EDDFC8"/>
<path d="M116.213 75.4008H76.924C75.7479 75.4008 74.791 74.4436 74.791 73.2662V66.6414C74.791 65.464 75.7479 64.5068 76.924 64.5068H116.213C117.389 64.5068 118.345 65.464 118.345 66.6414V73.2662C118.345 74.4427 117.389 75.4008 116.213 75.4008ZM76.924 65.4335C76.2581 65.4335 75.7175 65.9748 75.7175 66.6414V73.2662C75.7175 73.932 76.2581 74.4732 76.924 74.4732H116.213C116.878 74.4732 117.419 73.932 117.419 73.2662V66.6414C117.419 65.9756 116.878 65.4335 116.213 65.4335H76.924Z" fill="#1F8297"/>
<path d="M85.3458 68.1897V68.4167C85.3458 69.0698 85.147 69.4874 84.7028 69.6957C85.2375 69.905 85.4457 70.3852 85.4457 71.0569V71.5736C85.4457 72.5537 84.9296 73.0797 83.932 73.0797H82.3643V66.7285H83.8686C84.9025 66.7294 85.3458 67.2096 85.3458 68.1897ZM83.3609 67.6366V69.3154H83.751C84.1224 69.3154 84.3491 69.1519 84.3491 68.6445V68.2905C84.3491 67.8365 84.1943 67.6374 83.8415 67.6374L83.3609 67.6366ZM83.3609 70.2226V72.1725H83.932C84.2671 72.1725 84.449 72.0183 84.449 71.5465V70.9926C84.449 70.403 84.2578 70.2218 83.8051 70.2218H83.3609V70.2226Z" fill="#1F8297"/>
<path d="M87.4477 66.7295V71.6288C87.4477 72.0829 87.6474 72.2463 87.9647 72.2463C88.2819 72.2463 88.4808 72.0829 88.4808 71.6288V66.7295H89.4233V71.5653C89.4233 72.5818 88.9148 73.162 87.9367 73.162C86.9578 73.162 86.4502 72.5809 86.4502 71.5653V66.7295H87.4477Z" fill="#1F8297"/>
<path d="M91.8967 66.6562C92.8663 66.6562 93.3647 67.2373 93.3647 68.2529V68.4528H92.4222V68.1894C92.4222 67.7354 92.2411 67.5634 91.9238 67.5634C91.6066 67.5634 91.4255 67.7362 91.4255 68.1894C91.4255 69.4956 93.374 69.7412 93.374 71.5556C93.374 72.5712 92.8664 73.1523 91.8874 73.1523C90.9094 73.1523 90.4009 72.5712 90.4009 71.5556V71.1651H91.3434V71.6191C91.3434 72.0731 91.5422 72.2366 91.8595 72.2366C92.1768 72.2366 92.3756 72.0731 92.3756 71.6191C92.3756 70.313 90.4271 70.0673 90.4271 68.2529C90.4288 67.2365 90.9271 66.6562 91.8967 66.6562Z" fill="#1F8297"/>
<path d="M97.5969 66.6562C98.5665 66.6562 99.0649 67.2373 99.0649 68.2529V68.4528H98.1224V68.1894C98.1224 67.7354 97.9413 67.5634 97.624 67.5634C97.3067 67.5634 97.1257 67.7362 97.1257 68.1894C97.1257 69.4956 99.0742 69.7412 99.0742 71.5556C99.0742 72.5712 98.5666 73.1523 97.5876 73.1523C96.6096 73.1523 96.1011 72.5712 96.1011 71.5556V71.1651H97.0436V71.6191C97.0436 72.0731 97.2424 72.2366 97.5597 72.2366C97.877 72.2366 98.0758 72.0731 98.0758 71.6191C98.0758 70.313 96.1273 70.0673 96.1273 68.2529C96.1282 67.2365 96.6265 66.6562 97.5969 66.6562Z" fill="#1F8297"/>
<path d="M99.8076 66.7295H102.889V67.6367H101.847V73.0807H100.85V67.6367H99.8076V66.7295Z" fill="#1F8297"/>
<path d="M103.695 68.2529C103.695 67.2365 104.23 66.6562 105.208 66.6562C106.187 66.6562 106.722 67.2373 106.722 68.2529V71.5556C106.722 72.5712 106.187 73.1523 105.208 73.1523C104.23 73.1523 103.695 72.5712 103.695 71.5556V68.2529ZM104.692 71.6191C104.692 72.0731 104.89 72.2451 105.208 72.2451C105.525 72.2451 105.724 72.0723 105.724 71.6191V68.1894C105.724 67.7354 105.525 67.5634 105.208 67.5634C104.89 67.5634 104.692 67.7362 104.692 68.1894V71.6191Z" fill="#1F8297"/>
<path d="M110.772 68.2991V69.125C110.772 70.1414 110.282 70.6945 109.286 70.6945H108.814V73.0807H107.817V66.7295H109.285C110.282 66.7295 110.772 67.2826 110.772 68.2991ZM108.814 67.6367V69.7873H109.286C109.603 69.7873 109.775 69.6425 109.775 69.1885V68.2355C109.775 67.7824 109.603 67.6367 109.286 67.6367H108.814Z" fill="#1F8297"/>
<path d="M135.85 138.23L135.847 138.508L135.912 138.923L136.49 139.666C136.572 139.77 136.572 139.899 136.502 139.994L136.69 140.235C136.797 140.374 136.762 140.557 136.61 140.644L136.605 140.648C136.567 140.669 136.527 140.682 136.485 140.688C136.471 140.79 136.401 140.881 136.289 140.926L136.282 140.928C136.102 141 135.882 140.926 135.791 140.764L135.138 139.61C135.137 139.607 135.136 139.603 135.133 139.599C135.127 139.588 135.123 139.577 135.119 139.566C135.115 139.556 135.111 139.547 135.109 139.536C135.106 139.526 135.104 139.517 135.103 139.507C135.101 139.495 135.099 139.483 135.099 139.471C135.099 139.468 135.098 139.464 135.098 139.46L135.103 138.201C135.104 138.024 135.268 137.888 135.47 137.899L135.478 137.9C135.681 137.911 135.85 138.052 135.85 138.23Z" fill="#E8B685"/>
<path d="M137.506 135.32L137.474 136.121C137.467 136.313 137.419 136.501 137.335 136.675L137.113 137.131C137.086 137.186 137.069 137.247 137.065 137.309L136.977 138.449C136.964 138.626 136.791 138.752 136.589 138.731L136.582 138.73C136.38 138.709 136.227 138.549 136.24 138.371L136.295 137.605L135.846 138.267L135.595 139.407L135.967 140.559C136.023 140.732 135.912 140.904 135.718 140.944L135.711 140.946C135.517 140.985 135.314 140.877 135.258 140.703C135.258 140.703 134.853 139.325 134.854 139.322C134.854 139.322 134.865 138.367 134.899 138.072C134.906 138.016 134.928 137.941 134.947 137.864C135.022 137.544 135.261 136.655 135.699 135.994L136.107 135.027L137.506 135.32Z" fill="#F2C28D"/>
<path d="M137.743 127.867L137.779 127.868C138.055 127.895 138.323 127.854 138.565 127.758C138.862 127.646 139.122 127.45 139.312 127.199C139.492 126.961 139.614 126.671 139.65 126.354C139.654 126.34 139.653 126.323 139.656 126.31L139.928 123.416L140.016 122.485L140.376 118.638C140.463 117.688 139.766 116.846 138.816 116.756L138.783 116.754C138.414 116.721 138.064 116.804 137.765 116.974C137.294 117.241 136.956 117.729 136.903 118.313L136.186 125.985C136.179 126.051 136.177 126.121 136.18 126.186C136.18 126.239 136.186 126.289 136.192 126.34C136.28 127.136 136.917 127.789 137.743 127.867Z" fill="#EDDFC8"/>
<path d="M135.61 135.386L137.344 135.717L137.57 135.759L138.041 135.848L139.577 126.875L139.586 126.821C139.637 126.569 139.624 126.318 139.567 126.085C139.532 125.944 139.484 125.814 139.417 125.69C139.309 125.48 139.157 125.298 138.969 125.151C138.759 124.983 138.504 124.858 138.217 124.801L138.179 124.794C137.33 124.631 136.508 125.122 136.232 125.919C136.2 125.998 136.178 126.085 136.161 126.17L136.142 126.552L135.61 135.386Z" fill="#EDDFC8"/>
<path d="M152.678 138.23L152.68 138.508L152.615 138.923L152.037 139.666C151.956 139.77 151.956 139.899 152.026 139.994L151.838 140.235C151.73 140.374 151.765 140.557 151.917 140.644L151.923 140.648C151.96 140.669 152 140.682 152.042 140.688C152.057 140.79 152.127 140.881 152.239 140.926L152.246 140.928C152.426 141 152.646 140.926 152.737 140.764L153.389 139.61C153.391 139.607 153.392 139.603 153.394 139.599C153.4 139.588 153.404 139.577 153.408 139.566C153.411 139.556 153.416 139.547 153.418 139.536C153.421 139.526 153.422 139.517 153.424 139.507C153.426 139.495 153.427 139.483 153.428 139.471C153.428 139.468 153.429 139.464 153.429 139.46L153.424 138.201C153.423 138.024 153.259 137.888 153.057 137.899L153.049 137.9C152.847 137.911 152.678 138.052 152.678 138.23Z" fill="#E8B685"/>
<path d="M151.022 135.32L151.054 136.121C151.061 136.313 151.109 136.501 151.193 136.675L151.415 137.131C151.443 137.186 151.459 137.247 151.464 137.309L151.552 138.449C151.565 138.626 151.738 138.752 151.94 138.731L151.947 138.73C152.149 138.709 152.302 138.549 152.289 138.371L152.234 137.605L152.682 138.267L152.934 139.407L152.561 140.559C152.506 140.732 152.617 140.904 152.811 140.944L152.818 140.946C153.012 140.985 153.215 140.877 153.27 140.703C153.27 140.703 153.676 139.325 153.675 139.322C153.675 139.322 153.664 138.367 153.63 138.072C153.623 138.016 153.6 137.941 153.582 137.864C153.507 137.544 153.268 136.655 152.83 135.994L152.422 135.027L151.022 135.32Z" fill="#F2C28D"/>
<path d="M150.786 127.867L150.749 127.868C150.473 127.895 150.205 127.854 149.963 127.758C149.666 127.646 149.406 127.45 149.216 127.199C149.036 126.961 148.914 126.671 148.878 126.354C148.874 126.34 148.875 126.323 148.872 126.31L148.6 123.416L148.512 122.485L148.152 118.638C148.065 117.688 148.762 116.846 149.712 116.756L149.745 116.754C150.114 116.721 150.464 116.804 150.763 116.974C151.234 117.241 151.572 117.729 151.625 118.313L152.342 125.985C152.348 126.051 152.351 126.121 152.348 126.186C152.348 126.239 152.342 126.289 152.336 126.34C152.248 127.136 151.611 127.789 150.786 127.867Z" fill="#EDDFC8"/>
<path d="M152.918 135.386L151.184 135.717L150.958 135.759L150.487 135.848L148.951 126.875L148.942 126.821C148.891 126.569 148.904 126.318 148.961 126.085C148.996 125.944 149.044 125.814 149.111 125.69C149.219 125.48 149.372 125.298 149.56 125.151C149.769 124.983 150.024 124.858 150.311 124.801L150.349 124.794C151.198 124.631 152.02 125.122 152.297 125.919C152.329 125.998 152.351 126.085 152.367 126.17L152.386 126.552L152.918 135.386Z" fill="#EDDFC8"/>
<path d="M145.421 162.433C145.262 162.481 145.035 162.574 145.053 164.323H152.56C152.56 161.949 147.221 161.881 145.421 162.433Z" fill="#47383A"/>
<path d="M152.559 164.122H145.052V164.846H152.559V164.122Z" fill="#47383A"/>
<path d="M150.506 116.878L150.048 128.929C150.048 129.677 149.829 131.346 149.081 131.346H139.253C139.146 131.346 139.05 131.312 138.966 131.245C138.461 130.885 138.348 129.575 138.348 128.929L137.848 118.504L137.775 116.957L142.409 114.686L146.236 114.84L150.506 116.878Z" fill="#EDDFC8"/>
<path d="M149.593 135.514L149.433 162.25L145.054 164.122L144.145 139.643L144.137 139.757L142.408 164.323H137.777L137.782 164.122V164.117L138.576 138.516L138.671 135.513C138.671 135.285 138.77 133.318 138.941 132.168C139.013 131.686 139.101 131.347 139.2 131.347H149.026C149.117 131.347 149.201 131.64 149.276 132.073C149.337 132.428 149.391 132.873 149.436 133.325C149.532 134.319 149.593 135.351 149.593 135.514Z" fill="url(#paint1_linear_2761_31482)"/>
<path d="M138.909 132.39C138.909 131.782 138.889 131.556 138.909 131.248H149.323C149.384 131.463 149.345 131.819 149.323 132.39H138.909Z" fill="#47383A"/>
<path d="M144.907 131.347H143.686V132.26H144.907V131.347Z" fill="#FBF7CF"/>
<path d="M140.091 162.434C138.812 162.434 137.776 162.575 137.776 164.323H142.405C142.406 162.495 141.37 162.434 140.091 162.434Z" fill="#47383A"/>
<path d="M142.406 164.123H137.777V164.847H142.406V164.123Z" fill="#47383A"/>
<path d="M146.235 113.521V114.841C145.967 116.108 145.612 117.439 144.082 117.439C142.682 117.439 141.966 116.04 141.929 114.841V113.521H146.235Z" fill="#E6B886"/>
<path d="M140.708 109.712L140.606 108.355C140.58 107.646 140.847 106.961 141.331 106.447C142.031 105.702 142.733 105.462 144.134 105.462H144.137H144.139C145.541 105.462 146.242 105.703 146.942 106.447C147.427 106.961 147.693 107.646 147.667 108.355L147.565 109.712C147.888 109.765 147.942 110.286 147.848 110.869C147.772 111.343 147.665 111.709 147.407 111.806C147.347 111.83 147.284 111.838 147.224 111.828C147.205 111.824 147.187 111.817 147.17 111.811C147.027 112.484 146.838 113.016 146.596 113.372C146.309 113.793 146.089 114.109 145.884 114.347C145.418 114.887 145.034 115.019 144.153 115.019C144.148 115.019 144.144 115.019 144.14 115.019H144.137H144.135C144.131 115.019 144.126 115.019 144.122 115.019C143.241 115.019 142.856 114.887 142.391 114.347C142.186 114.109 141.965 113.793 141.679 113.372C141.437 113.016 141.247 112.484 141.105 111.811C141.087 111.817 141.069 111.824 141.051 111.828C140.99 111.838 140.927 111.83 140.867 111.806C140.61 111.709 140.531 111.343 140.454 110.869C140.359 110.286 140.385 109.765 140.708 109.712Z" fill="#F2C28D"/>
<path d="M147.14 106.525C147.094 106.464 147.044 106.404 146.991 106.348C146.77 106.109 146.55 105.917 146.307 105.77C146.305 105.77 146.305 105.77 146.302 105.767C145.767 105.442 145.127 105.324 144.151 105.324H144.148C144.145 105.324 144.145 105.324 144.145 105.324C142.726 105.324 142.016 105.576 141.306 106.349C141.294 106.361 141.282 106.374 141.272 106.389C141.241 106.421 141.212 106.458 141.183 106.492C140.769 107.007 140.545 107.66 140.569 108.332L140.675 109.741C140.853 109.711 141.037 109.832 141.183 110.048V108.396C141.501 105.96 144.839 108.128 146.276 106.69C147.452 107.142 147.112 110.048 147.112 110.048C147.258 109.831 147.443 109.711 147.62 109.741L147.723 108.332C147.749 107.673 147.536 107.035 147.14 106.525Z" fill="#47383A"/>
<path opacity="0.07" d="M140.091 136.605C140.244 136.696 140.409 136.783 140.584 136.861C140.419 136.774 140.257 136.69 140.091 136.605Z" fill="black"/>
<path opacity="0.15" d="M137.775 164.122H137.782L139.495 164.323H142.407L144.136 139.757L144.143 139.643L145.053 164.122L149.433 162.248H149.397C147.45 162.193 145.877 160.636 145.802 158.688L144.73 139.767C145.129 138.483 146.434 137.552 147.768 136.768C146.009 137.831 142.606 137.776 140.584 136.862C142.084 137.649 143.515 138.554 143.684 139.725L141.837 157.828C141.62 160.27 140.296 162.478 138.246 163.816L137.783 164.118L137.775 164.122Z" fill="black"/>
<path opacity="0.1" d="M149.436 133.326C146.878 133.54 144.262 133.882 142.004 135.111C140.579 135.883 139.316 137.09 138.575 138.517L138.67 135.514C138.67 135.285 138.769 133.319 138.94 132.169C142.388 132.139 145.832 132.105 149.275 132.074C149.338 132.427 149.391 132.873 149.436 133.326Z" fill="black"/>
<path d="M49.6728 136.266L49.6703 136.544L49.7354 136.959L50.3133 137.702C50.3945 137.806 50.3945 137.935 50.3252 138.03L50.513 138.271C50.6204 138.409 50.5857 138.593 50.4334 138.68L50.4275 138.684C50.3903 138.705 50.3505 138.718 50.3082 138.724C50.2939 138.826 50.2236 138.917 50.1119 138.962L50.1052 138.964C49.9258 139.036 49.705 138.962 49.6136 138.8L48.9621 137.645C48.9604 137.642 48.9596 137.638 48.9579 137.634C48.952 137.623 48.9477 137.612 48.9435 137.601C48.9393 137.591 48.9359 137.582 48.9334 137.572C48.9308 137.562 48.9291 137.552 48.9274 137.542C48.9257 137.53 48.924 137.518 48.9232 137.506C48.9232 137.503 48.9224 137.5 48.9224 137.495L48.9274 136.236C48.9283 136.059 49.0924 135.923 49.2946 135.934L49.3023 135.935C49.5036 135.947 49.6737 136.088 49.6728 136.266Z" fill="#E8B685"/>
<path d="M51.3291 133.356L51.2978 134.157C51.2902 134.349 51.2428 134.537 51.1582 134.711L50.9365 135.167C50.9086 135.222 50.8925 135.283 50.8874 135.345L50.7994 136.485C50.7867 136.662 50.6133 136.788 50.4111 136.767L50.4035 136.766C50.2021 136.745 50.049 136.585 50.0617 136.408L50.1167 135.641L49.6682 136.302L49.417 137.443L49.7892 138.594C49.8451 138.767 49.7334 138.939 49.5396 138.979L49.5329 138.981C49.3391 139.021 49.1361 138.912 49.0802 138.739C49.0802 138.739 48.6749 137.36 48.6758 137.357C48.6758 137.357 48.6868 136.402 48.7206 136.107C48.7274 136.051 48.7502 135.976 48.7689 135.899C48.8442 135.579 49.0828 134.69 49.521 134.029L49.9288 133.062L51.3291 133.356Z" fill="#F2C28D"/>
<path d="M52.0034 116.052L50.4957 122.842L50.082 124.697L50.0448 124.868C49.8891 125.561 50.1691 126.254 50.703 126.657C50.8976 126.807 51.1269 126.915 51.3841 126.973C52.3342 127.187 53.2776 126.587 53.4891 125.633L53.7057 124.655L55.4495 116.821C55.661 115.867 55.062 114.923 54.1093 114.712C53.1583 114.5 52.2149 115.099 52.0034 116.052Z" fill="white"/>
<path d="M49.0327 133.561L49.9938 125.207C50.0801 124.236 50.9372 123.518 51.9077 123.605C52.8781 123.691 53.5956 124.549 53.5084 125.521L52.0143 134.176L49.0327 133.561Z" fill="white"/>
<path d="M66.7394 116.052L68.2471 122.842L68.6608 124.697L68.6981 124.868C68.8537 125.561 68.6202 127.017 68.0863 127.42C67.8917 127.57 67.6159 126.914 67.3579 126.973C66.4077 127.187 65.4644 126.587 65.2528 125.633L65.0362 124.655L63.2925 116.821C63.081 115.867 63.68 114.923 64.6318 114.712C65.5853 114.5 66.5287 115.099 66.7394 116.052Z" fill="white"/>
<path d="M56.6582 164.644C57.3097 164.68 58.0026 164.72 58.5052 164.453V164.026L56.5566 163.784L56.6582 164.644Z" fill="#1F8297"/>
<path d="M58.5052 164.027C55.0431 164.948 52.471 165.059 51.0369 164.528L50.9912 163.985L58.4494 163.359L58.5052 164.027Z" fill="#1F8297"/>
<path d="M58.4656 163.564C57.3724 164.238 51.6056 164.633 50.9913 163.985C50.9609 163.614 51.5624 163.21 52.6488 162.773C52.7562 162.731 52.8679 162.688 52.9864 162.643C53.0676 162.612 53.1531 162.582 53.2402 162.55C53.3536 162.509 53.4695 162.468 53.5896 162.428C53.5896 162.428 53.5896 162.428 53.5913 162.428C53.6726 162.399 53.758 162.371 53.8435 162.342H53.846C53.9636 162.303 54.0854 162.265 54.2115 162.224C54.5119 162.129 54.8291 162.033 55.1642 161.936C58.0713 161.089 58.4173 162.964 58.4656 163.564Z" fill="#A45940"/>
<path d="M54.897 162.88C54.8683 162.922 54.82 162.945 54.771 162.945C54.7422 162.945 54.7117 162.937 54.6855 162.919L53.8462 162.341C53.9638 162.302 54.0856 162.264 54.2117 162.224L54.8581 162.667C54.9275 162.715 54.9452 162.809 54.897 162.88Z" fill="#1F8297"/>
<path d="M54.2666 163.113C54.2379 163.149 54.1939 163.17 54.149 163.17C54.1144 163.17 54.0822 163.16 54.0534 163.138C53.9054 163.017 53.7387 162.901 53.5763 162.789C53.4663 162.712 53.3512 162.631 53.2412 162.55C53.3546 162.509 53.4705 162.468 53.5906 162.428C53.5906 162.428 53.5906 162.428 53.5923 162.428C53.6448 162.464 53.6981 162.503 53.7505 162.54C53.9172 162.653 54.0873 162.773 54.2438 162.9C54.3098 162.952 54.3199 163.048 54.2666 163.113Z" fill="#1F8297"/>
<path d="M53.6444 163.326C53.6139 163.367 53.5691 163.387 53.5226 163.387C53.4904 163.387 53.46 163.377 53.4312 163.357L52.6494 162.773C52.7569 162.731 52.8685 162.687 52.987 162.643L53.6148 163.113C53.6816 163.164 53.696 163.259 53.6444 163.326Z" fill="#1F8297"/>
<path d="M59.0732 162.717C56.447 162.966 54.8657 162.24 53.9062 161.701C53.9088 161.671 53.9088 161.64 53.913 161.607C54.2921 157.756 54.496 132.955 54.6939 131.973C55.0425 130.23 59.3186 130.793 59.36 132.569C59.4472 136.841 59.091 162.518 59.0732 162.717Z" fill="#CA9E67"/>
<path d="M62.0892 164.644C61.4377 164.68 60.7448 164.72 60.2422 164.453V164.026L62.1907 163.784L62.0892 164.644Z" fill="#1F8297"/>
<path d="M60.2422 164.027C63.7043 164.948 66.2764 165.059 67.7105 164.528L67.7562 163.985L60.298 163.359L60.2422 164.027Z" fill="#1F8297"/>
<path d="M60.2822 163.564C61.3754 164.238 67.1422 164.633 67.7565 163.985C67.7869 163.614 67.1854 163.21 66.099 162.773C65.9915 162.731 65.8799 162.688 65.7614 162.643C65.6802 162.612 65.5947 162.582 65.5076 162.55C65.3942 162.509 65.2783 162.468 65.1582 162.428C65.1582 162.428 65.1582 162.428 65.1565 162.428C65.0752 162.399 64.9898 162.371 64.9043 162.342H64.9026C64.785 162.303 64.6632 162.265 64.5371 162.224C64.2368 162.129 63.9195 162.033 63.5845 161.936C60.6765 161.089 60.3305 162.964 60.2822 163.564Z" fill="#A45940"/>
<path d="M63.8513 162.88C63.88 162.922 63.9283 162.945 63.9773 162.945C64.0061 162.945 64.0366 162.937 64.0628 162.919L64.9021 162.341C64.7845 162.302 64.6627 162.264 64.5366 162.224L63.8902 162.667C63.8208 162.715 63.8022 162.809 63.8513 162.88Z" fill="#1F8297"/>
<path d="M64.4811 163.113C64.509 163.149 64.5538 163.17 64.5987 163.17C64.6334 163.17 64.6655 163.16 64.6943 163.138C64.8423 163.017 65.009 162.901 65.1715 162.789C65.2815 162.712 65.3965 162.631 65.5065 162.55C65.3931 162.509 65.2772 162.468 65.1571 162.428C65.1571 162.428 65.1571 162.428 65.1554 162.428C65.103 162.464 65.0496 162.503 64.9972 162.54C64.8305 162.653 64.6596 162.773 64.5039 162.9C64.4379 162.952 64.4286 163.048 64.4811 163.113Z" fill="#1F8297"/>
<path d="M65.103 163.326C65.1335 163.367 65.1783 163.387 65.2249 163.387C65.257 163.387 65.2875 163.377 65.3162 163.357L66.098 162.773C65.9906 162.731 65.8789 162.687 65.7604 162.643L65.1327 163.113C65.0658 163.164 65.0523 163.259 65.103 163.326Z" fill="#1F8297"/>
<path d="M59.6745 162.717C62.3008 162.966 63.8821 162.24 64.8415 161.701C64.839 161.671 64.839 161.64 64.8348 161.607C64.4557 157.756 64.2518 132.955 64.0538 131.973C63.7052 130.23 59.4292 130.793 59.3877 132.569C59.3006 136.841 59.6568 162.518 59.6745 162.717Z" fill="#CA9E67"/>
<path d="M61.2924 110.979H57.4546V116.855H61.2924V110.979Z" fill="#DEAB7D"/>
<path d="M56.1686 107.299C55.9808 107.115 55.7498 107.022 55.5214 107.059C55.5112 107.061 55.5011 107.061 55.4909 107.063C55.0476 107.16 54.7946 107.728 54.9257 108.333C55.0577 108.938 55.5231 109.348 55.9672 109.252C55.9926 109.246 56.0172 109.239 56.0408 109.231L56.1686 107.299Z" fill="#FFC994"/>
<path d="M63.2813 107.064C63.2712 107.062 63.261 107.062 63.2509 107.06C63.0233 107.022 62.7923 107.116 62.6045 107.299L62.7314 109.232C62.7551 109.24 62.7796 109.248 62.8042 109.253C63.2475 109.35 63.7137 108.938 63.8457 108.334C63.9777 107.729 63.7247 107.161 63.2813 107.064Z" fill="#FFC994"/>
<path d="M54.9307 108.051C54.9155 107.989 54.9062 107.929 54.9003 107.869C54.885 108.017 54.8918 108.173 54.9265 108.333C55.0585 108.938 55.5238 109.349 55.968 109.252C55.9934 109.246 56.0179 109.24 56.0416 109.231L56.0585 108.976C55.5737 109.045 55.0745 108.64 54.9307 108.051Z" fill="#F2BB88"/>
<path d="M63.8719 107.864C63.8652 107.926 63.8541 107.988 63.8364 108.051C63.6892 108.581 63.2128 108.962 62.7153 108.983L62.7314 109.231C62.7551 109.239 62.7796 109.247 62.8042 109.252C63.2475 109.348 63.7137 108.937 63.8457 108.333C63.8812 108.171 63.888 108.012 63.8719 107.864Z" fill="#F2BB88"/>
<path d="M62.7332 109.231L62.8153 107.298L62.9168 105.663C62.9126 105.6 62.9033 105.537 62.8906 105.475C62.8788 105.419 62.4447 105.365 62.4253 105.312H55.935C55.8953 105.424 55.8673 105.541 55.8589 105.663L55.9604 107.299L56.0425 109.231L56.0383 109.293C55.9672 110.058 56.2269 110.818 56.7515 111.379L57.8615 112.567C58.0164 112.732 58.2321 112.826 58.458 112.826H60.3177C60.5436 112.826 60.7602 112.733 60.9142 112.567L62.0234 111.379C62.548 110.818 62.8085 110.058 62.7375 109.293L62.7332 109.231Z" fill="#FFC994"/>
<path d="M64.5077 125.614C64.3029 121.511 63.8748 117.737 63.077 114.51L59.4008 115.081L55.7246 114.51C54.7804 117.951 54.3243 121.686 54.189 125.614H64.5077Z" fill="white"/>
<path d="M59.4022 115.08L57.2506 117.073L55.1777 114.509L57.4554 112.897C57.5586 113.93 58.1889 114.875 59.4022 115.08C60.7694 114.84 61.2255 113.963 61.2932 112.93L63.6266 114.509L61.5538 117.073L59.4022 115.08Z" fill="#EDEDED"/>
<path d="M60.049 130.95L53.5935 130.147C53.5994 130.08 53.6036 130.013 53.6104 129.947C53.6163 129.883 53.6231 129.82 53.6273 129.757C53.6358 129.644 53.6459 129.535 53.6544 129.432C53.6586 129.401 53.6603 129.372 53.6629 129.34C53.6713 129.223 53.6815 129.112 53.6899 129.012C53.6942 128.962 53.6984 128.913 53.7026 128.868C53.7052 128.826 53.7085 128.788 53.7128 128.751C53.7128 128.74 53.7128 128.728 53.7153 128.717C53.7195 128.644 53.7255 128.579 53.7297 128.524C53.7339 128.462 53.7381 128.409 53.7398 128.369C53.7424 128.348 53.7441 128.331 53.7441 128.317C53.7458 128.296 53.7458 128.281 53.7458 128.273C53.7458 128.055 53.7441 127.846 53.7415 127.647C53.7119 125.716 53.5782 124.59 53.5723 123.726C53.5698 123.297 53.6705 122.947 53.7872 122.481C53.8896 122.064 54.0064 121.554 54.0732 120.809C54.1485 119.995 54.1629 118.899 54.0377 117.337C53.948 116.216 53.8583 115.509 53.5156 114.666L57.4533 112.896C57.422 115.858 58.4525 118.595 59.3722 121.183C59.6125 121.859 59.8443 122.524 60.049 123.181C60.2665 125.435 60.0803 128.549 60.049 130.95Z" fill="#1F8297"/>
<path d="M57.4548 112.897C57.4125 116.633 59.2806 119.947 60.0488 123.182L55.5942 117.594L56.9539 116.855L55.5942 116.621L56.1459 113.465L57.4548 112.897Z" fill="#E7CCA1"/>
<path d="M64.4796 117.799C64.3941 119.873 64.9187 122.356 65.1547 123.639C65.0608 124.605 65.0101 126.028 64.9982 128.512C64.9982 128.526 65.0008 128.565 65.0041 128.627C65.0058 128.653 65.0084 128.684 65.0101 128.717C65.0126 128.727 65.0126 128.742 65.0143 128.761C65.0185 128.797 65.0202 128.836 65.0228 128.878C65.0244 128.922 65.0287 128.968 65.0329 129.019C65.0371 129.06 65.0414 129.113 65.0473 129.171C65.0515 129.219 65.0558 129.269 65.06 129.322C65.0642 129.376 65.0701 129.439 65.0744 129.512C65.0803 129.588 65.0871 129.667 65.0955 129.751C65.1014 129.814 65.1082 129.879 65.1124 129.944C65.1167 130.008 65.1226 130.077 65.1294 130.147L58.4589 131.202C58.4276 128.8 58.475 125.435 58.6941 123.183C58.8972 122.526 59.1307 121.863 59.371 121.185C60.2907 118.596 61.3212 115.86 61.2873 112.897L65.5845 114.766C64.8222 115.341 64.5295 116.487 64.4796 117.799Z" fill="#1F8297"/>
<path d="M61.2884 112.897C61.3307 116.633 59.4626 119.947 58.6943 123.182L63.1489 117.594L61.7893 116.855L63.1489 116.621L62.5973 113.465L61.2884 112.897Z" fill="#E7CCA1"/>
<path d="M59.4099 112.136C59.1815 112.144 58.079 112.12 57.3641 110.952C56.9351 110.251 56.5671 109.93 56.4859 109.069L56.3141 107.235L55.9351 106.91L56.0324 109.73C55.9918 110.725 56.2473 111.718 56.7904 112.479C56.9377 112.685 57.0984 112.884 57.271 113.073C57.689 113.534 58.2229 113.822 58.7914 113.891C59.0021 113.911 59.2119 113.92 59.4226 113.918C59.6324 113.914 59.8422 113.9 60.0529 113.873C60.6198 113.789 61.1477 113.486 61.5564 113.013C61.7247 112.818 61.8813 112.616 62.0251 112.406C62.5531 111.63 62.7891 110.63 62.7282 109.637L62.8348 107.023L62.3974 107.151L62.262 108.989C62.1985 109.852 61.8457 110.182 61.4303 110.896C60.7408 112.083 59.6383 112.138 59.4099 112.136Z" fill="#A45940"/>
<path d="M61.9649 101.363H56.8411C56.6516 101.363 56.4654 101.523 56.4248 101.724L55.6396 105.63H63.1672L62.382 101.724C62.3406 101.523 62.1544 101.363 61.9649 101.363Z" fill="#1F8297"/>
<path d="M67.1887 106.229H51.6167L55.6702 105.475H63.1199L67.1887 106.229Z" fill="#1F8297"/>
<path d="M63.044 104.66H55.7483L55.4868 105.474H63.3046L63.044 104.66Z" fill="#E7CCA1"/>
<path d="M59.5979 124.472C59.5979 124.634 59.4668 124.766 59.3043 124.766C59.1419 124.766 59.0107 124.634 59.0107 124.472C59.0107 124.309 59.1427 124.178 59.3043 124.178C59.4668 124.178 59.5979 124.309 59.5979 124.472Z" fill="#7D9894"/>
<path d="M59.5979 128.887C59.5979 129.049 59.4668 129.181 59.3043 129.181C59.1419 129.181 59.0107 129.049 59.0107 128.887C59.0107 128.724 59.1427 128.593 59.3043 128.593C59.4668 128.593 59.5979 128.724 59.5979 128.887Z" fill="#575756"/>
<path d="M65.155 131.831L64.9629 132.969L64.2379 137.234H54.5342C54.5317 137.221 54.53 137.211 54.5283 137.198C54.332 136.068 54.1501 135.03 53.9809 134.044C53.8447 133.28 53.7195 132.549 53.5942 131.831H65.155Z" fill="#CA9E67"/>
<path d="M65.153 130.025V131.83C64.9804 131.86 64.8078 131.894 64.6301 131.919C61.1959 132.493 57.8039 132.544 54.4586 131.987C54.1675 131.941 53.8815 131.886 53.5947 131.831V130.026C53.599 130.026 53.599 130.026 53.6032 130.026C54.0245 130.098 54.4459 130.157 54.8715 130.212C56.0636 130.363 57.2565 130.457 58.4529 130.482C58.9884 130.499 59.5232 130.503 60.0579 130.49C61.3981 130.465 62.7374 130.36 64.0818 130.182C64.427 130.14 64.7731 130.085 65.1183 130.03C65.1318 130.03 65.1403 130.025 65.153 130.025Z" fill="#A45940"/>
<path opacity="0.2" d="M55.4916 127.549L54.8722 130.211L54.8511 130.304L54.4974 131.831L54.4594 131.987C54.1683 131.94 53.8823 131.886 53.5955 131.831V130.148C53.5997 130.106 53.604 130.068 53.604 130.026C53.604 130.001 53.6082 129.975 53.6082 129.95C53.6167 129.882 53.6209 129.819 53.6251 129.76C53.6378 129.647 53.6463 129.537 53.6547 129.436C53.659 129.402 53.659 129.372 53.6632 129.343C53.6717 129.225 53.6801 129.115 53.6886 129.014C53.6928 128.963 53.697 128.916 53.7013 128.871C53.7055 128.828 53.7097 128.79 53.714 128.752V128.718C53.7182 128.646 53.7266 128.579 53.7309 128.524C53.7351 128.461 53.7393 128.411 53.7393 128.373C53.7436 128.352 53.7436 128.335 53.7436 128.318C53.7478 128.296 53.7478 128.284 53.7478 128.275C53.7478 128.056 53.7436 127.849 53.7436 127.651C53.7436 127.587 53.7436 127.529 53.7393 127.47C53.7266 125.648 53.6759 124.559 53.5752 123.728L53.7901 122.484L54.0769 120.814C54.1192 120.194 54.1361 119.586 54.1277 118.983V118.928C54.1277 118.865 54.1235 118.805 54.1235 118.743C54.1192 118.654 54.1192 118.566 54.1108 118.481C54.1108 118.392 54.1065 118.3 54.0981 118.215C54.0981 118.117 54.0896 118.025 54.0854 117.932C54.0769 117.789 54.0642 117.649 54.0515 117.506L55.4916 127.549Z" fill="#1D1D1B"/>
<path opacity="0.2" d="M65.1534 131.83V130.408L65.128 130.146C65.1238 130.104 65.1238 130.066 65.1196 130.029C65.1153 130.003 65.1153 129.974 65.1111 129.944C65.1069 129.876 65.1026 129.814 65.0942 129.75C65.0857 129.665 65.0815 129.586 65.073 129.509C65.073 129.437 65.0646 129.375 65.0603 129.32C65.0561 129.269 65.0519 129.218 65.0476 129.172C65.0434 129.113 65.0392 129.059 65.035 129.016C65.0307 128.97 65.0265 128.923 65.0223 128.878C65.0223 128.835 65.018 128.798 65.0138 128.76C65.0138 128.743 65.0138 128.726 65.0096 128.717C65.0096 128.684 65.0053 128.654 65.0053 128.629C65.0011 128.565 64.9969 128.528 64.9969 128.511C65.0096 126.031 65.0603 124.604 65.1526 123.639C64.9165 122.356 64.3945 119.872 64.4782 117.8L63.248 127.549L64.0823 130.181L64.1204 130.303L64.6009 131.83L64.6305 131.919L65.1534 131.83Z" fill="#1D1D1B"/>
<path d="M56.9029 128.213L56.6279 128.448L56.7735 128.618L61.0639 134.119L61.4962 134.154L61.7712 133.919L65.6209 130.627L60.7517 124.921L56.9029 128.213Z" fill="#7D9894"/>
<path d="M56.6959 128.206L56.4209 128.441L56.5664 128.611L61.1445 133.977L61.4483 134.012L61.565 133.912L65.4138 130.621L60.7071 125.104L60.3526 125.079L56.6959 128.206Z" fill="#CBBBA0"/>
<path d="M60.3274 124.889L56.4775 128.181L61.3463 133.887L65.1962 130.595L60.3274 124.889Z" fill="#BAD8DF"/>
<path d="M61.1623 132.829L57.4844 128.518C57.6705 128.359 57.6925 128.079 57.5334 127.892L59.872 125.893C60.0311 126.079 60.3111 126.101 60.4972 125.942L64.1751 130.252C63.989 130.412 63.967 130.692 64.1261 130.878L61.7875 132.878C61.6284 132.692 61.3484 132.67 61.1623 132.829Z" fill="#7D9894"/>
<path d="M56.4739 128.178L56.1992 128.413L61.0688 134.119L61.3434 133.884L56.4739 128.178Z" fill="#7D9894"/>
<path d="M56.4749 128.179L56.2002 128.414L56.3458 128.585L56.6205 128.35L56.4749 128.179Z" fill="#7D9894"/>
<path d="M61.1975 133.713L60.9229 133.948L61.0685 134.119L61.3432 133.884L61.1975 133.713Z" fill="#7D9894"/>
<path d="M61.65 128.56L59.8892 130.065L60.1233 130.34L61.8841 128.834L61.65 128.56Z" fill="#396C85"/>
<path d="M61.6824 129.325L60.6196 130.233L60.8537 130.508L61.9165 129.599L61.6824 129.325Z" fill="#396C85"/>
<path d="M63.0754 130.657L61.7207 131.815L61.8757 131.997L63.2304 130.838L63.0754 130.657Z" fill="#7D9894"/>
<path d="M60.1573 129.955L60.1522 129.949C60.016 129.797 59.7824 129.783 59.6293 129.919L58.2367 131.145C58.0835 131.281 58.07 131.515 58.2062 131.669L58.2113 131.675C58.3475 131.827 58.581 131.841 58.7342 131.705L60.1268 130.478C60.2791 130.342 60.2926 130.107 60.1573 129.955Z" fill="#E8B685"/>
<path d="M60.4096 130.736L60.4045 130.73C60.2607 130.569 60.0195 130.547 59.8673 130.683L58.4746 131.91C58.3223 132.046 58.3147 132.287 58.4594 132.449L58.4645 132.455C58.6083 132.617 58.8494 132.638 59.0017 132.502L60.3944 131.276C60.5467 131.14 60.5534 130.898 60.4096 130.736Z" fill="#E8B685"/>
<path d="M61.1321 131.129L61.127 131.123C60.9882 130.967 60.7522 130.951 60.599 131.088L59.2072 132.314C59.0549 132.451 59.0431 132.687 59.1819 132.843L59.1869 132.849C59.3257 133.005 59.5618 133.021 59.7149 132.884L61.1075 131.658C61.259 131.522 61.2708 131.285 61.1321 131.129Z" fill="#E8B685"/>
<path d="M60.9704 129.539C60.9695 129.536 60.9678 129.533 60.967 129.531C60.879 129.323 60.6328 129.251 60.4221 129.355C59.6065 129.746 58.7782 130.036 57.9558 130.23C57.7426 130.283 57.6072 130.493 57.6478 130.711C57.6487 130.713 57.6487 130.716 57.6495 130.718C57.6901 130.936 57.9025 131.077 58.1292 131.022C58.9939 130.822 59.8645 130.523 60.7216 130.12C60.9458 130.012 61.0583 129.745 60.9704 129.539Z" fill="#E8B685"/>
<path d="M61.3687 131.832L61.3645 131.827C61.2435 131.692 61.0362 131.679 60.9008 131.8L59.8873 132.738C59.7519 132.859 59.74 133.066 59.8602 133.203L59.8644 133.208C59.9854 133.343 60.1927 133.356 60.3289 133.235L61.3425 132.297C61.477 132.176 61.4889 131.968 61.3687 131.832Z" fill="#E8B685"/>
<path d="M61.9921 128.509L60.5132 129.827L61.7821 131.255L63.261 129.937L61.9921 128.509Z" fill="#FFC994"/>
<path d="M60.4562 132.658L60.4519 132.652C60.331 132.517 60.3437 132.309 60.479 132.187L60.3893 132.268C60.2371 132.404 60.0027 132.391 59.8665 132.237L59.8614 132.231C59.7252 132.079 59.7387 131.844 59.8919 131.708L59.8089 131.783C59.6566 131.919 59.4223 131.905 59.2861 131.752L59.281 131.746C59.1448 131.593 59.1583 131.359 59.3114 131.223C59.1591 131.359 58.9248 131.345 58.7894 131.192L58.7843 131.186C58.6481 131.034 58.6617 130.799 58.8148 130.663L59.3817 130.158L59.4823 130.068L60.0467 129.565C60.496 129.164 61.1847 129.205 61.584 129.655L62.0688 130.2C62.469 130.65 62.4284 131.34 61.9791 131.739L61.4148 132.242L61.3141 132.332L60.9198 132.683C60.7845 132.806 60.5772 132.794 60.4562 132.658Z" fill="#F2C28D"/>
<path d="M62.3688 131.616L67.8437 127.637C68.6289 127.058 68.7964 125.953 68.2194 125.167C67.6415 124.381 66.5374 124.213 65.7522 124.791L60.6284 129.261L62.3688 131.616Z" fill="white"/>
<path opacity="0.1" d="M60.0005 162.69L58.69 162.946L58.4505 137.112L56.4707 135.557C58.371 136.761 60.3296 136.743 62.3441 135.557L60.157 137.233L60.0005 162.69Z" fill="#1D1D1B"/>
<path d="M124.197 125.35V126.55C124.197 128.053 119.918 128.053 119.918 126.55V125.35C120.344 125.847 120.717 126.061 121.334 126.135C121.54 126.161 121.772 126.173 122.045 126.173H122.069C122.342 126.173 122.574 126.161 122.779 126.135C123.397 126.061 123.77 125.847 124.197 125.35Z" fill="#F2C28D"/>
<path d="M127.475 163.82H122.539C122.539 163.742 122.539 163.674 122.548 163.606C122.606 162.24 122.868 161.174 123.245 160.292H126.526C126.759 161.494 127.426 161.852 127.465 163.616C127.475 163.684 127.475 163.751 127.475 163.82Z" fill="#CF8051"/>
<path d="M127.473 163.817H122.538V164.847H127.473V163.817Z" fill="#4A3A31"/>
<path d="M125.156 160.523H124.854V162.159H125.156V160.523Z" fill="#4A3A31"/>
<path d="M125.823 161.855H124.189V162.159H125.823V161.855Z" fill="#4A3A31"/>
<path d="M125.823 161.341H124.189V161.643H125.823V161.341Z" fill="#4A3A31"/>
<path d="M125.823 160.825H124.189V161.128H125.823V160.825Z" fill="#4A3A31"/>
<path d="M127.475 163.82H122.539C122.539 163.752 122.539 163.693 122.548 163.634C122.683 162.744 123.729 162.057 125.007 162.057C126.284 162.057 127.339 162.752 127.465 163.642C127.475 163.701 127.475 163.761 127.475 163.82Z" fill="#98C6CF"/>
<path d="M116.599 163.82H121.535C121.535 163.742 121.535 163.674 121.526 163.606C121.468 162.24 121.206 161.174 120.829 160.292H117.548C117.315 161.494 116.648 161.852 116.609 163.616C116.599 163.684 116.599 163.751 116.599 163.82Z" fill="#CF8051"/>
<path d="M121.536 163.817H116.601V164.847H121.536V163.817Z" fill="#4A3A31"/>
<path d="M119.22 160.523H118.917V162.159H119.22V160.523Z" fill="#4A3A31"/>
<path d="M119.886 161.855H118.252V162.159H119.886V161.855Z" fill="#4A3A31"/>
<path d="M119.886 161.341H118.252V161.643H119.886V161.341Z" fill="#4A3A31"/>
<path d="M119.886 160.825H118.252V161.128H119.886V160.825Z" fill="#4A3A31"/>
<path d="M116.599 163.82H121.535C121.535 163.752 121.535 163.693 121.526 163.634C121.391 162.744 120.345 162.057 119.067 162.057C117.79 162.057 116.735 162.752 116.609 163.642C116.599 163.701 116.599 163.761 116.599 163.82Z" fill="#98C6CF"/>
<path d="M116.858 139.403V132.148H113.725L113.859 137.358C113.898 138.873 115.399 139.913 116.829 139.414L116.858 139.403Z" fill="#F2C28D"/>
<path d="M127.257 139.403V132.148H130.39L130.248 137.327C130.21 138.697 128.963 139.712 127.616 139.469L127.257 139.403Z" fill="#E6B37C"/>
<path d="M127.257 141.195H116.858V147.447H127.257V141.195Z" fill="url(#paint2_linear_2761_31482)"/>
<path d="M130.39 130.839V132.148H127.257V142.28H116.858V132.148H113.724V130.839C113.724 129.697 114.458 128.685 115.539 128.326L116.465 127.95L117.84 127.394L119.25 126.821L119.917 126.551C119.917 128.054 124.196 128.054 124.196 126.551L124.863 126.821L128.574 128.327C129.659 128.685 130.39 129.698 130.39 130.839Z" fill="#4C9BAC"/>
<path d="M116.858 132.05H113.725V132.894H116.858V132.05Z" fill="#CF8051"/>
<path d="M130.389 132.05H127.257V132.894H130.389V132.05Z" fill="#CF8051"/>
<path d="M124.878 126.968C124.878 127.76 123.615 128.404 122.058 128.404C120.5 128.404 119.237 127.76 119.237 126.968C119.237 126.918 119.243 126.868 119.251 126.821L119.918 126.551C119.918 128.054 124.197 128.054 124.197 126.551L124.864 126.821C124.873 126.868 124.878 126.918 124.878 126.968Z" fill="#CF8051"/>
<path d="M127.257 141.918H116.858V143.249H127.257V141.918Z" fill="#1F8297"/>
<path d="M122.592 143.495H121.524C121.306 143.495 121.13 143.318 121.13 143.101V142.067C121.13 141.849 121.307 141.673 121.524 141.673H122.592C122.809 141.673 122.985 141.85 122.985 142.067V143.101C122.985 143.318 122.808 143.495 122.592 143.495ZM121.524 141.988C121.481 141.988 121.445 142.024 121.445 142.067V143.101C121.445 143.144 121.481 143.18 121.524 143.18H122.592C122.635 143.18 122.67 143.144 122.67 143.101V142.067C122.67 142.024 122.635 141.988 122.592 141.988H121.524Z" fill="#CBBBA0"/>
<path d="M120.34 160.686H118.095C117.413 160.686 116.858 160.131 116.858 159.447V146.049C116.858 144.757 117.904 143.71 119.194 143.71H119.242C120.532 143.71 121.578 144.757 121.578 146.049V159.447C121.577 160.131 121.024 160.686 120.34 160.686Z" fill="#1F8297"/>
<path d="M126.02 160.686H123.775C123.092 160.686 122.538 160.131 122.538 159.447V146.049C122.538 144.757 123.583 143.71 124.874 143.71H124.921C126.211 143.71 127.257 144.757 127.257 146.049V159.447C127.257 160.131 126.703 160.686 126.02 160.686Z" fill="#1F8297"/>
<path opacity="0.5" d="M118.905 121.224C118.884 121.192 118.86 121.165 118.836 121.138C118.859 121.159 118.881 121.181 118.905 121.204V121.224Z" fill="#7D4E24"/>
<path opacity="0.5" d="M125.209 121.224C125.231 121.192 125.254 121.165 125.278 121.138C125.256 121.159 125.233 121.181 125.209 121.204V121.224Z" fill="#7D4E24"/>
<path d="M125.738 120.914C125.736 120.914 125.734 120.914 125.732 120.914C125.713 120.911 125.695 120.911 125.676 120.911C125.672 120.911 125.668 120.911 125.663 120.911C125.644 120.911 125.625 120.915 125.607 120.919C125.603 120.92 125.6 120.92 125.597 120.921C125.536 120.937 125.476 120.972 125.413 121.019C125.37 121.052 125.325 121.092 125.277 121.137C125.253 121.165 125.23 121.191 125.208 121.223V121.204C125.202 121.21 125.195 121.217 125.187 121.225L125.202 119.567C125.202 119.491 125.192 119.417 125.18 119.344C124.002 119.911 123.041 119.465 122.126 119.044C122.126 119.044 119.991 117.956 118.933 119.344C118.92 119.417 118.911 119.491 118.911 119.567L118.926 121.224C118.919 121.216 118.912 121.211 118.905 121.204V121.223C118.884 121.191 118.86 121.164 118.837 121.137C118.789 121.092 118.744 121.052 118.701 121.019C118.639 120.972 118.579 120.937 118.518 120.921C118.514 120.92 118.511 120.92 118.507 120.919C118.489 120.915 118.471 120.911 118.452 120.911C118.447 120.911 118.442 120.911 118.438 120.911C118.419 120.911 118.401 120.911 118.382 120.915C118.381 120.915 118.378 120.914 118.376 120.914C118.036 120.97 117.842 121.513 117.941 122.128C118.022 122.627 118.271 123.017 118.542 123.12C118.606 123.145 118.672 123.153 118.736 123.142C118.755 123.139 118.775 123.131 118.794 123.125C118.944 123.834 119.143 124.394 119.397 124.768C119.7 125.211 119.931 125.544 120.147 125.796C120.514 126.222 120.834 126.408 121.364 126.473C121.54 126.495 121.739 126.504 121.97 126.504C121.975 126.504 121.981 126.504 121.986 126.504C121.992 126.504 121.997 126.504 122.003 126.504C122.021 126.504 122.038 126.503 122.056 126.503C122.074 126.503 122.091 126.504 122.109 126.504C122.114 126.504 122.119 126.504 122.125 126.504C122.13 126.504 122.136 126.504 122.141 126.504C122.373 126.504 122.572 126.495 122.748 126.473C123.278 126.408 123.597 126.223 123.965 125.797C124.18 125.545 124.413 125.213 124.715 124.769C124.97 124.394 125.169 123.835 125.318 123.126C125.338 123.131 125.357 123.139 125.377 123.143C125.44 123.154 125.507 123.145 125.57 123.12C125.841 123.018 126.091 122.628 126.171 122.129C126.273 121.512 126.079 120.969 125.738 120.914Z" fill="#FFD2A1"/>
<path d="M125.839 119.483L125.784 120.224L125.774 120.363L125.732 120.909V120.914C125.712 120.909 125.695 120.909 125.677 120.909H125.664C125.662 120.909 125.662 120.909 125.659 120.909C125.641 120.909 125.622 120.914 125.607 120.919C125.602 120.919 125.599 120.919 125.597 120.922C125.581 120.924 125.567 120.929 125.552 120.937C125.532 120.945 125.51 120.955 125.489 120.969C125.464 120.982 125.439 120.999 125.411 121.017C125.389 121.034 125.369 121.054 125.346 121.074C125.323 121.094 125.299 121.114 125.276 121.137C125.253 121.16 125.234 121.179 125.208 121.202L125.185 121.225L125.188 120.91L125.191 120.725L125.196 120.313V120.225L125.203 119.57C125.203 119.492 125.191 119.417 125.18 119.347C125.18 119.347 125.18 119.35 125.178 119.35C123.721 121.688 121.125 117.719 118.932 119.344C118.932 119.347 118.93 119.347 118.93 119.347C118.925 119.382 118.919 119.42 118.917 119.455C118.912 119.492 118.909 119.53 118.909 119.57L118.914 120.225V120.313L118.919 120.725L118.922 120.91L118.925 121.225L118.902 121.202C118.876 121.179 118.857 121.16 118.834 121.137C118.811 121.114 118.787 121.094 118.764 121.074C118.741 121.054 118.721 121.034 118.699 121.017C118.672 120.999 118.646 120.982 118.622 120.969C118.601 120.954 118.579 120.945 118.559 120.937C118.544 120.929 118.529 120.924 118.514 120.922C118.512 120.919 118.509 120.919 118.504 120.919C118.486 120.914 118.467 120.909 118.449 120.909H118.434C118.416 120.909 118.399 120.909 118.379 120.914V120.909L118.336 120.361L118.326 120.224L118.271 119.483C118.244 118.738 118.523 118.015 119.034 117.475C119.776 116.69 120.513 116.437 121.989 116.437H122.119C123.596 116.437 124.333 116.689 125.075 117.475C125.587 118.015 125.867 118.739 125.839 119.483Z" fill="#544238"/>
<path d="M121.481 124.062C121.25 124.062 121.063 124.225 121.063 124.426C121.063 124.626 121.25 124.789 121.481 124.789H122.635C122.866 124.789 123.053 124.626 123.053 124.426C123.053 124.225 122.866 124.062 122.635 124.062H121.481ZM122.058 126.502C122.04 126.502 122.022 126.502 122.004 126.502C121.999 126.502 121.993 126.502 121.988 126.502C121.983 126.502 121.977 126.502 121.972 126.502C121.74 126.502 121.541 126.494 121.365 126.472C120.836 126.407 120.517 126.222 120.149 125.796C119.919 125.558 119.694 125.218 119.398 124.768C119.15 124.389 118.944 123.834 118.795 123.124C118.787 123.026 118.708 121.176 118.701 121.02C118.744 121.053 118.789 121.092 118.837 121.137C118.86 121.164 118.884 121.191 118.905 121.224V121.204C118.913 121.211 118.919 121.218 118.926 121.225V121.225C118.973 121.677 119.093 122.74 119.217 123.139C119.345 123.546 120.056 124.25 120.576 123.934C121.166 123.583 121.713 123.533 121.971 123.518C121.976 123.518 121.982 123.519 121.987 123.519C121.992 123.519 121.998 123.518 122.003 123.518C122.019 123.519 122.039 123.521 122.057 123.522C122.074 123.521 122.095 123.519 122.11 123.518C122.115 123.518 122.12 123.519 122.126 123.519C122.131 123.519 122.137 123.518 122.142 123.518C122.399 123.532 122.948 123.582 123.537 123.934C124.058 124.25 124.769 123.546 124.896 123.139C125.021 122.74 125.141 121.677 125.187 121.225V121.225C125.195 121.218 125.202 121.212 125.208 121.204V121.224C125.23 121.191 125.253 121.164 125.277 121.137C125.324 121.092 125.369 121.053 125.413 121.02C125.406 121.176 125.328 123.026 125.319 123.124C125.169 123.833 124.971 124.393 124.716 124.768C124.414 125.211 124.182 125.544 123.965 125.796C123.598 126.222 123.278 126.407 122.749 126.472C122.573 126.494 122.374 126.502 122.142 126.502C122.137 126.502 122.131 126.502 122.126 126.502C122.121 126.502 122.115 126.502 122.11 126.502C122.092 126.502 122.075 126.502 122.058 126.502Z" fill="#544238"/>
<path d="M119.881 138.627L116.484 139.51L114.867 136.287L119.386 136.263L119.881 138.627Z" fill="#F2C28D"/>
<path d="M126.078 137.243C126.007 138.062 126.603 138.743 127.292 139.405L128.91 136.183L127.418 134.743L126.078 137.243Z" fill="#E6B37C"/>
<path d="M128.856 133.879C129.08 133.906 129.239 134.109 129.213 134.334L129.058 135.626C129.031 135.851 128.828 136.011 128.604 135.984C128.379 135.957 128.22 135.753 128.247 135.529L128.401 134.236C128.429 134.012 128.632 133.852 128.856 133.879Z" fill="#F2C28D"/>
<path d="M122.984 130.446C124.76 130.14 126.65 129.81 128.287 130.176V137.85C126.22 137.993 124.259 138.085 122.984 137.85V130.446Z" fill="#D1BDA3"/>
<path d="M122.984 130.531C124.517 130.458 126.663 130.048 128.434 130.309L127.889 137.851C126.106 138.011 124.426 138.06 122.984 137.851V130.531Z" fill="#E8D2B5"/>
<path d="M122.984 130.634C124.49 130.654 127.029 130.18 128.515 130.464L127.491 137.851C125.617 138 123.93 138.075 122.984 137.851V130.634Z" fill="#FFE6C7"/>
<path d="M122.984 130.446C121.208 130.14 119.318 129.81 117.681 130.176V137.85C119.748 137.993 121.708 138.085 122.984 137.85V130.446Z" fill="#D1BDA3"/>
<path d="M122.984 130.531C121.451 130.458 119.306 130.048 117.535 130.309L118.08 137.851C119.863 138.011 121.543 138.06 122.985 137.851L122.984 130.531Z" fill="#E8D2B5"/>
<path d="M122.984 130.634C121.479 130.654 118.94 130.18 117.454 130.464L118.477 137.851C120.351 138 122.039 138.075 122.984 137.851V130.634Z" fill="#FFE6C7"/>
<path d="M123.426 130.535L128.68 130.374L128.729 130.507V138.399L123.426 138.561V130.535Z" fill="#4C9BAC"/>
<path d="M117.31 130.375L122.543 130.535V138.561L117.24 138.399V130.507L117.31 130.375Z" fill="#4C9BAC"/>
<path d="M123.426 130.535C123.113 130.696 122.82 130.684 122.542 130.535V138.561C122.838 138.728 123.133 138.713 123.426 138.561V130.535Z" fill="#4C9BAC"/>
<path d="M123.426 130.669L128.729 130.507V138.533L123.426 138.695V130.669Z" fill="#CF8051"/>
<path d="M117.24 130.507L122.543 130.669V138.695L117.24 138.533V130.507Z" fill="#CF8051"/>
<path d="M123.426 130.669C123.113 130.83 122.82 130.818 122.542 130.669V138.695C122.838 138.862 123.133 138.847 123.426 138.695V130.669Z" fill="#4C9BAC"/>
<path d="M129.722 135.34C129.722 135.565 129.539 135.749 129.314 135.749H128.013C127.787 135.749 127.604 135.566 127.604 135.34C127.604 135.114 127.787 134.931 128.013 134.931H129.314C129.539 134.931 129.722 135.114 129.722 135.34Z" fill="#F2C28D"/>
<path d="M129.722 136.157C129.722 136.382 129.539 136.566 129.314 136.566H128.013C127.787 136.566 127.604 136.383 127.604 136.157C127.604 135.931 127.787 135.748 128.013 135.748H129.314C129.539 135.748 129.722 135.931 129.722 136.157Z" fill="#F2C28D"/>
<path d="M129.722 136.975C129.722 137.2 129.539 137.384 129.314 137.384H128.013C127.787 137.384 127.604 137.201 127.604 136.975C127.604 136.748 127.787 136.565 128.013 136.565H129.314C129.539 136.566 129.722 136.749 129.722 136.975Z" fill="#F2C28D"/>
<path d="M129.329 137.717C129.329 137.9 129.18 138.05 128.997 138.05H127.937C127.754 138.05 127.605 137.9 127.605 137.717C127.605 137.533 127.754 137.384 127.937 137.384H128.997C129.18 137.384 129.329 137.533 129.329 137.717Z" fill="#F2C28D"/>
<path d="M102.905 164.125C102.905 164.416 102.837 164.601 102.532 164.711C102.263 164.807 101.809 164.846 101.043 164.846C100.111 164.846 99.6465 164.753 99.4333 164.519C99.4122 164.498 99.3978 164.476 99.38 164.451C99.3199 164.359 99.2912 164.245 99.281 164.11V164.107C99.2743 164.057 99.27 164 99.27 163.94C99.27 163.649 99.3411 163.266 99.3732 162.8C99.4443 161.888 99.611 161.174 99.9443 160.72C100.218 160.347 100.604 160.151 101.14 160.169C101.619 160.183 102.002 160.407 102.282 160.772C102.69 161.297 102.885 162.122 102.853 163.048C102.838 163.511 102.891 163.862 102.905 164.125Z" fill="#7D9894"/>
<path d="M103.802 145.236L103.142 151.964L102.99 153.523L102.281 160.773L102.228 161.33C102.182 163.539 99.8619 163.276 99.9576 161.288L99.9432 160.72L99.7587 153.97L99.7088 152.135L99.5176 145.141L103.802 145.236Z" fill="#FFD2A1"/>
<path d="M99.2769 164.11C99.3158 164.646 99.6762 164.846 101.043 164.846C102.667 164.846 102.899 164.672 102.899 164.123C102.551 163.711 101.868 163.437 101.082 163.437C100.296 163.437 99.6119 163.711 99.2769 164.11Z" fill="#BAD8DF"/>
<path d="M99.1596 163.94C99.1596 164 99.1563 164.057 99.1487 164.107V164.111C99.1377 164.277 99.092 164.412 98.9963 164.519C98.784 164.753 98.3187 164.846 97.3863 164.846C96.6206 164.846 96.1662 164.807 95.8972 164.711C95.5917 164.601 95.5249 164.416 95.5249 164.125C95.5393 163.862 95.5926 163.511 95.5782 163.049C95.5461 162.123 95.7415 161.299 96.1493 160.773C96.4294 160.407 96.8126 160.184 97.2915 160.17C97.8271 160.152 98.2137 160.348 98.487 160.721C98.8204 161.175 98.987 161.889 99.0581 162.801C99.0886 163.266 99.1596 163.649 99.1596 163.94Z" fill="#7D9894"/>
<path d="M98.9086 145.141L98.7208 152.125L98.6709 153.949L98.4864 160.72L98.472 161.288C98.5642 163.276 96.2485 163.539 96.202 161.33L96.1487 160.773L95.4253 153.381L95.2798 151.9L94.6274 145.235L98.9086 145.141Z" fill="#FFD2A1"/>
<path d="M99.1533 164.11C99.1144 164.646 98.7539 164.846 97.3875 164.846C95.7631 164.846 95.5312 164.672 95.5312 164.123C95.879 163.711 96.5626 163.437 97.3486 163.437C98.1346 163.437 98.8182 163.711 99.1533 164.11Z" fill="#BAD8DF"/>
<path opacity="0.1" d="M95.2808 151.9C96.423 152.025 97.5719 152.099 98.7209 152.124L98.671 153.949C97.5719 153.888 96.483 153.7 95.4263 153.38L95.2808 151.9Z" fill="#1D1D1B"/>
<path opacity="0.1" d="M103.142 151.965L102.99 153.523C101.933 153.8 100.848 153.949 99.7599 153.971L99.71 152.135C100.856 152.132 102.001 152.075 103.142 151.965Z" fill="#1D1D1B"/>
<path d="M101.149 116.931C101.149 117.855 100.151 118.604 98.9205 118.604C97.6903 118.604 96.6919 117.855 96.6919 116.931C96.6919 116.007 97.6894 115.258 98.9205 115.258C100.151 115.258 101.149 116.007 101.149 116.931Z" fill="#47383A"/>
<path d="M98.9207 116.872C98.4859 116.88 94.2005 116.967 95.1481 121.619C95.4595 123.893 95.4908 124.828 97.1025 125.03C97.4503 125.094 98.0332 125.114 98.0518 125.127H99.7905C99.8083 125.114 100.392 125.094 100.74 125.03C102.352 124.829 102.383 123.893 102.694 121.619C103.641 116.968 99.3556 116.881 98.9207 116.872Z" fill="#47383A"/>
<path d="M103.542 128.875C102.543 128.372 100.664 127.52 100.636 127.512C100.633 127.511 100.627 124.905 100.627 124.905H97.3112C97.3112 124.905 97.3053 127.511 97.3019 127.512C97.274 127.52 95.3957 128.372 94.3965 128.875H103.542Z" fill="#F2C28D"/>
<path d="M106.192 132.613L103.745 133.561L103.685 133.845L103.635 134.089L103.475 134.86L103.333 135.552L102.273 140.69C100.003 141.3 97.7973 141.339 95.6695 140.69L94.6516 135.773L94.4638 134.86L94.2548 133.845L94.2514 133.827L94.1947 133.561L94.1381 133.54L92.099 132.741L91.769 132.613C91.769 132.613 92.2479 130.991 92.4747 130.468C92.6693 130.021 93.0737 129.602 93.9147 129.133C93.9892 129.091 94.0704 129.044 94.1558 129.002C94.3682 128.892 94.6525 128.75 94.9714 128.597C95.1593 128.505 95.3581 128.406 95.5603 128.313C95.8971 128.15 96.2304 127.994 96.5181 127.855C96.9716 127.646 97.3058 127.5 97.3058 127.515C97.3303 128.438 98.1501 128.895 98.9691 128.906H98.9725C99.3837 128.9 99.7915 128.785 100.104 128.551C100.416 128.321 100.625 127.976 100.639 127.515C100.639 127.5 100.973 127.646 101.427 127.855C101.714 127.993 102.047 128.15 102.381 128.313C102.584 128.406 102.786 128.505 102.974 128.597C103.289 128.75 103.577 128.892 103.789 129.002C103.875 129.044 103.953 129.091 104.03 129.133C105.268 129.825 105.328 130.462 105.626 131.139C105.982 131.963 106.192 132.613 106.192 132.613Z" fill="#003940"/>
<path d="M105.898 151.624C101.614 153.382 96.9898 153.339 92.042 151.624C92.4498 149.398 92.9642 147.214 93.5666 145.325C93.9567 144.083 94.3899 142.968 94.8543 142.045C94.8543 142.045 94.8543 142.045 94.8543 142.041C95.12 141.526 95.3899 141.069 95.67 140.688C97.8791 141.207 100.081 141.182 102.27 140.688C102.532 141.043 102.788 141.466 103.033 141.942C103.455 142.759 103.848 143.735 104.21 144.825C104.884 146.823 105.455 149.199 105.898 151.624Z" fill="#7D9894"/>
<path d="M98.9707 128.905L98.2118 129.783L97.6026 130.492L95.8682 128.159L97.3031 127.482L98.6095 128.598L98.9707 128.905Z" fill="#F6F6F6"/>
<path d="M98.9722 128.905L99.7302 129.783L100.339 130.492L102.074 128.159L100.639 127.482L99.3326 128.598L98.9722 128.905Z" fill="#F6F6F6"/>
<path d="M98.9716 131.814C98.837 131.813 98.7271 131.704 98.7271 131.569C98.7271 131.434 98.8362 131.324 98.9716 131.324C99.1061 131.324 99.2152 131.434 99.2152 131.569C99.2152 131.704 99.1061 131.813 98.9716 131.814Z" fill="#F6F6F6"/>
<path d="M98.9716 130.57C98.837 130.569 98.7271 130.459 98.7271 130.325C98.7271 130.189 98.8362 130.08 98.9716 130.079C99.1061 130.08 99.2152 130.189 99.2152 130.325C99.2152 130.459 99.1061 130.569 98.9716 130.57Z" fill="#F6F6F6"/>
<path d="M102.728 123.041C102.658 123.471 102.442 123.809 102.21 123.899C102.154 123.92 102.098 123.926 102.041 123.917C102.022 123.915 102.004 123.908 101.987 123.901C101.787 124.735 101.527 125.387 101.241 125.697C100.873 126.093 100.618 126.396 100.376 126.627C99.9891 126.993 99.6346 127.169 98.9197 127.23C98.2047 127.169 97.8528 126.993 97.4636 126.627C97.2225 126.396 96.9661 126.094 96.6006 125.697C96.3146 125.387 96.054 124.735 95.8552 123.901C95.8366 123.908 95.818 123.915 95.7993 123.917C95.7452 123.926 95.6868 123.92 95.6327 123.899C95.3983 123.81 95.1825 123.472 95.1123 123.041C95.0277 122.509 95.1944 122.039 95.4897 121.992C95.5929 121.976 95.6987 122.017 95.7968 122.098V122.091C95.8036 121.966 95.8129 121.844 95.8247 121.729C95.8713 121.276 95.9584 120.896 96.0989 120.579C96.5583 119.492 97.7072 118.948 98.9197 119.079C100.132 118.948 101.281 119.492 101.743 120.579C101.883 120.898 101.971 121.283 102.017 121.741C102.029 121.854 102.038 121.969 102.045 122.091V122.098C102.142 122.018 102.246 121.976 102.352 121.992C102.647 122.038 102.815 122.509 102.728 123.041Z" fill="#FFD2A1"/>
<path d="M95.522 119.276V120.758C97.7878 118.117 100.054 123.399 102.32 120.758V119.276C99.9233 116.973 97.6778 117.332 95.522 119.276Z" fill="#47383A"/>
<path opacity="0.1" d="M103.634 134.088L103.474 134.859L103.332 135.551C102.913 136.297 102.116 136.797 101.201 136.797C100.159 136.797 99.2753 136.144 98.9208 135.224C98.5663 136.144 97.683 136.797 96.6406 136.797C95.8216 136.797 95.094 136.392 94.6507 135.771L94.4629 134.859L94.2539 133.844L94.2505 133.826C94.4882 132.721 95.4671 131.895 96.6406 131.895C97.683 131.895 98.5663 132.548 98.9208 133.464C99.2753 132.548 100.159 131.895 101.201 131.895C102.464 131.895 103.507 132.857 103.634 134.088Z" fill="#1D1D1B"/>
<path d="M101.2 131.323C100.158 131.323 99.2751 131.976 98.9206 132.894C98.5661 131.976 97.6828 131.323 96.6413 131.323C95.2884 131.323 94.1919 132.421 94.1919 133.775C94.1919 135.13 95.2884 136.228 96.6413 136.228C97.6828 136.228 98.5661 135.575 98.9206 134.657C99.2751 135.575 100.158 136.228 101.2 136.228C102.553 136.228 103.649 135.13 103.649 133.775C103.649 132.421 102.553 131.323 101.2 131.323Z" fill="#003940"/>
<path d="M93.6318 145.114C93.0014 147.053 92.465 149.314 92.042 151.624C96.9881 153.338 101.615 153.38 105.897 151.624C105.475 149.314 104.938 147.053 104.308 145.114C100.834 143.489 97.2767 143.464 93.6318 145.114Z" fill="#7D9894"/>
<path opacity="0.15" d="M96.1709 145.375C96.0897 145.645 96.2174 145.925 96.2386 146.206C96.2631 146.611 96.033 147.019 95.6708 147.203C95.3087 147.388 94.8408 147.335 94.5329 147.076C94.2951 146.881 94.1606 146.593 94.0295 146.316C93.8772 145.985 93.7249 145.655 93.5684 145.326C93.9584 144.083 94.3916 142.968 94.8561 142.045C95.0583 142.755 95.406 143.422 95.8773 143.991C96.1294 144.289 96.434 144.644 96.324 145.021C96.2876 145.144 96.2064 145.25 96.1709 145.375Z" fill="#1D1D1B"/>
<path opacity="0.15" d="M104.21 144.824C104.139 145.044 104.058 145.265 103.976 145.481C103.852 145.822 103.724 146.163 103.596 146.504C103.518 146.716 103.429 146.941 103.245 147.072C103.075 147.2 102.841 147.218 102.635 147.175C102.426 147.133 102.234 147.03 102.043 146.931C101.84 146.824 101.614 146.689 101.567 146.462C101.525 146.245 101.67 146.04 101.713 145.823C101.794 145.408 101.504 144.992 101.556 144.573C101.606 144.207 101.901 143.93 102.142 143.653C102.567 143.164 102.872 142.571 103.032 141.942C103.455 142.758 103.848 143.735 104.21 144.824Z" fill="#1D1D1B"/>
<path d="M95.0041 143.664L93.4609 144.057L91.6528 138.235L92.053 133.321L92.0996 132.738L94.1386 133.537L94.0709 134.28L93.7198 138.235L95.0041 143.664Z" fill="#FFD2A1"/>
<path d="M95.5941 144.609C95.5315 144.547 95.4587 144.514 95.3859 144.534L95.38 144.536C95.221 144.578 95.1389 144.831 95.1947 145.09L95.4731 146.384C95.5137 146.573 95.6491 146.692 95.7777 146.658L95.7819 146.657C95.9105 146.623 95.9901 146.445 95.9596 146.253L95.8048 145.279L95.5941 144.609Z" fill="#F2C28D"/>
<path d="M94.8613 143.193C94.7885 143.193 94.7242 143.227 94.6861 143.306L94.6827 143.313C94.599 143.486 94.6726 143.775 94.8376 143.951L95.6693 144.832C95.7911 144.961 95.94 144.948 96.0077 144.809L96.0102 144.804C96.0779 144.664 96.0416 144.442 95.9248 144.302L95.3342 143.591L94.8613 143.193Z" fill="#F2C28D"/>
<path d="M94.7701 144.572L94.776 144.571C94.9368 144.527 95.1145 144.715 95.1711 144.979L95.491 146.467C95.5307 146.653 95.4588 146.825 95.3319 146.86L95.3277 146.861C95.2008 146.895 95.0586 146.78 95.0087 146.597L94.6102 145.13C94.5391 144.87 94.6093 144.616 94.7701 144.572Z" fill="#F2C28D"/>
<path d="M94.2336 144.9L94.2395 144.899C94.3977 144.856 94.5839 145.035 94.6524 145.287L94.9849 146.51C95.0357 146.696 94.9714 146.87 94.8428 146.905L94.8386 146.906C94.7099 146.941 94.5585 146.825 94.4976 146.641L94.0991 145.436C94.017 145.188 94.0754 144.944 94.2336 144.9Z" fill="#F2C28D"/>
<path d="M93.7287 145.161L93.7338 145.159C93.8725 145.122 94.046 145.274 94.1179 145.492L94.4732 146.566C94.5282 146.733 94.4775 146.888 94.3624 146.919L94.3582 146.92C94.2431 146.951 94.1001 146.847 94.0367 146.684L93.6288 145.624C93.5468 145.409 93.5899 145.198 93.7287 145.161Z" fill="#F2C28D"/>
<path d="M94.4527 143.069L93.7759 143.251C92.945 143.469 93.5186 145.336 93.5186 145.336H93.5195L93.5897 145.519C93.6701 145.729 93.8385 145.865 93.9688 145.829L93.9738 145.828C94.1041 145.794 94.154 145.599 94.0838 145.386L94.1304 145.528C94.2074 145.761 94.3833 145.91 94.5272 145.871L94.5323 145.869C94.6761 145.83 94.7429 145.616 94.6786 145.38L94.7142 145.51C94.7768 145.739 94.9401 145.887 95.0822 145.849L95.0873 145.847C95.2294 145.809 95.3056 145.596 95.2556 145.363C95.3056 145.596 95.4595 145.746 95.6017 145.708L95.6068 145.706C95.7362 145.672 95.814 145.488 95.7988 145.277H95.8039L95.8064 145.276C95.8064 145.276 95.5966 144.335 95.4333 143.735C95.4325 143.737 95.0263 142.957 94.4527 143.069Z" fill="#FFD2A1"/>
<path opacity="0.1" d="M94.1388 133.537L94.0711 134.279C93.5389 134.013 92.681 133.626 92.0532 133.32L92.0989 132.738L94.1388 133.537Z" fill="#1D1D1B"/>
<path d="M106.281 138.235L104.473 144.057L102.93 143.664L104.214 138.235L103.87 134.379L103.796 133.537L105.835 132.738L105.88 133.285L106.281 138.235Z" fill="#FFD2A1"/>
<path d="M102.34 144.609C102.402 144.547 102.475 144.514 102.548 144.534L102.554 144.536C102.713 144.578 102.794 144.831 102.739 145.09L102.462 146.384C102.421 146.573 102.286 146.692 102.157 146.658L102.152 146.657C102.023 146.623 101.944 146.445 101.974 146.253L102.129 145.279L102.34 144.609Z" fill="#F2C28D"/>
<path d="M103.073 143.193C103.145 143.193 103.21 143.227 103.248 143.306L103.252 143.313C103.335 143.486 103.263 143.775 103.097 143.951L102.265 144.832C102.143 144.961 101.994 144.948 101.927 144.809L101.924 144.804C101.857 144.664 101.893 144.442 102.01 144.302L102.6 143.591L103.073 143.193Z" fill="#F2C28D"/>
<path d="M103.164 144.572L103.159 144.571C102.998 144.527 102.819 144.715 102.763 144.979L102.444 146.467C102.404 146.653 102.476 146.825 102.603 146.86L102.607 146.861C102.734 146.895 102.876 146.78 102.926 146.597L103.324 145.13C103.395 144.87 103.325 144.616 103.164 144.572Z" fill="#F2C28D"/>
<path d="M103.7 144.9L103.694 144.899C103.536 144.856 103.35 145.035 103.281 145.287L102.949 146.51C102.898 146.696 102.962 146.87 103.091 146.905L103.095 146.906C103.223 146.941 103.375 146.825 103.435 146.641L103.834 145.436C103.916 145.188 103.858 144.944 103.7 144.9Z" fill="#F2C28D"/>
<path d="M104.206 145.161L104.201 145.159C104.062 145.122 103.888 145.274 103.817 145.492L103.461 146.566C103.406 146.733 103.457 146.888 103.572 146.919L103.576 146.92C103.691 146.951 103.834 146.847 103.898 146.684L104.306 145.624C104.388 145.409 104.345 145.198 104.206 145.161Z" fill="#F2C28D"/>
<path d="M103.482 143.069L104.158 143.251C104.989 143.469 104.416 145.336 104.416 145.336L104.345 145.519C104.264 145.729 104.096 145.865 103.965 145.829L103.96 145.828C103.83 145.794 103.78 145.599 103.85 145.386L103.803 145.528C103.726 145.761 103.55 145.91 103.406 145.871L103.401 145.869C103.257 145.83 103.19 145.616 103.255 145.38L103.219 145.51C103.157 145.739 102.993 145.887 102.851 145.849L102.846 145.847C102.704 145.809 102.628 145.596 102.678 145.363C102.628 145.596 102.474 145.746 102.332 145.708L102.327 145.706C102.197 145.672 102.119 145.488 102.135 145.277H102.129L102.127 145.276C102.127 145.276 102.337 144.335 102.5 143.735C102.502 143.737 102.908 142.957 103.482 143.069Z" fill="#FFD2A1"/>
<path opacity="0.1" d="M105.88 133.286C105.327 133.58 104.774 133.879 104.22 134.177C104.174 134.201 104.029 134.29 103.869 134.379L103.795 133.538L105.834 132.739L105.88 133.286Z" fill="#1D1D1B"/>
<path d="M31.4554 163.506C31.4689 163.552 31.4638 163.602 31.4402 163.645C31.4165 163.688 31.3767 163.719 31.3302 163.732L30.732 163.894C30.5577 163.941 30.3792 163.967 30.199 163.972L28.7403 164.014C28.7031 164.015 28.6659 164.017 28.6286 164.02L25.3129 164.267C24.9 164.298 24.4736 164.282 24.0641 164.22C23.3331 164.11 22.652 163.956 22.1096 163.686C22.031 163.647 21.9878 163.561 22.003 163.473L22.0733 163.086L31.2354 162.763L31.4554 163.506Z" fill="#30302F"/>
<path d="M30.7337 160.144C29.3614 161.162 28.4324 160.492 27.8105 160.051C28.1083 159.44 28.2851 158.454 27.291 158.511C27.1506 158.52 27.2834 158.878 27.0397 159.308C26.2613 160.686 24.9677 161.124 23.9702 161.448C23.2341 161.688 22.6181 161.846 22.3127 162.174C22.0487 162.377 21.9379 163.061 22.1164 163.122C23.13 163.47 23.5742 163.504 24.3805 163.588C25.0498 163.659 25.7258 163.635 26.3882 163.516L27.8511 163.16C28.0474 163.124 28.2454 163.1 28.4442 163.085L31.2574 162.878C31.3869 162.119 31.2354 160.999 30.7337 160.144Z" fill="#914F39"/>
<path d="M31.0526 160.848C30.5678 161.049 30.5703 160.631 29.8706 160.601C29.9594 160.476 30.127 160.45 30.22 160.077C30.2877 159.808 30.3537 159.539 30.4806 159.466L30.5221 159.451C30.572 159.433 30.627 159.436 30.6735 159.462C30.7201 159.488 30.7522 159.533 30.7624 159.586C30.8182 159.882 30.9282 160.433 31.0526 160.848Z" fill="#E1E1E1"/>
<path d="M27.7283 148.475L27.7859 148.487C28.4737 148.606 29.1506 148.475 29.7149 148.148C30.3529 147.786 30.8453 147.183 31.0602 146.436C31.0949 146.34 31.1177 146.236 31.1372 146.132L32.3479 139.287L32.6203 137.748L32.6821 137.406L32.7016 137.286L32.7938 136.775L32.8166 136.648L33.0205 135.49C33.1051 135.066 33.1356 134.682 33.117 134.324V134.312C33.0789 133.427 32.7557 132.75 32.287 132.289C32.1525 132.151 32.0027 132.031 31.8453 131.935C31.2996 131.581 30.6346 131.443 29.9848 131.508C29.2276 131.585 28.4898 131.947 27.9712 132.593C27.6141 133.032 27.3603 133.605 27.2791 134.312C27.2672 134.362 27.2638 134.412 27.2596 134.462L27.0447 135.667V135.674L26.6183 138.076L26.4415 139.084L25.3729 145.113C25.092 146.69 26.1487 148.198 27.7283 148.475Z" fill="#47383A"/>
<path d="M31.6845 161.422L31.1514 145.984C31.0711 144.381 29.7072 143.148 28.1072 143.231L28.0489 143.235C26.4532 143.318 25.2264 144.679 25.3059 146.277L25.6739 160.133L31.6845 161.422Z" fill="#47383A"/>
<path d="M35.1208 164.072C35.1343 164.119 35.1292 164.169 35.1056 164.212C35.0819 164.254 35.0421 164.285 34.9956 164.298L34.3965 164.46C34.2222 164.507 34.0437 164.534 33.8635 164.539L32.4049 164.58C32.3677 164.581 32.3304 164.584 32.2932 164.586L28.9774 164.833C28.5645 164.864 28.1381 164.849 27.7286 164.787C26.9976 164.676 26.3165 164.523 25.7742 164.252C25.6955 164.213 25.6524 164.127 25.6676 164.04L25.7378 163.653L34.9 163.329L35.1208 164.072Z" fill="#1F8297"/>
<path d="M34.3992 160.711C33.0269 161.729 32.0979 161.059 31.476 160.618C31.7747 160.006 31.9515 159.02 30.9574 159.078C30.8169 159.086 30.9498 159.444 30.7061 159.875C29.9277 161.252 28.6341 161.69 27.6365 162.014C26.9005 162.254 26.2845 162.412 25.9782 162.74C25.7143 162.944 25.6034 163.627 25.7819 163.688C26.7955 164.036 27.2397 164.07 28.046 164.155C28.7153 164.225 29.3913 164.201 30.0538 164.083L31.5166 163.726C31.7129 163.691 31.9109 163.666 32.1097 163.652L34.9229 163.445C35.0524 162.684 34.9009 161.565 34.3992 160.711Z" fill="#A45940"/>
<path d="M34.7181 161.412C34.2333 161.613 34.2358 161.196 33.5361 161.165C33.625 161.041 33.7925 161.014 33.8856 160.642C33.9533 160.372 34.0192 160.104 34.1462 160.031L34.1876 160.016C34.2375 159.997 34.2925 160 34.3391 160.027C34.3856 160.053 34.4177 160.098 34.4279 160.15C34.4837 160.448 34.5937 160.997 34.7181 161.412Z" fill="#EDEDED"/>
<path d="M28.9695 146.125C28.9467 146.902 29.231 147.614 29.7149 148.148C30.2226 148.718 30.9604 149.087 31.7904 149.106L31.8479 149.111C33.3395 149.149 34.596 148.053 34.788 146.602C34.8075 146.502 34.8151 146.398 34.8185 146.29L35.0181 139.194L35.0562 137.817L35.0681 137.34L35.0833 136.789L35.1104 135.842L35.1222 135.484C35.1417 135.053 35.118 134.668 35.0494 134.319C35.0494 134.314 35.0494 134.314 35.0494 134.311C34.8955 133.522 34.5384 132.937 34.0731 132.541C33.5891 132.125 32.9892 131.917 32.3784 131.902C32.2016 131.89 32.0213 131.902 31.8445 131.932C31.7404 131.944 31.6372 131.963 31.5374 131.99C30.7996 132.175 30.1194 132.641 29.7006 133.36C29.5356 133.637 29.4087 133.956 29.3393 134.31C29.2741 134.618 29.2504 134.949 29.2741 135.311L29.2242 137.019L29.1777 138.689L29.1396 140.004L28.9695 146.125Z" fill="#1F8297"/>
<path d="M35.35 161.988L34.817 146.549C34.7366 144.947 33.3727 143.714 31.7728 143.798L31.7144 143.801C30.1187 143.884 28.8919 145.246 28.9714 146.843L29.3395 160.699L35.35 161.988Z" fill="#1F8297"/>
<path d="M32.7386 136.758L29.2731 136.426L28.9355 130.89L36.1593 130.729V133.645C36.1593 135.49 34.5729 136.933 32.7386 136.758Z" fill="#1D71B8"/>
<path d="M34.1771 110.289L33.9063 106.314C32.4976 106.474 30.61 106.654 30.2758 106.627L30.1108 114.915C30.1108 114.915 35.0265 111.084 34.1771 110.289Z" fill="#F2C28D"/>
<path d="M26.8941 134.312C26.9246 134.796 26.9745 135.25 27.0439 135.666V135.674C27.109 136.082 27.1936 136.444 27.3011 136.774C27.928 136.844 28.5736 136.932 29.2225 137.021C29.2877 137.028 29.3494 137.04 29.4146 137.048C29.6066 137.075 29.7987 137.098 29.9874 137.125C30.5982 137.205 31.2015 137.279 31.7937 137.337H31.798C32.0129 137.359 32.2286 137.375 32.4401 137.391C32.4444 137.391 32.4444 137.391 32.4444 137.391C32.5247 137.398 32.6017 137.406 32.683 137.406C33.5476 137.46 34.3548 137.453 35.0697 137.341C35.596 137.26 36.0689 137.121 36.4691 136.906C36.9379 136.656 37.311 136.306 37.5606 135.825C37.6223 134.721 37.668 133.49 37.6951 132.178C37.8601 124.163 37.2416 113.162 34.1788 110.291L30.9273 112.515L30.5238 112.792C30.5238 112.792 29.7513 113.905 29.0482 115.451C28.8866 115.805 28.7292 116.186 28.5829 116.579C28.4949 116.818 28.4137 117.06 28.3409 117.31C28.1412 117.96 27.9991 118.634 27.9449 119.295C27.6361 123.203 26.5988 129.956 26.8941 134.312Z" fill="#7D9894"/>
<path d="M34.8979 107.857C35.1872 107.065 35.3294 106.151 35.3268 105.298C35.0772 101.415 32.3571 101.691 30.9179 101.738C29.2385 101.867 27.6851 103.057 27.68 105.647C27.7731 105.897 27.8822 106.102 27.8822 106.102L27.3754 107.566C27.2917 107.807 27.4414 108.066 27.6918 108.114L28.0667 108.203C28.0827 108.464 28.087 109.582 28.087 109.582C28.1326 110.239 28.5252 111.113 29.3188 111.069L30.1539 111.012C31.1616 110.864 32.6465 109.61 32.5238 107.9C33.1363 107.807 34.6846 108.438 34.8979 107.857Z" fill="#FFD2A1"/>
<path d="M35.4408 104.285C35.2403 103.352 33.4771 103.197 32.2435 103.325C31.2629 103.427 30.625 104.413 30.922 105.354C31.0971 105.91 31.2925 106.582 31.3687 107.547C31.7553 107.565 31.7553 107.565 32.1818 107.555C32.3857 107.284 32.9441 106.32 32.9441 106.32C32.9441 106.32 31.5684 109.37 34.1709 108.714C35.6777 108.167 35.8402 106.137 35.4408 104.285Z" fill="#1F8297"/>
<path d="M33.3977 106.561C33.4154 107.17 32.923 107.888 32.5254 107.9C32.1277 107.912 32.1573 107.416 32.1328 106.808C32.1167 106.405 31.9983 105.836 32.4306 105.696C32.8096 105.572 33.3714 105.668 33.3977 106.561Z" fill="#FFD2A1"/>
<path opacity="0.2" d="M31.6382 134.305C30.9291 130.409 32.7279 126.517 33.1899 122.584C33.4504 120.367 34.0038 118.197 34.5563 116.033C34.8355 119.122 35.1155 122.223 34.9539 125.321C34.8431 127.455 34.5233 129.572 34.2043 131.685C34.0723 132.561 33.3658 135.776 33.233 136.652C34.2982 136.77 36.4354 136.329 37.6935 132.177C37.6664 133.489 37.6207 134.721 37.559 135.825C37.3094 136.306 36.9363 136.656 36.4675 136.905C36.0682 137.121 35.5952 137.259 35.0681 137.34L35.0563 137.817L35.0182 139.194C34.184 139.383 33.2888 139.386 32.3472 139.286C31.3361 139.182 30.2717 138.952 29.1761 138.69C28.3385 138.49 27.4814 138.274 26.6167 138.074L27.0431 135.673C27.1091 136.032 27.1759 136.127 27.3782 136.306C28.665 137.437 31.9529 136.035 31.6382 134.305Z" fill="#1D1D1B"/>
<path d="M30.583 133.736L30.5322 134.855L32.1567 134.748L32.3699 133.957L30.583 133.736Z" fill="#F9C484"/>
<path d="M34.7643 115.657L34.2567 126.804L30.4003 126.793L30.2725 116.022C30.2666 114.93 30.9291 113.538 32.3437 113.581C32.3437 113.581 34.8032 113.544 34.7643 115.657Z" fill="#BAD8DF"/>
<path d="M30.1411 115.875L30.3306 120.906L34.5212 120.985L34.9324 115.57C34.9874 112.648 30.2198 111.66 30.1411 115.875Z" fill="#BAD8DF"/>
<path d="M30.8816 134.377C30.7513 134.354 30.6236 134.332 30.4975 134.303C30.0542 134.733 29.3672 135.19 28.9746 135.34C28.8011 135.406 28.5879 135.578 28.692 135.826C28.6928 135.828 28.6937 135.83 28.6945 135.833C28.7901 136.172 29.2191 136.047 29.4078 135.991C29.8054 135.872 30.9916 135.094 31.5729 134.567C31.3444 134.496 31.1177 134.419 30.8816 134.377Z" fill="#F2C28D"/>
<path d="M30.1462 136.094L30.1394 136.093C29.9457 136.039 29.7443 136.149 29.6901 136.338L28.9101 138.803C28.8559 138.992 28.9685 139.189 29.1622 139.242L29.169 139.244C29.3627 139.297 29.5641 139.187 29.6182 138.998L30.3983 136.533C30.4525 136.343 30.3399 136.148 30.1462 136.094Z" fill="#F2C28D"/>
<path d="M30.842 136.111L30.8352 136.11C30.6414 136.057 30.4401 136.168 30.3868 136.358L29.561 139.157C29.5077 139.346 29.6211 139.542 29.8157 139.594L29.8225 139.596C30.0162 139.649 30.2176 139.538 30.2709 139.348L31.0958 136.548C31.1499 136.36 31.0357 136.164 30.842 136.111Z" fill="#F2C28D"/>
<path d="M31.5061 136.209L31.4994 136.208C31.3039 136.163 31.1068 136.281 31.0611 136.471L30.3859 139.086C30.3394 139.277 30.4604 139.468 30.6567 139.514L30.6634 139.516C30.8589 139.56 31.056 139.443 31.1017 139.252L31.7769 136.638C31.8226 136.446 31.7016 136.254 31.5061 136.209Z" fill="#F2C28D"/>
<path d="M32.172 136.318L32.1652 136.316C31.9918 136.274 31.8158 136.377 31.7726 136.546L31.1888 138.723C31.1457 138.892 31.2515 139.063 31.4249 139.105L31.4317 139.106C31.6051 139.149 31.7811 139.045 31.8242 138.876L32.408 136.699C32.4512 136.531 32.3454 136.359 32.172 136.318Z" fill="#F2C28D"/>
<path d="M29.6228 136.601L29.8783 135.04C30.0315 134.498 30.6093 133.947 31.1508 134.099L31.628 134.135C32.9056 134.454 32.4343 136.655 32.4343 136.655L32.3006 137.131C32.2549 137.294 32.0849 137.39 31.9207 137.343L31.9148 137.342C31.7515 137.295 31.6559 137.126 31.7025 136.961L31.672 137.07C31.6204 137.253 31.4292 137.361 31.2447 137.309L31.238 137.308C31.0535 137.256 30.9469 137.064 30.9985 136.88L30.9698 136.981C30.9182 137.165 30.7269 137.272 30.5425 137.22L30.5357 137.219C30.3521 137.167 30.2447 136.975 30.2963 136.791C30.2447 136.976 30.0535 137.082 29.869 137.031L29.8622 137.029C29.6786 136.977 29.5712 136.786 29.6228 136.601Z" fill="#FFD2A1"/>
<path d="M34.327 126.684C34.4302 125.617 33.6502 124.668 32.5841 124.564L32.5452 124.56C31.4791 124.457 30.5307 125.238 30.4275 126.305L30.0679 134.311L32.9758 134.981L34.327 126.684Z" fill="#BAD8DF"/>
<path d="M82.7191 119.609C82.302 118.712 82.384 117.505 82.4873 116.449C82.6353 116.43 82.7944 116.433 82.956 116.458C83.8867 116.602 84.5483 117.452 84.5965 118.394L84.9654 125.542L82.7216 125.977L82.4365 119.906L82.7191 119.609Z" fill="#FAD8AC"/>
<path d="M84.6568 133.938L85.7237 133.822L84.9665 125.542L82.7041 125.84C83.139 128.768 83.7617 131.497 84.6568 133.938Z" fill="#FAD8AC"/>
<path d="M86.6064 137.957C86.5886 137.923 86.5742 137.885 86.5683 137.844L86.3229 136.071L86.0175 135.73L86.0166 135.727L85.6207 135.286C85.0877 134.765 84.8702 134.454 84.7678 134.221L84.7628 134.212C84.7112 134.088 84.6908 133.991 84.6714 133.889C84.6739 133.888 84.6739 133.888 84.6739 133.888C84.6731 133.886 84.6731 133.886 84.6714 133.883L85.5445 133.533C85.5885 133.637 85.6486 133.735 85.7239 133.822L86.8086 135.092C86.8999 135.198 86.9575 135.327 86.9761 135.468L87.1191 136.549C87.1233 136.573 87.125 136.6 87.1225 136.625L87.0285 138.026C87.0269 138.087 86.9803 138.135 86.9203 138.142C86.894 138.145 86.8686 138.138 86.8433 138.133L86.8407 138.132C86.8086 138.126 86.779 138.116 86.751 138.101C86.746 138.098 86.7417 138.095 86.7375 138.093C86.713 138.078 86.691 138.062 86.6707 138.042C86.6597 138.032 86.652 138.019 86.6427 138.008C86.6301 137.992 86.6165 137.977 86.6064 137.957Z" fill="#FAD8AC"/>
<path opacity="0.05" d="M86.568 137.844L86.3227 136.071L86.0172 135.729L86.0164 135.727L85.6204 135.285C85.0874 134.765 84.87 134.454 84.7676 134.221C85.1229 134.815 86.2913 135.759 86.5824 135.723C86.4834 136.235 86.6078 137.786 86.8447 138.134C86.7051 138.11 86.5909 137.997 86.568 137.844Z" fill="#1D1D1B"/>
<path d="M84.8049 134.83L85.239 135.431C85.2957 135.51 85.3464 135.593 85.3862 135.682L85.7398 136.436C85.8151 136.595 85.9776 136.676 86.1053 136.619C86.2306 136.563 86.2788 136.397 86.217 136.238L85.8236 135.236L84.8438 133.811C84.8438 133.811 84.6729 133.84 84.6712 133.882L84.6112 134.201C84.6019 134.418 84.6721 134.645 84.8049 134.83Z" fill="#FAD8AC"/>
<path d="M75.1011 119.59C75.492 118.681 75.3735 117.477 75.239 116.425C75.0901 116.409 74.9319 116.417 74.7703 116.447C73.8438 116.618 73.2084 117.488 73.1881 118.43L73.0308 125.586L75.2864 125.954L75.3913 119.877L75.1011 119.59Z" fill="#FAD8AC"/>
<path d="M79.1819 147.296H73.4303L72.1265 151.142C76.7968 152.754 81.5035 152.605 86.2373 151.233L79.1819 147.296Z" fill="#BF913D"/>
<path d="M80.3581 150.458H83.651L83.162 160.139C83.1874 161.515 83.7881 162.538 85.3186 163.784C84.9861 165.194 83.8219 164.121 82.8362 163.259C81.8658 162.411 80.8463 161.433 81.0688 161.174C81.3844 156.377 79.9943 155.121 80.3581 150.458Z" fill="#FAD8AC"/>
<path d="M80.9204 163.079C81.1539 163.572 81.2216 164.181 81.2072 164.848H81.648V163.079C81.3984 162.952 81.1539 162.93 80.9204 163.079Z" fill="#CF8051"/>
<path d="M80.9204 163.079C84.2285 163.068 81.0448 165.106 86.7718 164.82C86.8886 164.814 86.9961 164.83 87.0045 164.786C87.1247 164.122 85.2861 163.899 84.6778 163.159C83.0855 164.739 83.3732 161.406 81.0524 161.045C80.7343 162.015 80.5583 162.541 80.9204 163.079Z" fill="#CF8051"/>
<path d="M80.9204 163.079C81.1539 163.572 81.2216 164.181 81.2072 164.848H81.648V163.079C81.3984 162.952 81.1539 162.93 80.9204 163.079Z" fill="url(#paint3_linear_2761_31482)"/>
<path d="M80.9204 163.079C84.2285 163.068 81.0448 165.106 86.7718 164.82C86.8886 164.814 86.9961 164.83 87.0045 164.786C87.1247 164.122 85.2861 163.899 84.6778 163.159C83.0855 164.739 83.3732 161.406 81.0524 161.045C80.7343 162.015 80.5583 162.541 80.9204 163.079Z" fill="url(#paint4_linear_2761_31482)"/>
<path d="M78.4537 150.458H75.1608L75.6498 160.139C75.6244 161.515 75.0237 162.538 73.4932 163.784C73.8257 165.194 74.9907 164.121 75.9756 163.259C76.946 162.411 77.9655 161.433 77.743 161.174C77.4274 156.377 78.8175 155.121 78.4537 150.458Z" fill="#FAD8AC"/>
<path d="M77.8902 163.079C77.6567 163.572 77.589 164.181 77.6034 164.848H77.1626V163.079C77.413 162.952 77.6567 162.93 77.8902 163.079Z" fill="#CF8051"/>
<path d="M77.89 163.079C74.5819 163.068 77.7657 165.106 72.0386 164.82C71.9218 164.814 71.8144 164.83 71.8059 164.786C71.6858 164.122 73.5243 163.899 74.1318 163.159C75.7241 164.739 75.4364 161.406 77.7572 161.045C78.0762 162.015 78.253 162.541 77.89 163.079Z" fill="#CF8051"/>
<path d="M77.8902 163.079C77.6567 163.572 77.589 164.181 77.6034 164.848H77.1626V163.079C77.413 162.952 77.6567 162.93 77.8902 163.079Z" fill="url(#paint5_linear_2761_31482)"/>
<path d="M77.89 163.079C74.5819 163.068 77.7657 165.106 72.0386 164.82C71.9218 164.814 71.8144 164.83 71.8059 164.786C71.6858 164.122 73.5243 163.899 74.1318 163.159C75.7241 164.739 75.4364 161.406 77.7572 161.045C78.0762 162.015 78.253 162.541 77.89 163.079Z" fill="url(#paint6_linear_2761_31482)"/>
<path opacity="0.07" d="M83.5811 151.837L83.6505 150.458H80.3576C80.0784 154.039 80.8322 155.612 81.0548 158.321C81.4406 155.432 79.9422 151.832 83.5811 151.837Z" fill="#1D1D1B"/>
<path opacity="0.07" d="M77.7023 159.34C77.7852 155.958 78.7658 154.465 78.4536 150.458H75.1606L75.219 151.613C78.6202 152.178 77.3401 156.186 77.7023 159.34Z" fill="#1D1D1B"/>
<path d="M86.2367 151.233C85.1834 151.033 84.4193 150.954 83.8203 150.951C83.6943 150.951 83.5767 150.954 83.4624 150.957C82.7644 150.99 82.2889 151.13 81.7627 151.275C81.4733 151.354 81.1696 151.433 80.8058 151.496C80.3903 151.566 79.8937 151.618 79.2532 151.621C78.9402 151.624 78.6635 151.615 78.4139 151.596C77.5416 151.542 77.0145 151.396 76.5272 151.251C75.5973 150.978 74.8274 150.717 72.1284 151.141C72.2968 148.278 72.499 144.848 72.8357 141.491V141.488C73.3738 136.098 74.2622 130.909 75.9104 128.601H82.2018C85.7037 134.164 84.9278 143.193 86.2367 151.233Z" fill="#98C6CF"/>
<path opacity="0.07" d="M78.4139 151.597C75.8774 151.44 76.2412 150.496 72.1284 151.142C72.2968 148.279 72.499 144.846 72.8357 141.489C73.3738 136.099 74.2622 130.91 75.9104 128.602H76.0305C76.5179 128.966 77.0052 129.327 77.4925 129.687C76.5415 130.212 75.8224 131.094 75.3291 132.071C74.8384 133.044 74.5558 134.109 74.3121 135.174C73.8341 137.269 73.4847 139.396 73.2715 141.533C73.175 142.507 73.0879 143.48 73.0667 144.458C73.0303 146.155 72.873 147.987 73.9323 148.614C75.0778 149.292 74.9856 150.307 78.4139 151.597Z" fill="#1D1D1B"/>
<path opacity="0.07" d="M84.765 148.367C85.0028 146.868 84.8462 145.343 84.6897 143.836C84.3944 140.969 84.1 138.106 83.8022 135.241C83.6821 134.064 83.5551 132.866 83.083 131.78C82.6135 130.694 81.7378 129.723 80.5947 129.448C81.0161 129.166 81.4374 128.884 81.8588 128.602H82.2014C85.7033 134.164 84.9275 143.193 86.2364 151.233C85.183 151.033 84.419 150.954 83.82 150.951C84.3132 150.181 84.6203 149.277 84.765 148.367Z" fill="#1D1D1B"/>
<path opacity="0.07" d="M80.8055 151.498C80.39 151.567 79.8934 151.619 79.2529 151.622C78.9399 151.626 78.6632 151.616 78.4136 151.598C77.5413 151.543 77.0142 151.398 76.5269 151.252C77.2156 149.711 77.3721 147.971 77.5142 146.278C77.7427 143.606 77.9686 140.934 78.1945 138.262C78.3298 141.094 78.4686 143.955 79.2351 146.681C79.692 148.304 80.3723 149.875 80.8055 151.498Z" fill="#1D1D1B"/>
<path opacity="0.07" d="M83.4626 150.956C82.7646 150.989 82.2891 151.129 81.7628 151.275C81.0826 148.411 80.7611 145.464 80.8118 142.519C81.3982 145.412 82.2891 148.248 83.4626 150.956Z" fill="#1D1D1B"/>
<path opacity="0.07" d="M80.6764 135.142C80.4522 139.137 81.5165 143.196 83.6706 146.559C82.3753 142.835 81.0715 139.068 80.6764 135.142Z" fill="#1D1D1B"/>
<path d="M75.4404 127.966C75.4895 128.258 75.5386 128.553 75.5885 128.852C76.1596 129.793 77.5582 130.329 78.9559 130.385C80.3527 130.329 81.7522 129.793 82.3233 128.852C82.3732 128.554 82.4231 128.259 82.4713 127.966H75.4404Z" fill="#47383A"/>
<path d="M81.7354 113.638C82.6906 112.318 83.101 109.272 82.9664 108.498C82.7448 107.218 82.2295 106.483 81.6542 105.811C80.8487 104.87 77.6294 104.111 75.7782 106.202C74.6927 107.428 73.8855 109.762 75.9694 113.638C77.3849 116.274 79.9239 116.141 81.7354 113.638Z" fill="#47383A"/>
<path d="M73.5895 133.969L72.52 133.885L73.0311 125.586L75.3011 125.816C74.9533 128.756 74.4118 131.503 73.5895 133.969Z" fill="#FAD8AC"/>
<path d="M78.7851 115.008C78.7783 115.008 78.7707 115.008 78.7639 115.008C78.6709 115.008 78.5761 115.011 78.4805 115.016C76.1496 115.101 75.0201 116.139 73.7476 116.947C74.8187 121.337 74.7442 124.485 75.438 128.22C76.0015 129.062 77.384 129.542 78.7639 129.592C78.8282 129.589 78.8925 129.586 78.9568 129.582C79.0211 129.584 79.0854 129.586 79.1497 129.587C80.528 129.504 81.8986 128.992 82.4418 128.137C83.0485 124.387 82.8995 121.241 83.8675 116.827C82.5763 116.049 81.4232 115.037 79.0905 115.008C78.9941 115.006 78.9002 115.005 78.8071 115.007C78.7995 115.007 78.7927 115.008 78.7851 115.008Z" fill="url(#paint7_linear_2761_31482)"/>
<path d="M78.4062 121.948C78.4062 123.24 77.379 124.287 76.1124 124.287C74.8459 124.287 73.9803 123.685 73.9008 122.177C73.8187 120.615 75.5278 119.609 75.8561 118.231C76.1505 116.997 78.4062 120.656 78.4062 121.948Z" fill="url(#paint8_linear_2761_31482)"/>
<path d="M79.3284 121.936C79.3589 123.228 80.4097 124.25 81.6763 124.221C82.9429 124.191 83.794 123.568 83.8372 122.058C83.882 120.495 82.1509 119.53 81.7897 118.16C81.4673 116.934 79.298 120.644 79.3284 121.936Z" fill="url(#paint9_linear_2761_31482)"/>
<path d="M78.762 113.065H76.9878V115.243C77.0572 117.177 77.9329 118.567 78.7637 118.538C78.7849 118.538 78.8052 118.536 78.8263 118.533C78.8475 118.535 78.8678 118.537 78.8889 118.537C79.7198 118.545 80.5625 117.136 80.5861 115.201L80.5345 113.022L78.762 113.065Z" fill="#F2C799"/>
<path opacity="0.1" d="M73.9017 122.175C73.8814 121.783 73.9736 121.426 74.1285 121.089C74.1039 121.24 74.0895 121.394 74.098 121.555C74.1818 123.134 75.0955 123.763 76.4323 123.763C77.0948 123.763 77.6947 123.494 78.1321 123.057C77.907 123.481 77.5559 123.821 77.132 124.037C75.5448 125.368 75.8155 127.455 76.7225 129.172C76.1675 128.943 75.7089 128.623 75.439 128.22C75.1683 126.763 75.0143 125.394 74.8637 124.008C74.3019 123.696 73.9508 123.11 73.9017 122.175Z" fill="#1D1D1B"/>
<path opacity="0.1" d="M83.8373 122.059C83.8483 121.666 83.7476 121.311 83.5852 120.979C83.6139 121.128 83.6317 121.282 83.6266 121.444C83.5801 123.024 82.6815 123.675 81.3447 123.707C80.6823 123.723 80.0765 123.467 79.6289 123.041C79.8633 123.46 80.2229 123.792 80.6518 123.997C82.2695 125.289 82.0487 127.382 81.1815 129.12C81.7306 128.878 82.1815 128.548 82.4421 128.139C82.679 126.676 82.8 125.304 82.9176 123.914C83.4718 123.589 83.8102 122.994 83.8373 122.059Z" fill="#1D1D1B"/>
<path d="M71.7609 138.045C71.7778 138.01 71.7905 137.972 71.7956 137.93L71.9885 136.151L72.2838 135.801L72.2846 135.798L72.6671 135.345C73.184 134.809 73.393 134.491 73.4878 134.256L73.4928 134.247C73.5411 134.121 73.558 134.023 73.5749 133.921C73.5724 133.92 73.5724 133.92 73.5724 133.92C73.5732 133.918 73.5732 133.918 73.5749 133.915L72.6916 133.592C72.6501 133.696 72.5935 133.797 72.5207 133.886L71.4741 135.187C71.3861 135.296 71.3328 135.427 71.3184 135.568L71.2076 136.652C71.2042 136.678 71.2034 136.704 71.2067 136.728L71.3421 138.126C71.3455 138.187 71.3937 138.234 71.4538 138.239C71.48 138.24 71.5046 138.233 71.5299 138.228L71.5325 138.227C71.5646 138.22 71.5934 138.209 71.6213 138.193C71.6264 138.19 71.6306 138.188 71.6349 138.185C71.6585 138.169 71.6805 138.153 71.7008 138.132C71.711 138.121 71.7186 138.109 71.7279 138.096C71.7381 138.08 71.7516 138.065 71.7609 138.045Z" fill="#FAD8AC"/>
<path opacity="0.05" d="M71.7947 137.931L71.9876 136.152L72.2829 135.802L72.2837 135.799L72.6662 135.346C73.1831 134.81 73.3921 134.492 73.4869 134.257C73.1493 134.862 72.0096 135.84 71.7177 135.812C71.8319 136.32 71.7532 137.875 71.5273 138.23C71.6661 138.201 71.7769 138.086 71.7947 137.931Z" fill="#1D1D1B"/>
<path d="M73.4682 134.865L73.0519 135.479C72.9969 135.559 72.9496 135.644 72.9123 135.734L72.5815 136.498C72.5113 136.659 72.3505 136.746 72.2219 136.693C72.095 136.641 72.0417 136.476 72.0993 136.315L72.4622 135.302L73.3988 133.849C73.3988 133.849 73.5706 133.873 73.5731 133.915L73.6425 134.232C73.6594 134.448 73.596 134.678 73.4682 134.865Z" fill="#FAD8AC"/>
<path d="M78.8327 105.811C78.803 105.811 78.7734 105.811 78.7447 105.811C77.0576 105.857 75.7293 107.182 75.7783 108.771C75.7868 109.046 75.813 109.36 75.8612 109.688C75.7944 109.649 75.7259 109.632 75.6582 109.647C75.3908 109.702 75.2529 110.183 75.3468 110.722C75.4247 111.156 75.6286 111.493 75.846 111.576C75.8959 111.597 75.9475 111.603 75.9983 111.591C76.0161 111.587 76.0313 111.58 76.0474 111.572C76.2547 112.412 76.5119 113.069 76.7801 113.376C77.1253 113.77 77.3664 114.07 77.5948 114.295C77.9392 114.638 78.2489 114.806 78.8343 114.861C79.4198 114.806 79.7295 114.638 80.0738 114.295C80.3023 114.07 80.5434 113.77 80.8886 113.376C81.1568 113.069 81.4132 112.412 81.6213 111.572C81.6366 111.58 81.6518 111.588 81.6704 111.591C81.722 111.603 81.7736 111.596 81.8227 111.576C82.0401 111.492 82.244 111.155 82.3219 110.722C82.4158 110.183 82.2779 109.702 82.0105 109.647C81.942 109.632 81.8735 109.649 81.8075 109.688C81.8557 109.36 81.8819 109.046 81.8904 108.771C81.9394 107.183 80.6111 105.857 78.924 105.811C78.8919 105.811 78.8623 105.811 78.8327 105.811Z" fill="#FAD8AC"/>
<path d="M75.8262 107.292C75.6299 107.691 75.5385 108.132 75.448 108.567C75.3786 108.9 75.3101 109.233 75.2407 109.566C76.7104 110.337 79.8197 110.215 80.2715 106.992C80.7165 108.705 82.4967 109.235 82.5161 109.1C82.6447 108.21 82.2513 107.297 81.67 106.611C81.0879 105.926 80.2224 105.497 79.3264 105.423C78.4313 105.349 77.5158 105.626 76.795 106.163C76.3931 106.462 76.047 106.843 75.8262 107.292Z" fill="#47383A"/>
<path d="M79.7676 106.394C79.9106 106.964 80.0781 107.533 80.3522 108.052C80.6264 108.571 81.0139 109.043 81.5207 109.339C81.0714 108.89 80.7693 108.294 80.6712 107.666C80.6399 107.467 80.6289 107.266 80.5857 107.07C80.5426 106.874 80.4631 106.68 80.3192 106.541C80.1754 106.401 79.9563 106.327 79.7676 106.394Z" fill="#47383A"/>
<path opacity="0.1" d="M145.659 164.299V152.821C145.659 152.821 145.659 164.299 147.886 164.723L145.664 164.848L145.659 164.299Z" fill="black"/>
<path opacity="0.1" d="M156.436 164.299V152.821C156.436 152.821 156.734 164.539 152.535 164.723L156.432 164.848L156.436 164.299Z" fill="black"/>
</g>
<defs>
<linearGradient id="paint0_linear_2761_31482" x1="178.524" y1="19.1113" x2="136.679" y2="37.1658" gradientUnits="userSpaceOnUse">
<stop stop-color="#1F8297"/>
<stop offset="0.448113" stop-color="#166C7D"/>
<stop offset="1" stop-color="#003940"/>
</linearGradient>
<linearGradient id="paint1_linear_2761_31482" x1="149.593" y1="131.347" x2="128.921" y2="138.413" gradientUnits="userSpaceOnUse">
<stop stop-color="#F7A47A"/>
<stop offset="1" stop-color="#F26721"/>
</linearGradient>
<linearGradient id="paint2_linear_2761_31482" x1="129.864" y1="141.195" x2="118.643" y2="151.69" gradientUnits="userSpaceOnUse">
<stop stop-color="#1F8297"/>
<stop offset="0.448113" stop-color="#166C7D"/>
<stop offset="1" stop-color="#003940"/>
</linearGradient>
<linearGradient id="paint3_linear_2761_31482" x1="81.648" y1="162.976" x2="80.398" y2="163.439" gradientUnits="userSpaceOnUse">
<stop stop-color="#F7A47A"/>
<stop offset="1" stop-color="#F26721"/>
</linearGradient>
<linearGradient id="paint4_linear_2761_31482" x1="87.0101" y1="161.045" x2="83.489" y2="166.603" gradientUnits="userSpaceOnUse">
<stop stop-color="#F7A47A"/>
<stop offset="1" stop-color="#F26721"/>
</linearGradient>
<linearGradient id="paint5_linear_2761_31482" x1="77.8902" y1="162.976" x2="76.6402" y2="163.439" gradientUnits="userSpaceOnUse">
<stop stop-color="#F7A47A"/>
<stop offset="1" stop-color="#F26721"/>
</linearGradient>
<linearGradient id="paint6_linear_2761_31482" x1="78.092" y1="161.045" x2="74.5709" y2="166.603" gradientUnits="userSpaceOnUse">
<stop stop-color="#F7A47A"/>
<stop offset="1" stop-color="#F26721"/>
</linearGradient>
<linearGradient id="paint7_linear_2761_31482" x1="83.8675" y1="115.006" x2="70.1172" y2="124.107" gradientUnits="userSpaceOnUse">
<stop stop-color="#F7A47A"/>
<stop offset="1" stop-color="#F26721"/>
</linearGradient>
<linearGradient id="paint8_linear_2761_31482" x1="78.4062" y1="117.98" x2="72.3932" y2="122.081" gradientUnits="userSpaceOnUse">
<stop stop-color="#F7A47A"/>
<stop offset="1" stop-color="#F26721"/>
</linearGradient>
<linearGradient id="paint9_linear_2761_31482" x1="83.838" y1="117.915" x2="77.8247" y2="122.018" gradientUnits="userSpaceOnUse">
<stop stop-color="#F7A47A"/>
<stop offset="1" stop-color="#F26721"/>
</linearGradient>
<clipPath id="clip0_2761_31482">
<rect width="195" height="167" fill="white"/>
</clipPath>
</defs>
</svg>
