<svg width="195" height="175" viewBox="0 0 195 175" fill="none" xmlns="http://www.w3.org/2000/svg">
<g clip-path="url(#clip0_2651_14284)">
<rect x="-10.4624" y="-8" width="305" height="273" fill="#98C6CF"/>
<g opacity="0.7">
<path d="M51.8918 31.0076C50.9708 31.0076 50.1214 31.3505 49.4279 31.9258C48.6316 28.1358 45.6663 25.3167 42.1202 25.3167C39.5064 25.3167 37.2056 26.8477 35.8567 29.17C35.0526 28.677 34.1349 28.3954 33.1594 28.3954C32.0423 28.3954 31.0031 28.7679 30.1214 29.4023C29.4463 26.3107 27.0167 24.0184 24.1144 24.0184C23.9886 24.0184 23.8642 24.0241 23.7404 24.0324C23.8114 23.5216 23.8493 22.9979 23.8493 22.4639C23.8493 17.0008 19.9917 12.5723 15.2328 12.5723C13.8513 12.5723 12.5467 12.9478 11.3894 13.611C9.77644 7.81671 5.0496 3.62012 -0.532878 3.62012C-3.31405 3.62012 -5.8823 4.66264 -7.95935 6.4248V38.2533H55.5445C55.9 37.5439 56.1066 36.7234 56.1066 35.8461C56.1066 33.1737 54.2194 31.0076 51.8918 31.0076Z" fill="#E9F3F5"/>
<path d="M6.91702 22.4644H6.58691C6.58691 18.6918 8.41077 15.2918 11.3468 13.5918L11.4956 13.9302C8.67156 15.5654 6.91702 18.8358 6.91702 22.4644Z" fill="#98C6CF"/>
<path d="M13.8213 28.6296C12.1153 23.7565 7.27425 21.3835 3.02937 23.3427C0.95595 24.2988 -0.662576 26.1288 -1.52779 28.4947L-1.83215 28.348C-0.932605 25.8878 0.749963 23.9854 2.90624 22.991C7.3198 20.9541 12.354 23.4211 14.1276 28.4882L13.8213 28.6296Z" fill="#98C6CF"/>
<path d="M19.4223 26.6484L19.1708 26.4028C20.2823 24.9029 21.8331 23.9957 23.5378 23.8486L23.5622 24.2268C21.9467 24.3663 20.4764 25.2262 19.4223 26.6484Z" fill="#98C6CF"/>
<path d="M26.6102 34.0923L26.3025 33.9539C27.477 30.508 29.9528 29.2783 30.0575 29.2275L30.1859 29.5769C30.1615 29.5887 27.7315 30.8006 26.6102 34.0923Z" fill="#98C6CF"/>
<path d="M40.2647 33.9194C38.595 30.5171 35.829 29.3609 35.8013 29.3495L35.9112 28.9922C36.029 29.0399 38.8191 30.2022 40.5522 33.7337L40.2647 33.9194Z" fill="#98C6CF"/>
<path d="M48.0342 36.0882L47.7041 36.0836C47.7371 33.0917 49.2675 31.8222 49.3332 31.7695L49.523 32.0791C49.5085 32.0913 48.0649 33.2998 48.0342 36.0882Z" fill="#98C6CF"/>
</g>
<path d="M52.4656 36.3853L52.7617 27.9883C52.7647 27.9024 52.8278 27.8356 52.9025 27.839C52.9735 27.8421 53.0296 27.9083 53.0326 27.9883L53.3289 36.3853C53.3354 37.0635 52.4602 37.0673 52.4656 36.3853Z" fill="#BAD8DF"/>
<path d="M-0.099948 112.443L0.196396 104.046C0.199376 103.96 0.262492 103.893 0.337255 103.897C0.408226 103.9 0.464298 103.966 0.467278 104.046L0.763623 112.443C0.769853 113.121 -0.105636 113.125 -0.099948 112.443Z" fill="#BAD8DF"/>
<path d="M7.55813 28.2522L7.8542 19.8554C7.85718 19.7696 7.9203 19.7028 7.99506 19.7062C8.06603 19.7096 8.12183 19.7755 8.12509 19.8554L8.42143 28.2525C8.42793 28.9301 7.55271 28.9345 7.55813 28.2522Z" fill="#BAD8DF"/>
<path d="M3.53628 46.4371L3.83262 38.04C3.8356 37.9542 3.89872 37.8873 3.97348 37.8908C4.04445 37.8942 4.10053 37.9601 4.10351 38.04L4.39985 46.4371C4.40608 47.115 3.53086 47.119 3.53628 46.4371Z" fill="#BAD8DF"/>
<path d="M12.6717 9.38238L12.968 0.985327C12.971 0.8995 13.0341 0.832642 13.1089 0.836063C13.1798 0.839484 13.2359 0.905409 13.2389 0.985327L13.535 9.38238C13.5415 10.0603 12.6662 10.0643 12.6717 9.38238Z" fill="#BAD8DF"/>
<path d="M31.5783 23.2027L31.8743 14.8056C31.8773 14.7198 31.9404 14.653 32.0152 14.6564C32.0862 14.6598 32.1422 14.7257 32.1452 14.8056L32.4413 23.2027C32.4481 23.8809 31.5729 23.885 31.5783 23.2027Z" fill="#BAD8DF"/>
<path d="M17.6386 32.4517L17.9346 24.0547C17.9376 23.9688 18.0007 23.902 18.0755 23.9054C18.1465 23.9085 18.2026 23.9747 18.2055 24.0547L18.5019 32.4517C18.5084 33.1296 17.6332 33.1337 17.6386 32.4517Z" fill="#BAD8DF"/>
<path d="M91.8279 97.0679L92.1243 88.6709C92.1272 88.585 92.1903 88.5182 92.2651 88.5216C92.3361 88.525 92.3922 88.5909 92.3951 88.6709L92.6912 97.0679C92.6977 97.7458 91.8225 97.7499 91.8279 97.0679Z" fill="#BAD8DF"/>
<path d="M99.0596 136.54L99.3559 128.143C99.3589 128.057 99.422 127.99 99.4968 127.993C99.5678 127.997 99.6238 128.063 99.6268 128.143L99.9232 136.54C99.9294 137.218 99.0542 137.222 99.0596 136.54Z" fill="#BAD8DF"/>
<path d="M87.6671 104.996L87.9635 96.5986C87.9665 96.5128 88.0296 96.4459 88.1043 96.4493C88.1753 96.4528 88.2314 96.5187 88.2344 96.5986L88.5307 104.996C88.5369 105.674 87.6617 105.678 87.6671 104.996Z" fill="#BAD8DF"/>
<path d="M105.505 123.655L105.801 115.258C105.804 115.172 105.867 115.105 105.942 115.109C106.013 115.112 106.069 115.178 106.072 115.258L106.368 123.655C106.374 124.333 105.499 124.337 105.505 123.655Z" fill="#BAD8DF"/>
<path d="M17.1608 61.9517L17.4571 53.5547C17.4601 53.4688 17.5232 53.402 17.598 53.4054C17.669 53.4088 17.725 53.4747 17.728 53.5547L18.0244 61.9517C18.0309 62.6299 17.1554 62.634 17.1608 61.9517Z" fill="#BAD8DF"/>
<path d="M53.8078 65.524L54.1038 57.1269C54.1068 57.0411 54.1699 56.9742 54.2447 56.9777C54.3157 56.9811 54.3715 57.047 54.3747 57.1269L54.6711 65.524C54.6776 66.2019 53.8023 66.2059 53.8078 65.524Z" fill="#BAD8DF"/>
<path d="M42.6939 58.7193L42.9902 50.3222C42.9932 50.2364 43.0563 50.1696 43.1311 50.173C43.202 50.1764 43.2581 50.2423 43.2611 50.3222L43.5574 58.7193C43.5637 59.3972 42.6885 59.4012 42.6939 58.7193Z" fill="#BAD8DF"/>
<path d="M5.08133 116.289L5.37767 107.892C5.38065 107.806 5.44377 107.739 5.51853 107.742C5.5895 107.746 5.64557 107.812 5.64855 107.892L5.9449 116.289C5.95113 116.967 5.07564 116.971 5.08133 116.289Z" fill="#BAD8DF"/>
<path d="M13.5152 74.3111L13.8115 65.914C13.8145 65.8282 13.8776 65.7614 13.9524 65.7648C14.0233 65.7682 14.0794 65.8341 14.0824 65.914L14.3785 74.3111C14.385 74.989 13.5097 74.993 13.5152 74.3111Z" fill="#BAD8DF"/>
<path d="M21.1665 76.0425L21.4626 67.6455C21.4656 67.5597 21.5287 67.4928 21.6035 67.4962C21.6744 67.4996 21.7305 67.5656 21.7335 67.6455L22.0296 76.0425C22.0363 76.7204 21.1611 76.7245 21.1665 76.0425Z" fill="#BAD8DF"/>
<path d="M28.1166 87.1509L28.4127 78.7539C28.4157 78.668 28.4788 78.6012 28.5535 78.6046C28.6245 78.608 28.6806 78.674 28.6836 78.7539L28.9796 87.1509C28.9864 87.8288 28.1112 87.8329 28.1166 87.1509Z" fill="#BAD8DF"/>
<path d="M97.8795 102.383L98.1759 93.9863C98.1789 93.9005 98.242 93.8336 98.3167 93.837C98.3877 93.8405 98.4435 93.9064 98.4468 93.9863L98.7431 102.383C98.7493 103.061 97.8741 103.065 97.8795 102.383Z" fill="#BAD8DF"/>
<path d="M73.5153 108.866L73.8114 100.469C73.8143 100.383 73.8775 100.316 73.9522 100.319C74.0232 100.323 74.0793 100.389 74.0822 100.469L74.3786 108.866C74.3854 109.544 73.5099 109.548 73.5153 108.866Z" fill="#BAD8DF"/>
<path d="M111.405 135.07L111.702 126.673C111.704 126.587 111.768 126.52 111.842 126.524C111.913 126.527 111.969 126.593 111.972 126.673L112.269 135.07C112.275 135.748 111.4 135.752 111.405 135.07Z" fill="#BAD8DF"/>
<path d="M63.0811 106.123L63.3774 97.7256C63.3804 97.6397 63.4435 97.5729 63.5183 97.5763C63.5893 97.5797 63.6453 97.6456 63.6483 97.7256L63.9444 106.123C63.9506 106.801 63.0754 106.805 63.0811 106.123Z" fill="#BAD8DF"/>
<path d="M113.822 65.2398L114.118 56.8428C114.121 56.7569 114.184 56.6901 114.259 56.6935C114.33 56.6969 114.386 56.7628 114.389 56.8428L114.685 65.2398C114.691 65.9177 113.816 65.9218 113.822 65.2398Z" fill="#BAD8DF"/>
<path d="M27.685 140.27L27.981 131.873C27.984 131.787 28.0471 131.72 28.1219 131.724C28.1929 131.727 28.2489 131.793 28.2519 131.873L28.548 140.27C28.5545 140.948 27.6793 140.952 27.685 140.27Z" fill="#BAD8DF"/>
<path d="M34.6345 143.468L34.9309 135.071C34.9339 134.985 34.997 134.919 35.0718 134.922C35.1427 134.925 35.1988 134.991 35.2018 135.071L35.4978 143.468C35.5041 144.146 34.6289 144.151 34.6345 143.468Z" fill="#BAD8DF"/>
<path d="M102.259 111.081L102.555 102.684C102.558 102.598 102.621 102.531 102.696 102.534C102.767 102.538 102.823 102.604 102.826 102.684L103.122 111.081C103.129 111.759 102.254 111.763 102.259 111.081Z" fill="#BAD8DF"/>
<path d="M145.079 27.731L145.375 19.334C145.378 19.2481 145.441 19.1813 145.516 19.1847C145.587 19.1881 145.643 19.254 145.646 19.334L145.942 27.731C145.949 28.4089 145.073 28.413 145.079 27.731Z" fill="#BAD8DF"/>
<path d="M141.581 11.5748L141.877 3.17771C141.88 3.09188 141.943 3.02503 142.018 3.02845C142.089 3.03187 142.145 3.09779 142.148 3.17771L142.444 11.5748C142.451 12.2527 141.575 12.2567 141.581 11.5748Z" fill="#BAD8DF"/>
<path d="M147.067 5.49762L147.363 -2.89944C147.366 -2.98527 147.429 -3.05212 147.504 -3.0487C147.575 -3.04528 147.631 -2.97936 147.634 -2.89944L147.93 5.49762C147.937 6.17553 147.062 6.17957 147.067 5.49762Z" fill="#BAD8DF"/>
<path d="M159.857 50.9664L160.153 42.5693C160.156 42.4835 160.219 42.4166 160.294 42.42C160.365 42.4232 160.421 42.4894 160.424 42.5693L160.72 50.9664C160.727 51.6443 159.851 51.6486 159.857 50.9664Z" fill="#BAD8DF"/>
<path d="M142.878 110.652L143.175 102.255C143.178 102.169 143.241 102.102 143.315 102.106C143.386 102.109 143.442 102.175 143.445 102.255L143.742 110.652C143.748 111.33 142.873 111.334 142.878 110.652Z" fill="#BAD8DF"/>
<path d="M183.07 4.85504L183.366 -3.54202C183.369 -3.62784 183.432 -3.6947 183.507 -3.69128C183.578 -3.68786 183.634 -3.62193 183.637 -3.54202L183.933 4.85504C183.94 5.53295 183.064 5.5373 183.07 4.85504Z" fill="#BAD8DF"/>
<path d="M137.832 96.2554L138.128 87.8584C138.131 87.7726 138.194 87.7057 138.269 87.7091C138.34 87.7125 138.396 87.7785 138.399 87.8584L138.696 96.2554C138.702 96.9333 137.827 96.9377 137.832 96.2554Z" fill="#BAD8DF"/>
<path d="M158.718 113.393L159.015 104.996C159.018 104.91 159.081 104.843 159.155 104.847C159.226 104.85 159.283 104.916 159.286 104.996L159.582 113.393C159.588 114.071 158.713 114.075 158.718 113.393Z" fill="#BAD8DF"/>
<path d="M146.001 141.806L146.297 133.409C146.3 133.323 146.363 133.256 146.438 133.26C146.509 133.263 146.565 133.329 146.568 133.409L146.864 141.806C146.871 142.484 145.995 142.488 146.001 141.806Z" fill="#BAD8DF"/>
<path d="M160.29 134.728L160.586 126.331C160.589 126.245 160.652 126.178 160.727 126.182C160.798 126.185 160.854 126.251 160.857 126.331L161.154 134.728C161.16 135.406 160.284 135.41 160.29 134.728Z" fill="#BAD8DF"/>
<path d="M164.071 136.577L164.368 128.18C164.371 128.094 164.434 128.027 164.508 128.03C164.579 128.034 164.635 128.099 164.638 128.18L164.935 136.577C164.941 137.255 164.066 137.259 164.071 136.577Z" fill="#BAD8DF"/>
<path d="M129.101 113.393L129.397 104.996C129.4 104.91 129.463 104.843 129.538 104.847C129.609 104.85 129.665 104.916 129.668 104.996L129.965 113.393C129.971 114.071 129.096 114.075 129.101 113.393Z" fill="#BAD8DF"/>
<path d="M124.458 106.231L124.755 97.834C124.758 97.7481 124.821 97.6813 124.895 97.6847C124.966 97.6878 125.023 97.754 125.026 97.834L125.322 106.231C125.328 106.909 124.453 106.913 124.458 106.231Z" fill="#BAD8DF"/>
<path d="M29.5235 60.148L29.8195 51.751C29.8225 51.6651 29.8856 51.5983 29.9604 51.6017C30.0314 51.6051 30.0874 51.671 30.0904 51.751L30.3865 60.148C30.3933 60.8262 29.518 60.8303 29.5235 60.148Z" fill="#BAD8DF"/>
<path d="M75.5266 3.81207L75.823 -4.58499C75.826 -4.67081 75.8891 -4.73767 75.9638 -4.73425C76.0348 -4.73083 76.0909 -4.6649 76.0939 -4.58499L76.3899 3.81207C76.3964 4.48998 75.5215 4.49402 75.5266 3.81207Z" fill="#BAD8DF"/>
<path d="M48.1637 10.607L48.4598 2.20994C48.4628 2.12411 48.5259 2.05725 48.6007 2.06067C48.6716 2.06378 48.7277 2.12971 48.7307 2.20994L49.027 10.607C49.0335 11.2852 48.1583 11.2893 48.1637 10.607Z" fill="#BAD8DF"/>
<path d="M73.947 75.5982L74.2434 67.2011C74.2464 67.1153 74.3095 67.0485 74.3842 67.0519C74.4552 67.0553 74.5113 67.1212 74.5143 67.2011L74.8106 75.5982C74.8168 76.2761 73.9416 76.2802 73.947 75.5982Z" fill="#BAD8DF"/>
<path d="M48.0137 111.839L48.31 103.442C48.313 103.357 48.3761 103.29 48.4509 103.293C48.5219 103.297 48.5779 103.362 48.5809 103.442L48.877 111.839C48.8835 112.517 48.0083 112.521 48.0137 111.839Z" fill="#BAD8DF"/>
<path d="M55.7005 118.401L55.9968 110.004C55.9998 109.918 56.0629 109.851 56.1377 109.855C56.2086 109.858 56.2647 109.924 56.2677 110.004L56.5638 118.401C56.5703 119.079 55.695 119.083 55.7005 118.401Z" fill="#BAD8DF"/>
<path d="M59.814 101.594L60.1101 93.1972C60.113 93.1114 60.1762 93.0446 60.2509 93.048C60.3219 93.0514 60.3777 93.1173 60.3809 93.1972L60.6773 101.594C60.6838 102.272 59.8086 102.276 59.814 101.594Z" fill="#BAD8DF"/>
<path d="M69.4149 65.5992L69.7113 57.2021C69.7143 57.1163 69.7774 57.0494 69.8522 57.0529C69.9231 57.0563 69.9792 57.1222 69.9822 57.2021L70.2782 65.5992C70.2845 66.2774 69.4093 66.2811 69.4149 65.5992Z" fill="#BAD8DF"/>
<path d="M62.5594 82.5709L62.8557 74.1738C62.8587 74.088 62.9218 74.0211 62.9966 74.0245C63.0675 74.0276 63.1236 74.0939 63.1266 74.1738L63.4229 82.5709C63.4292 83.2488 62.5539 83.2528 62.5594 82.5709Z" fill="#BAD8DF"/>
<path d="M92.8035 11.9039L93.0998 3.50681C93.1028 3.42098 93.1659 3.35413 93.2407 3.35755C93.3117 3.36097 93.3677 3.42689 93.3707 3.50681L93.6671 11.9039C93.6736 12.5818 92.7983 12.5858 92.8035 11.9039Z" fill="#BAD8DF"/>
<path d="M84.6181 12.65L84.9144 4.25291C84.9174 4.16708 84.9805 4.10022 85.0553 4.10364C85.1262 4.10706 85.1823 4.17299 85.1853 4.25291L85.4816 12.65C85.4879 13.3279 84.6124 13.3322 84.6181 12.65Z" fill="#BAD8DF"/>
<path d="M87.6671 5.49762L87.9635 -2.89944C87.9665 -2.98527 88.0296 -3.05212 88.1043 -3.0487C88.1753 -3.04528 88.2314 -2.97936 88.2344 -2.89944L88.5307 5.49762C88.5369 6.17553 87.6617 6.17957 87.6671 5.49762Z" fill="#BAD8DF"/>
<path d="M113.792 3.72027L114.088 -4.67678C114.091 -4.76261 114.154 -4.82947 114.229 -4.82605C114.3 -4.82263 114.356 -4.75701 114.359 -4.67678L114.656 3.72027C114.662 4.39818 113.787 4.40223 113.792 3.72027Z" fill="#BAD8DF"/>
<path d="M78.0102 59.0113L78.3065 50.6142C78.3095 50.5284 78.3726 50.4615 78.4474 50.465C78.5183 50.4681 78.5744 50.5343 78.5774 50.6142L78.8737 59.0113C78.88 59.6895 78.0047 59.6932 78.0102 59.0113Z" fill="#BAD8DF"/>
<path d="M123.797 9.38238L124.093 0.985327C124.096 0.8995 124.159 0.832642 124.234 0.836063C124.305 0.839484 124.361 0.905409 124.364 0.985327L124.661 9.38238C124.667 10.0603 123.792 10.0643 123.797 9.38238Z" fill="#BAD8DF"/>
<path d="M126.58 66.9127L126.877 58.5156C126.88 58.4298 126.943 58.3629 127.018 58.3663C127.089 58.3694 127.145 58.4357 127.148 58.5156L127.444 66.9127C127.45 67.5909 126.575 67.5946 126.58 66.9127Z" fill="#BAD8DF"/>
<path d="M112.999 109.197L113.295 100.8C113.298 100.714 113.361 100.647 113.436 100.651C113.507 100.654 113.563 100.72 113.566 100.8L113.862 109.197C113.868 109.875 112.993 109.879 112.999 109.197Z" fill="#BAD8DF"/>
<path d="M104.781 6.07867L105.077 -2.31838C105.08 -2.40421 105.143 -2.47107 105.218 -2.46765C105.289 -2.46454 105.345 -2.3983 105.348 -2.31838L105.644 6.07867C105.65 6.75658 104.775 6.76062 104.781 6.07867Z" fill="#BAD8DF"/>
<path d="M94.891 24.2203L95.1874 15.8232C95.1903 15.7374 95.2534 15.6705 95.3282 15.674C95.3992 15.6774 95.4553 15.7433 95.4582 15.8232L95.7546 24.2203C95.7608 24.8982 94.8859 24.9022 94.891 24.2203Z" fill="#BAD8DF"/>
<path d="M108.877 11.022L109.173 2.62498C109.176 2.53915 109.239 2.47229 109.314 2.47571C109.385 2.47913 109.441 2.54475 109.444 2.62498L109.741 11.022C109.747 11.6999 108.872 11.704 108.877 11.022Z" fill="#BAD8DF"/>
<path d="M107.2 58.7193L107.496 50.3222C107.499 50.2364 107.562 50.1696 107.637 50.173C107.708 50.1764 107.764 50.2423 107.767 50.3222L108.064 58.7193C108.07 59.3972 107.195 59.4016 107.2 58.7193Z" fill="#BAD8DF"/>
<path d="M88.899 66.0377L89.195 57.6406C89.198 57.5548 89.2611 57.4879 89.3359 57.4913C89.4069 57.4948 89.4627 57.5607 89.4659 57.6406L89.7623 66.0377C89.7688 66.7156 88.8935 66.7196 88.899 66.0377Z" fill="#BAD8DF"/>
<path d="M93.2351 61.5093L93.5315 53.1123C93.5345 53.0265 93.5976 52.9596 93.6723 52.963C93.7433 52.9664 93.7994 53.0324 93.8024 53.1123L94.0987 61.5093C94.1049 62.1872 93.2297 62.1916 93.2351 61.5093Z" fill="#BAD8DF"/>
<path d="M8.96987 59.7525L9.26622 51.3554C9.2692 51.2696 9.33231 51.2028 9.40708 51.2062C9.47805 51.2096 9.53385 51.2755 9.5371 51.3554L9.83317 59.7525C9.83967 60.4304 8.96446 60.4345 8.96987 59.7525Z" fill="#BAD8DF"/>
<path d="M52.0337 130.543L52.3298 122.145C52.3328 122.06 52.3959 121.993 52.4707 121.996C52.5416 122 52.5974 122.066 52.6007 122.145L52.897 130.543C52.9035 131.22 52.0283 131.224 52.0337 130.543Z" fill="#BAD8DF"/>
<path d="M139.147 42.2398L139.444 33.8427C139.447 33.7569 139.51 33.6901 139.584 33.6935C139.655 33.6969 139.711 33.7628 139.714 33.8427L140.011 42.2398C140.017 42.918 139.142 42.9221 139.147 42.2398Z" fill="#BAD8DF"/>
<path d="M143.741 69.2046L144.038 60.8076C144.041 60.7218 144.104 60.6549 144.179 60.6583C144.25 60.6617 144.305 60.7277 144.309 60.8076L144.605 69.2046C144.611 69.8826 143.736 69.8869 143.741 69.2046Z" fill="#BAD8DF"/>
<path d="M69.9976 31.856L70.2939 23.459C70.2969 23.3731 70.36 23.3063 70.4348 23.3097C70.5058 23.3131 70.5618 23.379 70.5648 23.459L70.8612 31.856C70.8671 32.5339 69.9922 32.538 69.9976 31.856Z" fill="#BAD8DF"/>
<path d="M46.6966 90.9673L46.9926 82.5703C46.9956 82.4845 47.0587 82.4176 47.1335 82.421C47.2045 82.4241 47.2603 82.4904 47.2635 82.5703L47.5599 90.9673C47.5664 91.6453 46.6911 91.6496 46.6966 90.9673Z" fill="#BAD8DF"/>
<path d="M62.7222 60.4859L63.0185 52.0888C63.0215 52.003 63.0846 51.9362 63.1594 51.9396C63.2304 51.943 63.2864 52.0089 63.2894 52.0888L63.5855 60.4859C63.592 61.1641 62.7168 61.1682 62.7222 60.4859Z" fill="#BAD8DF"/>
<path d="M108.445 97.0679L108.741 88.6709C108.744 88.5851 108.808 88.5182 108.882 88.5216C108.953 88.525 109.009 88.591 109.012 88.6709L109.309 97.0679C109.315 97.7462 108.44 97.7502 108.445 97.0679Z" fill="#BAD8DF"/>
<path d="M153.682 43.3912L153.979 34.9941C153.982 34.9083 154.045 34.8414 154.119 34.8449C154.19 34.8483 154.247 34.9142 154.25 34.9941L154.546 43.3912C154.552 44.0691 153.677 44.0734 153.682 43.3912Z" fill="#BAD8DF"/>
<path d="M166.55 5.49762L166.846 -2.89944C166.849 -2.98527 166.913 -3.05212 166.987 -3.0487C167.058 -3.04528 167.114 -2.97967 167.117 -2.89944L167.414 5.49762C167.42 6.17553 166.545 6.17957 166.55 5.49762Z" fill="#BAD8DF"/>
<path d="M136.897 4.85504L137.193 -3.54202C137.196 -3.62784 137.259 -3.6947 137.334 -3.69128C137.405 -3.68786 137.461 -3.62225 137.464 -3.54202L137.76 4.85504C137.766 5.53295 136.891 5.5373 136.897 4.85504Z" fill="#BAD8DF"/>
<path d="M69.4293 90.9673L69.7257 82.5703C69.7287 82.4845 69.7918 82.4176 69.8665 82.421C69.9375 82.4244 69.9936 82.4904 69.9966 82.5703L70.2929 90.9673C70.2991 91.6453 69.4239 91.6496 69.4293 90.9673Z" fill="#BAD8DF"/>
<path d="M41.2107 31.856L41.5071 23.459C41.51 23.3731 41.5732 23.3063 41.6479 23.3097C41.7189 23.3131 41.775 23.379 41.7779 23.459L42.074 31.856C42.0802 32.5339 41.2053 32.538 41.2107 31.856Z" fill="#BAD8DF"/>
<path d="M86.1601 59.7525L86.4564 51.3554C86.4594 51.2696 86.5225 51.2028 86.5973 51.2062C86.6682 51.2096 86.7243 51.2755 86.7273 51.3554L87.0236 59.7525C87.0299 60.4304 86.1546 60.4345 86.1601 59.7525Z" fill="#BAD8DF"/>
<path d="M52.0337 87.3843L52.3298 78.9873C52.3328 78.9015 52.3959 78.8346 52.4707 78.838C52.5416 78.8414 52.5977 78.9074 52.6007 78.9873L52.897 87.3843C52.9035 88.0626 52.0283 88.0663 52.0337 87.3843Z" fill="#BAD8DF"/>
<path d="M136.465 60.148L136.761 51.751C136.764 51.6651 136.827 51.5983 136.902 51.6017C136.973 51.6051 137.029 51.671 137.032 51.751L137.329 60.148C137.335 60.8262 136.46 60.8303 136.465 60.148Z" fill="#BAD8DF"/>
<path d="M37.5011 16.1021L37.7972 7.70505C37.8002 7.61923 37.8633 7.55237 37.9381 7.55579C38.009 7.55921 38.0651 7.62482 38.0681 7.70505L38.3644 16.1021C38.3709 16.78 37.4957 16.7844 37.5011 16.1021Z" fill="#BAD8DF"/>
<path d="M-0.0999505 66.5289L0.196394 58.1318C0.199374 58.046 0.262489 57.9791 0.337253 57.9825C0.408224 57.986 0.464025 58.0519 0.467276 58.1318L0.763349 66.5289C0.769851 67.2068 -0.105368 67.2111 -0.0999505 66.5289Z" fill="#BAD8DF"/>
<path d="M43.1256 115.288L43.422 106.891C43.425 106.805 43.4881 106.738 43.5628 106.741C43.6338 106.745 43.6899 106.811 43.6929 106.891L43.9889 115.288C43.9952 115.966 43.1202 115.97 43.1256 115.288Z" fill="#BAD8DF"/>
<path d="M179.21 79.2154L179.507 70.8183C179.51 70.7325 179.573 70.6657 179.648 70.6691C179.719 70.6725 179.775 70.7384 179.778 70.8183L180.074 79.2154C180.08 79.8933 179.205 79.8973 179.21 79.2154Z" fill="#BAD8DF"/>
<path d="M150.198 103.025L150.494 94.6279C150.497 94.5421 150.56 94.4752 150.635 94.4786C150.706 94.4821 150.762 94.548 150.765 94.6279L151.061 103.025C151.067 103.703 150.192 103.707 150.198 103.025Z" fill="#BAD8DF"/>
<path d="M145.511 116.972L145.807 108.575C145.81 108.489 145.873 108.422 145.948 108.426C146.019 108.429 146.075 108.495 146.078 108.575L146.374 116.972C146.38 117.65 145.505 117.654 145.511 116.972Z" fill="#BAD8DF"/>
<path d="M115.872 101.072L116.169 92.6748C116.172 92.5889 116.235 92.5221 116.31 92.5255C116.381 92.5289 116.437 92.5949 116.44 92.6748L116.736 101.072C116.742 101.75 115.867 101.754 115.872 101.072Z" fill="#BAD8DF"/>
<path d="M137.832 119.128L138.128 110.73C138.131 110.645 138.194 110.578 138.269 110.581C138.34 110.585 138.396 110.651 138.399 110.73L138.696 119.128C138.702 119.805 137.827 119.809 137.832 119.128Z" fill="#BAD8DF"/>
<path d="M138.963 75.5982L139.259 67.2011C139.262 67.1153 139.325 67.0485 139.4 67.0519C139.471 67.0553 139.527 67.1209 139.53 67.2011L139.826 75.5982C139.833 76.2761 138.957 76.2802 138.963 75.5982Z" fill="#BAD8DF"/>
<path d="M192.899 42.2398L193.195 33.8427C193.198 33.7569 193.261 33.6901 193.336 33.6935C193.407 33.6969 193.463 33.7628 193.466 33.8427L193.762 42.2398C193.769 42.918 192.893 42.9221 192.899 42.2398Z" fill="#BAD8DF"/>
<path d="M180.7 42.2398L180.996 33.8427C180.999 33.7569 181.063 33.6901 181.137 33.6935C181.208 33.6969 181.264 33.7628 181.267 33.8427L181.563 42.2398C181.57 42.918 180.695 42.9221 180.7 42.2398Z" fill="#BAD8DF"/>
<path d="M187.478 16.4332L187.774 8.03611C187.777 7.95028 187.84 7.88342 187.915 7.88684C187.986 7.89027 188.042 7.95588 188.045 8.03611L188.341 16.4332C188.347 17.1111 187.472 17.1151 187.478 16.4332Z" fill="#BAD8DF"/>
<path d="M178.042 13.0152L178.339 4.61814C178.342 4.53231 178.405 4.46545 178.479 4.46888C178.55 4.4723 178.607 4.53822 178.61 4.61814L178.906 13.0152C178.912 13.6931 178.037 13.6971 178.042 13.0152Z" fill="#BAD8DF"/>
<path d="M168.623 84.8609L168.919 76.4638C168.922 76.378 168.985 76.3112 169.06 76.3146C169.131 76.3177 169.187 76.3836 169.19 76.4638L169.486 84.8609C169.492 85.5388 168.617 85.5432 168.623 84.8609Z" fill="#BAD8DF"/>
<path d="M164.503 80.3306L164.799 71.9336C164.802 71.8477 164.866 71.7809 164.94 71.7843C165.011 71.7874 165.067 71.8536 165.07 71.9336L165.367 80.3306C165.373 81.0085 164.498 81.0126 164.503 80.3306Z" fill="#BAD8DF"/>
<path d="M185.31 50.6539L185.606 42.2568C185.609 42.171 185.672 42.1041 185.747 42.1075C185.818 42.111 185.874 42.1769 185.877 42.2568L186.174 50.6539C186.18 51.3321 185.305 51.3361 185.31 50.6539Z" fill="#BAD8DF"/>
<path d="M190.867 99.9673L191.163 91.5703C191.166 91.4845 191.23 91.4176 191.304 91.421C191.375 91.4244 191.431 91.4904 191.434 91.5703L191.731 99.9673C191.737 100.645 190.862 100.65 190.867 99.9673Z" fill="#BAD8DF"/>
<path d="M185.076 95.1666L185.373 86.7695C185.376 86.6837 185.439 86.6168 185.514 86.6202C185.584 86.6237 185.641 86.6896 185.644 86.7695L185.94 95.1666C185.946 95.8445 185.071 95.8485 185.076 95.1666Z" fill="#BAD8DF"/>
<path d="M160.722 97.5894L161.018 89.1924C161.021 89.1065 161.084 89.0397 161.159 89.0431C161.23 89.0462 161.286 89.1124 161.289 89.1924L161.585 97.5894C161.591 98.2676 160.716 98.2717 160.722 97.5894Z" fill="#BAD8DF"/>
<path d="M150.198 51.3541L150.494 42.957C150.497 42.8712 150.56 42.8043 150.635 42.8077C150.706 42.8112 150.762 42.8771 150.765 42.957L151.061 51.3541C151.068 52.032 150.192 52.0363 150.198 51.3541Z" fill="#BAD8DF"/>
<path d="M182.638 128.811L182.934 120.414C182.937 120.328 183 120.261 183.075 120.265C183.146 120.268 183.202 120.334 183.205 120.414L183.501 128.811C183.508 129.489 182.632 129.493 182.638 128.811Z" fill="#BAD8DF"/>
<path d="M124.369 60.148L124.666 51.751C124.669 51.6651 124.732 51.5983 124.807 51.6017C124.878 51.6051 124.934 51.671 124.937 51.751L125.233 60.148C125.239 60.8262 124.364 60.8303 124.369 60.148Z" fill="#BAD8DF"/>
<path d="M193.331 83.2398L193.627 74.8428C193.63 74.7569 193.693 74.6901 193.768 74.6935C193.839 74.6969 193.895 74.7625 193.898 74.8428L194.194 83.2398C194.2 83.9177 193.325 83.9218 193.331 83.2398Z" fill="#BAD8DF"/>
<path d="M181.75 85.9185L182.046 77.5215C182.049 77.4356 182.112 77.3688 182.187 77.3722C182.258 77.3756 182.314 77.4415 182.317 77.5215L182.614 85.9185C182.62 86.5964 181.745 86.6005 181.75 85.9185Z" fill="#BAD8DF"/>
<path d="M51.9672 92.9055L52.2727 85.9845C52.2758 85.9137 52.3409 85.8586 52.418 85.8614C52.4913 85.864 52.5491 85.9186 52.5522 85.9845L52.858 92.9055C52.8647 93.4645 51.9616 93.4675 51.9672 92.9055Z" fill="#BAD8DF"/>
<path d="M5.6293 86.2031L5.9348 79.2823C5.93788 79.2116 6.003 79.1565 6.08015 79.1593C6.15338 79.1621 6.21096 79.2164 6.21431 79.2823L6.5201 86.2033C6.52681 86.7618 5.62371 86.7654 5.6293 86.2031Z" fill="#BAD8DF"/>
<path d="M1.47915 101.191L1.78494 94.2696C1.78801 94.1989 1.85314 94.1438 1.93028 94.1466C2.00351 94.1494 2.06137 94.2037 2.06445 94.2696L2.37023 101.191C2.37666 101.749 1.47356 101.753 1.47915 101.191Z" fill="#BAD8DF"/>
<path d="M10.9057 70.6496L11.2115 63.7286C11.2145 63.6579 11.2797 63.6028 11.3568 63.6056C11.43 63.6084 11.4879 63.6627 11.491 63.7286L11.7965 70.6496C11.8032 71.2084 10.9001 71.2117 10.9057 70.6496Z" fill="#BAD8DF"/>
<path d="M30.4145 82.0393L30.72 75.1182C30.723 75.0475 30.7882 74.9924 30.8653 74.9952C30.9385 74.998 30.9964 75.0524 30.9995 75.1182L31.305 82.0393C31.312 82.5983 30.4089 82.6016 30.4145 82.0393Z" fill="#BAD8DF"/>
<path d="M16.0308 89.6633L16.3363 82.7423C16.3394 82.6715 16.4045 82.6164 16.4816 82.6192C16.5549 82.6218 16.6127 82.6764 16.6158 82.7423L16.9216 89.6633C16.9283 90.222 16.0252 90.2254 16.0308 89.6633Z" fill="#BAD8DF"/>
<path d="M92.5834 142.919L92.8892 135.998C92.8923 135.927 92.9574 135.872 93.0345 135.875C93.1078 135.878 93.1656 135.932 93.1687 135.998L93.4742 142.919C93.4809 143.478 92.5778 143.481 92.5834 142.919Z" fill="#BAD8DF"/>
<path d="M100.046 175.454L100.351 168.533C100.355 168.463 100.42 168.407 100.497 168.41C100.57 168.413 100.628 168.467 100.631 168.533L100.937 175.454C100.943 176.013 100.04 176.017 100.046 175.454Z" fill="#BAD8DF"/>
<path d="M88.2902 149.454L88.596 142.533C88.599 142.463 88.6642 142.407 88.7413 142.41C88.8145 142.413 88.8724 142.467 88.8755 142.533L89.1813 149.454C89.1877 150.013 88.2846 150.017 88.2902 149.454Z" fill="#BAD8DF"/>
<path d="M106.696 164.835L107.001 157.914C107.005 157.843 107.07 157.788 107.147 157.791C107.22 157.794 107.278 157.848 107.281 157.914L107.587 164.835C107.593 165.394 106.69 165.397 106.696 164.835Z" fill="#BAD8DF"/>
<path d="M15.5377 113.976L15.8435 107.055C15.8466 106.984 15.9117 106.929 15.9889 106.932C16.0621 106.935 16.12 106.989 16.123 107.055L16.4288 113.976C16.4355 114.535 15.5322 114.538 15.5377 113.976Z" fill="#BAD8DF"/>
<path d="M53.3521 116.921L53.6576 110C53.6607 109.929 53.7258 109.874 53.8029 109.877C53.8762 109.88 53.9337 109.934 53.9371 110L54.2429 116.921C54.2496 117.48 53.3465 117.483 53.3521 116.921Z" fill="#BAD8DF"/>
<path d="M41.8842 111.313L42.19 104.392C42.193 104.321 42.2582 104.266 42.3353 104.269C42.4085 104.271 42.4664 104.326 42.4695 104.392L42.7753 111.313C42.7817 111.871 41.8786 111.875 41.8842 111.313Z" fill="#BAD8DF"/>
<path d="M3.07351 158.762L3.3793 151.841C3.38237 151.77 3.4475 151.715 3.52465 151.718C3.59788 151.721 3.65574 151.775 3.65881 151.841L3.96459 158.762C3.97102 159.321 3.06765 159.324 3.07351 158.762Z" fill="#BAD8DF"/>
<path d="M11.7759 124.164L12.0817 117.243C12.0848 117.173 12.1499 117.117 12.227 117.12C12.3003 117.123 12.3581 117.177 12.3612 117.243L12.6667 124.164C12.6734 124.723 11.7703 124.726 11.7759 124.164Z" fill="#BAD8DF"/>
<path d="M19.6712 125.591L19.9767 118.67C19.9797 118.599 20.0449 118.544 20.122 118.547C20.1953 118.55 20.2531 118.604 20.2562 118.67L20.5617 125.591C20.5687 126.15 19.6656 126.153 19.6712 125.591Z" fill="#BAD8DF"/>
<path d="M26.8426 134.748L27.1481 127.827C27.1511 127.756 27.2163 127.701 27.2934 127.704C27.3666 127.707 27.4245 127.761 27.4276 127.827L27.7331 134.748C27.7401 135.307 26.837 135.31 26.8426 134.748Z" fill="#BAD8DF"/>
<path d="M98.8282 147.301L99.1339 140.38C99.137 140.309 99.2021 140.254 99.2793 140.257C99.3525 140.26 99.4101 140.314 99.4134 140.38L99.7192 147.301C99.7257 147.86 98.8226 147.863 98.8282 147.301Z" fill="#BAD8DF"/>
<path d="M73.6874 152.645L73.9929 145.724C73.996 145.653 74.0611 145.598 74.1383 145.601C74.2115 145.604 74.2694 145.658 74.2724 145.724L74.5782 152.645C74.5852 153.204 73.6818 153.207 73.6874 152.645Z" fill="#BAD8DF"/>
<path d="M112.784 174.244L113.09 167.323C113.093 167.253 113.158 167.197 113.235 167.2C113.309 167.203 113.367 167.257 113.37 167.323L113.675 174.244C113.682 174.803 112.779 174.807 112.784 174.244Z" fill="#BAD8DF"/>
<path d="M62.9209 150.383L63.2267 143.462C63.2298 143.391 63.2949 143.336 63.3721 143.339C63.4453 143.342 63.5031 143.396 63.5062 143.462L63.8117 150.383C63.8182 150.942 62.9151 150.945 62.9209 150.383Z" fill="#BAD8DF"/>
<path d="M115.278 116.688L115.584 109.767C115.587 109.696 115.652 109.641 115.729 109.644C115.802 109.646 115.86 109.701 115.863 109.767L116.169 116.688C116.175 117.246 115.272 117.25 115.278 116.688Z" fill="#BAD8DF"/>
<path d="M26.3972 178.529L26.7028 171.608C26.7058 171.537 26.771 171.482 26.8481 171.484C26.9213 171.487 26.9792 171.542 26.9823 171.608L27.2878 178.529C27.2945 179.087 26.3914 179.091 26.3972 178.529Z" fill="#BAD8DF"/>
<path d="M33.5681 181.166L33.8739 174.245C33.877 174.174 33.9421 174.119 34.0193 174.122C34.0925 174.125 34.1504 174.179 34.1534 174.245L34.4589 181.166C34.4654 181.725 33.5623 181.729 33.5681 181.166Z" fill="#BAD8DF"/>
<path d="M103.347 154.47L103.652 147.549C103.656 147.478 103.721 147.423 103.798 147.426C103.871 147.429 103.929 147.483 103.932 147.549L104.238 154.47C104.244 155.029 103.341 155.032 103.347 154.47Z" fill="#BAD8DF"/>
<path d="M147.531 85.7727L147.837 78.8516C147.84 78.7809 147.905 78.7258 147.982 78.7286C148.055 78.7314 148.113 78.7858 148.116 78.8516L148.422 85.7727C148.428 86.3314 147.525 86.3347 147.531 85.7727Z" fill="#BAD8DF"/>
<path d="M143.921 72.4563L144.227 65.5352C144.23 65.4645 144.295 65.4094 144.372 65.4122C144.446 65.415 144.504 65.4694 144.507 65.5352L144.812 72.4563C144.819 73.015 143.916 73.0183 143.921 72.4563Z" fill="#BAD8DF"/>
<path d="M149.582 67.4475L149.888 60.5265C149.891 60.4557 149.956 60.4006 150.033 60.4034C150.107 60.4062 150.164 60.4606 150.167 60.5265L150.473 67.4475C150.48 68.0062 149.577 68.0095 149.582 67.4475Z" fill="#BAD8DF"/>
<path d="M162.78 104.921L163.085 98.0001C163.089 97.9293 163.154 97.8742 163.231 97.8771C163.304 97.8796 163.362 97.9342 163.365 98.0001L163.671 104.921C163.677 105.48 162.774 105.483 162.78 104.921Z" fill="#BAD8DF"/>
<path d="M145.26 154.116L145.566 147.195C145.569 147.125 145.634 147.07 145.711 147.072C145.784 147.075 145.842 147.13 145.845 147.195L146.151 154.116C146.158 154.675 145.254 154.678 145.26 154.116Z" fill="#BAD8DF"/>
<path d="M186.732 66.9162L187.038 59.9952C187.041 59.9245 187.106 59.8694 187.183 59.8722C187.256 59.875 187.314 59.9293 187.317 59.9952L187.623 66.9162C187.629 67.475 186.726 67.4785 186.732 66.9162Z" fill="#BAD8DF"/>
<path d="M140.053 142.251L140.359 135.33C140.362 135.259 140.427 135.204 140.504 135.207C140.577 135.21 140.635 135.264 140.638 135.33L140.944 142.251C140.951 142.81 140.047 142.814 140.053 142.251Z" fill="#BAD8DF"/>
<path d="M161.605 156.376L161.911 149.455C161.914 149.384 161.979 149.329 162.056 149.332C162.129 149.335 162.187 149.389 162.19 149.455L162.496 156.376C162.502 156.935 161.599 156.938 161.605 156.376Z" fill="#BAD8DF"/>
<path d="M148.482 179.794L148.788 172.873C148.791 172.802 148.856 172.747 148.933 172.75C149.006 172.753 149.064 172.807 149.067 172.873L149.373 179.794C149.379 180.353 148.476 180.356 148.482 179.794Z" fill="#BAD8DF"/>
<path d="M163.226 173.958L163.532 167.037C163.535 166.966 163.6 166.911 163.678 166.914C163.751 166.917 163.809 166.971 163.812 167.037L164.118 173.958C164.124 174.517 163.221 174.521 163.226 173.958Z" fill="#BAD8DF"/>
<path d="M167.128 175.483L167.434 168.562C167.437 168.491 167.502 168.436 167.579 168.439C167.653 168.441 167.71 168.495 167.713 168.562L168.019 175.483C168.026 176.041 167.123 176.045 167.128 175.483Z" fill="#BAD8DF"/>
<path d="M131.044 156.376L131.35 149.455C131.353 149.384 131.418 149.329 131.495 149.332C131.568 149.335 131.626 149.389 131.629 149.455L131.935 156.376C131.941 156.935 131.038 156.938 131.044 156.376Z" fill="#BAD8DF"/>
<path d="M126.253 150.473L126.559 143.552C126.562 143.481 126.627 143.426 126.704 143.429C126.778 143.431 126.835 143.486 126.838 143.552L127.144 150.473C127.151 151.032 126.248 151.035 126.253 150.473Z" fill="#BAD8DF"/>
<path d="M28.2943 112.49L28.5998 105.569C28.6029 105.499 28.668 105.444 28.7452 105.446C28.8184 105.449 28.8763 105.504 28.8794 105.569L29.1849 112.49C29.1918 113.049 28.2887 113.053 28.2943 112.49Z" fill="#BAD8DF"/>
<path d="M75.763 66.0598L76.0687 59.1388C76.0718 59.068 76.1369 59.0129 76.2141 59.0157C76.2873 59.0185 76.3452 59.0729 76.3483 59.1388L76.6538 66.0598C76.6605 66.6185 75.7577 66.6218 75.763 66.0598Z" fill="#BAD8DF"/>
<path d="M47.5282 71.6584L47.8337 64.7374C47.8368 64.6666 47.9019 64.6115 47.9791 64.6144C48.0523 64.6169 48.1102 64.6713 48.1132 64.7374L48.419 71.6584C48.4257 72.2174 47.5226 72.2207 47.5282 71.6584Z" fill="#BAD8DF"/>
<path d="M74.133 125.224L74.4387 118.303C74.4418 118.232 74.5069 118.177 74.5841 118.18C74.6573 118.183 74.7152 118.237 74.7183 118.303L75.024 125.224C75.0305 125.783 74.1274 125.786 74.133 125.224Z" fill="#BAD8DF"/>
<path d="M47.3734 155.096L47.6792 148.175C47.6823 148.104 47.7474 148.049 47.8246 148.052C47.8978 148.055 47.9557 148.109 47.9587 148.175L48.2642 155.096C48.2709 155.655 47.3678 155.658 47.3734 155.096Z" fill="#BAD8DF"/>
<path d="M55.3052 160.505L55.611 153.584C55.6141 153.513 55.6792 153.458 55.7563 153.461C55.8296 153.464 55.8874 153.518 55.8905 153.584L56.196 160.505C56.2027 161.064 55.2996 161.067 55.3052 160.505Z" fill="#BAD8DF"/>
<path d="M59.55 146.651L59.8555 139.73C59.8585 139.659 59.9237 139.604 60.0008 139.607C60.074 139.609 60.1316 139.664 60.135 139.73L60.4408 146.651C60.4475 147.209 59.5444 147.213 59.55 146.651Z" fill="#BAD8DF"/>
<path d="M69.4564 116.984L69.7622 110.063C69.7653 109.992 69.8304 109.937 69.9076 109.94C69.9808 109.942 70.0387 109.997 70.0417 110.063L70.3473 116.984C70.3537 117.543 69.4506 117.546 69.4564 116.984Z" fill="#BAD8DF"/>
<path d="M62.3826 130.972L62.6884 124.051C62.6915 123.98 62.7566 123.925 62.8337 123.928C62.907 123.93 62.9648 123.985 62.9679 124.051L63.2737 130.972C63.2801 131.531 62.377 131.534 62.3826 130.972Z" fill="#BAD8DF"/>
<path d="M93.59 72.7268L93.8958 65.8057C93.8988 65.735 93.964 65.6799 94.0411 65.6827C94.1143 65.6855 94.1722 65.7399 94.1753 65.8057L94.4811 72.7268C94.4878 73.2855 93.5847 73.2888 93.59 72.7268Z" fill="#BAD8DF"/>
<path d="M85.1439 73.343L85.4497 66.422C85.4528 66.3512 85.5179 66.2961 85.5951 66.2989C85.6683 66.3018 85.7262 66.3561 85.7292 66.422L86.035 73.343C86.0415 73.9017 85.1381 73.9053 85.1439 73.343Z" fill="#BAD8DF"/>
<path d="M88.2902 67.4475L88.596 60.5265C88.599 60.4557 88.6642 60.4006 88.7413 60.4034C88.8145 60.4062 88.8724 60.4606 88.8755 60.5265L89.1813 67.4475C89.1877 68.0062 88.2846 68.0095 88.2902 67.4475Z" fill="#BAD8DF"/>
<path d="M115.247 65.9816L115.553 59.0606C115.556 58.9899 115.621 58.9348 115.698 58.9376C115.772 58.9404 115.83 58.9945 115.833 59.0606L116.138 65.9816C116.145 66.5404 115.242 66.5437 115.247 65.9816Z" fill="#BAD8DF"/>
<path d="M78.3257 111.553L78.6315 104.632C78.6346 104.561 78.6997 104.506 78.7768 104.509C78.8501 104.511 78.9079 104.566 78.911 104.632L79.2168 111.553C79.2232 112.112 78.3201 112.115 78.3257 111.553Z" fill="#BAD8DF"/>
<path d="M125.571 70.6496L125.877 63.7286C125.88 63.6579 125.945 63.6028 126.022 63.6056C126.095 63.6084 126.153 63.6627 126.156 63.7286L126.462 70.6496C126.469 71.2084 125.565 71.2117 125.571 70.6496Z" fill="#BAD8DF"/>
<path d="M128.443 118.067L128.749 111.146C128.752 111.075 128.817 111.02 128.894 111.023C128.967 111.025 129.025 111.08 129.028 111.146L129.334 118.067C129.34 118.626 128.437 118.629 128.443 118.067Z" fill="#BAD8DF"/>
<path d="M114.429 152.917L114.735 145.996C114.738 145.925 114.803 145.87 114.88 145.873C114.953 145.876 115.011 145.93 115.014 145.996L115.32 152.917C115.326 153.476 114.423 153.479 114.429 152.917Z" fill="#BAD8DF"/>
<path d="M105.949 67.927L106.254 61.0059C106.257 60.9352 106.323 60.8801 106.4 60.8829C106.473 60.8855 106.531 60.9401 106.534 61.0059L106.84 67.927C106.846 68.4857 105.943 68.489 105.949 67.927Z" fill="#BAD8DF"/>
<path d="M95.7442 82.8781L96.0499 75.9571C96.053 75.8864 96.1181 75.8313 96.1953 75.8341C96.2685 75.8369 96.3264 75.8912 96.3295 75.9571L96.6352 82.8781C96.6417 83.4369 95.7389 83.4402 95.7442 82.8781Z" fill="#BAD8DF"/>
<path d="M110.176 71.9982L110.481 65.0772C110.485 65.0065 110.55 64.9514 110.627 64.9542C110.7 64.957 110.758 65.0111 110.761 65.0772L111.067 71.9982C111.073 72.557 110.17 72.5603 110.176 71.9982Z" fill="#BAD8DF"/>
<path d="M108.445 111.313L108.751 104.392C108.754 104.321 108.819 104.266 108.896 104.269C108.97 104.271 109.027 104.326 109.03 104.392L109.336 111.313C109.343 111.871 108.44 111.875 108.445 111.313Z" fill="#BAD8DF"/>
<path d="M89.5612 117.343L89.8667 110.422C89.8698 110.351 89.9349 110.296 90.012 110.299C90.0853 110.302 90.1428 110.356 90.1462 110.422L90.452 117.343C90.4587 117.902 89.5556 117.905 89.5612 117.343Z" fill="#BAD8DF"/>
<path d="M94.0355 113.613L94.3413 106.692C94.3444 106.622 94.4095 106.567 94.4867 106.569C94.5599 106.572 94.6178 106.627 94.6208 106.692L94.9266 113.613C94.9331 114.172 94.03 114.176 94.0355 113.613Z" fill="#BAD8DF"/>
<path d="M7.08584 112.164L7.39163 105.243C7.3947 105.173 7.45983 105.117 7.53697 105.12C7.6102 105.123 7.66778 105.177 7.67114 105.243L7.97664 112.164C7.98335 112.723 7.08025 112.726 7.08584 112.164Z" fill="#BAD8DF"/>
<path d="M51.5216 170.512L51.8271 163.591C51.8302 163.52 51.8953 163.465 51.9725 163.468C52.0457 163.471 52.1033 163.525 52.1066 163.591L52.4124 170.512C52.4191 171.071 51.516 171.074 51.5216 170.512Z" fill="#BAD8DF"/>
<path d="M141.41 97.7287L141.716 90.8077C141.719 90.737 141.784 90.6819 141.861 90.6847C141.934 90.6875 141.992 90.7418 141.995 90.8077L142.301 97.7287C142.308 98.2877 141.405 98.291 141.41 97.7287Z" fill="#BAD8DF"/>
<path d="M146.151 119.956L146.457 113.035C146.46 112.965 146.525 112.909 146.602 112.912C146.675 112.915 146.733 112.969 146.736 113.035L147.042 119.956C147.048 120.515 146.145 120.519 146.151 119.956Z" fill="#BAD8DF"/>
<path d="M70.0578 89.1721L70.3635 82.2511C70.3666 82.1803 70.4318 82.1252 70.5089 82.128C70.5821 82.1309 70.64 82.1852 70.6431 82.2511L70.9489 89.1721C70.955 89.7308 70.0522 89.7342 70.0578 89.1721Z" fill="#BAD8DF"/>
<path d="M46.0144 137.893L46.3199 130.972C46.323 130.901 46.3881 130.846 46.4653 130.849C46.5385 130.851 46.5961 130.906 46.5994 130.972L46.9052 137.893C46.9119 138.452 46.0088 138.455 46.0144 137.893Z" fill="#BAD8DF"/>
<path d="M62.5507 112.77L62.8565 105.849C62.8595 105.778 62.9247 105.723 63.0018 105.726C63.075 105.729 63.1329 105.783 63.136 105.849L63.4415 112.77C63.4482 113.329 62.5451 113.332 62.5507 112.77Z" fill="#BAD8DF"/>
<path d="M109.73 142.919L110.036 135.998C110.039 135.927 110.104 135.872 110.181 135.875C110.254 135.878 110.312 135.932 110.315 135.998L110.621 142.919C110.628 143.478 109.725 143.481 109.73 142.919Z" fill="#BAD8DF"/>
<path d="M156.408 98.6799L156.714 91.7589C156.717 91.6881 156.782 91.633 156.859 91.6358C156.933 91.6387 156.991 91.693 156.994 91.7589L157.299 98.6799C157.306 99.2386 156.403 99.2422 156.408 98.6799Z" fill="#BAD8DF"/>
<path d="M169.686 67.4475L169.992 60.5265C169.995 60.4557 170.06 60.4006 170.137 60.4034C170.21 60.4062 170.268 60.4603 170.271 60.5265L170.577 67.4475C170.583 68.0062 169.68 68.0095 169.686 67.4475Z" fill="#BAD8DF"/>
<path d="M139.088 66.9162L139.394 59.9952C139.397 59.9245 139.462 59.8694 139.539 59.8722C139.612 59.875 139.67 59.9291 139.673 59.9952L139.979 66.9162C139.985 67.475 139.082 67.4785 139.088 66.9162Z" fill="#BAD8DF"/>
<path d="M69.4713 137.893L69.7771 130.972C69.7802 130.901 69.8453 130.846 69.9225 130.849C69.9957 130.852 70.0536 130.906 70.0566 130.972L70.3624 137.893C70.3688 138.452 69.4657 138.455 69.4713 137.893Z" fill="#BAD8DF"/>
<path d="M40.3539 89.1721L40.6597 82.2511C40.6628 82.1803 40.7279 82.1252 40.805 82.128C40.8783 82.1309 40.9361 82.1852 40.9392 82.2511L41.2447 89.1721C41.2511 89.7308 40.3483 89.7342 40.3539 89.1721Z" fill="#BAD8DF"/>
<path d="M86.7349 112.164L87.0407 105.243C87.0437 105.173 87.1089 105.117 87.186 105.12C87.2592 105.123 87.3171 105.177 87.3202 105.243L87.626 112.164C87.6324 112.723 86.7293 112.726 86.7349 112.164Z" fill="#BAD8DF"/>
<path d="M51.5216 134.94L51.8271 128.019C51.8302 127.948 51.8953 127.893 51.9725 127.896C52.0457 127.898 52.1036 127.953 52.1066 128.019L52.4124 134.94C52.4191 135.499 51.516 135.502 51.5216 134.94Z" fill="#BAD8DF"/>
<path d="M138.642 112.49L138.948 105.569C138.951 105.499 139.016 105.444 139.094 105.446C139.167 105.449 139.225 105.504 139.228 105.569L139.534 112.49C139.54 113.049 138.637 113.053 138.642 112.49Z" fill="#BAD8DF"/>
<path d="M36.5258 76.1877L36.8313 69.2667C36.8344 69.1959 36.8995 69.1408 36.9766 69.1437C37.0499 69.1465 37.1077 69.2006 37.1108 69.2667L37.4166 76.1877C37.4233 76.7464 36.5202 76.75 36.5258 76.1877Z" fill="#BAD8DF"/>
<path d="M42.3296 157.938L42.6354 151.017C42.6385 150.946 42.7036 150.891 42.7807 150.894C42.854 150.896 42.9118 150.951 42.9149 151.017L43.2204 157.938C43.2268 158.496 42.324 158.5 42.3296 157.938Z" fill="#BAD8DF"/>
<path d="M182.75 128.206L183.056 121.285C183.059 121.215 183.124 121.159 183.201 121.162C183.274 121.165 183.332 121.219 183.335 121.285L183.641 128.206C183.647 128.765 182.744 128.768 182.75 128.206Z" fill="#BAD8DF"/>
<path d="M152.813 147.83L153.119 140.909C153.122 140.839 153.187 140.783 153.264 140.786C153.337 140.789 153.395 140.843 153.398 140.909L153.704 147.83C153.71 148.389 152.807 148.392 152.813 147.83Z" fill="#BAD8DF"/>
<path d="M147.976 159.324L148.282 152.403C148.285 152.333 148.35 152.278 148.427 152.28C148.501 152.283 148.559 152.338 148.562 152.403L148.867 159.324C148.874 159.883 147.97 159.887 147.976 159.324Z" fill="#BAD8DF"/>
<path d="M117.394 146.222L117.7 139.301C117.703 139.23 117.768 139.175 117.845 139.178C117.918 139.181 117.976 139.235 117.979 139.301L118.285 146.222C118.291 146.781 117.388 146.784 117.394 146.222Z" fill="#BAD8DF"/>
<path d="M140.053 161.104L140.359 154.183C140.362 154.112 140.427 154.057 140.504 154.06C140.577 154.062 140.635 154.117 140.638 154.183L140.944 161.104C140.951 161.662 140.048 161.666 140.053 161.104Z" fill="#BAD8DF"/>
<path d="M141.22 125.224L141.526 118.303C141.529 118.232 141.594 118.177 141.671 118.18C141.744 118.183 141.802 118.237 141.805 118.303L142.111 125.224C142.118 125.783 141.214 125.786 141.22 125.224Z" fill="#BAD8DF"/>
<path d="M184.287 97.7287L184.593 90.8077C184.596 90.737 184.661 90.6819 184.738 90.6847C184.811 90.6875 184.869 90.7418 184.872 90.8077L185.178 97.7287C185.184 98.2877 184.281 98.291 184.287 97.7287Z" fill="#BAD8DF"/>
<path d="M191.28 76.4592L191.586 69.5382C191.589 69.4674 191.654 69.4123 191.731 69.4151C191.805 69.418 191.863 69.472 191.866 69.5382L192.171 76.4592C192.178 77.0179 191.275 77.0213 191.28 76.4592Z" fill="#BAD8DF"/>
<path d="M181.544 73.6428L181.85 66.7218C181.853 66.651 181.918 66.5959 181.995 66.5987C182.069 66.6016 182.126 66.6559 182.13 66.7218L182.435 73.6428C182.442 74.2015 181.539 74.2049 181.544 73.6428Z" fill="#BAD8DF"/>
<path d="M171.824 132.858L172.13 125.937C172.133 125.866 172.198 125.811 172.276 125.814C172.349 125.816 172.406 125.87 172.41 125.937L172.716 132.858C172.722 133.416 171.819 133.42 171.824 132.858Z" fill="#BAD8DF"/>
<path d="M167.574 129.125L167.879 122.204C167.883 122.133 167.948 122.078 168.025 122.081C168.098 122.084 168.156 122.138 168.159 122.204L168.465 129.125C168.471 129.684 167.568 129.687 167.574 129.125Z" fill="#BAD8DF"/>
<path d="M189.044 104.665L189.349 97.7442C189.352 97.6735 189.418 97.6184 189.495 97.6212C189.568 97.624 189.626 97.6784 189.629 97.7442L189.935 104.665C189.941 105.224 189.038 105.228 189.044 104.665Z" fill="#BAD8DF"/>
<path d="M194.778 145.31L195.083 138.389C195.086 138.318 195.152 138.263 195.229 138.266C195.302 138.269 195.36 138.323 195.363 138.389L195.669 145.31C195.675 145.869 194.772 145.872 194.778 145.31Z" fill="#BAD8DF"/>
<path d="M188.802 141.351L189.108 134.43C189.111 134.359 189.176 134.304 189.253 134.307C189.327 134.31 189.384 134.364 189.388 134.43L189.693 141.351C189.7 141.91 188.797 141.913 188.802 141.351Z" fill="#BAD8DF"/>
<path d="M163.672 143.351L163.978 136.43C163.981 136.359 164.046 136.304 164.123 136.307C164.196 136.309 164.254 136.364 164.257 136.43L164.563 143.351C164.569 143.91 163.666 143.913 163.672 143.351Z" fill="#BAD8DF"/>
<path d="M152.813 105.242L153.119 98.3214C153.122 98.2506 153.187 98.1955 153.264 98.1983C153.337 98.2012 153.395 98.2555 153.398 98.3214L153.704 105.242C153.71 105.801 152.807 105.805 152.813 105.242Z" fill="#BAD8DF"/>
<path d="M186.286 169.082L186.592 162.161C186.595 162.09 186.66 162.035 186.738 162.038C186.811 162.041 186.869 162.095 186.872 162.161L187.177 169.082C187.184 169.641 186.281 169.645 186.286 169.082Z" fill="#BAD8DF"/>
<path d="M126.161 112.49L126.467 105.569C126.47 105.499 126.535 105.444 126.613 105.446C126.686 105.449 126.744 105.504 126.747 105.569L127.052 112.49C127.059 113.049 126.156 113.053 126.161 112.49Z" fill="#BAD8DF"/>
<path d="M185.37 133.732L185.676 126.811C185.679 126.74 185.744 126.685 185.821 126.688C185.895 126.69 185.952 126.745 185.956 126.811L186.261 133.732C186.268 134.29 185.365 134.294 185.37 133.732Z" fill="#BAD8DF"/>
<path d="M198.892 175.161V160.694C196.748 159.693 194.331 159.129 191.772 159.129C187.294 159.129 183.249 160.854 180.35 163.631C179.529 162.586 178.195 161.903 176.684 161.903C174.187 161.903 172.163 163.761 172.163 166.054C172.163 166.399 172.214 166.733 172.301 167.054C172.299 167.054 172.296 167.053 172.296 167.053L172.299 167.055C171.694 166.965 171.073 166.917 170.441 166.917C166.091 166.917 162.294 169.119 160.246 172.395C158.831 170.526 156.477 169.302 153.81 169.302C150.815 169.302 148.214 170.845 146.895 173.112C145.204 171.639 142.939 170.735 140.451 170.735C139.124 170.735 137.816 170.999 136.616 171.496C134.741 166.472 129.681 163.019 123.793 163.019C119.078 163.019 114.918 165.278 112.479 168.699L112.478 168.698L112.479 168.699C112.479 168.7 112.478 168.701 112.477 168.702C111.49 167.904 110.198 167.415 108.78 167.415C106.15 167.415 103.951 169.081 103.348 171.324C101.221 168.612 97.7846 166.88 94.0366 166.88C92.2136 166.88 90.4259 167.287 88.8188 168.05C86.6524 161.647 80.1734 157.066 72.8168 157.066C66.0593 157.066 60.0447 160.852 57.4232 166.514C55.3884 165.288 53.0182 164.63 50.5479 164.63C44.8424 164.63 39.9327 168.16 38.3519 173.118C37.6641 172.949 36.9548 172.862 36.2404 172.862C34.9736 172.862 33.7715 173.127 32.6947 173.602C30.8438 171.272 27.8495 169.758 24.4682 169.758C23.7305 169.758 23.0119 169.831 22.3191 169.968C22.3087 169.947 22.2973 169.926 22.2867 169.905C20.8007 165.483 16.3147 162.27 11.0112 162.27C9.94634 162.27 8.91542 162.402 7.93411 162.645C6.12727 159.811 3.27862 157.606 -0.12915 156.472V175.161H198.892Z" fill="#E9F3F5"/>
<path d="M2.54927 164.374L2.30408 164.28C3.71527 161.171 7.8549 160.024 7.89656 160.013L7.97113 160.246C7.93079 160.258 3.9111 161.374 2.54927 164.374Z" fill="#98C6CF"/>
<path d="M18.1686 170.315L17.9348 170.199C19.2441 167.97 22.1665 167.358 22.2902 167.333L22.3472 167.571C22.318 167.577 19.4187 168.186 18.1686 170.315Z" fill="#98C6CF"/>
<path d="M20.3862 171.845C19.3736 170.255 16.8978 169.765 14.9808 170.773L14.8486 170.562C16.8893 169.489 19.5304 170.019 20.6152 171.722L20.3862 171.845Z" fill="#98C6CF"/>
<path d="M40.8254 172.07C39.9491 171.211 38.3272 170.724 38.3108 170.719L38.3923 170.487C38.4615 170.508 40.0953 170.998 41.0193 171.903L40.8254 172.07Z" fill="#98C6CF"/>
<path d="M62.909 168.527C60.4693 165.897 57.384 164.12 57.3529 164.103L57.4928 163.896C57.5241 163.913 60.6434 165.709 63.111 168.369L62.909 168.527Z" fill="#98C6CF"/>
<path d="M58.9588 170.15L58.7566 169.993C59.7376 168.931 61.4195 168.291 63.1502 168.323C64.7784 168.354 66.2162 168.963 67.0948 169.996L66.8859 170.146C66.0564 169.171 64.6927 168.596 63.1446 168.567C63.1048 168.566 63.0645 168.566 63.0249 168.566C61.4163 168.566 59.8671 169.167 58.9588 170.15Z" fill="#98C6CF"/>
<path d="M79.6164 170.683L79.4142 170.525C80.4104 169.447 82.0588 168.819 83.8072 168.856C85.4358 168.886 86.8738 169.496 87.7524 170.529L87.5435 170.679C86.7137 169.704 85.35 169.128 83.8019 169.1C82.1532 169.072 80.5473 169.675 79.6164 170.683Z" fill="#98C6CF"/>
<path d="M110.399 170.956L110.197 170.798C111.178 169.736 112.87 169.104 114.59 169.129C116.218 169.159 117.656 169.769 118.535 170.802L118.326 170.952C117.496 169.977 116.133 169.401 114.585 169.372C112.923 169.344 111.329 169.949 110.399 170.956Z" fill="#98C6CF"/>
<path d="M85.4939 169.297L85.2421 169.22C86.2202 166.528 88.6596 165.467 88.7629 165.424L88.8743 165.645C88.8499 165.655 86.4343 166.708 85.4939 169.297Z" fill="#98C6CF"/>
<path d="M81.1507 169.569H80.8854C80.8854 166.888 78.5107 164.707 75.5917 164.707C73.9674 164.707 72.4559 165.377 71.4444 166.547L71.2366 166.395C72.2988 165.167 73.8859 164.463 75.5917 164.463C78.6569 164.463 81.1507 166.753 81.1507 169.569Z" fill="#98C6CF"/>
<path d="M102.864 171.319C102.843 169.988 103.204 168.824 103.22 168.775L103.475 168.843C103.471 168.855 103.109 170.022 103.129 171.316L102.864 171.319Z" fill="#98C6CF"/>
<path d="M114.233 169.275C113.947 167.381 112.412 166.295 112.396 166.284L112.556 166.09C112.623 166.136 114.195 167.248 114.495 169.242L114.233 169.275Z" fill="#98C6CF"/>
<path d="M133.549 171.389L133.337 171.243C134.421 169.908 136.467 168.914 136.554 168.872L136.677 169.088C136.657 169.098 134.598 170.099 133.549 171.389Z" fill="#98C6CF"/>
<path d="M146.998 170.518L146.799 170.68L147.893 171.809L148.091 171.647L146.998 170.518Z" fill="#98C6CF"/>
<path d="M160.116 169.835L159.394 171.681L159.644 171.763L160.365 169.917L160.116 169.835Z" fill="#98C6CF"/>
<path d="M180.836 168.776C177.299 164.912 172.344 164.663 172.294 164.661L172.306 164.418C172.357 164.42 177.428 164.674 181.039 168.619L180.836 168.776Z" fill="#98C6CF"/>
<path d="M179.37 170.939L179.106 170.912C179.224 169.94 179.93 169.062 181.042 168.504C182.427 167.808 184.116 167.753 185.45 168.359L185.332 168.577C184.075 168.006 182.48 168.06 181.17 168.718C180.134 169.237 179.478 170.047 179.37 170.939Z" fill="#98C6CF"/>
<path d="M178.474 164.172L178.22 164.101C178.763 162.456 180.194 161.09 180.255 161.032L180.445 161.202C180.431 161.216 178.998 162.585 178.474 164.172Z" fill="#98C6CF"/>
<g opacity="0.7">
<path d="M120.094 20.6548C120.948 20.6548 121.742 20.9528 122.401 21.4634C123.209 17.7979 126.092 15.082 129.537 15.082C133.452 15.082 136.645 18.5899 136.883 23.0157C137.225 22.8522 137.601 22.761 137.996 22.761C139.599 22.761 140.898 24.2527 140.898 26.0932C140.898 26.6973 140.756 27.2622 140.511 27.7508H135.923H135.48H123.671H123.15H116.517C116.168 27.0562 115.966 26.2528 115.966 25.3935C115.966 22.7763 117.814 20.6548 120.094 20.6548Z" fill="#E9F3F5"/>
<path d="M124.228 24.9051C123.789 22.4302 122.345 21.6492 122.33 21.6417L122.471 21.2832C122.536 21.317 124.088 22.1441 124.564 24.8269L124.228 24.9051Z" fill="#98C6CF"/>
<path d="M135.032 25.2863L134.72 25.1251C135.397 23.3967 136.771 22.8519 136.829 22.8291L136.938 23.2017C136.925 23.2069 135.645 23.7194 135.032 25.2863Z" fill="#98C6CF"/>
<path d="M122.524 26.4315L122.277 26.1599C123.655 24.5054 125.128 24.3773 126.653 25.779L126.439 26.086C125.057 24.8152 123.777 24.9288 122.524 26.4315Z" fill="#98C6CF"/>
</g>
<g opacity="0.7">
<path d="M158.44 71.6613C158.496 71.2808 158.532 70.8919 158.532 70.4933C158.532 66.6505 155.818 63.5356 152.471 63.5356C150.98 63.5356 149.616 64.1565 148.56 65.1822C148.564 65.0534 148.569 64.9251 148.569 64.7952C148.569 57.8054 143.633 52.1389 137.544 52.1389C133.802 52.1389 130.498 54.2807 128.505 57.5525C126.873 51.0549 121.658 46.3008 115.471 46.3008C108.227 46.3008 102.309 52.8197 101.925 61.0262C100.279 58.3176 97.5469 56.5435 94.4523 56.5435C89.423 56.5435 85.3461 61.2237 85.3461 66.9973C85.3461 67.2528 85.3569 67.5053 85.3727 67.7562C84.4911 66.785 83.2969 66.185 81.9781 66.185C79.3143 66.185 77.1509 68.6237 77.0781 71.6616H158.44V71.6613Z" fill="#E9F3F5"/>
<path d="M86.6275 70.1364C86.2618 68.9221 85.2713 67.9107 85.2612 67.9007L85.4835 67.6104C85.5269 67.654 86.55 68.6979 86.9458 70.0104L86.6275 70.1364Z" fill="#98C6CF"/>
<path d="M101.93 66.3757C101.571 64.1365 101.749 61.1391 101.757 61.0127L102.093 61.0398C102.091 61.0703 101.909 64.1152 102.261 66.3053L101.93 66.3757Z" fill="#98C6CF"/>
<path d="M99.2166 68.6446L98.9293 68.4428C99.5547 67.2652 100.687 66.4507 102.036 66.2083C103.509 65.9427 104.972 66.4043 106.05 67.4736L105.83 67.7659C104.827 66.7715 103.463 66.3436 102.089 66.5898C100.837 66.8148 99.7904 67.5637 99.2166 68.6446Z" fill="#98C6CF"/>
<path d="M126.741 63.7075L126.407 63.66C126.784 60.191 128.301 57.5559 128.366 57.4453L128.646 57.6607C128.63 57.6866 127.108 60.3329 126.741 63.7075Z" fill="#98C6CF"/>
<path d="M131.128 65.7663C128.672 63.5897 125.046 63.3392 122.696 65.1833L122.506 64.8639C124.972 62.9294 128.767 63.1853 131.334 65.4605L131.128 65.7663Z" fill="#98C6CF"/>
<path d="M123.546 64.4216C121.703 59.3184 117.421 60.4902 117.239 60.5424L117.157 60.1678C117.204 60.1542 121.902 58.8576 123.857 64.2735L123.546 64.4216Z" fill="#98C6CF"/>
<path d="M147.003 68.8029L146.676 68.7139C147.144 66.4415 148.393 65.0965 148.446 65.04L148.675 65.3238C148.663 65.3366 147.448 66.6499 147.003 68.8029Z" fill="#98C6CF"/>
</g>
<path d="M39.0537 35.6973H38.9943V69.8192H39.0537V35.6973Z" fill="white"/>
<path d="M42.1097 65.6025H36.9148L34.9735 73.1264H38.1696L35.8641 80.2628L44.532 70.1782H39.8916L42.1097 65.6025Z" fill="#FFDD82"/>
<path d="M39.8916 70.1182H38.7388V70.2381H39.8916V70.1182Z" fill="#FFAD0D"/>
<path d="M38.4262 72.1209L38.1195 73.1074L38.2165 73.1471L38.5231 72.1607L38.4262 72.1209Z" fill="#FFAD0D"/>
<path d="M130.2 19.1641H130.125V28.385H130.2V19.1641Z" fill="white"/>
<path d="M133.445 25.2412H127.343L125.063 34.079H128.817L126.109 42.4615L136.291 30.6157H130.84L133.445 25.2412Z" fill="#FFDD82"/>
<path d="M130.84 30.5303H129.486V30.7042H130.84V30.5303Z" fill="#FFAD0D"/>
<path d="M129.11 32.8956L128.749 34.0557L128.891 34.1139L129.252 32.9538L129.11 32.8956Z" fill="#FFAD0D"/>
<path d="M144.842 16.2891H144.742V93.2077H144.842V16.2891Z" fill="white"/>
<path d="M149.326 92.4795H143.566L141.414 100.821H144.958L142.402 108.733L152.012 97.5525H146.867L149.326 92.4795Z" fill="#FFDD82"/>
<path d="M146.867 97.4854H145.589V97.6183H146.867V97.4854Z" fill="#FFAD0D"/>
<path d="M145.244 99.7109L144.904 100.805L145.012 100.849L145.352 99.7549L145.244 99.7109Z" fill="#FFAD0D"/>
<path d="M182.042 32.3049C181.946 32.3049 181.852 32.3109 181.759 32.3223C181.693 30.4961 180.384 29.0386 178.777 29.0386C178.193 29.0386 177.649 29.2317 177.189 29.5643C177.121 26.2171 174.738 23.5273 171.806 23.5273C169.404 23.5273 167.37 25.3331 166.676 27.8265C166.178 27.5412 165.617 27.3796 165.022 27.3796C162.974 27.3796 161.314 29.2854 161.314 31.6363C161.314 31.8661 161.33 32.0914 161.361 32.3113C161.308 32.3077 161.254 32.3053 161.2 32.3053C159.727 32.3053 158.532 33.6766 158.532 35.3682C158.532 37.0598 159.727 38.4311 161.2 38.4311C162.583 38.4311 180.701 38.4311 182.042 38.4311C183.515 38.4311 184.71 37.0598 184.71 35.3682C184.71 33.6762 183.515 32.3049 182.042 32.3049Z" fill="white"/>
<path d="M175.885 32.442H175.723C175.723 31.2342 176.258 30.1341 177.154 29.499L177.24 29.6582C176.392 30.259 175.885 31.2996 175.885 32.442Z" fill="#98C6CF"/>
<path d="M168.752 31.6373H168.59C168.59 30.0806 167.837 28.6774 166.625 27.9755L166.699 27.8086C167.966 28.5426 168.752 30.0096 168.752 31.6373Z" fill="#98C6CF"/>
<path d="M165.639 34.2943L165.488 34.2246C165.858 33.1655 166.566 32.3351 167.481 31.8871C168.396 31.4393 169.407 31.4269 170.33 31.8521C171.26 32.2813 171.987 33.1024 172.375 34.1638L172.225 34.2362C171.854 33.2211 171.159 32.436 170.269 32.0255C168.448 31.1857 166.371 32.2034 165.639 34.2943Z" fill="#98C6CF"/>
<path d="M181.377 34.8646C181.161 34.2748 180.758 33.819 180.241 33.5809C179.782 33.3693 179.271 33.353 178.804 33.5364L178.751 33.3594C179.256 33.1618 179.806 33.1788 180.302 33.4075C180.859 33.6643 181.294 34.1563 181.527 34.7923L181.377 34.8646Z" fill="#98C6CF"/>
<path d="M163.211 33.4462C162.759 32.8368 162.129 32.468 161.437 32.4084L161.449 32.2217C162.185 32.2852 162.855 32.677 163.335 33.325L163.211 33.4462Z" fill="#98C6CF"/>
<path d="M180.056 33.4462L179.932 33.325C180.413 32.6772 181.082 32.2854 181.819 32.2217L181.831 32.4084C181.138 32.4682 180.508 32.8368 180.056 33.4462Z" fill="#98C6CF"/>
<path d="M39.9102 34.384C39.8147 34.384 39.7203 34.39 39.6274 34.4014C39.5618 32.5752 38.2522 31.1177 36.6454 31.1177C36.0615 31.1177 35.5174 31.3108 35.0572 31.6434C34.9896 28.2962 32.6065 25.6064 29.6748 25.6064C27.2725 25.6064 25.2386 27.4122 24.5444 29.9056C24.0463 29.6203 23.4851 29.4587 22.8905 29.4587C20.8428 29.4587 19.1827 31.3645 19.1827 33.7154C19.1827 33.9452 19.199 34.1705 19.2296 34.3904C19.1764 34.3868 19.1227 34.3844 19.0687 34.3844C17.5951 34.3844 16.4006 35.7557 16.4006 37.4473C16.4006 39.1389 17.5951 40.5102 19.0687 40.5102C20.4514 40.5102 38.5697 40.5102 39.9104 40.5102C41.384 40.5102 42.5785 39.1389 42.5785 37.4473C42.5783 35.7553 41.3838 34.384 39.9102 34.384Z" fill="white"/>
<path d="M33.754 34.5211H33.5912C33.5912 33.3133 34.1263 32.2132 35.0227 31.5781L35.1083 31.7373C34.2601 32.3381 33.754 33.3787 33.754 34.5211Z" fill="#98C6CF"/>
<path d="M26.6212 33.7164H26.4584C26.4584 32.1597 25.7058 30.7565 24.4939 30.0546L24.5674 29.8877C25.8344 30.6217 26.6212 32.0887 26.6212 33.7164Z" fill="#98C6CF"/>
<path d="M23.5072 36.3734L23.3562 36.3037C23.727 35.2446 24.4346 34.4142 25.3493 33.9662C26.2641 33.5184 27.2758 33.506 28.1985 33.9312C29.1289 34.3604 29.8552 35.1815 30.2433 36.2429L30.0932 36.3153C29.7222 35.3002 29.0276 34.5151 28.1378 34.1046C26.3166 33.2648 24.2391 34.2825 23.5072 36.3734Z" fill="#98C6CF"/>
<path d="M39.2453 36.9437C39.0296 36.3539 38.6262 35.8981 38.1096 35.66C37.6504 35.4484 37.14 35.4321 36.6721 35.6155L36.6196 35.4385C37.1241 35.2409 37.6747 35.2579 38.1704 35.4866C38.7277 35.7434 39.1626 36.2354 39.3953 36.8714L39.2453 36.9437Z" fill="#98C6CF"/>
<path d="M21.0796 35.5253C20.6278 34.9159 19.9978 34.5471 19.3053 34.4875L19.3174 34.3008C20.0539 34.3643 20.7237 34.7561 21.2037 35.4041L21.0796 35.5253Z" fill="#98C6CF"/>
<path d="M37.925 35.5253L37.8009 35.4041C38.2811 34.7563 38.9509 34.3645 39.6871 34.3008L39.6993 34.4875C39.007 34.5473 38.3769 34.9159 37.925 35.5253Z" fill="#98C6CF"/>
<path d="M96.1398 65.0652C96.0239 65.0652 95.9092 65.0725 95.7964 65.0863C95.7168 62.8687 94.1264 61.0988 92.1752 61.0988C91.4662 61.0988 90.8055 61.3333 90.2467 61.7372C90.1645 57.6725 87.2707 54.4062 83.7105 54.4062C80.7933 54.4062 78.3235 56.5991 77.4805 59.6269C76.8757 59.2804 76.1941 59.0842 75.4721 59.0842C72.9855 59.0842 70.9696 61.3984 70.9696 64.2533C70.9696 64.5324 70.9893 64.8059 71.0265 65.073C70.9619 65.0686 70.8967 65.0657 70.8311 65.0657C69.0417 65.0657 67.5912 66.7309 67.5912 68.7851C67.5912 70.8393 69.0417 72.5045 70.8311 72.5045C72.5102 72.5045 94.512 72.5045 96.1401 72.5045C97.9295 72.5045 99.38 70.8393 99.38 68.7851C99.3798 66.7304 97.9292 65.0652 96.1398 65.0652Z" fill="white"/>
<path d="M88.664 65.2329H88.4663C88.4663 63.7663 89.1161 62.4304 90.2046 61.6592L90.3086 61.8525C89.2786 62.5821 88.664 63.8457 88.664 65.2329Z" fill="#98C6CF"/>
<path d="M80.0023 64.2548H79.8046C79.8046 62.3645 78.8906 60.6604 77.4189 59.8082L77.5081 59.6055C79.0467 60.4968 80.0023 62.2782 80.0023 64.2548Z" fill="#98C6CF"/>
<path d="M76.221 67.4819L76.0376 67.3972C76.4879 66.1111 77.3472 65.1028 78.458 64.5587C79.5687 64.015 80.7973 63.9999 81.9178 64.5163C83.0477 65.0374 83.9296 66.0345 84.4008 67.3235L84.2186 67.4113C83.768 66.1786 82.9246 65.2252 81.8441 64.7268C79.6325 63.707 77.1098 64.9428 76.221 67.4819Z" fill="#98C6CF"/>
<path d="M95.3323 68.1726C95.0704 67.4563 94.5806 66.9029 93.9533 66.6137C93.3956 66.3568 92.7758 66.337 92.2077 66.5598L92.1439 66.3448C92.7565 66.1048 93.4251 66.1254 94.0271 66.4032C94.7039 66.715 95.232 67.3125 95.5146 68.0848L95.3323 68.1726Z" fill="#98C6CF"/>
<path d="M73.2731 66.4489C72.7245 65.7089 71.9594 65.261 71.1185 65.1886L71.1333 64.9619C72.0275 65.039 72.841 65.5148 73.4238 66.3017L73.2731 66.4489Z" fill="#98C6CF"/>
<path d="M93.7291 66.4489L93.5784 66.3017C94.1614 65.5151 94.9749 65.0393 95.8689 64.9619L95.8837 65.1886C95.043 65.2613 94.2779 65.7089 93.7291 66.4489Z" fill="#98C6CF"/>
<path d="M92.0163 157.995L92.2411 157.995L92.2411 137.878L92.0163 137.878L92.0163 157.995Z" fill="white"/>
<path d="M96.0032 65.1201L96.5004 61.5143L97.1501 61.5143L97.6091 65.0915L96.0032 65.1201Z" fill="#003940"/>
<path d="M95.835 144.956L97.5532 144.956L97.5532 87.9235L95.835 87.9235L95.835 144.956Z" fill="white"/>
<path d="M97.7682 146.454L97.7682 138.668L95.6206 138.668L95.6206 146.454C95.6206 149.209 97.5723 151.449 99.9715 151.449C102.371 151.449 104.323 149.209 104.323 146.454L104.323 144.422C104.323 143.741 103.842 143.189 103.249 143.189C102.656 143.189 102.175 143.741 102.175 144.422L102.175 146.454C102.175 147.85 101.187 148.984 99.972 148.984C98.7573 148.984 97.7682 147.85 97.7682 146.454Z" fill="#003940"/>
<path d="M47.9914 92.6494C47.9914 92.6494 60.9577 65.0778 96.6945 65.0778C132.431 65.0778 145.398 92.6494 145.398 92.6494C139.16 88.6929 134.361 88.7743 131.247 92.6494C123.579 87.744 116.735 88.1142 110.95 92.6494C101.623 86.3873 92.1197 86.3077 82.4394 92.6494C76.8935 88.0388 70.1132 87.4334 62.1422 92.6494C58.4061 89.5092 53.5342 89.3676 47.9914 92.6494Z" fill="#69ABB9"/>
<path d="M96.6946 64.7744C121.938 64.7744 131.402 92.264 131.495 92.5418L131 92.7588C130.909 92.4853 121.568 65.3823 96.6946 65.3823C71.8204 65.3823 62.4806 92.4852 62.389 92.7588L61.8944 92.5418C61.9871 92.2634 71.4508 64.7744 96.6946 64.7744Z" fill="#E9F3F5"/>
<path d="M96.6946 64.7743C101.155 64.7743 104.956 69.4785 107.993 78.7574C110.232 85.6 111.202 92.5332 111.212 92.6024L110.689 92.6973C110.652 92.4243 106.81 65.3815 96.6946 65.3815C86.5796 65.3815 82.7381 92.4237 82.7005 92.6973L82.1773 92.6024C82.1874 92.5331 83.1569 85.5994 85.3961 78.7573C88.4333 69.4785 92.2346 64.7743 96.6946 64.7743Z" fill="#E9F3F5"/>
</g>
<defs>
<clipPath id="clip0_2651_14284">
<path d="M0 14C0 6.26801 6.26801 0 14 0H195V175H0V14Z" fill="white"/>
</clipPath>
</defs>
</svg>
