<svg width="200" height="175" viewBox="0 0 200 175" fill="none" xmlns="http://www.w3.org/2000/svg">
<g clip-path="url(#clip0_2651_14284)">
<rect x="-9.4624" y="-8" width="305" height="273" fill="#98C6CF"/>
<g opacity="0.7">
<path d="M52.8918 31.0076C51.9708 31.0076 51.1214 31.3505 50.4279 31.9258C49.6316 28.1358 46.6663 25.3167 43.1202 25.3167C40.5064 25.3167 38.2056 26.8477 36.8567 29.17C36.0526 28.677 35.1349 28.3954 34.1594 28.3954C33.0423 28.3954 32.0031 28.7679 31.1214 29.4023C30.4463 26.3107 28.0167 24.0184 25.1144 24.0184C24.9886 24.0184 24.8642 24.0241 24.7404 24.0324C24.8114 23.5216 24.8493 22.9979 24.8493 22.4639C24.8493 17.0008 20.9917 12.5723 16.2328 12.5723C14.8513 12.5723 13.5467 12.9478 12.3894 13.611C10.7764 7.81671 6.0496 3.62012 0.467122 3.62012C-2.31405 3.62012 -4.8823 4.66264 -6.95935 6.4248V38.2533H56.5445C56.9 37.5439 57.1066 36.7234 57.1066 35.8461C57.1066 33.1737 55.2194 31.0076 52.8918 31.0076Z" fill="#E9F3F5"/>
<path d="M7.91702 22.4644H7.58691C7.58691 18.6918 9.41077 15.2918 12.3468 13.5918L12.4956 13.9302C9.67156 15.5654 7.91702 18.8358 7.91702 22.4644Z" fill="#98C6CF"/>
<path d="M14.8213 28.6296C13.1153 23.7565 8.27425 21.3835 4.02937 23.3427C1.95595 24.2988 0.337424 26.1288 -0.527793 28.4947L-0.832153 28.348C0.067395 25.8878 1.74996 23.9854 3.90624 22.991C8.3198 20.9541 13.354 23.4211 15.1276 28.4882L14.8213 28.6296Z" fill="#98C6CF"/>
<path d="M20.4223 26.6484L20.1708 26.4028C21.2823 24.9029 22.8331 23.9957 24.5378 23.8486L24.5622 24.2268C22.9467 24.3663 21.4764 25.2262 20.4223 26.6484Z" fill="#98C6CF"/>
<path d="M27.6102 34.0923L27.3025 33.9539C28.477 30.508 30.9528 29.2783 31.0575 29.2275L31.1859 29.5769C31.1615 29.5887 28.7315 30.8006 27.6102 34.0923Z" fill="#98C6CF"/>
<path d="M41.2647 33.9194C39.595 30.5171 36.829 29.3609 36.8013 29.3495L36.9112 28.9922C37.029 29.0399 39.8191 30.2022 41.5522 33.7337L41.2647 33.9194Z" fill="#98C6CF"/>
<path d="M49.0342 36.0882L48.7041 36.0836C48.7371 33.0917 50.2675 31.8222 50.3332 31.7695L50.523 32.0791C50.5085 32.0913 49.0649 33.2998 49.0342 36.0882Z" fill="#98C6CF"/>
</g>
<path d="M53.4656 36.3853L53.7617 27.9883C53.7647 27.9024 53.8278 27.8356 53.9025 27.839C53.9735 27.8421 54.0296 27.9083 54.0326 27.9883L54.3289 36.3853C54.3354 37.0635 53.4602 37.0673 53.4656 36.3853Z" fill="#BAD8DF"/>
<path d="M0.900052 112.443L1.1964 104.046C1.19938 103.96 1.26249 103.893 1.33726 103.897C1.40823 103.9 1.4643 103.966 1.46728 104.046L1.76362 112.443C1.76985 113.121 0.894364 113.125 0.900052 112.443Z" fill="#BAD8DF"/>
<path d="M8.55813 28.2522L8.8542 19.8554C8.85718 19.7696 8.9203 19.7028 8.99506 19.7062C9.06603 19.7096 9.12183 19.7755 9.12509 19.8554L9.42143 28.2525C9.42793 28.9301 8.55271 28.9345 8.55813 28.2522Z" fill="#BAD8DF"/>
<path d="M4.53628 46.4371L4.83262 38.04C4.8356 37.9542 4.89872 37.8873 4.97348 37.8908C5.04445 37.8942 5.10053 37.9601 5.10351 38.04L5.39985 46.4371C5.40608 47.115 4.53086 47.119 4.53628 46.4371Z" fill="#BAD8DF"/>
<path d="M13.6717 9.38238L13.968 0.985327C13.971 0.8995 14.0341 0.832642 14.1089 0.836063C14.1798 0.839484 14.2359 0.905409 14.2389 0.985327L14.535 9.38238C14.5415 10.0603 13.6662 10.0643 13.6717 9.38238Z" fill="#BAD8DF"/>
<path d="M32.5783 23.2027L32.8743 14.8056C32.8773 14.7198 32.9404 14.653 33.0152 14.6564C33.0862 14.6598 33.1422 14.7257 33.1452 14.8056L33.4413 23.2027C33.4481 23.8809 32.5729 23.885 32.5783 23.2027Z" fill="#BAD8DF"/>
<path d="M18.6386 32.4517L18.9346 24.0547C18.9376 23.9688 19.0007 23.902 19.0755 23.9054C19.1465 23.9085 19.2026 23.9747 19.2055 24.0547L19.5019 32.4517C19.5084 33.1296 18.6332 33.1337 18.6386 32.4517Z" fill="#BAD8DF"/>
<path d="M92.8279 97.0679L93.1243 88.6709C93.1272 88.585 93.1903 88.5182 93.2651 88.5216C93.3361 88.525 93.3922 88.5909 93.3951 88.6709L93.6912 97.0679C93.6977 97.7458 92.8225 97.7499 92.8279 97.0679Z" fill="#BAD8DF"/>
<path d="M100.06 136.54L100.356 128.143C100.359 128.057 100.422 127.99 100.497 127.993C100.568 127.997 100.624 128.063 100.627 128.143L100.923 136.54C100.929 137.218 100.054 137.222 100.06 136.54Z" fill="#BAD8DF"/>
<path d="M88.6671 104.996L88.9635 96.5986C88.9665 96.5128 89.0296 96.4459 89.1043 96.4493C89.1753 96.4528 89.2314 96.5187 89.2344 96.5986L89.5307 104.996C89.5369 105.674 88.6617 105.678 88.6671 104.996Z" fill="#BAD8DF"/>
<path d="M106.505 123.655L106.801 115.258C106.804 115.172 106.867 115.105 106.942 115.109C107.013 115.112 107.069 115.178 107.072 115.258L107.368 123.655C107.374 124.333 106.499 124.337 106.505 123.655Z" fill="#BAD8DF"/>
<path d="M18.1608 61.9517L18.4571 53.5547C18.4601 53.4688 18.5232 53.402 18.598 53.4054C18.669 53.4088 18.725 53.4747 18.728 53.5547L19.0244 61.9517C19.0309 62.6299 18.1554 62.634 18.1608 61.9517Z" fill="#BAD8DF"/>
<path d="M54.8078 65.524L55.1038 57.1269C55.1068 57.0411 55.1699 56.9742 55.2447 56.9777C55.3157 56.9811 55.3715 57.047 55.3747 57.1269L55.6711 65.524C55.6776 66.2019 54.8023 66.2059 54.8078 65.524Z" fill="#BAD8DF"/>
<path d="M43.6939 58.7193L43.9902 50.3222C43.9932 50.2364 44.0563 50.1696 44.1311 50.173C44.202 50.1764 44.2581 50.2423 44.2611 50.3222L44.5574 58.7193C44.5637 59.3972 43.6885 59.4012 43.6939 58.7193Z" fill="#BAD8DF"/>
<path d="M6.08133 116.289L6.37767 107.892C6.38065 107.806 6.44377 107.739 6.51853 107.742C6.5895 107.746 6.64557 107.812 6.64855 107.892L6.9449 116.289C6.95113 116.967 6.07564 116.971 6.08133 116.289Z" fill="#BAD8DF"/>
<path d="M14.5152 74.3111L14.8115 65.914C14.8145 65.8282 14.8776 65.7614 14.9524 65.7648C15.0233 65.7682 15.0794 65.8341 15.0824 65.914L15.3785 74.3111C15.385 74.989 14.5097 74.993 14.5152 74.3111Z" fill="#BAD8DF"/>
<path d="M22.1665 76.0425L22.4626 67.6455C22.4656 67.5597 22.5287 67.4928 22.6035 67.4962C22.6744 67.4996 22.7305 67.5656 22.7335 67.6455L23.0296 76.0425C23.0363 76.7204 22.1611 76.7245 22.1665 76.0425Z" fill="#BAD8DF"/>
<path d="M29.1166 87.1509L29.4127 78.7539C29.4157 78.668 29.4788 78.6012 29.5535 78.6046C29.6245 78.608 29.6806 78.674 29.6836 78.7539L29.9796 87.1509C29.9864 87.8288 29.1112 87.8329 29.1166 87.1509Z" fill="#BAD8DF"/>
<path d="M98.8795 102.383L99.1759 93.9863C99.1789 93.9005 99.242 93.8336 99.3167 93.837C99.3877 93.8405 99.4435 93.9064 99.4468 93.9863L99.7431 102.383C99.7493 103.061 98.8741 103.065 98.8795 102.383Z" fill="#BAD8DF"/>
<path d="M74.5153 108.866L74.8114 100.469C74.8143 100.383 74.8775 100.316 74.9522 100.319C75.0232 100.323 75.0793 100.389 75.0822 100.469L75.3786 108.866C75.3854 109.544 74.5099 109.548 74.5153 108.866Z" fill="#BAD8DF"/>
<path d="M112.405 135.07L112.702 126.673C112.704 126.587 112.768 126.52 112.842 126.524C112.913 126.527 112.969 126.593 112.972 126.673L113.269 135.07C113.275 135.748 112.4 135.752 112.405 135.07Z" fill="#BAD8DF"/>
<path d="M64.0811 106.123L64.3774 97.7256C64.3804 97.6397 64.4435 97.5729 64.5183 97.5763C64.5893 97.5797 64.6453 97.6456 64.6483 97.7256L64.9444 106.123C64.9506 106.801 64.0754 106.805 64.0811 106.123Z" fill="#BAD8DF"/>
<path d="M114.822 65.2398L115.118 56.8428C115.121 56.7569 115.184 56.6901 115.259 56.6935C115.33 56.6969 115.386 56.7628 115.389 56.8428L115.685 65.2398C115.691 65.9177 114.816 65.9218 114.822 65.2398Z" fill="#BAD8DF"/>
<path d="M28.685 140.27L28.981 131.873C28.984 131.787 29.0471 131.72 29.1219 131.724C29.1929 131.727 29.2489 131.793 29.2519 131.873L29.548 140.27C29.5545 140.948 28.6793 140.952 28.685 140.27Z" fill="#BAD8DF"/>
<path d="M35.6345 143.468L35.9309 135.071C35.9339 134.985 35.997 134.919 36.0718 134.922C36.1427 134.925 36.1988 134.991 36.2018 135.071L36.4978 143.468C36.5041 144.146 35.6289 144.151 35.6345 143.468Z" fill="#BAD8DF"/>
<path d="M103.259 111.081L103.555 102.684C103.558 102.598 103.621 102.531 103.696 102.534C103.767 102.538 103.823 102.604 103.826 102.684L104.122 111.081C104.129 111.759 103.254 111.763 103.259 111.081Z" fill="#BAD8DF"/>
<path d="M146.079 27.731L146.375 19.334C146.378 19.2481 146.441 19.1813 146.516 19.1847C146.587 19.1881 146.643 19.254 146.646 19.334L146.942 27.731C146.949 28.4089 146.073 28.413 146.079 27.731Z" fill="#BAD8DF"/>
<path d="M142.581 11.5748L142.877 3.17771C142.88 3.09188 142.943 3.02503 143.018 3.02845C143.089 3.03187 143.145 3.09779 143.148 3.17771L143.444 11.5748C143.451 12.2527 142.575 12.2567 142.581 11.5748Z" fill="#BAD8DF"/>
<path d="M148.067 5.49762L148.363 -2.89944C148.366 -2.98527 148.429 -3.05212 148.504 -3.0487C148.575 -3.04528 148.631 -2.97936 148.634 -2.89944L148.93 5.49762C148.937 6.17553 148.062 6.17957 148.067 5.49762Z" fill="#BAD8DF"/>
<path d="M160.857 50.9664L161.153 42.5693C161.156 42.4835 161.219 42.4166 161.294 42.42C161.365 42.4232 161.421 42.4894 161.424 42.5693L161.72 50.9664C161.727 51.6443 160.851 51.6486 160.857 50.9664Z" fill="#BAD8DF"/>
<path d="M143.878 110.652L144.175 102.255C144.178 102.169 144.241 102.102 144.315 102.106C144.386 102.109 144.442 102.175 144.445 102.255L144.742 110.652C144.748 111.33 143.873 111.334 143.878 110.652Z" fill="#BAD8DF"/>
<path d="M184.07 4.85504L184.366 -3.54202C184.369 -3.62784 184.432 -3.6947 184.507 -3.69128C184.578 -3.68786 184.634 -3.62193 184.637 -3.54202L184.933 4.85504C184.94 5.53295 184.064 5.5373 184.07 4.85504Z" fill="#BAD8DF"/>
<path d="M138.832 96.2554L139.128 87.8584C139.131 87.7726 139.194 87.7057 139.269 87.7091C139.34 87.7125 139.396 87.7785 139.399 87.8584L139.696 96.2554C139.702 96.9333 138.827 96.9377 138.832 96.2554Z" fill="#BAD8DF"/>
<path d="M159.718 113.393L160.015 104.996C160.018 104.91 160.081 104.843 160.155 104.847C160.226 104.85 160.283 104.916 160.286 104.996L160.582 113.393C160.588 114.071 159.713 114.075 159.718 113.393Z" fill="#BAD8DF"/>
<path d="M147.001 141.806L147.297 133.409C147.3 133.323 147.363 133.256 147.438 133.26C147.509 133.263 147.565 133.329 147.568 133.409L147.864 141.806C147.871 142.484 146.995 142.488 147.001 141.806Z" fill="#BAD8DF"/>
<path d="M161.29 134.728L161.586 126.331C161.589 126.245 161.652 126.178 161.727 126.182C161.798 126.185 161.854 126.251 161.857 126.331L162.154 134.728C162.16 135.406 161.284 135.41 161.29 134.728Z" fill="#BAD8DF"/>
<path d="M165.071 136.577L165.368 128.18C165.371 128.094 165.434 128.027 165.508 128.03C165.579 128.034 165.635 128.099 165.638 128.18L165.935 136.577C165.941 137.255 165.066 137.259 165.071 136.577Z" fill="#BAD8DF"/>
<path d="M130.101 113.393L130.397 104.996C130.4 104.91 130.463 104.843 130.538 104.847C130.609 104.85 130.665 104.916 130.668 104.996L130.965 113.393C130.971 114.071 130.096 114.075 130.101 113.393Z" fill="#BAD8DF"/>
<path d="M125.458 106.231L125.755 97.834C125.758 97.7481 125.821 97.6813 125.895 97.6847C125.966 97.6878 126.023 97.754 126.026 97.834L126.322 106.231C126.328 106.909 125.453 106.913 125.458 106.231Z" fill="#BAD8DF"/>
<path d="M30.5235 60.148L30.8195 51.751C30.8225 51.6651 30.8856 51.5983 30.9604 51.6017C31.0314 51.6051 31.0874 51.671 31.0904 51.751L31.3865 60.148C31.3933 60.8262 30.518 60.8303 30.5235 60.148Z" fill="#BAD8DF"/>
<path d="M76.5266 3.81207L76.823 -4.58499C76.826 -4.67081 76.8891 -4.73767 76.9638 -4.73425C77.0348 -4.73083 77.0909 -4.6649 77.0939 -4.58499L77.3899 3.81207C77.3964 4.48998 76.5215 4.49402 76.5266 3.81207Z" fill="#BAD8DF"/>
<path d="M49.1637 10.607L49.4598 2.20994C49.4628 2.12411 49.5259 2.05725 49.6007 2.06067C49.6716 2.06378 49.7277 2.12971 49.7307 2.20994L50.027 10.607C50.0335 11.2852 49.1583 11.2893 49.1637 10.607Z" fill="#BAD8DF"/>
<path d="M74.947 75.5982L75.2434 67.2011C75.2464 67.1153 75.3095 67.0485 75.3842 67.0519C75.4552 67.0553 75.5113 67.1212 75.5143 67.2011L75.8106 75.5982C75.8168 76.2761 74.9416 76.2802 74.947 75.5982Z" fill="#BAD8DF"/>
<path d="M49.0137 111.839L49.31 103.442C49.313 103.357 49.3761 103.29 49.4509 103.293C49.5219 103.297 49.5779 103.362 49.5809 103.442L49.877 111.839C49.8835 112.517 49.0083 112.521 49.0137 111.839Z" fill="#BAD8DF"/>
<path d="M56.7005 118.401L56.9968 110.004C56.9998 109.918 57.0629 109.851 57.1377 109.855C57.2086 109.858 57.2647 109.924 57.2677 110.004L57.5638 118.401C57.5703 119.079 56.695 119.083 56.7005 118.401Z" fill="#BAD8DF"/>
<path d="M60.814 101.594L61.1101 93.1972C61.113 93.1114 61.1762 93.0446 61.2509 93.048C61.3219 93.0514 61.3777 93.1173 61.3809 93.1972L61.6773 101.594C61.6838 102.272 60.8086 102.276 60.814 101.594Z" fill="#BAD8DF"/>
<path d="M70.4149 65.5992L70.7113 57.2021C70.7143 57.1163 70.7774 57.0494 70.8522 57.0529C70.9231 57.0563 70.9792 57.1222 70.9822 57.2021L71.2782 65.5992C71.2845 66.2774 70.4093 66.2811 70.4149 65.5992Z" fill="#BAD8DF"/>
<path d="M63.5594 82.5709L63.8557 74.1738C63.8587 74.088 63.9218 74.0211 63.9966 74.0245C64.0675 74.0276 64.1236 74.0939 64.1266 74.1738L64.4229 82.5709C64.4292 83.2488 63.5539 83.2528 63.5594 82.5709Z" fill="#BAD8DF"/>
<path d="M93.8035 11.9039L94.0998 3.50681C94.1028 3.42098 94.1659 3.35413 94.2407 3.35755C94.3117 3.36097 94.3677 3.42689 94.3707 3.50681L94.6671 11.9039C94.6736 12.5818 93.7983 12.5858 93.8035 11.9039Z" fill="#BAD8DF"/>
<path d="M85.6181 12.65L85.9144 4.25291C85.9174 4.16708 85.9805 4.10022 86.0553 4.10364C86.1262 4.10706 86.1823 4.17299 86.1853 4.25291L86.4816 12.65C86.4879 13.3279 85.6124 13.3322 85.6181 12.65Z" fill="#BAD8DF"/>
<path d="M88.6671 5.49762L88.9635 -2.89944C88.9665 -2.98527 89.0296 -3.05212 89.1043 -3.0487C89.1753 -3.04528 89.2314 -2.97936 89.2344 -2.89944L89.5307 5.49762C89.5369 6.17553 88.6617 6.17957 88.6671 5.49762Z" fill="#BAD8DF"/>
<path d="M114.792 3.72027L115.088 -4.67678C115.091 -4.76261 115.154 -4.82947 115.229 -4.82605C115.3 -4.82263 115.356 -4.75701 115.359 -4.67678L115.656 3.72027C115.662 4.39818 114.787 4.40223 114.792 3.72027Z" fill="#BAD8DF"/>
<path d="M79.0102 59.0113L79.3065 50.6142C79.3095 50.5284 79.3726 50.4615 79.4474 50.465C79.5183 50.4681 79.5744 50.5343 79.5774 50.6142L79.8737 59.0113C79.88 59.6895 79.0047 59.6932 79.0102 59.0113Z" fill="#BAD8DF"/>
<path d="M124.797 9.38238L125.093 0.985327C125.096 0.8995 125.159 0.832642 125.234 0.836063C125.305 0.839484 125.361 0.905409 125.364 0.985327L125.661 9.38238C125.667 10.0603 124.792 10.0643 124.797 9.38238Z" fill="#BAD8DF"/>
<path d="M127.58 66.9127L127.877 58.5156C127.88 58.4298 127.943 58.3629 128.018 58.3663C128.089 58.3694 128.145 58.4357 128.148 58.5156L128.444 66.9127C128.45 67.5909 127.575 67.5946 127.58 66.9127Z" fill="#BAD8DF"/>
<path d="M113.999 109.197L114.295 100.8C114.298 100.714 114.361 100.647 114.436 100.651C114.507 100.654 114.563 100.72 114.566 100.8L114.862 109.197C114.868 109.875 113.993 109.879 113.999 109.197Z" fill="#BAD8DF"/>
<path d="M105.781 6.07867L106.077 -2.31838C106.08 -2.40421 106.143 -2.47107 106.218 -2.46765C106.289 -2.46454 106.345 -2.3983 106.348 -2.31838L106.644 6.07867C106.65 6.75658 105.775 6.76062 105.781 6.07867Z" fill="#BAD8DF"/>
<path d="M95.891 24.2203L96.1874 15.8232C96.1903 15.7374 96.2534 15.6705 96.3282 15.674C96.3992 15.6774 96.4553 15.7433 96.4582 15.8232L96.7546 24.2203C96.7608 24.8982 95.8859 24.9022 95.891 24.2203Z" fill="#BAD8DF"/>
<path d="M109.877 11.022L110.173 2.62498C110.176 2.53915 110.239 2.47229 110.314 2.47571C110.385 2.47913 110.441 2.54475 110.444 2.62498L110.741 11.022C110.747 11.6999 109.872 11.704 109.877 11.022Z" fill="#BAD8DF"/>
<path d="M108.2 58.7193L108.496 50.3222C108.499 50.2364 108.562 50.1696 108.637 50.173C108.708 50.1764 108.764 50.2423 108.767 50.3222L109.064 58.7193C109.07 59.3972 108.195 59.4016 108.2 58.7193Z" fill="#BAD8DF"/>
<path d="M89.899 66.0377L90.195 57.6406C90.198 57.5548 90.2611 57.4879 90.3359 57.4913C90.4069 57.4948 90.4627 57.5607 90.4659 57.6406L90.7623 66.0377C90.7688 66.7156 89.8935 66.7196 89.899 66.0377Z" fill="#BAD8DF"/>
<path d="M94.2351 61.5093L94.5315 53.1123C94.5345 53.0265 94.5976 52.9596 94.6723 52.963C94.7433 52.9664 94.7994 53.0324 94.8024 53.1123L95.0987 61.5093C95.1049 62.1872 94.2297 62.1916 94.2351 61.5093Z" fill="#BAD8DF"/>
<path d="M9.96987 59.7525L10.2662 51.3554C10.2692 51.2696 10.3323 51.2028 10.4071 51.2062C10.478 51.2096 10.5338 51.2755 10.5371 51.3554L10.8332 59.7525C10.8397 60.4304 9.96446 60.4345 9.96987 59.7525Z" fill="#BAD8DF"/>
<path d="M53.0337 130.543L53.3298 122.145C53.3328 122.06 53.3959 121.993 53.4707 121.996C53.5416 122 53.5974 122.066 53.6007 122.145L53.897 130.543C53.9035 131.22 53.0283 131.224 53.0337 130.543Z" fill="#BAD8DF"/>
<path d="M140.147 42.2398L140.444 33.8427C140.447 33.7569 140.51 33.6901 140.584 33.6935C140.655 33.6969 140.711 33.7628 140.714 33.8427L141.011 42.2398C141.017 42.918 140.142 42.9221 140.147 42.2398Z" fill="#BAD8DF"/>
<path d="M144.741 69.2046L145.038 60.8076C145.041 60.7218 145.104 60.6549 145.179 60.6583C145.25 60.6617 145.305 60.7277 145.309 60.8076L145.605 69.2046C145.611 69.8826 144.736 69.8869 144.741 69.2046Z" fill="#BAD8DF"/>
<path d="M70.9976 31.856L71.2939 23.459C71.2969 23.3731 71.36 23.3063 71.4348 23.3097C71.5058 23.3131 71.5618 23.379 71.5648 23.459L71.8612 31.856C71.8671 32.5339 70.9922 32.538 70.9976 31.856Z" fill="#BAD8DF"/>
<path d="M47.6966 90.9673L47.9926 82.5703C47.9956 82.4845 48.0587 82.4176 48.1335 82.421C48.2045 82.4241 48.2603 82.4904 48.2635 82.5703L48.5599 90.9673C48.5664 91.6453 47.6911 91.6496 47.6966 90.9673Z" fill="#BAD8DF"/>
<path d="M63.7222 60.4859L64.0185 52.0888C64.0215 52.003 64.0846 51.9362 64.1594 51.9396C64.2304 51.943 64.2864 52.0089 64.2894 52.0888L64.5855 60.4859C64.592 61.1641 63.7168 61.1682 63.7222 60.4859Z" fill="#BAD8DF"/>
<path d="M109.445 97.0679L109.741 88.6709C109.744 88.5851 109.808 88.5182 109.882 88.5216C109.953 88.525 110.009 88.591 110.012 88.6709L110.309 97.0679C110.315 97.7462 109.44 97.7502 109.445 97.0679Z" fill="#BAD8DF"/>
<path d="M154.682 43.3912L154.979 34.9941C154.982 34.9083 155.045 34.8414 155.119 34.8449C155.19 34.8483 155.247 34.9142 155.25 34.9941L155.546 43.3912C155.552 44.0691 154.677 44.0734 154.682 43.3912Z" fill="#BAD8DF"/>
<path d="M167.55 5.49762L167.846 -2.89944C167.849 -2.98527 167.913 -3.05212 167.987 -3.0487C168.058 -3.04528 168.114 -2.97967 168.117 -2.89944L168.414 5.49762C168.42 6.17553 167.545 6.17957 167.55 5.49762Z" fill="#BAD8DF"/>
<path d="M137.897 4.85504L138.193 -3.54202C138.196 -3.62784 138.259 -3.6947 138.334 -3.69128C138.405 -3.68786 138.461 -3.62225 138.464 -3.54202L138.76 4.85504C138.766 5.53295 137.891 5.5373 137.897 4.85504Z" fill="#BAD8DF"/>
<path d="M70.4293 90.9673L70.7257 82.5703C70.7287 82.4845 70.7918 82.4176 70.8665 82.421C70.9375 82.4244 70.9936 82.4904 70.9966 82.5703L71.2929 90.9673C71.2991 91.6453 70.4239 91.6496 70.4293 90.9673Z" fill="#BAD8DF"/>
<path d="M42.2107 31.856L42.5071 23.459C42.51 23.3731 42.5732 23.3063 42.6479 23.3097C42.7189 23.3131 42.775 23.379 42.7779 23.459L43.074 31.856C43.0802 32.5339 42.2053 32.538 42.2107 31.856Z" fill="#BAD8DF"/>
<path d="M87.1601 59.7525L87.4564 51.3554C87.4594 51.2696 87.5225 51.2028 87.5973 51.2062C87.6682 51.2096 87.7243 51.2755 87.7273 51.3554L88.0236 59.7525C88.0299 60.4304 87.1546 60.4345 87.1601 59.7525Z" fill="#BAD8DF"/>
<path d="M53.0337 87.3843L53.3298 78.9873C53.3328 78.9015 53.3959 78.8346 53.4707 78.838C53.5416 78.8414 53.5977 78.9074 53.6007 78.9873L53.897 87.3843C53.9035 88.0626 53.0283 88.0663 53.0337 87.3843Z" fill="#BAD8DF"/>
<path d="M137.465 60.148L137.761 51.751C137.764 51.6651 137.827 51.5983 137.902 51.6017C137.973 51.6051 138.029 51.671 138.032 51.751L138.329 60.148C138.335 60.8262 137.46 60.8303 137.465 60.148Z" fill="#BAD8DF"/>
<path d="M38.5011 16.1021L38.7972 7.70505C38.8002 7.61923 38.8633 7.55237 38.9381 7.55579C39.009 7.55921 39.0651 7.62482 39.0681 7.70505L39.3644 16.1021C39.3709 16.78 38.4957 16.7844 38.5011 16.1021Z" fill="#BAD8DF"/>
<path d="M0.900049 66.5289L1.19639 58.1318C1.19937 58.046 1.26249 57.9791 1.33725 57.9825C1.40822 57.986 1.46403 58.0519 1.46728 58.1318L1.76335 66.5289C1.76985 67.2068 0.894632 67.2111 0.900049 66.5289Z" fill="#BAD8DF"/>
<path d="M44.1256 115.288L44.422 106.891C44.425 106.805 44.4881 106.738 44.5628 106.741C44.6338 106.745 44.6899 106.811 44.6929 106.891L44.9889 115.288C44.9952 115.966 44.1202 115.97 44.1256 115.288Z" fill="#BAD8DF"/>
<path d="M180.21 79.2154L180.507 70.8183C180.51 70.7325 180.573 70.6657 180.648 70.6691C180.719 70.6725 180.775 70.7384 180.778 70.8183L181.074 79.2154C181.08 79.8933 180.205 79.8973 180.21 79.2154Z" fill="#BAD8DF"/>
<path d="M151.198 103.025L151.494 94.6279C151.497 94.5421 151.56 94.4752 151.635 94.4786C151.706 94.4821 151.762 94.548 151.765 94.6279L152.061 103.025C152.067 103.703 151.192 103.707 151.198 103.025Z" fill="#BAD8DF"/>
<path d="M146.511 116.972L146.807 108.575C146.81 108.489 146.873 108.422 146.948 108.426C147.019 108.429 147.075 108.495 147.078 108.575L147.374 116.972C147.38 117.65 146.505 117.654 146.511 116.972Z" fill="#BAD8DF"/>
<path d="M116.872 101.072L117.169 92.6748C117.172 92.5889 117.235 92.5221 117.31 92.5255C117.381 92.5289 117.437 92.5949 117.44 92.6748L117.736 101.072C117.742 101.75 116.867 101.754 116.872 101.072Z" fill="#BAD8DF"/>
<path d="M138.832 119.128L139.128 110.73C139.131 110.645 139.194 110.578 139.269 110.581C139.34 110.585 139.396 110.651 139.399 110.73L139.696 119.128C139.702 119.805 138.827 119.809 138.832 119.128Z" fill="#BAD8DF"/>
<path d="M139.963 75.5982L140.259 67.2011C140.262 67.1153 140.325 67.0485 140.4 67.0519C140.471 67.0553 140.527 67.1209 140.53 67.2011L140.826 75.5982C140.833 76.2761 139.957 76.2802 139.963 75.5982Z" fill="#BAD8DF"/>
<path d="M193.899 42.2398L194.195 33.8427C194.198 33.7569 194.261 33.6901 194.336 33.6935C194.407 33.6969 194.463 33.7628 194.466 33.8427L194.762 42.2398C194.769 42.918 193.893 42.9221 193.899 42.2398Z" fill="#BAD8DF"/>
<path d="M181.7 42.2398L181.996 33.8427C181.999 33.7569 182.063 33.6901 182.137 33.6935C182.208 33.6969 182.264 33.7628 182.267 33.8427L182.563 42.2398C182.57 42.918 181.695 42.9221 181.7 42.2398Z" fill="#BAD8DF"/>
<path d="M188.478 16.4332L188.774 8.03611C188.777 7.95028 188.84 7.88342 188.915 7.88684C188.986 7.89027 189.042 7.95588 189.045 8.03611L189.341 16.4332C189.347 17.1111 188.472 17.1151 188.478 16.4332Z" fill="#BAD8DF"/>
<path d="M179.042 13.0152L179.339 4.61814C179.342 4.53231 179.405 4.46545 179.479 4.46888C179.55 4.4723 179.607 4.53822 179.61 4.61814L179.906 13.0152C179.912 13.6931 179.037 13.6971 179.042 13.0152Z" fill="#BAD8DF"/>
<path d="M169.623 84.8609L169.919 76.4638C169.922 76.378 169.985 76.3112 170.06 76.3146C170.131 76.3177 170.187 76.3836 170.19 76.4638L170.486 84.8609C170.492 85.5388 169.617 85.5432 169.623 84.8609Z" fill="#BAD8DF"/>
<path d="M165.503 80.3306L165.799 71.9336C165.802 71.8477 165.866 71.7809 165.94 71.7843C166.011 71.7874 166.067 71.8536 166.07 71.9336L166.367 80.3306C166.373 81.0085 165.498 81.0126 165.503 80.3306Z" fill="#BAD8DF"/>
<path d="M186.31 50.6539L186.606 42.2568C186.609 42.171 186.672 42.1041 186.747 42.1075C186.818 42.111 186.874 42.1769 186.877 42.2568L187.174 50.6539C187.18 51.3321 186.305 51.3361 186.31 50.6539Z" fill="#BAD8DF"/>
<path d="M196.864 59.7525L197.161 51.3554C197.164 51.2696 197.227 51.2028 197.302 51.2062C197.373 51.2096 197.428 51.2755 197.432 51.3554L197.728 59.7525C197.734 60.4304 196.859 60.4345 196.864 59.7525Z" fill="#BAD8DF"/>
<path d="M191.867 99.9673L192.163 91.5703C192.166 91.4845 192.23 91.4176 192.304 91.421C192.375 91.4244 192.431 91.4904 192.434 91.5703L192.731 99.9673C192.737 100.645 191.862 100.65 191.867 99.9673Z" fill="#BAD8DF"/>
<path d="M186.076 95.1666L186.373 86.7695C186.376 86.6837 186.439 86.6168 186.514 86.6202C186.584 86.6237 186.641 86.6896 186.644 86.7695L186.94 95.1666C186.946 95.8445 186.071 95.8485 186.076 95.1666Z" fill="#BAD8DF"/>
<path d="M161.722 97.5894L162.018 89.1924C162.021 89.1065 162.084 89.0397 162.159 89.0431C162.23 89.0462 162.286 89.1124 162.289 89.1924L162.585 97.5894C162.591 98.2676 161.716 98.2717 161.722 97.5894Z" fill="#BAD8DF"/>
<path d="M151.198 51.3541L151.494 42.957C151.497 42.8712 151.56 42.8043 151.635 42.8077C151.706 42.8112 151.762 42.8771 151.765 42.957L152.061 51.3541C152.068 52.032 151.192 52.0363 151.198 51.3541Z" fill="#BAD8DF"/>
<path d="M183.638 128.811L183.934 120.414C183.937 120.328 184 120.261 184.075 120.265C184.146 120.268 184.202 120.334 184.205 120.414L184.501 128.811C184.508 129.489 183.632 129.493 183.638 128.811Z" fill="#BAD8DF"/>
<path d="M197.935 126.33L198.232 119.432C198.239 119.241 198.494 119.237 198.502 119.432L198.799 126.33C198.809 127.014 197.925 127.017 197.935 126.33Z" fill="#BAD8DF"/>
<path d="M125.369 60.148L125.666 51.751C125.669 51.6651 125.732 51.5983 125.807 51.6017C125.878 51.6051 125.934 51.671 125.937 51.751L126.233 60.148C126.239 60.8262 125.364 60.8303 125.369 60.148Z" fill="#BAD8DF"/>
<path d="M194.331 83.2398L194.627 74.8428C194.63 74.7569 194.693 74.6901 194.768 74.6935C194.839 74.6969 194.895 74.7625 194.898 74.8428L195.194 83.2398C195.2 83.9177 194.325 83.9218 194.331 83.2398Z" fill="#BAD8DF"/>
<path d="M182.75 85.9185L183.046 77.5215C183.049 77.4356 183.112 77.3688 183.187 77.3722C183.258 77.3756 183.314 77.4415 183.317 77.5215L183.614 85.9185C183.62 86.5964 182.745 86.6005 182.75 85.9185Z" fill="#BAD8DF"/>
<path d="M52.9672 92.9055L53.2727 85.9845C53.2758 85.9137 53.3409 85.8586 53.418 85.8614C53.4913 85.864 53.5491 85.9186 53.5522 85.9845L53.858 92.9055C53.8647 93.4645 52.9616 93.4675 52.9672 92.9055Z" fill="#BAD8DF"/>
<path d="M6.6293 86.2031L6.9348 79.2823C6.93788 79.2116 7.003 79.1565 7.08015 79.1593C7.15338 79.1621 7.21096 79.2164 7.21431 79.2823L7.5201 86.2033C7.52681 86.7618 6.62371 86.7654 6.6293 86.2031Z" fill="#BAD8DF"/>
<path d="M2.47915 101.191L2.78494 94.2696C2.78801 94.1989 2.85314 94.1438 2.93028 94.1466C3.00351 94.1494 3.06137 94.2037 3.06445 94.2696L3.37023 101.191C3.37666 101.749 2.47356 101.753 2.47915 101.191Z" fill="#BAD8DF"/>
<path d="M11.9057 70.6496L12.2115 63.7286C12.2145 63.6579 12.2797 63.6028 12.3568 63.6056C12.43 63.6084 12.4879 63.6627 12.491 63.7286L12.7965 70.6496C12.8032 71.2084 11.9001 71.2117 11.9057 70.6496Z" fill="#BAD8DF"/>
<path d="M31.4145 82.0393L31.72 75.1182C31.723 75.0475 31.7882 74.9924 31.8653 74.9952C31.9385 74.998 31.9964 75.0524 31.9995 75.1182L32.305 82.0393C32.312 82.5983 31.4089 82.6016 31.4145 82.0393Z" fill="#BAD8DF"/>
<path d="M17.0308 89.6633L17.3363 82.7423C17.3394 82.6715 17.4045 82.6164 17.4816 82.6192C17.5549 82.6218 17.6127 82.6764 17.6158 82.7423L17.9216 89.6633C17.9283 90.222 17.0252 90.2254 17.0308 89.6633Z" fill="#BAD8DF"/>
<path d="M93.5834 142.919L93.8892 135.998C93.8923 135.927 93.9574 135.872 94.0345 135.875C94.1078 135.878 94.1656 135.932 94.1687 135.998L94.4742 142.919C94.4809 143.478 93.5778 143.481 93.5834 142.919Z" fill="#BAD8DF"/>
<path d="M101.046 175.454L101.351 168.533C101.355 168.463 101.42 168.407 101.497 168.41C101.57 168.413 101.628 168.467 101.631 168.533L101.937 175.454C101.943 176.013 101.04 176.017 101.046 175.454Z" fill="#BAD8DF"/>
<path d="M89.2902 149.454L89.596 142.533C89.599 142.463 89.6642 142.407 89.7413 142.41C89.8145 142.413 89.8724 142.467 89.8755 142.533L90.1813 149.454C90.1877 150.013 89.2846 150.017 89.2902 149.454Z" fill="#BAD8DF"/>
<path d="M107.696 164.835L108.001 157.914C108.005 157.843 108.07 157.788 108.147 157.791C108.22 157.794 108.278 157.848 108.281 157.914L108.587 164.835C108.593 165.394 107.69 165.397 107.696 164.835Z" fill="#BAD8DF"/>
<path d="M16.5377 113.976L16.8435 107.055C16.8466 106.984 16.9117 106.929 16.9889 106.932C17.0621 106.935 17.12 106.989 17.123 107.055L17.4288 113.976C17.4355 114.535 16.5322 114.538 16.5377 113.976Z" fill="#BAD8DF"/>
<path d="M54.3521 116.921L54.6576 110C54.6607 109.929 54.7258 109.874 54.8029 109.877C54.8762 109.88 54.9337 109.934 54.9371 110L55.2429 116.921C55.2496 117.48 54.3465 117.483 54.3521 116.921Z" fill="#BAD8DF"/>
<path d="M42.8842 111.313L43.19 104.392C43.193 104.321 43.2582 104.266 43.3353 104.269C43.4085 104.271 43.4664 104.326 43.4695 104.392L43.7753 111.313C43.7817 111.871 42.8786 111.875 42.8842 111.313Z" fill="#BAD8DF"/>
<path d="M4.07351 158.762L4.3793 151.841C4.38237 151.77 4.4475 151.715 4.52465 151.718C4.59788 151.721 4.65574 151.775 4.65881 151.841L4.96459 158.762C4.97102 159.321 4.06765 159.324 4.07351 158.762Z" fill="#BAD8DF"/>
<path d="M12.7759 124.164L13.0817 117.243C13.0848 117.173 13.1499 117.117 13.227 117.12C13.3003 117.123 13.3581 117.177 13.3612 117.243L13.6667 124.164C13.6734 124.723 12.7703 124.726 12.7759 124.164Z" fill="#BAD8DF"/>
<path d="M20.6712 125.591L20.9767 118.67C20.9797 118.599 21.0449 118.544 21.122 118.547C21.1953 118.55 21.2531 118.604 21.2562 118.67L21.5617 125.591C21.5687 126.15 20.6656 126.153 20.6712 125.591Z" fill="#BAD8DF"/>
<path d="M27.8426 134.748L28.1481 127.827C28.1511 127.756 28.2163 127.701 28.2934 127.704C28.3666 127.707 28.4245 127.761 28.4276 127.827L28.7331 134.748C28.7401 135.307 27.837 135.31 27.8426 134.748Z" fill="#BAD8DF"/>
<path d="M99.8282 147.301L100.134 140.38C100.137 140.309 100.202 140.254 100.279 140.257C100.353 140.26 100.41 140.314 100.413 140.38L100.719 147.301C100.726 147.86 99.8226 147.863 99.8282 147.301Z" fill="#BAD8DF"/>
<path d="M74.6874 152.645L74.9929 145.724C74.996 145.653 75.0611 145.598 75.1383 145.601C75.2115 145.604 75.2694 145.658 75.2724 145.724L75.5782 152.645C75.5852 153.204 74.6818 153.207 74.6874 152.645Z" fill="#BAD8DF"/>
<path d="M113.784 174.244L114.09 167.323C114.093 167.253 114.158 167.197 114.235 167.2C114.309 167.203 114.367 167.257 114.37 167.323L114.675 174.244C114.682 174.803 113.779 174.807 113.784 174.244Z" fill="#BAD8DF"/>
<path d="M63.9209 150.383L64.2267 143.462C64.2298 143.391 64.2949 143.336 64.3721 143.339C64.4453 143.342 64.5031 143.396 64.5062 143.462L64.8117 150.383C64.8182 150.942 63.9151 150.945 63.9209 150.383Z" fill="#BAD8DF"/>
<path d="M116.278 116.688L116.584 109.767C116.587 109.696 116.652 109.641 116.729 109.644C116.802 109.646 116.86 109.701 116.863 109.767L117.169 116.688C117.175 117.246 116.272 117.25 116.278 116.688Z" fill="#BAD8DF"/>
<path d="M27.3972 178.529L27.7028 171.608C27.7058 171.537 27.771 171.482 27.8481 171.484C27.9213 171.487 27.9792 171.542 27.9823 171.608L28.2878 178.529C28.2945 179.087 27.3914 179.091 27.3972 178.529Z" fill="#BAD8DF"/>
<path d="M34.5681 181.166L34.8739 174.245C34.877 174.174 34.9421 174.119 35.0193 174.122C35.0925 174.125 35.1504 174.179 35.1534 174.245L35.4589 181.166C35.4654 181.725 34.5623 181.729 34.5681 181.166Z" fill="#BAD8DF"/>
<path d="M104.347 154.47L104.652 147.549C104.656 147.478 104.721 147.423 104.798 147.426C104.871 147.429 104.929 147.483 104.932 147.549L105.238 154.47C105.244 155.029 104.341 155.032 104.347 154.47Z" fill="#BAD8DF"/>
<path d="M148.531 85.7727L148.837 78.8516C148.84 78.7809 148.905 78.7258 148.982 78.7286C149.055 78.7314 149.113 78.7858 149.116 78.8516L149.422 85.7727C149.428 86.3314 148.525 86.3347 148.531 85.7727Z" fill="#BAD8DF"/>
<path d="M144.921 72.4563L145.227 65.5352C145.23 65.4645 145.295 65.4094 145.372 65.4122C145.446 65.415 145.504 65.4694 145.507 65.5352L145.812 72.4563C145.819 73.015 144.916 73.0183 144.921 72.4563Z" fill="#BAD8DF"/>
<path d="M150.582 67.4475L150.888 60.5265C150.891 60.4557 150.956 60.4006 151.033 60.4034C151.107 60.4062 151.164 60.4606 151.167 60.5265L151.473 67.4475C151.48 68.0062 150.577 68.0095 150.582 67.4475Z" fill="#BAD8DF"/>
<path d="M163.78 104.921L164.085 98.0001C164.089 97.9293 164.154 97.8742 164.231 97.8771C164.304 97.8796 164.362 97.9342 164.365 98.0001L164.671 104.921C164.677 105.48 163.774 105.483 163.78 104.921Z" fill="#BAD8DF"/>
<path d="M146.26 154.116L146.566 147.195C146.569 147.125 146.634 147.07 146.711 147.072C146.784 147.075 146.842 147.13 146.845 147.195L147.151 154.116C147.158 154.675 146.254 154.678 146.26 154.116Z" fill="#BAD8DF"/>
<path d="M187.732 66.9162L188.038 59.9952C188.041 59.9245 188.106 59.8694 188.183 59.8722C188.256 59.875 188.314 59.9293 188.317 59.9952L188.623 66.9162C188.629 67.475 187.726 67.4785 187.732 66.9162Z" fill="#BAD8DF"/>
<path d="M141.053 142.251L141.359 135.33C141.362 135.259 141.427 135.204 141.504 135.207C141.577 135.21 141.635 135.264 141.638 135.33L141.944 142.251C141.951 142.81 141.047 142.814 141.053 142.251Z" fill="#BAD8DF"/>
<path d="M162.605 156.376L162.911 149.455C162.914 149.384 162.979 149.329 163.056 149.332C163.129 149.335 163.187 149.389 163.19 149.455L163.496 156.376C163.502 156.935 162.599 156.938 162.605 156.376Z" fill="#BAD8DF"/>
<path d="M149.482 179.794L149.788 172.873C149.791 172.802 149.856 172.747 149.933 172.75C150.006 172.753 150.064 172.807 150.067 172.873L150.373 179.794C150.379 180.353 149.476 180.356 149.482 179.794Z" fill="#BAD8DF"/>
<path d="M164.226 173.958L164.532 167.037C164.535 166.966 164.6 166.911 164.678 166.914C164.751 166.917 164.809 166.971 164.812 167.037L165.118 173.958C165.124 174.517 164.221 174.521 164.226 173.958Z" fill="#BAD8DF"/>
<path d="M168.128 175.483L168.434 168.562C168.437 168.491 168.502 168.436 168.579 168.439C168.653 168.441 168.71 168.495 168.713 168.562L169.019 175.483C169.026 176.041 168.123 176.045 168.128 175.483Z" fill="#BAD8DF"/>
<path d="M132.044 156.376L132.35 149.455C132.353 149.384 132.418 149.329 132.495 149.332C132.568 149.335 132.626 149.389 132.629 149.455L132.935 156.376C132.941 156.935 132.038 156.938 132.044 156.376Z" fill="#BAD8DF"/>
<path d="M127.253 150.473L127.559 143.552C127.562 143.481 127.627 143.426 127.704 143.429C127.778 143.431 127.835 143.486 127.838 143.552L128.144 150.473C128.151 151.032 127.248 151.035 127.253 150.473Z" fill="#BAD8DF"/>
<path d="M29.2943 112.49L29.5998 105.569C29.6029 105.499 29.668 105.444 29.7452 105.446C29.8184 105.449 29.8763 105.504 29.8794 105.569L30.1849 112.49C30.1918 113.049 29.2887 113.053 29.2943 112.49Z" fill="#BAD8DF"/>
<path d="M76.763 66.0598L77.0687 59.1388C77.0718 59.068 77.1369 59.0129 77.2141 59.0157C77.2873 59.0185 77.3452 59.0729 77.3483 59.1388L77.6538 66.0598C77.6605 66.6185 76.7577 66.6218 76.763 66.0598Z" fill="#BAD8DF"/>
<path d="M48.5282 71.6584L48.8337 64.7374C48.8368 64.6666 48.9019 64.6115 48.9791 64.6144C49.0523 64.6169 49.1102 64.6713 49.1132 64.7374L49.419 71.6584C49.4257 72.2174 48.5226 72.2207 48.5282 71.6584Z" fill="#BAD8DF"/>
<path d="M75.133 125.224L75.4387 118.303C75.4418 118.232 75.5069 118.177 75.5841 118.18C75.6573 118.183 75.7152 118.237 75.7183 118.303L76.024 125.224C76.0305 125.783 75.1274 125.786 75.133 125.224Z" fill="#BAD8DF"/>
<path d="M48.3734 155.096L48.6792 148.175C48.6823 148.104 48.7474 148.049 48.8246 148.052C48.8978 148.055 48.9557 148.109 48.9587 148.175L49.2642 155.096C49.2709 155.655 48.3678 155.658 48.3734 155.096Z" fill="#BAD8DF"/>
<path d="M56.3052 160.505L56.611 153.584C56.6141 153.513 56.6792 153.458 56.7563 153.461C56.8296 153.464 56.8874 153.518 56.8905 153.584L57.196 160.505C57.2027 161.064 56.2996 161.067 56.3052 160.505Z" fill="#BAD8DF"/>
<path d="M60.55 146.651L60.8555 139.73C60.8585 139.659 60.9237 139.604 61.0008 139.607C61.074 139.609 61.1316 139.664 61.135 139.73L61.4408 146.651C61.4475 147.209 60.5444 147.213 60.55 146.651Z" fill="#BAD8DF"/>
<path d="M70.4564 116.984L70.7622 110.063C70.7653 109.992 70.8304 109.937 70.9076 109.94C70.9808 109.942 71.0387 109.997 71.0417 110.063L71.3473 116.984C71.3537 117.543 70.4506 117.546 70.4564 116.984Z" fill="#BAD8DF"/>
<path d="M63.3826 130.972L63.6884 124.051C63.6915 123.98 63.7566 123.925 63.8337 123.928C63.907 123.93 63.9648 123.985 63.9679 124.051L64.2737 130.972C64.2801 131.531 63.377 131.534 63.3826 130.972Z" fill="#BAD8DF"/>
<path d="M94.59 72.7268L94.8958 65.8057C94.8988 65.735 94.964 65.6799 95.0411 65.6827C95.1143 65.6855 95.1722 65.7399 95.1753 65.8057L95.4811 72.7268C95.4878 73.2855 94.5847 73.2888 94.59 72.7268Z" fill="#BAD8DF"/>
<path d="M86.1439 73.343L86.4497 66.422C86.4528 66.3512 86.5179 66.2961 86.5951 66.2989C86.6683 66.3018 86.7262 66.3561 86.7292 66.422L87.035 73.343C87.0415 73.9017 86.1381 73.9053 86.1439 73.343Z" fill="#BAD8DF"/>
<path d="M89.2902 67.4475L89.596 60.5265C89.599 60.4557 89.6642 60.4006 89.7413 60.4034C89.8145 60.4062 89.8724 60.4606 89.8755 60.5265L90.1813 67.4475C90.1877 68.0062 89.2846 68.0095 89.2902 67.4475Z" fill="#BAD8DF"/>
<path d="M116.247 65.9816L116.553 59.0606C116.556 58.9899 116.621 58.9348 116.698 58.9376C116.772 58.9404 116.83 58.9945 116.833 59.0606L117.138 65.9816C117.145 66.5404 116.242 66.5437 116.247 65.9816Z" fill="#BAD8DF"/>
<path d="M79.3257 111.553L79.6315 104.632C79.6346 104.561 79.6997 104.506 79.7768 104.509C79.8501 104.511 79.9079 104.566 79.911 104.632L80.2168 111.553C80.2232 112.112 79.3201 112.115 79.3257 111.553Z" fill="#BAD8DF"/>
<path d="M126.571 70.6496L126.877 63.7286C126.88 63.6579 126.945 63.6028 127.022 63.6056C127.095 63.6084 127.153 63.6627 127.156 63.7286L127.462 70.6496C127.469 71.2084 126.565 71.2117 126.571 70.6496Z" fill="#BAD8DF"/>
<path d="M129.443 118.067L129.749 111.146C129.752 111.075 129.817 111.02 129.894 111.023C129.967 111.025 130.025 111.08 130.028 111.146L130.334 118.067C130.34 118.626 129.437 118.629 129.443 118.067Z" fill="#BAD8DF"/>
<path d="M115.429 152.917L115.735 145.996C115.738 145.925 115.803 145.87 115.88 145.873C115.953 145.876 116.011 145.93 116.014 145.996L116.32 152.917C116.326 153.476 115.423 153.479 115.429 152.917Z" fill="#BAD8DF"/>
<path d="M106.949 67.927L107.254 61.0059C107.257 60.9352 107.323 60.8801 107.4 60.8829C107.473 60.8855 107.531 60.9401 107.534 61.0059L107.84 67.927C107.846 68.4857 106.943 68.489 106.949 67.927Z" fill="#BAD8DF"/>
<path d="M96.7442 82.8781L97.0499 75.9571C97.053 75.8864 97.1181 75.8313 97.1953 75.8341C97.2685 75.8369 97.3264 75.8912 97.3295 75.9571L97.6352 82.8781C97.6417 83.4369 96.7389 83.4402 96.7442 82.8781Z" fill="#BAD8DF"/>
<path d="M111.176 71.9982L111.481 65.0772C111.485 65.0065 111.55 64.9514 111.627 64.9542C111.7 64.957 111.758 65.0111 111.761 65.0772L112.067 71.9982C112.073 72.557 111.17 72.5603 111.176 71.9982Z" fill="#BAD8DF"/>
<path d="M109.445 111.313L109.751 104.392C109.754 104.321 109.819 104.266 109.896 104.269C109.97 104.271 110.027 104.326 110.03 104.392L110.336 111.313C110.343 111.871 109.44 111.875 109.445 111.313Z" fill="#BAD8DF"/>
<path d="M90.5612 117.343L90.8667 110.422C90.8698 110.351 90.9349 110.296 91.012 110.299C91.0853 110.302 91.1428 110.356 91.1462 110.422L91.452 117.343C91.4587 117.902 90.5556 117.905 90.5612 117.343Z" fill="#BAD8DF"/>
<path d="M95.0355 113.613L95.3413 106.692C95.3444 106.622 95.4095 106.567 95.4867 106.569C95.5599 106.572 95.6178 106.627 95.6208 106.692L95.9266 113.613C95.9331 114.172 95.03 114.176 95.0355 113.613Z" fill="#BAD8DF"/>
<path d="M8.08584 112.164L8.39163 105.243C8.3947 105.173 8.45983 105.117 8.53697 105.12C8.6102 105.123 8.66778 105.177 8.67114 105.243L8.97664 112.164C8.98335 112.723 8.08025 112.726 8.08584 112.164Z" fill="#BAD8DF"/>
<path d="M52.5216 170.512L52.8271 163.591C52.8302 163.52 52.8953 163.465 52.9725 163.468C53.0457 163.471 53.1033 163.525 53.1066 163.591L53.4124 170.512C53.4191 171.071 52.516 171.074 52.5216 170.512Z" fill="#BAD8DF"/>
<path d="M142.41 97.7287L142.716 90.8077C142.719 90.737 142.784 90.6819 142.861 90.6847C142.934 90.6875 142.992 90.7418 142.995 90.8077L143.301 97.7287C143.308 98.2877 142.405 98.291 142.41 97.7287Z" fill="#BAD8DF"/>
<path d="M147.151 119.956L147.457 113.035C147.46 112.965 147.525 112.909 147.602 112.912C147.675 112.915 147.733 112.969 147.736 113.035L148.042 119.956C148.048 120.515 147.145 120.519 147.151 119.956Z" fill="#BAD8DF"/>
<path d="M71.0578 89.1721L71.3635 82.2511C71.3666 82.1803 71.4318 82.1252 71.5089 82.128C71.5821 82.1309 71.64 82.1852 71.6431 82.2511L71.9489 89.1721C71.955 89.7308 71.0522 89.7342 71.0578 89.1721Z" fill="#BAD8DF"/>
<path d="M47.0144 137.893L47.3199 130.972C47.323 130.901 47.3881 130.846 47.4653 130.849C47.5385 130.851 47.5961 130.906 47.5994 130.972L47.9052 137.893C47.9119 138.452 47.0088 138.455 47.0144 137.893Z" fill="#BAD8DF"/>
<path d="M63.5507 112.77L63.8565 105.849C63.8595 105.778 63.9247 105.723 64.0018 105.726C64.075 105.729 64.1329 105.783 64.136 105.849L64.4415 112.77C64.4482 113.329 63.5451 113.332 63.5507 112.77Z" fill="#BAD8DF"/>
<path d="M110.73 142.919L111.036 135.998C111.039 135.927 111.104 135.872 111.181 135.875C111.254 135.878 111.312 135.932 111.315 135.998L111.621 142.919C111.628 143.478 110.725 143.481 110.73 142.919Z" fill="#BAD8DF"/>
<path d="M157.408 98.6799L157.714 91.7589C157.717 91.6881 157.782 91.633 157.859 91.6358C157.933 91.6387 157.991 91.693 157.994 91.7589L158.299 98.6799C158.306 99.2386 157.403 99.2422 157.408 98.6799Z" fill="#BAD8DF"/>
<path d="M170.686 67.4475L170.992 60.5265C170.995 60.4557 171.06 60.4006 171.137 60.4034C171.21 60.4062 171.268 60.4603 171.271 60.5265L171.577 67.4475C171.583 68.0062 170.68 68.0095 170.686 67.4475Z" fill="#BAD8DF"/>
<path d="M140.088 66.9162L140.394 59.9952C140.397 59.9245 140.462 59.8694 140.539 59.8722C140.612 59.875 140.67 59.9291 140.673 59.9952L140.979 66.9162C140.985 67.475 140.082 67.4785 140.088 66.9162Z" fill="#BAD8DF"/>
<path d="M70.4713 137.893L70.7771 130.972C70.7802 130.901 70.8453 130.846 70.9225 130.849C70.9957 130.852 71.0536 130.906 71.0566 130.972L71.3624 137.893C71.3688 138.452 70.4657 138.455 70.4713 137.893Z" fill="#BAD8DF"/>
<path d="M41.3539 89.1721L41.6597 82.2511C41.6628 82.1803 41.7279 82.1252 41.805 82.128C41.8783 82.1309 41.9361 82.1852 41.9392 82.2511L42.2447 89.1721C42.2511 89.7308 41.3483 89.7342 41.3539 89.1721Z" fill="#BAD8DF"/>
<path d="M87.7349 112.164L88.0407 105.243C88.0437 105.173 88.1089 105.117 88.186 105.12C88.2592 105.123 88.3171 105.177 88.3202 105.243L88.626 112.164C88.6324 112.723 87.7293 112.726 87.7349 112.164Z" fill="#BAD8DF"/>
<path d="M52.5216 134.94L52.8271 128.019C52.8302 127.948 52.8953 127.893 52.9725 127.896C53.0457 127.898 53.1036 127.953 53.1066 128.019L53.4124 134.94C53.4191 135.499 52.516 135.502 52.5216 134.94Z" fill="#BAD8DF"/>
<path d="M139.642 112.49L139.948 105.569C139.951 105.499 140.016 105.444 140.094 105.446C140.167 105.449 140.225 105.504 140.228 105.569L140.534 112.49C140.54 113.049 139.637 113.053 139.642 112.49Z" fill="#BAD8DF"/>
<path d="M37.5258 76.1877L37.8313 69.2667C37.8344 69.1959 37.8995 69.1408 37.9766 69.1437C38.0499 69.1465 38.1077 69.2006 38.1108 69.2667L38.4166 76.1877C38.4233 76.7464 37.5202 76.75 37.5258 76.1877Z" fill="#BAD8DF"/>
<path d="M43.3296 157.938L43.6354 151.017C43.6385 150.946 43.7036 150.891 43.7807 150.894C43.854 150.896 43.9118 150.951 43.9149 151.017L44.2204 157.938C44.2268 158.496 43.324 158.5 43.3296 157.938Z" fill="#BAD8DF"/>
<path d="M183.75 128.206L184.056 121.285C184.059 121.215 184.124 121.159 184.201 121.162C184.274 121.165 184.332 121.219 184.335 121.285L184.641 128.206C184.647 128.765 183.744 128.768 183.75 128.206Z" fill="#BAD8DF"/>
<path d="M153.813 147.83L154.119 140.909C154.122 140.839 154.187 140.783 154.264 140.786C154.337 140.789 154.395 140.843 154.398 140.909L154.704 147.83C154.71 148.389 153.807 148.392 153.813 147.83Z" fill="#BAD8DF"/>
<path d="M148.976 159.324L149.282 152.403C149.285 152.333 149.35 152.278 149.427 152.28C149.501 152.283 149.559 152.338 149.562 152.403L149.867 159.324C149.874 159.883 148.97 159.887 148.976 159.324Z" fill="#BAD8DF"/>
<path d="M118.394 146.222L118.7 139.301C118.703 139.23 118.768 139.175 118.845 139.178C118.918 139.181 118.976 139.235 118.979 139.301L119.285 146.222C119.291 146.781 118.388 146.784 118.394 146.222Z" fill="#BAD8DF"/>
<path d="M141.053 161.104L141.359 154.183C141.362 154.112 141.427 154.057 141.504 154.06C141.577 154.062 141.635 154.117 141.638 154.183L141.944 161.104C141.951 161.662 141.048 161.666 141.053 161.104Z" fill="#BAD8DF"/>
<path d="M142.22 125.224L142.526 118.303C142.529 118.232 142.594 118.177 142.671 118.18C142.744 118.183 142.802 118.237 142.805 118.303L143.111 125.224C143.118 125.783 142.214 125.786 142.22 125.224Z" fill="#BAD8DF"/>
<path d="M197.874 97.7287L198.18 90.8077C198.183 90.737 198.248 90.6819 198.325 90.6847C198.398 90.6875 198.456 90.7418 198.459 90.8077L198.765 97.7287C198.771 98.2877 197.868 98.291 197.874 97.7287Z" fill="#BAD8DF"/>
<path d="M185.287 97.7287L185.593 90.8077C185.596 90.737 185.661 90.6819 185.738 90.6847C185.811 90.6875 185.869 90.7418 185.872 90.8077L186.178 97.7287C186.184 98.2877 185.281 98.291 185.287 97.7287Z" fill="#BAD8DF"/>
<path d="M192.28 76.4592L192.586 69.5382C192.589 69.4674 192.654 69.4123 192.731 69.4151C192.805 69.418 192.863 69.472 192.866 69.5382L193.171 76.4592C193.178 77.0179 192.275 77.0213 192.28 76.4592Z" fill="#BAD8DF"/>
<path d="M182.544 73.6428L182.85 66.7218C182.853 66.651 182.918 66.5959 182.995 66.5987C183.069 66.6016 183.126 66.6559 183.13 66.7218L183.435 73.6428C183.442 74.2015 182.539 74.2049 182.544 73.6428Z" fill="#BAD8DF"/>
<path d="M172.824 132.858L173.13 125.937C173.133 125.866 173.198 125.811 173.276 125.814C173.349 125.816 173.406 125.87 173.41 125.937L173.716 132.858C173.722 133.416 172.819 133.42 172.824 132.858Z" fill="#BAD8DF"/>
<path d="M168.574 129.125L168.879 122.204C168.883 122.133 168.948 122.078 169.025 122.081C169.098 122.084 169.156 122.138 169.159 122.204L169.465 129.125C169.471 129.684 168.568 129.687 168.574 129.125Z" fill="#BAD8DF"/>
<path d="M190.044 104.665L190.349 97.7442C190.352 97.6735 190.418 97.6184 190.495 97.6212C190.568 97.624 190.626 97.6784 190.629 97.7442L190.935 104.665C190.941 105.224 190.038 105.228 190.044 104.665Z" fill="#BAD8DF"/>
<path d="M195.778 145.31L196.083 138.389C196.086 138.318 196.152 138.263 196.229 138.266C196.302 138.269 196.36 138.323 196.363 138.389L196.669 145.31C196.675 145.869 195.772 145.872 195.778 145.31Z" fill="#BAD8DF"/>
<path d="M189.802 141.351L190.108 134.43C190.111 134.359 190.176 134.304 190.253 134.307C190.327 134.31 190.384 134.364 190.388 134.43L190.693 141.351C190.7 141.91 189.797 141.913 189.802 141.351Z" fill="#BAD8DF"/>
<path d="M164.672 143.351L164.978 136.43C164.981 136.359 165.046 136.304 165.123 136.307C165.196 136.309 165.254 136.364 165.257 136.43L165.563 143.351C165.569 143.91 164.666 143.913 164.672 143.351Z" fill="#BAD8DF"/>
<path d="M153.813 105.242L154.119 98.3214C154.122 98.2506 154.187 98.1955 154.264 98.1983C154.337 98.2012 154.395 98.2555 154.398 98.3214L154.704 105.242C154.71 105.801 153.807 105.805 153.813 105.242Z" fill="#BAD8DF"/>
<path d="M187.286 169.082L187.592 162.161C187.595 162.09 187.66 162.035 187.738 162.038C187.811 162.041 187.869 162.095 187.872 162.161L188.177 169.082C188.184 169.641 187.281 169.645 187.286 169.082Z" fill="#BAD8DF"/>
<path d="M127.161 112.49L127.467 105.569C127.47 105.499 127.535 105.444 127.613 105.446C127.686 105.449 127.744 105.504 127.747 105.569L128.052 112.49C128.059 113.049 127.156 113.053 127.161 112.49Z" fill="#BAD8DF"/>
<path d="M198.32 131.524L198.625 124.603C198.628 124.532 198.694 124.477 198.771 124.48C198.844 124.482 198.902 124.536 198.905 124.603L199.211 131.524C199.217 132.082 198.314 132.086 198.32 131.524Z" fill="#BAD8DF"/>
<path d="M186.37 133.732L186.676 126.811C186.679 126.74 186.744 126.685 186.821 126.688C186.895 126.69 186.952 126.745 186.956 126.811L187.261 133.732C187.268 134.29 186.365 134.294 186.37 133.732Z" fill="#BAD8DF"/>
<path d="M199.892 175.161V160.694C197.748 159.693 195.331 159.129 192.772 159.129C188.294 159.129 184.249 160.854 181.35 163.631C180.529 162.586 179.195 161.903 177.684 161.903C175.187 161.903 173.163 163.761 173.163 166.054C173.163 166.399 173.214 166.733 173.301 167.054C173.299 167.054 173.296 167.053 173.296 167.053L173.299 167.055C172.694 166.965 172.073 166.917 171.441 166.917C167.091 166.917 163.294 169.119 161.246 172.395C159.831 170.526 157.477 169.302 154.81 169.302C151.815 169.302 149.214 170.845 147.895 173.112C146.204 171.639 143.939 170.735 141.451 170.735C140.124 170.735 138.816 170.999 137.616 171.496C135.741 166.472 130.681 163.019 124.793 163.019C120.078 163.019 115.918 165.278 113.479 168.699L113.478 168.698L113.479 168.699C113.479 168.7 113.478 168.701 113.477 168.702C112.49 167.904 111.198 167.415 109.78 167.415C107.15 167.415 104.951 169.081 104.348 171.324C102.221 168.612 98.7846 166.88 95.0366 166.88C93.2136 166.88 91.4259 167.287 89.8188 168.05C87.6524 161.647 81.1734 157.066 73.8168 157.066C67.0593 157.066 61.0447 160.852 58.4232 166.514C56.3884 165.288 54.0182 164.63 51.5479 164.63C45.8424 164.63 40.9327 168.16 39.3519 173.118C38.6641 172.949 37.9548 172.862 37.2404 172.862C35.9736 172.862 34.7715 173.127 33.6947 173.602C31.8438 171.272 28.8495 169.758 25.4682 169.758C24.7305 169.758 24.0119 169.831 23.3191 169.968C23.3087 169.947 23.2973 169.926 23.2867 169.905C21.8007 165.483 17.3147 162.27 12.0112 162.27C10.9463 162.27 9.91542 162.402 8.93411 162.645C7.12727 159.811 4.27862 157.606 0.87085 156.472V175.161H199.892Z" fill="#E9F3F5"/>
<path d="M3.54927 164.374L3.30408 164.28C4.71527 161.171 8.8549 160.024 8.89656 160.013L8.97113 160.246C8.93079 160.258 4.9111 161.374 3.54927 164.374Z" fill="#98C6CF"/>
<path d="M19.1686 170.315L18.9348 170.199C20.2441 167.97 23.1665 167.358 23.2902 167.333L23.3472 167.571C23.318 167.577 20.4187 168.186 19.1686 170.315Z" fill="#98C6CF"/>
<path d="M21.3862 171.845C20.3736 170.255 17.8978 169.765 15.9808 170.773L15.8486 170.562C17.8893 169.489 20.5304 170.019 21.6152 171.722L21.3862 171.845Z" fill="#98C6CF"/>
<path d="M41.8254 172.07C40.9491 171.211 39.3272 170.724 39.3108 170.719L39.3923 170.487C39.4615 170.508 41.0953 170.998 42.0193 171.903L41.8254 172.07Z" fill="#98C6CF"/>
<path d="M63.909 168.527C61.4693 165.897 58.384 164.12 58.3529 164.103L58.4928 163.896C58.5241 163.913 61.6434 165.709 64.111 168.369L63.909 168.527Z" fill="#98C6CF"/>
<path d="M59.9588 170.15L59.7566 169.993C60.7376 168.931 62.4195 168.291 64.1502 168.323C65.7784 168.354 67.2162 168.963 68.0948 169.996L67.8859 170.146C67.0564 169.171 65.6927 168.596 64.1446 168.567C64.1048 168.566 64.0645 168.566 64.0249 168.566C62.4163 168.566 60.8671 169.167 59.9588 170.15Z" fill="#98C6CF"/>
<path d="M80.6164 170.683L80.4142 170.525C81.4104 169.447 83.0588 168.819 84.8072 168.856C86.4358 168.886 87.8738 169.496 88.7524 170.529L88.5435 170.679C87.7137 169.704 86.35 169.128 84.8019 169.1C83.1532 169.072 81.5473 169.675 80.6164 170.683Z" fill="#98C6CF"/>
<path d="M111.399 170.956L111.197 170.798C112.178 169.736 113.87 169.104 115.59 169.129C117.218 169.159 118.656 169.769 119.535 170.802L119.326 170.952C118.496 169.977 117.133 169.401 115.585 169.372C113.923 169.344 112.329 169.949 111.399 170.956Z" fill="#98C6CF"/>
<path d="M86.4939 169.297L86.2421 169.22C87.2202 166.528 89.6596 165.467 89.7629 165.424L89.8743 165.645C89.8499 165.655 87.4343 166.708 86.4939 169.297Z" fill="#98C6CF"/>
<path d="M82.1507 169.569H81.8854C81.8854 166.888 79.5107 164.707 76.5917 164.707C74.9674 164.707 73.4559 165.377 72.4444 166.547L72.2366 166.395C73.2988 165.167 74.8859 164.463 76.5917 164.463C79.6569 164.463 82.1507 166.753 82.1507 169.569Z" fill="#98C6CF"/>
<path d="M103.864 171.319C103.843 169.988 104.204 168.824 104.22 168.775L104.475 168.843C104.471 168.855 104.109 170.022 104.129 171.316L103.864 171.319Z" fill="#98C6CF"/>
<path d="M115.233 169.275C114.947 167.381 113.412 166.295 113.396 166.284L113.556 166.09C113.623 166.136 115.195 167.248 115.495 169.242L115.233 169.275Z" fill="#98C6CF"/>
<path d="M134.549 171.389L134.337 171.243C135.421 169.908 137.467 168.914 137.554 168.872L137.677 169.088C137.657 169.098 135.598 170.099 134.549 171.389Z" fill="#98C6CF"/>
<path d="M147.998 170.518L147.799 170.68L148.893 171.809L149.091 171.647L147.998 170.518Z" fill="#98C6CF"/>
<path d="M161.116 169.835L160.394 171.681L160.644 171.763L161.365 169.917L161.116 169.835Z" fill="#98C6CF"/>
<path d="M181.836 168.776C178.299 164.912 173.344 164.663 173.294 164.661L173.306 164.418C173.357 164.42 178.428 164.674 182.039 168.619L181.836 168.776Z" fill="#98C6CF"/>
<path d="M180.37 170.939L180.106 170.912C180.224 169.94 180.93 169.062 182.042 168.504C183.427 167.808 185.116 167.753 186.45 168.359L186.332 168.577C185.075 168.006 183.48 168.06 182.17 168.718C181.134 169.237 180.478 170.047 180.37 170.939Z" fill="#98C6CF"/>
<path d="M179.474 164.172L179.22 164.101C179.763 162.456 181.194 161.09 181.255 161.032L181.445 161.202C181.431 161.216 179.998 162.585 179.474 164.172Z" fill="#98C6CF"/>
<g opacity="0.7">
<path d="M121.094 20.6548C121.948 20.6548 122.742 20.9528 123.401 21.4634C124.209 17.7979 127.092 15.082 130.537 15.082C134.452 15.082 137.645 18.5899 137.883 23.0157C138.225 22.8522 138.601 22.761 138.996 22.761C140.599 22.761 141.898 24.2527 141.898 26.0932C141.898 26.6973 141.756 27.2622 141.511 27.7508H136.923H136.48H124.671H124.15H117.517C117.168 27.0562 116.966 26.2528 116.966 25.3935C116.966 22.7763 118.814 20.6548 121.094 20.6548Z" fill="#E9F3F5"/>
<path d="M125.228 24.9051C124.789 22.4302 123.345 21.6492 123.33 21.6417L123.471 21.2832C123.536 21.317 125.088 22.1441 125.564 24.8269L125.228 24.9051Z" fill="#98C6CF"/>
<path d="M136.032 25.2863L135.72 25.1251C136.397 23.3967 137.771 22.8519 137.829 22.8291L137.938 23.2017C137.925 23.2069 136.645 23.7194 136.032 25.2863Z" fill="#98C6CF"/>
<path d="M123.524 26.4315L123.277 26.1599C124.655 24.5054 126.128 24.3773 127.653 25.779L127.439 26.086C126.057 24.8152 124.777 24.9288 123.524 26.4315Z" fill="#98C6CF"/>
</g>
<g opacity="0.7">
<path d="M159.44 71.6613C159.496 71.2808 159.532 70.8919 159.532 70.4933C159.532 66.6505 156.818 63.5356 153.471 63.5356C151.98 63.5356 150.616 64.1565 149.56 65.1822C149.564 65.0534 149.569 64.9251 149.569 64.7952C149.569 57.8054 144.633 52.1389 138.544 52.1389C134.802 52.1389 131.498 54.2807 129.505 57.5525C127.873 51.0549 122.658 46.3008 116.471 46.3008C109.227 46.3008 103.309 52.8197 102.925 61.0262C101.279 58.3176 98.5469 56.5435 95.4523 56.5435C90.423 56.5435 86.3461 61.2237 86.3461 66.9973C86.3461 67.2528 86.3569 67.5053 86.3727 67.7562C85.4911 66.785 84.2969 66.185 82.9781 66.185C80.3143 66.185 78.1509 68.6237 78.0781 71.6616H159.44V71.6613Z" fill="#E9F3F5"/>
<path d="M87.6275 70.1364C87.2618 68.9221 86.2713 67.9107 86.2612 67.9007L86.4835 67.6104C86.5269 67.654 87.55 68.6979 87.9458 70.0104L87.6275 70.1364Z" fill="#98C6CF"/>
<path d="M102.93 66.3757C102.571 64.1365 102.749 61.1391 102.757 61.0127L103.093 61.0398C103.091 61.0703 102.909 64.1152 103.261 66.3053L102.93 66.3757Z" fill="#98C6CF"/>
<path d="M100.217 68.6446L99.9293 68.4428C100.555 67.2652 101.687 66.4507 103.036 66.2083C104.509 65.9427 105.972 66.4043 107.05 67.4736L106.83 67.7659C105.827 66.7715 104.463 66.3436 103.089 66.5898C101.837 66.8148 100.79 67.5637 100.217 68.6446Z" fill="#98C6CF"/>
<path d="M127.741 63.7075L127.407 63.66C127.784 60.191 129.301 57.5559 129.366 57.4453L129.646 57.6607C129.63 57.6866 128.108 60.3329 127.741 63.7075Z" fill="#98C6CF"/>
<path d="M132.128 65.7663C129.672 63.5897 126.046 63.3392 123.696 65.1833L123.506 64.8639C125.972 62.9294 129.767 63.1853 132.334 65.4605L132.128 65.7663Z" fill="#98C6CF"/>
<path d="M124.546 64.4216C122.703 59.3184 118.421 60.4902 118.239 60.5424L118.157 60.1678C118.204 60.1542 122.902 58.8576 124.857 64.2735L124.546 64.4216Z" fill="#98C6CF"/>
<path d="M148.003 68.8029L147.676 68.7139C148.144 66.4415 149.393 65.0965 149.446 65.04L149.675 65.3238C149.663 65.3366 148.448 66.6499 148.003 68.8029Z" fill="#98C6CF"/>
</g>
<path d="M40.0537 35.6973H39.9943V69.8192H40.0537V35.6973Z" fill="white"/>
<path d="M43.1097 65.6025H37.9148L35.9735 73.1264H39.1696L36.8641 80.2628L45.532 70.1782H40.8916L43.1097 65.6025Z" fill="#FFDD82"/>
<path d="M40.8916 70.1182H39.7388V70.2381H40.8916V70.1182Z" fill="#FFAD0D"/>
<path d="M39.4262 72.1209L39.1195 73.1074L39.2165 73.1471L39.5231 72.1607L39.4262 72.1209Z" fill="#FFAD0D"/>
<path d="M131.2 19.1641H131.125V28.385H131.2V19.1641Z" fill="white"/>
<path d="M134.445 25.2412H128.343L126.063 34.079H129.817L127.109 42.4615L137.291 30.6157H131.84L134.445 25.2412Z" fill="#FFDD82"/>
<path d="M131.84 30.5303H130.486V30.7042H131.84V30.5303Z" fill="#FFAD0D"/>
<path d="M130.11 32.8956L129.749 34.0557L129.891 34.1139L130.252 32.9538L130.11 32.8956Z" fill="#FFAD0D"/>
<path d="M145.842 16.2891H145.742V93.2077H145.842V16.2891Z" fill="white"/>
<path d="M150.326 92.4795H144.566L142.414 100.821H145.958L143.402 108.733L153.012 97.5525H147.867L150.326 92.4795Z" fill="#FFDD82"/>
<path d="M147.867 97.4854H146.589V97.6183H147.867V97.4854Z" fill="#FFAD0D"/>
<path d="M146.244 99.7109L145.904 100.805L146.012 100.849L146.352 99.7549L146.244 99.7109Z" fill="#FFAD0D"/>
<path d="M183.042 32.3049C182.946 32.3049 182.852 32.3109 182.759 32.3223C182.693 30.4961 181.384 29.0386 179.777 29.0386C179.193 29.0386 178.649 29.2317 178.189 29.5643C178.121 26.2171 175.738 23.5273 172.806 23.5273C170.404 23.5273 168.37 25.3331 167.676 27.8265C167.178 27.5412 166.617 27.3796 166.022 27.3796C163.974 27.3796 162.314 29.2854 162.314 31.6363C162.314 31.8661 162.33 32.0914 162.361 32.3113C162.308 32.3077 162.254 32.3053 162.2 32.3053C160.727 32.3053 159.532 33.6766 159.532 35.3682C159.532 37.0598 160.727 38.4311 162.2 38.4311C163.583 38.4311 181.701 38.4311 183.042 38.4311C184.515 38.4311 185.71 37.0598 185.71 35.3682C185.71 33.6762 184.515 32.3049 183.042 32.3049Z" fill="white"/>
<path d="M176.885 32.442H176.723C176.723 31.2342 177.258 30.1341 178.154 29.499L178.24 29.6582C177.392 30.259 176.885 31.2996 176.885 32.442Z" fill="#98C6CF"/>
<path d="M169.752 31.6373H169.59C169.59 30.0806 168.837 28.6774 167.625 27.9755L167.699 27.8086C168.966 28.5426 169.752 30.0096 169.752 31.6373Z" fill="#98C6CF"/>
<path d="M166.639 34.2943L166.488 34.2246C166.858 33.1655 167.566 32.3351 168.481 31.8871C169.396 31.4393 170.407 31.4269 171.33 31.8521C172.26 32.2813 172.987 33.1024 173.375 34.1638L173.225 34.2362C172.854 33.2211 172.159 32.436 171.269 32.0255C169.448 31.1857 167.371 32.2034 166.639 34.2943Z" fill="#98C6CF"/>
<path d="M182.377 34.8646C182.161 34.2748 181.758 33.819 181.241 33.5809C180.782 33.3693 180.271 33.353 179.804 33.5364L179.751 33.3594C180.256 33.1618 180.806 33.1788 181.302 33.4075C181.859 33.6643 182.294 34.1563 182.527 34.7923L182.377 34.8646Z" fill="#98C6CF"/>
<path d="M164.211 33.4462C163.759 32.8368 163.129 32.468 162.437 32.4084L162.449 32.2217C163.185 32.2852 163.855 32.677 164.335 33.325L164.211 33.4462Z" fill="#98C6CF"/>
<path d="M181.056 33.4462L180.932 33.325C181.413 32.6772 182.082 32.2854 182.819 32.2217L182.831 32.4084C182.138 32.4682 181.508 32.8368 181.056 33.4462Z" fill="#98C6CF"/>
<path d="M40.9102 34.384C40.8147 34.384 40.7203 34.39 40.6274 34.4014C40.5618 32.5752 39.2522 31.1177 37.6454 31.1177C37.0615 31.1177 36.5174 31.3108 36.0572 31.6434C35.9896 28.2962 33.6065 25.6064 30.6748 25.6064C28.2725 25.6064 26.2386 27.4122 25.5444 29.9056C25.0463 29.6203 24.4851 29.4587 23.8905 29.4587C21.8428 29.4587 20.1827 31.3645 20.1827 33.7154C20.1827 33.9452 20.199 34.1705 20.2296 34.3904C20.1764 34.3868 20.1227 34.3844 20.0687 34.3844C18.5951 34.3844 17.4006 35.7557 17.4006 37.4473C17.4006 39.1389 18.5951 40.5102 20.0687 40.5102C21.4514 40.5102 39.5697 40.5102 40.9104 40.5102C42.384 40.5102 43.5785 39.1389 43.5785 37.4473C43.5783 35.7553 42.3838 34.384 40.9102 34.384Z" fill="white"/>
<path d="M34.754 34.5211H34.5912C34.5912 33.3133 35.1263 32.2132 36.0227 31.5781L36.1083 31.7373C35.2601 32.3381 34.754 33.3787 34.754 34.5211Z" fill="#98C6CF"/>
<path d="M27.6212 33.7164H27.4584C27.4584 32.1597 26.7058 30.7565 25.4939 30.0546L25.5674 29.8877C26.8344 30.6217 27.6212 32.0887 27.6212 33.7164Z" fill="#98C6CF"/>
<path d="M24.5072 36.3734L24.3562 36.3037C24.727 35.2446 25.4346 34.4142 26.3493 33.9662C27.2641 33.5184 28.2758 33.506 29.1985 33.9312C30.1289 34.3604 30.8552 35.1815 31.2433 36.2429L31.0932 36.3153C30.7222 35.3002 30.0276 34.5151 29.1378 34.1046C27.3166 33.2648 25.2391 34.2825 24.5072 36.3734Z" fill="#98C6CF"/>
<path d="M40.2453 36.9437C40.0296 36.3539 39.6262 35.8981 39.1096 35.66C38.6504 35.4484 38.14 35.4321 37.6721 35.6155L37.6196 35.4385C38.1241 35.2409 38.6747 35.2579 39.1704 35.4866C39.7277 35.7434 40.1626 36.2354 40.3953 36.8714L40.2453 36.9437Z" fill="#98C6CF"/>
<path d="M22.0796 35.5253C21.6278 34.9159 20.9978 34.5471 20.3053 34.4875L20.3174 34.3008C21.0539 34.3643 21.7237 34.7561 22.2037 35.4041L22.0796 35.5253Z" fill="#98C6CF"/>
<path d="M38.925 35.5253L38.8009 35.4041C39.2811 34.7563 39.9509 34.3645 40.6871 34.3008L40.6993 34.4875C40.007 34.5473 39.3769 34.9159 38.925 35.5253Z" fill="#98C6CF"/>
<path d="M97.1398 65.0652C97.0239 65.0652 96.9092 65.0725 96.7964 65.0863C96.7168 62.8687 95.1264 61.0988 93.1752 61.0988C92.4662 61.0988 91.8055 61.3333 91.2467 61.7372C91.1645 57.6725 88.2707 54.4062 84.7105 54.4062C81.7933 54.4062 79.3235 56.5991 78.4805 59.6269C77.8757 59.2804 77.1941 59.0842 76.4721 59.0842C73.9855 59.0842 71.9696 61.3984 71.9696 64.2533C71.9696 64.5324 71.9893 64.8059 72.0265 65.073C71.9619 65.0686 71.8967 65.0657 71.8311 65.0657C70.0417 65.0657 68.5912 66.7309 68.5912 68.7851C68.5912 70.8393 70.0417 72.5045 71.8311 72.5045C73.5102 72.5045 95.512 72.5045 97.1401 72.5045C98.9295 72.5045 100.38 70.8393 100.38 68.7851C100.38 66.7304 98.9292 65.0652 97.1398 65.0652Z" fill="white"/>
<path d="M89.664 65.2329H89.4663C89.4663 63.7663 90.1161 62.4304 91.2046 61.6592L91.3086 61.8525C90.2786 62.5821 89.664 63.8457 89.664 65.2329Z" fill="#98C6CF"/>
<path d="M81.0023 64.2548H80.8046C80.8046 62.3645 79.8906 60.6604 78.4189 59.8082L78.5081 59.6055C80.0467 60.4968 81.0023 62.2782 81.0023 64.2548Z" fill="#98C6CF"/>
<path d="M77.221 67.4819L77.0376 67.3972C77.4879 66.1111 78.3472 65.1028 79.458 64.5587C80.5687 64.015 81.7973 63.9999 82.9178 64.5163C84.0477 65.0374 84.9296 66.0345 85.4008 67.3235L85.2186 67.4113C84.768 66.1786 83.9246 65.2252 82.8441 64.7268C80.6325 63.707 78.1098 64.9428 77.221 67.4819Z" fill="#98C6CF"/>
<path d="M96.3323 68.1726C96.0704 67.4563 95.5806 66.9029 94.9533 66.6137C94.3956 66.3568 93.7758 66.337 93.2077 66.5598L93.1439 66.3448C93.7565 66.1048 94.4251 66.1254 95.0271 66.4032C95.7039 66.715 96.232 67.3125 96.5146 68.0848L96.3323 68.1726Z" fill="#98C6CF"/>
<path d="M74.2731 66.4489C73.7245 65.7089 72.9594 65.261 72.1185 65.1886L72.1333 64.9619C73.0275 65.039 73.841 65.5148 74.4238 66.3017L74.2731 66.4489Z" fill="#98C6CF"/>
<path d="M94.7291 66.4489L94.5784 66.3017C95.1614 65.5151 95.9749 65.0393 96.8689 64.9619L96.8837 65.1886C96.043 65.2613 95.2779 65.7089 94.7291 66.4489Z" fill="#98C6CF"/>
<path d="M93.0163 157.995L93.2411 157.995L93.2411 137.878L93.0163 137.878L93.0163 157.995Z" fill="white"/>
<path d="M97.0032 65.1201L97.5004 61.5143L98.1501 61.5143L98.6091 65.0915L97.0032 65.1201Z" fill="#003940"/>
<path d="M96.835 144.956L98.5532 144.956L98.5532 87.9235L96.835 87.9235L96.835 144.956Z" fill="white"/>
<path d="M98.7682 146.454L98.7682 138.668L96.6206 138.668L96.6206 146.454C96.6206 149.209 98.5723 151.449 100.971 151.449C103.371 151.449 105.323 149.209 105.323 146.454L105.323 144.422C105.323 143.741 104.842 143.189 104.249 143.189C103.656 143.189 103.175 143.741 103.175 144.422L103.175 146.454C103.175 147.85 102.187 148.984 100.972 148.984C99.7573 148.984 98.7682 147.85 98.7682 146.454Z" fill="#003940"/>
<path d="M48.9914 92.6494C48.9914 92.6494 61.9577 65.0778 97.6945 65.0778C133.431 65.0778 146.398 92.6494 146.398 92.6494C140.16 88.6929 135.361 88.7743 132.247 92.6494C124.579 87.744 117.735 88.1142 111.95 92.6494C102.623 86.3873 93.1197 86.3077 83.4394 92.6494C77.8935 88.0388 71.1132 87.4334 63.1422 92.6494C59.4061 89.5092 54.5342 89.3676 48.9914 92.6494Z" fill="#69ABB9"/>
<path d="M97.6946 64.7744C122.938 64.7744 132.402 92.264 132.495 92.5418L132 92.7588C131.909 92.4853 122.568 65.3823 97.6946 65.3823C72.8204 65.3823 63.4806 92.4852 63.389 92.7588L62.8944 92.5418C62.9871 92.2634 72.4508 64.7744 97.6946 64.7744Z" fill="#E9F3F5"/>
<path d="M97.6946 64.7743C102.155 64.7743 105.956 69.4785 108.993 78.7574C111.232 85.6 112.202 92.5332 112.212 92.6024L111.689 92.6973C111.652 92.4243 107.81 65.3815 97.6946 65.3815C87.5796 65.3815 83.7381 92.4237 83.7005 92.6973L83.1773 92.6024C83.1874 92.5331 84.1569 85.5994 86.3961 78.7573C89.4333 69.4785 93.2346 64.7743 97.6946 64.7743Z" fill="#E9F3F5"/>
</g>
<defs>
<clipPath id="clip0_2651_14284">
<path d="M0.87085 14C0.87085 6.26801 7.13886 0 14.8708 0H199.892V174.75H0.87085V14Z" fill="white"/>
</clipPath>
</defs>
</svg>
