<svg width="150" height="144" viewBox="0 0 150 144" fill="none" xmlns="http://www.w3.org/2000/svg">
<path d="M117.543 120.041C117.54 120.043 117.539 120.046 117.536 120.048C106.37 134.853 87.6142 143.649 68.0128 143.649C36.1616 143.649 7.84253 119.29 7.84253 87.4154C7.84253 61.12 22.1935 42.2637 41.955 33.5811C47.3044 31.2309 53.0497 29.625 59.0138 28.822C61.9666 28.4218 64.9741 28.2197 68.0128 28.2197C75.9138 28.2197 83.4944 29.8113 90.4497 32.692C90.4862 32.7077 90.5227 32.722 90.5591 32.7376C111.589 41.4932 126.875 62.0323 127.941 85.9346C128.532 99.1964 124.518 110.791 117.543 120.041Z" fill="url(#paint0_linear_2651_14171)"/>
<path d="M34.9657 90.9011C34.9657 90.9011 37.2118 96.112 34.9657 98.9728C32.7197 101.834 32.5155 107.249 37.0076 110.825C41.4998 114.401 43.4396 114.707 42.4186 118.283C41.3977 121.86 40.3257 126.227 42.0103 128.067C43.6948 129.906 44.384 134.273 48.136 134.58C51.888 134.886 47.8297 131.591 50.2799 128.526C52.7302 125.461 62.2251 124.848 61.3062 118.794C60.3874 112.741 69.1165 112.204 70.3416 108.219C71.5667 104.235 66.3598 101.783 61.9953 102.089C57.6308 102.396 60.3108 95.5756 55.5633 94.5794C50.8159 93.5832 48.5953 89.7518 45.8388 90.2115C43.0822 90.6713 40.0193 86.7632 36.8799 87.9893C33.7406 89.2153 34.9657 90.9011 34.9657 90.9011Z" fill="white" fill-opacity="0.2"/>
<path d="M27.0023 49.2157C27.0023 49.2157 23.7352 51.77 22.8164 55.857C21.8975 59.9439 17.3032 62.4982 16.5886 68.1177C15.8739 73.7373 19.1154 73.8905 17.9668 76.9557C16.8182 80.0208 18.2456 81.5535 21.7434 83.086C25.2411 84.6186 25.5474 86.9754 27.6149 87.7511C29.6823 88.5268 29.1463 90.5959 29.8355 90.8257C30.5247 91.0556 30.2184 89.2675 30.933 86.9176C31.6477 84.5677 32.2602 83.597 29.6569 83.6992C27.0535 83.8014 27.8702 81.7069 28.8912 80.3785C29.9121 79.0503 27.4619 78.8459 26.6451 79.0503C25.8284 79.2546 26.0325 83.0351 24.348 81.247C22.6635 79.459 21.8467 77.4154 23.225 75.0655C24.6032 72.7156 27.5641 74.6568 29.657 71.8471C31.7499 69.0374 34.7107 70.1613 34.8638 72.409C35.017 74.6568 39.2029 74.7079 39.9176 71.7449C40.6322 68.782 40.326 63.6222 44.614 62.7792C48.902 61.9363 57.3312 57.6451 51.9681 55.8826C46.6049 54.1201 48.7489 50.4419 45.9924 50.6717C43.2359 50.9016 44.3078 55.0396 41.2449 53.8135C38.1821 52.5875 35.9615 49.2924 40.2495 48.3729C44.5375 47.4533 46.2986 42.7023 43.006 43.0088C39.7134 43.3153 39.1773 40.0968 37.1865 40.48C35.1957 40.8632 33.1283 45.6908 31.0608 46.9169C28.9931 48.1429 27.0023 49.2157 27.0023 49.2157Z" fill="white" fill-opacity="0.2"/>
<path d="M54.6187 39.7644C54.6187 39.7644 58.8555 38.5894 60.6933 39.7644C62.531 40.9394 65.3898 44.26 62.9904 45.4861C60.5913 46.7121 58.0882 47.1208 59.263 49.4198C60.438 51.7187 55.8947 52.4849 54.6186 49.4198C53.3424 46.3546 53.3424 45.2307 52.0152 43.8003C50.688 42.3698 51.2495 39.3046 54.6187 39.7644Z" fill="white" fill-opacity="0.2"/>
<path d="M117.543 120.04C117.54 120.043 117.539 120.046 117.536 120.048C100.201 115.447 114.655 108.241 108.526 99.9534C105.023 95.2191 111.256 89.5228 107.271 88.7394C104.959 88.2858 99.6373 94.1945 96.5607 88.7394C93.4855 83.2856 88.0164 83.2491 86.4208 86.5561C84.8252 89.8617 78.103 92.1428 73.6915 89.7483C69.2799 87.3538 71.8368 84.1616 68.0191 81.6524C64.2015 79.1431 63.9176 75.1531 68.0191 72.0743C72.1206 68.9955 70.2412 64.5479 76.3941 65.9165C82.5472 67.2839 81.3501 53.0888 81.3501 53.0888C81.2563 50.6069 83.6581 50.1807 82.2893 47.8709C80.9229 45.5624 77.078 47.4434 75.0265 42.3128C72.9764 37.1822 78.2737 34.102 82.5472 34.6039C83.7911 34.7486 86.8102 33.8778 90.5588 32.7373C111.589 41.4929 126.875 62.032 127.941 85.9343C128.532 99.1962 124.518 110.791 117.543 120.04Z" fill="white" fill-opacity="0.2"/>
<path d="M46.7178 84.7231C46.7178 84.7231 50.2554 82.7514 52.1361 84.3198C54.0168 85.8883 54.8229 86.9191 57.5992 86.3365C60.3755 85.754 62.2562 86.8742 60.4651 87.6809C58.6739 88.4875 54.4646 89.9217 52.5391 88.2187C50.6136 86.5156 45.0657 85.4108 46.7178 84.7231Z" fill="white" fill-opacity="0.2"/>
<path d="M60.9577 91.0853C60.9577 91.0853 63.4654 91.5334 64.0475 90.5028C64.6295 89.472 63.4652 90.458 62.5025 89.9203C61.5398 89.3824 59.7039 89.9201 60.9577 91.0853Z" fill="white" fill-opacity="0.2"/>
<path d="M117.061 32.4033C117.019 32.4033 116.977 32.4018 116.934 32.3989L116.46 32.3714C115.377 32.3078 114.525 31.4417 114.477 30.3573L113.605 10.4408C113.56 9.42723 114.244 8.52501 115.23 8.29368L119.046 7.39723C119.724 7.2382 120.414 7.41317 120.934 7.87872C121.454 8.34426 121.705 9.00787 121.624 9.70048L119.153 30.541C119.026 31.6081 118.12 32.4033 117.061 32.4033ZM119.538 7.47117C119.385 7.47117 119.23 7.48849 119.077 7.52464L115.26 8.42108C114.335 8.63797 113.694 9.48521 113.735 10.4351L114.607 30.3517C114.652 31.3681 115.452 32.1807 116.467 32.2415L116.941 32.269C116.982 32.2719 117.021 32.2719 117.061 32.2719C118.054 32.2734 118.905 31.5258 119.023 30.5267L121.494 9.68617C121.571 9.03549 121.336 8.41242 120.848 7.97574C120.477 7.64463 120.017 7.47117 119.538 7.47117Z" fill="#331832"/>
<path d="M116.554 38.9707C116.512 38.9707 116.47 38.9692 116.428 38.9664H116.427L116.2 38.952C115.626 38.9187 115.103 38.6599 114.727 38.2233C114.352 37.7881 114.173 37.2328 114.223 36.6603C114.321 35.5571 115.229 34.7344 116.318 34.7344C116.362 34.7344 116.406 34.7358 116.449 34.7388L116.677 34.7518C117.24 34.7851 117.756 35.0352 118.13 35.4574C118.504 35.8781 118.691 36.4203 118.658 36.9841C118.592 38.1033 117.66 38.9707 116.554 38.9707ZM116.435 38.8363C116.475 38.8392 116.514 38.8392 116.553 38.8392C117.592 38.8392 118.466 38.0266 118.528 36.9755C118.56 36.4478 118.383 35.9388 118.032 35.5441C117.681 35.148 117.197 34.9137 116.67 34.8819L116.442 34.8688C115.356 34.8038 114.449 35.5961 114.353 36.6717C114.306 37.2096 114.474 37.7301 114.826 38.1378C115.178 38.547 115.669 38.7898 116.208 38.8217L116.435 38.8363Z" fill="#331832"/>
<path d="M88.6107 42.932C88.5738 42.932 88.537 42.932 88.4995 42.9292L88.0884 42.9046C87.15 42.8496 86.4111 42.0977 86.3699 41.158L85.6136 23.8917C85.5746 23.0126 86.1677 22.229 87.023 22.0294L90.3315 21.2516C90.9223 21.1143 91.5183 21.266 91.9684 21.6694C92.4191 22.0728 92.6366 22.6482 92.5658 23.2497L90.4239 41.3184C90.3141 42.2423 89.528 42.932 88.6107 42.932ZM90.7568 21.3152C90.6246 21.3152 90.4909 21.3297 90.3573 21.3615L87.0488 22.1394C86.2463 22.3273 85.69 23.0618 85.7261 23.8859L86.4824 41.1522C86.5207 42.0356 87.2141 42.7397 88.0955 42.7918L88.5065 42.8164C88.5411 42.8179 88.5758 42.8193 88.6098 42.8193C89.4716 42.8193 90.2084 42.1717 90.311 41.3041L92.4529 23.2354C92.5201 22.6729 92.3163 22.1322 91.893 21.7534C91.5724 21.467 91.1729 21.3152 90.7568 21.3152Z" fill="#331832"/>
<path d="M88.1712 48.6256C88.1344 48.6256 88.0976 48.6256 88.0607 48.6227L87.8628 48.6112C87.3651 48.5823 86.9121 48.3568 86.5864 47.9793C86.2605 47.6005 86.1053 47.119 86.1493 46.6231C86.2338 45.6674 87.0226 44.9531 87.9683 44.9531C88.0052 44.9531 88.0419 44.9531 88.0795 44.956L88.2775 44.9691C89.2837 45.0283 90.0538 45.8973 89.9945 46.9037C89.9656 47.3923 89.7489 47.8391 89.3833 48.1645C89.0453 48.4637 88.6191 48.6256 88.1712 48.6256ZM87.9675 45.066C87.0812 45.066 86.3415 45.7353 86.2621 46.6318C86.2209 47.0988 86.366 47.5513 86.6717 47.9055C86.9772 48.2597 87.4028 48.4709 87.8701 48.4984L88.068 48.5099C88.1026 48.5114 88.1366 48.5128 88.1714 48.5128C88.591 48.5128 88.992 48.3609 89.3084 48.079C89.6516 47.7754 89.8553 47.3546 89.882 46.8978C89.9375 45.9521 89.2152 45.1381 88.2703 45.0818L88.0724 45.0687C88.0369 45.0675 88.0022 45.066 87.9675 45.066Z" fill="#331832"/>
<path d="M88.5626 43.0417H88.1429C87.2166 43.0417 86.4401 42.3408 86.3449 41.4186L84.5344 23.8837C84.4451 23.0188 84.9834 22.2126 85.8161 21.9642L89.1381 20.9733C90.3402 20.6146 91.5328 21.5603 91.4589 22.8133L90.3672 41.3392C90.3107 42.2952 89.5196 43.0417 88.5626 43.0417Z" fill="#F4BE3A"/>
<path d="M88.4594 48.8641H88.2573C87.2385 48.8641 86.421 48.022 86.4505 47.003C86.4787 46.0246 87.2793 45.2461 88.2573 45.2461H88.4594C89.4577 45.2461 90.2669 46.0561 90.2669 47.0551C90.2669 48.0543 89.4577 48.8641 88.4594 48.8641Z" fill="#F4BE3A"/>
<path d="M75.4976 90.4486C75.4976 90.4486 76.5949 91.6738 75.9871 94.4547C75.3793 97.2355 75.3793 101.059 77.8974 101.146C80.4156 101.233 77.1328 91.1164 79.2789 90.6563C81.4249 90.1961 81.284 86.8945 81.284 86.8945L75.4976 90.4486Z" fill="white" fill-opacity="0.2"/>
<path d="M92.6071 84.86C92.6071 84.86 95.1777 86.8935 94.9823 91.3905C94.7869 95.8875 93.0937 108.73 94.7218 108.989C96.3499 109.248 97.3268 108.988 97.1965 105.012C97.0662 101.036 96.5854 89.5231 97.884 90.3428C99.1828 91.1625 100.728 90.804 100.981 90.0219C101.234 89.2398 96.7939 85.7209 96.7939 85.7209L93.6798 83.9932L92.6071 84.86Z" fill="white" fill-opacity="0.2"/>
<path d="M97.3375 91.009C97.3375 91.009 97.6306 89.871 98.0539 90.6856C98.3011 91.1613 97.5221 94.243 98.5478 94.129C99.1691 94.06 98.6943 90.7073 99.3606 91.0077C99.7155 91.1677 99.0634 89.8818 99.0634 89.8818C99.0634 89.8818 97.9454 89.4038 97.902 89.4255C97.8586 89.4472 97.3376 89.7623 97.3376 89.7623L97.3375 91.009Z" fill="white" fill-opacity="0.2"/>
<path d="M94.11 86.8941C94.11 86.8941 93.2562 85.167 92.0839 85.5254C90.9116 85.8839 91.8234 92.3363 92.0839 94.3241C92.3444 96.3119 89.4138 96.6052 89.4463 95.0084C89.4789 93.4116 90.6142 86.4745 89.7719 85.4765C88.9296 84.4785 87.4303 84.8773 86.636 86.1668C85.8417 87.4563 85.9621 82.0061 85.9621 82.0061L92.6066 81.5498L95.4703 82.8207L94.11 86.8941Z" fill="white" fill-opacity="0.2"/>
<path d="M51.9673 59.6306C51.9673 59.6306 49.9369 62.3006 50.4579 66.1241C50.9789 69.9477 52.0209 77.1603 49.1554 77.7686C46.2899 78.3768 48.4609 67.6013 48.3739 65.1682C48.287 62.735 43.4512 62.2888 41.7338 64.6844C40.0164 67.08 40.1465 61.6705 40.1465 61.6705L46.8545 57.5645L51.9673 59.6306Z" fill="white" fill-opacity="0.2"/>
<path d="M40.2698 69.7405C40.2698 69.7405 39.5464 73.9877 40.2698 77.2463C40.9932 80.5051 39.3782 81.6782 37.9063 80.3096C36.4345 78.9409 38.8249 74.1353 37.4217 74.001C36.0185 73.8668 36.8686 76.5945 36.1739 77.3332C35.4792 78.0719 33.7437 77.7035 34.4807 75.5083C35.2177 73.3133 35.0908 71.3317 33.6691 70.4818C32.0529 69.5157 36.6515 66.6445 36.6515 66.6445L40.2698 69.7405Z" fill="white" fill-opacity="0.2"/>
<path d="M69.9452 109.061C69.9452 109.061 68.0856 112.19 69.0408 115.314C69.996 118.438 68.8671 120.35 66.7831 119.568C64.6991 118.786 67.2031 115.353 66.7831 113.637C66.3631 111.921 65.0956 112.588 64.2041 113.264C63.3126 113.941 65.0485 108.989 65.0485 108.989L69.9452 109.061Z" fill="white" fill-opacity="0.2"/>
<path d="M60.2105 122.556C60.2105 122.556 58.808 124.504 59.1635 126.519C59.6194 129.105 59.4891 130.658 57.5137 130.017C55.9649 129.515 58.5345 124.118 56.6888 124.96C54.8431 125.802 57.2098 121.696 57.2098 121.696L60.2105 122.556Z" fill="white" fill-opacity="0.2"/>
<path d="M65.9922 79.7652C65.9922 79.7652 67.3686 81.4351 66.9467 83.9931C66.4262 87.1491 64.6682 91.9119 67.0278 93.0198C69.3874 94.1278 67.9085 84.9472 68.4757 83.7135C69.0427 82.4796 70.1139 83.958 70.5082 85.2924C70.9026 86.6267 72.1878 82.0054 72.1878 82.0054L68.8691 79.3984L65.9922 79.7652Z" fill="white" fill-opacity="0.2"/>
<path d="M55.3098 50.4717C55.3098 50.4717 56.8193 52.0248 56.3634 53.9801C55.9075 55.9354 54.6463 60.2369 56.4491 60.6279C58.2519 61.0189 57.701 56.6523 57.6301 54.0453C57.5591 51.4383 58.7983 51.1593 58.7983 51.1593L55.3098 50.4717Z" fill="white" fill-opacity="0.2"/>
<path d="M76.7765 84.4175C76.7657 84.4175 76.7548 84.4175 76.744 84.4175C76.385 84.4102 76.0882 84.2744 75.862 84.017C75.0284 83.0686 75.287 80.6337 75.5377 78.2814C75.662 77.1146 75.779 76.0129 75.7377 75.2349C75.7132 74.7766 75.5954 74.3762 75.3875 74.045C75.3492 73.9843 75.368 73.9033 75.4286 73.8658C75.49 73.8253 75.5694 73.8456 75.6084 73.9063C75.8403 74.275 75.971 74.7174 75.9977 75.2206C76.0404 76.0202 75.9219 77.132 75.797 78.309C75.5637 80.4994 75.2993 82.982 76.0577 83.8452C76.2362 84.049 76.4622 84.1502 76.7498 84.1575C76.7592 84.1575 76.7678 84.1575 76.7765 84.1575C77.0278 84.1575 77.2286 84.075 77.3883 83.9044C78.0868 83.1598 77.8904 80.8826 77.7177 78.8729C77.5688 77.1523 77.4287 75.5273 77.8029 74.7797C77.9438 74.4963 78.1078 74.239 78.2898 74.0148C78.3367 73.9584 78.4176 73.9498 78.4733 73.996C78.5289 74.0408 78.5377 74.1232 78.4921 74.1796C78.3223 74.3892 78.1685 74.6293 78.0356 74.8953C77.6946 75.5777 77.8319 77.1682 77.977 78.8511C78.1634 81.0155 78.3563 83.2522 77.5783 84.0821C77.3695 84.3047 77.0993 84.4175 76.7765 84.4175Z" fill="#DAEBE8"/>
<path d="M29.0989 63.5925C29.0881 63.5925 29.0772 63.5925 29.0664 63.5925C28.7073 63.5839 28.4104 63.4493 28.1837 63.192C27.3501 62.2407 27.6094 59.8073 27.8601 57.452C27.9844 56.2881 28.1014 55.1878 28.0601 54.4099C28.0319 53.8938 27.8868 53.4527 27.6289 53.1C27.5863 53.0422 27.5986 52.9612 27.6564 52.9179C27.7135 52.8775 27.7959 52.8875 27.8384 52.9468C28.1273 53.34 28.2899 53.8273 28.3202 54.3955C28.3629 55.1937 28.2444 56.304 28.1187 57.4795C27.8854 59.6714 27.621 62.1554 28.3794 63.0199C28.5585 63.2238 28.7847 63.3249 29.0721 63.3322C29.0816 63.3322 29.0902 63.3322 29.0989 63.3322C29.3502 63.3322 29.551 63.2499 29.7107 63.0792C30.4091 62.3346 30.2127 60.0558 30.0394 58.0476C29.8913 56.3256 29.7512 54.7004 30.1247 53.9529C30.2966 53.6088 30.4996 53.3066 30.7265 53.0565C30.7756 53.003 30.8571 53.0001 30.9107 53.0463C30.9641 53.0955 30.9685 53.1779 30.9201 53.23C30.7084 53.4642 30.5191 53.7461 30.3573 54.0685C30.0171 54.751 30.1544 56.3414 30.2995 58.0243C30.4859 60.1887 30.6788 62.427 29.9008 63.2569C29.692 63.4797 29.4218 63.5925 29.0989 63.5925Z" fill="#DAEBE8"/>
<path d="M114.836 80.3946C114.825 80.3946 114.814 80.3946 114.803 80.3946C114.444 80.386 114.147 80.2515 113.921 79.9941C113.088 79.0442 113.346 76.6094 113.597 74.257C113.721 73.0902 113.838 71.9899 113.797 71.212C113.78 70.9026 113.722 70.6192 113.622 70.3691C113.596 70.3025 113.629 70.2274 113.695 70.1999C113.762 70.1753 113.838 70.2056 113.865 70.2736C113.975 70.5497 114.039 70.8606 114.057 71.1975C114.1 71.997 113.981 73.1075 113.856 74.2843C113.623 76.4747 113.359 78.9573 114.117 79.8219C114.296 80.0257 114.522 80.1269 114.809 80.1342C114.819 80.1342 114.827 80.1342 114.836 80.1342C115.087 80.1342 115.288 80.0517 115.448 79.8811C116.146 79.1366 115.95 76.8579 115.777 74.8495C115.629 73.1289 115.489 71.5039 115.862 70.7563C115.949 70.5813 116.044 70.418 116.143 70.2719C116.183 70.2127 116.265 70.1967 116.324 70.2358C116.383 70.2763 116.399 70.3573 116.358 70.4165C116.266 70.5553 116.177 70.7086 116.095 70.8719C115.755 71.5543 115.891 73.1434 116.036 74.8263C116.223 76.9907 116.416 79.2289 115.638 80.0589C115.429 80.2818 115.159 80.3946 114.836 80.3946Z" fill="#DAEBE8"/>
<path d="M87.366 70.8079C87.0576 70.8079 86.8018 70.7154 86.6017 70.5303C85.8389 69.8262 86.0982 67.9523 86.2708 66.7118C86.2881 66.5817 86.3054 66.4588 86.32 66.3461C86.3676 65.9774 86.2723 65.6115 86.036 65.2573C85.9963 65.1981 86.0122 65.1171 86.0721 65.0766C86.1313 65.0375 86.2122 65.052 86.2527 65.1127C86.525 65.5204 86.6341 65.947 86.5786 66.3807C86.5634 66.4934 86.5469 66.6164 86.5288 66.748C86.3743 67.8613 86.1156 69.7279 86.778 70.3395C86.999 70.5405 87.3082 70.5954 87.7251 70.5043C88.628 70.3019 88.4208 68.846 88.2199 67.4377C88.0746 66.4184 87.9366 65.454 88.2494 64.987C88.2892 64.9262 88.3701 64.9132 88.4301 64.9508C88.49 64.9914 88.5059 65.0723 88.4662 65.1316C88.2091 65.5161 88.3455 66.4747 88.4777 67.4015C88.685 68.856 88.9198 70.5043 87.7814 70.7587C87.634 70.792 87.4953 70.8079 87.366 70.8079Z" fill="#DAEBE8"/>
<path d="M57.1032 120.654C56.8135 120.654 56.573 120.567 56.3865 120.395C55.6562 119.721 55.9083 117.897 56.0752 116.689C56.0933 116.561 56.1098 116.439 56.1244 116.327C56.1728 115.959 56.0804 115.595 55.8506 115.242C55.8268 115.205 55.8376 115.157 55.8737 115.134C55.9098 115.112 55.959 115.119 55.982 115.155C56.2328 115.542 56.3331 115.942 56.2804 116.347C56.266 116.46 56.2487 116.581 56.2306 116.711C56.0681 117.887 55.8233 119.662 56.4929 120.28C56.7227 120.492 57.0419 120.551 57.4667 120.453C58.3985 120.245 58.192 118.792 57.991 117.386C57.8494 116.393 57.7159 115.456 58.0127 115.014C58.0373 114.976 58.0857 114.97 58.1211 114.992C58.1572 115.017 58.1666 115.064 58.1428 115.101C57.8798 115.494 58.0091 116.402 58.1464 117.365C58.3472 118.772 58.5741 120.366 57.5014 120.606C57.3597 120.638 57.2267 120.654 57.1032 120.654Z" fill="#DAEBE8"/>
<path d="M35.0868 65.7738C34.7798 65.7738 34.524 65.6813 34.324 65.4977C33.5604 64.7936 33.8206 62.9183 33.9931 61.6778C34.0112 61.5477 34.0278 61.4248 34.0423 61.3121C34.0827 60.9983 34.0199 60.686 33.8544 60.3824C33.8198 60.3203 33.8429 60.2407 33.9065 60.206C33.9701 60.1699 34.0481 60.1959 34.0827 60.2581C34.2756 60.6094 34.3486 60.9767 34.3009 61.3469C34.2857 61.4596 34.2691 61.5826 34.251 61.7126C34.0965 62.8288 33.8379 64.6939 34.5002 65.3055C34.722 65.5094 35.0304 65.56 35.4473 65.4703C36.3502 65.2694 36.1422 63.8134 35.9421 62.4051C35.7968 61.3843 35.6589 60.4214 35.9717 59.9544C36.0122 59.8936 36.0944 59.8792 36.1523 59.9182C36.2122 59.9588 36.2282 60.0396 36.1884 60.099C35.9313 60.4836 36.0677 61.4421 36.1999 62.3689C36.4073 63.8221 36.642 65.4702 35.5036 65.7248C35.3562 65.7579 35.2169 65.7738 35.0868 65.7738Z" fill="#DAEBE8"/>
<path d="M22.2714 71.8199C21.963 71.8199 21.7073 71.7274 21.5071 71.5422C20.7443 70.8381 21.0036 68.9642 21.1762 67.7238C21.1935 67.5936 21.2108 67.4707 21.2254 67.358C21.2659 67.0442 21.2029 66.7319 21.0376 66.4269C21.003 66.3633 21.0261 66.2852 21.0897 66.2506C21.1525 66.213 21.232 66.239 21.2659 66.3026C21.458 66.6569 21.5318 67.0227 21.484 67.3928C21.4688 67.5055 21.4523 67.6285 21.4342 67.76C21.2797 68.8734 21.0211 70.7399 21.6834 71.3514C21.9052 71.5539 22.2151 71.6074 22.6305 71.5163C23.5334 71.3138 23.3254 69.8579 23.1253 68.451C22.98 67.4302 22.8421 66.4658 23.1549 65.9989C23.1954 65.9397 23.2763 65.9237 23.3355 65.9627C23.3954 66.0033 23.4114 66.0843 23.3716 66.1435C23.1145 66.5281 23.2509 67.4866 23.3831 68.4135C23.5905 69.868 23.8252 71.5163 22.6868 71.7707C22.5394 71.8039 22.4007 71.8199 22.2714 71.8199Z" fill="#DAEBE8"/>
<path d="M119.121 98.9668C119.102 98.9668 119.081 98.9668 119.061 98.9654C118.781 98.9452 118.555 98.831 118.389 98.6285C117.877 97.9967 118.064 96.5941 118.215 95.4665C118.242 95.2582 118.269 95.0602 118.29 94.8766C118.327 94.5441 118.28 94.2404 118.148 93.9743C118.116 93.9093 118.143 93.8312 118.207 93.7994C118.274 93.7705 118.35 93.7936 118.382 93.8586C118.536 94.1695 118.592 94.5222 118.548 94.9054C118.527 95.0904 118.501 95.2915 118.473 95.5011C118.329 96.5783 118.15 97.92 118.592 98.4637C118.712 98.6112 118.871 98.6906 119.08 98.7052C119.211 98.7211 119.31 98.6806 119.394 98.5996C119.776 98.2295 119.729 97.0223 119.686 95.9566C119.656 95.186 119.627 94.4587 119.761 94.067C119.785 93.9991 119.858 93.96 119.927 93.986C119.995 94.0091 120.031 94.0829 120.008 94.1508C119.889 94.4979 119.917 95.2019 119.946 95.9466C119.993 97.122 120.041 98.3366 119.575 98.7877C119.451 98.9075 119.299 98.9668 119.121 98.9668Z" fill="#DAEBE8"/>
<path d="M45.255 107.487C45.2254 107.487 45.1958 107.485 45.1654 107.484C44.7371 107.452 44.3925 107.28 44.1419 106.971C43.3306 105.972 43.6348 103.702 43.879 101.877C43.9245 101.536 43.9678 101.211 44.0018 100.911C44.0748 100.269 43.9613 99.6938 43.6636 99.1979C43.634 99.1473 43.65 99.0822 43.7005 99.0519C43.7511 99.0231 43.8162 99.0375 43.8471 99.0881C44.1686 99.6245 44.2921 100.246 44.2141 100.934C44.1795 101.237 44.1361 101.563 44.0898 101.906C43.8514 103.689 43.5538 105.91 44.3073 106.836C44.5225 107.101 44.8086 107.244 45.1814 107.27C45.4227 107.296 45.6177 107.222 45.7766 107.068C46.4368 106.43 46.3574 104.429 46.2873 102.662C46.2375 101.413 46.1905 100.232 46.4043 99.6086C46.4693 99.4207 46.5467 99.2429 46.6355 99.0823C46.663 99.0288 46.7266 99.01 46.78 99.0389C46.8313 99.0677 46.8509 99.1329 46.8219 99.1835C46.7396 99.3352 46.6666 99.5015 46.6067 99.678C46.4051 100.262 46.4514 101.425 46.5004 102.655C46.5756 104.553 46.6536 106.517 45.9247 107.221C45.7425 107.397 45.5179 107.487 45.255 107.487Z" fill="#DAEBE8"/>
<path d="M84.029 115.057C84.029 115.057 80.9518 123.96 84.029 124.487C87.4614 125.074 86.0892 119.37 84.029 115.057Z" fill="white" fill-opacity="0.2"/>
<path d="M82.9747 96.8994C82.9747 96.8994 80.8906 102.93 82.9747 103.286C85.2994 103.684 84.3701 99.8206 82.9747 96.8994Z" fill="white" fill-opacity="0.2"/>
<path d="M74.1109 49.7148C74.1109 49.7148 71.0337 58.6184 74.1109 59.145C77.5433 59.7322 76.1712 54.028 74.1109 49.7148Z" fill="white" fill-opacity="0.2"/>
<path d="M90.0603 57.9551C90.0603 57.9551 88.3063 63.0301 90.0603 63.3302C92.0168 63.665 91.2346 60.4136 90.0603 57.9551Z" fill="#A6E3F3"/>
<path d="M71.5823 70.584C71.5823 70.584 69.24 77.361 71.5823 77.7618C74.1949 78.2089 73.1504 73.867 71.5823 70.584Z" fill="#A6E3F3"/>
<path d="M77.8193 126.538C77.8193 126.538 74.7421 135.442 77.8193 135.968C81.2518 136.555 79.8796 130.851 77.8193 126.538Z" fill="white" fill-opacity="0.2"/>
<path d="M56.9277 37.9446C56.901 37.9446 56.8735 37.9388 56.8476 37.9258C54.6494 36.8067 53.2386 34.1348 53.3375 31.2778C53.4271 28.6724 54.7433 26.5802 56.8591 25.6823C58.842 24.8394 59.9718 23.7536 60.3135 22.3613C60.8061 20.353 59.6546 17.6796 56.7911 14.1878C55.3529 12.434 54.736 10.5847 54.9592 8.69219C55.371 5.19177 58.4699 2.8018 58.6021 2.70201C58.6786 2.64277 58.7885 2.65858 58.8484 2.73527C58.9076 2.81335 58.8924 2.92317 58.8144 2.98254C58.7833 3.00564 55.7017 5.38557 55.3088 8.73562C55.0986 10.5285 55.6888 12.2881 57.0642 13.9653C60.0021 17.5481 61.1766 20.3212 60.6551 22.4452C60.2853 23.9532 59.089 25.1171 56.9963 26.0064C55.0105 26.8508 53.7745 28.8258 53.6893 31.2896C53.5954 34.0135 54.9289 36.5539 57.0079 37.6109C57.0945 37.6557 57.1285 37.7612 57.0844 37.848C57.0534 37.9098 56.9919 37.9446 56.9277 37.9446Z" fill="#FCFFFF"/>
<path d="M64.9222 37.9446C64.8955 37.9446 64.8681 37.9388 64.8421 37.9258C62.644 36.8067 61.2331 34.1348 61.332 31.2763C61.4216 28.6723 62.7385 26.5802 64.8536 25.6823C66.8365 24.8394 67.9663 23.7536 68.308 22.3613C68.8006 20.353 67.6491 17.6796 64.7856 14.1878C63.3474 12.434 62.7305 10.5847 62.9537 8.69219C63.3655 5.19177 66.4645 2.8018 66.5967 2.70201C66.6732 2.64277 66.7839 2.65858 66.8431 2.73527C66.9023 2.81335 66.8871 2.92317 66.8091 2.98254C66.778 3.00564 63.6964 5.38557 63.3034 8.73562C63.0932 10.5285 63.6834 12.2881 65.0588 13.9653C67.9967 17.5481 69.1713 20.3212 68.6498 22.4452C68.2799 23.9532 67.0836 25.1171 64.991 26.0064C63.0059 26.8508 61.7691 28.8244 61.684 31.2896C61.59 34.012 62.9235 36.5539 65.0025 37.6109C65.0892 37.6557 65.1232 37.7612 65.079 37.848C65.0479 37.9098 64.9864 37.9446 64.9222 37.9446Z" fill="#FCFFFF"/>
<path d="M71.1671 37.9446C71.1404 37.9446 71.1129 37.9388 71.087 37.9258C68.8888 36.8067 67.478 34.1348 67.5769 31.2763C67.6665 28.6723 68.9834 26.5802 71.0985 25.6823C73.0814 24.8394 74.2112 23.7521 74.5529 22.3613C75.0463 20.353 73.894 17.6796 71.0305 14.1878C69.5923 12.434 68.9761 10.5847 69.1986 8.69219C69.6104 5.19177 72.7094 2.8018 72.8416 2.70201C72.9175 2.64277 73.0287 2.65858 73.0879 2.73527C73.1471 2.81335 73.132 2.92317 73.0547 2.98254C73.023 3.00564 69.9412 5.38557 69.5483 8.73562C69.3381 10.5285 69.9283 12.2881 71.3037 13.9653C74.2416 17.5467 75.4169 20.3212 74.8953 22.4452C74.5254 23.9518 73.3285 25.1171 71.2357 26.0064C69.2507 26.8508 68.0139 28.8244 67.9287 31.2896C67.8348 34.012 69.1684 36.5539 71.2472 37.6109C71.3339 37.6557 71.3679 37.7612 71.3238 37.848C71.2928 37.9098 71.2314 37.9446 71.1671 37.9446Z" fill="#FCFFFF"/>
<g opacity="0.6">
<path d="M47.4281 10.299C47.4281 10.299 44.2012 4.12554 36.0362 4.8991C27.8711 5.67266 28.8431 11.8607 24.9549 11.2806C21.0668 10.7005 15.6233 11.2806 14.4569 15.1482C13.2905 19.0158 8.04144 16.8885 7.84697 20.176C7.6525 23.4635 13.8737 25.784 21.0668 22.8834C28.2599 19.9826 31.7593 25.1369 41.8684 24.2035C51.9777 23.27 53.23 22.1098 59.2138 22.6899C65.1973 23.27 65.0554 19.1948 62.3335 16.4872C59.6115 13.7799 48.5945 14.0378 47.4281 10.299Z" fill="#98C6CF"/>
</g>
<g opacity="0.6">
<path d="M137.804 21.7696C137.804 21.7696 135.508 17.3111 129.698 17.8697C123.888 18.4283 124.58 22.8975 121.813 22.4786C119.046 22.0596 115.173 22.4786 114.343 25.2719C113.513 28.0652 109.778 26.5289 109.64 28.9032C109.502 31.2774 113.928 32.9535 119.046 30.8583C124.165 28.7634 126.654 32.4859 133.848 31.8118C141.041 31.1376 141.932 30.2997 146.19 30.7188C150.447 31.1378 150.346 28.1945 148.409 26.2392C146.473 24.2838 138.634 24.4697 137.804 21.7696Z" fill="#98C6CF"/>
</g>
<g opacity="0.6">
<path d="M18.7814 31.7658C18.7814 31.7658 17.2653 28.8477 13.4293 29.2133C9.5932 29.5789 10.05 32.5039 8.22314 32.2296C6.39631 31.9553 3.83909 32.2296 3.29112 34.0578C2.74314 35.8861 0.277133 34.8806 0.185684 36.4345C0.0942346 37.9884 3.01701 39.0852 6.39655 37.7141C9.77586 36.3429 11.42 38.7792 16.1694 38.3379C20.9188 37.8968 21.5072 37.3484 24.3184 37.6225C27.1296 37.8968 27.0628 35.9704 25.784 34.6908C24.5054 33.4112 19.3294 33.5332 18.7814 31.7658Z" fill="#98C6CF"/>
</g>
<g opacity="0.4">
<path d="M103.196 6.0427C103.196 6.0427 99.6489 -0.445752 93.1591 0.620266C86.6693 1.68628 93.0148 4.61144 84.5061 6.0427C75.9973 7.47378 74.1225 10.5199 78.0164 12.9566C81.9102 15.3933 88.2557 8.53999 95.1781 11.8906C102.1 15.241 111.358 12.3788 103.196 6.0427Z" fill="#98C6CF"/>
</g>
<path d="M117.006 32.5296H116.522C115.454 32.5296 114.558 31.7212 114.448 30.6576L112.36 10.4336C112.257 9.43604 112.878 8.5062 113.838 8.21977L117.67 7.07682C119.056 6.66324 120.432 7.75386 120.347 9.19919L119.087 30.5661C119.022 31.6686 118.11 32.5296 117.006 32.5296Z" fill="#F4BE3A"/>
<path d="M116.887 39.2451H116.654C115.479 39.2451 114.536 38.274 114.57 37.0985C114.602 35.9701 115.526 35.0723 116.654 35.0723H116.887C118.038 35.0723 118.972 36.0064 118.972 37.1586C118.972 38.311 118.038 39.2451 116.887 39.2451Z" fill="#F4BE3A"/>
<path d="M98.2045 96.8683C104.446 96.8683 109.505 91.8048 109.505 85.5587C109.505 79.3125 104.446 74.249 98.2045 74.249C91.9631 74.249 86.9034 79.3125 86.9034 85.5587C86.9034 91.8048 91.9631 96.8683 98.2045 96.8683Z" fill="white"/>
<path d="M98.2048 86.8214C94.6044 86.8214 91.6586 83.8733 91.6586 80.2701V13.4272C91.6586 9.82406 94.6044 6.87598 98.2048 6.87598C101.805 6.87598 104.751 9.82406 104.751 13.4272V80.2703C104.751 83.8735 101.805 86.8214 98.2048 86.8214Z" fill="white"/>
<path d="M100.25 27.8584V81.2576C100.25 82.3838 99.3297 83.3044 98.2045 83.3044C97.0793 83.3044 96.1569 82.3836 96.1569 81.2576V28.6849L100.25 27.8584Z" fill="#F4BE3A"/>
<path d="M103.207 90.5698C105.972 87.8027 105.972 83.3164 103.207 80.5493C100.442 77.7822 95.9595 77.7822 93.1945 80.5493C90.4296 83.3164 90.4296 87.8027 93.1945 90.5698C95.9595 93.3369 100.442 93.3369 103.207 90.5698Z" fill="#F4BE3A"/>
<defs>
<linearGradient id="paint0_linear_2651_14171" x1="158.115" y1="28.2197" x2="-22.9264" y2="134.186" gradientUnits="userSpaceOnUse">
<stop stop-color="#1F8297"/>
<stop offset="0.448113" stop-color="#166C7D"/>
<stop offset="1" stop-color="#003940"/>
</linearGradient>
</defs>
</svg>
