<svg width="195" height="171" viewBox="0 0 195 171" fill="none" xmlns="http://www.w3.org/2000/svg">
<path d="M142.543 147.041C142.54 147.043 142.539 147.046 142.536 147.048C131.37 161.853 112.614 170.649 93.0128 170.649C61.1616 170.649 32.8425 146.29 32.8425 114.415C32.8425 88.12 47.1935 69.2637 66.955 60.5811C72.3044 58.2309 78.0497 56.625 84.0138 55.822C86.9666 55.4218 89.9741 55.2197 93.0128 55.2197C100.914 55.2197 108.494 56.8113 115.45 59.692C115.486 59.7077 115.523 59.722 115.559 59.7376C136.589 68.4932 151.875 89.0323 152.941 112.935C153.532 126.196 149.518 137.791 142.543 147.041Z" fill="url(#paint0_linear_2651_14171)"/>
<path d="M59.9657 117.901C59.9657 117.901 62.2118 123.112 59.9657 125.973C57.7197 128.834 57.5155 134.249 62.0076 137.825C66.4998 141.401 68.4396 141.707 67.4186 145.283C66.3977 148.86 65.3257 153.227 67.0103 155.067C68.6948 156.906 69.384 161.273 73.136 161.58C76.888 161.886 72.8297 158.591 75.2799 155.526C77.7302 152.461 87.2251 151.848 86.3062 145.794C85.3874 139.741 94.1165 139.204 95.3416 135.219C96.5667 131.235 91.3598 128.783 86.9953 129.089C82.6308 129.396 85.3108 122.576 80.5633 121.579C75.8159 120.583 73.5953 116.752 70.8388 117.212C68.0822 117.671 65.0193 113.763 61.8799 114.989C58.7406 116.215 59.9657 117.901 59.9657 117.901Z" fill="white" fill-opacity="0.2"/>
<path d="M52.0023 76.2157C52.0023 76.2157 48.7352 78.77 47.8164 82.857C46.8975 86.9439 42.3032 89.4982 41.5886 95.1177C40.8739 100.737 44.1154 100.891 42.9668 103.956C41.8182 107.021 43.2456 108.553 46.7434 110.086C50.2411 111.619 50.5474 113.975 52.6149 114.751C54.6823 115.527 54.1463 117.596 54.8355 117.826C55.5247 118.056 55.2184 116.268 55.933 113.918C56.6477 111.568 57.2602 110.597 54.6569 110.699C52.0535 110.801 52.8702 108.707 53.8912 107.379C54.9121 106.05 52.4619 105.846 51.6451 106.05C50.8284 106.255 51.0325 110.035 49.348 108.247C47.6635 106.459 46.8467 104.415 48.225 102.065C49.6032 99.7156 52.5641 101.657 54.657 98.8471C56.7499 96.0374 59.7107 97.1613 59.8638 99.409C60.017 101.657 64.2029 101.708 64.9176 98.7449C65.6322 95.782 65.326 90.6222 69.614 89.7792C73.902 88.9363 82.3312 84.6451 76.9681 82.8826C71.6049 81.1201 73.7489 77.4419 70.9924 77.6717C68.2359 77.9016 69.3078 82.0396 66.2449 80.8135C63.1821 79.5875 60.9615 76.2924 65.2495 75.3729C69.5375 74.4533 71.2986 69.7023 68.006 70.0088C64.7134 70.3153 64.1773 67.0968 62.1865 67.48C60.1957 67.8632 58.1283 72.6908 56.0608 73.9169C53.9931 75.1429 52.0023 76.2157 52.0023 76.2157Z" fill="white" fill-opacity="0.2"/>
<path d="M79.6187 66.7644C79.6187 66.7644 83.8555 65.5894 85.6933 66.7644C87.531 67.9394 90.3898 71.26 87.9904 72.4861C85.5913 73.7121 83.0882 74.1208 84.263 76.4198C85.438 78.7187 80.8947 79.4849 79.6186 76.4198C78.3424 73.3546 78.3424 72.2307 77.0152 70.8003C75.688 69.3698 76.2495 66.3046 79.6187 66.7644Z" fill="white" fill-opacity="0.2"/>
<path d="M142.543 147.04C142.54 147.043 142.539 147.046 142.536 147.048C125.201 142.447 139.655 135.241 133.526 126.953C130.023 122.219 136.256 116.523 132.271 115.739C129.959 115.286 124.637 121.195 121.561 115.739C118.486 110.286 113.016 110.249 111.421 113.556C109.825 116.862 103.103 119.143 98.6915 116.748C94.2799 114.354 96.8368 111.162 93.0191 108.652C89.2015 106.143 88.9176 102.153 93.0191 99.0743C97.1206 95.9955 95.2412 91.5479 101.394 92.9165C107.547 94.2839 106.35 80.0888 106.35 80.0888C106.256 77.6069 108.658 77.1807 107.289 74.8709C105.923 72.5624 102.078 74.4434 100.027 69.3128C97.9764 64.1822 103.274 61.102 107.547 61.6039C108.791 61.7486 111.81 60.8778 115.559 59.7373C136.589 68.4929 151.875 89.032 152.941 112.934C153.532 126.196 149.518 137.791 142.543 147.04Z" fill="white" fill-opacity="0.2"/>
<path d="M71.7178 111.723C71.7178 111.723 75.2554 109.751 77.1361 111.32C79.0168 112.888 79.8229 113.919 82.5992 113.337C85.3755 112.754 87.2562 113.874 85.4651 114.681C83.6739 115.488 79.4646 116.922 77.5391 115.219C75.6136 113.516 70.0657 112.411 71.7178 111.723Z" fill="white" fill-opacity="0.2"/>
<path d="M85.9577 118.085C85.9577 118.085 88.4654 118.533 89.0475 117.503C89.6295 116.472 88.4652 117.458 87.5025 116.92C86.5398 116.382 84.7039 116.92 85.9577 118.085Z" fill="white" fill-opacity="0.2"/>
<path d="M142.061 59.4033C142.019 59.4033 141.977 59.4018 141.934 59.3989L141.46 59.3714C140.377 59.3078 139.525 58.4417 139.477 57.3573L138.605 37.4408C138.56 36.4272 139.244 35.525 140.23 35.2937L144.046 34.3972C144.724 34.2382 145.414 34.4132 145.934 34.8787C146.454 35.3443 146.705 36.0079 146.624 36.7005L144.153 57.541C144.026 58.6081 143.12 59.4033 142.061 59.4033ZM144.538 34.4712C144.385 34.4712 144.23 34.4885 144.077 34.5246L140.26 35.4211C139.335 35.638 138.694 36.4852 138.735 37.4351L139.607 57.3517C139.652 58.3681 140.452 59.1807 141.467 59.2415L141.941 59.269C141.982 59.2719 142.021 59.2719 142.061 59.2719C143.054 59.2734 143.905 58.5258 144.023 57.5267L146.494 36.6862C146.571 36.0355 146.336 35.4124 145.848 34.9757C145.477 34.6446 145.017 34.4712 144.538 34.4712Z" fill="#331832"/>
<path d="M141.554 65.9707C141.512 65.9707 141.47 65.9692 141.428 65.9664H141.427L141.2 65.952C140.626 65.9187 140.103 65.6599 139.727 65.2233C139.352 64.7881 139.173 64.2328 139.223 63.6603C139.321 62.5571 140.229 61.7344 141.318 61.7344C141.362 61.7344 141.406 61.7358 141.449 61.7388L141.677 61.7518C142.24 61.7851 142.756 62.0352 143.13 62.4574C143.504 62.8781 143.691 63.4203 143.658 63.9841C143.592 65.1033 142.66 65.9707 141.554 65.9707ZM141.435 65.8363C141.475 65.8392 141.514 65.8392 141.553 65.8392C142.592 65.8392 143.466 65.0266 143.528 63.9755C143.56 63.4478 143.383 62.9388 143.032 62.5441C142.681 62.148 142.197 61.9137 141.67 61.8819L141.442 61.8688C140.356 61.8038 139.449 62.5961 139.353 63.6717C139.306 64.2096 139.474 64.7301 139.826 65.1378C140.178 65.547 140.669 65.7898 141.208 65.8217L141.435 65.8363Z" fill="#331832"/>
<path d="M113.611 69.932C113.574 69.932 113.537 69.932 113.499 69.9292L113.088 69.9046C112.15 69.8496 111.411 69.0977 111.37 68.158L110.614 50.8917C110.575 50.0126 111.168 49.229 112.023 49.0294L115.331 48.2516C115.922 48.1143 116.518 48.266 116.968 48.6694C117.419 49.0728 117.637 49.6482 117.566 50.2497L115.424 68.3184C115.314 69.2423 114.528 69.932 113.611 69.932ZM115.757 48.3152C115.625 48.3152 115.491 48.3297 115.357 48.3615L112.049 49.1394C111.246 49.3273 110.69 50.0618 110.726 50.8859L111.482 68.1522C111.521 69.0356 112.214 69.7397 113.095 69.7918L113.506 69.8164C113.541 69.8179 113.576 69.8193 113.61 69.8193C114.472 69.8193 115.208 69.1717 115.311 68.3041L117.453 50.2354C117.52 49.6729 117.316 49.1322 116.893 48.7534C116.572 48.467 116.173 48.3152 115.757 48.3152Z" fill="#331832"/>
<path d="M113.171 75.6256C113.134 75.6256 113.098 75.6256 113.061 75.6227L112.863 75.6112C112.365 75.5823 111.912 75.3568 111.586 74.9793C111.261 74.6005 111.105 74.119 111.149 73.6231C111.234 72.6674 112.023 71.9531 112.968 71.9531C113.005 71.9531 113.042 71.9531 113.08 71.956L113.277 71.9691C114.284 72.0283 115.054 72.8973 114.994 73.9037C114.966 74.3923 114.749 74.8391 114.383 75.1645C114.045 75.4637 113.619 75.6256 113.171 75.6256ZM112.968 72.066C112.081 72.066 111.341 72.7353 111.262 73.6318C111.221 74.0988 111.366 74.5513 111.672 74.9055C111.977 75.2597 112.403 75.4709 112.87 75.4984L113.068 75.5099C113.103 75.5114 113.137 75.5128 113.171 75.5128C113.591 75.5128 113.992 75.3609 114.308 75.079C114.652 74.7754 114.855 74.3546 114.882 73.8978C114.938 72.9521 114.215 72.1381 113.27 72.0818L113.072 72.0687C113.037 72.0675 113.002 72.066 112.968 72.066Z" fill="#331832"/>
<path d="M113.563 70.0417H113.143C112.217 70.0417 111.44 69.3408 111.345 68.4186L109.534 50.8837C109.445 50.0188 109.983 49.2126 110.816 48.9642L114.138 47.9733C115.34 47.6146 116.533 48.5603 116.459 49.8133L115.367 68.3392C115.311 69.2952 114.52 70.0417 113.563 70.0417Z" fill="#F4BE3A"/>
<path d="M113.459 75.8641H113.257C112.239 75.8641 111.421 75.022 111.45 74.003C111.479 73.0246 112.279 72.2461 113.257 72.2461H113.459C114.458 72.2461 115.267 73.0561 115.267 74.0551C115.267 75.0543 114.458 75.8641 113.459 75.8641Z" fill="#F4BE3A"/>
<path d="M100.498 117.449C100.498 117.449 101.595 118.674 100.987 121.455C100.379 124.236 100.379 128.059 102.897 128.146C105.416 128.233 102.133 118.116 104.279 117.656C106.425 117.196 106.284 113.895 106.284 113.895L100.498 117.449Z" fill="white" fill-opacity="0.2"/>
<path d="M117.607 111.86C117.607 111.86 120.178 113.893 119.982 118.391C119.787 122.888 118.094 135.73 119.722 135.989C121.35 136.248 122.327 135.988 122.196 132.012C122.066 128.036 121.585 116.523 122.884 117.343C124.183 118.162 125.728 117.804 125.981 117.022C126.234 116.24 121.794 112.721 121.794 112.721L118.68 110.993L117.607 111.86Z" fill="white" fill-opacity="0.2"/>
<path d="M122.338 118.009C122.338 118.009 122.631 116.871 123.054 117.686C123.301 118.161 122.522 121.243 123.548 121.129C124.169 121.06 123.694 117.707 124.361 118.008C124.716 118.168 124.063 116.882 124.063 116.882C124.063 116.882 122.945 116.404 122.902 116.426C122.859 116.447 122.338 116.762 122.338 116.762L122.338 118.009Z" fill="white" fill-opacity="0.2"/>
<path d="M119.11 113.894C119.11 113.894 118.256 112.167 117.084 112.525C115.912 112.884 116.823 119.336 117.084 121.324C117.344 123.312 114.414 123.605 114.446 122.008C114.479 120.412 115.614 113.474 114.772 112.476C113.93 111.478 112.43 111.877 111.636 113.167C110.842 114.456 110.962 109.006 110.962 109.006L117.607 108.55L120.47 109.821L119.11 113.894Z" fill="white" fill-opacity="0.2"/>
<path d="M76.9673 86.6306C76.9673 86.6306 74.9369 89.3006 75.4579 93.1241C75.9789 96.9477 77.0209 104.16 74.1554 104.769C71.2899 105.377 73.4609 94.6013 73.3739 92.1682C73.287 89.735 68.4512 89.2888 66.7338 91.6844C65.0164 94.08 65.1465 88.6705 65.1465 88.6705L71.8545 84.5645L76.9673 86.6306Z" fill="white" fill-opacity="0.2"/>
<path d="M65.2698 96.7405C65.2698 96.7405 64.5464 100.988 65.2698 104.246C65.9932 107.505 64.3782 108.678 62.9063 107.31C61.4345 105.941 63.8249 101.135 62.4217 101.001C61.0185 100.867 61.8686 103.595 61.1739 104.333C60.4792 105.072 58.7437 104.703 59.4807 102.508C60.2177 100.313 60.0908 98.3317 58.6691 97.4818C57.0529 96.5157 61.6515 93.6445 61.6515 93.6445L65.2698 96.7405Z" fill="white" fill-opacity="0.2"/>
<path d="M94.9452 136.061C94.9452 136.061 93.0856 139.19 94.0408 142.314C94.996 145.438 93.8671 147.35 91.7831 146.568C89.6991 145.786 92.2031 142.353 91.7831 140.637C91.3631 138.921 90.0956 139.588 89.2041 140.264C88.3126 140.941 90.0485 135.989 90.0485 135.989L94.9452 136.061Z" fill="white" fill-opacity="0.2"/>
<path d="M85.2105 149.556C85.2105 149.556 83.808 151.504 84.1635 153.519C84.6194 156.105 84.4891 157.658 82.5137 157.017C80.9649 156.515 83.5345 151.118 81.6888 151.96C79.8431 152.802 82.2098 148.696 82.2098 148.696L85.2105 149.556Z" fill="white" fill-opacity="0.2"/>
<path d="M90.9922 106.765C90.9922 106.765 92.3686 108.435 91.9467 110.993C91.4262 114.149 89.6682 118.912 92.0278 120.02C94.3874 121.128 92.9085 111.947 93.4757 110.713C94.0427 109.48 95.1139 110.958 95.5082 112.292C95.9026 113.627 97.1878 109.005 97.1878 109.005L93.8691 106.398L90.9922 106.765Z" fill="white" fill-opacity="0.2"/>
<path d="M80.3098 77.4717C80.3098 77.4717 81.8193 79.0248 81.3634 80.9801C80.9075 82.9354 79.6463 87.2369 81.4491 87.6279C83.2519 88.0189 82.701 83.6523 82.6301 81.0453C82.5591 78.4383 83.7983 78.1593 83.7983 78.1593L80.3098 77.4717Z" fill="white" fill-opacity="0.2"/>
<path d="M101.776 111.418C101.766 111.418 101.755 111.418 101.744 111.418C101.385 111.41 101.088 111.274 100.862 111.017C100.028 110.069 100.287 107.634 100.538 105.281C100.662 104.115 100.779 103.013 100.738 102.235C100.713 101.777 100.595 101.376 100.387 101.045C100.349 100.984 100.368 100.903 100.429 100.866C100.49 100.825 100.569 100.846 100.608 100.906C100.84 101.275 100.971 101.717 100.998 102.221C101.04 103.02 100.922 104.132 100.797 105.309C100.564 107.499 100.299 109.982 101.058 110.845C101.236 111.049 101.462 111.15 101.75 111.157C101.759 111.157 101.768 111.157 101.776 111.157C102.028 111.157 102.229 111.075 102.388 110.904C103.087 110.16 102.89 107.883 102.718 105.873C102.569 104.152 102.429 102.527 102.803 101.78C102.944 101.496 103.108 101.239 103.29 101.015C103.337 100.958 103.418 100.95 103.473 100.996C103.529 101.041 103.538 101.123 103.492 101.18C103.322 101.389 103.169 101.629 103.036 101.895C102.695 102.578 102.832 104.168 102.977 105.851C103.163 108.016 103.356 110.252 102.578 111.082C102.369 111.305 102.099 111.418 101.776 111.418Z" fill="#DAEBE8"/>
<path d="M54.0989 90.5925C54.0881 90.5925 54.0772 90.5925 54.0664 90.5925C53.7073 90.5839 53.4104 90.4493 53.1837 90.192C52.3501 89.2407 52.6094 86.8073 52.8601 84.452C52.9844 83.2881 53.1014 82.1878 53.0601 81.4099C53.0319 80.8938 52.8868 80.4527 52.6289 80.1C52.5863 80.0422 52.5986 79.9612 52.6564 79.9179C52.7135 79.8775 52.7959 79.8875 52.8384 79.9468C53.1273 80.34 53.2899 80.8273 53.3202 81.3955C53.3629 82.1937 53.2444 83.304 53.1187 84.4795C52.8854 86.6714 52.621 89.1554 53.3794 90.0199C53.5585 90.2238 53.7847 90.3249 54.0721 90.3322C54.0816 90.3322 54.0902 90.3322 54.0989 90.3322C54.3502 90.3322 54.551 90.2499 54.7107 90.0792C55.4091 89.3346 55.2127 87.0558 55.0394 85.0476C54.8913 83.3256 54.7512 81.7004 55.1247 80.9529C55.2966 80.6088 55.4996 80.3066 55.7265 80.0565C55.7756 80.003 55.8571 80.0001 55.9107 80.0463C55.9641 80.0955 55.9685 80.1779 55.9201 80.23C55.7084 80.4642 55.5191 80.7461 55.3573 81.0685C55.0171 81.751 55.1544 83.3414 55.2995 85.0243C55.4859 87.1887 55.6788 89.427 54.9008 90.2569C54.692 90.4797 54.4218 90.5925 54.0989 90.5925Z" fill="#DAEBE8"/>
<path d="M139.836 107.395C139.825 107.395 139.814 107.395 139.803 107.395C139.444 107.386 139.147 107.252 138.921 106.994C138.088 106.044 138.346 103.609 138.597 101.257C138.721 100.09 138.838 98.9899 138.797 98.212C138.78 97.9026 138.722 97.6192 138.622 97.3691C138.596 97.3025 138.629 97.2274 138.695 97.1999C138.762 97.1753 138.838 97.2056 138.865 97.2736C138.975 97.5497 139.039 97.8606 139.057 98.1975C139.1 98.997 138.981 100.107 138.856 101.284C138.623 103.475 138.359 105.957 139.117 106.822C139.296 107.026 139.522 107.127 139.809 107.134C139.819 107.134 139.827 107.134 139.836 107.134C140.087 107.134 140.288 107.052 140.448 106.881C141.146 106.137 140.95 103.858 140.777 101.85C140.629 100.129 140.489 98.5039 140.862 97.7563C140.949 97.5813 141.044 97.418 141.143 97.2719C141.183 97.2127 141.265 97.1967 141.324 97.2358C141.383 97.2763 141.399 97.3573 141.358 97.4165C141.266 97.5553 141.177 97.7086 141.095 97.8719C140.755 98.5543 140.891 100.143 141.036 101.826C141.223 103.991 141.416 106.229 140.638 107.059C140.429 107.282 140.159 107.395 139.836 107.395Z" fill="#DAEBE8"/>
<path d="M112.366 97.8079C112.058 97.8079 111.802 97.7154 111.602 97.5303C110.839 96.8262 111.098 94.9523 111.271 93.7118C111.288 93.5817 111.305 93.4588 111.32 93.3461C111.368 92.9774 111.272 92.6115 111.036 92.2573C110.996 92.1981 111.012 92.1171 111.072 92.0766C111.131 92.0375 111.212 92.052 111.253 92.1127C111.525 92.5204 111.634 92.947 111.579 93.3807C111.563 93.4934 111.547 93.6164 111.529 93.748C111.374 94.8613 111.116 96.7279 111.778 97.3395C111.999 97.5405 112.308 97.5954 112.725 97.5043C113.628 97.3019 113.421 95.846 113.22 94.4377C113.075 93.4184 112.937 92.454 113.249 91.987C113.289 91.9262 113.37 91.9132 113.43 91.9508C113.49 91.9914 113.506 92.0723 113.466 92.1316C113.209 92.5161 113.346 93.4747 113.478 94.4015C113.685 95.856 113.92 97.5043 112.781 97.7587C112.634 97.792 112.495 97.8079 112.366 97.8079Z" fill="#DAEBE8"/>
<path d="M82.1032 147.654C81.8135 147.654 81.573 147.567 81.3865 147.395C80.6562 146.721 80.9083 144.897 81.0752 143.689C81.0933 143.561 81.1098 143.439 81.1244 143.327C81.1728 142.959 81.0804 142.595 80.8506 142.242C80.8268 142.205 80.8376 142.157 80.8737 142.134C80.9098 142.112 80.959 142.119 80.982 142.155C81.2328 142.542 81.3331 142.942 81.2804 143.347C81.266 143.46 81.2487 143.581 81.2306 143.711C81.0681 144.887 80.8233 146.662 81.4929 147.28C81.7227 147.492 82.0419 147.551 82.4667 147.453C83.3985 147.245 83.192 145.792 82.991 144.386C82.8494 143.393 82.7159 142.456 83.0127 142.014C83.0373 141.976 83.0857 141.97 83.1211 141.992C83.1572 142.017 83.1666 142.064 83.1428 142.101C82.8798 142.494 83.0091 143.402 83.1464 144.365C83.3472 145.772 83.5741 147.366 82.5014 147.606C82.3597 147.638 82.2267 147.654 82.1032 147.654Z" fill="#DAEBE8"/>
<path d="M60.0868 92.7738C59.7798 92.7738 59.524 92.6813 59.324 92.4977C58.5604 91.7936 58.8206 89.9183 58.9931 88.6778C59.0112 88.5477 59.0278 88.4248 59.0423 88.3121C59.0827 87.9983 59.0199 87.686 58.8544 87.3824C58.8198 87.3203 58.8429 87.2407 58.9065 87.206C58.9701 87.1699 59.0481 87.1959 59.0827 87.2581C59.2756 87.6094 59.3486 87.9767 59.3009 88.3469C59.2857 88.4596 59.2691 88.5826 59.251 88.7126C59.0965 89.8288 58.8379 91.6939 59.5002 92.3055C59.722 92.5094 60.0304 92.56 60.4473 92.4703C61.3502 92.2694 61.1422 90.8134 60.9421 89.4051C60.7968 88.3843 60.6589 87.4214 60.9717 86.9544C61.0122 86.8936 61.0944 86.8792 61.1523 86.9182C61.2122 86.9588 61.2282 87.0396 61.1884 87.099C60.9313 87.4836 61.0677 88.4421 61.1999 89.3689C61.4073 90.8221 61.642 92.4702 60.5036 92.7248C60.3562 92.7579 60.2169 92.7738 60.0868 92.7738Z" fill="#DAEBE8"/>
<path d="M47.2714 98.8199C46.963 98.8199 46.7073 98.7274 46.5071 98.5422C45.7443 97.8381 46.0036 95.9642 46.1762 94.7238C46.1935 94.5936 46.2108 94.4707 46.2254 94.358C46.2659 94.0442 46.2029 93.7319 46.0376 93.4269C46.003 93.3633 46.0261 93.2852 46.0897 93.2506C46.1525 93.213 46.232 93.239 46.2659 93.3026C46.458 93.6569 46.5318 94.0227 46.484 94.3928C46.4688 94.5055 46.4523 94.6285 46.4342 94.76C46.2797 95.8734 46.0211 97.7399 46.6834 98.3514C46.9052 98.5539 47.2151 98.6074 47.6305 98.5163C48.5334 98.3138 48.3254 96.8579 48.1253 95.451C47.98 94.4302 47.8421 93.4658 48.1549 92.9989C48.1954 92.9397 48.2763 92.9237 48.3355 92.9627C48.3954 93.0033 48.4114 93.0843 48.3716 93.1435C48.1145 93.5281 48.2509 94.4866 48.3831 95.4135C48.5905 96.868 48.8252 98.5163 47.6868 98.7707C47.5394 98.8039 47.4007 98.8199 47.2714 98.8199Z" fill="#DAEBE8"/>
<path d="M144.121 125.967C144.102 125.967 144.081 125.967 144.061 125.965C143.781 125.945 143.555 125.831 143.389 125.629C142.877 124.997 143.064 123.594 143.215 122.466C143.242 122.258 143.269 122.06 143.29 121.877C143.327 121.544 143.28 121.24 143.148 120.974C143.116 120.909 143.143 120.831 143.207 120.799C143.274 120.77 143.35 120.794 143.382 120.859C143.536 121.17 143.592 121.522 143.548 121.905C143.527 122.09 143.501 122.292 143.473 122.501C143.329 123.578 143.15 124.92 143.592 125.464C143.712 125.611 143.871 125.691 144.08 125.705C144.211 125.721 144.31 125.681 144.394 125.6C144.776 125.229 144.729 124.022 144.686 122.957C144.656 122.186 144.627 121.459 144.761 121.067C144.785 120.999 144.858 120.96 144.927 120.986C144.995 121.009 145.031 121.083 145.008 121.151C144.889 121.498 144.917 122.202 144.946 122.947C144.993 124.122 145.041 125.337 144.575 125.788C144.451 125.908 144.299 125.967 144.121 125.967Z" fill="#DAEBE8"/>
<path d="M70.255 134.487C70.2254 134.487 70.1958 134.485 70.1654 134.484C69.7371 134.452 69.3925 134.28 69.1419 133.971C68.3306 132.972 68.6348 130.702 68.879 128.877C68.9245 128.536 68.9678 128.211 69.0018 127.911C69.0748 127.269 68.9613 126.694 68.6636 126.198C68.634 126.147 68.65 126.082 68.7005 126.052C68.7511 126.023 68.8162 126.037 68.8471 126.088C69.1686 126.625 69.2921 127.246 69.2141 127.934C69.1795 128.237 69.1361 128.563 69.0898 128.906C68.8514 130.689 68.5538 132.91 69.3073 133.836C69.5225 134.101 69.8086 134.244 70.1814 134.27C70.4227 134.296 70.6177 134.222 70.7766 134.068C71.4368 133.43 71.3574 131.429 71.2873 129.662C71.2375 128.413 71.1905 127.232 71.4043 126.609C71.4693 126.421 71.5467 126.243 71.6355 126.082C71.663 126.029 71.7266 126.01 71.78 126.039C71.8313 126.068 71.8509 126.133 71.8219 126.183C71.7396 126.335 71.6666 126.502 71.6067 126.678C71.4051 127.262 71.4514 128.425 71.5004 129.655C71.5756 131.553 71.6536 133.517 70.9247 134.221C70.7425 134.397 70.5179 134.487 70.255 134.487Z" fill="#DAEBE8"/>
<path d="M109.029 142.057C109.029 142.057 105.952 150.96 109.029 151.487C112.461 152.074 111.089 146.37 109.029 142.057Z" fill="white" fill-opacity="0.2"/>
<path d="M107.975 123.899C107.975 123.899 105.891 129.93 107.975 130.286C110.299 130.684 109.37 126.821 107.975 123.899Z" fill="white" fill-opacity="0.2"/>
<path d="M99.1109 76.7148C99.1109 76.7148 96.0337 85.6184 99.1109 86.145C102.543 86.7322 101.171 81.028 99.1109 76.7148Z" fill="white" fill-opacity="0.2"/>
<path d="M115.06 84.9551C115.06 84.9551 113.306 90.0301 115.06 90.3302C117.017 90.665 116.235 87.4136 115.06 84.9551Z" fill="#A6E3F3"/>
<path d="M96.5823 97.584C96.5823 97.584 94.24 104.361 96.5823 104.762C99.1949 105.209 98.1504 100.867 96.5823 97.584Z" fill="#A6E3F3"/>
<path d="M102.819 153.538C102.819 153.538 99.7421 162.442 102.819 162.968C106.252 163.555 104.88 157.851 102.819 153.538Z" fill="white" fill-opacity="0.2"/>
<path d="M81.9277 64.9446C81.901 64.9446 81.8735 64.9388 81.8476 64.9258C79.6494 63.8067 78.2386 61.1348 78.3375 58.2778C78.4271 55.6724 79.7433 53.5802 81.8591 52.6823C83.842 51.8394 84.9718 50.7536 85.3135 49.3613C85.8061 47.353 84.6546 44.6796 81.7911 41.1878C80.3529 39.434 79.736 37.5847 79.9592 35.6922C80.371 32.1918 83.4699 29.8018 83.6021 29.702C83.6786 29.6428 83.7885 29.6586 83.8484 29.7353C83.9076 29.8133 83.8924 29.9232 83.8144 29.9825C83.7833 30.0056 80.7017 32.3856 80.3088 35.7356C80.0986 37.5285 80.6888 39.2881 82.0642 40.9653C85.0021 44.5481 86.1766 47.3212 85.6551 49.4452C85.2853 50.9532 84.089 52.1171 81.9963 53.0064C80.0105 53.8508 78.7745 55.8258 78.6893 58.2896C78.5954 61.0135 79.9289 63.5539 82.0079 64.6109C82.0945 64.6557 82.1285 64.7612 82.0844 64.848C82.0534 64.9098 81.9919 64.9446 81.9277 64.9446Z" fill="#FCFFFF"/>
<path d="M89.9222 64.9446C89.8955 64.9446 89.8681 64.9388 89.8421 64.9258C87.644 63.8067 86.2331 61.1348 86.332 58.2763C86.4216 55.6723 87.7385 53.5802 89.8536 52.6823C91.8365 51.8394 92.9663 50.7536 93.308 49.3613C93.8006 47.353 92.6491 44.6796 89.7856 41.1878C88.3474 39.434 87.7305 37.5847 87.9537 35.6922C88.3655 32.1918 91.4645 29.8018 91.5967 29.702C91.6732 29.6428 91.7839 29.6586 91.8431 29.7353C91.9023 29.8133 91.8871 29.9232 91.8091 29.9825C91.778 30.0056 88.6964 32.3856 88.3034 35.7356C88.0932 37.5285 88.6834 39.2881 90.0588 40.9653C92.9967 44.5481 94.1713 47.3212 93.6498 49.4452C93.2799 50.9532 92.0836 52.1171 89.991 53.0064C88.0059 53.8508 86.7691 55.8244 86.684 58.2896C86.59 61.012 87.9235 63.5539 90.0025 64.6109C90.0892 64.6557 90.1232 64.7612 90.079 64.848C90.0479 64.9098 89.9864 64.9446 89.9222 64.9446Z" fill="#FCFFFF"/>
<path d="M96.1671 64.9446C96.1404 64.9446 96.1129 64.9388 96.087 64.9258C93.8888 63.8067 92.478 61.1348 92.5769 58.2763C92.6665 55.6723 93.9834 53.5802 96.0985 52.6823C98.0814 51.8394 99.2112 50.7521 99.5529 49.3613C100.046 47.353 98.894 44.6796 96.0305 41.1878C94.5923 39.434 93.9761 37.5847 94.1986 35.6922C94.6104 32.1918 97.7094 29.8018 97.8416 29.702C97.9175 29.6428 98.0287 29.6586 98.0879 29.7353C98.1471 29.8133 98.132 29.9232 98.0547 29.9825C98.023 30.0056 94.9412 32.3856 94.5483 35.7356C94.3381 37.5285 94.9283 39.2881 96.3037 40.9653C99.2416 44.5467 100.417 47.3212 99.8953 49.4452C99.5254 50.9518 98.3285 52.1171 96.2357 53.0064C94.2507 53.8508 93.0139 55.8244 92.9287 58.2896C92.8348 61.012 94.1684 63.5539 96.2472 64.6109C96.3339 64.6557 96.3679 64.7612 96.3238 64.848C96.2928 64.9098 96.2314 64.9446 96.1671 64.9446Z" fill="#FCFFFF"/>
<g opacity="0.6">
<path d="M72.4281 37.299C72.4281 37.299 69.2012 31.1255 61.0362 31.8991C52.8711 32.6727 53.8431 38.8607 49.9549 38.2806C46.0668 37.7005 40.6233 38.2806 39.4569 42.1482C38.2905 46.0158 33.0414 43.8885 32.847 47.176C32.6525 50.4635 38.8737 52.784 46.0668 49.8834C53.2599 46.9826 56.7593 52.1369 66.8684 51.2035C76.9777 50.27 78.23 49.1098 84.2138 49.6899C90.1973 50.27 90.0554 46.1948 87.3335 43.4872C84.6115 40.7799 73.5945 41.0378 72.4281 37.299Z" fill="#98C6CF"/>
</g>
<g opacity="0.6">
<path d="M162.804 48.7696C162.804 48.7696 160.508 44.3111 154.698 44.8697C148.888 45.4283 149.58 49.8975 146.813 49.4786C144.046 49.0596 140.173 49.4786 139.343 52.2719C138.513 55.0652 134.778 53.5289 134.64 55.9032C134.502 58.2774 138.928 59.9535 144.046 57.8583C149.165 55.7634 151.654 59.4859 158.848 58.8118C166.041 58.1376 166.932 57.2997 171.19 57.7188C175.447 58.1378 175.346 55.1945 173.409 53.2392C171.473 51.2838 163.634 51.4697 162.804 48.7696Z" fill="#98C6CF"/>
</g>
<g opacity="0.6">
<path d="M43.7814 58.7658C43.7814 58.7658 42.2653 55.8477 38.4293 56.2133C34.5932 56.5789 35.05 59.5039 33.2231 59.2296C31.3963 58.9553 28.8391 59.2296 28.2911 61.0578C27.7431 62.8861 25.2771 61.8806 25.1857 63.4345C25.0942 64.9884 28.017 66.0852 31.3966 64.7141C34.7759 63.3429 36.42 65.7792 41.1694 65.3379C45.9188 64.8968 46.5072 64.3484 49.3184 64.6225C52.1296 64.8968 52.0628 62.9704 50.784 61.6908C49.5054 60.4112 44.3294 60.5332 43.7814 58.7658Z" fill="#98C6CF"/>
</g>
<g opacity="0.4">
<path d="M128.196 33.0427C128.196 33.0427 124.649 26.5542 118.159 27.6203C111.669 28.6863 118.015 31.6114 109.506 33.0427C100.997 34.4738 99.1225 37.5199 103.016 39.9566C106.91 42.3933 113.256 35.54 120.178 38.8906C127.1 42.241 136.358 39.3788 128.196 33.0427Z" fill="#98C6CF"/>
</g>
<path d="M142.006 59.5296H141.522C140.454 59.5296 139.558 58.7212 139.448 57.6576L137.36 37.4336C137.257 36.436 137.878 35.5062 138.838 35.2198L142.67 34.0768C144.056 33.6632 145.432 34.7539 145.347 36.1992L144.087 57.5661C144.022 58.6686 143.11 59.5296 142.006 59.5296Z" fill="#F4BE3A"/>
<path d="M141.887 66.2451H141.654C140.479 66.2451 139.536 65.274 139.57 64.0985C139.602 62.9701 140.526 62.0723 141.654 62.0723H141.887C143.038 62.0723 143.972 63.0064 143.972 64.1586C143.972 65.311 143.038 66.2451 141.887 66.2451Z" fill="#F4BE3A"/>
<path d="M123.204 123.868C129.446 123.868 134.505 118.805 134.505 112.559C134.505 106.313 129.446 101.249 123.204 101.249C116.963 101.249 111.903 106.313 111.903 112.559C111.903 118.805 116.963 123.868 123.204 123.868Z" fill="white"/>
<path d="M123.205 113.821C119.604 113.821 116.659 110.873 116.659 107.27V40.4272C116.659 36.8241 119.604 33.876 123.205 33.876C126.805 33.876 129.751 36.8241 129.751 40.4272V107.27C129.751 110.873 126.805 113.821 123.205 113.821Z" fill="white"/>
<path d="M125.25 54.8584V108.258C125.25 109.384 124.33 110.304 123.204 110.304C122.079 110.304 121.157 109.384 121.157 108.258V55.6849L125.25 54.8584Z" fill="#F4BE3A"/>
<path d="M128.207 117.57C130.972 114.803 130.972 110.316 128.207 107.549C125.442 104.782 120.96 104.782 118.195 107.549C115.43 110.316 115.43 114.803 118.195 117.57C120.96 120.337 125.442 120.337 128.207 117.57Z" fill="#F4BE3A"/>
<defs>
<linearGradient id="paint0_linear_2651_14171" x1="183.115" y1="55.2197" x2="2.07357" y2="161.186" gradientUnits="userSpaceOnUse">
<stop stop-color="#1F8297"/>
<stop offset="0.448113" stop-color="#166C7D"/>
<stop offset="1" stop-color="#003940"/>
</linearGradient>
</defs>
</svg>
