<svg width="196" height="143" viewBox="0 0 196 143" fill="none" xmlns="http://www.w3.org/2000/svg">
<g clip-path="url(#clip0_2651_13823)">
<path d="M157.735 55.2127V45.2244H154.513V28.0501H137.234V45.2244H121.079V21.6836L103.252 15.3354V35.406H99.1873V8.67773L81.3606 14.2361V54.3821H58.8153V78.0952H50.3915V84.0688H31.0422V73.7822H19.933V45.8298H6.20971V97.4294H-7.51343V142.329H6.20971H17.9725H19.933H31.0422H37.3217H47.3794H50.3915H58.8153H66.7287H81.3606H85.8417H94.7569H99.1873H103.252H112.584H118.936H121.079H137.234H154.224H154.513H157.735H171.503V55.2127H157.735Z" fill="#69ABB9"/>
<path d="M96.0499 16.2695H84.0244V20.4129H96.0499V16.2695Z" fill="#98C6CF"/>
<path d="M96.0501 24.0518H84.0247V28.1951H96.0501V24.0518Z" fill="#98C6CF"/>
<path d="M96.0499 31.0557H84.0244V35.199H96.0499V31.0557Z" fill="#98C6CF"/>
<path d="M20.1871 64.6621H6.20972V71.0576H20.1871V64.6621Z" fill="#98C6CF"/>
<path d="M20.0533 84.2939H6.20947V90.6894H20.0533V84.2939Z" fill="#98C6CF"/>
<path d="M20.0533 93.9551H6.20947V100.351H20.0533V93.9551Z" fill="#98C6CF"/>
<path d="M19.8279 104.062H5.98413V110.457H19.8279V104.062Z" fill="#98C6CF"/>
<path d="M19.8279 113.96H5.98413V120.355H19.8279V113.96Z" fill="#98C6CF"/>
<path d="M19.8277 124.068H5.98389V130.464H19.8277V124.068Z" fill="#98C6CF"/>
<path d="M118.248 31.0557H105.6V35.199H118.248V31.0557Z" fill="#98C6CF"/>
<path d="M118.248 24.1162H105.6V28.2595H118.248V24.1162Z" fill="#98C6CF"/>
<path d="M118.248 39.1123H83.7185V43.2557H118.248V39.1123Z" fill="#98C6CF"/>
<path d="M118.248 45.3428H83.7185V49.4861H118.248V45.3428Z" fill="#98C6CF"/>
<path d="M118.248 51.5303H83.7185V55.5149H118.248V51.5303Z" fill="#98C6CF"/>
<path d="M20.0535 74.6338H6.20972V81.0294H20.0535V74.6338Z" fill="#98C6CF"/>
<path d="M65.2893 58.2686H62.2673V62.2762H65.2893V58.2686Z" fill="#98C6CF"/>
<path d="M70.9405 58.2686H67.9185V62.2762H70.9405V58.2686Z" fill="#98C6CF"/>
<path d="M76.4653 58.2686H73.4434V62.2762H76.4653V58.2686Z" fill="#98C6CF"/>
<path d="M81.7032 58.2686H78.6812V62.2762H81.7032V58.2686Z" fill="#98C6CF"/>
<path d="M87.0421 58.2686H84.02V62.2762H87.0421V58.2686Z" fill="#98C6CF"/>
<path d="M92.4422 58.2686H89.4202V62.2762H92.4422V58.2686Z" fill="#98C6CF"/>
<path d="M98.0932 58.2686H95.0713V62.2762H98.0932V58.2686Z" fill="#98C6CF"/>
<path d="M103.618 58.2686H100.596V62.2762H103.618V58.2686Z" fill="#98C6CF"/>
<path d="M108.856 58.2686H105.834V62.2762H108.856V58.2686Z" fill="#98C6CF"/>
<path d="M114.195 58.2686H111.173V62.2762H114.195V58.2686Z" fill="#98C6CF"/>
<path d="M119.759 58.2686H116.737V62.2762H119.759V58.2686Z" fill="#98C6CF"/>
<path d="M125.41 58.2686H122.388V62.2762H125.41V58.2686Z" fill="#98C6CF"/>
<path d="M130.935 58.2686H127.913V62.2762H130.935V58.2686Z" fill="#98C6CF"/>
<path d="M136.173 58.2686H133.151V62.2762H136.173V58.2686Z" fill="#98C6CF"/>
<path d="M141.512 58.2686H138.49V62.2762H141.512V58.2686Z" fill="#98C6CF"/>
<path d="M152.563 58.2686H149.541V62.2762H152.563V58.2686Z" fill="#98C6CF"/>
<path d="M158.088 58.2686H155.066V62.2762H158.088V58.2686Z" fill="#98C6CF"/>
<path d="M163.326 58.2686H160.304V62.2762H163.326V58.2686Z" fill="#98C6CF"/>
<path d="M168.665 58.2686H165.643V62.2762H168.665V58.2686Z" fill="#98C6CF"/>
<path d="M65.2893 65.3408H62.2673V69.3485H65.2893V65.3408Z" fill="#98C6CF"/>
<path d="M70.9407 65.3408H67.9187V69.3485H70.9407V65.3408Z" fill="#98C6CF"/>
<path d="M76.4653 65.3408H73.4434V69.3485H76.4653V65.3408Z" fill="#98C6CF"/>
<path d="M81.7032 65.3408H78.6812V69.3485H81.7032V65.3408Z" fill="#98C6CF"/>
<path d="M87.0421 65.3408H84.02V69.3485H87.0421V65.3408Z" fill="#98C6CF"/>
<path d="M92.4422 65.3408H89.4202V69.3485H92.4422V65.3408Z" fill="#98C6CF"/>
<path d="M98.0935 65.3408H95.0715V69.3485H98.0935V65.3408Z" fill="#98C6CF"/>
<path d="M103.618 65.3408H100.596V69.3485H103.618V65.3408Z" fill="#98C6CF"/>
<path d="M108.856 65.3408H105.834V69.3485H108.856V65.3408Z" fill="#98C6CF"/>
<path d="M114.195 65.3408H111.173V69.3485H114.195V65.3408Z" fill="#98C6CF"/>
<path d="M119.759 65.3408H116.737V69.3485H119.759V65.3408Z" fill="#98C6CF"/>
<path d="M125.41 65.3408H122.388V69.3485H125.41V65.3408Z" fill="#98C6CF"/>
<path d="M130.935 65.3408H127.913V69.3485H130.935V65.3408Z" fill="#98C6CF"/>
<path d="M136.173 65.3408H133.151V69.3485H136.173V65.3408Z" fill="#98C6CF"/>
<path d="M141.512 65.3408H138.49V69.3485H141.512V65.3408Z" fill="#98C6CF"/>
<path d="M146.912 65.3408H143.89V69.3485H146.912V65.3408Z" fill="#98C6CF"/>
<path d="M152.563 65.3408H149.541V69.3485H152.563V65.3408Z" fill="#98C6CF"/>
<path d="M158.088 65.3408H155.066V69.3485H158.088V65.3408Z" fill="#98C6CF"/>
<path d="M163.326 65.3408H160.304V69.3485H163.326V65.3408Z" fill="#98C6CF"/>
<path d="M168.665 65.3408H165.643V69.3485H168.665V65.3408Z" fill="#98C6CF"/>
<path d="M65.2893 72.3037H62.2673V76.3113H65.2893V72.3037Z" fill="#98C6CF"/>
<path d="M70.9407 72.3037H67.9187V76.3113H70.9407V72.3037Z" fill="#98C6CF"/>
<path d="M76.4653 72.3037H73.4434V76.3113H76.4653V72.3037Z" fill="#98C6CF"/>
<path d="M81.7032 72.3037H78.6812V76.3113H81.7032V72.3037Z" fill="#98C6CF"/>
<path d="M87.0421 72.3037H84.02V76.3113H87.0421V72.3037Z" fill="#98C6CF"/>
<path d="M92.4422 72.3037H89.4202V76.3113H92.4422V72.3037Z" fill="#98C6CF"/>
<path d="M98.0932 72.3037H95.0713V76.3113H98.0932V72.3037Z" fill="#98C6CF"/>
<path d="M103.618 72.3037H100.596V76.3113H103.618V72.3037Z" fill="#98C6CF"/>
<path d="M108.856 72.3037H105.834V76.3113H108.856V72.3037Z" fill="#98C6CF"/>
<path d="M114.195 72.3037H111.173V76.3113H114.195V72.3037Z" fill="#98C6CF"/>
<path d="M119.759 72.3037H116.737V76.3113H119.759V72.3037Z" fill="#98C6CF"/>
<path d="M125.41 72.3037H122.388V76.3113H125.41V72.3037Z" fill="#98C6CF"/>
<path d="M130.935 72.3037H127.913V76.3113H130.935V72.3037Z" fill="#98C6CF"/>
<path d="M136.173 72.3037H133.151V76.3113H136.173V72.3037Z" fill="#98C6CF"/>
<path d="M141.512 72.3037H138.49V76.3113H141.512V72.3037Z" fill="#98C6CF"/>
<path d="M146.912 72.3037H143.89V76.3113H146.912V72.3037Z" fill="#98C6CF"/>
<path d="M152.563 72.3037H149.541V76.3113H152.563V72.3037Z" fill="#98C6CF"/>
<path d="M158.088 72.3037H155.066V76.3113H158.088V72.3037Z" fill="#98C6CF"/>
<path d="M163.326 72.3037H160.304V76.3113H163.326V72.3037Z" fill="#98C6CF"/>
<path d="M168.665 72.3037H165.643V76.3113H168.665V72.3037Z" fill="#98C6CF"/>
<path d="M65.2893 79.7021H62.2673V83.7099H65.2893V79.7021Z" fill="#98C6CF"/>
<path d="M70.9407 79.7021H67.9187V83.7099H70.9407V79.7021Z" fill="#98C6CF"/>
<path d="M76.4653 79.7021H73.4434V83.7099H76.4653V79.7021Z" fill="#98C6CF"/>
<path d="M81.7032 79.7021H78.6812V83.7099H81.7032V79.7021Z" fill="#98C6CF"/>
<path d="M87.0421 79.7021H84.02V83.7099H87.0421V79.7021Z" fill="#98C6CF"/>
<path d="M92.4422 79.7021H89.4202V83.7099H92.4422V79.7021Z" fill="#98C6CF"/>
<path d="M98.0932 79.7021H95.0713V83.7099H98.0932V79.7021Z" fill="#98C6CF"/>
<path d="M103.618 79.7021H100.596V83.7099H103.618V79.7021Z" fill="#98C6CF"/>
<path d="M108.856 79.7021H105.834V83.7099H108.856V79.7021Z" fill="#98C6CF"/>
<path d="M114.195 79.7021H111.173V83.7099H114.195V79.7021Z" fill="#98C6CF"/>
<path d="M119.759 79.7021H116.737V83.7099H119.759V79.7021Z" fill="#98C6CF"/>
<path d="M125.41 79.7021H122.388V83.7099H125.41V79.7021Z" fill="#98C6CF"/>
<path d="M130.935 79.7021H127.913V83.7099H130.935V79.7021Z" fill="#98C6CF"/>
<path d="M136.173 79.7021H133.151V83.7099H136.173V79.7021Z" fill="#98C6CF"/>
<path d="M141.512 79.7021H138.49V83.7099H141.512V79.7021Z" fill="#98C6CF"/>
<path d="M146.912 79.7021H143.89V83.7099H146.912V79.7021Z" fill="#98C6CF"/>
<path d="M152.563 79.7021H149.541V83.7099H152.563V79.7021Z" fill="#98C6CF"/>
<path d="M158.088 79.7021H155.066V83.7099H158.088V79.7021Z" fill="#98C6CF"/>
<path d="M163.326 79.7021H160.304V83.7099H163.326V79.7021Z" fill="#98C6CF"/>
<path d="M168.665 79.7021H165.643V83.7099H168.665V79.7021Z" fill="#98C6CF"/>
<path d="M65.2893 86.7744H62.2673V90.7819H65.2893V86.7744Z" fill="#98C6CF"/>
<path d="M70.9407 86.7744H67.9187V90.7819H70.9407V86.7744Z" fill="#98C6CF"/>
<path d="M76.4653 86.7744H73.4434V90.7819H76.4653V86.7744Z" fill="#98C6CF"/>
<path d="M81.7032 86.7744H78.6812V90.7819H81.7032V86.7744Z" fill="#98C6CF"/>
<path d="M87.0421 86.7744H84.02V90.7819H87.0421V86.7744Z" fill="#98C6CF"/>
<path d="M92.4422 86.7744H89.4202V90.7819H92.4422V86.7744Z" fill="#98C6CF"/>
<path d="M98.0935 86.7744H95.0715V90.7819H98.0935V86.7744Z" fill="#98C6CF"/>
<path d="M103.618 86.7744H100.596V90.7819H103.618V86.7744Z" fill="#98C6CF"/>
<path d="M108.856 86.7744H105.834V90.7819H108.856V86.7744Z" fill="#98C6CF"/>
<path d="M114.195 86.7744H111.173V90.7819H114.195V86.7744Z" fill="#98C6CF"/>
<path d="M119.759 86.7744H116.737V90.7819H119.759V86.7744Z" fill="#98C6CF"/>
<path d="M125.41 86.7744H122.388V90.7819H125.41V86.7744Z" fill="#98C6CF"/>
<path d="M130.935 86.7744H127.913V90.7819H130.935V86.7744Z" fill="#98C6CF"/>
<path d="M136.173 86.7744H133.151V90.7819H136.173V86.7744Z" fill="#98C6CF"/>
<path d="M141.512 86.7744H138.49V90.7819H141.512V86.7744Z" fill="#98C6CF"/>
<path d="M146.912 86.7744H143.89V90.7819H146.912V86.7744Z" fill="#98C6CF"/>
<path d="M152.563 86.7744H149.541V90.7819H152.563V86.7744Z" fill="#98C6CF"/>
<path d="M163.326 86.7744H160.304V90.7819H163.326V86.7744Z" fill="#98C6CF"/>
<path d="M158.088 86.7744H155.066V90.7819H158.088V86.7744Z" fill="#98C6CF"/>
<path d="M168.665 86.7744H165.643V90.7819H168.665V86.7744Z" fill="#98C6CF"/>
<path d="M65.2893 93.7383H62.2673V97.7458H65.2893V93.7383Z" fill="#98C6CF"/>
<path d="M70.9407 93.7383H67.9187V97.7458H70.9407V93.7383Z" fill="#98C6CF"/>
<path d="M76.4653 93.7383H73.4434V97.7458H76.4653V93.7383Z" fill="#98C6CF"/>
<path d="M81.7032 93.7383H78.6812V97.7458H81.7032V93.7383Z" fill="#98C6CF"/>
<path d="M87.0421 93.7383H84.02V97.7458H87.0421V93.7383Z" fill="#98C6CF"/>
<path d="M92.4422 93.7383H89.4202V97.7458H92.4422V93.7383Z" fill="#98C6CF"/>
<path d="M98.0932 93.7383H95.0713V97.7458H98.0932V93.7383Z" fill="#98C6CF"/>
<path d="M103.618 93.7383H100.596V97.7458H103.618V93.7383Z" fill="#98C6CF"/>
<path d="M108.856 93.7383H105.834V97.7458H108.856V93.7383Z" fill="#98C6CF"/>
<path d="M114.195 93.7383H111.173V97.7458H114.195V93.7383Z" fill="#98C6CF"/>
<path d="M119.759 93.7383H116.737V97.7458H119.759V93.7383Z" fill="#98C6CF"/>
<path d="M125.41 93.7383H122.388V97.7458H125.41V93.7383Z" fill="#98C6CF"/>
<path d="M130.935 93.7383H127.913V97.7458H130.935V93.7383Z" fill="#98C6CF"/>
<path d="M136.173 93.7383H133.151V97.7458H136.173V93.7383Z" fill="#98C6CF"/>
<path d="M141.512 93.7383H138.49V97.7458H141.512V93.7383Z" fill="#98C6CF"/>
<path d="M146.912 93.7383H143.89V97.7458H146.912V93.7383Z" fill="#98C6CF"/>
<path d="M152.563 93.7383H149.541V97.7458H152.563V93.7383Z" fill="#98C6CF"/>
<path d="M163.326 93.7383H160.304V97.7458H163.326V93.7383Z" fill="#98C6CF"/>
<path d="M168.665 93.7383H165.643V97.7458H168.665V93.7383Z" fill="#98C6CF"/>
<path d="M200.721 85.8154H193.998V128.609H200.721V85.8154Z" fill="#98C6CF"/>
<path d="M193.998 111.834H186.781V141.558H193.998V111.834Z" fill="#98C6CF"/>
<path d="M35.9578 73.7648V65.4287H36.322V73.7648H41.3079V84.0514H31.0403V73.7648H35.9578Z" fill="#98C6CF"/>
<path d="M6.20972 52.2376V45.842H9.09859V43.0586H9.46258V45.842H19.9949H20.1871H22.1794V43.0586H22.5434V45.842H25.0991V73.7914H19.9949V61.7488H6.20972V55.3534H19.9949V52.2376H6.20972Z" fill="#98C6CF"/>
<path d="M155.448 92.044V128.118H193.998V85.8154L155.448 92.044Z" fill="#69ABB9"/>
<path d="M203.541 111.723H155.448V142.153H203.541V111.723Z" fill="#69ABB9"/>
<path d="M203.541 93.7129H155.448V103.603H203.541V93.7129Z" fill="#98C6CF"/>
<path d="M161.192 119.972H158.722V123.247H161.192V119.972Z" fill="#98C6CF"/>
<path d="M165.811 119.972H163.341V123.247H165.811V119.972Z" fill="#98C6CF"/>
<path d="M170.327 119.972H167.856V123.247H170.327V119.972Z" fill="#98C6CF"/>
<path d="M174.608 119.972H172.138V123.247H174.608V119.972Z" fill="#98C6CF"/>
<path d="M178.971 119.972H176.501V123.247H178.971V119.972Z" fill="#98C6CF"/>
<path d="M183.385 119.972H180.915V123.247H183.385V119.972Z" fill="#98C6CF"/>
<path d="M188.004 119.972H185.534V123.247H188.004V119.972Z" fill="#98C6CF"/>
<path d="M192.519 119.972H190.049V123.247H192.519V119.972Z" fill="#98C6CF"/>
<path d="M196.801 119.972H194.331V123.247H196.801V119.972Z" fill="#98C6CF"/>
<path d="M161.192 125.751H158.722V129.026H161.192V125.751Z" fill="#98C6CF"/>
<path d="M165.811 125.751H163.341V129.026H165.811V125.751Z" fill="#98C6CF"/>
<path d="M170.327 125.751H167.856V129.026H170.327V125.751Z" fill="#98C6CF"/>
<path d="M174.608 125.751H172.138V129.026H174.608V125.751Z" fill="#98C6CF"/>
<path d="M178.971 125.751H176.501V129.026H178.971V125.751Z" fill="#98C6CF"/>
<path d="M183.385 125.751H180.915V129.026H183.385V125.751Z" fill="#98C6CF"/>
<path d="M188.004 125.751H185.534V129.026H188.004V125.751Z" fill="#98C6CF"/>
<path d="M192.519 125.751H190.049V129.026H192.519V125.751Z" fill="#98C6CF"/>
<path d="M196.801 125.751H194.331V129.026H196.801V125.751Z" fill="#98C6CF"/>
<path d="M161.192 108.324H158.722V111.6H161.192V108.324Z" fill="#98C6CF"/>
<path d="M165.811 108.324H163.341V111.6H165.811V108.324Z" fill="#98C6CF"/>
<path d="M170.327 108.324H167.856V111.6H170.327V108.324Z" fill="#98C6CF"/>
<path d="M174.608 108.324H172.138V111.6H174.608V108.324Z" fill="#98C6CF"/>
<path d="M178.971 108.324H176.501V111.6H178.971V108.324Z" fill="#98C6CF"/>
<path d="M183.385 108.324H180.915V111.6H183.385V108.324Z" fill="#98C6CF"/>
<path d="M188.004 108.324H185.534V111.6H188.004V108.324Z" fill="#98C6CF"/>
<path d="M192.519 108.324H190.049V111.6H192.519V108.324Z" fill="#98C6CF"/>
<path d="M161.192 114.104H158.722V117.379H161.192V114.104Z" fill="#98C6CF"/>
<path d="M165.811 114.104H163.341V117.379H165.811V114.104Z" fill="#98C6CF"/>
<path d="M170.327 114.104H167.856V117.379H170.327V114.104Z" fill="#98C6CF"/>
<path d="M174.608 114.104H172.138V117.379H174.608V114.104Z" fill="#98C6CF"/>
<path d="M178.971 114.104H176.501V117.379H178.971V114.104Z" fill="#98C6CF"/>
<path d="M183.385 114.104H180.915V117.379H183.385V114.104Z" fill="#98C6CF"/>
<path d="M188.004 114.104H185.534V117.379H188.004V114.104Z" fill="#98C6CF"/>
<path d="M192.519 114.104H190.049V117.379H192.519V114.104Z" fill="#98C6CF"/>
<path d="M196.801 114.104H194.331V117.379H196.801V114.104Z" fill="#98C6CF"/>
<path d="M161.192 131.444H158.722V134.72H161.192V131.444Z" fill="#98C6CF"/>
<path d="M165.811 131.444H163.341V134.72H165.811V131.444Z" fill="#98C6CF"/>
<path d="M170.327 131.444H167.856V134.72H170.327V131.444Z" fill="#98C6CF"/>
<path d="M174.608 131.444H172.138V134.72H174.608V131.444Z" fill="#98C6CF"/>
<path d="M178.971 131.444H176.501V134.72H178.971V131.444Z" fill="#98C6CF"/>
<path d="M183.385 131.444H180.915V134.72H183.385V131.444Z" fill="#98C6CF"/>
<path d="M188.004 131.444H185.534V134.72H188.004V131.444Z" fill="#98C6CF"/>
<path d="M192.519 131.444H190.049V134.72H192.519V131.444Z" fill="#98C6CF"/>
<path d="M196.801 131.444H194.331V134.72H196.801V131.444Z" fill="#98C6CF"/>
<path d="M161.192 136.512H158.722V139.787H161.192V136.512Z" fill="#98C6CF"/>
<path d="M165.811 136.512H163.341V139.787H165.811V136.512Z" fill="#98C6CF"/>
<path d="M170.327 136.512H167.856V139.787H170.327V136.512Z" fill="#98C6CF"/>
<path d="M174.608 136.512H172.138V139.787H174.608V136.512Z" fill="#98C6CF"/>
<path d="M178.971 136.512H176.501V139.787H178.971V136.512Z" fill="#98C6CF"/>
<path d="M183.385 136.512H180.915V139.787H183.385V136.512Z" fill="#98C6CF"/>
<path d="M188.004 136.512H185.534V139.787H188.004V136.512Z" fill="#98C6CF"/>
<path d="M192.519 136.512H190.049V139.787H192.519V136.512Z" fill="#98C6CF"/>
<path d="M196.801 136.512H194.331V139.787H196.801V136.512Z" fill="#98C6CF"/>
<path d="M191.413 79.0234H190.7V87.6002H191.413V79.0234Z" fill="#69ABB9"/>
<path d="M161.192 96.4912H159.116V99.8697H161.192V96.4912Z" fill="#69ABB9"/>
<path d="M181.798 96.4912H179.722V99.8697H181.798V96.4912Z" fill="#69ABB9"/>
<path d="M28.8524 142.152H98.064V104.062H28.8524V142.152Z" fill="#98C6CF"/>
<path d="M52.6958 105.801H38.2532V93.9541L52.6958 99.1565V105.801Z" fill="#98C6CF"/>
<path d="M123.877 142.153H156.929V108.327L123.877 119.092V142.153Z" fill="#98C6CF"/>
<path d="M124.75 121.258H156.056V120.213H124.75V121.258Z" fill="#69ABB9"/>
<path d="M124.75 124.615H156.056V123.57H124.75V124.615Z" fill="#69ABB9"/>
<path d="M124.75 127.977H156.056V126.931H124.75V127.977Z" fill="#69ABB9"/>
<path d="M124.75 131.334H156.056V130.289H124.75V131.334Z" fill="#69ABB9"/>
<path d="M124.75 134.696H156.056V133.651H124.75V134.696Z" fill="#69ABB9"/>
<path d="M124.75 138.056H156.056V137.01H124.75V138.056Z" fill="#69ABB9"/>
<path d="M35.476 104.062H38.2534V93.9549H35.476V104.062Z" fill="#98C6CF"/>
<path d="M152.058 44.75H153.973V29.4631H152.058V44.75Z" fill="#98C6CF"/>
<path d="M148.249 44.75H150.164V29.4631H148.249V44.75Z" fill="#98C6CF"/>
<path d="M144.491 44.75H146.406V29.4631H144.491V44.75Z" fill="#98C6CF"/>
<path d="M140.602 44.75H142.518V29.4631H140.602V44.75Z" fill="#98C6CF"/>
<path d="M47.5125 24.0018H46.0972L46.1096 23.9088L46.5367 20.749C46.5511 20.6473 46.6534 20.5703 46.7761 20.5703C46.7915 20.5703 46.8058 20.5711 46.8213 20.5728C46.9007 20.5808 46.9735 20.6097 47.031 20.6529C47.0982 20.7043 47.1431 20.7756 47.1526 20.8566L47.5125 24.0018Z" fill="#BAD8DF"/>
<path d="M46.2338 23.285L46.1833 23.286L46.5367 20.749C46.5512 20.6473 46.6535 20.5703 46.7762 20.5703C46.7916 20.5703 46.8059 20.5711 46.8213 20.5728C46.8346 20.5823 46.8472 20.592 46.8587 20.6025C46.921 20.6586 46.9583 20.7323 46.9593 20.8141L46.98 22.6382C46.9836 22.988 46.6516 23.2758 46.2338 23.285Z" fill="#BAD8DF"/>
<path d="M48.4145 38.0625H45.6853V138.931H48.4145V38.0625Z" fill="#BAD8DF"/>
<path d="M46.9456 38.0625H45.6853V138.931H46.9456V38.0625Z" fill="#BAD8DF"/>
<path d="M51.3956 122.834H42.7031V149.691H51.3956V122.834Z" fill="#BAD8DF"/>
<path d="M47.8841 122.834H42.7031V149.691H47.8841V122.834Z" fill="#BAD8DF"/>
<path d="M51.7997 25.5233C51.7997 26.7697 49.5636 27.7797 46.8047 27.7797C46.5939 27.7797 46.387 27.7741 46.1832 27.7621C43.7183 27.6243 41.8096 26.6743 41.8096 25.5233C41.8096 24.3722 43.7183 23.4231 46.1832 23.2852C46.3872 23.2732 46.5939 23.2676 46.8047 23.2676C49.5636 23.2677 51.7997 24.2777 51.7997 25.5233Z" fill="#BAD8DF"/>
<path d="M51.3854 40.0518H42.6934L39.6289 27.7002H53.9809L51.3854 40.0518Z" fill="#BAD8DF"/>
<path d="M54.7559 26.7705H38.8533V27.9553H54.7559V26.7705Z" fill="#BAD8DF"/>
<path d="M44.1274 122.833H49.6817L48.8688 120.77C48.7967 120.587 48.5925 120.463 48.3624 120.463H45.7603C45.4781 120.463 45.2236 120.606 45.1162 120.824L44.1274 122.833Z" fill="#BAD8DF"/>
<path d="M49.2458 25.4169H49.2088C49.1227 24.4592 47.9012 23.6448 46.1832 23.2871C43.7959 23.4206 41.9307 24.315 41.8153 25.4169H41.0051L39.8694 26.7708H38.8533V27.9556H48.8501V26.7708H50.3238L49.2458 25.4169Z" fill="#BAD8DF"/>
<path d="M40.6558 28.3018H52.9136L50.5196 39.4036H43.4808L40.6558 28.3018Z" fill="#F3F5F5"/>
<path d="M42.1401 25.6564C42.1401 25.6564 43.0739 23.9491 44.9174 24.0012C44.9174 24.0012 43.7443 24.8749 43.852 25.6564C43.9596 26.438 42.1401 25.6564 42.1401 25.6564Z" fill="#F3F5F5"/>
<path d="M53.7398 26.7698H39.8694L41.0053 25.416H52.6615L53.7398 26.7698Z" fill="#BAD8DF"/>
<path d="M41.4697 28.6895H44.2789L45.0969 39.0564H44.2789L41.4697 28.6895Z" fill="#E7EAEA"/>
<path d="M196.191 41.4679H195.066L195.076 41.3938L195.415 38.8805C195.427 38.7995 195.508 38.7383 195.606 38.7383C195.618 38.7383 195.629 38.7389 195.642 38.7402C195.705 38.7466 195.763 38.7695 195.808 38.804C195.862 38.8449 195.898 38.9015 195.905 38.966L196.191 41.4679Z" fill="#BAD8DF"/>
<path d="M195.174 40.8974L195.134 40.8983L195.415 38.8805C195.427 38.7995 195.508 38.7383 195.606 38.7383C195.618 38.7383 195.629 38.7389 195.642 38.7402C195.652 38.748 195.662 38.7554 195.671 38.7638C195.721 38.8086 195.75 38.8671 195.751 38.932L195.768 40.3828C195.771 40.661 195.507 40.8901 195.174 40.8974Z" fill="#BAD8DF"/>
<path d="M196.909 52.6514H194.738V132.881H196.909V52.6514Z" fill="#BAD8DF"/>
<path d="M195.74 52.6514H194.738V132.881H195.74V52.6514Z" fill="#BAD8DF"/>
<path d="M199.28 120.079H192.366V141.307H199.28V120.079Z" fill="#BAD8DF"/>
<path d="M196.487 120.079H192.366V141.307H196.487V120.079Z" fill="#BAD8DF"/>
<path d="M199.602 42.6789C199.602 43.6703 197.823 44.4738 195.629 44.4738C195.461 44.4738 195.297 44.4693 195.134 44.4596C193.174 44.3501 191.656 43.5944 191.656 42.6789C191.656 41.7634 193.174 41.0085 195.134 40.8988C195.297 40.8895 195.461 40.8848 195.629 40.8848C197.823 40.8848 199.602 41.6881 199.602 42.6789Z" fill="#BAD8DF"/>
<path d="M199.272 54.2345H192.359L189.921 44.4102H201.337L199.272 54.2345Z" fill="#BAD8DF"/>
<path d="M201.953 43.6689H189.304V44.6113H201.953V43.6689Z" fill="#BAD8DF"/>
<path d="M193.499 120.079H197.917L197.27 118.437C197.213 118.292 197.051 118.193 196.867 118.193H194.798C194.573 118.193 194.371 118.307 194.285 118.481L193.499 120.079Z" fill="#BAD8DF"/>
<path d="M197.57 42.5924H197.541C197.472 41.8306 196.501 41.1829 195.134 40.8984C193.235 41.0047 191.752 41.7161 191.66 42.5924H191.016L190.112 43.6693H189.304V44.6116H197.255V43.6693H198.428L197.57 42.5924Z" fill="#BAD8DF"/>
<path d="M190.738 44.8877H200.488L198.583 53.7182H192.985L190.738 44.8877Z" fill="#F3F5F5"/>
<path d="M191.918 42.7831C191.918 42.7831 192.661 41.4253 194.127 41.4667C194.127 41.4667 193.194 42.1616 193.28 42.7831C193.365 43.4048 191.918 42.7831 191.918 42.7831Z" fill="#F3F5F5"/>
<path d="M201.145 43.6687H190.112L191.016 42.5918H200.287L201.145 43.6687Z" fill="#BAD8DF"/>
<path d="M191.385 45.1982H193.62L194.27 53.4441H193.62L191.385 45.1982Z" fill="#E7EAEA"/>
<path d="M177.428 110.154C177.655 109.444 177.78 108.675 177.78 107.871C177.78 104.284 175.306 101.376 172.254 101.376C171.806 101.376 171.372 101.44 170.955 101.558C170.458 91.8485 165.395 84.2168 159.221 84.2168C153.341 84.2168 148.469 91.1398 147.589 100.187C143.215 102.682 140.216 107.789 140.216 113.684C140.216 116.494 140.899 119.125 142.086 121.38C138.026 123.48 135.441 126.648 135.441 130.191C135.441 136.515 143.674 141.641 153.829 141.641C161.431 141.641 167.955 138.768 170.756 134.671C171.534 134.826 172.339 134.908 173.162 134.908C180.073 134.908 185.676 129.196 185.676 122.151C185.676 116.632 182.239 111.933 177.428 110.154Z" fill="#4C9BAC"/>
<path d="M177.428 110.155C177.428 110.155 165.253 106.175 155.972 113.188C146.691 120.201 140.236 109.14 143.333 104.001C141.388 106.624 140.217 110 140.217 113.684C140.217 116.495 140.899 119.126 142.086 121.38C138.027 123.481 135.441 126.648 135.441 130.191C135.441 136.515 143.674 141.641 153.829 141.641C159.531 141.641 165.299 142.236 169.009 140.805C172.079 139.62 175.488 139.196 178.813 139.698C180.721 139.986 182.363 140.217 182.691 140.217C189.602 140.217 185.676 129.197 185.676 122.151C185.676 116.633 182.239 111.933 177.428 110.155Z" fill="#98C6CF"/>
<path d="M218.281 108.356C217.402 99.6826 212.529 93.0459 206.649 93.0459C200.475 93.0459 195.412 100.362 194.916 109.67C194.499 109.557 194.065 109.496 193.617 109.496C190.565 109.496 188.091 112.283 188.091 115.722C188.091 116.493 188.216 117.23 188.443 117.911C183.632 119.616 180.195 124.121 180.195 129.411C180.195 136.165 185.797 141.64 192.709 141.64C198.252 141.64 202.953 138.118 204.597 133.238C206.762 134.848 209.386 135.791 212.214 135.791C219.637 135.791 225.654 129.3 225.654 121.294C225.654 115.643 222.656 110.747 218.281 108.356Z" fill="#4C9BAC"/>
<path d="M215.552 114.958C203 113.538 201.136 125.008 201.136 125.008C186.268 119.328 180.21 130.034 180.21 130.034C180.542 136.499 186.011 141.641 192.709 141.641C196.074 141.641 199.129 140.342 201.378 138.23C203.617 136.127 206.972 135.126 210.275 135.641C210.908 135.74 211.555 135.791 212.214 135.791C216.674 135.791 220.626 133.447 223.071 129.84C223.155 129.613 227.995 116.366 215.552 114.958Z" fill="#98C6CF"/>
<path d="M185.104 128.301C175.966 132.391 159.409 141.775 140.088 134.64C120.767 127.506 97.5448 132.769 68.8053 140.481C40.0658 148.193 4.08855 134.312 -18.3786 134.279C-40.8458 134.247 -54.6785 142.895 -54.6785 142.895L227.969 142.364C215.705 124.117 199.158 122.012 185.104 128.301Z" fill="url(#paint0_linear_2651_13823)"/>
<path d="M181.234 126.39H179.514C177.209 126.39 175.341 129.391 175.341 133.094C175.341 136.797 177.209 139.799 179.514 139.799H181.234C183.539 139.799 185.408 136.797 185.408 133.094C185.408 129.391 183.539 126.39 181.234 126.39Z" fill="#003940"/>
<path d="M176.366 135.612H153.261C150.86 135.612 148.877 133.785 148.744 131.451L144.587 64.4395H185.041L180.883 131.451C180.751 133.785 178.768 135.612 176.366 135.612Z" fill="#E62225"/>
<path d="M182.957 135.612H159.852C157.45 135.612 155.335 135.261 155.335 131.451L151.177 64.4395H191.631L187.473 131.451C187.474 135.612 185.359 135.612 182.957 135.612Z" fill="#F64C4C"/>
<path d="M183.367 59.4033H145.308C143.838 59.4033 142.646 60.5638 142.646 61.9953V64.4269H186.03V61.9953C186.03 60.5638 184.838 59.4033 183.367 59.4033Z" fill="#003940"/>
<path d="M191.275 59.4033H153.216C151.746 59.4033 150.554 60.5638 150.554 61.9953V64.4269H193.938V61.9953C193.938 60.5638 192.746 59.4033 191.275 59.4033Z" fill="url(#paint1_linear_2651_13823)"/>
<path d="M150.48 126.39H148.761C146.455 126.39 144.587 129.391 144.587 133.094C144.587 136.797 146.455 139.799 148.761 139.799H150.48C152.786 139.799 154.654 136.797 154.654 133.094C154.654 129.391 152.786 126.39 150.48 126.39Z" fill="url(#paint2_linear_2651_13823)"/>
<path d="M151.822 133.096C151.822 135.812 150.452 138.014 148.761 138.014C147.07 138.014 145.699 135.812 145.699 133.096C145.699 130.38 147.07 128.178 148.761 128.178C150.452 128.178 151.822 130.38 151.822 133.096Z" fill="#003940"/>
<path d="M166.624 120.766C166.624 119.781 166.862 119.016 167.339 118.47C167.816 117.925 168.514 117.652 169.434 117.652C170.354 117.652 171.056 117.925 171.541 118.47C172.026 119.016 172.269 119.781 172.269 120.766V122.72H175.066C175.158 122.72 175.237 122.752 175.304 122.817C175.371 122.883 175.405 122.96 175.405 123.049V124.039C175.405 124.128 175.371 124.205 175.304 124.271C175.237 124.336 175.158 124.368 175.066 124.368H166.963C166.871 124.368 166.791 124.336 166.724 124.271C166.657 124.205 166.624 124.128 166.624 124.039V120.766ZM170.7 122.72V120.827C170.7 120.363 170.606 119.993 170.418 119.716C170.23 119.439 169.902 119.301 169.434 119.301C168.966 119.301 168.642 119.439 168.462 119.716C168.282 119.993 168.192 120.363 168.192 120.827V122.72H170.7Z" fill="white"/>
<path d="M173.837 110.643C173.837 110.554 173.87 110.477 173.937 110.411C174.004 110.346 174.083 110.313 174.175 110.313H175.066C175.158 110.313 175.237 110.346 175.304 110.411C175.371 110.477 175.405 110.554 175.405 110.643V115.992C175.405 116.081 175.371 116.158 175.304 116.224C175.237 116.289 175.158 116.321 175.066 116.321H166.963C166.871 116.321 166.791 116.289 166.724 116.224C166.657 116.158 166.624 116.081 166.624 115.992V115.003C166.624 114.913 166.657 114.836 166.724 114.771C166.791 114.705 166.871 114.673 166.963 114.673H173.837V110.643Z" fill="white"/>
<path d="M166.624 105.124C166.624 104.994 166.66 104.897 166.731 104.831C166.802 104.766 166.908 104.709 167.05 104.66L174.978 101.668C175.003 101.661 175.032 101.656 175.066 101.656C175.158 101.656 175.237 101.689 175.304 101.754C175.371 101.819 175.404 101.896 175.404 101.986V102.865C175.404 103.028 175.369 103.142 175.298 103.207C175.227 103.272 175.158 103.317 175.091 103.341L173.699 103.867V107.725L175.091 108.25C175.158 108.274 175.227 108.319 175.298 108.384C175.369 108.45 175.404 108.564 175.404 108.727V109.606C175.404 109.695 175.371 109.773 175.304 109.838C175.237 109.903 175.158 109.935 175.066 109.935C175.032 109.935 175.003 109.931 174.978 109.923L167.05 106.931C166.908 106.882 166.802 106.826 166.731 106.76C166.66 106.695 166.624 106.598 166.624 106.467V105.124ZM172.13 104.452L168.556 105.796L172.13 107.139V104.452Z" fill="white"/>
<path d="M166.498 97.7238C166.498 97.1785 166.574 96.698 166.724 96.2829C166.875 95.8678 167.063 95.5216 167.288 95.2449C167.514 94.9682 167.763 94.7587 168.035 94.6162C168.306 94.4738 168.564 94.3945 168.806 94.378C168.906 94.3701 168.988 94.4005 169.051 94.4697C169.113 94.539 169.145 94.6184 169.145 94.7078V95.5625C169.145 95.7008 169.118 95.805 169.063 95.8738C169.009 95.9431 168.936 96.0062 168.844 96.0631C168.635 96.1854 168.453 96.3706 168.298 96.6189C168.144 96.8671 168.066 97.2356 168.066 97.724C168.066 97.9357 168.089 98.1374 168.135 98.3285C168.181 98.5197 168.248 98.6867 168.336 98.8291C168.423 98.9718 168.53 99.0836 168.655 99.1649C168.781 99.2464 168.923 99.287 169.082 99.287C169.274 99.287 169.431 99.2483 169.552 99.1709C169.674 99.0937 169.778 98.9632 169.866 98.7802C169.954 98.5971 170.035 98.3548 170.11 98.0537C170.186 97.7527 170.273 97.378 170.374 96.9302C170.483 96.4418 170.61 96.0205 170.757 95.6664C170.903 95.3123 171.079 95.0234 171.283 94.7993C171.488 94.5756 171.724 94.4088 171.992 94.2987C172.26 94.1887 172.565 94.1338 172.908 94.1338C173.284 94.1338 173.633 94.2153 173.955 94.378C174.277 94.5412 174.553 94.773 174.783 95.0741C175.013 95.3754 175.195 95.7457 175.329 96.1854C175.462 96.6248 175.529 97.1176 175.529 97.6626C175.529 98.1188 175.473 98.5541 175.36 98.9692C175.247 99.3845 175.084 99.7529 174.871 100.074C174.658 100.396 174.4 100.654 174.099 100.85C173.798 101.045 173.464 101.155 173.096 101.179C172.996 101.188 172.914 101.157 172.852 101.088C172.789 101.019 172.757 100.94 172.757 100.85V99.995C172.757 99.8567 172.782 99.7508 172.833 99.6775C172.883 99.6043 172.958 99.5434 173.058 99.4946C173.167 99.4377 173.276 99.3684 173.384 99.287C173.493 99.2055 173.589 99.0956 173.673 98.9572C173.756 98.8189 173.825 98.6459 173.88 98.4382C173.934 98.2306 173.961 97.9721 173.961 97.6626C173.961 97.4184 173.942 97.1826 173.905 96.9544C173.867 96.7266 173.804 96.5269 173.717 96.3561C173.629 96.1852 173.52 96.0468 173.391 95.941C173.261 95.8353 173.1 95.7823 172.908 95.7823C172.724 95.7823 172.573 95.8394 172.456 95.9532C172.339 96.0672 172.239 96.2401 172.155 96.4724C172.071 96.7042 171.992 96.9912 171.917 97.3331C171.841 97.675 171.745 98.0698 171.628 98.5176C171.528 98.9247 171.409 99.2806 171.271 99.5859C171.133 99.8913 170.963 100.143 170.763 100.343C170.562 100.543 170.326 100.691 170.054 100.789C169.782 100.887 169.458 100.935 169.082 100.935C168.705 100.935 168.358 100.854 168.041 100.691C167.723 100.528 167.451 100.304 167.225 100.019C167 99.7346 166.822 99.3945 166.692 98.9998C166.563 98.605 166.498 98.1795 166.498 97.7238Z" fill="white"/>
<path d="M166.624 87.1364C166.624 87.047 166.657 86.9698 166.724 86.9044C166.791 86.8394 166.871 86.8066 166.963 86.8066H167.853C167.945 86.8066 168.025 86.8394 168.092 86.9044C168.159 86.9698 168.192 87.047 168.192 87.1364V89.3342H175.066C175.158 89.3342 175.237 89.367 175.304 89.432C175.371 89.4974 175.405 89.5746 175.405 89.664V90.653C175.405 90.7428 175.371 90.82 175.304 90.8853C175.237 90.9505 175.158 90.9828 175.066 90.9828H168.192V93.1806C168.192 93.2705 168.159 93.3476 168.092 93.4129C168.025 93.4781 167.945 93.5104 167.853 93.5104H166.963C166.871 93.5104 166.791 93.4781 166.724 93.4129C166.657 93.3476 166.624 93.2705 166.624 93.1806V87.1364Z" fill="white"/>
<path d="M175.404 85.2555C175.404 85.3451 175.371 85.4223 175.304 85.4875C175.237 85.5528 175.158 85.5851 175.065 85.5851H166.962C166.87 85.5851 166.791 85.5528 166.724 85.4875C166.657 85.4223 166.624 85.3451 166.624 85.2555V84.2665C166.624 84.1769 166.657 84.0997 166.724 84.0343C166.791 83.9692 166.87 83.9365 166.962 83.9365H175.065C175.158 83.9365 175.237 83.9692 175.304 84.0343C175.371 84.0997 175.404 84.1769 175.404 84.2665V85.2555Z" fill="white"/>
<path d="M172.62 76.7828C172.511 76.7665 172.43 76.724 172.375 76.6545C172.321 76.5856 172.294 76.5099 172.294 76.4284V75.4394C172.294 75.35 172.325 75.2707 172.388 75.2014C172.45 75.1323 172.532 75.1016 172.632 75.1097C172.975 75.1341 173.318 75.2177 173.661 75.3601C174.004 75.5025 174.313 75.7204 174.589 76.0134C174.865 76.3065 175.091 76.6771 175.267 77.1245C175.442 77.5725 175.53 78.1137 175.53 78.7486C175.53 79.3104 175.444 79.8069 175.273 80.2385C175.102 80.67 174.863 81.0363 174.558 81.3374C174.253 81.6387 173.887 81.8729 173.46 82.0397C173.034 82.2065 172.57 82.3063 172.068 82.3388C171.75 82.3551 171.399 82.363 171.014 82.363C170.63 82.363 170.278 82.3551 169.961 82.3388C169.459 82.3063 168.995 82.2065 168.568 82.0397C168.142 81.8729 167.776 81.6387 167.471 81.3374C167.165 81.0365 166.927 80.67 166.756 80.2385C166.584 79.8069 166.499 79.3104 166.499 78.7486C166.499 78.1137 166.586 77.5725 166.762 77.1245C166.937 76.6769 167.163 76.3065 167.439 76.0134C167.715 75.7204 168.027 75.5025 168.374 75.3601C168.721 75.2177 169.062 75.1341 169.396 75.1097C169.496 75.1016 169.578 75.1321 169.64 75.2014C169.703 75.2707 169.735 75.35 169.735 75.4394V76.4284C169.735 76.5099 169.708 76.5871 169.653 76.6605C169.599 76.7338 169.517 76.7787 169.409 76.7948C169.241 76.8193 169.078 76.8762 168.919 76.9658C168.76 77.0554 168.618 77.1775 168.493 77.3323C168.367 77.4869 168.265 77.6824 168.186 77.9183C168.106 78.1543 168.067 78.4311 168.067 78.7486C168.067 79.0662 168.117 79.3429 168.217 79.579C168.317 79.8153 168.451 80.0124 168.619 80.1713C168.786 80.3302 168.987 80.4521 169.221 80.5376C169.455 80.6232 169.701 80.6743 169.961 80.6905C170.278 80.7068 170.63 80.7147 171.014 80.7147C171.399 80.7147 171.75 80.7068 172.068 80.6905C172.336 80.6743 172.585 80.6234 172.814 80.5376C173.044 80.4523 173.243 80.33 173.41 80.1713C173.578 80.0126 173.711 79.8155 173.811 79.579C173.912 79.3429 173.962 79.0662 173.962 78.7486C173.962 78.4311 173.922 78.1546 173.843 77.9183C173.764 77.6822 173.661 77.4848 173.536 77.3259C173.41 77.1673 173.268 77.0432 173.109 76.9534C172.95 76.8642 172.787 76.8072 172.62 76.7828Z" fill="white"/>
<path d="M136.279 127.36H134.559C132.254 127.36 130.385 130.362 130.385 134.065C130.385 137.768 132.254 140.77 134.559 140.77H136.279C138.584 140.77 140.452 137.768 140.452 134.065C140.452 130.362 138.584 127.36 136.279 127.36Z" fill="#003940"/>
<path d="M131.412 136.583H108.306C105.905 136.583 103.922 134.756 103.789 132.422L99.6318 65.4102H140.086L135.929 132.422C135.796 134.756 133.813 136.583 131.412 136.583Z" fill="#0C9D61"/>
<path d="M138.002 136.583H114.897C112.495 136.583 110.38 136.232 110.38 132.422L106.222 65.4102H146.677L142.519 132.422C142.519 136.583 140.403 136.583 138.002 136.583Z" fill="#47B881"/>
<path d="M138.412 60.374H100.353C98.8826 60.374 97.6904 61.5345 97.6904 62.966V65.3976H141.075V62.966C141.075 61.5345 139.883 60.374 138.412 60.374Z" fill="#003940"/>
<path d="M146.32 60.374H108.261C106.791 60.374 105.598 61.5345 105.598 62.966V65.3976H148.983V62.966C148.983 61.5345 147.791 60.374 146.32 60.374Z" fill="url(#paint3_linear_2651_13823)"/>
<path d="M105.526 127.36H103.806C101.501 127.36 99.6321 130.362 99.6321 134.065C99.6321 137.768 101.501 140.77 103.806 140.77H105.526C107.83 140.77 109.699 137.768 109.699 134.065C109.699 130.362 107.83 127.36 105.526 127.36Z" fill="url(#paint4_linear_2651_13823)"/>
<path d="M103.806 138.985C105.497 138.985 106.868 136.783 106.868 134.067C106.868 131.35 105.497 129.148 103.806 129.148C102.115 129.148 100.744 131.35 100.744 134.067C100.744 136.783 102.115 138.985 103.806 138.985Z" fill="#003940"/>
<path d="M124.504 126.487C124.036 126.463 123.595 126.375 123.181 126.224C122.767 126.074 122.408 125.852 122.102 125.559C121.797 125.266 121.555 124.9 121.375 124.46C121.195 124.02 121.105 123.5 121.105 122.897C121.105 122.303 121.193 121.786 121.368 121.346C121.544 120.906 121.786 120.54 122.096 120.247C122.405 119.954 122.765 119.73 123.175 119.575C123.584 119.421 124.028 119.331 124.504 119.307C124.663 119.298 124.839 119.293 125.031 119.288C125.224 119.284 125.422 119.282 125.627 119.282C125.832 119.282 126.031 119.284 126.223 119.288C126.415 119.293 126.591 119.298 126.75 119.307C127.218 119.331 127.659 119.419 128.073 119.569C128.487 119.72 128.846 119.942 129.152 120.235C129.457 120.528 129.697 120.896 129.873 121.34C130.048 121.784 130.136 122.303 130.136 122.897C130.136 123.499 130.048 124.02 129.873 124.46C129.697 124.899 129.457 125.266 129.152 125.559C128.846 125.852 128.487 126.074 128.073 126.224C127.659 126.375 127.218 126.462 126.75 126.487C126.591 126.495 126.415 126.501 126.223 126.505C126.031 126.509 125.832 126.511 125.627 126.511C125.422 126.511 125.224 126.509 125.031 126.505C124.839 126.502 124.663 126.495 124.504 126.487ZM124.567 120.956C123.965 120.988 123.499 121.178 123.169 121.523C122.838 121.87 122.673 122.327 122.673 122.897C122.673 123.467 122.838 123.925 123.169 124.271C123.499 124.617 123.965 124.806 124.567 124.839C124.885 124.855 125.238 124.863 125.627 124.863C126.016 124.863 126.369 124.855 126.687 124.839C127.289 124.806 127.753 124.617 128.079 124.271C128.405 123.925 128.569 123.467 128.569 122.897C128.569 122.327 128.405 121.87 128.079 121.523C127.753 121.178 127.289 120.988 126.687 120.956C126.369 120.939 126.016 120.931 125.627 120.931C125.238 120.931 124.885 120.939 124.567 120.956Z" fill="white"/>
<path d="M121.231 114.216C121.231 113.199 121.473 112.425 121.958 111.896C122.443 111.367 123.117 111.102 123.978 111.102C124.588 111.102 125.109 111.239 125.539 111.511C125.97 111.784 126.29 112.185 126.499 112.714L129.597 111.029C129.647 111.005 129.693 110.992 129.735 110.992C129.81 110.992 129.875 111.019 129.929 111.072C129.984 111.125 130.011 111.188 130.011 111.261V112.299C130.011 112.462 129.971 112.582 129.892 112.659C129.812 112.737 129.739 112.791 129.672 112.824L126.75 114.424V116.047H129.672C129.765 116.047 129.844 116.08 129.911 116.145C129.978 116.211 130.011 116.288 130.011 116.377V117.366C130.011 117.456 129.978 117.533 129.911 117.598C129.844 117.664 129.765 117.696 129.672 117.696H121.569C121.477 117.696 121.398 117.664 121.331 117.598C121.264 117.533 121.23 117.456 121.23 117.366L121.231 114.216ZM125.182 116.048V114.277C125.182 113.813 125.098 113.443 124.931 113.166C124.764 112.889 124.446 112.751 123.978 112.751C123.51 112.751 123.196 112.889 123.037 113.166C122.878 113.443 122.799 113.813 122.799 114.277V116.048H125.182Z" fill="white"/>
<path d="M124.479 109.819C123.977 109.803 123.52 109.713 123.105 109.55C122.692 109.387 122.336 109.151 122.039 108.842C121.742 108.532 121.512 108.152 121.349 107.7C121.186 107.248 121.105 106.721 121.105 106.119C121.105 105.41 121.199 104.826 121.387 104.366C121.575 103.907 121.801 103.54 122.064 103.267C122.328 102.995 122.6 102.803 122.88 102.693C123.16 102.583 123.396 102.52 123.589 102.504C123.689 102.496 123.77 102.526 123.833 102.596C123.896 102.665 123.927 102.744 123.927 102.833V103.823C123.927 103.912 123.904 103.984 123.858 104.036C123.812 104.089 123.764 104.128 123.714 104.152C123.681 104.169 123.607 104.212 123.495 104.281C123.382 104.35 123.265 104.46 123.143 104.61C123.022 104.761 122.913 104.958 122.817 105.203C122.721 105.447 122.673 105.752 122.673 106.119C122.673 106.729 122.842 107.217 123.181 107.584C123.52 107.95 123.973 108.146 124.542 108.17C124.86 108.186 125.2 108.194 125.564 108.194C125.928 108.194 126.269 108.186 126.587 108.17C127.281 108.146 127.784 107.95 128.098 107.584C128.412 107.217 128.569 106.729 128.569 106.119C128.569 105.817 128.535 105.541 128.468 105.288C128.401 105.036 128.292 104.818 128.142 104.635C127.992 104.452 127.793 104.309 127.546 104.207C127.3 104.106 126.996 104.055 126.637 104.055H126.536V105.545C126.536 105.634 126.503 105.711 126.436 105.776C126.369 105.842 126.29 105.874 126.198 105.874H125.307C125.215 105.874 125.136 105.842 125.069 105.776C125.002 105.711 124.968 105.634 124.968 105.545V102.736C124.968 102.646 125.002 102.569 125.069 102.504C125.136 102.439 125.215 102.406 125.307 102.406H126.687C127.188 102.406 127.651 102.484 128.073 102.638C128.495 102.793 128.859 103.025 129.164 103.334C129.47 103.644 129.708 104.03 129.879 104.494C130.051 104.958 130.137 105.5 130.137 106.119C130.137 106.737 130.053 107.275 129.885 107.73C129.718 108.186 129.484 108.565 129.183 108.866C128.882 109.167 128.52 109.397 128.098 109.556C127.676 109.715 127.214 109.802 126.712 109.819C126.553 109.827 126.378 109.833 126.185 109.837C125.993 109.841 125.796 109.843 125.596 109.843C125.395 109.843 125.198 109.841 125.006 109.837C124.814 109.833 124.638 109.827 124.479 109.819Z" fill="white"/>
<path d="M121.23 97.0109C121.23 96.8808 121.266 96.7833 121.337 96.7179C121.408 96.6529 121.515 96.5958 121.657 96.5468L129.584 93.5552C129.609 93.5472 129.639 93.543 129.672 93.543C129.764 93.543 129.844 93.5755 129.91 93.6407C129.978 93.7059 130.011 93.7831 130.011 93.8725V94.7516C130.011 94.9148 129.975 95.0285 129.904 95.0938C129.833 95.159 129.764 95.2037 129.697 95.228L128.305 95.7533V99.6118L129.697 100.137C129.765 100.161 129.833 100.206 129.904 100.271C129.975 100.337 130.011 100.45 130.011 100.613V101.492C130.011 101.582 129.978 101.659 129.91 101.724C129.844 101.79 129.764 101.822 129.672 101.822C129.639 101.822 129.609 101.818 129.584 101.81L121.657 98.8181C121.515 98.7691 121.408 98.7124 121.337 98.6472C121.266 98.582 121.23 98.4842 121.23 98.354V97.0109ZM126.737 96.3392L123.162 97.6823L126.737 99.0255V96.3392Z" fill="white"/>
<path d="M130.011 86.8866C130.011 87.0252 129.973 87.131 129.898 87.204C129.823 87.2773 129.764 87.3303 129.722 87.3626L124.504 90.7818H129.672C129.764 90.7818 129.844 90.8145 129.91 90.8795C129.978 90.9449 130.011 91.0221 130.011 91.1115V92.1005C130.011 92.1903 129.978 92.2675 129.91 92.3328C129.844 92.398 129.764 92.4303 129.672 92.4303H121.569C121.477 92.4303 121.398 92.398 121.33 92.3328C121.264 92.2675 121.23 92.1903 121.23 92.1005V91.2458C121.23 91.1074 121.268 91.0016 121.343 90.9284C121.418 90.8553 121.477 90.8023 121.519 90.7696L126.737 87.3507H121.569C121.477 87.3507 121.398 87.3184 121.331 87.2529C121.264 87.1879 121.23 87.1105 121.23 87.0211V86.0319C121.23 85.9423 121.264 85.8651 121.331 85.7999C121.398 85.7346 121.477 85.7021 121.569 85.7021H129.672C129.764 85.7021 129.844 85.7346 129.911 85.7999C129.978 85.8651 130.011 85.9423 130.011 86.0319V86.8866Z" fill="white"/>
<path d="M130.011 83.4662C130.011 83.556 129.978 83.6332 129.911 83.6985C129.844 83.7637 129.765 83.796 129.673 83.796H121.569C121.477 83.796 121.398 83.7637 121.331 83.6985C121.264 83.6332 121.231 83.556 121.231 83.4662V82.4772C121.231 82.3878 121.264 82.3106 121.331 82.2452C121.398 82.1802 121.477 82.1475 121.569 82.1475H129.673C129.765 82.1475 129.844 82.1802 129.911 82.2452C129.978 82.3106 130.011 82.3878 130.011 82.4772V83.4662Z" fill="white"/>
<path d="M127.226 74.9935C127.118 74.9775 127.036 74.9347 126.982 74.8652C126.927 74.7963 126.9 74.7209 126.9 74.6392V73.6502C126.9 73.5608 126.932 73.4814 126.994 73.4121C127.057 73.3433 127.139 73.3125 127.239 73.3206C127.582 73.3448 127.925 73.4284 128.267 73.5708C128.611 73.7134 128.92 73.9313 129.196 74.2241C129.472 74.5173 129.697 74.8879 129.873 75.3354C130.049 75.7832 130.137 76.3245 130.137 76.9594C130.137 77.5211 130.051 78.0176 129.879 78.4492C129.708 78.8809 129.47 79.2472 129.164 79.5483C128.859 79.8496 128.493 80.0838 128.067 80.2506C127.641 80.4172 127.176 80.517 126.674 80.5495C126.357 80.5658 126.006 80.5739 125.621 80.5739C125.236 80.5739 124.885 80.5658 124.567 80.5495C124.065 80.517 123.601 80.4172 123.175 80.2506C122.748 80.0838 122.383 79.8496 122.077 79.5483C121.772 79.2475 121.534 78.8809 121.362 78.4492C121.191 78.0176 121.105 77.5211 121.105 76.9594C121.105 76.3245 121.193 75.7832 121.368 75.3354C121.544 74.8877 121.77 74.5173 122.046 74.2241C122.322 73.9313 122.633 73.7134 122.98 73.5708C123.327 73.4284 123.668 73.3448 124.002 73.3206C124.103 73.3125 124.184 73.3431 124.247 73.4121C124.31 73.4814 124.341 73.5608 124.341 73.6502V74.6392C124.341 74.7209 124.314 74.798 124.26 74.8714C124.205 74.9445 124.124 74.9897 124.015 75.0057C123.848 75.0301 123.685 75.0872 123.526 75.1768C123.367 75.2664 123.225 75.3885 123.099 75.5431C122.974 75.6977 122.872 75.8931 122.792 76.129C122.713 76.3653 122.673 76.6418 122.673 76.9594C122.673 77.2769 122.723 77.5536 122.824 77.7899C122.924 78.026 123.058 78.2232 123.225 78.3822C123.392 78.5409 123.593 78.663 123.827 78.7486C124.061 78.8341 124.308 78.885 124.567 78.9012C124.885 78.9175 125.236 78.9256 125.621 78.9256C126.006 78.9256 126.357 78.9175 126.674 78.9012C126.942 78.885 127.191 78.8341 127.421 78.7486C127.651 78.6632 127.849 78.5409 128.017 78.3822C128.184 78.2234 128.318 78.0262 128.418 77.7899C128.518 77.5536 128.569 77.2771 128.569 76.9594C128.569 76.642 128.529 76.3655 128.449 76.129C128.37 75.8929 128.267 75.6955 128.142 75.5366C128.017 75.378 127.874 75.254 127.716 75.1644C127.557 75.0748 127.394 75.0181 127.226 74.9935Z" fill="white"/>
<path d="M91.2338 128.331H89.514C87.209 128.331 85.3403 131.333 85.3403 135.036C85.3403 138.739 87.209 141.74 89.514 141.74H91.2338C93.539 141.74 95.4075 138.739 95.4075 135.036C95.4075 131.333 93.5387 128.331 91.2338 128.331Z" fill="#003940"/>
<path d="M86.3666 137.554H63.2616C60.8597 137.554 58.8768 135.727 58.7445 133.392L54.5867 66.3809H95.041L90.8834 133.392C90.7514 135.727 88.7682 137.554 86.3666 137.554Z" fill="#1F8297"/>
<path d="M92.9564 137.554H69.8511C67.4493 137.554 65.3341 137.202 65.3341 133.392L61.1763 66.3809H101.631L97.473 133.392C97.4734 137.554 95.358 137.554 92.9564 137.554Z" fill="#4C9BAC"/>
<path d="M93.3669 61.3447H55.3078C53.8374 61.3447 52.6453 62.5052 52.6453 63.9367V66.3683H96.0295V63.9367C96.0295 62.5052 94.8374 61.3447 93.3669 61.3447Z" fill="#003940"/>
<path d="M101.275 61.3447H63.2156C61.7451 61.3447 60.553 62.5052 60.553 63.9367V66.3683H103.937V63.9367C103.937 62.5052 102.745 61.3447 101.275 61.3447Z" fill="url(#paint5_linear_2651_13823)"/>
<path d="M60.4806 128.331H58.7608C56.4559 128.331 54.5872 131.333 54.5872 135.036C54.5872 138.739 56.4559 141.74 58.7608 141.74H60.4806C62.7858 141.74 64.6543 138.739 64.6543 135.036C64.6543 131.333 62.7856 128.331 60.4806 128.331Z" fill="url(#paint6_linear_2651_13823)"/>
<path d="M61.8219 135.038C61.8219 137.754 60.4512 139.956 58.76 139.956C57.069 139.956 55.6982 137.754 55.6982 135.038C55.6982 132.321 57.069 130.119 58.76 130.119C60.4512 130.119 61.8219 132.321 61.8219 135.038Z" fill="#003940"/>
<path d="M80.0931 121.481C79.5914 121.464 79.1336 121.375 78.7195 121.212C78.3056 121.049 77.9502 120.813 77.6532 120.504C77.3565 120.195 77.1265 119.814 76.9632 119.362C76.8 118.91 76.7188 118.383 76.7188 117.781C76.7188 117.072 76.8128 116.488 77.0008 116.028C77.1891 115.568 77.4149 115.202 77.6783 114.929C77.9416 114.656 78.2136 114.465 78.4937 114.355C78.7738 114.245 79.0101 114.182 79.2025 114.166C79.3027 114.158 79.3842 114.188 79.447 114.258C79.5096 114.327 79.541 114.406 79.541 114.496V115.485C79.541 115.574 79.5182 115.645 79.4723 115.698C79.4264 115.752 79.3781 115.79 79.328 115.814C79.2948 115.831 79.2214 115.873 79.1085 115.942C78.9956 116.012 78.8785 116.122 78.7573 116.272C78.636 116.423 78.5273 116.62 78.4311 116.865C78.3351 117.109 78.287 117.414 78.287 117.781C78.287 118.391 78.4563 118.88 78.795 119.246C79.1338 119.612 79.5874 119.808 80.1561 119.832C80.4738 119.849 80.8145 119.856 81.1782 119.856C81.542 119.856 81.8829 119.849 82.2006 119.832C82.8947 119.808 83.3984 119.612 83.7121 119.246C84.0258 118.88 84.1826 118.391 84.1826 117.781C84.1826 117.48 84.1492 117.203 84.0822 116.95C84.0152 116.698 83.9065 116.48 83.756 116.297C83.6055 116.114 83.407 115.971 83.1603 115.869C82.9138 115.768 82.6105 115.717 82.2509 115.717H82.1505V117.206C82.1505 117.296 82.1173 117.373 82.0501 117.439C81.9831 117.504 81.9038 117.536 81.8117 117.536H80.921C80.8292 117.536 80.7499 117.504 80.6827 117.439C80.6159 117.373 80.5825 117.296 80.5825 117.206V114.398C80.5825 114.309 80.6159 114.231 80.6827 114.166C80.7499 114.101 80.8292 114.068 80.921 114.068H82.3009C82.8024 114.068 83.2648 114.146 83.687 114.3C84.1095 114.455 84.473 114.687 84.7784 114.996C85.0839 115.306 85.322 115.692 85.4934 116.156C85.6647 116.62 85.7506 117.162 85.7506 117.781C85.7506 118.399 85.6669 118.936 85.4995 119.392C85.3323 119.849 85.0982 120.227 84.7972 120.528C84.4961 120.829 84.1345 121.059 83.7123 121.218C83.2901 121.377 82.8279 121.464 82.326 121.481C82.1672 121.489 81.9919 121.495 81.7994 121.499C81.607 121.503 81.4104 121.505 81.2096 121.505C81.0091 121.505 80.8125 121.503 80.62 121.499C80.4278 121.495 80.2521 121.489 80.0931 121.481Z" fill="white"/>
<path d="M84.057 106.852C84.057 106.763 84.0904 106.686 84.1574 106.62C84.2244 106.555 84.3037 106.522 84.3958 106.522H85.2863C85.3786 106.522 85.4579 106.555 85.5246 106.62C85.5919 106.686 85.625 106.763 85.625 106.852V112.201C85.625 112.29 85.5919 112.368 85.5246 112.433C85.4579 112.498 85.3786 112.531 85.2863 112.531H77.183C77.0912 112.531 77.0119 112.498 76.9447 112.433C76.8779 112.368 76.8445 112.29 76.8445 112.201V111.212C76.8445 111.122 76.8779 111.045 76.9447 110.98C77.0119 110.915 77.0912 110.882 77.183 110.882H84.057V106.852Z" fill="white"/>
<path d="M76.8445 101.332C76.8445 101.202 76.8801 101.105 76.951 101.039C77.022 100.974 77.1287 100.917 77.2709 100.868L85.1984 97.8764C85.2235 97.8685 85.2529 97.8643 85.2861 97.8643C85.3783 97.8643 85.4576 97.8968 85.5244 97.962C85.5916 98.0272 85.6248 98.1044 85.6248 98.1938V99.0729C85.6248 99.2358 85.5894 99.3498 85.5183 99.415C85.4473 99.4803 85.3783 99.525 85.3113 99.5491L83.9191 100.075V103.933L85.3113 104.458C85.3786 104.482 85.4473 104.527 85.5183 104.592C85.5894 104.658 85.6248 104.772 85.6248 104.935V105.814C85.6248 105.903 85.5916 105.981 85.5244 106.045C85.4576 106.111 85.3783 106.143 85.2861 106.143C85.2529 106.143 85.2235 106.139 85.1984 106.131L77.2709 103.139C77.1287 103.09 77.022 103.034 76.951 102.968C76.8801 102.903 76.8445 102.806 76.8445 102.675V101.332ZM82.3511 100.661L78.7763 102.004L82.3511 103.347V100.661Z" fill="white"/>
<path d="M76.7192 93.9325C76.7192 93.3875 76.7946 92.9068 76.9449 92.4917C77.0956 92.0766 77.2836 91.7306 77.5094 91.4537C77.735 91.1772 77.9841 90.9676 78.2556 90.8252C78.5273 90.6828 78.7846 90.6034 79.0271 90.5868C79.1275 90.5789 79.209 90.6092 79.2716 90.6787C79.3344 90.748 79.3658 90.8274 79.3658 90.9167V91.7713C79.3658 91.9098 79.3388 92.014 79.2843 92.0828C79.23 92.1521 79.1569 92.2152 79.0646 92.2721C78.8557 92.3944 78.6741 92.5796 78.5192 92.8276C78.3646 93.0761 78.287 93.4446 78.287 93.9328C78.287 94.1445 78.3101 94.3463 78.356 94.5375C78.4019 94.7287 78.4689 94.8955 78.5565 95.0379C78.6442 95.1808 78.7512 95.2926 78.8764 95.3736C79.0018 95.4551 79.1442 95.496 79.3028 95.496C79.4954 95.496 79.652 95.457 79.7733 95.3798C79.8948 95.3026 79.9991 95.1722 80.087 94.9889C80.1746 94.8061 80.2563 94.5638 80.3315 94.2627C80.4066 93.9616 80.4945 93.587 80.5948 93.1392C80.7036 92.6506 80.8312 92.2295 80.9775 91.8754C81.1238 91.5213 81.2995 91.2322 81.5041 91.0083C81.7092 90.7844 81.9453 90.6178 82.2129 90.5074C82.4807 90.3975 82.7858 90.3428 83.1287 90.3428C83.505 90.3428 83.8543 90.4242 84.1761 90.5868C84.4981 90.7501 84.7742 90.9819 85.0042 91.283C85.2342 91.5841 85.4161 91.9547 85.5497 92.3944C85.6832 92.8338 85.7504 93.3265 85.7504 93.8716C85.7504 94.3277 85.694 94.7629 85.5811 95.178C85.4682 95.5935 85.3052 95.9619 85.0919 96.2831C84.8786 96.6052 84.6213 96.8633 84.3204 97.0587C84.0192 97.2542 83.6849 97.3641 83.317 97.3882C83.2166 97.3966 83.1351 97.366 83.0725 97.2967C83.0097 97.2279 82.9782 97.1485 82.9782 97.0587V96.2038C82.9782 96.0656 83.0033 95.9598 83.0536 95.8864C83.1039 95.8133 83.179 95.7523 83.2792 95.7036C83.3881 95.6467 83.4969 95.5774 83.6054 95.496C83.7141 95.4145 83.8103 95.3046 83.8938 95.166C83.9775 95.0279 84.0462 94.8549 84.1005 94.6472C84.155 94.4396 84.1822 94.181 84.1822 93.8716C84.1822 93.6272 84.1633 93.3913 84.1256 93.1631C84.088 92.9356 84.0254 92.7359 83.9375 92.565C83.8499 92.3942 83.7411 92.2556 83.6115 92.15C83.4819 92.0443 83.3211 91.9913 83.1287 91.9913C82.9448 91.9913 82.7944 92.0482 82.6771 92.1622C82.5598 92.2761 82.4596 92.4491 82.3759 92.6814C82.2924 92.9132 82.2129 93.2001 82.1376 93.5421C82.0624 93.8838 81.9664 94.2788 81.8491 94.7265C81.749 95.1337 81.6297 95.4895 81.4917 95.7949C81.3538 96.1003 81.1844 96.3524 80.9837 96.5521C80.7829 96.7514 80.5467 96.9 80.2748 96.9978C80.0033 97.0955 79.679 97.1445 79.3025 97.1445C78.9262 97.1445 78.5794 97.063 78.2615 96.9001C77.9439 96.7371 77.672 96.5132 77.4461 96.2284C77.2205 95.9435 77.0428 95.6035 76.913 95.2088C76.7841 94.8138 76.7192 94.3887 76.7192 93.9325Z" fill="white"/>
<path d="M76.719 86.0206C76.719 85.4751 76.7944 84.9948 76.9446 84.5798C77.0953 84.1647 77.2833 83.8187 77.5091 83.5418C77.7347 83.2653 77.9838 83.0557 78.2554 82.9129C78.5271 82.7709 78.7843 82.6915 79.0268 82.6749C79.1272 82.667 79.2087 82.6973 79.2713 82.7664C79.3341 82.8357 79.3656 82.915 79.3656 83.0048V83.8593C79.3656 83.9979 79.3385 84.1016 79.284 84.1709C79.2298 84.2402 79.1566 84.3033 79.0644 84.3602C78.8555 84.482 78.6738 84.6677 78.519 84.9157C78.3643 85.1642 78.2868 85.5327 78.2868 86.0209C78.2868 86.2326 78.3098 86.4344 78.3557 86.6252C78.4017 86.8168 78.4686 86.9836 78.5563 87.126C78.6439 87.2684 78.7509 87.3803 78.8761 87.4617C79.0016 87.5432 79.1439 87.5836 79.3025 87.5836C79.4952 87.5836 79.6518 87.5451 79.773 87.4679C79.8945 87.3907 79.9989 87.2603 80.0867 87.077C80.1744 86.8942 80.2561 86.6519 80.3312 86.3504C80.4066 86.0497 80.4942 85.6751 80.5946 85.2273C80.7033 84.7387 80.8309 84.3176 80.9772 83.9635C81.1235 83.6094 81.2993 83.3202 81.5038 83.0963C81.709 82.8724 81.9451 82.7055 82.2127 82.5955C82.4804 82.4856 82.7856 82.4307 83.1285 82.4307C83.5048 82.4307 83.854 82.5126 84.1758 82.6751C84.4979 82.838 84.774 83.0703 85.004 83.3713C85.234 83.6724 85.4159 84.043 85.5494 84.4823C85.683 84.9221 85.7502 85.4144 85.7502 85.9599C85.7502 86.416 85.6937 86.8512 85.5808 87.2663C85.4679 87.6813 85.3049 88.0498 85.0916 88.3714C84.8783 88.693 84.6211 88.9516 84.3201 89.147C84.019 89.342 83.6846 89.4524 83.3167 89.4766C83.2163 89.4849 83.1348 89.4543 83.0722 89.385C83.0094 89.3158 82.978 89.2364 82.978 89.147V88.2921C82.978 88.1539 83.003 88.0476 83.0533 87.9747C83.1036 87.9018 83.1788 87.8402 83.2789 87.7915C83.3879 87.7346 83.4966 87.6653 83.6051 87.5838C83.7139 87.5028 83.8101 87.3929 83.8935 87.2543C83.9772 87.1162 84.046 86.9427 84.1003 86.7351C84.1547 86.5274 84.182 86.2693 84.182 85.9599C84.182 85.7155 84.1631 85.4796 84.1253 85.2514C84.0877 85.0239 84.0251 84.8242 83.9373 84.6533C83.8496 84.482 83.7409 84.3439 83.6113 84.2383C83.4817 84.1322 83.3209 84.0792 83.1285 84.0792C82.9446 84.0792 82.7941 84.1365 82.6768 84.2505C82.5595 84.3644 82.4594 84.5374 82.3757 84.7692C82.2922 85.0015 82.2127 85.2885 82.1373 85.6304C82.0622 85.9721 81.9662 86.3671 81.8489 86.8144C81.7487 87.2216 81.6295 87.5778 81.4915 87.8832C81.3535 88.1886 81.1842 88.4407 80.9834 88.64C80.7826 88.8397 80.5465 88.9883 80.2745 89.0861C80.003 89.1834 79.6788 89.2324 79.3023 89.2324C78.926 89.2324 78.5792 89.1513 78.2613 88.9883C77.9437 88.8254 77.6717 88.6015 77.4459 88.3167C77.2203 88.0318 77.0426 87.6918 76.9128 87.2967C76.7838 86.9019 76.719 86.4768 76.719 86.0206Z" fill="white"/>
<path d="M46.2653 129.303H44.5455C42.2405 129.303 40.3718 132.304 40.3718 136.007C40.3718 139.71 42.2405 142.712 44.5455 142.712H46.2653C48.5705 142.712 50.439 139.71 50.439 136.007C50.439 132.304 48.5705 129.303 46.2653 129.303Z" fill="#003940"/>
<path d="M41.3979 138.526H18.2928C15.8912 138.526 13.908 136.698 13.7758 134.364L9.61816 67.3525H50.0727L45.9149 134.364C45.7826 136.698 43.7997 138.526 41.3979 138.526Z" fill="#FFAD0D"/>
<path d="M47.9877 138.526H24.8827C22.481 138.526 20.3657 138.174 20.3657 134.364L16.208 67.3525H56.6626L52.5047 134.364C52.5047 138.526 50.3895 138.526 47.9877 138.526Z" fill="#FFDD82"/>
<path d="M48.3979 62.3164H10.3388C8.8684 62.3164 7.67627 63.4769 7.67627 64.9084V67.34H51.0605V64.9084C51.0608 63.4769 49.8686 62.3164 48.3979 62.3164Z" fill="#003940"/>
<path d="M56.3062 62.3164H18.2471C16.7766 62.3164 15.5845 63.4769 15.5845 64.9084V67.34H58.9687V64.9084C58.969 63.4769 57.7768 62.3164 56.3062 62.3164Z" fill="url(#paint7_linear_2651_13823)"/>
<path d="M15.5114 129.303H13.7916C11.4866 129.303 9.61792 132.304 9.61792 136.007C9.61792 139.71 11.4866 142.712 13.7916 142.712H15.5114C17.8166 142.712 19.6851 139.71 19.6851 136.007C19.6851 132.304 17.8166 129.303 15.5114 129.303Z" fill="url(#paint8_linear_2651_13823)"/>
<path d="M16.8532 136.009C16.8532 138.725 15.4825 140.928 13.7915 140.928C12.1005 140.928 10.7297 138.725 10.7297 136.009C10.7297 133.293 12.1005 131.091 13.7915 131.091C15.4825 131.091 16.8532 133.293 16.8532 136.009Z" fill="#003940"/>
<path d="M31.436 117.475C31.436 116.49 31.6744 115.725 32.1511 115.18C32.6277 114.634 33.3261 114.361 34.2458 114.361C35.1655 114.361 35.8683 114.634 36.3531 115.18C36.8381 115.725 37.0808 116.49 37.0808 117.475V119.429H39.8778C39.9701 119.429 40.0494 119.461 40.1162 119.527C40.1834 119.592 40.2166 119.669 40.2166 119.759V120.748C40.2166 120.837 40.1834 120.915 40.1162 120.98C40.0494 121.045 39.9701 121.077 39.8778 121.077H31.7745C31.6827 121.077 31.6034 121.045 31.5362 120.98C31.4694 120.915 31.436 120.837 31.436 120.748V117.475ZM35.5126 119.429V117.536C35.5126 117.072 35.4186 116.702 35.2306 116.425C35.0423 116.148 34.7141 116.01 34.246 116.01C33.7777 116.01 33.4537 116.148 33.2738 116.425C33.0941 116.702 33.004 117.072 33.004 117.536V119.429H35.5126Z" fill="white"/>
<path d="M31.436 109.526C31.436 109.395 31.4716 109.298 31.5426 109.232C31.6135 109.168 31.7203 109.11 31.8624 109.062L39.79 106.07C39.815 106.062 39.8445 106.058 39.8776 106.058C39.9699 106.058 40.0492 106.09 40.116 106.155C40.1832 106.221 40.2164 106.298 40.2164 106.387V107.266C40.2164 107.429 40.181 107.543 40.1098 107.608C40.0389 107.674 39.9699 107.719 39.9029 107.742L38.5106 108.268V112.126L39.9029 112.652C39.9701 112.676 40.0389 112.721 40.1098 112.786C40.181 112.851 40.2164 112.965 40.2164 113.128V114.007C40.2164 114.097 40.1832 114.174 40.116 114.239C40.0492 114.304 39.9699 114.337 39.8776 114.337C39.8445 114.337 39.815 114.333 39.79 114.324L31.8624 111.333C31.7203 111.284 31.6135 111.227 31.5426 111.162C31.4716 111.097 31.436 110.999 31.436 110.869V109.526ZM36.9427 108.854L33.3678 110.197L36.9427 111.54V108.854Z" fill="white"/>
<path d="M31.436 101.342C31.436 100.357 31.6744 99.592 32.1511 99.0467C32.6277 98.5014 33.3261 98.2285 34.2458 98.2285C35.1655 98.2285 35.8683 98.5014 36.3531 99.0467C36.8381 99.5922 37.0808 100.357 37.0808 101.342V103.296H39.8778C39.9701 103.296 40.0494 103.329 40.1162 103.394C40.1834 103.459 40.2166 103.537 40.2166 103.626V104.615C40.2166 104.705 40.1834 104.782 40.1162 104.847C40.0494 104.912 39.9701 104.944 39.8778 104.944H31.7745C31.6827 104.944 31.6034 104.912 31.5362 104.847C31.4694 104.782 31.436 104.705 31.436 104.615V101.342ZM35.5126 103.296V101.403C35.5126 100.939 35.4186 100.569 35.2306 100.292C35.0423 100.016 34.7141 99.8773 34.246 99.8773C33.7777 99.8773 33.4537 100.016 33.2738 100.292C33.0941 100.569 33.004 100.939 33.004 101.403V103.296H35.5126Z" fill="white"/>
<path d="M38.6486 91.2084C38.6486 91.1191 38.682 91.0419 38.749 90.9766C38.816 90.9114 38.8953 90.8789 38.9873 90.8789H39.8778C39.9701 90.8789 40.0494 90.9114 40.1162 90.9766C40.1834 91.0419 40.2166 91.1191 40.2166 91.2084V96.569C40.2166 96.6589 40.1834 96.736 40.1162 96.8013C40.0494 96.8665 39.9701 96.899 39.8778 96.899H31.7745C31.6827 96.899 31.6034 96.8665 31.5362 96.8013C31.4694 96.736 31.436 96.6589 31.436 96.569V91.3062C31.436 91.2168 31.4694 91.1396 31.5362 91.0744C31.6034 91.0091 31.6827 90.9766 31.7745 90.9766H32.6653C32.7573 90.9766 32.8366 91.0091 32.9036 91.0744C32.9706 91.1396 33.004 91.2168 33.004 91.3062V95.2505H34.9984V91.5748C34.9984 91.4854 35.0318 91.4082 35.0988 91.343C35.1658 91.2777 35.2451 91.2454 35.3371 91.2454H36.2276C36.3199 91.2454 36.3992 91.2777 36.466 91.343C36.5332 91.4082 36.5664 91.4854 36.5664 91.5748V95.2505H38.6486V91.2084Z" fill="white"/>
<path d="M31.436 85.8848C31.436 84.8674 31.6785 84.0939 32.1635 83.5646C32.6486 83.0354 33.3218 82.7713 34.1829 82.7713C34.7934 82.7713 35.314 82.9073 35.7446 83.1801C36.1753 83.453 36.4952 83.8537 36.7041 84.3828L39.8023 82.6975C39.8526 82.6733 39.8985 82.6611 39.9404 82.6611C40.0156 82.6611 40.0806 82.6875 40.1348 82.7405C40.1893 82.7935 40.2163 82.8562 40.2163 82.9297V83.9677C40.2163 84.1305 40.1766 84.2502 40.0973 84.3278C40.0177 84.4052 39.9448 84.4604 39.8776 84.4927L36.9549 86.0922V87.7166H39.8776C39.9699 87.7166 40.0492 87.7493 40.1159 87.8143C40.1831 87.8795 40.2163 87.9569 40.2163 88.0461V89.0351C40.2163 89.125 40.1831 89.2022 40.1159 89.2676C40.0492 89.3326 39.9699 89.3651 39.8776 89.3651H31.7743C31.6825 89.3651 31.6032 89.3326 31.536 89.2676C31.4692 89.2022 31.4358 89.125 31.4358 89.0351L31.436 85.8848ZM35.3874 87.7166V85.946C35.3874 85.4817 35.3037 85.1118 35.1363 84.8349C34.9691 84.5579 34.6515 84.4198 34.1829 84.4198C33.7148 84.4198 33.4012 84.5579 33.2423 84.8349C33.0835 85.1118 33.004 85.4817 33.004 85.946V87.7166H35.3874Z" fill="white"/>
</g>
<defs>
<linearGradient id="paint0_linear_2651_13823" x1="298.814" y1="125.095" x2="291.73" y2="188.34" gradientUnits="userSpaceOnUse">
<stop stop-color="#1F8297"/>
<stop offset="0.448113" stop-color="#166C7D"/>
<stop offset="1" stop-color="#003940"/>
</linearGradient>
<linearGradient id="paint1_linear_2651_13823" x1="204.812" y1="59.4033" x2="201.242" y2="76.7411" gradientUnits="userSpaceOnUse">
<stop stop-color="#1F8297"/>
<stop offset="0.448113" stop-color="#166C7D"/>
<stop offset="1" stop-color="#003940"/>
</linearGradient>
<linearGradient id="paint2_linear_2651_13823" x1="157.177" y1="126.39" x2="139.893" y2="133.686" gradientUnits="userSpaceOnUse">
<stop stop-color="#1F8297"/>
<stop offset="0.448113" stop-color="#166C7D"/>
<stop offset="1" stop-color="#003940"/>
</linearGradient>
<linearGradient id="paint3_linear_2651_13823" x1="159.857" y1="60.374" x2="156.286" y2="77.7118" gradientUnits="userSpaceOnUse">
<stop stop-color="#1F8297"/>
<stop offset="0.448113" stop-color="#166C7D"/>
<stop offset="1" stop-color="#003940"/>
</linearGradient>
<linearGradient id="paint4_linear_2651_13823" x1="112.222" y1="127.36" x2="94.9378" y2="134.657" gradientUnits="userSpaceOnUse">
<stop stop-color="#1F8297"/>
<stop offset="0.448113" stop-color="#166C7D"/>
<stop offset="1" stop-color="#003940"/>
</linearGradient>
<linearGradient id="paint5_linear_2651_13823" x1="114.811" y1="61.3447" x2="111.241" y2="78.6825" gradientUnits="userSpaceOnUse">
<stop stop-color="#1F8297"/>
<stop offset="0.448113" stop-color="#166C7D"/>
<stop offset="1" stop-color="#003940"/>
</linearGradient>
<linearGradient id="paint6_linear_2651_13823" x1="67.1776" y1="128.331" x2="49.8929" y2="135.628" gradientUnits="userSpaceOnUse">
<stop stop-color="#1F8297"/>
<stop offset="0.448113" stop-color="#166C7D"/>
<stop offset="1" stop-color="#003940"/>
</linearGradient>
<linearGradient id="paint7_linear_2651_13823" x1="69.8428" y1="62.3164" x2="66.2725" y2="79.6542" gradientUnits="userSpaceOnUse">
<stop stop-color="#1F8297"/>
<stop offset="0.448113" stop-color="#166C7D"/>
<stop offset="1" stop-color="#003940"/>
</linearGradient>
<linearGradient id="paint8_linear_2651_13823" x1="22.2083" y1="129.303" x2="4.92368" y2="136.599" gradientUnits="userSpaceOnUse">
<stop stop-color="#1F8297"/>
<stop offset="0.448113" stop-color="#166C7D"/>
<stop offset="1" stop-color="#003940"/>
</linearGradient>
<clipPath id="clip0_2651_13823">
<rect width="195.137" height="142.712" fill="white" transform="translate(0.781982 0.182617)"/>
</clipPath>
</defs>
</svg>
