<svg width="194" height="167" viewBox="0 0 194 167" fill="none" xmlns="http://www.w3.org/2000/svg">
<path d="M102.771 148.558C102.771 148.558 100.279 143.717 101.663 124.771C103.048 105.824 104.062 102.923 110.706 99.8805C117.35 96.8379 126.276 89.5805 133.575 93.0911C138.466 95.4435 149.073 107.957 152.949 110.723C156.825 113.489 142.773 117.441 142.634 124.494C142.496 131.548 144.018 131.132 145.126 133.484C146.233 135.835 147.064 145.377 146.648 149.249C133.776 144.824 102.771 148.558 102.771 148.558Z" fill="#F99156"/>
<path d="M141.804 130.994C140.406 131.261 138.98 131.298 137.583 131.142C136.184 131.009 134.814 130.679 133.505 130.201C130.886 129.236 128.538 127.633 126.574 125.654C125.596 124.66 124.667 123.608 123.86 122.46C123.425 121.908 123.063 121.305 122.667 120.725C122.293 120.13 121.94 119.52 121.576 118.917C120.202 116.456 119.038 113.867 117.996 111.218C118.731 113.966 119.703 116.668 121.005 119.223C122.309 121.774 123.949 124.183 125.987 126.241C128.033 128.281 130.524 129.935 133.296 130.811C134.677 131.255 136.116 131.507 137.557 131.545C138.277 131.561 138.998 131.532 139.71 131.444C140.421 131.361 141.128 131.223 141.804 130.994Z" fill="#FFA367"/>
<path d="M141.804 127.397C140.321 127.424 138.865 127.273 137.448 126.972C136.035 126.667 134.655 126.22 133.377 125.567C133.044 125.429 132.735 125.246 132.426 125.064C132.119 124.877 131.791 124.724 131.507 124.504L130.619 123.889C130.328 123.677 130.066 123.428 129.781 123.204C129.202 122.764 128.722 122.219 128.191 121.714C127.91 121.474 127.708 121.167 127.456 120.898C127.216 120.62 126.969 120.344 126.716 120.068C126.895 120.391 127.08 120.714 127.271 121.034L127.56 121.514L127.707 121.753L127.877 121.975C128.346 122.555 128.778 123.179 129.342 123.681C130.381 124.778 131.665 125.627 133.012 126.313C133.359 126.464 133.696 126.641 134.052 126.771L135.124 127.147L136.225 127.421C136.592 127.506 136.969 127.55 137.34 127.609C138.832 127.8 140.361 127.766 141.804 127.397Z" fill="#FFA367"/>
<path d="M141.804 125.601C140.352 124.868 138.957 124.06 137.613 123.186C136.273 122.307 134.99 121.352 133.811 120.287C132.629 119.226 131.556 118.049 130.648 116.749C130.191 116.099 129.795 115.41 129.433 114.697C129.068 113.984 128.79 113.231 128.516 112.463C128.61 113.271 128.788 114.076 129.057 114.855C129.34 115.626 129.673 116.388 130.101 117.096C130.519 117.81 131.004 118.486 131.533 119.122C132.07 119.751 132.647 120.345 133.255 120.903C134.492 121.996 135.841 122.954 137.281 123.738C138.717 124.526 140.225 125.187 141.804 125.601Z" fill="#FFA367"/>
<path d="M136.813 94.3496C136.813 94.3496 139.313 124.011 141.804 126.085C142.946 133.138 144.399 134.072 144.399 134.072C144.399 134.072 143.361 144.651 149.694 148.385C156.026 152.119 158.517 148.593 157.791 144.132C157.064 139.672 158.658 133.656 157.913 130.441C157.168 127.226 155.715 118.409 155.196 115.712C154.677 113.016 155.197 111.29 151.77 109.222C148.344 107.156 136.813 94.3496 136.813 94.3496Z" fill="#FFBA87"/>
<path d="M136.5 93.8721C136.5 93.8721 139.313 124.011 141.804 126.086C142.946 133.138 144.399 134.072 144.399 134.072C144.399 134.072 143.361 144.652 149.693 148.385C156.026 152.119 157.266 149.008 156.539 144.547C155.812 140.087 156.48 133.369 155.735 130.154C154.99 126.938 153.373 119.788 152.854 117.091C152.335 114.395 152.855 112.669 149.429 110.602C146.003 108.535 136.5 93.8721 136.5 93.8721Z" fill="#F7AF79"/>
<path d="M146.853 109.47C150.042 116.156 148.321 121.386 149.152 126.179C149.152 127.423 151.09 133.37 151.09 134.2C149.802 140.888 151.55 146.776 155.735 149.694C154.384 150.246 152.388 149.975 149.693 148.387C143.361 144.653 144.399 134.073 144.399 134.073C144.399 134.073 142.945 133.14 141.804 126.087C139.312 124.013 134.26 115.096 134.26 115.096C134.26 115.096 133.689 100.556 138.325 98.7169C139.433 98.2771 144.987 105.719 146.853 109.47Z" fill="#FFA66B"/>
<path d="M156.54 137.156C156.788 136.702 157.451 136.487 157.86 136.807C157.645 139.274 157.427 141.899 157.791 144.133C157.925 144.952 157.949 145.739 157.861 146.456C157.632 145.825 157.225 145.02 156.54 144.548C155.709 143.483 156.229 137.726 156.54 137.156Z" fill="#FFD3B5"/>
<path d="M96.9627 148.555C96.9627 148.555 96.4741 143.698 98.0699 124.768C100.007 101.793 93.7215 101.787 87.0773 98.7443C80.4335 95.7017 73.4153 91.2298 65.531 93.0882C63.4125 93.5874 51.3693 108.137 47.4936 110.903C43.6178 113.669 56.9602 117.438 57.0986 124.491C57.237 131.545 55.7146 131.129 54.6069 133.481C53.4997 135.832 52.6693 145.374 53.0845 149.246C65.9573 144.821 96.9627 148.555 96.9627 148.555Z" fill="#F99156"/>
<path d="M57.929 130.991C59.3265 131.258 60.753 131.295 62.1497 131.139C63.5484 131.006 64.9186 130.676 66.2273 130.198C68.8463 129.233 71.1944 127.63 73.159 125.651C74.137 124.657 75.0657 123.605 75.8728 122.457C76.3074 121.906 76.6699 121.302 77.0661 120.722C77.44 120.127 77.7926 119.517 78.1563 118.914C79.5312 116.453 80.6943 113.864 81.7365 111.215C81.0013 113.963 80.0297 116.665 78.7273 119.22C77.4242 121.771 75.7839 124.18 73.7456 126.238C71.7 128.278 69.2091 129.932 66.4363 130.808C65.0562 131.252 63.6166 131.505 62.1755 131.542C61.4553 131.558 60.7351 131.529 60.0229 131.441C59.311 131.358 58.6043 131.22 57.929 130.991Z" fill="#FFA367"/>
<path d="M57.929 127.395C59.4117 127.422 60.8684 127.271 62.2849 126.97C63.6983 126.665 65.0776 126.218 66.3566 125.565C66.6893 125.427 66.9978 125.244 67.3075 125.062C67.6137 124.875 67.9417 124.722 68.2264 124.502L69.1143 123.887C69.4054 123.675 69.668 123.426 69.9519 123.202C70.5309 122.762 71.012 122.217 71.5422 121.712C71.823 121.472 72.0252 121.165 72.2766 120.896C72.517 120.618 72.764 120.342 73.0166 120.066C72.8378 120.389 72.6534 120.712 72.4622 121.032L72.1727 121.512L72.0256 121.751L71.8559 121.973C71.3875 122.553 70.9552 123.177 70.3909 123.679C69.3523 124.776 68.0678 125.625 66.721 126.311C66.3736 126.462 66.0369 126.639 65.6812 126.769L64.6093 127.145L63.5084 127.419C63.1407 127.504 62.764 127.548 62.3928 127.607C60.9013 127.798 59.3721 127.764 57.929 127.395Z" fill="#FFA367"/>
<path d="M57.929 125.598C59.3812 124.865 60.7756 124.057 62.1196 123.183C63.4596 122.304 64.7425 121.349 65.9219 120.284C67.1041 119.223 68.1772 118.046 69.085 116.746C69.5419 116.097 69.938 115.407 70.2997 114.694C70.665 113.981 70.943 113.228 71.2166 112.46C71.1234 113.268 70.9449 114.073 70.6757 114.852C70.3933 115.623 70.0598 116.385 69.6315 117.093C69.2135 117.807 68.7289 118.483 68.1998 119.119C67.6637 119.748 67.0863 120.342 66.4775 120.9C65.2414 121.993 63.8923 122.951 62.4519 123.735C61.0163 124.523 59.5077 125.184 57.929 125.598Z" fill="#FFA367"/>
<path d="M63.4003 94.2812C63.4003 94.2812 60.4204 124.008 57.9292 126.082C56.787 133.135 55.334 134.069 55.334 134.069C55.334 134.069 56.3722 144.648 50.0397 148.382C43.7072 152.116 41.2155 148.59 41.9424 144.129C42.669 139.669 41.0751 133.653 41.8203 130.438C42.5654 127.223 44.0189 118.406 44.5376 115.709C45.0567 113.013 44.5364 111.287 47.9628 109.219C51.3888 107.153 63.4003 94.2812 63.4003 94.2812Z" fill="#FFBA87"/>
<path d="M63.4002 94.2812C63.4002 94.2812 60.4203 124.008 57.9291 126.082C56.7869 133.135 55.3339 134.069 55.3339 134.069C55.3339 134.069 56.3721 144.648 50.0396 148.382C43.7071 152.116 42.4666 149.004 43.1931 144.544C43.9197 140.084 43.2522 133.366 43.9974 130.15C44.7426 126.935 46.3594 119.785 46.8785 117.088C47.3976 114.391 46.8773 112.666 50.3037 110.598C53.7297 108.532 63.4002 94.2812 63.4002 94.2812Z" fill="#F7AF79"/>
<path d="M52.88 109.464C49.6916 116.15 51.4119 121.38 50.5815 126.173C50.5815 127.418 48.6438 133.364 48.6438 134.194C49.9311 140.883 48.183 146.771 43.9979 149.688C45.3495 150.24 47.3458 149.969 50.0401 148.381C56.3726 144.647 55.3344 134.068 55.3344 134.068C55.3344 134.068 56.7879 133.134 57.9296 126.081C60.4213 124.007 65.4732 115.091 65.4732 115.091C65.4732 115.091 66.3251 99.913 61.5083 98.0745C60.5997 97.7278 57.3728 101.953 52.88 109.464Z" fill="#FFA66B"/>
<path d="M43.1924 137.152C42.9445 136.698 42.2814 136.483 41.8722 136.803C42.0871 139.271 42.3052 141.896 41.9412 144.129C41.8079 144.948 41.7837 145.735 41.8714 146.452C42.1002 145.821 42.5075 145.016 43.1924 144.544C44.0232 143.479 43.5041 137.722 43.1924 137.152Z" fill="#FFD3B5"/>
<path opacity="0.81" d="M141.765 115.895C141.765 139.805 123.797 157.944 99.8661 157.944C75.9352 157.944 58.2472 140.908 58.2472 116.998C58.2472 93.0887 99.8661 31.0674 99.8661 31.0674C99.8661 31.0674 141.765 91.9849 141.765 115.895Z" fill="url(#paint0_linear_2651_13705)"/>
<path d="M99.8666 31.0674C99.8666 31.0674 141.766 91.9849 141.766 115.895C141.766 139.805 123.797 157.944 99.8666 157.944C75.9357 157.944 58.2476 140.908 58.2476 116.998C58.2476 93.0887 99.8666 31.0674 99.8666 31.0674C99.8666 31.0674 56.536 92.6149 56.536 116.525C56.536 140.434 75.9357 159.817 99.8666 159.817C123.797 159.817 143.197 140.435 143.197 116.525C143.197 92.6145 99.8666 31.0674 99.8666 31.0674Z" fill="url(#paint1_linear_2651_13705)"/>
<g opacity="0.49">
<path d="M138.697 126.144C133.642 147.599 112.136 160.899 90.6618 155.849C69.1864 150.797 55.8754 129.31 60.9302 107.855C65.9857 86.3988 87.492 73.0997 108.966 78.1497C130.441 83.2012 143.752 104.689 138.697 126.144Z" fill="#E1FCFF"/>
<path d="M111.826 86.1087C111.635 86.0969 111.436 86.1087 111.224 86.1591C110.402 86.3564 109.51 86.6849 108.749 87.0296C108.946 87.4634 109.456 87.2772 109.833 87.3145C110.233 87.3537 110.209 87.3818 110.525 87.6013C111.077 87.9833 112.264 87.6683 112.644 88.2872C112.345 88.5578 112.681 88.7246 112.975 88.706C112.872 88.7746 112.8 88.922 112.691 88.9933C113.14 89.5488 113.886 89.0135 114.421 89.4589C115.012 89.9514 114.649 90.7367 115.153 91.2898C115.36 91.5169 115.685 91.7693 115.958 91.9135C116.274 92.0807 116.788 92.0272 117.061 92.2222C117.543 92.5661 116.916 92.8236 116.659 93.0293C117.044 94.0591 118.888 95.9253 120.109 95.4744C120.084 95.2945 119.965 95.1923 119.833 95.0453C120.209 94.7362 120.355 93.8507 120.901 94.4351C121.228 94.7862 120.913 95.2977 121.201 95.6218C121.35 95.7886 121.699 95.7716 121.885 95.9091C122.015 96.0046 122.036 96.2376 122.175 96.3049C122.557 96.4899 123.296 96.2546 123.645 96.083C123.828 96.4309 123.817 96.7701 124.267 96.8097C124.673 96.845 124.925 96.5161 125.362 96.6128C125.891 96.7289 126.494 97.1897 126.942 97.4841C126.933 97.4239 126.72 96.6789 126.683 96.6682C126.855 96.719 128.021 97.0348 127.62 96.5387C127.685 96.5137 127.753 96.4705 127.824 96.4448C127.621 96.1611 126.924 95.7811 127.33 95.3975C127.204 95.2597 126.906 95.0817 126.848 94.8939C126.751 94.5706 126.962 94.6257 126.984 94.4014C127.023 93.9886 126.692 93.5396 126.819 93.1549C127.166 93.2365 127.372 93.6038 127.746 93.58C127.343 92.7337 128.869 93.6827 129.068 93.9818C129.01 93.6906 128.835 93.4426 128.693 93.189C128.775 93.1826 128.886 93.105 128.974 93.097C128.968 92.6279 128.321 92.599 128.093 92.2654C128.188 92.2329 128.986 91.9266 128.991 91.9337C128.825 91.6504 128.505 91.4 128.199 91.255C128.198 91.2974 128.225 91.356 128.231 91.4087C128.042 91.4836 127.846 91.3659 127.728 91.2157C127.4 90.8029 126.25 90.0306 125.654 90.3413C125.616 89.9668 125.183 89.8234 125.204 90.2985C125.163 90.3068 125.123 90.308 125.083 90.302C125.116 90.3734 125.12 90.4843 125.139 90.5588C125.144 90.5719 124.482 90.5188 124.404 90.4712C124.149 90.3139 124.129 89.8717 123.707 89.9625C123.361 90.0374 123.278 90.4609 122.901 90.4859C122.863 89.8067 122.034 89.9343 121.58 89.7762C120.928 89.5496 120.472 88.645 119.748 88.6763C119.802 88.7758 119.783 88.9331 119.834 89.0369C119.156 89.3396 117.958 88.767 117.432 88.3272C116.828 87.8224 116.489 87.009 115.628 86.8834C115.249 86.8283 115.095 86.9361 114.797 86.8469C113.849 86.5585 112.822 86.171 111.826 86.1087Z" fill="url(#paint2_linear_2651_13705)"/>
<path d="M112.561 83.3386C112.436 83.36 111.312 82.2803 111.239 82.1301C110.825 81.2846 111.808 81.6606 112.251 81.8056C112.642 81.934 112.977 82.3595 113.351 82.4336C113.74 82.5097 114.165 82.3881 114.563 82.4308C114.67 82.4419 115.805 82.5572 115.812 82.5664C115.38 81.8975 114.428 81.5944 113.756 81.2287C113.283 80.9696 112.842 80.7076 112.29 80.6546C111.983 80.6244 111.497 80.8245 111.438 80.3946C111.448 80.4616 111.161 80.3304 111.141 80.3083C111.638 79.7761 110.473 79.8577 110.209 79.7912C109.526 79.6168 111.281 80.1716 110.696 79.7789C111.94 79.1025 110.696 79.7789 111.858 79.7373C111.825 79.6675 111.813 79.5788 111.781 79.5098C113.159 79.8046 114.444 80.3641 115.794 80.7512C116.203 80.8681 116.781 80.9327 117.115 81.2251C117.453 81.5199 117.49 81.9974 117.785 82.3544C117.762 82.3266 116.846 82.1737 116.679 82.0528C116.633 82.0738 116.589 82.1 116.55 82.1313C116.633 82.0552 115.977 81.7798 115.914 81.7735C116.058 82.7272 117.948 83.5054 118.781 83.6798C119.278 83.7828 119.784 83.7138 119.924 84.4112C119.554 84.3446 119.241 84.0522 118.857 84.0629C118.969 84.3799 119.57 84.6779 119.808 84.9473C120.101 85.2785 120.634 85.4513 120.789 85.8792C120.327 85.9937 119.99 85.4287 119.647 85.2068C119.15 84.8855 118.419 84.7183 117.874 84.5158C117.37 84.3284 117.162 84.576 116.777 84.7848C116.211 85.0895 115.766 85.1094 115.217 84.6838C115.713 85.2441 115.956 85.5559 116.698 85.7818C117.026 85.8808 117.372 85.8566 117.693 85.9878C118.034 86.1273 118.3 86.4046 118.621 86.5825C118.932 86.7553 119.848 86.4962 119.684 87.0259C120.963 86.9296 121.35 88.4167 122.487 88.5514C122.428 88.5043 122.373 88.4476 122.313 88.4032C122.418 88.4579 122.574 88.4678 122.687 88.5165C122.764 88.5494 122.377 87.8017 122.318 87.7233C122.105 87.4368 121.762 87.1206 121.826 86.724C121.77 87.0069 122.784 87.4954 122.987 87.6234C122.972 87.3908 123.083 87.1943 123.264 87.0477C122.974 86.7442 123.248 86.1328 122.878 85.8194C122.89 85.7913 123.016 85.6062 123.052 85.6316C123.023 85.6106 122.228 85.0705 122.274 85.0412C122.847 84.666 123.291 85.4759 123.614 85.8194C123.995 86.2259 124.652 86.4763 124.863 87.0105C124.693 87.0881 124.504 87.1495 124.318 87.1888C124.525 87.2965 124.525 87.3805 124.585 87.5719C124.251 87.476 123.877 87.2431 123.536 87.4285C124.42 88.6663 126.675 87.1321 127.442 88.6188C127.298 88.6045 127.19 88.6936 127.067 88.7036C127.196 88.8616 127.345 89.0277 127.448 89.1988C127.174 89.0863 126.895 88.9698 126.644 88.8161C126.394 89.103 126.055 88.9009 125.78 89.0701C126.16 89.5333 127.306 89.5261 127.86 89.7314C127.97 89.7722 128.129 89.998 128.243 89.9838C128.528 89.9509 128.624 89.5551 128.591 89.3157C123.441 83.9627 116.74 79.9794 108.966 78.1516C106.529 77.579 104.091 77.2442 101.678 77.1289C101.373 77.1448 101.074 77.1063 100.777 77.1531C100.456 77.2046 100.068 77.5715 99.9948 77.8738C99.9297 78.1413 100.166 78.4955 100.282 78.7332C100.324 78.7146 100.362 78.6916 100.397 78.6631C100.594 79.2333 99.417 79.4056 99.7227 79.8486C100.17 79.6061 102.812 78.929 102.77 79.9077C103.465 80.0975 103.332 79.0922 103.143 78.7368C103.952 78.3683 104.405 79.7179 103.846 80.0963C103.901 80.1644 103.941 80.2207 103.963 80.3063C103.646 80.5115 103.054 80.2306 102.839 80.6664C102.874 80.5955 103.705 81.5465 103.742 81.5794C103.075 81.9514 102.617 81.0555 102.057 80.9379C101.615 80.8459 101.279 81.2675 100.865 81.3297C100.889 81.4102 100.886 81.5524 100.926 81.632C100.655 81.5152 100.545 81.138 100.121 81.1784C99.5371 81.2354 99.7529 81.5786 100.026 81.9241C99.5102 81.8032 99.1929 82.4408 98.8019 82.6987C99.0109 82.5604 99.8841 82.8354 100.08 82.9004C101.049 83.2209 101.024 82.9261 101.776 82.3869C102.247 82.0493 102.81 82.1004 103.358 82.1975C104.339 82.3722 105.16 82.3706 106.153 82.2137C107.298 82.033 108.262 82.4487 109.377 82.499C109.814 82.5196 110.157 82.3888 110.551 82.6349C110.809 82.7958 110.94 83.1536 111.248 83.2566C111.618 83.3806 111.754 83.1009 112.091 83.1195C112.338 83.1318 112.263 83.3897 112.561 83.3386Z" fill="url(#paint3_linear_2651_13705)"/>
<path d="M113.931 83.7906C114.135 83.8386 114.267 83.7098 114.473 83.7811C114.693 83.8572 114.774 84.1461 114.988 84.1821C115.213 84.2206 115.347 84.0343 115.54 84.0827C115.712 84.1259 115.831 84.446 116.079 84.4389C116.453 84.4274 116.775 83.9535 117.198 83.9032C117.628 83.8525 118.04 84.2705 118.378 84.1413C118.267 83.8493 117.995 83.6016 117.676 83.6781C117.494 83.417 117.262 83.4463 117 83.4852L117.195 83.5343C116.859 83.7245 116.574 83.3362 116.262 83.2629C116.118 83.23 115.84 83.3199 115.672 83.2744C115.51 83.2312 115.377 83.1143 115.207 83.0663C115.127 83.0445 114.828 83.0695 114.693 83.0426C114.529 83.0113 114.324 82.9574 114.133 82.9372C113.785 82.9015 113.366 83.0477 113.032 83.1099C113.211 83.3385 114.134 83.455 113.931 83.7906Z" fill="url(#paint4_linear_2651_13705)"/>
<path d="M138.697 126.145C140.091 120.225 140.482 113.198 138.561 107.339C138.452 107.299 138.259 107.21 138.143 107.181C138.219 107.3 138.244 107.383 138.362 107.491C138.298 108.122 138.837 109.01 139.065 109.761C137.193 108.423 139.337 113.41 137.558 113.343C137.684 112.885 137.4 112.649 137.334 112.229C137.241 111.638 137.464 111.055 137.451 110.463C137.425 109.195 136.877 108.563 136.181 107.601C135.937 107.86 135.961 108.211 136.14 108.53C136.118 108.523 136.094 108.518 136.068 108.515C135.817 108.484 135.548 109.689 135.249 109.877C134.531 110.328 134.75 109.965 134.892 110.798C135.002 111.441 134.901 112.056 135.127 112.683C135.349 113.3 136.169 114.042 135.556 114.671C135.55 114.19 135.279 112.851 134.51 113.009C133.853 113.142 134.32 114.28 134.378 114.717C134.406 114.931 134.317 119.193 133.215 118.056C132.97 117.802 133.834 116.839 133.896 116.536C134.065 115.72 133.507 114.924 133.532 114.103C133.541 113.789 133.992 112.712 133.524 112.521C133.031 112.32 132.964 113.342 132.958 113.633C132.949 114.012 133.361 115.175 132.941 115.415C132.551 115.639 131.833 114.547 131.556 114.309C131.544 114.653 131.427 114.966 131.145 115.151C130.49 114.594 129.901 114.361 129.055 114.245C128.806 114.211 128.513 114.505 128.334 114.233C128.127 113.915 128.503 113.584 128.783 113.51C127.322 113.034 126.302 115.869 124.715 114.069C123.135 112.279 126.649 113.192 127.242 113.257C126.811 113.21 126.208 110.279 126.134 109.855C125.988 109.012 126.139 108.003 125.401 107.408C124.626 106.783 123.352 106.68 122.406 106.566C120.001 106.273 117.826 106.026 115.537 105.158C115.582 105.785 114.899 105.681 114.46 105.626C114.483 105.748 114.432 105.899 114.45 106.014C113.735 106.09 113.222 106.058 113.336 106.931C113.441 107.735 114.134 107.773 114.74 108.049C114.433 109.534 111.322 112.037 114.591 111.881C115.696 111.829 116.805 111.591 117.492 110.692C118.257 109.691 118.04 109.086 119.519 109.28C119.926 109.334 122.355 109.525 122.56 109.846C122.935 110.437 122.188 110.868 121.762 110.996C120.844 111.273 118.887 110.575 118.923 112.092C118.95 113.234 120.525 113.564 120.976 114.44C121.63 115.71 120.738 116.894 119.379 116.802C121.126 114.865 118.705 112.573 117.281 115.287C117.174 113.908 116.305 114.583 115.506 114.696C113.794 114.937 111.876 112.967 111.214 111.52C110.984 111.019 110.711 110.114 111.228 109.69C111.674 109.326 112.357 109.747 112.826 109.494C113.301 109.238 113.386 108.806 112.968 108.394C112.487 107.918 111.945 108.2 111.452 108.456C110.764 108.812 110.534 109.042 109.722 108.852C108.535 108.574 107.337 108.122 106.16 107.791C105.597 107.633 105.158 107.337 104.712 106.966C104.376 106.685 104.161 106.25 103.794 106.005C103.435 105.765 102.983 105.782 102.703 105.405C102.497 105.128 102.805 104.488 102.224 104.433C100.891 104.307 101.087 107.109 101.497 107.746C100.65 107.809 99.001 108.554 98.4196 108.175C97.8434 107.801 97.3207 106.345 97.1276 105.726C96.8492 104.831 97.0733 103.209 95.5988 103.858C95.0452 104.102 94.8362 104.477 94.1763 104.529C93.3811 104.592 92.4555 103.817 91.7159 104.325C91.7536 105.083 91.2952 105.454 91.1453 106.11C90.669 108.195 91.5438 110.172 93.5422 110.881C95.0214 111.405 94.4559 110.08 95.5623 109.498C95.4453 109.3 95.483 108.971 95.3795 108.791C96.4994 108.608 96.6763 110.379 97.9671 110.374C98.6251 110.372 99.0002 109.724 99.6589 110.289C100.098 110.666 100.112 111.755 100.304 112.279C100.775 113.561 102.297 113.848 102.048 115.276C101.759 116.926 100.868 117.885 101.499 119.685C100.923 120.132 100.955 120.987 100.759 121.636C99.9429 121.416 98.5493 119.188 97.9632 119.46C97.3108 119.761 98.2305 121.955 97.6725 122.704C98.4482 122.744 98.5739 121.914 99.1259 121.833C99.7835 121.736 100.21 122.719 100.981 122.511C101.406 122.395 101.796 121.35 102.161 121.527C102.473 121.681 101.916 122.866 102.584 122.565C103.265 122.258 102.681 120.877 102.68 120.401C102.68 119.456 103.241 118.76 103.417 117.864C103.514 117.377 103.341 116.296 103.927 116.042C104.588 115.754 104.881 116.502 104.951 116.996C105.045 117.661 103.896 119.516 105.309 119.393C105.077 119.474 104.906 119.707 104.626 119.785C104.467 122.173 100.44 124.673 101.815 127.224C102.179 127.021 102.477 126.714 102.83 126.493C102.889 126.803 103.035 127.1 102.978 127.444C103.817 127.281 103.75 125.477 104.705 124.94C104.779 125.19 104.925 125.455 104.843 125.794C107.027 124.254 105.632 127.456 105.038 128.258C104.851 128.104 104.534 128.025 104.371 127.851C104.708 128.415 104.427 128.994 103.916 129.325C104.216 129.696 104.541 130.075 104.692 130.524C104.684 130.501 104.36 130.695 104.381 130.68C104.46 131.421 105.433 131.533 105.89 131C105.831 131.068 106.247 132.741 106.378 132.928C106.537 133.153 108.088 133.69 108.149 133.468C107.937 134.235 106.632 135.656 105.792 135.311C105.829 135.45 105.952 135.521 105.981 135.673C104.578 135.344 105.279 136.769 104.404 137.277C103.832 137.61 102.69 137.212 102.094 137.189C101.963 137.749 101.812 138.034 101.554 138.544C101.64 138.694 101.773 138.74 101.841 138.885C101.13 140.285 100.607 143.133 102.014 144.213C101.603 144.168 101.026 144.199 100.608 144.052C100.646 144.007 100.419 144.512 100.446 144.454C98.2951 143.734 100.831 147.064 99.0006 147.446C99.1489 147.661 99.162 147.492 99.0054 147.709C99.3357 148.528 98.2868 148.789 98.2769 149.648C96.0319 150.576 99.7049 151.278 100.365 151.35C100.699 151.386 101.998 151.572 102.289 151.396C103.28 150.792 102.644 149.026 103.75 150.913C103.979 151.302 104.551 151.28 104.836 151.66C105.151 151.491 105.293 151.575 105.589 151.68C105.911 151.794 106.089 151.805 106.436 151.792C107.118 151.767 107.775 151.95 108.465 151.899C109.914 151.793 111.315 150.923 112.665 150.447C113.108 150.289 113.595 150.215 113.858 149.779C114.152 149.296 113.91 149.459 113.572 149.611C113.188 149.784 112.713 149.836 112.436 149.429C112.119 148.964 112.641 148.505 112.93 148.153C112.588 147.683 111.884 147.792 111.41 147.918C111.096 148.001 110.767 148.101 110.522 148.318C110.173 148.624 110.099 148.792 109.549 148.66C109.56 148.705 109.564 148.758 109.577 148.805C109.271 148.901 108.602 149.258 108.389 148.842C108.194 148.463 109.097 147.551 109.222 147.149C109.335 146.787 109.402 146.518 109.659 146.225C109.86 145.999 110.225 145.791 110.228 145.449C110.234 144.814 109.499 144.82 110.411 144.431C110.231 143.736 111.647 143.273 111.953 143.921C112.099 144.231 111.354 145.741 110.994 145.592C112.099 146.05 112.868 147.035 114.093 147.436C113.929 147.559 113.754 147.83 113.568 147.954C114.727 148.357 118.42 149.109 118.319 150.51C118.156 150.632 117.903 150.875 117.791 150.949C118.188 151.096 118.833 151.091 119.299 150.958C118.919 152.262 117.299 151.832 116.8 153.093C127.82 148.632 136.032 137.46 138.697 126.145Z" fill="url(#paint5_linear_2651_13705)"/>
<path d="M92.0014 156.043C95.2676 156.505 102.657 157.896 106.174 156.919C105.558 156.565 104.867 150.086 104.097 149.953C104.216 149.868 102.418 149.748 101.245 150.493C100.303 151.091 99.2071 150.791 98.4885 149.937C97.7549 149.065 96.9705 149.265 95.9195 148.795C97.6553 148.443 96.5747 149.358 96.4482 147.343C96.4077 146.692 96.3034 145.463 96.1769 144.828C95.8751 143.363 94.823 142.945 96.4882 142.522C96.1765 142.602 99.3463 142.858 98.1796 142.005C98.1622 141.992 98.3382 142.299 98.339 142.262C100.322 141.196 100.232 138.173 102.494 137.225C103.422 136.836 104.936 137.684 104.737 135.785C100.717 135.995 100.4 131.412 98.5603 129.019C98.2335 128.594 97.9647 128.126 97.4277 127.927C96.9637 127.754 96.2146 128.139 95.9255 128.006C94.3384 127.276 95.3346 125.401 96.1492 124.222C92.9881 124.177 95.4099 121.853 93.7134 121.328C93.5401 120.067 95.1014 120.383 95.4512 119.353C96.1912 119.608 96.6409 119.111 96.9784 118.487C97.3294 117.838 93.1788 113.996 92.5597 113.397C91.192 112.074 89.6299 110.544 90.1617 108.453C89.4673 108.031 88.7165 108.329 87.9912 108.036C87.2702 107.745 87.0335 107.016 86.2142 106.845C84.5517 106.498 83.751 108.497 82.6573 108.583C81.2954 108.689 80.6784 106.052 79.3887 105.459C78.5821 105.089 71.3965 105.723 71.4453 106.446C71.4207 106.087 71.1011 105.644 71.0816 105.298C70.4923 105.643 70.3008 106.651 69.9665 107.266C69.3887 108.328 69.3173 108.814 68.9818 110.08C68.592 111.546 67.5121 112.145 66.5528 113.103C67.871 113.985 66.6983 114.834 66.4719 115.884C66.0305 117.932 67.6453 121.335 68.8989 122.893C69.4065 123.524 70.0541 124.324 70.7533 124.746C71.3822 125.125 72.0469 125.022 72.405 125.774C71.2569 126.36 70.7945 127.845 70.9984 129.07C71.1205 129.054 71.2791 129.125 71.3985 129.114C71.3926 129.443 71.3454 129.777 71.3041 130.105C71.6706 129.908 72.0533 129.727 72.3963 129.49C71.8871 129.841 72.2309 131.806 71.7776 132.387C71.2292 133.089 69.7896 132.854 69.2709 133.646C69.2681 133.651 69.2657 133.656 69.263 133.659C68.291 135.144 69.5191 136.927 70.2302 138.228C69.9225 137.965 69.3776 137.51 68.9366 137.698C68.4754 137.893 68.5876 138.499 68.7034 138.878C68.5269 138.88 68.1573 138.881 68.0986 139.101C68.0284 139.364 68.3588 139.404 68.5007 139.524C68.6859 139.682 69.3252 140.563 68.9413 140.746C68.5701 140.923 68.2878 139.894 68.0522 139.739C67.8202 139.587 67.7246 139.68 67.5109 139.387C67.2214 138.988 66.7518 138.52 66.2442 138.419C66.1717 138.402 66.0416 138.562 65.9361 138.553C65.927 138.551 65.9194 138.547 65.9115 138.546C70.0692 145.023 76.092 150.311 83.4377 153.531C83.4607 153.499 83.4881 153.471 83.5242 153.45C83.6915 153.352 83.8886 153.455 84.0552 153.397C84.2039 153.344 84.3229 153.188 84.4605 153.097C83.6217 152.974 84.2321 152.463 84.4355 152.317C84.9404 151.955 86.6476 152.615 87.1663 152.768C88.7384 153.232 90.5344 155.836 92.0014 156.043Z" fill="url(#paint6_linear_2651_13705)"/>
</g>
<path opacity="0.74" d="M100.519 34.7588C100.519 34.7588 124.003 75.5019 130.349 95.2677C136.694 115.034 128.597 142.093 110.227 145.45C89.4144 149.739 90.1076 130.978 103.599 122.328C115.505 114.694 111.737 103.942 109.447 81.0558C107.207 58.6795 100.519 34.7588 100.519 34.7588Z" fill="white" fill-opacity="0.3"/>
<path opacity="0.75" d="M120.395 93.6113C120.395 93.6113 121.824 119.186 107.891 128.4C93.9577 137.615 104.203 144.704 113.699 137.804C123.195 130.905 127.674 115.988 120.395 93.6113Z" fill="#E1FCFF"/>
<path d="M87.2107 162.938C87.2107 162.938 93.4211 166.717 96.328 164.689C99.2348 162.661 99.5993 159.273 99.6247 157.751C99.6501 156.23 96.6048 154.583 95.0129 155.406C93.4211 156.23 87.2107 162.938 87.2107 162.938Z" fill="#FFA66B"/>
<path d="M93.56 161.232C94.3908 159.365 95.6361 156.496 97.193 157.083C98.2162 157.47 99.0462 158.555 99.4967 159.255C99.5871 158.667 99.6181 158.146 99.6244 157.751C99.6498 156.23 96.6045 154.583 95.0127 155.406C93.4208 156.23 87.2104 162.938 87.2104 162.938C87.2104 162.938 88.5802 163.771 90.3343 164.445C92.3009 164.234 92.8505 162.827 93.56 161.232Z" fill="#FFB684"/>
<path d="M95.6008 156.818C95.6008 156.818 96.6656 157.741 98.2095 157.875C98.4466 157.896 98.6088 158.124 98.5486 158.354C97.9866 160.506 97.224 161.16 96.6732 161.451C96.085 161.762 92.8847 161.05 93.3165 159.135C93.7488 157.22 95.6008 156.818 95.6008 156.818Z" fill="#FFC399"/>
<path d="M93.5599 160.321C94.108 161.081 95.3326 161.469 96.1004 161.516C95.6459 160.602 94.7072 160.065 93.5599 160.321Z" fill="#FFDCC4"/>
<path d="M79.1071 161.97C79.1071 161.97 81.287 166.534 87.1004 163.837C92.9138 161.141 97.7929 155.229 99.3502 151.287C100.908 147.346 95.4055 144.545 93.5368 144.234C91.6682 143.923 89.9034 144.925 87.3082 149.247C84.713 153.569 79.1071 161.97 79.1071 161.97Z" fill="#FFA66B"/>
<path d="M93.5368 144.234C91.6682 143.923 89.9034 144.925 87.3082 149.247C84.713 153.569 79.1071 161.97 79.1071 161.97C79.1071 161.97 79.7352 165.857 85.4122 161.268C88.816 158.516 90.0644 154.785 91.8815 150.948C93.6982 147.11 96.3454 148.251 98.0582 149.955C98.7173 150.61 98.9437 151.406 98.9711 152.146C99.1123 151.852 99.2416 151.564 99.3506 151.288C100.908 147.346 95.4055 144.545 93.5368 144.234Z" fill="#FFB684"/>
<path d="M91.1024 155.712C91.1024 155.712 91.1543 156.819 93.7828 157.393C94.7814 157.642 96.8745 156.5 98.9078 152.306C99.0192 152.076 98.8963 151.794 98.6468 151.739C97.513 151.486 95.4786 150.426 94.6608 149.624C94.4261 149.394 94.0477 149.41 93.8387 149.664C92.4067 151.407 90.5749 154.641 91.1024 155.712Z" fill="#FFC399"/>
<path d="M91.1024 155.712C91.1024 155.712 91.1543 156.819 93.7828 157.393C94.7814 157.642 96.8745 156.5 98.9078 152.306C99.0192 152.076 98.8963 151.794 98.6468 151.739C97.513 151.486 95.4786 150.426 94.6608 149.624C94.4261 149.394 94.0477 149.41 93.8387 149.664C92.4067 151.407 90.5749 154.641 91.1024 155.712Z" fill="#FFC399"/>
<path d="M91.2805 156.124C91.5407 156.498 92.1839 157.044 93.7829 157.393C93.9653 157.439 94.1866 157.435 94.4353 157.377C93.8198 156.164 92.573 155.875 91.2805 156.124Z" fill="#FFDCC4"/>
<path d="M66.3389 156.318C66.3389 156.318 63.2765 161.867 69.2458 165.912C75.215 169.957 82.5338 161.452 85.077 158.548C87.6203 155.643 91.7208 148.902 90.3713 146.153C89.0218 143.404 85.5961 141.641 82.5854 142.419C79.575 143.197 74.9485 149.368 72.2006 151.235C69.4532 153.102 66.3389 156.318 66.3389 156.318Z" fill="#FFA66B"/>
<path d="M82.5854 142.419C79.575 143.197 74.9486 149.368 72.2007 151.235C69.4532 153.102 66.3389 156.317 66.3389 156.317C66.3389 156.317 65.3554 158.103 65.5914 160.386C65.6679 160.441 65.7401 160.496 65.8198 160.55C71.789 164.595 78.4444 154.997 80.3765 151.656C81.7696 149.247 83.2976 147.113 84.2903 145.438C84.7487 144.664 88.9286 145.72 90.409 149.095C90.7001 147.927 90.735 146.894 90.3713 146.153C89.0218 143.404 85.5962 141.641 82.5854 142.419Z" fill="#FFB684"/>
<path d="M81.6213 152.418C81.6213 152.418 81.9675 154.767 85.4859 155.187C86.9076 155.187 87.9772 153.976 89.807 149.851C89.897 149.648 89.8102 149.409 89.6083 149.315C88.5955 148.846 86.1371 147.525 85.1342 146.638C84.8482 146.385 84.4076 146.421 84.1729 146.722C82.8483 148.418 81.1482 151.413 81.6213 152.418Z" fill="#FFC399"/>
<path d="M81.7709 152.887C82.0663 153.58 82.932 154.834 85.3504 155.166C84.4025 153.961 83.1002 153.021 81.7709 152.887Z" fill="#FFDCC4"/>
<path d="M52.9833 147.396C52.9833 147.396 52.0469 153.943 58.2759 157.23C64.5045 160.517 71.7024 155.054 74.4015 153.118C77.1006 151.182 78.968 148.648 80.1451 147.252C81.3221 145.857 77.8616 140.049 73.017 140.948C68.1725 141.847 62.3607 145.789 59.9368 146.963C57.5129 148.138 52.9833 147.396 52.9833 147.396Z" fill="#FFA66B"/>
<path d="M73.0171 140.948C68.1725 141.847 62.3607 145.789 59.9368 146.963C57.513 148.138 52.9833 147.396 52.9833 147.396C52.9833 147.396 55.703 153.487 60.5475 151.62C63.0606 150.652 68.0404 148.381 72.2005 145.742C76.1865 143.214 79.2928 145.743 79.8492 147.609C79.9516 147.484 80.0515 147.364 80.1451 147.253C81.3217 145.857 77.8616 140.049 73.0171 140.948Z" fill="#FFB684"/>
<path d="M76.8907 145.537C77.4122 146.188 78.251 147.187 79.014 147.877C79.2087 148.053 79.2274 148.351 79.0525 148.546C76.3566 151.572 75.9275 152.803 73.3628 152.314C70.6982 151.805 70.8366 148.797 71.8749 147.794C72.6089 147.085 74.5569 145.921 75.6348 145.3C76.0556 145.058 76.5878 145.158 76.8907 145.537Z" fill="#FFC399"/>
<path d="M71.2014 149.995C71.297 150.993 71.8851 151.971 73.2402 152.281C72.9765 151.214 72.5625 150.319 71.2014 149.995Z" fill="#FFDCC4"/>
<path d="M112.523 162.938C112.523 162.938 106.313 166.717 103.406 164.689C100.499 162.661 100.135 159.273 100.109 157.751C100.084 156.23 103.129 154.583 104.721 155.406C106.313 156.23 112.523 162.938 112.523 162.938Z" fill="#FFA66B"/>
<path d="M106.174 161.232C105.343 159.365 104.098 156.496 102.541 157.083C101.518 157.47 100.688 158.555 100.237 159.255C100.147 158.667 100.116 158.146 100.11 157.751C100.084 156.23 103.129 154.583 104.721 155.406C106.313 156.23 112.524 162.938 112.524 162.938C112.524 162.938 111.154 163.771 109.4 164.445C107.433 164.234 106.883 162.827 106.174 161.232Z" fill="#FFB684"/>
<path d="M104.133 156.818C104.133 156.818 103.068 157.741 101.524 157.875C101.287 157.896 101.125 158.124 101.185 158.354C101.747 160.506 102.51 161.16 103.061 161.451C103.649 161.762 106.849 161.05 106.417 159.135C105.985 157.22 104.133 156.818 104.133 156.818Z" fill="#FFC399"/>
<path d="M106.174 160.321C105.626 161.081 104.402 161.469 103.634 161.516C104.088 160.602 105.027 160.065 106.174 160.321Z" fill="#FFDCC4"/>
<path d="M120.627 161.97C120.627 161.97 118.447 166.534 112.633 163.837C106.82 161.141 101.941 155.229 100.384 151.287C98.8263 147.346 104.328 144.545 106.197 144.234C108.066 143.923 109.831 144.925 112.426 149.247C115.021 153.569 120.627 161.97 120.627 161.97Z" fill="#FFA66B"/>
<path d="M106.197 144.234C108.066 143.923 109.83 144.925 112.425 149.247C115.021 153.569 120.627 161.97 120.627 161.97C120.627 161.97 119.998 165.857 114.321 161.268C110.918 158.516 109.669 154.785 107.852 150.948C106.035 147.11 103.388 148.251 101.676 149.955C101.016 150.61 100.79 151.406 100.763 152.146C100.621 151.852 100.492 151.564 100.383 151.288C98.8261 147.346 104.328 144.545 106.197 144.234Z" fill="#FFB684"/>
<path d="M108.631 155.712C108.631 155.712 108.579 156.819 105.951 157.393C104.952 157.642 102.859 156.5 100.826 152.306C100.714 152.076 100.837 151.794 101.087 151.739C102.221 151.486 104.255 150.426 105.073 149.624C105.307 149.394 105.686 149.41 105.895 149.664C107.326 151.407 109.159 154.641 108.631 155.712Z" fill="#FFC399"/>
<path d="M108.631 155.712C108.631 155.712 108.579 156.819 105.951 157.393C104.952 157.642 102.859 156.5 100.826 152.306C100.714 152.076 100.837 151.794 101.087 151.739C102.221 151.486 104.255 150.426 105.073 149.624C105.307 149.394 105.686 149.41 105.895 149.664C107.326 151.407 109.159 154.641 108.631 155.712Z" fill="#FFC399"/>
<path d="M108.453 156.124C108.193 156.498 107.55 157.044 105.951 157.393C105.768 157.439 105.547 157.435 105.298 157.377C105.914 156.164 107.161 155.875 108.453 156.124Z" fill="#FFDCC4"/>
<path d="M133.396 156.318C133.396 156.318 136.458 161.867 130.489 165.912C124.52 169.957 117.201 161.452 114.658 158.548C112.114 155.643 108.014 148.902 109.363 146.153C110.713 143.404 114.138 141.641 117.149 142.419C120.16 143.197 124.786 149.368 127.534 151.235C130.281 153.102 133.396 156.318 133.396 156.318Z" fill="#FFA66B"/>
<path d="M117.149 142.419C120.16 143.197 124.786 149.368 127.534 151.235C130.282 153.102 133.396 156.317 133.396 156.317C133.396 156.317 134.379 158.103 134.143 160.386C134.067 160.441 133.995 160.496 133.915 160.55C127.946 164.595 121.29 154.997 119.358 151.656C117.965 149.247 116.437 147.113 115.445 145.438C114.986 144.664 110.806 145.72 109.326 149.095C109.035 147.927 109 146.894 109.363 146.153C110.713 143.404 114.139 141.641 117.149 142.419Z" fill="#FFB684"/>
<path d="M118.113 152.418C118.113 152.418 117.766 154.767 114.248 155.187C112.826 155.187 111.757 153.976 109.927 149.851C109.837 149.648 109.924 149.409 110.125 149.315C111.138 148.846 113.597 147.525 114.6 146.638C114.886 146.385 115.326 146.421 115.561 146.722C116.886 148.418 118.586 151.413 118.113 152.418Z" fill="#FFC399"/>
<path d="M117.963 152.887C117.668 153.58 116.802 154.834 114.384 155.166C115.332 153.961 116.634 153.021 117.963 152.887Z" fill="#FFDCC4"/>
<path d="M146.751 147.396C146.751 147.396 147.687 153.943 141.458 157.23C135.23 160.517 128.032 155.054 125.333 153.118C122.634 151.182 120.766 148.648 119.589 147.252C118.412 145.857 121.873 140.049 126.717 140.948C131.562 141.847 137.374 145.789 139.797 146.963C142.221 148.138 146.751 147.396 146.751 147.396Z" fill="#FFA66B"/>
<path d="M126.717 140.949C131.562 141.848 137.374 145.79 139.797 146.964C142.221 148.139 146.751 147.397 146.751 147.397C146.751 147.397 144.031 153.488 139.187 151.621C136.674 150.653 131.694 148.382 127.534 145.743C123.548 143.215 120.441 145.744 119.885 147.61C119.783 147.485 119.683 147.365 119.589 147.254C118.412 145.858 121.873 140.049 126.717 140.949Z" fill="#FFB684"/>
<path d="M122.843 145.537C122.322 146.188 121.483 147.187 120.72 147.877C120.525 148.053 120.507 148.351 120.682 148.546C123.378 151.572 123.807 152.803 126.371 152.314C129.036 151.805 128.897 148.797 127.859 147.794C127.125 147.085 125.177 145.921 124.099 145.3C123.679 145.058 123.146 145.158 122.843 145.537Z" fill="#FFC399"/>
<path d="M128.533 149.995C128.437 150.993 127.849 151.971 126.494 152.281C126.757 151.214 127.172 150.319 128.533 149.995Z" fill="#FFDCC4"/>
<defs>
<linearGradient id="paint0_linear_2651_13705" x1="162.698" y1="31.0674" x2="14.1063" y2="86.0668" gradientUnits="userSpaceOnUse">
<stop stop-color="#1F8297"/>
<stop offset="0.448113" stop-color="#166C7D"/>
<stop offset="1" stop-color="#003940"/>
</linearGradient>
<linearGradient id="paint1_linear_2651_13705" x1="164.918" y1="31.0674" x2="11.5759" y2="89.104" gradientUnits="userSpaceOnUse">
<stop stop-color="#1F8297"/>
<stop offset="0.448113" stop-color="#166C7D"/>
<stop offset="1" stop-color="#003940"/>
</linearGradient>
<linearGradient id="paint2_linear_2651_13705" x1="134.161" y1="86.1045" x2="113.691" y2="106.656" gradientUnits="userSpaceOnUse">
<stop stop-color="#1F8297"/>
<stop offset="0.448113" stop-color="#166C7D"/>
<stop offset="1" stop-color="#003940"/>
</linearGradient>
<linearGradient id="paint3_linear_2651_13705" x1="136.065" y1="77.1289" x2="113.728" y2="106.238" gradientUnits="userSpaceOnUse">
<stop stop-color="#1F8297"/>
<stop offset="0.448113" stop-color="#166C7D"/>
<stop offset="1" stop-color="#003940"/>
</linearGradient>
<linearGradient id="paint4_linear_2651_13705" x1="119.718" y1="82.9316" x2="117.545" y2="87.2649" gradientUnits="userSpaceOnUse">
<stop stop-color="#1F8297"/>
<stop offset="0.448113" stop-color="#166C7D"/>
<stop offset="1" stop-color="#003940"/>
</linearGradient>
<linearGradient id="paint5_linear_2651_13705" x1="152.119" y1="103.709" x2="76.6441" y2="145.695" gradientUnits="userSpaceOnUse">
<stop stop-color="#1F8297"/>
<stop offset="0.448113" stop-color="#166C7D"/>
<stop offset="1" stop-color="#003940"/>
</linearGradient>
<linearGradient id="paint6_linear_2651_13705" x1="116.266" y1="105.298" x2="47.8123" y2="135.123" gradientUnits="userSpaceOnUse">
<stop stop-color="#1F8297"/>
<stop offset="0.448113" stop-color="#166C7D"/>
<stop offset="1" stop-color="#003940"/>
</linearGradient>
</defs>
</svg>
