<svg width="118" height="136" viewBox="0 0 118 136" fill="none" xmlns="http://www.w3.org/2000/svg">
<path d="M61.7706 117.558C61.7706 117.558 59.279 112.717 60.6634 93.7708C62.0478 74.8243 63.0623 71.9231 69.7061 68.8805C76.3499 65.8379 85.2764 58.5805 92.5754 62.0911C97.4663 64.4435 108.073 76.9568 111.949 79.7225C115.825 82.4886 101.773 86.441 101.634 93.4943C101.496 100.548 103.018 100.132 104.126 102.484C105.233 104.835 106.064 114.377 105.648 118.249C92.7761 113.824 61.7706 117.558 61.7706 117.558Z" fill="#F99156"/>
<path d="M100.804 99.994C99.4063 100.261 97.9798 100.298 96.583 100.142C95.1843 100.009 93.8142 99.679 92.5055 99.2007C89.8865 98.2359 87.5384 96.6332 85.5737 94.6544C84.5958 93.6602 83.667 92.6079 82.86 91.4596C82.4253 90.9084 82.0629 90.305 81.6667 89.7249C81.2927 89.1302 80.9401 88.5204 80.5765 87.9169C79.2016 85.4555 78.0384 82.8666 76.9962 80.2178C77.7315 82.966 78.7031 85.6675 80.0054 88.2232C81.3086 90.7737 82.9488 93.1832 84.9872 95.2412C87.0327 97.281 89.5236 98.9348 92.2965 99.8109C93.6765 100.255 95.1161 100.507 96.5573 100.545C97.2774 100.561 97.9976 100.532 98.7099 100.444C99.4213 100.361 100.128 100.223 100.804 99.994Z" fill="#FFA367"/>
<path d="M100.804 96.3974C99.3213 96.4236 97.8647 96.2734 96.4481 95.9723C95.0348 95.6668 93.6555 95.2198 92.3765 94.5668C92.0438 94.4293 91.7352 94.2463 91.4255 94.0644C91.1194 93.8774 90.7914 93.7241 90.5067 93.5037L89.6187 92.8892C89.3276 92.6772 89.0655 92.428 88.7812 92.2041C88.2022 91.7643 87.7215 91.2191 87.1909 90.7143C86.9101 90.4738 86.7079 90.1671 86.4564 89.8977C86.2161 89.6195 85.969 89.3437 85.7164 89.0684C85.8953 89.3913 86.0797 89.7138 86.2708 90.034L86.5603 90.5138L86.7075 90.7527L86.8772 90.975C87.3456 91.5551 87.7778 92.1788 88.3422 92.6808C89.3808 93.7783 90.6653 94.6267 92.0121 95.3125C92.3595 95.4643 92.6957 95.6414 93.0519 95.7714L94.1238 96.1474L95.2247 96.4212C95.5923 96.5064 95.9691 96.5496 96.3403 96.609C97.8318 96.7996 99.361 96.7659 100.804 96.3974Z" fill="#FFA367"/>
<path d="M100.804 94.6011C99.3517 93.8676 97.9574 93.0597 96.6134 92.186C95.2734 91.3072 93.9904 90.3519 92.811 89.2868C91.6288 88.2261 90.5557 87.0493 89.6479 85.7485C89.1911 85.0995 88.7949 84.4096 88.4332 83.6972C88.068 82.9844 87.79 82.2312 87.5164 81.4629C87.6096 82.2708 87.788 83.0759 88.0573 83.8545C88.3396 84.626 88.6728 85.3883 89.1015 86.0964C89.5194 86.8104 90.0041 87.4856 90.5331 88.1215C91.0697 88.7511 91.6467 89.3451 92.2554 89.9026C93.4915 90.9962 94.8407 91.9538 96.2811 92.7384C97.7167 93.5257 99.2252 94.187 100.804 94.6011Z" fill="#FFA367"/>
<path d="M95.8129 63.3496C95.8129 63.3496 98.3129 93.0105 100.804 95.0852C101.946 102.138 103.399 103.072 103.399 103.072C103.399 103.072 102.361 113.651 108.694 117.385C115.026 121.119 117.517 117.593 116.791 113.132C116.064 108.672 117.658 102.656 116.913 99.4409C116.168 96.2255 114.715 87.409 114.196 84.7123C113.677 82.0156 114.197 80.29 110.77 78.2225C107.344 76.1561 95.8129 63.3496 95.8129 63.3496Z" fill="#FFBA87"/>
<path d="M95.5 62.8721C95.5 62.8721 98.3125 93.0112 100.804 95.0855C101.946 102.138 103.399 103.072 103.399 103.072C103.399 103.072 102.361 113.652 108.693 117.385C115.026 121.119 116.266 118.008 115.539 113.547C114.812 109.087 115.48 102.369 114.735 99.1536C113.99 95.9382 112.373 88.7882 111.854 86.0915C111.335 83.3948 111.855 81.6692 108.429 79.6017C105.003 77.5349 95.5 62.8721 95.5 62.8721Z" fill="#F7AF79"/>
<path d="M105.853 78.4698C109.042 85.1561 107.321 90.3856 108.152 95.1788C108.152 96.4233 110.09 102.37 110.09 103.2C108.802 109.888 110.55 115.776 114.735 118.694C113.384 119.246 111.388 118.975 108.693 117.387C102.361 113.653 103.399 103.073 103.399 103.073C103.399 103.073 101.945 102.14 100.804 95.0868C98.3121 93.0126 93.2601 84.0962 93.2601 84.0962C93.2601 84.0962 92.689 69.5558 97.325 67.7169C98.433 67.2771 103.987 74.7191 105.853 78.4698Z" fill="#FFA66B"/>
<path d="M115.54 106.156C115.788 105.702 116.451 105.487 116.86 105.807C116.645 108.274 116.427 110.899 116.791 113.133C116.925 113.952 116.949 114.739 116.861 115.456C116.632 114.825 116.225 114.02 115.54 113.548C114.709 112.483 115.229 106.726 115.54 106.156Z" fill="#FFD3B5"/>
<path d="M55.9627 117.555C55.9627 117.555 55.4741 112.698 57.0699 93.7679C59.0068 70.7929 52.7215 70.787 46.0773 67.7443C39.4335 64.7017 32.4153 60.2298 24.531 62.0882C22.4125 62.5874 10.3693 77.1369 6.49356 79.903C2.61783 82.6691 15.9602 86.4384 16.0986 93.4913C16.237 100.545 14.7146 100.129 13.6069 102.481C12.4997 104.832 11.6693 114.374 12.0845 118.246C24.9573 113.821 55.9627 117.555 55.9627 117.555Z" fill="#F99156"/>
<path d="M16.929 99.991C18.3265 100.258 19.753 100.295 21.1497 100.139C22.5484 100.006 23.9186 99.676 25.2273 99.1978C27.8463 98.233 30.1944 96.6302 32.159 94.6515C33.137 93.6573 34.0657 92.6049 34.8728 91.4567C35.3074 90.9055 35.6699 90.302 36.0661 89.722C36.44 89.1272 36.7926 88.5174 37.1563 87.914C38.5312 85.4526 39.6943 82.8636 40.7365 80.2148C40.0013 82.9631 39.0297 85.6646 37.7273 88.2203C36.4242 90.7708 34.7839 93.1803 32.7456 95.2383C30.7 97.2781 28.2091 98.9319 25.4363 99.808C24.0562 100.252 22.6166 100.505 21.1755 100.542C20.4553 100.558 19.7351 100.529 19.0229 100.441C18.311 100.358 17.6043 100.22 16.929 99.991Z" fill="#FFA367"/>
<path d="M16.929 96.3955C18.4117 96.4216 19.8684 96.2714 21.2849 95.9703C22.6983 95.6648 24.0776 95.2179 25.3566 94.5649C25.6893 94.4274 25.9978 94.2443 26.3075 94.0625C26.6137 93.8754 26.9417 93.7221 27.2264 93.5018L28.1143 92.8872C28.4054 92.6753 28.668 92.426 28.9519 92.2022C29.5309 91.7624 30.012 91.2171 30.5422 90.7124C30.823 90.4718 31.0252 90.1652 31.2766 89.8957C31.517 89.6176 31.764 89.3418 32.0166 89.0664C31.8378 89.3893 31.6534 89.7119 31.4622 90.032L31.1727 90.5119L31.0256 90.7508L30.8559 90.9731C30.3875 91.5531 29.9552 92.1768 29.3909 92.6788C28.3523 93.7764 27.0678 94.6247 25.721 95.3106C25.3736 95.4623 25.0369 95.6395 24.6812 95.7694L23.6093 96.1454L22.5084 96.4192C22.1407 96.5044 21.764 96.5476 21.3928 96.607C19.9013 96.7976 18.3721 96.764 16.929 96.3955Z" fill="#FFA367"/>
<path d="M16.929 94.5981C18.3812 93.8647 19.7756 93.0568 21.1196 92.1831C22.4596 91.3043 23.7425 90.349 24.9219 89.2839C26.1041 88.2232 27.1772 87.0464 28.085 85.7456C28.5419 85.0966 28.938 84.4067 29.2997 83.6943C29.665 82.9815 29.943 82.2282 30.2166 81.46C30.1234 82.2679 29.9449 83.073 29.6757 83.8516C29.3933 84.6231 29.0598 85.3854 28.6315 86.0935C28.2135 86.8075 27.7289 87.4826 27.1998 88.1186C26.6637 88.7482 26.0863 89.3421 25.4775 89.8996C24.2414 90.9932 22.8923 91.9509 21.4519 92.7354C20.0163 93.5228 18.5077 94.1841 16.929 94.5981Z" fill="#FFA367"/>
<path d="M22.4003 63.2812C22.4003 63.2812 19.4204 93.0076 16.9292 95.0822C15.787 102.135 14.334 103.069 14.334 103.069C14.334 103.069 15.3722 113.648 9.03969 117.382C2.70718 121.116 0.215505 117.59 0.942427 113.129C1.66895 108.669 0.075115 102.653 0.820279 99.438C1.56544 96.2226 3.01889 87.4061 3.53761 84.7093C4.05673 82.0126 3.53642 80.287 6.96283 78.2195C10.3888 76.1532 22.4003 63.2812 22.4003 63.2812Z" fill="#FFBA87"/>
<path d="M22.4002 63.2812C22.4002 63.2812 19.4203 93.0075 16.9291 95.0822C15.7869 102.135 14.3339 103.069 14.3339 103.069C14.3339 103.069 15.3721 113.648 9.0396 117.382C2.70709 121.116 1.46661 118.004 2.19313 113.544C2.91966 109.084 2.25222 102.366 2.99739 99.1503C3.74255 95.9349 5.35939 88.7849 5.8785 86.0882C6.39762 83.3915 5.87731 81.6659 9.30372 79.5984C12.7297 77.5316 22.4002 63.2812 22.4002 63.2812Z" fill="#F7AF79"/>
<path d="M11.88 78.4641C8.69155 85.1505 10.4119 90.3799 9.58146 95.1731C9.58146 96.4176 7.6438 102.364 7.6438 103.194C8.93108 109.883 7.18298 115.771 2.99792 118.688C4.34945 119.24 6.34581 118.969 9.04014 117.381C15.3726 113.647 14.3344 103.068 14.3344 103.068C14.3344 103.068 15.7879 102.134 16.9296 95.0811C19.4213 93.0069 24.4732 84.0905 24.4732 84.0905C24.4732 84.0905 25.3251 68.913 20.5083 67.0745C19.5997 66.7278 16.3728 70.9532 11.88 78.4641Z" fill="#FFA66B"/>
<path d="M2.19238 106.152C1.94452 105.698 1.28144 105.483 0.872177 105.803C1.08712 108.271 1.30524 110.896 0.94118 113.129C0.807931 113.948 0.783742 114.735 0.871385 115.452C1.10021 114.821 1.50749 114.016 2.19238 113.544C3.0232 112.479 2.50408 106.722 2.19238 106.152Z" fill="#FFD3B5"/>
<path opacity="0.81" d="M100.765 84.8949C100.765 108.805 82.7971 126.944 58.8661 126.944C34.9352 126.944 17.2472 109.908 17.2472 85.9984C17.2472 62.0887 58.8661 0.0673828 58.8661 0.0673828C58.8661 0.0673828 100.765 60.9849 100.765 84.8949Z" fill="url(#paint0_linear_2651_13705)"/>
<path d="M58.8666 0.0673828C58.8666 0.0673828 100.766 60.9849 100.766 84.8949C100.766 108.805 82.7975 126.944 58.8666 126.944C34.9357 126.944 17.2476 109.908 17.2476 85.9984C17.2476 62.0887 58.8666 0.0673828 58.8666 0.0673828C58.8666 0.0673828 15.536 61.6149 15.536 85.5245C15.536 109.434 34.9357 128.817 58.8666 128.817C82.7975 128.817 102.197 109.435 102.197 85.5245C102.197 61.6145 58.8666 0.0673828 58.8666 0.0673828Z" fill="url(#paint1_linear_2651_13705)"/>
<g opacity="0.49">
<path d="M97.6965 95.1441C92.6418 116.599 71.1355 129.899 49.6618 124.849C28.1864 119.797 14.8754 98.31 19.9302 76.855C24.9857 55.3988 46.492 42.0997 67.9661 47.1497C89.441 52.2012 102.752 73.6891 97.6965 95.1441Z" fill="#E1FCFF"/>
<path d="M70.8262 55.1087C70.6347 55.0969 70.4364 55.1087 70.2242 55.1591C69.4025 55.3564 68.5098 55.6849 67.7488 56.0296C67.9459 56.4634 68.4563 56.2772 68.833 56.3145C69.2332 56.3537 69.2086 56.3818 69.5254 56.6013C70.0771 56.9833 71.264 56.6683 71.6439 57.2872C71.3449 57.5578 71.6812 57.7246 71.9747 57.706C71.872 57.7746 71.7998 57.922 71.6907 57.9933C72.1405 58.5488 72.8864 58.0135 73.4214 58.4589C74.0119 58.9514 73.6486 59.7367 74.1531 60.2898C74.3601 60.5169 74.6849 60.7693 74.9577 60.9135C75.2738 61.0807 75.7881 61.0272 76.061 61.2222C76.5428 61.5661 75.9162 61.8236 75.6593 62.0293C76.0439 63.0591 77.8884 64.9253 79.1095 64.4744C79.0837 64.2945 78.9647 64.1923 78.8327 64.0453C79.2086 63.7362 79.3545 62.8507 79.9006 63.4351C80.2278 63.7862 79.9125 64.2977 80.2012 64.6218C80.3495 64.7886 80.6989 64.7716 80.8853 64.9091C81.0154 65.0046 81.0356 65.2376 81.1748 65.3049C81.5571 65.4899 82.2963 65.2546 82.6445 65.083C82.8277 65.4309 82.8174 65.7701 83.2668 65.8097C83.6732 65.845 83.9247 65.5161 84.3617 65.6128C84.8911 65.7289 85.4935 66.1897 85.9417 66.4841C85.9329 66.4239 85.7204 65.6789 85.6831 65.6682C85.8548 65.719 87.0211 66.0348 86.6198 65.5387C86.6852 65.5137 86.7534 65.4705 86.824 65.4448C86.6206 65.1611 85.9238 64.7811 86.3303 64.3975C86.2038 64.2597 85.9064 64.0817 85.8481 63.8939C85.7505 63.5706 85.9623 63.6257 85.9841 63.4014C86.0229 62.9886 85.6918 62.5396 85.8191 62.1549C86.1661 62.2365 86.3723 62.6038 86.7463 62.58C86.343 61.7337 87.8686 62.6827 88.0681 62.9818C88.0098 62.6906 87.8349 62.4426 87.6929 62.189C87.7754 62.1826 87.8865 62.105 87.9737 62.097C87.9681 61.6279 87.3205 61.599 87.0929 61.2654C87.1885 61.2329 87.9864 60.9266 87.9908 60.9337C87.8246 60.6504 87.5045 60.4 87.1988 60.255C87.1976 60.2974 87.2246 60.356 87.2313 60.4087C87.0417 60.4836 86.8462 60.3659 86.7277 60.2157C86.3997 59.8029 85.2504 59.0306 84.6544 59.3413C84.6155 58.9668 84.1828 58.8234 84.2043 59.2985C84.1634 59.3068 84.1226 59.308 84.0825 59.302C84.1162 59.3734 84.1202 59.4843 84.1392 59.5588C84.1436 59.5719 83.4817 59.5188 83.4044 59.4712C83.1494 59.3139 83.1291 58.8717 82.7072 58.9625C82.3614 59.0374 82.2777 59.4609 81.9014 59.4859C81.8629 58.8067 81.0344 58.9343 80.58 58.7762C79.928 58.5496 79.4715 57.645 78.7482 57.6763C78.8017 57.7758 78.7831 57.9331 78.8342 58.0369C78.1557 58.3396 76.9584 57.767 76.4322 57.3272C75.8282 56.8224 75.4887 56.009 74.6282 55.8834C74.249 55.8283 74.0952 55.9361 73.7969 55.8469C72.8491 55.5585 71.822 55.171 70.8262 55.1087Z" fill="url(#paint2_linear_2651_13705)"/>
<path d="M71.561 52.3386C71.4361 52.36 70.3118 51.2803 70.2389 51.1301C69.8252 50.2846 70.8083 50.6606 71.2513 50.8056C71.6416 50.934 71.9775 51.3595 72.351 51.4336C72.7405 51.5097 73.1652 51.3881 73.563 51.4308C73.67 51.4419 74.8054 51.5572 74.8122 51.5664C74.3799 50.8975 73.4277 50.5944 72.7563 50.2287C72.2832 49.9696 71.8422 49.7076 71.2898 49.6546C70.9828 49.6244 70.497 49.8245 70.4379 49.3946C70.4479 49.4616 70.1607 49.3304 70.1405 49.3083C70.6378 48.7761 69.4727 48.8577 69.2093 48.7912C68.5261 48.6168 70.2809 49.1716 69.6964 48.7789C70.9404 48.1025 69.6964 48.7789 70.8583 48.7373C70.8246 48.6675 70.8131 48.5788 70.7814 48.5098C72.1591 48.8046 73.444 49.3641 74.7935 49.7512C75.2028 49.8681 75.7814 49.9327 76.1149 50.2251C76.4528 50.5199 76.4897 50.9974 76.7847 51.3544C76.7617 51.3266 75.8456 51.1737 75.6791 51.0528C75.6331 51.0738 75.5891 51.1 75.5502 51.1313C75.6335 51.0552 74.9771 50.7798 74.9145 50.7735C75.058 51.7272 76.9477 52.5054 77.7813 52.6798C78.2778 52.7828 78.7843 52.7138 78.9242 53.4112C78.5542 53.3446 78.2409 53.0522 77.8571 53.0629C77.9689 53.3799 78.5697 53.6779 78.8085 53.9473C79.1011 54.2785 79.6337 54.4513 79.7888 54.8792C79.3272 54.9937 78.9901 54.4287 78.6467 54.2068C78.1501 53.8855 77.4189 53.7183 76.874 53.5158C76.3703 53.3284 76.1621 53.576 75.7766 53.7848C75.2111 54.0895 74.7662 54.1094 74.2173 53.6838C74.7126 54.2441 74.9557 54.5559 75.6981 54.7818C76.0257 54.8808 76.3723 54.8566 76.6927 54.9878C77.0342 55.1273 77.2999 55.4046 77.6211 55.5825C77.932 55.7553 78.8477 55.4962 78.6839 56.0259C79.9629 55.9296 80.3495 57.4167 81.4865 57.5514C81.4282 57.5043 81.3727 57.4476 81.3128 57.4032C81.4175 57.4579 81.5738 57.4678 81.6872 57.5165C81.7641 57.5494 81.3775 56.8017 81.3184 56.7233C81.1054 56.4368 80.762 56.1206 80.8262 55.724C80.7703 56.0069 81.7839 56.4954 81.9874 56.6234C81.9719 56.3908 82.083 56.1943 82.2638 56.0477C81.9739 55.7442 82.2483 55.1328 81.8779 54.8194C81.8902 54.7913 82.0159 54.6062 82.0524 54.6316C82.0227 54.6106 81.2284 54.0705 81.274 54.0412C81.847 53.666 82.2912 54.4759 82.6136 54.8194C82.9951 55.2259 83.6522 55.4763 83.8628 56.0105C83.6931 56.0881 83.5043 56.1495 83.3183 56.1888C83.5249 56.2965 83.5249 56.3805 83.5852 56.5719C83.2509 56.476 82.8769 56.2431 82.5363 56.4285C83.4198 57.6663 85.6751 56.1321 86.4421 57.6188C86.2982 57.6045 86.1899 57.6936 86.0674 57.7036C86.1962 57.8616 86.3446 58.0277 86.4481 58.1988C86.1744 58.0863 85.8952 57.9698 85.6442 57.8161C85.394 58.103 85.0553 57.9009 84.7805 58.0701C85.1596 58.5333 86.3065 58.5261 86.8601 58.7314C86.97 58.7722 87.1286 58.998 87.2432 58.9838C87.5275 58.9509 87.6239 58.5551 87.5906 58.3157C82.4411 52.9627 75.7398 48.9794 67.9661 47.1516C65.5287 46.579 63.0914 46.2442 60.6778 46.1289C60.3733 46.1448 60.0739 46.1063 59.7772 46.1531C59.4564 46.2046 59.0681 46.5715 58.9948 46.8738C58.9297 47.1413 59.1657 47.4955 59.2815 47.7332C59.3235 47.7146 59.362 47.6916 59.3973 47.6631C59.5936 48.2333 58.417 48.4056 58.7227 48.8486C59.1705 48.6061 61.812 47.929 61.7704 48.9077C62.4652 49.0975 62.3323 48.0922 62.1432 47.7368C62.9522 47.3683 63.4047 48.7179 62.8459 49.0963C62.9006 49.1644 62.9415 49.2207 62.9633 49.3063C62.6464 49.5115 62.0544 49.2306 61.8394 49.6664C61.8739 49.5955 62.7051 50.5465 62.742 50.5794C62.0746 50.9514 61.6173 50.0555 61.0566 49.9379C60.6152 49.8459 60.2793 50.2675 59.8649 50.3297C59.8894 50.4102 59.8859 50.5524 59.9255 50.632C59.6555 50.5152 59.5448 50.138 59.1209 50.1784C58.5371 50.2354 58.7529 50.5786 59.0257 50.9241C58.5102 50.8032 58.1929 51.4408 57.8019 51.6987C58.0109 51.5604 58.8841 51.8354 59.08 51.9004C60.0489 52.2209 60.0239 51.9261 60.7758 51.3869C61.2469 51.0493 61.8105 51.1004 62.3577 51.1975C63.3389 51.3722 64.1598 51.3706 65.1532 51.2137C66.2981 51.033 67.2618 51.4487 68.3769 51.499C68.8136 51.5196 69.1566 51.3888 69.5508 51.6349C69.809 51.7958 69.9399 52.1536 70.2484 52.2566C70.618 52.3806 70.754 52.1009 71.0915 52.1195C71.3382 52.1318 71.2628 52.3897 71.561 52.3386Z" fill="url(#paint3_linear_2651_13705)"/>
<path d="M72.9311 52.7906C73.135 52.8386 73.2666 52.7098 73.4733 52.7811C73.6934 52.8572 73.7743 53.1461 73.988 53.1821C74.2133 53.2206 74.3473 53.0343 74.5396 53.0827C74.7118 53.1259 74.8311 53.446 75.0786 53.4389C75.4534 53.4274 75.7754 52.9535 76.1977 52.9032C76.6276 52.8525 77.0405 53.2705 77.3779 53.1413C77.2673 52.8493 76.9952 52.6016 76.6764 52.6781C76.494 52.417 76.2616 52.4463 75.9998 52.4852L76.195 52.5343C75.8591 52.7245 75.5735 52.3362 75.2622 52.2629C75.1182 52.23 74.8403 52.3199 74.6721 52.2744C74.5103 52.2312 74.3774 52.1143 74.2065 52.0663C74.1272 52.0445 73.8278 52.0695 73.6926 52.0426C73.5288 52.0113 73.3237 51.9574 73.133 51.9372C72.7852 51.9015 72.3664 52.0477 72.0321 52.1099C72.211 52.3385 73.1338 52.455 72.9311 52.7906Z" fill="url(#paint4_linear_2651_13705)"/>
<path d="M97.6966 95.1447C99.0913 89.2254 99.4816 82.1975 97.5613 76.3389C97.4523 76.2989 97.2588 76.2105 97.143 76.1808C97.2191 76.2996 97.2437 76.3832 97.3619 76.4906C97.2976 77.1218 97.837 78.0102 98.065 78.761C96.1928 77.4234 98.3366 82.4099 96.5584 82.3433C96.6837 81.8853 96.3998 81.6487 96.3339 81.2291C96.2411 80.6384 96.464 80.0547 96.4513 79.4631C96.4251 78.1952 95.8771 77.5632 95.1815 76.6008C94.9372 76.8603 94.9614 77.2106 95.1399 77.5303C95.118 77.5232 95.0938 77.5184 95.0685 77.5153C94.817 77.4844 94.5478 78.6889 94.2492 78.8767C93.5306 79.328 93.7499 78.9651 93.8918 79.798C94.0017 80.4414 93.901 81.0556 94.127 81.6828C94.3487 82.2997 95.1688 83.0419 94.5565 83.6715C94.5498 83.1901 94.2793 81.8512 93.5099 82.0085C92.8528 82.142 93.3204 83.28 93.3783 83.7175C93.406 83.931 93.3172 88.1933 92.2151 87.0561C91.9696 86.8025 92.8342 85.8389 92.896 85.5357C93.0654 84.7199 92.507 83.9239 92.5316 83.1033C92.5411 82.7891 92.9916 81.7121 92.5237 81.5208C92.0311 81.3203 91.9637 82.3417 91.9577 82.633C91.9494 83.0118 92.3607 84.1751 91.9415 84.4152C91.5513 84.6387 90.8334 83.5467 90.5562 83.3089C90.5439 83.6529 90.4266 83.9659 90.1454 84.1505C89.4902 83.5942 88.9005 83.3608 88.055 83.2452C87.806 83.2107 87.5125 83.5055 87.3341 83.2329C87.1271 82.9155 87.503 82.5842 87.783 82.5101C86.3224 82.0339 85.302 84.8689 83.7153 83.0692C82.1354 81.2791 85.6494 82.192 86.2415 82.2573C85.8108 82.2098 85.2076 79.2793 85.1343 78.8553C84.9875 78.0121 85.139 77.0033 84.401 76.4082C83.6261 75.7834 82.3523 75.6803 81.4065 75.5658C79.0008 75.273 76.8256 75.0262 74.537 74.1576C74.5818 74.7849 73.8989 74.6807 73.4599 74.6264C73.4825 74.748 73.4317 74.8986 73.4496 75.0143C72.7354 75.09 72.2222 75.0583 72.336 75.9308C72.4411 76.7355 73.1343 76.7727 73.7403 77.0485C73.4333 78.5336 70.3218 81.0366 73.5908 80.8808C74.6964 80.8289 75.8048 80.5912 76.4921 79.6922C77.2567 78.6909 77.0398 78.0862 78.5186 78.2804C78.9263 78.3339 81.3553 78.5249 81.5603 78.8462C81.9347 79.4366 81.1884 79.8677 80.762 79.9961C79.8436 80.2734 77.8869 79.5753 77.923 81.092C77.9503 82.2344 79.5247 82.5636 79.976 83.4405C80.6296 84.7096 79.7381 85.8939 78.379 85.8024C80.1263 83.8652 77.7052 81.5727 76.2811 84.2868C76.1745 82.908 75.3048 83.5827 74.5061 83.6957C72.7945 83.9374 70.8762 81.9673 70.2135 80.5203C69.9839 80.0187 69.7111 79.1141 70.2282 78.6901C70.6744 78.3256 71.3569 78.7468 71.826 78.494C72.3015 78.2376 72.386 77.8057 71.9684 77.3944C71.4865 76.9182 70.9452 77.2003 70.4519 77.4558C69.7638 77.8124 69.5338 78.0419 68.722 77.8521C67.5351 77.5743 66.337 77.1218 65.1596 76.791C64.5972 76.6329 64.1578 76.3369 63.7121 75.9656C63.3762 75.6851 63.1608 75.2504 62.7944 75.0052C62.4347 74.7654 61.983 74.7817 61.7034 74.4049C61.4968 74.1279 61.805 73.4884 61.224 73.4333C59.8915 73.3069 60.0866 76.1091 60.4975 76.7462C59.65 76.8088 58.001 77.5541 57.4196 77.1753C56.8434 76.8009 56.3207 75.3447 56.1276 74.7262C55.8492 73.8311 56.0733 72.2094 54.5988 72.8584C54.0452 73.1017 53.8362 73.4765 53.1763 73.5292C52.3811 73.5918 51.4555 72.8172 50.7159 73.3252C50.7536 74.0827 50.2952 74.454 50.1453 75.1098C49.669 77.1951 50.5438 79.1723 52.5422 79.8808C54.0214 80.405 53.4559 79.0804 54.5623 78.4983C54.4453 78.3002 54.483 77.9705 54.3795 77.7914C55.4994 77.6076 55.6763 79.3791 56.9671 79.3744C57.6251 79.3724 58.0002 78.7242 58.6589 79.2888C59.0979 79.6656 59.1122 80.7548 59.3042 81.2787C59.7753 82.5613 61.2973 82.8477 61.0475 84.2761C60.7592 85.9264 59.8685 86.8853 60.4994 88.6846C59.9228 89.1319 59.9549 89.9866 59.7594 90.6364C58.9429 90.4161 57.5493 88.1881 56.9632 88.4599C56.3108 88.761 57.2305 90.9554 56.6725 91.7038C57.4482 91.7443 57.5739 90.9142 58.1259 90.8333C58.7835 90.7363 59.2102 91.7193 59.9811 91.5113C60.4062 91.3952 60.7957 90.3495 61.1605 90.5274C61.4734 90.6808 60.9158 91.8663 61.5841 91.5652C62.265 91.2577 61.6808 89.8768 61.68 89.401C61.6796 88.4563 62.2408 87.7598 62.4173 86.8643C62.5136 86.3766 62.3411 85.2964 62.9269 85.0417C63.5876 84.754 63.8806 85.5021 63.9508 85.9962C64.0452 86.661 62.8963 88.5162 64.3093 88.3933C64.0773 88.4738 63.9064 88.7072 63.6264 88.7848C63.4674 91.1725 59.4398 93.6727 60.8151 96.2244C61.1788 96.0208 61.4774 95.7141 61.8295 95.493C61.8894 95.8028 62.035 96.1004 61.9783 96.4443C62.817 96.2815 62.7496 94.4767 63.7053 93.9398C63.7787 94.1902 63.9247 94.4549 63.843 94.7944C66.0269 93.2539 64.6321 96.4558 64.0377 97.2582C63.8509 97.1045 63.5336 97.0248 63.371 96.8513C63.7077 97.4151 63.427 97.994 62.9158 98.3252C63.2156 98.6957 63.5412 99.0749 63.6919 99.5242C63.6839 99.5008 63.3603 99.6954 63.381 99.6803C63.4599 100.421 64.4327 100.533 64.8899 100C64.8312 100.068 65.2468 101.741 65.3785 101.928C65.5367 102.153 67.0881 102.69 67.1492 102.468C66.9374 103.235 65.6315 104.656 64.792 104.311C64.8292 104.45 64.9522 104.521 64.9811 104.673C63.5777 104.344 64.2788 105.769 63.4039 106.277C62.8317 106.61 61.6903 106.212 61.0935 106.189C60.963 106.749 60.8115 107.034 60.5542 107.544C60.6402 107.694 60.7731 107.74 60.8413 107.885C60.1302 109.285 59.6071 112.133 61.0138 113.213C60.6033 113.168 60.0263 113.199 59.6075 113.052C59.646 113.007 59.4192 113.512 59.4457 113.454C57.2951 112.734 59.8312 116.064 58.0006 116.446C58.1489 116.661 58.162 116.492 58.0054 116.709C58.3357 117.528 57.2868 117.789 57.2769 118.648C55.0319 119.576 58.7049 120.278 59.3648 120.35C59.6988 120.386 60.9979 120.572 61.2886 120.396C62.2797 119.792 61.6436 118.026 62.7496 119.913C62.9788 120.302 63.5515 120.28 63.8362 120.66C64.1507 120.491 64.2927 120.575 64.5893 120.68C64.9109 120.794 65.0886 120.805 65.436 120.792C66.1181 120.767 66.7752 120.95 67.4649 120.899C68.9144 120.793 70.3147 119.923 71.6654 119.447C72.1076 119.289 72.5946 119.215 72.8583 118.779C73.1518 118.296 72.9102 118.459 72.572 118.611C72.1881 118.784 71.7126 118.836 71.4362 118.429C71.1189 117.964 71.6412 117.505 71.9299 117.153C71.5877 116.683 70.8838 116.792 70.4102 116.918C70.0962 117.001 69.7666 117.101 69.5219 117.318C69.1733 117.624 69.0992 117.792 68.5491 117.66C68.5598 117.705 68.5638 117.758 68.5773 117.805C68.2711 117.901 67.6017 118.258 67.3887 117.842C67.194 117.463 68.097 116.551 68.2215 116.149C68.3346 115.787 68.4016 115.518 68.659 115.225C68.8596 114.999 69.2249 114.791 69.2284 114.449C69.2336 113.814 68.4991 113.82 69.4113 113.431C69.2312 112.736 70.6466 112.272 70.9527 112.921C71.0987 113.231 70.3539 114.741 69.9942 114.592C71.0995 115.05 71.8676 116.035 73.0931 116.436C72.9293 116.559 72.7544 116.83 72.5676 116.954C73.7272 117.357 77.4205 118.109 77.3186 119.51C77.156 119.632 76.903 119.875 76.7911 119.949C77.1885 120.096 77.8325 120.091 78.2993 119.958C77.9194 121.262 76.2986 120.832 75.7997 122.093C86.8201 117.632 95.032 106.46 97.6966 95.1447Z" fill="url(#paint5_linear_2651_13705)"/>
<path d="M51.0014 125.043C54.2676 125.505 61.6573 126.896 65.1742 125.919C64.5583 125.565 63.8671 119.086 63.0969 118.953C63.2159 118.868 61.4182 118.748 60.2451 119.493C59.3029 120.091 58.2071 119.791 57.4885 118.937C56.7549 118.065 55.9705 118.265 54.9195 117.795C56.6553 117.443 55.5747 118.358 55.4482 116.343C55.4077 115.692 55.3034 114.463 55.1769 113.828C54.8751 112.363 53.823 111.945 55.4882 111.522C55.1765 111.602 58.3463 111.858 57.1796 111.005C57.1622 110.992 57.3382 111.299 57.339 111.262C59.3219 110.196 59.2319 107.173 61.4944 106.225C62.4223 105.836 63.9357 106.684 63.737 104.785C59.7169 104.995 59.4 100.412 57.5603 98.0185C57.2335 97.5938 56.9647 97.1262 56.4277 96.9265C55.9637 96.7538 55.2146 97.1393 54.9255 97.0057C53.3384 96.2759 54.3346 94.4013 55.1492 93.2218C51.9881 93.177 54.4099 90.8535 52.7134 90.3281C52.5401 89.0669 54.1014 89.3827 54.4512 88.3525C55.1912 88.6085 55.6409 88.1112 55.9784 87.4867C56.3294 86.8381 52.1788 82.9963 51.5597 82.3968C50.192 81.0738 48.6299 79.5443 49.1617 77.453C48.4673 77.0314 47.7165 77.3286 46.9912 77.0358C46.2702 76.745 46.0335 76.0163 45.2142 75.8451C43.5517 75.4984 42.751 77.497 41.6573 77.583C40.2954 77.6888 39.6784 75.0523 38.3887 74.4591C37.5821 74.0886 30.3965 74.7234 30.4453 75.4457C30.4207 75.0871 30.1011 74.6438 30.0816 74.2979C29.4923 74.6426 29.3008 75.6506 28.9665 76.2659C28.3887 77.3282 28.3173 77.8144 27.9818 79.0795C27.592 80.5456 26.5121 81.1455 25.5528 82.1028C26.871 82.9848 25.6983 83.8339 25.4719 84.8835C25.0305 86.9324 26.6453 90.3348 27.8989 91.8932C28.4065 92.5244 29.0541 93.3236 29.7533 93.7464C30.3822 94.1252 31.0469 94.0221 31.405 94.7742C30.2569 95.3598 29.7945 96.8449 29.9984 98.07C30.1205 98.0542 30.2791 98.1251 30.3985 98.1136C30.3926 98.4433 30.3454 98.7773 30.3041 99.1054C30.6706 98.908 31.0533 98.7274 31.3963 98.4904C30.8871 98.8411 31.2309 100.806 30.7776 101.387C30.2292 102.089 28.7896 101.854 28.2709 102.646C28.2681 102.651 28.2657 102.656 28.263 102.659C27.291 104.144 28.5191 105.927 29.2302 107.228C28.9225 106.965 28.3776 106.51 27.9366 106.698C27.4754 106.893 27.5876 107.499 27.7034 107.878C27.5269 107.88 27.1573 107.881 27.0986 108.101C27.0284 108.364 27.3588 108.404 27.5007 108.524C27.6859 108.682 28.3252 109.563 27.9413 109.746C27.5701 109.923 27.2878 108.894 27.0522 108.739C26.8202 108.587 26.7246 108.68 26.5109 108.387C26.2214 107.988 25.7518 107.52 25.2442 107.419C25.1717 107.402 25.0416 107.562 24.9361 107.553C24.927 107.551 24.9194 107.547 24.9115 107.546C29.0692 114.023 35.092 119.311 42.4377 122.531C42.4607 122.499 42.4881 122.471 42.5242 122.45C42.6915 122.352 42.8886 122.455 43.0552 122.397C43.2039 122.344 43.3229 122.188 43.4605 122.097C42.6217 121.974 43.2321 121.463 43.4355 121.317C43.9404 120.955 45.6476 121.615 46.1663 121.768C47.7384 122.232 49.5344 124.836 51.0014 125.043Z" fill="url(#paint6_linear_2651_13705)"/>
</g>
<path opacity="0.74" d="M59.5193 3.75879C59.5193 3.75879 83.0032 44.5019 89.3488 64.2677C95.6944 84.0336 87.5967 111.093 69.2266 114.45C48.4144 118.739 49.1076 99.9775 62.5986 91.3278C74.5046 83.6941 70.7372 72.942 68.4465 50.0558C66.2071 27.6795 59.5193 3.75879 59.5193 3.75879Z" fill="white" fill-opacity="0.3"/>
<path opacity="0.75" d="M79.3954 62.6113C79.3954 62.6113 80.8242 88.1859 66.891 97.4002C52.9577 106.615 63.2028 113.704 72.6988 106.804C82.1948 99.9052 86.6741 84.9876 79.3954 62.6113Z" fill="#E1FCFF"/>
<path d="M46.2107 131.938C46.2107 131.938 52.4211 135.717 55.328 133.689C58.2348 131.661 58.5993 128.273 58.6247 126.751C58.6501 125.23 55.6048 123.583 54.0129 124.406C52.4211 125.23 46.2107 131.938 46.2107 131.938Z" fill="#FFA66B"/>
<path d="M52.56 130.232C53.3908 128.365 54.6361 125.496 56.193 126.083C57.2162 126.47 58.0462 127.555 58.4967 128.255C58.5871 127.667 58.6181 127.146 58.6244 126.751C58.6498 125.23 55.6045 123.583 54.0127 124.406C52.4208 125.23 46.2104 131.938 46.2104 131.938C46.2104 131.938 47.5802 132.771 49.3343 133.445C51.3009 133.234 51.8505 131.827 52.56 130.232Z" fill="#FFB684"/>
<path d="M54.6008 125.818C54.6008 125.818 55.6656 126.741 57.2095 126.875C57.4466 126.896 57.6088 127.124 57.5486 127.354C56.9866 129.506 56.224 130.16 55.6732 130.451C55.085 130.762 51.8847 130.05 52.3165 128.135C52.7488 126.22 54.6008 125.818 54.6008 125.818Z" fill="#FFC399"/>
<path d="M52.5599 129.321C53.108 130.081 54.3326 130.469 55.1004 130.516C54.6459 129.602 53.7072 129.065 52.5599 129.321Z" fill="#FFDCC4"/>
<path d="M38.1071 130.97C38.1071 130.97 40.287 135.534 46.1004 132.837C51.9138 130.141 56.7929 124.229 58.3502 120.287C59.9076 116.346 54.4055 113.545 52.5368 113.234C50.6682 112.923 48.9034 113.925 46.3082 118.247C43.713 122.569 38.1071 130.97 38.1071 130.97Z" fill="#FFA66B"/>
<path d="M52.5368 113.234C50.6682 112.923 48.9034 113.925 46.3082 118.247C43.713 122.569 38.1071 130.97 38.1071 130.97C38.1071 130.97 38.7352 134.857 44.4122 130.268C47.816 127.516 49.0644 123.785 50.8815 119.948C52.6982 116.11 55.3454 117.251 57.0582 118.955C57.7173 119.61 57.9437 120.406 57.9711 121.146C58.1123 120.852 58.2416 120.564 58.3506 120.288C59.9076 116.346 54.4055 113.545 52.5368 113.234Z" fill="#FFB684"/>
<path d="M50.1024 124.712C50.1024 124.712 50.1543 125.819 52.7828 126.393C53.7814 126.642 55.8745 125.5 57.9078 121.306C58.0192 121.076 57.8963 120.794 57.6468 120.739C56.513 120.486 54.4786 119.426 53.6608 118.624C53.4261 118.394 53.0477 118.41 52.8387 118.664C51.4067 120.407 49.5749 123.641 50.1024 124.712Z" fill="#FFC399"/>
<path d="M50.1024 124.712C50.1024 124.712 50.1543 125.819 52.7828 126.393C53.7814 126.642 55.8745 125.5 57.9078 121.306C58.0192 121.076 57.8963 120.794 57.6468 120.739C56.513 120.486 54.4786 119.426 53.6608 118.624C53.4261 118.394 53.0477 118.41 52.8387 118.664C51.4067 120.407 49.5749 123.641 50.1024 124.712Z" fill="#FFC399"/>
<path d="M50.2805 125.124C50.5407 125.498 51.1839 126.044 52.7829 126.393C52.9653 126.439 53.1866 126.435 53.4353 126.377C52.8198 125.164 51.573 124.875 50.2805 125.124Z" fill="#FFDCC4"/>
<path d="M25.3389 125.318C25.3389 125.318 22.2765 130.867 28.2458 134.912C34.215 138.957 41.5338 130.452 44.077 127.548C46.6203 124.643 50.7208 117.902 49.3713 115.153C48.0218 112.404 44.5961 110.641 41.5854 111.419C38.575 112.197 33.9485 118.368 31.2006 120.235C28.4532 122.102 25.3389 125.318 25.3389 125.318Z" fill="#FFA66B"/>
<path d="M41.5854 111.419C38.575 112.197 33.9486 118.368 31.2007 120.235C28.4532 122.102 25.3389 125.317 25.3389 125.317C25.3389 125.317 24.3554 127.103 24.5914 129.386C24.6679 129.441 24.7401 129.496 24.8198 129.55C30.789 133.595 37.4444 123.997 39.3765 120.656C40.7696 118.247 42.2976 116.113 43.2903 114.438C43.7487 113.664 47.9286 114.72 49.409 118.095C49.7001 116.927 49.735 115.894 49.3713 115.153C48.0218 112.404 44.5962 110.641 41.5854 111.419Z" fill="#FFB684"/>
<path d="M40.6213 121.418C40.6213 121.418 40.9675 123.767 44.4859 124.187C45.9076 124.187 46.9772 122.976 48.807 118.851C48.897 118.648 48.8102 118.409 48.6083 118.315C47.5955 117.846 45.1371 116.525 44.1342 115.638C43.8482 115.385 43.4076 115.421 43.1729 115.722C41.8483 117.418 40.1482 120.413 40.6213 121.418Z" fill="#FFC399"/>
<path d="M40.7709 121.887C41.0663 122.58 41.932 123.834 44.3504 124.166C43.4025 122.961 42.1002 122.021 40.7709 121.887Z" fill="#FFDCC4"/>
<path d="M11.9833 116.396C11.9833 116.396 11.0469 122.943 17.2759 126.23C23.5045 129.517 30.7024 124.054 33.4015 122.118C36.1006 120.182 37.968 117.648 39.1451 116.252C40.3221 114.857 36.8616 109.049 32.017 109.948C27.1725 110.847 21.3607 114.789 18.9368 115.963C16.5129 117.138 11.9833 116.396 11.9833 116.396Z" fill="#FFA66B"/>
<path d="M32.0171 109.948C27.1725 110.847 21.3607 114.789 18.9368 115.963C16.513 117.138 11.9833 116.396 11.9833 116.396C11.9833 116.396 14.703 122.487 19.5475 120.62C22.0606 119.652 27.0404 117.381 31.2005 114.742C35.1865 112.214 38.2928 114.743 38.8492 116.609C38.9516 116.484 39.0515 116.364 39.1451 116.253C40.3217 114.857 36.8616 109.049 32.0171 109.948Z" fill="#FFB684"/>
<path d="M35.8907 114.537C36.4122 115.188 37.251 116.187 38.014 116.877C38.2087 117.053 38.2274 117.351 38.0525 117.546C35.3566 120.572 34.9275 121.803 32.3628 121.314C29.6982 120.805 29.8366 117.797 30.8749 116.794C31.6089 116.085 33.5569 114.921 34.6348 114.3C35.0556 114.058 35.5878 114.158 35.8907 114.537Z" fill="#FFC399"/>
<path d="M30.2014 118.995C30.297 119.993 30.8851 120.971 32.2402 121.281C31.9765 120.214 31.5625 119.319 30.2014 118.995Z" fill="#FFDCC4"/>
<path d="M71.5232 131.938C71.5232 131.938 65.3128 135.717 62.4059 133.689C59.499 131.661 59.1345 128.273 59.1092 126.751C59.0838 125.23 62.1291 123.583 63.7209 124.406C65.3128 125.23 71.5232 131.938 71.5232 131.938Z" fill="#FFA66B"/>
<path d="M65.174 130.232C64.3431 128.365 63.0979 125.496 61.5409 126.083C60.5178 126.47 59.6877 127.555 59.2372 128.255C59.1468 127.667 59.1159 127.146 59.1095 126.751C59.0842 125.23 62.1294 123.583 63.7213 124.406C65.3132 125.23 71.5235 131.938 71.5235 131.938C71.5235 131.938 70.1537 132.771 68.3997 133.445C66.4331 133.234 65.8834 131.827 65.174 130.232Z" fill="#FFB684"/>
<path d="M63.1329 125.818C63.1329 125.818 62.0681 126.741 60.5242 126.875C60.287 126.896 60.1248 127.124 60.1851 127.354C60.7471 129.506 61.5097 130.16 62.0605 130.451C62.6487 130.762 65.849 130.05 65.4171 128.135C64.9849 126.22 63.1329 125.818 63.1329 125.818Z" fill="#FFC399"/>
<path d="M65.1743 129.321C64.6262 130.081 63.4016 130.469 62.6338 130.516C63.0879 129.602 64.027 129.065 65.1743 129.321Z" fill="#FFDCC4"/>
<path d="M79.6269 130.97C79.6269 130.97 77.4469 135.534 71.6335 132.837C65.8201 130.141 60.941 124.229 59.3837 120.287C57.8263 116.346 63.3284 113.545 65.1971 113.234C67.0657 112.923 68.8305 113.925 71.4257 118.247C74.0209 122.569 79.6269 130.97 79.6269 130.97Z" fill="#FFA66B"/>
<path d="M65.1969 113.234C67.0655 112.923 68.8303 113.925 71.4255 118.247C74.0207 122.569 79.6266 130.97 79.6266 130.97C79.6266 130.97 78.9985 134.857 73.3215 130.268C69.9177 127.516 68.6689 123.785 66.8522 119.948C65.0354 116.11 62.3883 117.251 60.6755 118.955C60.0164 119.61 59.79 120.406 59.7626 121.146C59.6214 120.852 59.4921 120.564 59.3831 120.288C57.8261 116.346 63.3282 113.545 65.1969 113.234Z" fill="#FFB684"/>
<path d="M67.6311 124.712C67.6311 124.712 67.5792 125.819 64.9507 126.393C63.9521 126.642 61.859 125.5 59.8257 121.306C59.7143 121.076 59.8372 120.794 60.0867 120.739C61.2205 120.486 63.2549 119.426 64.0727 118.624C64.3074 118.394 64.6858 118.41 64.8948 118.664C66.3264 120.407 68.1586 123.641 67.6311 124.712Z" fill="#FFC399"/>
<path d="M67.6311 124.712C67.6311 124.712 67.5792 125.819 64.9507 126.393C63.9521 126.642 61.859 125.5 59.8257 121.306C59.7143 121.076 59.8372 120.794 60.0867 120.739C61.2205 120.486 63.2549 119.426 64.0727 118.624C64.3074 118.394 64.6858 118.41 64.8948 118.664C66.3264 120.407 68.1586 123.641 67.6311 124.712Z" fill="#FFC399"/>
<path d="M67.453 125.124C67.1928 125.498 66.5496 126.044 64.9506 126.393C64.7678 126.439 64.5469 126.435 64.2982 126.377C64.9137 125.164 66.1605 124.875 67.453 125.124Z" fill="#FFDCC4"/>
<path d="M92.3957 125.318C92.3957 125.318 95.458 130.867 89.4888 134.912C83.5195 138.957 76.2007 130.452 73.6575 127.548C71.1143 124.643 67.0137 117.902 68.3632 115.153C69.7128 112.404 73.1384 110.641 76.1492 111.419C79.1596 112.197 83.786 118.368 86.5339 120.235C89.2814 122.102 92.3957 125.318 92.3957 125.318Z" fill="#FFA66B"/>
<path d="M76.1494 111.419C79.1598 112.197 83.7863 118.368 86.5342 120.235C89.2816 122.102 92.3959 125.317 92.3959 125.317C92.3959 125.317 93.3794 127.103 93.1435 129.386C93.0669 129.441 92.9948 129.496 92.915 129.55C86.9458 133.595 80.2905 123.997 78.3584 120.656C76.9652 118.247 75.4372 116.113 74.4446 114.438C73.9861 113.664 69.8062 114.72 68.3258 118.095C68.0347 116.927 67.9998 115.894 68.3635 115.153C69.713 112.404 73.1386 110.641 76.1494 111.419Z" fill="#FFB684"/>
<path d="M77.1125 121.418C77.1125 121.418 76.7663 123.767 73.2479 124.187C71.8262 124.187 70.7566 122.976 68.9268 118.851C68.8368 118.648 68.9236 118.409 69.1255 118.315C70.1383 117.846 72.5967 116.525 73.5997 115.638C73.8856 115.385 74.3262 115.421 74.561 115.722C75.8855 117.418 77.5856 120.413 77.1125 121.418Z" fill="#FFC399"/>
<path d="M76.9634 121.887C76.6679 122.58 75.8022 123.834 73.3839 124.166C74.3317 122.961 75.6341 122.021 76.9634 121.887Z" fill="#FFDCC4"/>
<path d="M105.751 116.396C105.751 116.396 106.687 122.943 100.458 126.23C94.2297 129.517 87.0319 124.054 84.3328 122.118C81.6337 120.182 79.7663 117.648 78.5892 116.252C77.4122 114.857 80.8727 109.049 85.7173 109.948C90.5618 110.847 96.3736 114.789 98.7975 115.963C101.221 117.138 105.751 116.396 105.751 116.396Z" fill="#FFA66B"/>
<path d="M85.7171 109.949C90.5617 110.848 96.3735 114.79 98.7974 115.964C101.221 117.139 105.751 116.397 105.751 116.397C105.751 116.397 103.031 122.488 98.1867 120.621C95.6736 119.653 90.6938 117.382 86.5337 114.743C82.5477 112.215 79.4413 114.744 78.8849 116.61C78.7826 116.485 78.6827 116.365 78.5891 116.254C77.4125 114.858 80.8726 109.049 85.7171 109.949Z" fill="#FFB684"/>
<path d="M81.8433 114.537C81.3218 115.188 80.4831 116.187 79.7201 116.877C79.5253 117.053 79.5067 117.351 79.6816 117.546C82.3775 120.572 82.8066 121.803 85.3713 121.314C88.0358 120.805 87.8974 117.797 86.8592 116.794C86.1251 116.085 84.1772 114.921 83.0993 114.3C82.6785 114.058 82.1463 114.158 81.8433 114.537Z" fill="#FFC399"/>
<path d="M87.5326 118.995C87.437 119.993 86.8489 120.971 85.4938 121.281C85.7575 120.214 86.1715 119.319 87.5326 118.995Z" fill="#FFDCC4"/>
<defs>
<linearGradient id="paint0_linear_2651_13705" x1="121.698" y1="0.0673867" x2="-26.8937" y2="55.0668" gradientUnits="userSpaceOnUse">
<stop stop-color="#1F8297"/>
<stop offset="0.448113" stop-color="#166C7D"/>
<stop offset="1" stop-color="#003940"/>
</linearGradient>
<linearGradient id="paint1_linear_2651_13705" x1="123.918" y1="0.0673868" x2="-29.4241" y2="58.104" gradientUnits="userSpaceOnUse">
<stop stop-color="#1F8297"/>
<stop offset="0.448113" stop-color="#166C7D"/>
<stop offset="1" stop-color="#003940"/>
</linearGradient>
<linearGradient id="paint2_linear_2651_13705" x1="93.161" y1="55.1045" x2="72.6915" y2="75.6564" gradientUnits="userSpaceOnUse">
<stop stop-color="#1F8297"/>
<stop offset="0.448113" stop-color="#166C7D"/>
<stop offset="1" stop-color="#003940"/>
</linearGradient>
<linearGradient id="paint3_linear_2651_13705" x1="95.0649" y1="46.1289" x2="72.7282" y2="75.2385" gradientUnits="userSpaceOnUse">
<stop stop-color="#1F8297"/>
<stop offset="0.448113" stop-color="#166C7D"/>
<stop offset="1" stop-color="#003940"/>
</linearGradient>
<linearGradient id="paint4_linear_2651_13705" x1="78.7179" y1="51.9316" x2="76.5449" y2="56.2649" gradientUnits="userSpaceOnUse">
<stop stop-color="#1F8297"/>
<stop offset="0.448113" stop-color="#166C7D"/>
<stop offset="1" stop-color="#003940"/>
</linearGradient>
<linearGradient id="paint5_linear_2651_13705" x1="111.119" y1="72.709" x2="35.6441" y2="114.695" gradientUnits="userSpaceOnUse">
<stop stop-color="#1F8297"/>
<stop offset="0.448113" stop-color="#166C7D"/>
<stop offset="1" stop-color="#003940"/>
</linearGradient>
<linearGradient id="paint6_linear_2651_13705" x1="75.2658" y1="74.2979" x2="6.81235" y2="104.123" gradientUnits="userSpaceOnUse">
<stop stop-color="#1F8297"/>
<stop offset="0.448113" stop-color="#166C7D"/>
<stop offset="1" stop-color="#003940"/>
</linearGradient>
</defs>
</svg>
