<?xml version="1.0" encoding="utf-8"?>
<!-- Generator: Adobe Illustrator 27.5.0, SVG Export Plug-In . SVG Version: 6.00 Build 0)  -->
<svg version="1.1" id="_x2018_ëîé_x5F_1" xmlns="http://www.w3.org/2000/svg" xmlns:xlink="http://www.w3.org/1999/xlink"
	 x="0px" y="0px" viewBox="0 0 3200 2000" style="enable-background:new 0 0 3200 2000;" xml:space="preserve">
<rect style="fill:#FFFFFF;" width="3200" height="2000"/>
<g>
	<path style="fill:#EDF4FF;" d="M3106.426,1247.826c-0.082,5.111-0.21,10.21-0.396,15.298c-0.059,1.633-0.129,3.255-0.199,4.889
		c-0.14,3.244-0.303,6.499-0.49,9.743c-2.484,43.569-8.996,85.937-19.077,125.645c-36.778,144.908-121.175,254.45-231.744,258.114
		c0,0-1.155,0-3.431,0c0,0-268.919,0.034-635.7,0.093c-223.938,0.035-484.339,0.07-742.29,0.105
		c-30.723,0.012-61.352,0.012-91.841,0.012c-49.427,0.012-98.469,0.023-146.869,0.023c-19.358,0-38.622,0.012-57.758,0.012
		c-45.845,0-91.013,0.011-135.293,0.011c-35.437,0-70.29,0.012-104.455,0.012c-28.272,0-56.078,0.012-83.347,0.012h-30.711
		c-20.361,0-40.407,0-60.092,0.012c-256.795,0.023-454.351,0.035-530.779,0.012c-1.599-1.213-3.174-2.45-4.714-3.698
		c-17.958-14.469-32.392-30.746-43.476-48.436c-8.413-13.406-14.9-27.619-19.556-42.484c-4.644-14.83-7.444-30.303-8.53-46.241
		c-0.011-0.117-0.011-0.222-0.023-0.339c-0.117-1.633-0.21-3.278-0.292-4.924c-0.093-1.983-0.163-3.967-0.198-5.962
		c-0.023-1.33-0.035-2.661-0.035-3.991c0-2.858,0.059-5.729,0.164-8.611c0.735-20.162,4.049-40.943,9.778-62.005
		c2.614-9.626,5.741-19.312,9.358-29.03c1.272-3.431,2.602-6.861,4.003-10.292c4.259-10.489,9.09-21.003,14.457-31.504
		c28.272-55.308,71.643-110.313,127.441-159.657c48.855-43.22,93.953-74.199,127.185-109.297c6.978-7.352,13.43-14.9,19.299-22.777
		c5.764-7.747,10.945-15.822,15.496-24.363c19.416-36.533,26.989-81.596,17.164-146.472c-3.419-22.613-8.961-47.63-16.861-75.541
		c-12.567-44.433-14.784-85.925-9.358-124.419c2.404-17.024,6.313-33.453,11.47-49.298c0.724-2.206,1.459-4.399,2.229-6.581
		c12.882-36.685,32.508-70.126,55.879-100.207c20.245-26.044,43.289-49.59,67.221-70.559c48.4-42.438,100.394-74.373,139.926-95.353
		c22.274-11.82,40.582-20.163,52.087-24.947c41.283-17.188,86.684-30.279,134.524-39.73c40.816-8.063,83.405-13.477,126.729-16.522
		c7.666-0.537,15.367-0.992,23.091-1.377c21.75-1.12,43.628-1.645,65.506-1.61c8.845,0.012,17.689,0.105,26.522,0.292
		c14.714,0.303,29.416,0.863,44.06,1.645c13.64,0.724,27.21,1.925,40.746,2.777c11.389,0.723,22.566,1.482,33.558,2.287
		c43.313,3.173,83.65,6.978,121.269,11.365c87.279,10.175,160.007,23.407,221.627,38.797
		c159.109,39.73,244.078,93.79,313.842,146.251c46.056,34.62,85.482,68.551,135.248,97.22
		c82.238,47.362,192.701,80.336,407.924,78.236c10.478-0.105,21.213-0.292,32.204-0.56c47.77-1.178,92.156,1.68,133.299,8.098
		c238.464,37.105,368.146,193.122,418.81,370.106h0.012c3.909,13.663,7.352,27.443,10.326,41.317c0,0,0,0,0,0.012
		c0.829,3.792,1.611,7.596,2.357,11.4c0.012,0.012,0.023,0.022,0.012,0.034c0.047,0.222,0.082,0.443,0.128,0.665
		c6.768,34.608,10.724,69.648,12.089,104.408c0.093,2.334,0.175,4.656,0.245,6.989
		C3106.496,1227.268,3106.577,1237.57,3106.426,1247.826z"/>
	<path style="fill:#D3E2F4;" d="M1654.442,1044.424c0,0,79.571-73.294,6.696-142.69c0,0-0.807-46.294-58.718-47.345
		c0,0-5.177-163.815-160.18-191.817c0,0-30.978-67.86-96.491-57.557c-65.513,10.303-83.922,40.056-83.922,40.056
		s7.843-142.757-78.758-178.138c-86.6-35.381-136.569-12.629-136.569-12.629s-54.67-84.726-130.474-54.388
		c-75.803,30.337-124.06,288.734-59.092,317.058c0,0-11.275,193.339,137.917,220.717c149.192,27.379,192.388-39.795,192.388-39.795
		s25.481,43.48,74.588,46.465c49.107,2.985,88.207-40.204,88.207-40.204s34.364,136.608,102.991,147.563
		C1521.652,1062.674,1654.442,1044.424,1654.442,1044.424z"/>
	<g style="opacity:0.5;">
		<path style="fill:#D5E5FB;" d="M3106.426,1248.526c-0.082,5.111-0.21,10.21-0.396,15.298c-0.059,1.633-0.129,3.255-0.199,4.889
			c-0.14,3.244-0.303,6.499-0.49,9.743c-2.823,48.656-10.711,95.808-23.067,139.436c-10.887,38.482-25.25,74.234-42.647,105.844
			c-2.416,4.398-4.89,8.716-7.433,12.951c-44.62,74.491-107.08,123.112-181.104,125.528c0,0-697.542,0.104-1377.99,0.198
			c-30.723,0.012-61.352,0.012-91.841,0.012c-49.427,0.012-98.469,0.022-146.869,0.022c-19.358,0-38.622,0.012-57.758,0.012
			c-45.845,0-91.013,0.012-135.293,0.012c-35.437,0-70.29,0.012-104.455,0.012c-28.272,0-56.078,0.012-83.347,0.012h-30.711
			c-20.361,0-40.407,0-60.092,0.012c-256.795,0.023-454.351,0.035-530.779,0.012c-1.599-1.213-3.174-2.45-4.714-3.699
			c-17.958-14.468-32.392-30.745-43.476-48.435c-8.413-13.407-14.9-27.619-19.556-42.484c-4.644-14.83-7.444-30.303-8.53-46.241
			c-0.011-0.117-0.011-0.222-0.023-0.338c-0.117-1.634-0.21-3.279-0.292-4.925c-0.093-1.983-0.163-3.967-0.198-5.962
			c-0.023-1.33-0.035-2.661-0.035-3.991c0-2.858,0.059-5.729,0.164-8.611c0.735-20.163,4.049-40.943,9.778-62.005
			c2.614-9.626,5.741-19.311,9.358-29.031c1.272-3.43,2.602-6.86,4.003-10.291c4.259-10.49,9.09-21.003,14.457-31.504
			c28.272-55.309,71.643-110.313,127.441-159.658c48.855-43.219,93.953-74.198,127.185-109.297l19.299-22.776
			c5.764-7.747,10.945-15.822,15.496-24.363c19.416-36.533,26.989-81.596,17.164-146.472h29.579v-13.547h2.31v13.547h66.532v-13.547
			h2.322v13.547h41.866v-13.547h2.322v13.547h17.175v180.731h65.751v-29.229l77.536,0.257v-47.373h15.601v-9.37h2.065v9.37h59.882
			v0.012h11.983v-9.382h2.053v9.382h14.457v94.209h92.308v34.667h51.294v-20.128h47.606v-79.928h23.722v-37.28h3.582v37.28h56.895
			v-69.881h5.578v69.881h37.619v-0.969h-0.047v-8.868h0.047v-8.4h-0.047v-13.956h0.047v-8.926h-0.047v-13.967h0.047v-8.915h-0.047
			v-13.967h0.047v-9.638h-0.047v-13.956h0.047v-12.275h-0.047v-13.967h0.047v-9.253h11.225V888.14h1.785v10.455h83.066V888.14h1.797
			v10.455h15.157v73.055l10.665,0.047v-0.047h-0.093v-13.967h0.093v-9.638h-0.093v-13.956h0.093v-9.615h-0.093v-13.955h0.093v-0.047
			h100.721v0.047h17.315c0.887,0.373,1.785,0.735,2.707,1.108v79.729h73.604v104.688h59.485V902.433h12.94v-13.547h2.345v13.547
			h46.965v-13.547h2.322v13.547h66.521v-13.547h2.322v13.547h41.854v-13.547h2.333v13.547h17.188v180.731h65.739v-29.229
			l77.548,0.257v-47.373h15.612v-9.37h2.054v9.37h59.882v0.012h11.96v-9.382h2.064v9.382h14.445v94.209h92.309v34.667h51.316
			v-20.128h47.596v-79.928h23.722v-37.28h3.594v37.28h56.871v-69.881h5.601v69.881h37.619v-0.969h-0.059v-8.868h0.059v-8.4h-0.059
			v-13.956h0.059v-8.926h-0.059v-13.967h0.059v-8.915h-0.059v-13.967h0.059v-9.638h-0.059v-13.956h0.059v-12.275h-0.059v-13.967
			h0.059v-9.253h11.225V888.14h1.785v10.455h83.055V888.14h1.797v10.455h15.146v73.055l10.688,0.047v-0.047h-0.094v-13.967h0.094
			v-9.638h-0.094v-13.956h0.094v-9.615h-0.094v-13.955h0.094v-0.047h100.721v0.047h17.292c0.922,0.373,1.81,0.735,2.707,1.108
			v79.729h123.591v104.699h59.485V902.433h12.917v-13.547h2.333v13.547h46.978v-13.547h2.321v13.547h66.521v-13.547h2.322v13.547
			h61.375v180.743h65.751v-29.241l23.255-1.132h0.012c3.956,8.692,7.935,28.575,10.326,41.317c0,0,0,0,0,0.012
			c1.168,6.208,1.961,10.723,2.182,11.399c0.013,0.012,0.024,0.023,0.013,0.035c6.942,34.83,11.003,70.104,12.392,105.073
			c0.093,2.334,0.175,4.655,0.245,6.989C3106.496,1227.967,3106.577,1238.271,3106.426,1248.526z"/>
	</g>
	<path style="opacity:0.7;fill:#D9E8FF;" d="M2540.855,1448.064v-210.057c0-4.205-42.79-7.614-95.575-7.614
		s-95.576,3.409-95.576,7.614v210.057l-44.112,210.057h270.273L2540.855,1448.064z"/>
	<path style="fill:#E1ECFB;" d="M2326.68,944.357c50.338,63.021-15.367,148.211-15.367,148.211h-257.32
		c0,0-54.456-8.109-80.896-50.115c-26.452-42.006-5.449-73.126-5.449-73.126c-53.674-16.335-43.091-74.339-43.091-74.339
		s-69.998,30.105-183.764-64.735c-112.961-94.187-28.704-208.746-27.526-210.333c-1.003,0.548-49.484,27.083-96.041-0.012
		c-47.059-27.362-56.802-63.639-56.802-63.639s-106.181,18.669-211.196-89.344c-54.993-56.556-60.068-118.328-52.426-164.336
		c43.313,3.173,83.65,6.978,121.269,11.365c312.64,36.417,438.681,112.272,535.469,185.047
		c46.056,34.62,85.482,68.551,135.248,97.22c2.311,31.924-1.738,61.095-1.738,61.095s52.787-3.5,107.511,26.254
		c54.736,29.754,45.833,101.514,45.833,101.514s53.453-12.252,97.209,45.168C2381.369,887.673,2326.68,944.357,2326.68,944.357z"/>
	<g style="opacity:0.5;">
		<path style="fill:#ADC8FE;" d="M477.628,1463.025v125.41h-31.504v-125.41c0-37.07-30.151-67.222-67.221-67.222H178.43
			c4.259-10.489,9.09-21.003,14.457-31.504h186.016C433.347,1364.3,477.628,1408.592,477.628,1463.025z"/>
	</g>
	<g>
		<polygon style="fill:#D4E4F8;" points="816.037,1659.951 740.131,1659.951 742.865,1501.535 745.371,1356.487 748.137,1196.48 
			750.537,1057.522 752.919,919.276 806.375,919.276 808.178,1057.522 809.99,1196.48 812.079,1356.487 813.973,1501.535 		"/>
		<polygon style="opacity:0.5;fill:#ADC8FE;" points="808.178,1057.522 750.537,1057.522 752.919,919.276 806.375,919.276 		"/>
		<polygon style="fill:#CDDEFF;" points="812.079,1356.487 745.371,1356.487 748.137,1196.48 809.99,1196.48 		"/>
		<polygon style="fill:#CDDEFF;" points="816.037,1659.951 740.131,1659.951 742.865,1501.535 813.973,1501.535 		"/>
		<rect x="743.932" y="955.892" style="fill:#ADC8FE;" width="70.599" height="3.657"/>
		<rect x="743.932" y="1302.176" style="fill:#BDD4F9;" width="70.599" height="3.657"/>
	</g>
	<polygon style="fill:#D4E4F8;" points="955.448,1659.951 870.419,1659.951 873.481,1482.495 876.288,1320.013 879.387,1140.774 
		882.075,985.114 884.745,830.252 944.624,830.252 946.644,985.114 948.674,1140.774 951.015,1320.013 953.136,1482.495 	"/>
	<polygon style="opacity:0.5;fill:#ADC8FE;" points="946.644,985.114 882.075,985.114 884.745,830.252 944.624,830.252 	"/>
	<polygon style="opacity:0.5;fill:#ADC8FE;" points="951.015,1320.013 876.288,1320.013 879.387,1140.774 948.674,1140.774 	"/>
	<polygon style="opacity:0.5;fill:#ADC8FE;" points="955.448,1659.951 870.419,1659.951 873.481,1482.495 953.136,1482.495 	"/>
	<rect x="874.677" y="871.268" style="fill:#ADC8FE;" width="79.084" height="4.097"/>
	<rect x="874.677" y="1259.174" style="fill:#ADC8FE;" width="79.084" height="4.097"/>
	<path style="fill:#D4E4F8;" d="M2311.317,1375.343v-282.779c0-5.662-57.605-10.251-128.665-10.251s-128.664,4.589-128.664,10.251
		v282.779l-59.384,282.778h363.843L2311.317,1375.343z"/>
	<path style="opacity:0.5;fill:#ADC8FE;" d="M1261.702,1451.265v-206.857c0-4.141-51.82-7.498-115.744-7.498
		c-63.923,0-115.744,3.357-115.744,7.498v206.857l-53.42,206.856h327.304L1261.702,1451.265z"/>
	<g>
		<g>
			<polygon style="fill:#D4E4F8;" points="1883.524,1659.951 1778.276,1659.951 1782.066,1437.507 1785.541,1233.834 
				1789.377,1009.156 1792.703,814.034 1796.008,619.912 1870.126,619.912 1872.627,814.034 1875.139,1009.156 1878.035,1233.834 
				1880.661,1437.507 			"/>
			<polygon style="fill:#ADC8FE;" points="1872.627,814.034 1792.703,814.034 1796.008,619.912 1870.126,619.912 			"/>
			<polygon style="fill:#ADC8FE;" points="1878.035,1233.834 1785.541,1233.834 1789.377,1009.156 1875.139,1009.156 			"/>
			<polygon style="fill:#ADC8FE;" points="1883.524,1659.951 1778.276,1659.951 1782.066,1437.507 1880.661,1437.507 			"/>
		</g>
		<rect x="1783.546" y="671.326" style="fill:#8CB4F4;" width="97.89" height="5.135"/>
		<rect x="1783.546" y="1157.571" style="fill:#8CB4F4;" width="97.89" height="5.136"/>
	</g>
	<path style="fill:#BED3F4;" d="M1696.713,1351.272v-306.849c0-6.144-65.285-11.123-145.818-11.123s-145.818,4.979-145.818,11.123
		v306.849l-67.301,306.849h412.35L1696.713,1351.272z"/>
	<g>
		<polygon style="fill:#ADC8FE;" points="935.628,1577.635 787.769,1615.245 624.613,1615.245 325.07,1615.245 325.07,1577.635 		
			"/>
		<polygon style="fill:#D9E8FF;" points="787.769,1658.121 787.769,1615.245 935.628,1577.635 1063.093,1615.245 1063.093,1658.121 
					"/>
		<rect x="325.07" y="1615.245" style="fill:#CDDEFF;" width="462.699" height="42.876"/>
	</g>
	<g>
		<path style="fill:#ADC8FE;" d="M384.259,1497.073v115.586h-29.031v-115.586c0-34.153-27.794-61.947-61.958-61.947h-128.2
			c2.614-9.626,5.741-19.312,9.358-29.03H293.27C343.443,1406.096,384.259,1446.911,384.259,1497.073z"/>
	</g>
	<g>
		<path style="fill:#97BEFC;" d="M502.879,1567.199l-147.849,42.484H183.763c-8.413-13.406-14.9-27.619-19.556-42.484H502.879z"/>
		<polygon style="fill:#D9E8FF;" points="355.024,1658.121 355.024,1609.685 502.884,1567.196 630.349,1609.685 630.349,1658.121 		
			"/>
		<path style="fill:#C0D8FF;" d="M355.03,1609.684v48.436H227.239c-17.958-14.469-32.392-30.746-43.476-48.436H355.03z"/>
	</g>
	<path style="fill:#E1ECFB;" d="M921.695,755.94c-4.323-60.415-38.696-81.247-38.696-81.247s13.333-47.915-40.728-69.79
		c0,0,21.801-48.331-2.188-87.767c-28.56,15.157-64.403,36.734-99.938,64.484c-9.679-37.964-21.183-79.371-23.34-79.805
		c-1.68-0.338-51.13-12.718-106.753-26.686c-23.932,20.968-46.977,44.515-67.221,70.558
		c-23.372,30.081-42.998,63.522-55.879,100.207c-0.77,2.182-1.505,4.375-2.229,6.581c-5.157,15.845-9.066,32.274-11.47,49.298
		c28.424,18.565,60.745,6.185,60.745,6.185s2.45,46.894,69.287,52.612c0.002,0,0.004,0,0.006,0
		c-0.001,0.002-0.001,0.003-0.001,0.004c10.031,10.093,29.843,23.447,62.008,18.979c0,0-3.823,19.093,4.344,36.801
		c8.156,17.708,38.363,15.625,38.363,15.625s-14.062,21.875,13.541,37.499c0,0-13.166,33.457,31.176,49.8h53.457
		c0,0,62.237-34.176,46.613-86.257C852.792,833.021,926.029,816.354,921.695,755.94z"/>
	<path style="fill:#EFD8CE;" d="M996.844,733.628c17.503,58.342-52.215,96.625-52.215,96.625h-59.882
		c-49.672-18.308-34.923-55.786-34.923-55.786c-30.921-17.503-15.168-42.006-15.168-42.006s-33.838,2.333-42.975-17.502
		c-9.148-19.836-4.866-41.224-4.866-41.224c-56.008,7.771-78.563-32.671-78.563-32.671c-115.131,0-165.305-95.295-165.305-95.295
		l-0.117-0.082c84.245-108.422,217.228-173.391,259.234-190.858c41.283-17.188,86.684-30.279,134.524-39.73c0.023,0,0.035,0,0.035,0
		c11.341,9.299,5.157,28.949,5.157,28.949c84.805,41.994,43.278,134.045,43.278,134.045c60.559,24.503,45.623,78.178,45.623,78.178
		s38.505,23.336,43.348,91.013C1078.884,714.959,996.844,733.628,996.844,733.628z"/>
	<path style="fill:#C9D9F0;" d="M1929.854,507.17c20.419,68.073-60.933,112.739-60.933,112.739h-69.869
		c-57.957-21.353-40.746-65.086-40.746-65.086c-36.078-20.431-17.701-49.018-17.701-49.018s-39.485,2.73-50.139-20.419
		c-10.676-23.15-5.682-48.097-5.682-48.097c-65.354,9.066-91.667-38.132-91.667-38.132c-92.168,0-148.666-52.344-175.048-85.202
		c312.64,36.417,438.681,112.272,535.469,185.047C1940.028,504.859,1929.854,507.17,1929.854,507.17z"/>
	<g>
		<path style="fill:#FFB27D;" d="M578.299,1326.83l0.528,7.693c0,0,7.455,13.352-7.077,21.085c0,0-6.297,2.766-7.23-1.941
			c-0.934-4.708,0.166-2.974-1.31-9.595c-1.476-6.622,0.502-13.042,5.02-15.39l3.365-4.354L578.299,1326.83z"/>
		<path style="fill:#7A96E5;" d="M572.709,1333.633c6.027,1.339,6.925,0.827,6.925,0.827s23.698-54.5,26.145-59.515
			c2.447-5.015,55.115-63.751,55.115-63.751l-19.902-53.832c0,0-57.678,90.89-63.628,103.718
			c-9.833,21.197-12.367,68.551-12.367,68.551S567.976,1332.582,572.709,1333.633z"/>
		<path style="fill:#FFB27D;" d="M563.792,1333.893c0,0-1.661,6.021-3.12,7.716s-2.853,3.181-1.784,4.157
			c1.07,0.977,6.262-3.36,6.528-4.32C565.683,1340.486,563.792,1333.893,563.792,1333.893z"/>
		<g>
			<path style="fill:#233862;" d="M508.803,1427.376l85.187,19.856c11.087,2.584,22.272-4.373,24.857-15.459l8.605-36.917
				c2.584-11.087-4.373-22.272-15.459-24.856l-85.187-19.856c-11.086-2.585-22.272,4.372-24.857,15.459l-8.605,36.917
				C490.759,1413.606,497.716,1424.791,508.803,1427.376z"/>
			<path style="fill:#233862;" d="M497.536,1425.255l85.036,19.821c11.128,2.594,22.355-4.389,24.95-15.518l8.705-37.345
				c2.594-11.128-4.389-22.355-15.517-24.949l-16.96-3.953l1.856-7.963c0.415-1.779,0.109-3.616-0.86-5.175
				c-0.969-1.559-2.482-2.646-4.261-3.06l-25.443-5.931c-3.681-0.857-7.376,1.439-8.234,5.121l-1.856,7.963l-29.277-6.824
				c-11.128-2.594-22.356,4.389-24.95,15.517l-8.705,37.345C479.425,1411.434,486.408,1422.66,497.536,1425.255z M579.564,1362.336
				l-30.428-7.093l1.856-7.963c0.26-1.117,1.221-1.893,2.309-1.972c0.25-0.019,0.508,0,0.765,0.061l25.443,5.93
				c1.374,0.321,2.231,1.699,1.912,3.074L579.564,1362.336z"/>
		</g>
		<path style="fill:#FFB27D;" d="M641.872,1155.145c0,0,17.88,17.629,37.662,7.735c0,0,3.428-11.084,2.763-18.96
			c-0.082-0.97-0.157-1.909-0.224-2.804c-0.709-8.873-0.87-13.873-0.87-13.873s-0.006-0.002-0.021-0.003
			c-0.97-0.303-32.56-9.986-32.438-8.951C651.479,1142.211,641.872,1155.145,641.872,1155.145z"/>
		<path style="fill:#ED975D;" d="M652.327,1123.723c3.438,5.169,14.491,14.882,29.746,17.394c-0.709-8.873-0.87-13.873-0.87-13.873
			s-0.006-0.002-0.021-0.003C680.318,1127.092,651.306,1122.199,652.327,1123.723z"/>
		<path style="fill:#FFB27D;" d="M687.492,1125.733c0,0-33.485,11.209-40.144-9.751c-6.659-20.96-15.466-33.63,5.631-41.673
			c21.098-8.042,27.813-1.371,31.737,5.085C688.641,1085.85,696.03,1122.277,687.492,1125.733z"/>
		<g>
			<path style="fill:#2C3A64;" d="M580.569,1661.886h-20.814c-4.363,0-9.211-4.369-10.425-12.367
				c-1.213-8.004-10.182-12.367-12.124-18.915c-1.942-6.547,8.004-15.765,8.004-15.765l1.663-2.136l1.729-2.228l16.487,3.878
				c0,0,0.407,3.926,0.662,8.926c0.176,3.611,0.273,7.786,0.067,11.445c-0.486,8.731,2.445,18.132,10.201,19.83
				C583.779,1656.254,580.569,1661.886,580.569,1661.886z"/>
			<path style="fill:#2C3A64;" d="M725.466,1661.886h-55.172c-0.528-0.104-0.929-0.219-1.171-0.34
				c-3.684-1.845-2.53-15.947-2.087-20.305c0.085-0.807,0.145-1.28,0.145-1.28s19.4-15.517,22.07-3.635
				c0.085,0.37,0.182,0.734,0.285,1.092v0.007c3.368,11.117,18.423,16.166,27.119,17.573
				C723.3,1656.078,725.023,1659.95,725.466,1661.886z"/>
			<path style="fill:#2B478B;" d="M714.346,1343.726c0,0-2.946,36.761-6.409,80.948c-4.707,60.025-10.367,133.757-10.927,147.725
				c-0.968,24.255-4.853,63.052-4.853,63.052s-9.21,9.218-27.644,5.333c0,0-16.427-55.384-21.12-113.983
				c-0.072-0.961-0.145-1.929-0.218-2.896c-4.365-59.654-11.153-185.271-11.153-185.271L714.346,1343.726z"/>
			<path style="fill:#233862;" d="M714.346,1343.726c0,0-2.946,36.761-6.409,80.948L643.393,1526.8
				c-0.072-0.961-0.145-1.929-0.218-2.896c-4.365-59.654-11.153-185.271-11.153-185.271L714.346,1343.726z"/>
			<path style="fill:#2B478B;" d="M700.891,1348.091c0,0-53.107,133.132-88.027,195.696c-34.919,62.564-45.832,80.024-45.832,80.024
				s-20.006-8.003-21.825-13.459c0,0,13.354-120.784,36.738-150.228c13.214-16.638,28.736-66.565,29.463-84.025
				c0.727-17.46,4.729-52.016,4.729-52.016L700.891,1348.091z"/>
		</g>
		<path style="fill:#9DB0F4;" d="M715.983,1358.403c-0.628,0.515-1.367,0.804-2.204,0.782c-7.785-0.25-30.59,3.612-49.771,1.263
			c-16.177-1.884-30.429-6.965-45.692-14.186c-2.032-0.957-6.69-3.56-6.542-5.846c0.121-2.498,0.44-6.132,0.847-10.7
			c1.411-15.871,3.852-43.187,2.633-74.778c-0.218-5.881-0.277-11.709-0.186-17.452c0.251-14.957,1.538-29.268,3.847-42.079
			c4.302-23.812,16.977-44.308,28.215-52.36c1.477-1.01,5.484,5.372,13.616,9.589c7.506,3.888,13.734,2.288,20.928,0.987
			l8.397,8.639c8.562,8.276,17.902,19.483,21.727,36.292c0.284,1.243,0.548,2.563,0.804,3.974
			c1.265,6.871,2.225,15.634,2.954,25.477c0.845,11.353,1.36,24.157,1.672,37.18c0.011,0.773,0.028,1.548,0.045,2.322
			c0.083,3.767,0.151,7.545,0.208,11.304c0.063,4.289,0.102,8.55,0.112,12.762c0.004,3.165-0.009,6.301-0.043,9.383l-0.01,0.411
			c0.083,1.147,0.059,2.396,0.03,3.54c-0.033,5.165-0.083,10.139-0.148,14.842C717.1,1342.009,716.419,1358.068,715.983,1358.403z"
			/>
		<path style="fill:#7A96E5;" d="M717.421,1319.747c-47.392-21.093-61.6-96.457-61.6-96.457l61.659,55.52
			c0.063,4.289,0.102,8.55,0.112,12.762c0.004,3.165-0.009,6.301-0.043,9.383l-0.01,0.411c0.083,1.147,0.059,2.396,0.03,3.54
			C717.536,1310.07,717.486,1315.044,717.421,1319.747z"/>
		<path style="fill:#FFB27D;" d="M794.54,1305.614c3.515-1.038,11.438-3.255,11.439-2.161c0,0.787-0.75,1.87-1.945,2.855
			c4.381-0.131,8.653,0.258,17.378,5.225c1.748,0.995,3.081,2.633,3.564,4.584c0.448,1.806,0.174,3.779-2.711,4.45
			c-5.771,1.343-3.787,0.038-11.873,2.101c-8.087,2.063-16.566,0.408-20.38-4.266l-6.13-3.293l2.828-10.963
			C786.71,1304.146,790.564,1304.964,794.54,1305.614z"/>
		<path style="fill:#9DB0F4;" d="M790.938,1311.149c2.539-6.054-0.321-8.178-0.321-8.178s-59.153-32.854-63.939-36.361
			c-4.785-3.508-34.402-66.752-34.402-66.752s-10.83-25.778-26.698-26.294c-13.789-0.447-21.988,7.64-26.808,16.361
			c-5.744,10.393-4.429,23.262,3.156,32.398c17.026,20.508,51.256,61.146,60.387,67.568c20.325,14.293,83.047,28.824,83.047,28.824
			S788.943,1315.904,790.938,1311.149z"/>
		<path style="fill:#F5FAFF;" d="M665.581,1106.966c0,0,0,6.935-2.167,13.055c0,0,7.704,6.965,16.028,7.688
			c8.324,0.723,12.466-3.295,12.718-7.563c0.251-4.268-1.528-17.596-1.528-17.596S687.357,1104.459,665.581,1106.966z"/>
		<g>
			<polygon style="fill:#F5FAFF;" points="665.581,1108.849 653.432,1100.651 655.257,1100.07 665.581,1106.966 			"/>
		</g>
		<g>
			<polygon style="fill:#F5FAFF;" points="663.413,1120.021 650.382,1112.317 649.276,1109.711 664.113,1118.845 			"/>
		</g>
		<path style="fill:#A9453D;" d="M649.057,1121.702c-0.439,0.343-7.596,3.286-24.11-23.211c-2.593-4.16-4.956-13.458-0.623-22.267
			s21.825-17.036,36.597-21.277c14.772-4.242,19.163,3.886,23.489,12.061c4.542,8.583,15.955,14.939,15.955,14.939
			c-12.297,8.441-28.87-0.476-34.123,1.728c-5.253,2.203-6.376,10.906-6.529,13.677c-0.153,2.771-0.567,5.1-7.596,3.287
			c-7.029-1.813-2.186,9.925-0.883,12.135C651.235,1112.773,652.728,1118.842,649.057,1121.702z"/>
	</g>
	<g>
		<path style="fill:#739CF3;" d="M1215.705,1320.391h-3.188l0.028-0.25l0.962-8.502c0.032-0.273,0.263-0.48,0.539-0.48
			c0.035,0,0.067,0.002,0.102,0.006c0.179,0.021,0.343,0.1,0.472,0.216c0.151,0.138,0.252,0.33,0.274,0.548L1215.705,1320.391z"/>
		<path style="fill:#86B1FC;" d="M1212.824,1318.462l-0.113,0.003l0.796-6.826c0.032-0.273,0.263-0.48,0.539-0.48
			c0.035,0,0.067,0.002,0.102,0.006c0.03,0.026,0.058,0.052,0.084,0.08c0.14,0.151,0.224,0.35,0.227,0.569l0.046,4.907
			C1214.513,1317.662,1213.766,1318.438,1212.824,1318.462z"/>
		<rect x="1211.589" y="1358.223" style="fill:#739CF3;" width="6.147" height="271.399"/>
		<rect x="1211.589" y="1358.223" style="fill:#86B1FC;" width="2.838" height="271.399"/>
		<rect x="1204.873" y="1586.313" style="fill:#739CF3;" width="19.577" height="71.809"/>
		<rect x="1204.873" y="1586.313" style="fill:#86B1FC;" width="11.668" height="71.809"/>
		<path style="fill:#739CF3;" d="M1225.36,1324.486c0,3.354-5.036,6.072-11.25,6.072c-0.475,0-0.94-0.016-1.4-0.048
			c-5.551-0.371-9.849-2.927-9.849-6.024c0-3.097,4.298-5.65,9.849-6.021c0.46-0.032,0.925-0.047,1.4-0.047
			C1220.324,1318.418,1225.36,1321.135,1225.36,1324.486z"/>
		<path style="fill:#86B1FC;" d="M1219.537,1324.486c0,2.703-2.813,5.023-6.826,6.024c-5.551-0.371-9.849-2.927-9.849-6.024
			c0-3.097,4.298-5.65,9.849-6.021C1216.725,1319.464,1219.537,1321.784,1219.537,1324.486z"/>
		<polygon style="fill:#739CF3;" points="1224.427,1363.575 1204.851,1363.575 1197.949,1330.342 1230.272,1330.342 		"/>
		<rect x="1196.203" y="1327.838" style="fill:#739CF3;" width="35.815" height="3.188"/>
		<rect x="1196.203" y="1327.838" style="fill:#86B1FC;" width="22.514" height="3.188"/>
		<path style="fill:#739CF3;" d="M1208.081,1586.313h12.509l-1.831-5.553c-0.163-0.492-0.622-0.825-1.141-0.825h-5.86
			c-0.636,0-1.208,0.384-1.451,0.972L1208.081,1586.313z"/>
		<polygon style="fill:#94C0FF;" points="1200.262,1331.962 1227.869,1331.962 1222.477,1361.833 1206.625,1361.833 		"/>
		<polygon style="fill:#739CF3;" points="1229.73,1327.838 1198.491,1327.838 1201.049,1324.195 1227.301,1324.195 		"/>
		<polygon style="fill:#86B1FC;" points="1222.037,1327.838 1198.491,1327.838 1201.049,1324.195 1219.608,1324.195 		"/>
	</g>
	<path style="fill:#9DB0F4;" d="M1251.797,1657.757c0-2.917-0.583-36.112,32.671-52.769c33.255-16.657,49.792-1.858,83.237-7.216
		s45.114-26.36,81.286-25.777c36.172,0.583,64.176,25.59,111.432-5.583c47.257-31.172,160.439-18.23,184.942,21.389
		c24.504,39.619,102.486,51.346,153.827,37.703s127.362,33.625,127.362,33.625L1251.797,1657.757z"/>
	<g>
		<polygon style="fill:#D36D1A;" points="950.652,1593.808 1165.012,1593.808 1174.919,1543.425 960.948,1543.425 		"/>
		<polygon style="fill:#F49540;" points="946.991,1593.808 1161.35,1593.808 1171.258,1543.425 957.286,1543.425 		"/>
		<path style="fill:#D36D1A;" d="M1101.745,1599.977h58.578c2.591,0,4.692-2.101,4.692-4.692v-1.475h-63.27V1599.977z"/>
		
			<rect x="907.532" y="1593.81" transform="matrix(-1 -1.224647e-16 1.224647e-16 -1 2009.7474 3193.7861)" style="fill:#FFA255;" width="194.684" height="6.167"/>
		<g>
			<path style="fill:#FFA255;" d="M1152.218,1599.977l3.67,14.431c0,0.009,0,0.009,0,0.018l10.864,42.749
				c0.146,0.561,0.646,0.947,1.214,0.947c1.103,0,1.939-1.008,1.723-2.084l-9.692-49.866l-1.206-6.194H1152.218z"/>
		</g>
		<path style="fill:#D36D1A;" d="M1155.888,1614.407c-0.353-7.384,4.109-8.236,4.109-8.236l-1.206-6.194h-6.573L1155.888,1614.407z"
			/>
		<g>
			<path style="fill:#FFA255;" d="M1105.718,1599.977l3.67,14.431c0,0.009,0,0.009,0,0.018l10.864,42.749
				c0.146,0.561,0.646,0.947,1.214,0.947c1.103,0,1.938-1.008,1.723-2.084l-9.692-49.866l-1.207-6.194H1105.718z"/>
		</g>
		<path style="fill:#D36D1A;" d="M1109.388,1614.407c-0.353-7.384,4.11-8.236,4.11-8.236l-1.207-6.194h-6.573L1109.388,1614.407z"/>
		<g>
			<path style="fill:#FFA255;" d="M925.298,1599.977l-3.67,14.431c0,0.009,0,0.009,0,0.018l-10.864,42.749
				c-0.146,0.561-0.646,0.947-1.215,0.947c-1.102,0-1.938-1.008-1.723-2.084l9.692-49.866l1.206-6.194H925.298z"/>
		</g>
		<path style="fill:#D36D1A;" d="M921.627,1614.407c0.354-7.384-4.109-8.236-4.109-8.236l1.206-6.194h6.574L921.627,1614.407z"/>
		<g>
			<path style="fill:#FFA255;" d="M971.797,1599.977l-3.67,14.431c0,0.009,0,0.009,0,0.018l-10.864,42.749
				c-0.146,0.561-0.646,0.947-1.215,0.947c-1.103,0-1.938-1.008-1.723-2.084l9.692-49.866l1.206-6.194H971.797z"/>
		</g>
		<path style="fill:#D36D1A;" d="M968.127,1614.407c0.353-7.384-4.109-8.236-4.109-8.236l1.206-6.194h6.574L968.127,1614.407z"/>
	</g>
	<g>
		<path style="fill:#FFB27D;" d="M1943.498,1274.843c0,0-0.048,9.477-1.846,14.048s-7.19,10.667-8.988,10.667
			c-1.797,0,1.648-9.524,0.749-9.333c-0.898,0.19-5.235,15.851-8.381,16.231s-6-17.565-4.353-24.613
			c1.648-7.047,8.764-15.5,8.764-15.5L1943.498,1274.843z"/>
		<path style="fill:#163560;" d="M2005.316,901.967c0,0,21.574-2.387,40.786,9.998c19.211,12.386,19.633,57.524,36.27,65.064
			c16.638,7.539,41.437,19.197,38.933,42.13c-2.505,22.933-10.372,30.286,0.263,43.932c10.636,13.645-7.76,47.784-38.454,37.552
			c-30.694-10.233-126.361-41.605-136.024-59.604c-9.663-17.999-4.846-39.077,4.731-56.389
			C1961.398,967.337,1939.922,906.007,2005.316,901.967z"/>
		<path style="fill:#9DB0F4;" d="M1971.77,1031.688c0,0-22.131,5.431-28.614,33.691c-7.923,34.537,3.948,113.914-2.646,137.139
			c-6.594,23.223-14.837,65.67-14.837,65.67s9.306,7.479,19.165,7.009c0,0,50.422-73.846,50.866-93.797
			S1971.77,1031.688,1971.77,1031.688z"/>
		<path style="fill:#233862;" d="M2140.832,1599.341c0,0,13.376,12.207,10.767,20.881c-2.61,8.674-14.682,14.456-16.313,25.058
			c-1.631,10.601-8.156,16.383-14.028,16.383s-27.997,0-27.997,0s-4.323-7.46,6.117-9.708c10.439-2.249,14.376-14.706,13.724-26.271
			c-0.652-11.564,0.979-26.984,0.979-26.984l22.186-5.14L2140.832,1599.341z"/>
		<path style="fill:#233862;" d="M2027.615,1604.523c0,0,4.813,51.714-1.061,54.605l-75.154-0.154c0,0,0-8.674,12.07-10.602
			c12.072-1.927,33.278-8.994,36.867-24.735S2027.615,1604.523,2027.615,1604.523z"/>
		<path style="fill:#7A96E5;" d="M1949.978,1110.82c0,0,10.361,64.007,4.735,81.648c-5.625,17.641,1.674,44.44,1.674,44.44
			l45.041-71.732L1949.978,1110.82z"/>
		<path style="fill:#9DB0F4;" d="M2075.164,1091.265c0,0-0.17,20.915-1.291,39.858c-0.071,1.291-0.156,2.554-0.241,3.816
			c-0.738,11.054-1.831,20.872-3.462,24.604c-4.513,10.443-9.621,12.132-9.621,12.132l-9.421,2.313l-1.562,0.383l-2.71,0.667
			l-25.768,6.314l-13.877,3.392l-43.746-13.068c0,0-19.936-55.622-11.933-86.938c8.002-31.302,20.233-53.054,20.233-53.054
			s28.436-8.485,69.031-4.611c0.767,0.071,1.547,0.142,2.327,0.241c3.519,0.369,7.137,0.837,10.826,1.404L2075.164,1091.265z"/>
		<path style="fill:#7A96E5;" d="M2073.632,1134.939c-0.738,11.054-1.831,20.872-3.462,24.604
			c-4.513,10.443-9.621,12.132-9.621,12.132l-9.421,2.313c0.241-0.454,0.524-0.922,0.865-1.404c11.365-16.488,0-50.997,0-50.997
			C2054.405,1121.615,2064.536,1128.427,2073.632,1134.939z"/>
		<path style="fill:#233862;" d="M1966.248,1180.122c0,0-21.668,67.443-23.06,90.405c-1.392,22.963,41.419,326.199,43.142,336.779
			c1.623,9.974,14.008,16.331,14.008,16.331s5.696,3.359,13.825,1.064c11.278-3.185,14.844-6.998,14.844-6.998
			s16.865-216.266,6.429-293.521c-10.438-77.254-10.561-144.062-10.561-144.062H1966.248z"/>
		<path style="fill:#2B478B;" d="M2058.05,1178.111c0,0,33.052,44.347,36.133,74.325c3.081,29.978,4.834,135.279,11.398,164.503
			c6.564,29.225,30.684,85.466,30.684,176.619c0,0-2.507,5.224-10.248,8.008c-2.476,0.89-5.792,1.753-9.013,2.491
			c-6.383,1.464-12.934-1.656-15.847-7.522c-16.306-32.831-68.247-138.719-70.91-160.699
			c-1.885-15.555-18.285-118.504-54.059-178.912c-8.589-14.503,5.271-72.178,5.271-72.178L2058.05,1178.111z"/>
		<path style="fill:#233862;" d="M1962.786,1169.71c0,0,8.699,6.881,25.979,7.229c20.64,0.415,71.785-5.263,71.785-5.263
			s2.272,6.35,2.181,13.054c0,0-62.466,15.757-98.659,2.301C1964.072,1187.031,1959.404,1178.249,1962.786,1169.71z"/>
		<g>
			<path style="fill:#FFFFFF;" d="M1983.813,1194.727c-5.193,0-9.419-4.782-9.419-10.66s4.226-10.66,9.419-10.66
				s9.418,4.782,9.418,10.66S1989.007,1194.727,1983.813,1194.727z M1983.813,1176.528c-3.473,0-6.297,3.382-6.297,7.538
				s2.824,7.538,6.297,7.538c3.472,0,6.297-3.382,6.297-7.538S1987.285,1176.528,1983.813,1176.528z"/>
		</g>
		<g>
			<g>
				
					<rect x="2055.157" y="1229.746" transform="matrix(0.9387 -0.3448 0.3448 0.9387 -304.6354 803.1785)" style="fill:#ED7D2B;" width="100.558" height="56.361"/>
				<path style="fill:#F99746;" d="M2048.523,1248.813c0,0,30.419,18.971,59.549,6.787c29.129-12.184,34.842-41.463,34.842-41.463
					L2048.523,1248.813z"/>
			</g>
			<g>
				<path style="fill:#0C2442;" d="M2062.398,1248.733c-2.981,0.419-5.748-1.665-6.168-4.647c-0.419-2.98,1.666-5.748,4.647-6.167
					c2.98-0.419,5.748,1.666,6.167,4.646C2067.464,1245.547,2065.379,1248.314,2062.398,1248.733z M2061.131,1239.716
					c-1.992,0.28-3.384,2.127-3.104,4.118c0.279,1.99,2.127,3.383,4.118,3.103c1.99-0.279,3.383-2.127,3.103-4.118
					C2064.968,1240.828,2063.121,1239.436,2061.131,1239.716z"/>
			</g>
			<g>
				<path style="fill:#0C2442;" d="M2061.996,1238.819l-2.724,0.567c-0.1-0.511-6.158-29.925-12.416-64.349
					c-4.597-25.342-9.294-53.394-11.819-74.636c-3.122-26.293-1.674-45.335,0.1-56.672c1.376-8.812,4.143-14.203,5.661-16.658
					c0.767,0.071,1.547,0.142,2.327,0.241c-2.412,6.073-10.387,30.181-5.321,72.763c2.512,21.128,7.194,49.053,11.763,74.295
					C2055.824,1208.823,2061.883,1238.309,2061.996,1238.819z"/>
			</g>
		</g>
		<path style="fill:#FFB27D;" d="M2127.462,1263.688c0,0,0.042,8.324,1.62,12.34c1.579,4.015,6.316,9.369,7.896,9.369
			s-1.447-8.365-0.658-8.198c0.79,0.167,4.599,13.923,7.362,14.257c2.763,0.335,5.27-15.428,3.822-21.618
			s-7.697-13.615-7.697-13.615L2127.462,1263.688z"/>
		<path style="fill:#9DB0F4;" d="M2053.951,1028.718c0,0,25.936,3.457,39.625,30.429c10.579,20.843,17.838,86.405,25.302,107.049
			c7.142,19.753,16.999,57.937,22.497,88.535c0.427,2.377-0.877,4.723-3.122,5.613l-9.354,3.709
			c-2.019,0.801-4.314,0.024-5.426-1.842c-8.309-13.951-41.082-69.841-52.462-102.176c-4.324-12.284-9.871-23.056-15.391-32.001
			c-13.395-21.71-16.998-48.063-9.47-72.437L2053.951,1028.718z"/>
		<g>
			<path style="fill:#FFB27D;" d="M2028.301,1034.075c4.515-3.33,3.75-7.389,1.564-13.509c-2.632-7.371-4.725-18.257-4.676-31.898
				l-1.981,0.39l-33.311,6.596c0,0,0.758,10.483,0.78,20.358c0.001,0.083,0.001,0.164,0.001,0.246
				c0.041,8.577-0.3,10.633-1.572,19.114C1987.688,1044.834,2019.969,1040.223,2028.301,1034.075z"/>
			<path style="fill:#E8945B;" d="M1989.897,995.655c0,0,0.758,10.483,0.78,20.358c18.641-0.525,28.493-17.529,32.53-26.955
				L1989.897,995.655z"/>
			<path style="fill:#FFB27D;" d="M1983.673,1005.007c0,0,44.103,0.728,44.133-26.745c0.03-27.471,5.743-45.879-22.414-47.505
				c-28.157-1.626-33.64,8.851-35.88,18.018S1972.201,1004.109,1983.673,1005.007z"/>
			<path style="fill:#163560;" d="M1988.298,932.701c0,0-8.954,3.347-12.64,9.877c-3.604,6.386-6.674,14.844-5.962,25.221
				c0,0-9.097-21.907,1.127-34.299C1981.664,920.359,1988.298,932.701,1988.298,932.701z"/>
			<path style="fill:#E1ECFB;" d="M2018.432,991.302c0,0-10.472,11.082-24.478,14.458c-10.854,2.611-15.693-0.85-18.914-6.456
				v-0.014c-0.567-1.008-1.106-2.086-1.604-3.221c-0.298-0.681-0.596-1.376-0.88-2.086c-0.624-1.532-1.021-3.448-1.263-5.42
				c-0.128-1.036-0.213-2.071-0.27-3.093c-0.213-4.058,0.043-7.591,0.043-7.591s13.139,0.922,38.552-5.831
				c0,0,0.539,1.774,1.519,4.356c0.142,0.426,0.313,0.866,0.497,1.334c0.185,0.497,0.383,1.007,0.596,1.546
				c0.624,1.547,1.348,3.221,2.143,4.91c0.439,0.908,0.908,1.83,1.376,2.724C2016.586,988.479,2017.495,989.982,2018.432,991.302z"
				/>
			<g>
				<path style="fill:#E1ECFB;" d="M2018.432,991.298l-1.286-0.887c0.086-0.166,9.27-16.118,10.077-18.579l0.213-0.63
					c0.699-2.052,2.154-6.32,0.933-8.684c-0.396-0.766-1.044-1.272-1.979-1.549c-3.9-1.147-13.682,8.843-17.118,12.793l-1.069-0.931
					c1.324-1.523,13.106-14.839,18.59-13.222c1.309,0.387,2.263,1.146,2.838,2.258c1.5,2.9-0.029,7.384-0.851,9.794l-0.207,0.613
					C2027.729,974.842,2018.784,990.614,2018.432,991.298z"/>
			</g>
			<path style="fill:#163560;" d="M1985.305,930.084c0,0,12.075,32.229,30.606,36.995c18.532,4.765,26.57-0.2,26.57-0.2
				s-14.215-11.292-17.164-31.003C2025.317,935.876,1994.414,914.744,1985.305,930.084z"/>
			<g>
				<path style="fill:#D0DFF2;" d="M2012.23,979.284c-11.819,6.385-23.54,9.592-34.934,9.592c-2.001,0-4.017-0.1-6.003-0.313
					c-0.128-1.036-0.213-2.071-0.27-3.093c12.87,1.433,26.278-1.56,39.872-8.939c0.085-0.043,0.17-0.085,0.241-0.128
					c0.142,0.426,0.313,0.866,0.497,1.334C2011.819,978.234,2012.018,978.745,2012.23,979.284z"/>
			</g>
			<g>
				<path style="fill:#D0DFF2;" d="M2015.749,986.917c-12.515,8.329-24.873,12.529-36.849,12.529c-1.292,0-2.583-0.042-3.86-0.142
					v-0.014c-0.567-1.008-1.106-2.086-1.604-3.221c13.083,1.518,26.789-2.441,40.767-11.763c0.057-0.042,0.113-0.085,0.17-0.113
					C2014.813,985.102,2015.281,986.023,2015.749,986.917z"/>
			</g>
		</g>
	</g>
	<g>
		<g id="man_1_">
			<path style="fill:#FFB27D;" d="M1154.908,986.812c3.684,9.83,10.062,21.235,16.742,24.064c7.573,3.207,10.737,7.749,10.737,7.749
				l6.107-3.544l7.294-4.238c0,0-0.173-0.808-0.533-2.123c-0.353-1.31-0.904-3.134-1.647-5.154c0,0-2.244-2.865-0.877-6.473
				c1.367-3.601,1.085-9.164-1.262-12.557c-2.346-3.386-4.617-11.738-6.026-11.488c-3.413,0.59,1.695,12.066,0.237,14.199
				c-1.318,1.929-2.972,1.27-3.278,1.124c-0.019-0.013-0.038-0.019-0.057-0.032c-9.583-4.183-21.23-26.79-26.369-23.73
				C1154.057,965.755,1153.338,982.625,1154.908,986.812z"/>
			<g>
				<path style="fill:#2B478B;" d="M1188.059,1000.462l-11.986,8.419c-0.846,0.596-2.027,0.392-2.624-0.452l-30.794-43.538
					c-0.597-0.844-0.392-2.021,0.454-2.615l11.986-8.419c0.846-0.595,2.027-0.391,2.624,0.453l30.794,43.538
					C1189.11,998.691,1188.906,999.868,1188.059,1000.462z"/>
				<path style="fill:#233862;" d="M1177.086,1008.17l-7.026,4.936c-0.644,0.452-1.543,0.297-1.997-0.345l-31.313-44.271
					c-0.454-0.642-0.298-1.538,0.346-1.991l7.026-4.935c0.645-0.453,1.543-0.298,1.998,0.345l31.313,44.271
					C1177.886,1006.821,1177.73,1007.718,1177.086,1008.17z"/>
			</g>
			<path style="fill:#F2CCAA;" d="M1360.086,937.69c0,0-60.9,106.195-83.021,125.75l-81.291-60.223c0,0-11.778,3.617-16.922,15.413
				c0,0,49.452,100.055,98.012,104.232c48.56,4.177,116.533-120.169,116.533-120.169L1360.086,937.69z"/>
			<path style="fill:#233862;" d="M1499.236,1659.209l35.272-0.049c4.438-2.41,8.386-7.915,9.625-16.12
				c1.707-11.327,14.434-17.519,17.178-26.787c2.737-9.263-11.395-22.278-11.395-22.278l-2.365-3.029l-2.461-3.145l-23.403,5.526
				c0,0-0.573,5.558-0.914,12.636c-0.248,5.106-0.374,11.008-0.08,16.184c0.706,12.348-3.429,25.655-14.439,28.074
				C1498.116,1652.006,1498.486,1656.819,1499.236,1659.209z"/>
			<path style="fill:#233862;" d="M1294.53,1659.491l80.665-0.111c3.873-4.724,2.419-22.132,1.825-27.815
				c-0.123-1.145-0.207-1.813-0.207-1.813s-27.576-21.918-31.337-5.101c-0.114,0.528-0.253,1.043-0.406,1.552
				c-4.744,15.732-26.116,22.908-38.46,24.916C1298.585,1652.428,1295.624,1656.59,1294.53,1659.491z"/>
			<path style="fill:#2B478B;" d="M1309.277,1210.76c0,0,4.255,51.998,9.257,114.504c6.8,84.909,14.979,189.206,15.802,208.966
				c1.421,34.311,7.012,89.189,7.012,89.189s13.092,13.022,39.255,7.49c0,0,23.21-78.384,29.757-161.294
				c0.101-1.359,0.203-2.728,0.304-4.097c6.079-84.402,15.468-262.125,15.468-262.125L1309.277,1210.76z"/>
			<path style="fill:#233862;" d="M1309.277,1210.76c0,0,4.255,51.998,9.257,114.504l91.826,144.352
				c0.101-1.359,0.203-2.728,0.304-4.097c6.079-84.402,15.468-262.125,15.468-262.125L1309.277,1210.76z"/>
			<path style="fill:#2B478B;" d="M1328.387,1216.909c0,0,75.652,188.236,125.347,276.678
				c49.695,88.442,65.22,113.121,65.22,113.121s28.385-11.36,30.956-19.083c0,0-19.194-170.847-52.449-212.454
				c-18.791-23.512-40.924-94.114-41.991-118.813c-1.067-24.699-6.815-73.578-6.815-73.578L1328.387,1216.909z"/>
			<path style="fill:#FFB27D;" d="M1346.773,942.321c29.473,9.224,80.414-15.849,80.414-15.849s-27.191-20.279-25.827-62.522
				l-22.754,18.325l-15.456,12.446c0,0,0.074,7.325,1.782,20.161c0.452,3.376,1.012,7.14,1.72,11.252
				C1354.015,933.072,1346.773,942.321,1346.773,942.321z"/>
			<path style="fill:#ED975D;" d="M1363.15,894.723c0,0,0.074,7.325,1.782,20.161c17.141-2.955,36.551-30.598,36.551-30.598
				c-8.732-2.499-16.377-2.94-22.878-2.01L1363.15,894.723z"/>
			<path style="fill:#FFB27D;" d="M1354.14,894.04c0,0,48.673,7.989,53.199-22.294c4.526-30.283,13.856-49.647-17.029-56.029
				c-30.885-6.381-38.664,4.276-42.642,14.018S1341.595,891.181,1354.14,894.04z"/>
			<path style="fill:#F9DDBF;" d="M1306.032,1215.096c0.888,0.732,1.918,1.174,3.098,1.172c11.063-0.165,43.333,5.914,70.626,3.083
				c23.01-2.234,43.368-9.056,65.228-18.856c2.903-1.302,9.583-4.867,9.429-8.102c-0.103-3.543-0.463-8.681-0.916-15.151
				c-1.58-22.497-4.332-61.192-1.763-105.843c0.462-8.314,0.698-16.561,0.717-24.68c0.142-60.51-11.973-113.715-36.19-131.695
				c-2.069-1.473-14.747,4.724-26.396,10.47c-10.763,5.31-21.532,5.909-31.711,3.871l-10.164,8.979
				c-12.377,11.484-25.929,27.089-31.796,50.765c-4.992,20.146-7.888,56.469-9.459,94.106c-0.713,17.056-1.283,34.26-1.41,50.581
				l0,0.584c-0.141,1.618-0.138,3.386-0.136,5.003C1304.655,1181.281,1305.295,1214.505,1306.032,1215.096z"/>
			<path style="fill:#F2CCAA;" d="M1453.498,1177.241c-1.58-22.497-4.332-61.192-1.763-105.843
				c0.462-8.314,0.698-16.561,0.717-24.68c-10.112-24.35-18.374-42.007-18.374-42.007l-25.403,0.035
				C1408.675,1004.747,1390.228,1131.544,1453.498,1177.241z"/>
			<g>
				<path style="fill:#152A4C;" d="M1583.84,1320.734l-108.405,15.547c-14.061,2.017-27.226-7.836-29.256-21.895l-6.743-46.695
					c-2.034-14.086,7.828-27.264,21.916-29.284l108.405-15.547c14.06-2.017,27.225,7.836,29.255,21.895l6.744,46.695
					C1607.789,1305.536,1597.928,1318.714,1583.84,1320.734z"/>
				<path style="fill:#233862;" d="M1453.699,1265.546l6.836,47.319c1.327,9.16,7.374,16.541,15.329,20.027
					c2.637,1.16,5.484,1.894,8.445,2.112c0.006,0,0.006,0,0.013,0h0.006c1.844,0.144,3.733,0.09,5.64-0.186l108.125-15.512
					c14.15-2.029,24.06-15.225,22.024-29.325l-6.829-47.325c-2.043-14.101-15.284-23.977-29.433-21.947l-37.23,5.342l-1.456-10.096
					c-0.67-4.667-5.033-7.91-9.709-7.242l-4.083,0.584l-22.647,3.249l-5.626,0.809c-2.258,0.321-4.267,1.514-5.642,3.34
					c-1.376,1.833-1.954,4.085-1.625,6.336l1.456,10.096l-21.569,3.088c-0.855,0.122-1.684,0.289-2.5,0.486
					c-0.006,0.007-0.013,0.007-0.019,0.007h-0.006c-8.331,2.046-14.895,8.052-17.927,15.648v0.006
					C1453.648,1256.422,1453.036,1260.931,1453.699,1265.546z M1541.304,1226.809l-38.691,5.554l-1.456-10.095
					c-0.251-1.736,0.965-3.359,2.713-3.609l9.716-1.394l17.824-2.562l4.81-0.688c0.332-0.045,0.651-0.039,0.964,0.012
					c1.347,0.215,2.458,1.281,2.664,2.692L1541.304,1226.809z"/>
			</g>
			<path style="fill:#FFB27D;" d="M1501.242,1181.531c0,0,5.701,7.546,5.93,10.563c1.558,20.453-7.817,23.295,16.481,34.624
				c0,0,10.372,3.925,10.537-4.093c0.165-8.02-7.205-8.143-5.873-19.372c1.537-12.953,1.38-13.073-7.159-19.825l-5.661-9.295
				L1501.242,1181.531z"/>
			<path style="fill:#F9DDBF;" d="M1515.719,1187.301c-9.145,1.79-19.063,1.084-19.063,1.084s-27.273-83.566-30.779-91.199
				c-3.506-7.632-80.802-97.918-80.802-97.918l32.037-80.22c0,0,83.661,138.828,92.163,158.34
				c14.05,32.242,19.012,104.568,19.012,104.568S1522.902,1185.896,1515.719,1187.301z"/>
			<path style="fill:#2B478B;" d="M1407.375,868.831c0,0-4.995-0.825-4.199-7.681c0.796-6.855,0.773-15.815-4.817-14.137
				c-5.59,1.677-5.862,6.14-8.164,3.538c-2.302-2.603-2.358-13.581-18.999-14.322c-16.641-0.741-23.395,5.039-31.138,1.66
				c-7.742-3.379-8.167-15.051-8.167-15.051s2.207,4.164,5.533,5.485c0,0-12.934-17.578,1.995-29.664
				c14.93-12.086,30.18-4.208,38.832-3.698c19.059,1.123,31.37,2.246,37.613,14.717
				C1422.107,822.149,1419.586,856.803,1407.375,868.831z"/>
			<path style="fill:#FFB27D;" d="M1510.229,1190.515c0,0-5.471,5.699-5.813,8.067c-1.099,7.603-3.642,10.89-2.364,11.715
				c2.655,1.715,6.16-3.918,7.83-8.97S1510.229,1190.515,1510.229,1190.515z"/>
		</g>
		<path style="fill:#F5FAFF;" d="M1391.56,880.216c0,0-11.313,11.904-25.793,14.972c-11.222,2.371-15.961-1.768-18.928-8.228
			l0.001-0.016c-0.521-1.161-1.01-2.4-1.452-3.7c-0.265-0.78-0.529-1.577-0.779-2.388c-0.55-1.754-0.846-3.925-0.979-6.152
			c-0.072-1.17-0.1-2.337-0.099-3.488c0.014-4.568,0.476-8.522,0.476-8.522s13.352,1.715,39.661-4.556c0,0,0.449,2.02,1.301,4.97
			c0.121,0.486,0.27,0.988,0.431,1.524c0.16,0.567,0.334,1.151,0.52,1.768c0.549,1.769,1.192,3.686,1.907,5.624
			c0.397,1.043,0.822,2.103,1.249,3.131C1389.838,876.95,1390.679,878.687,1391.56,880.216z"/>
		<g>
			<path style="fill:#F5FAFF;" d="M1391.56,880.212l-1.261-1.062c0.097-0.183,10.375-17.622,11.338-20.344l0.252-0.697
				c0.831-2.269,2.558-6.986,1.446-9.704c-0.361-0.881-0.992-1.483-1.931-1.842c-3.914-1.49-14.461,9.224-18.192,13.481
				l-1.038-1.101c1.438-1.642,14.216-15.987,19.717-13.887c1.313,0.502,2.243,1.404,2.767,2.683
				c1.366,3.335-0.45,8.291-1.426,10.955l-0.245,0.679C1401.981,862.213,1391.959,879.462,1391.56,880.212z"/>
		</g>
		<g>
			<path style="fill:#D0DFF2;" d="M1385.917,866.399c-12.421,6.559-24.56,9.554-36.184,8.965c-2.041-0.103-4.091-0.319-6.105-0.661
				c-0.072-1.17-0.1-2.337-0.099-3.488c13.047,2.275,26.897-0.393,41.185-7.977c0.089-0.044,0.179-0.087,0.253-0.131
				c0.121,0.486,0.27,0.988,0.431,1.524C1385.558,865.199,1385.731,865.783,1385.917,866.399z"/>
		</g>
		<g>
			<path style="fill:#D0DFF2;" d="M1389.073,875.154c-13.241,8.706-26.088,12.784-38.305,12.164
				c-1.317-0.067-2.632-0.182-3.93-0.359l0.001-0.016c-0.521-1.161-1.01-2.4-1.452-3.7c13.26,2.381,27.468-1.356,42.257-11.102
				c0.06-0.045,0.121-0.09,0.18-0.119C1388.221,873.066,1388.646,874.126,1389.073,875.154z"/>
		</g>
		<path style="fill:#FFB27D;" d="M1391.56,851.732c0,0,6.588-9.006,10.381-7.936c3.792,1.069,6.103,9.796-0.304,15.01
			C1395.231,864.021,1391.56,851.732,1391.56,851.732z"/>
	</g>
	<path style="fill:#C9D9FB;" d="M3086.263,1403.4c-36.778,144.908-121.175,254.45-231.744,258.114c0,0-1.155,0-3.431,0
		c0,0-268.919,0.034-635.7,0.093c-8.121-2.252-12.555-3.488-12.555-3.488s29.754-45.355,124.267-51.411
		c94.502-6.056,220.449,30.454,266.737,18.798s102.542-47.035,193.554-45.576c91.001,1.471,89.251-182.737,278.277-178.14
		C3072.938,1401.965,3079.799,1402.513,3086.263,1403.4z"/>
	<g>
		<path style="fill:#739CF3;" d="M2271.916,852.284h-7.605l0.066-0.597l2.295-20.286c0.078-0.654,0.628-1.147,1.287-1.147
			c0.082,0,0.159,0.005,0.242,0.015c0.427,0.052,0.817,0.237,1.127,0.515c0.359,0.329,0.602,0.788,0.653,1.307L2271.916,852.284z"/>
		<path style="fill:#86B1FC;" d="M2265.045,847.681l-0.271,0.007l1.898-16.287c0.078-0.654,0.628-1.147,1.287-1.147
			c0.082,0,0.159,0.005,0.242,0.015c0.071,0.062,0.139,0.123,0.2,0.19c0.335,0.36,0.535,0.834,0.54,1.359l0.111,11.709
			C2269.074,845.773,2267.29,847.622,2265.045,847.681z"/>
		<rect x="2262.098" y="942.551" style="fill:#739CF3;" width="14.666" height="647.57"/>
		<rect x="2262.098" y="942.551" style="fill:#86B1FC;" width="6.771" height="647.57"/>
		<rect x="2246.072" y="1486.782" style="fill:#739CF3;" width="46.711" height="171.339"/>
		<rect x="2246.072" y="1486.782" style="fill:#86B1FC;" width="27.841" height="171.339"/>
		<path style="fill:#739CF3;" d="M2294.955,862.056c0,8.002-12.016,14.486-26.842,14.486c-1.132,0-2.244-0.036-3.34-0.113
			c-13.246-0.885-23.502-6.983-23.502-14.373c0-7.39,10.256-13.483,23.502-14.368c1.096-0.077,2.208-0.113,3.34-0.113
			C2282.939,847.575,2294.955,854.059,2294.955,862.056z"/>
		<path style="fill:#86B1FC;" d="M2281.061,862.056c0,6.448-6.71,11.985-16.287,14.373c-13.246-0.885-23.502-6.983-23.502-14.373
			c0-7.39,10.256-13.483,23.502-14.368C2274.351,850.071,2281.061,855.608,2281.061,862.056z"/>
		<polygon style="fill:#739CF3;" points="2292.729,955.323 2246.02,955.323 2229.552,876.027 2306.675,876.027 		"/>
		<rect x="2225.385" y="870.053" style="fill:#739CF3;" width="85.456" height="7.606"/>
		<rect x="2225.385" y="870.053" style="fill:#86B1FC;" width="53.721" height="7.606"/>
		<path style="fill:#739CF3;" d="M2253.725,1486.782h29.848l-4.369-13.249c-0.387-1.175-1.484-1.968-2.721-1.968h-13.983
			c-1.517,0-2.884,0.915-3.461,2.317L2253.725,1486.782z"/>
		<polygon style="fill:#94C0FF;" points="2235.07,879.893 2300.94,879.893 2288.074,951.166 2250.251,951.166 		"/>
		<polygon style="fill:#739CF3;" points="2305.381,870.053 2230.845,870.053 2236.948,861.361 2299.587,861.361 		"/>
		<polygon style="fill:#86B1FC;" points="2287.025,870.053 2230.845,870.053 2236.948,861.361 2281.23,861.361 		"/>
	</g>
	<g>
		<path style="fill:#D36D1A;" d="M2853.398,1417.892h228.874c-10.887,38.482-25.25,74.234-42.647,105.844h-207.848
			L2853.398,1417.892z"/>
		<path style="fill:#F49540;" d="M3082.272,1417.892c-10.887,38.482-25.25,74.234-42.647,105.844h-215.549l21.633-105.844H3082.272z
			"/>
		<path style="fill:#FFA255;" d="M3039.625,1523.735c-2.416,4.398-4.89,8.716-7.433,12.951h-290.996v-12.951H3039.625z"/>
		<g>
			<path style="fill:#FFA255;" d="M2778.512,1536.689l-7.71,30.314c0,0.019,0,0.019,0,0.036l-22.821,89.804
				c-0.309,1.177-1.357,1.991-2.553,1.991c-2.316,0-4.071-2.118-3.619-4.38l20.36-104.753l2.534-13.013H2778.512z"/>
		</g>
		<path style="fill:#D36D1A;" d="M2770.802,1567.004c0.742-15.51-8.633-17.302-8.633-17.302l2.534-13.013h13.809L2770.802,1567.004z
			"/>
		<g>
			<path style="fill:#FFA255;" d="M2876.192,1536.689l-7.709,30.314c0,0.019,0,0.019,0,0.036l-22.822,89.804
				c-0.308,1.177-1.357,1.991-2.552,1.991c-2.316,0-4.072-2.118-3.62-4.38l20.36-104.753l2.534-13.013H2876.192z"/>
		</g>
		<path style="fill:#D36D1A;" d="M2868.483,1567.004c0.741-15.51-8.634-17.302-8.634-17.302l2.534-13.013h13.809L2868.483,1567.004z
			"/>
	</g>
	<g>
		<g>
			<path style="fill:#FFB27D;" d="M2520.852,1622.367l-10.819-4.229c0,0-0.511-30.072,6.525-65.658
				c4.456-22.547,11.617-46.827,23.111-65.986c5.203-8.673,11.292-16.295,18.422-22.235c0,0,9.631-19.146,22.397-44.75
				c14.198-28.463,92.7-32.395,44.564,26.142c-9.877,12.012-20.993,33.528-33.543,46.253c-21.441,21.749-37.201,47.69-48.332,70.69
				C2527.271,1595.488,2520.852,1622.367,2520.852,1622.367z"/>
			<path style="fill:#FFB27D;" d="M2495.64,1622.55c-3.665,5.221,3.241,10.956,11.874,16.488c8.635,5.533,4.906,5.815,15.822,14.996
				c10.915,9.182,17.705,8.645,19.529,7.503c1.621-1.01-2.733-6.536-7.29-12.573c-0.575-0.757-1.145-1.525-1.716-2.293
				c-5.08-6.876-5.403-15.149-7.464-23.83c-1.952-8.222,3.095-28.075,3.095-28.075l-14.526-13.014c0,0-4.181,18.076-6.337,25.58
				c-1.268,4.414-5.146,7.94-8.275,10.521C2498.655,1619.262,2496.929,1620.709,2495.64,1622.55z"/>
			<path style="fill:#1C468A;" d="M2507.514,1639.038c8.635,5.533,4.906,5.815,15.822,14.996
				c10.915,9.182,17.705,8.645,19.529,7.503c1.621-1.01-2.733-6.536-7.29-12.573l-0.153,0.049c0,0-10.229-1.997-18.574-10.346
				c-6.804-6.802-11.836-16.079-16.496-20.813c-1.696,1.408-3.423,2.855-4.712,4.696
				C2491.975,1627.771,2498.881,1633.506,2507.514,1639.038z"/>
		</g>
		<path style="fill:#233862;" d="M2595.679,1053.848c0,0-27.039-2.448-39.81,23.035c-12.771,25.484-10.559,61.766-23.16,79.299
			c-12.603,17.533,3.216,33.301,3.216,33.301l102.409,0.305c0,0,6.521-19.367-1.298-42.125S2661.845,1055.289,2595.679,1053.848z"/>
		<path style="fill:#E8945B;" d="M2691.659,1355.406c-0.928,4.031-4.077,13.169-6.739,13.248c-2.17,0.065-3.288-10.968-6.152-13.229
			c-4.154-3.281-7.674-10.32-8.254-12.034c-1.193-3.533-2.235-4.244-2.235-4.244l0.006-0.007l-0.013,0.001
			c0,0-34.168-58.144-37.163-73.203c-0.983-4.902-3.403-14.726-6.234-25.724c-3.073-11.958-6.622-25.31-9.3-35.312
			c10.265-2.331,21.666-3.393,30.974-3.859c2.274,12.196,4.356,24.663,6.155,35.499c2.672,16.116,4.71,28.624,5.812,31.282
			c3.04,7.298,12.019,46.862,19.963,67.303c0.901,2.006,3.438,7.229,6.093,8.947
			C2687.89,1346.219,2692.581,1351.368,2691.659,1355.406z"/>
		<path style="fill:#FFB27D;" d="M2631.231,1298.84c-19.627-56.563,16.362-56.928,13.621-85.451s-25.815-58.572-25.815-58.572
			s-0.795-0.056-2.182-0.141c-0.76-0.047-1.43-0.521-1.713-1.227c-0.895-2.234-1.288-7.168-1.433-12.322
			c-0.225-7.867,0.122-16.238,0.122-16.238l-26.699-4.438l-1.588-0.262c0.459,13.348-1.759,23.461-4.321,29.15
			c-1.219,2.706-3.701,4.608-6.626,5.11c-5.678,0.975-15.655,2.988-22.33,6.024c-3.242,1.472-5.697,3.185-6.514,5.132
			c-6.795,16.249-12.824,56.913-17.05,85.919c-2.354,16.167-4.144,28.714-5.197,31.393c-2.937,7.476-11.353,48.371-18.995,68.659
			l10.645,2.839c0,0,33.018-58.805,35.719-73.924c0.882-4.923,3.11-14.787,5.725-25.843c0.396-1.673,0.8-3.374,1.209-5.089
			c5.649,13.979,8.513,20.44,8.556,26.554c0.063,8.7-5.592,16.695-17.062,44.706
			C2542.967,1336.299,2651.27,1356.609,2631.231,1298.84z"/>
		<path style="fill:#E8945B;" d="M2613.832,1124.889c0,0-0.346,8.371-0.122,16.238c-14.862,0.039-23.13-13.266-26.577-20.676
			L2613.832,1124.889z"/>
		<path style="fill:#FFB27D;" d="M2619.021,1132.187c0,0-35.118,1.661-35.816-20.224c-0.698-21.886-5.701-36.41,16.691-38.396
			s27.018,6.226,29.026,13.474C2630.934,1094.288,2628.138,1131.189,2619.021,1132.187z"/>
		<path style="fill:#FFB27D;" d="M2667.833,1638.565l-11.339,2.521c0,0-17.192-24.679-31.193-58.143
			c-8.873-21.202-16.466-45.351-17.606-67.663c-0.517-10.101,0.288-19.822,2.894-28.729c0,0-2.681-21.264-6.358-49.637
			c-4.085-31.544-9.393-71.875-13.597-101.538l2.955-0.805l48.606-26.985c0,0,20.925,50.748,13.604,126.182
			c-1.501,15.477,1.269,39.537-2.055,57.097c-5.673,30.01-4.291,60.332-0.706,85.631
			C2658.175,1612.673,2667.833,1638.565,2667.833,1638.565z"/>
		<path style="fill:#FFB27D;" d="M2505.205,1349.798c0,0-2.975,7.655-6.248,9.867c-3.274,2.212-7.863,7.454-6.859,11.47
			c1.003,4.015,2.076,10.314,6.294,10.185s13.485-19.062,14.608-22.614c1.121-3.553,2.154-4.288,2.154-4.288L2505.205,1349.798z"/>
		<path style="fill:#F2CCAA;" d="M2675.874,1510.796c-41.679,25.548-154.553-9.614-154.507-11.85
			c0.226-11.885,8.759-83.641,19.265-152.189c6.455-42.155,26.604-58.447,23.224-60.988c-0.034-0.032-0.051-0.048-0.051-0.048
			c-12.998-8.635-7.977-24.297-7.311-29.871c-3.874,1.172-16.405,3.939-31.077-3.576c5.047-29.232,12.261-70.229,20.249-86.623
			c0.386-0.801,1.069-1.545,2.017-2.264c-0.067-0.063-0.085-0.096-0.085-0.096c7.766-6.038,23.941-8.311,23.941-8.311
			s9.408,21.148,12.187,24.414c17.98,21.098,48.781,10.375,44.132-2.97c-1.678-4.86-10.015-20.062-11.02-21.756
			c-0.052-0.08,2.206,0.146,2.206,0.146c5.24,0.529,8.949,0.94,11.622,1.318c5.246,0.726,6.563,1.309,7.89,2.271
			c4.72,4.438,11.028,15.628,12.129,35.915c0.413,7.544,10.842,90.66-14.642,89.999c-0.575-0.016-0.041,1.332,1.139,3.875
			c3.848,8.145,14.678,28.543,18.45,55.022C2667.912,1429.362,2675.874,1510.796,2675.874,1510.796z"/>
		<path style="fill:#FFB27D;" d="M2513,1358.705c0,0-0.893,8.541-3.073,10.571s-2.399,5.571-4.755,3.743
			C2502.815,1371.191,2513,1358.705,2513,1358.705z"/>
		<path style="fill:#FFB27D;" d="M2650.386,1657.065c0.945,6.309,9.901,5.7,19.969,3.753c10.068-1.946,7.563,0.829,21.8-0.049
			c14.236-0.878,18.783-5.948,19.317-8.033c0.478-1.85-6.487-2.849-13.95-4.079c-0.938-0.151-1.881-0.314-2.823-0.478
			c-8.421-1.477-14.36-7.246-21.837-12.111c-7.084-4.608-12.873-23.992-12.873-23.992l-19.862,1.771c0,0,8.645,15.011,10.444,22.804
			c1.034,4.475,0.476,9.736-0.011,13.764C2650.303,1652.605,2650.05,1654.844,2650.386,1657.065z"/>
		<path style="fill:#1C468A;" d="M2670.354,1660.818c10.068-1.946,7.563,0.829,21.8-0.049c14.236-0.878,18.783-5.948,19.317-8.033
			c0.478-1.85-6.487-2.849-13.95-4.079l-0.076,0.141c0,0-8.786,5.607-20.587,5.315c-9.618-0.234-19.659-3.482-26.299-3.698
			c-0.257,2.19-0.51,4.429-0.174,6.65C2651.331,1663.374,2660.287,1662.766,2670.354,1660.818z"/>
		<path style="fill:#2B478B;" d="M2675.874,1510.796c-41.679,25.548-154.553-9.614-154.507-11.85
			c0.226-11.885,8.759-83.641,19.265-152.189c6.455-42.155,26.604-58.447,23.224-60.988c0.807,0.615,13.068,9.897,34.971,7.909
			c19.609-1.787,34.666-4.715,38.355-5.485c3.848,8.145,14.678,28.543,18.45,55.022
			C2667.912,1429.362,2675.874,1510.796,2675.874,1510.796z"/>
		<path style="fill:#163560;" d="M2563.805,1285.721c0,0,35.186,13.428,72.238-1.403l2.083,5.814c0,0-38.139,14.578-75.675,0.483
			L2563.805,1285.721z"/>
		<path style="fill:#F5FAFF;" d="M2628.633,1114.445c-0.021,0.807-0.074,1.666-0.147,2.557c-0.167,2.211-0.492,4.621-1.068,6.895
			c-0.21,0.87-0.461,1.719-0.744,2.525c-1.185,3.248-3.018,5.899-5.878,6.79c-9.295,2.871-26.196-5.764-30.775-15.466l0.461-1.279
			l0.891-2.473l0.786-2.2l0.88-2.452l0.65-1.802c0,0,24.246,4.139,34.914,1.152
			C2628.602,1108.692,2628.769,1111.113,2628.633,1114.445z"/>
		<g>
			<path style="fill:#F5FAFF;" d="M2590.113,1117.941c-0.98-1.29-10.068-12.591-9.104-16.542c0.145-0.594,0.495-1.036,1.013-1.28
				c4.126-1.945,11.014,6.611,11.813,7.541l-0.588,1.097c-2.03-2.358-7.891-9.06-10.778-7.69c-0.231,0.109-0.372,0.294-0.441,0.581
				c-0.718,2.938,5.95,11.581,8.532,14.974L2590.113,1117.941z"/>
		</g>
		<path style="fill:#233862;" d="M2627.504,1074.903c-5.625-6.405-9.681-4.851-11.922-2.806c-19.16-9.869-31.435,6.035-31.435,6.035
			c-1.866,15.776-12.913,25.121-12.913,25.121s6.357,3.132,21.172-0.493c17.583-4.302,21.838-24.396,22.464-27.011
			c2.204,1.859,6.562,5.914,7.977,9.976c1.923,5.52,3.063,16.968,6.396,16.475C2629.242,1102.2,2635.953,1084.524,2627.504,1074.903
			z"/>
		<g>
			<g>
				<path style="fill:#FFB27D;" d="M2448.104,1366.108c0,0,29.794,62.863,26.173,67.62s-29.07-17.168-34.725-31.938
					C2433.897,1387.021,2448.104,1366.108,2448.104,1366.108z"/>
				<path style="fill:#FFB27D;" d="M2489.469,1380.103c0,0-17.996,26.825-26.011,38.922c-4.4,6.642,6.979,15.245,10.819,14.704
					s18.436-42.797,18.436-42.797L2489.469,1380.103z"/>
				<path style="fill:#35488B;" d="M2393.756,1381.318c0,0-23.66-10.77-41.561-1.348c-17.901,9.422-6.957,87.185,18.641,94.722l0,0
					C2370.836,1474.692,2418.791,1490.026,2393.756,1381.318z"/>
				<path style="fill:#2C3A64;" d="M2474.229,1638.812c0,0,3.722,4.429,9.704,4.364c3.693-0.039,7.131,1.078,9.632,3.177
					c2.217,1.859,1.311,5.468-1.509,6.113l-28.243,6.473c-2.719,0.622-5.381-1.231-5.734-3.997
					c-0.265-2.076-0.586-4.397-0.901-6.193c-0.743-4.226,2.67-8.547,2.67-8.547L2474.229,1638.812z"/>
				<path style="fill:#FFB27D;" d="M2474.229,1638.812c0,0,1.659,1.795-14.382,1.39c0,0-14.228-65.27-17.408-69.65
					c-0.757-1.032-6.29-13.318-8.263-16.866c-0.168-0.306-3.814,7.222-3.99,6.909c-6.453-11.592-16.547-31.035-17.272-33.994
					c-0.987-3.977,10.62-55.045,20.14-53.4c7.118,1.238,13.258,4.442,15.911,5.979c0.895,0.527,1.392,0.856,1.392,0.856
					s0.359,1.452,0.979,3.976c0.566,2.286,1.346,5.451,2.279,9.206c0.114,0.466,0.229,0.94,0.352,1.43
					c5.275,21.462,14.657,59.692,16.079,66.199C2472.032,1569.99,2474.229,1638.812,2474.229,1638.812z"/>
				<path style="fill:#2B478B;" d="M2448.872,1468.866l20.863,75.795c0,0-6.187,11.046-18.378,15.187
					c-8.595,2.919-22.866,1.945-22.866,1.945l-20.044-48.923L2448.872,1468.866z"/>
				<path style="fill:#233862;" d="M2455.497,1492.935l-27.006,68.858c-6.453-11.591-14.853-32.234-15.578-35.193
					c-0.987-3.977,10.62-55.045,20.14-53.4c7.118,1.238,13.258,4.442,15.911,5.979c0.895,0.527,2.286,0.229,2.286,0.229
					s0.843,0.854,1.463,3.378C2453.278,1485.072,2454.564,1489.181,2455.497,1492.935z"/>
				<path style="fill:#FFB27D;" d="M2431.445,1363.994l-24.306,12.422l-4.87-16.861c0,0,3.097-5.836,4.497-15.395
					c0.586-4.02,0.876-8.698,0.503-13.88l19.803,10.14c0,0-0.472,1.831-0.788,4.533c-0.337,2.921-0.487,6.857,0.342,10.597
					C2427.342,1358.761,2428.779,1361.826,2431.445,1363.994z"/>
				<path style="fill:#FFB27D;" d="M2390.538,1485.083c0,0-9.73,60.979-8.702,158.594l13.764,1.784c0,0,10.956-37.77,17.862-75.395
					c4.085-22.251,1.402-87.25,1.402-87.25L2390.538,1485.083z"/>
				<path style="fill:#2B478B;" d="M2377.006,1477.395c0.064,8.783-10.357,83.199-10.357,83.199s10.304,4.018,23.354,5.47
					c18.445,2.055,30.322-3.149,30.322-3.149l23.241-87.479L2377.006,1477.395z"/>
				<path style="fill:#F9DDBF;" d="M2446.858,1484.432c-27.036,7.34-61.52,3.227-70.015,2.033c-1.27-0.176-1.957-0.29-1.957-0.29
					c-2.99-0.719-5.023-3.396-5.023-6.369c0-0.383,0.038-0.772,0.106-1.163l8.014-44.5l-2.692-22.341l-1.528-12.738l-3.494-29.086
					c11.575-5.888,22.104-9.038,31.754-10.421c3.692,3.784,10.987,9.351,19.146,8.288c6.132-0.804,7.523-3.991,7.416-7.485
					c12.822,2.109,19.521,5.749,19.521,5.749l8.335,104.583C2456.943,1476.977,2452.938,1482.779,2446.858,1484.432z"/>
				<path style="fill:#F9DDBF;" d="M2402.022,1359.555l-3.651,7.266l-3.548,7.06l-17.152,37.326
					c-2.754-3.559-22.767-10.615-22.767-10.615s9.089-22.909,15.365-30.611c1.805-2.215,5.191-4.015,9.112-5.456
					c3.231-1.198,6.826-2.147,10.182-2.885C2396.27,1360.171,2402.022,1359.555,2402.022,1359.555z"/>
				<path style="fill:#35488B;" d="M2370.54,1472.218l2.379-11.784c35.243-50.99,40.655-61.434,24.807-84.327
					c-4.539-6.557-13.996-11.007-17.362-11.936c3.23-1.198,7.701-2.186,11.057-2.922c3.346,1.571,6.747,3.506,9.133,5.571
					C2448.924,1408.698,2370.54,1472.218,2370.54,1472.218z"/>
				<path style="fill:#FFB27D;" d="M2394.354,1422.318c0.875-0.064,4.677-1.97,4.677-1.97s3.593-12.946,15.709-15.093
					c0,0,5.746,0.035,4.567,3.959c-1.179,3.923-1.303,2.219-2.841,7.794c-1.539,5.574-5.548,9.813-9.815,10.067l-4.372,1.183
					C2402.279,1428.259,2392.055,1422.487,2394.354,1422.318z"/>
				<g>
					<path style="fill:#FFB27D;" d="M2399.031,1420.349c0,0-23.158,2.103-26.58,3.623c0,0,1.879-5.083,5.22-12.766
						c-3.02-2.97-12.942-7.386-19.514-9.415c-5.012,12.785-6.938,25.44-4.126,37.642c0.297,1.288,1.43,2.211,2.75,2.272
						c7.411,0.345,31.999,0.223,49.855-14.791L2399.031,1420.349z"/>
				</g>
				<path style="fill:#E8945B;" d="M2426.626,1355.55c-11.26-0.301-19.859-11.39-19.859-11.39l19.518,0.793
					C2425.947,1347.874,2425.797,1351.811,2426.626,1355.55z"/>
				<path style="fill:#FFB27D;" d="M2431.419,1350.44c0,0-29.624,3.609-30.256-17.26c-0.632-20.87,11.716-34.39,19.957-34.235
					c16.435,0.309,19.146,6.949,21.051,13.864S2445.057,1348.969,2431.419,1350.44z"/>
				<path style="fill:#2C3A64;" d="M2395.653,1645.296c0,0,2.534,4.945,8.148,6.169c3.536,0.77,6.564,2.61,8.448,5.19
					c1.593,2.182,0.053,5.249-2.648,5.249h-28.497c-2.427,0-4.32-2.094-4.077-4.509c0.212-2.11,0.434-4.569,0.53-6.454
					c0.21-4.116,4.333-7.43,4.333-7.43L2395.653,1645.296z"/>
				<path style="fill:#F9DDBF;" d="M2448.104,1366.108c0,0,9.764,8.588,16.266,29.563c0,0,2.051,20.542-16.266,22.488
					S2448.104,1366.108,2448.104,1366.108z"/>
				<path style="fill:#FFB27D;" d="M2399.031,1420.349c0,0,0.736-3.784,1.962-7.514c1.226-3.73,1.955-7.379,2.847-5.677
					c0.893,1.703,1.217,6.38,1.217,6.38L2399.031,1420.349z"/>
				<path style="fill:#FFFFFF;" d="M2416.316,1330.28c0,0,13.721,4.643,26.637,0.644c0,0,2.065,13.733-8.096,18.424
					c-10.16,4.689-22.996-8.277-22.996-8.277L2416.316,1330.28z"/>
				<g>
					<path style="fill:#FFFFFF;" d="M2415.856,1331.395c-0.316-0.224-8.71-6.819-11.032-10.093l1.121-0.249
						c2.219,3.127,10.536,9.252,10.613,9.306L2415.856,1331.395z"/>
				</g>
				<g>
					<polygon style="fill:#FFFFFF;" points="2411.861,1341.07 2403.368,1330.805 2403.762,1329.98 2412.323,1339.951 					"/>
				</g>
				<path style="fill:#35488B;" d="M2406.623,1345.086c0,0-19.477-14.3-19.477-31.334c0-21.144,13.01-26.904,31.173-27.935
					c18.163-1.029,31.075,14.33,26.208,22.27c-4.868,7.94-10.855,6.052-22.323,4.765c-11.468-1.288-10.987,9.268-15.861,8.753
					c-4.875-0.515-6.291-2.188-6.677,1.159c-0.387,3.347,5.061,4.435,4.119,7.724
					C2402.022,1336.648,2406.623,1345.086,2406.623,1345.086z"/>
				<path style="fill:#FFB27D;" d="M2406.496,1323.149c0,0-3.966-5.214-6.67-3.862c-2.703,1.352-0.096,9.076,1.932,10.138
					c2.027,1.063,4.264,1.835,4.738,1.352C2406.971,1330.294,2406.496,1323.149,2406.496,1323.149z"/>
			</g>
			<path style="fill:#FFB27D;" d="M2489.469,1380.103c0,0,3.677-14.581,12.758-13.994c9.082,0.587,7.568,9.453,3.244,13.994
				s-12.758,10.829-12.758,10.829L2489.469,1380.103z"/>
		</g>
	</g>
	<path style="fill:#2E3552;" d="M3102.572,1665.831h-3036c-1.853,0-3.369-1.517-3.369-3.369v-0.971c0-1.854,1.516-3.37,3.369-3.37
		h3036c1.853,0,3.369,1.517,3.369,3.37v0.971C3105.941,1664.314,3104.425,1665.831,3102.572,1665.831z"/>
	<path style="fill:#CDD9FB;" d="M3093.858,1105.531c-0.093,0.012-0.198,0.023-0.303,0.035
		c-91.118,10.712-125.901-99.962-220.414-64.794c-94.502,35.181-182.015-49.415-169.763-121.724
		c12.252-72.308-22.753-53.464-49.707-127.079c-17.07-46.615-3.617-86.777,8.542-109.974
		c238.464,37.105,368.146,193.122,418.81,370.106h0.012c3.909,13.663,7.352,27.443,10.326,41.317c0,0,0,0,0,0.012
		c0.829,3.792,1.611,7.596,2.357,11.4c0.012,0.012,0.023,0.022,0.012,0.034C3093.777,1105.088,3093.813,1105.31,3093.858,1105.531z"
		/>
</g>
</svg>
