<svg width="40" height="40" viewBox="0 0 40 40" fill="none" xmlns="http://www.w3.org/2000/svg">
<path d="M30 9H21V6.69348C21.3003 6.52345 21.5508 6.27754 21.7263 5.98035C21.9018 5.68317 21.9961 5.34511 22 5C22 4.46957 21.7893 3.96086 21.4142 3.58579C21.0391 3.21071 20.5304 3 20 3C19.4696 3 18.9609 3.21071 18.5858 3.58579C18.2107 3.96086 18 4.46957 18 5C18.0039 5.34511 18.0982 5.68317 18.2737 5.98035C18.4492 6.27754 18.6997 6.52345 19 6.69348V9H10C8.93946 9.00106 7.92266 9.42283 7.17274 10.1727C6.42283 10.9227 6.00106 11.9395 6 13V27C6.00106 28.0605 6.42283 29.0773 7.17274 29.8273C7.92266 30.5772 8.93946 30.9989 10 31H12V36C12 36.1978 12.0587 36.3911 12.1686 36.5555C12.2785 36.7199 12.4346 36.8481 12.6173 36.9238C12.8 36.9994 13.0011 37.0192 13.1951 36.9807C13.389 36.9421 13.5672 36.8469 13.707 36.707L19.414 31H30C31.0605 30.9989 32.0773 30.5772 32.8273 29.8273C33.5772 29.0773 33.9989 28.0605 34 27V13C33.9989 11.9395 33.5772 10.9227 32.8273 10.1727C32.0773 9.42283 31.0605 9.00106 30 9ZM32 27C31.9993 27.5302 31.7884 28.0385 31.4135 28.4135C31.0385 28.7884 30.5302 28.9993 30 29H19C18.8687 29 18.7386 29.0258 18.6173 29.0761C18.496 29.1264 18.3858 29.2001 18.293 29.293L14 33.586V30C14.0001 29.8687 13.9743 29.7386 13.924 29.6172C13.8738 29.4959 13.8002 29.3856 13.7073 29.2927C13.6144 29.1998 13.5041 29.1262 13.3828 29.076C13.2614 29.0257 13.1313 28.9999 13 29H10C9.46978 28.9993 8.96147 28.7884 8.58655 28.4135C8.21162 28.0385 8.00069 27.5302 8 27V13C8.00069 12.4698 8.21162 11.9615 8.58655 11.5865C8.96147 11.2116 9.46978 11.0007 10 11H30C30.5302 11.0007 31.0385 11.2116 31.4135 11.5865C31.7884 11.9615 31.9993 12.4698 32 13V27ZM14 21C13.6044 21 13.2178 20.8827 12.8889 20.6629C12.56 20.4432 12.3036 20.1308 12.1522 19.7654C12.0009 19.3999 11.9613 18.9978 12.0384 18.6098C12.1156 18.2219 12.3061 17.8655 12.5858 17.5858C12.8655 17.3061 13.2219 17.1156 13.6098 17.0384C13.9978 16.9613 14.3999 17.0009 14.7654 17.1522C15.1308 17.3036 15.4432 17.56 15.6629 17.8889C15.8827 18.2178 16 18.6044 16 19C16 19.5304 15.7893 20.0391 15.4142 20.4142C15.0391 20.7893 14.5304 21 14 21ZM28 19C28 19.3956 27.8827 19.7822 27.6629 20.1111C27.4432 20.44 27.1308 20.6964 26.7654 20.8478C26.3999 20.9991 25.9978 21.0387 25.6098 20.9616C25.2219 20.8844 24.8655 20.6939 24.5858 20.4142C24.3061 20.1345 24.1156 19.7781 24.0384 19.3902C23.9613 19.0022 24.0009 18.6001 24.1522 18.2346C24.3036 17.8692 24.56 17.5568 24.8889 17.3371C25.2178 17.1173 25.6044 17 26 17C26.5304 17 27.0391 17.2107 27.4142 17.5858C27.7893 17.9609 28 18.4696 28 19ZM25.8574 23.457C25.9939 23.6844 26.0345 23.9567 25.9702 24.214C25.9059 24.4713 25.742 24.6926 25.5146 24.829C23.8503 25.8328 21.9436 26.3632 20 26.3632C18.0564 26.3632 16.1497 25.8328 14.4854 24.829C14.3728 24.7615 14.2746 24.6724 14.1964 24.5668C14.1183 24.4613 14.0616 24.3414 14.0298 24.214C13.998 24.0866 13.9916 23.9542 14.0109 23.8243C14.0303 23.6944 14.075 23.5696 14.1426 23.457C14.2102 23.3444 14.2993 23.2462 14.4048 23.168C14.5103 23.0899 14.6302 23.0333 14.7576 23.0014C14.885 22.9696 15.0175 22.9632 15.1473 22.9825C15.2772 23.0019 15.402 23.0466 15.5146 23.1142C16.8731 23.9169 18.4221 24.3403 20 24.3403C21.5779 24.3403 23.1269 23.9169 24.4854 23.1142C24.5979 23.0466 24.7228 23.0018 24.8527 22.9824C24.9826 22.963 25.115 22.9694 25.2424 23.0012C25.3699 23.0331 25.4898 23.0897 25.5953 23.1679C25.7008 23.2461 25.7899 23.3444 25.8574 23.457Z" fill="white"/>
</svg>
