<svg width="18" height="19" viewBox="0 0 18 19" fill="none" xmlns="http://www.w3.org/2000/svg">
<path d="M15.5686 2.08531H13.4906C13.0833 2.08531 12.7431 2.36894 12.6513 2.74854H11.7794C11.7452 2.44204 11.6197 2.14961 11.4125 1.91375C11.1244 1.58639 10.7089 1.39844 10.2729 1.39844H7.87159C7.43542 1.39844 7.02011 1.58639 6.732 1.91375C6.52458 2.14977 6.39908 2.44204 6.36492 2.74854H5.49303C5.40122 2.36894 5.06103 2.08531 4.65376 2.08531H2.57582C2.09838 2.08531 1.70996 2.47373 1.70996 2.95102C1.70996 3.42846 2.09838 3.81688 2.57582 3.81688H4.65376C5.06103 3.81688 5.40122 3.53325 5.49303 3.15365H6.37218L6.61083 5.00469C5.00647 5.61382 4.82378 6.73857 4.73892 8.37029L4.56813 11.2846H3.43395C2.78541 11.2846 2.25773 11.8119 2.25773 12.4605C2.25773 13.109 2.78541 13.6367 3.43395 13.6367H4.43026L4.42485 13.7279C4.42485 14.6222 5.15268 15.3502 6.04714 15.3502H6.66755C6.7793 15.3502 6.87003 15.2594 6.87003 15.1475V12.1701C6.87003 11.0243 7.74995 10.081 8.8696 9.97835V10.6915C8.10035 10.7915 7.50373 11.4493 7.50373 12.2455V16.0299C7.50373 16.8949 8.20746 17.5984 9.07208 17.5984C9.93686 17.5984 10.6406 16.8949 10.6406 16.0299V12.2455C10.6406 11.4493 10.044 10.7915 9.27471 10.6915V9.97835C10.3942 10.081 11.2741 11.0243 11.2741 12.1701V15.1475C11.2741 15.2594 11.3649 15.3502 11.4768 15.3502H12.0972C12.9916 15.3502 13.7195 14.6222 13.719 13.716L13.7144 13.6367H14.7104C15.3589 13.6367 15.8866 13.109 15.8866 12.4605C15.8866 11.8119 15.3589 11.2846 14.7104 11.2846H13.5763L13.4054 8.37168C13.3205 6.73873 13.1378 5.61382 11.5335 5.00469L11.7721 3.15365H12.6513C12.7431 3.53325 13.0833 3.81688 13.4906 3.81688H15.5686C16.0459 3.81688 16.4344 3.42846 16.4344 2.95102C16.4344 2.47373 16.0459 2.08531 15.5686 2.08531ZM7.03634 2.18145C7.24731 1.94126 7.5518 1.80355 7.87159 1.80355H10.2729C10.5925 1.80355 10.897 1.94126 11.1081 2.18145C11.3193 2.42149 11.4168 2.74097 11.3758 3.05813L11.1321 4.9492H7.01223L6.76833 3.05813C6.72752 2.74097 6.8252 2.42149 7.03634 2.18145ZM4.65376 3.41161H2.57582C2.32172 3.41161 2.11507 3.20512 2.11507 2.95102C2.11507 2.69707 2.32172 2.49058 2.57582 2.49058H4.65376C4.90755 2.49058 5.1142 2.69707 5.1142 2.95102C5.1142 3.20512 4.90755 3.41161 4.65376 3.41161ZM3.43395 13.2314C3.00875 13.2314 2.66299 12.8857 2.66299 12.4605C2.66299 12.0354 3.00875 11.6897 3.43395 11.6897H4.54433L4.45391 13.2314H3.43395ZM10.2353 12.2455V16.0299C10.2353 16.6712 9.71351 17.1932 9.07208 17.1932C8.4308 17.1932 7.909 16.6712 7.909 16.0299V12.2455C7.909 11.604 8.4308 11.0821 9.07208 11.0821C9.71351 11.0821 10.2353 11.604 10.2353 12.2455ZM14.7104 11.6897C15.1356 11.6897 15.4813 12.0354 15.4813 12.4605C15.4813 12.8857 15.1356 13.2314 14.7104 13.2314H13.6906L13.6001 11.6897H14.7104ZM13.0009 8.39409L13.3142 13.7279C13.3142 14.3988 12.7681 14.9449 12.0972 14.9449H11.6794V12.1701C11.6794 10.7325 10.5098 9.56289 9.07208 9.56289C7.63449 9.56289 6.46492 10.7325 6.46492 12.1701V14.9449H6.04714C5.37603 14.9449 4.83011 14.3988 4.82965 13.7396L5.14341 8.3927C5.23105 6.70859 5.42657 5.85478 6.82536 5.35446H11.319C12.7177 5.85478 12.9133 6.70859 13.0009 8.39409ZM15.5686 3.41161H13.4906C13.2366 3.41161 13.03 3.20512 13.03 2.95102C13.03 2.69707 13.2366 2.49058 13.4906 2.49058H15.5686C15.8226 2.49058 16.0292 2.69707 16.0292 2.95102C16.0292 3.20512 15.8226 3.41161 15.5686 3.41161Z" fill="#6A7070" stroke="#6A7070" stroke-width="0.5"/>
</svg>
