<svg width="165" height="58" viewBox="0 0 165 58" fill="none" xmlns="http://www.w3.org/2000/svg">
<path d="M46.1243 0H117.472C119.71 0 121.888 0.727182 123.677 2.07148L128.85 5.95858H41.5151V4.60876C41.5151 2.06383 43.5785 0 46.1243 0Z" fill="#1F8297"/>
<path d="M5.76599 49.9615H163.901V7.19531H10.3578L6.60623 26.3988C6.06775 29.1567 5.79361 31.9613 5.78894 34.7701L5.76599 49.9615Z" fill="#4C9BAC"/>
<path d="M126.729 41.7461H121.512C118.652 41.7461 116.206 43.7997 115.709 46.6154L114.755 52.027H133.085V51.8655L132.094 46.2469C131.634 43.6442 129.373 41.7461 126.729 41.7461Z" fill="#362A2B"/>
<path d="M40.5257 41.7422H35.3083C32.4493 41.7422 30.0021 43.7958 29.5053 46.6115L28.5507 52.0231H46.9093L45.8901 46.243C45.4316 43.6403 43.1697 41.7422 40.5257 41.7422Z" fill="#362A2B"/>
<path d="M41.4478 49.2371C41.4478 51.2907 39.7839 52.9537 37.7307 52.9537C35.6774 52.9537 34.0135 51.2907 34.0135 49.2371C34.0135 47.1843 35.6774 45.5195 37.7307 45.5195C39.7839 45.5191 41.4478 47.1843 41.4478 49.2371Z" fill="#362A2B"/>
<path d="M45.7426 49.2451C45.7388 53.6699 42.1488 57.254 37.7236 57.2501C33.2989 57.2463 29.7152 53.6563 29.719 49.2316C29.7233 44.806 33.3125 41.2227 37.7376 41.2266C42.1628 41.2317 45.7464 44.8208 45.7426 49.2451ZM42.6626 49.2426C42.6651 46.5187 40.4589 44.3096 37.7355 44.3066C35.0116 44.3049 32.8016 46.5111 32.799 49.2341C32.7973 51.9588 35.0027 54.168 37.727 54.171C40.4509 54.1735 42.6605 51.9673 42.6626 49.2426Z" fill="#5E4A4C"/>
<path d="M42.6476 49.2449C42.6447 51.9607 40.4419 54.1606 37.7265 54.1576C35.0116 54.1546 32.8117 51.951 32.8147 49.236C32.8164 46.5211 35.0196 44.3221 37.7354 44.3242C40.4508 44.3272 42.6498 46.5296 42.6476 49.2449ZM42.1151 49.2437C42.1177 46.8224 40.1558 44.8576 37.7346 44.8567C35.3129 44.8538 33.3481 46.8148 33.3464 49.2369C33.3438 51.6581 35.3057 53.6225 37.7269 53.6255C40.1486 53.6276 42.1134 51.6658 42.1151 49.2437Z" fill="#DADADA"/>
<path d="M40.7438 49.2433C40.7426 50.9072 39.3923 52.2553 37.7276 52.254C36.0637 52.2523 34.7151 50.9025 34.7164 49.2373C34.7177 47.5734 36.0683 46.2253 37.7331 46.2266C39.3974 46.2287 40.746 47.5794 40.7438 49.2433ZM39.6252 49.2424C39.6261 48.1965 38.7786 47.3473 37.7318 47.3465C36.6859 47.3456 35.8367 48.1926 35.8359 49.2394C35.835 50.2845 36.6825 51.1345 37.7288 51.1354C38.7752 51.1354 39.6244 50.2888 39.6252 49.2424Z" fill="#EDEDED"/>
<path d="M39.6253 49.2436C39.6245 50.29 38.7753 51.1366 37.7294 51.1366C36.6826 51.1357 35.8351 50.2857 35.8364 49.2406C35.8372 48.1934 36.6864 47.3464 37.7323 47.3477C38.7787 47.3485 39.6262 48.1977 39.6253 49.2436ZM38.4565 48.5177C38.5619 48.6231 38.7336 48.6231 38.8395 48.5177C38.9449 48.4123 38.9453 48.241 38.8399 48.1348C38.7341 48.0294 38.5628 48.0294 38.457 48.1348C38.3507 48.2397 38.3507 48.411 38.4565 48.5177ZM37.5734 48.0774C37.5734 48.1645 37.6439 48.2351 37.7315 48.2351C37.8186 48.2351 37.8896 48.1645 37.8896 48.0774C37.8896 47.9903 37.819 47.9197 37.7315 47.9197C37.6444 47.9201 37.5734 47.9907 37.5734 48.0774ZM36.6231 48.5156C36.7289 48.621 36.9002 48.621 37.006 48.5156C37.1118 48.4102 37.1118 48.238 37.0064 48.1326C36.901 48.0272 36.7293 48.0272 36.6235 48.1326C36.5181 48.238 36.5177 48.4093 36.6231 48.5156ZM36.5661 49.3992C36.6537 49.3992 36.7242 49.3278 36.7242 49.2406C36.7246 49.1535 36.6537 49.083 36.5665 49.083C36.479 49.083 36.4089 49.1527 36.4084 49.2406C36.4084 49.3278 36.479 49.3992 36.5661 49.3992ZM37.0051 49.967C36.8993 49.8607 36.728 49.8607 36.6222 49.9661C36.5164 50.0724 36.5164 50.2437 36.6218 50.3491C36.7272 50.4553 36.8989 50.4553 37.0047 50.3499C37.1097 50.2436 37.1105 50.0724 37.0051 49.967ZM37.8874 50.406C37.8874 50.3189 37.8173 50.2483 37.7298 50.2483C37.6422 50.2483 37.5717 50.3189 37.5717 50.406C37.5717 50.4931 37.6422 50.5637 37.7298 50.5637C37.8169 50.5632 37.8874 50.494 37.8874 50.406ZM38.4502 49.2428C38.4506 48.8454 38.1284 48.5232 37.7319 48.5224C37.3345 48.5224 37.0115 48.8433 37.0115 49.2406C37.0111 49.6389 37.3324 49.961 37.7298 49.9619C38.1272 49.9619 38.4497 49.6401 38.4502 49.2428ZM38.8382 49.9678C38.7324 49.8616 38.5607 49.8616 38.4553 49.967C38.349 50.0732 38.349 50.2445 38.4548 50.3499C38.5602 50.4553 38.7319 50.4562 38.8378 50.3508C38.9432 50.2454 38.9436 50.0732 38.8382 49.9678ZM39.0528 49.2436C39.0528 49.1556 38.9823 49.0851 38.8947 49.0851C38.8076 49.0851 38.7366 49.1556 38.7366 49.2428C38.7366 49.3299 38.8076 49.4004 38.8947 49.4004C38.9818 49.4004 39.0528 49.3307 39.0528 49.2436Z" fill="#C6C6C6"/>
<path d="M42.1151 49.2424C42.1134 51.6645 40.1486 53.6263 37.7269 53.6242C35.3057 53.6212 33.3438 51.6564 33.3464 49.2356C33.3485 46.8135 35.3129 44.8525 37.7346 44.8555C40.1558 44.8567 42.1177 46.8216 42.1151 49.2424ZM40.5192 47.6325C40.6331 47.8318 40.9136 47.8841 41.1457 47.7506C41.3777 47.6163 41.4729 47.3473 41.359 47.1492C41.2447 46.9512 40.9642 46.8989 40.7321 47.0324C40.5001 47.1658 40.4049 47.4344 40.5192 47.6325ZM37.7337 46.2257C36.069 46.2248 34.7183 47.5725 34.717 49.2364C34.7157 50.9016 36.0639 52.2514 37.7282 52.2531C39.3925 52.254 40.7432 50.9063 40.7445 49.2424C40.7462 47.5785 39.3976 46.2278 37.7337 46.2257ZM39.3419 46.4539C39.54 46.5678 39.8094 46.4743 39.9429 46.2423C40.0776 46.0102 40.0249 45.7297 39.8269 45.6158C39.6292 45.5006 39.3602 45.5954 39.2259 45.8275C39.092 46.0595 39.1443 46.34 39.3419 46.4539ZM37.3193 45.5372C37.3193 45.8041 37.5046 46.0217 37.7337 46.0217C37.9624 46.0217 38.1481 45.8049 38.1485 45.5372C38.149 45.2694 37.9632 45.0518 37.7346 45.0518C37.5055 45.0518 37.3198 45.2686 37.3193 45.5372ZM35.5228 46.2384C35.6567 46.4705 35.9257 46.5653 36.1238 46.4514C36.3223 46.337 36.375 46.0557 36.2415 45.8249C36.1076 45.5929 35.8386 45.4981 35.6406 45.6124C35.4421 45.7259 35.3898 46.0064 35.5228 46.2384ZM34.3179 47.7447C34.5496 47.8781 34.8305 47.8267 34.9448 47.6286C35.0596 47.4306 34.9648 47.1607 34.7332 47.0264C34.5011 46.893 34.2206 46.9444 34.1054 47.1433C33.992 47.3405 34.0863 47.6104 34.3179 47.7447ZM34.0277 49.6504C34.295 49.6504 34.5126 49.4655 34.5126 49.2364C34.513 49.0074 34.2958 48.8229 34.0281 48.8216C33.7612 48.8216 33.5436 49.0065 33.5436 49.2356C33.5432 49.4651 33.7595 49.6504 34.0277 49.6504ZM34.9423 50.8455C34.828 50.6483 34.5474 50.596 34.3158 50.7295C34.0838 50.8629 33.9886 51.132 34.1025 51.33C34.2172 51.5281 34.4969 51.5803 34.7293 51.4477C34.9614 51.3134 35.0562 51.0448 34.9423 50.8455ZM36.1191 52.0253C35.9215 51.9101 35.652 52.0062 35.5182 52.237C35.3839 52.4682 35.4361 52.7495 35.6342 52.8647C35.8318 52.9786 36.1013 52.8838 36.2356 52.6531C36.3694 52.4206 36.3172 52.1405 36.1191 52.0253ZM38.1417 52.9429C38.1422 52.6752 37.9564 52.4584 37.7278 52.4584C37.4991 52.4584 37.3134 52.6752 37.313 52.9421C37.3125 53.2098 37.4983 53.4266 37.7273 53.4266C37.956 53.4262 38.1417 53.2107 38.1417 52.9429ZM39.9387 52.2408C39.8048 52.0096 39.5353 51.914 39.3373 52.0283C39.1392 52.1422 39.0869 52.4227 39.22 52.6548C39.3543 52.8868 39.6233 52.9816 39.8214 52.8673C40.0194 52.7534 40.0717 52.4729 39.9387 52.2408ZM41.1435 50.7354C40.9115 50.6011 40.631 50.6534 40.5167 50.8515C40.4019 51.0495 40.4967 51.3185 40.7283 51.4528C40.9604 51.5863 41.2409 51.534 41.3552 51.3368C41.47 51.1388 41.3752 50.8697 41.1435 50.7354ZM41.9183 49.2424C41.9183 49.0142 41.7012 48.8284 41.4338 48.8284C41.1661 48.8284 40.9489 49.0133 40.9485 49.2424C40.9485 49.4706 41.1656 49.6572 41.433 49.6572C41.7003 49.6572 41.9179 49.4715 41.9183 49.2424Z" fill="#C6C6C6"/>
<path d="M127.651 49.2371C127.651 51.2907 125.987 52.9537 123.933 52.9537C121.881 52.9537 120.217 51.2907 120.217 49.2371C120.217 47.1843 121.881 45.5195 123.933 45.5195C125.987 45.5191 127.651 47.1843 127.651 49.2371Z" fill="#362A2B"/>
<path d="M131.946 49.2451C131.942 53.6699 128.352 57.254 123.927 57.2501C119.502 57.2463 115.919 53.6563 115.922 49.2316C115.926 44.806 119.516 41.2227 123.941 41.2266C128.366 41.2317 131.949 44.8208 131.946 49.2451ZM128.866 49.2426C128.868 46.5187 126.662 44.3096 123.938 44.3066C121.214 44.3049 119.004 46.5111 119.002 49.2341C118.999 51.9588 121.206 54.168 123.93 54.171C126.653 54.1735 128.864 51.9673 128.866 49.2426Z" fill="#5E4A4C"/>
<path d="M128.85 49.2449C128.847 51.9607 126.645 54.1606 123.929 54.1576C121.214 54.1546 119.015 51.951 119.017 49.236C119.02 46.5211 121.222 44.3221 123.938 44.3242C126.653 44.3272 128.853 46.5296 128.85 49.2449ZM128.318 49.2437C128.32 46.8224 126.36 44.8576 123.938 44.8567C121.516 44.8538 119.551 46.8148 119.549 49.2369C119.548 51.6581 121.508 53.6225 123.93 53.6255C126.352 53.6276 128.317 51.6658 128.318 49.2437Z" fill="#DADADA"/>
<path d="M126.947 49.2433C126.946 50.9072 125.595 52.2553 123.932 52.254C122.267 52.2523 120.919 50.9025 120.921 49.2373C120.922 47.5734 122.272 46.2253 123.936 46.2266C125.601 46.2287 126.95 47.5794 126.947 49.2433ZM125.829 49.2424C125.829 48.1965 124.981 47.3473 123.936 47.3465C122.89 47.3456 122.04 48.1926 122.04 49.2394C122.039 50.2845 122.887 51.1345 123.932 51.1354C124.979 51.1354 125.828 50.2888 125.829 49.2424Z" fill="#EDEDED"/>
<path d="M125.828 49.2436C125.828 50.29 124.978 51.1366 123.932 51.1366C122.886 51.1357 122.039 50.2857 122.04 49.2406C122.04 48.1934 122.89 47.3464 123.936 47.3477C124.981 47.3485 125.829 48.1977 125.828 49.2436ZM124.66 48.5177C124.765 48.6231 124.936 48.6231 125.042 48.5177C125.148 48.4123 125.148 48.241 125.042 48.1348C124.937 48.0294 124.765 48.0294 124.66 48.1348C124.554 48.2397 124.554 48.411 124.66 48.5177ZM123.777 48.0774C123.776 48.1645 123.847 48.2351 123.935 48.2351C124.021 48.2351 124.092 48.1645 124.093 48.0774C124.093 47.9903 124.022 47.9197 123.935 47.9197C123.848 47.9201 123.777 47.9907 123.777 48.0774ZM122.826 48.5156C122.933 48.621 123.103 48.621 123.21 48.5156C123.315 48.4102 123.315 48.238 123.21 48.1326C123.104 48.0272 122.933 48.0272 122.826 48.1326C122.721 48.238 122.721 48.4093 122.826 48.5156ZM122.769 49.3992C122.857 49.3992 122.927 49.3278 122.928 49.2406C122.928 49.1535 122.857 49.083 122.769 49.083C122.683 49.083 122.612 49.1527 122.612 49.2406C122.612 49.3278 122.682 49.3992 122.769 49.3992ZM123.208 49.967C123.102 49.8607 122.931 49.8607 122.825 49.9661C122.719 50.0724 122.719 50.2437 122.825 50.3491C122.93 50.4553 123.102 50.4553 123.207 50.3499C123.314 50.2436 123.314 50.0724 123.208 49.967ZM124.09 50.406C124.091 50.3189 124.02 50.2483 123.933 50.2483C123.845 50.2483 123.775 50.3189 123.774 50.406C123.774 50.4931 123.845 50.5637 123.933 50.5637C124.02 50.5632 124.09 50.494 124.09 50.406ZM124.653 49.2428C124.653 48.8454 124.332 48.5232 123.934 48.5224C123.537 48.5224 123.214 48.8433 123.214 49.2406C123.214 49.6389 123.536 49.961 123.933 49.9619C124.331 49.9619 124.653 49.6401 124.653 49.2428ZM125.041 49.9678C124.935 49.8616 124.764 49.8616 124.658 49.967C124.553 50.0732 124.552 50.2445 124.658 50.3499C124.763 50.4553 124.935 50.4562 125.041 50.3508C125.146 50.2454 125.146 50.0732 125.041 49.9678ZM125.256 49.2436C125.256 49.1556 125.185 49.0851 125.098 49.0851C125.01 49.0851 124.94 49.1556 124.94 49.2428C124.94 49.3299 125.01 49.4004 125.098 49.4004C125.185 49.4004 125.256 49.3307 125.256 49.2436Z" fill="#C6C6C6"/>
<path d="M128.318 49.2424C128.316 51.6645 126.351 53.6263 123.929 53.6242C121.508 53.6212 119.547 51.6564 119.549 49.2356C119.551 46.8135 121.516 44.8525 123.937 44.8555C126.36 44.8567 128.32 46.8216 128.318 49.2424ZM126.722 47.6325C126.837 47.8318 127.118 47.8841 127.349 47.7506C127.581 47.6163 127.676 47.3473 127.562 47.1492C127.447 46.9512 127.167 46.8989 126.935 47.0324C126.704 47.1658 126.608 47.4344 126.722 47.6325ZM123.936 46.2257C122.273 46.2248 120.922 47.5725 120.921 49.2364C120.919 50.9016 122.267 52.2514 123.931 52.2531C125.595 52.254 126.946 50.9063 126.947 49.2424C126.949 47.5785 125.601 46.2278 123.936 46.2257ZM125.546 46.4539C125.743 46.5678 126.012 46.4743 126.147 46.2423C126.28 46.0102 126.229 45.7297 126.031 45.6158C125.832 45.5006 125.563 45.5954 125.429 45.8275C125.295 46.0595 125.348 46.34 125.546 46.4539ZM123.523 45.5372C123.523 45.8041 123.708 46.0217 123.937 46.0217C124.166 46.0217 124.351 45.8049 124.351 45.5372C124.352 45.2694 124.167 45.0518 123.937 45.0518C123.709 45.0518 123.523 45.2686 123.523 45.5372ZM121.726 46.2384C121.86 46.4705 122.129 46.5653 122.327 46.4514C122.525 46.337 122.578 46.0557 122.444 45.8249C122.311 45.5929 122.041 45.4981 121.843 45.6124C121.645 45.7259 121.593 46.0064 121.726 46.2384ZM120.521 47.7447C120.753 47.8781 121.034 47.8267 121.149 47.6286C121.263 47.4306 121.167 47.1607 120.936 47.0264C120.704 46.893 120.424 46.9444 120.31 47.1433C120.195 47.3405 120.29 47.6104 120.521 47.7447ZM120.231 49.6504C120.499 49.6504 120.716 49.4655 120.716 49.2364C120.716 49.0074 120.5 48.8229 120.232 48.8216C119.964 48.8216 119.747 49.0065 119.747 49.2356C119.746 49.4651 119.963 49.6504 120.231 49.6504ZM121.145 50.8455C121.031 50.6483 120.751 50.596 120.519 50.7295C120.287 50.8629 120.191 51.132 120.305 51.33C120.42 51.5281 120.701 51.5803 120.933 51.4477C121.164 51.3134 121.259 51.0448 121.145 50.8455ZM122.322 52.0253C122.124 51.9101 121.855 52.0062 121.721 52.237C121.587 52.4682 121.639 52.7495 121.837 52.8647C122.035 52.9786 122.305 52.8838 122.438 52.6531C122.573 52.4206 122.52 52.1405 122.322 52.0253ZM124.345 52.9429C124.345 52.6752 124.16 52.4584 123.931 52.4584C123.702 52.4584 123.517 52.6752 123.516 52.9421C123.516 53.2098 123.701 53.4266 123.931 53.4266C124.159 53.4262 124.345 53.2107 124.345 52.9429ZM126.141 52.2408C126.008 52.0096 125.739 51.914 125.541 52.0283C125.342 52.1422 125.289 52.4227 125.424 52.6548C125.557 52.8868 125.826 52.9816 126.025 52.8673C126.223 52.7534 126.275 52.4729 126.141 52.2408ZM127.346 50.7354C127.115 50.6011 126.834 50.6534 126.719 50.8515C126.605 51.0495 126.7 51.3185 126.932 51.4528C127.164 51.5863 127.444 51.534 127.559 51.3368C127.673 51.1388 127.578 50.8697 127.346 50.7354ZM128.121 49.2424C128.122 49.0142 127.905 48.8284 127.637 48.8284C127.37 48.8284 127.152 49.0133 127.152 49.2424C127.152 49.4706 127.369 49.6572 127.637 49.6572C127.904 49.6572 128.121 49.4715 128.121 49.2424Z" fill="#C6C6C6"/>
<path d="M5.76599 49.9639C5.80296 50.0055 5.84505 50.0612 5.88669 50.1079C5.96574 50.2146 6.05373 50.3124 6.14214 50.4097C6.23479 50.507 6.32785 50.6048 6.42986 50.6974C6.54588 50.7994 6.66658 50.9065 6.80132 51.0038C6.93137 51.1058 7.07544 51.2036 7.21909 51.2916C7.98962 51.7557 8.89531 52.0251 9.85625 52.0251H28.5535L28.9156 49.9639L29.5051 46.6161C29.5238 46.5141 29.5421 46.4116 29.5655 46.3096C30.183 43.6491 32.5554 41.7455 35.309 41.7455H40.5276C43.1695 41.7455 45.4305 43.6444 45.8904 46.2493L45.8997 46.3096L46.5453 49.9639L46.9121 52.0251H114.755L115.122 49.9639L115.712 46.6161C115.73 46.5141 115.749 46.4116 115.772 46.3096C116.385 43.6491 118.757 41.7455 121.511 41.7455H126.729C129.371 41.7455 131.632 43.6444 132.092 46.2493L132.102 46.3096L132.747 49.9639L133.086 51.8675L133.114 52.0251H151.732C155.641 52.0251 159.518 51.4076 163.223 50.1866L163.901 49.9639H133.917L133.276 46.3096L133.23 46.0495C132.668 42.8875 129.938 40.5942 126.729 40.5942H121.511C118.126 40.5942 115.234 42.9946 114.593 46.3096C114.588 46.3419 114.579 46.3793 114.574 46.4163L113.952 49.9634H47.7149L47.0698 46.3092L47.0235 46.0491C46.4663 42.8871 43.7318 40.5938 40.5281 40.5938H35.3094C31.92 40.5938 29.0274 42.9942 28.3912 46.3092C28.3865 46.3415 28.3772 46.3789 28.3725 46.4159L27.7456 49.963H5.76599V49.9639Z" fill="#98C6CF"/>
<path d="M10.3442 8.89844H6.18343C4.79111 8.89844 3.45404 9.46199 2.49565 10.4735C1.53258 11.4897 1.31668 12.7932 1.37831 14.1022L1.59378 20.4565H2.2653L2.505 13.9807C2.6325 12.4141 4.13618 10.9737 5.70785 10.9737L9.55882 11.2959L10.3442 8.89844Z" fill="#4C9BAC"/>
<path d="M0.580219 19.4217C0.539843 20.228 1.16077 20.9135 1.96659 20.9543H1.98443C2.17526 20.9641 2.33761 20.817 2.34653 20.6266L2.60324 14.0947C2.61301 13.9043 2.46596 13.7415 2.27556 13.7322L2.17823 13.7284C1.4162 13.6897 0.767214 14.2775 0.729388 15.0395L0.580219 19.4217Z" fill="#5E4A4C"/>
<path d="M6.79404 8.89759V7.7692C6.79404 5.59232 8.55864 3.82812 10.7351 3.82812H160.809C162.518 3.82812 163.904 5.21364 163.904 6.92302V8.89802L6.79404 8.89759Z" fill="#98C6CF"/>
<path d="M95.3042 30.7528C96.0717 30.7528 96.696 30.1285 96.696 29.3613V12.9344C96.696 12.1669 96.0717 11.543 95.3042 11.543H76.7645C75.997 11.543 75.3731 12.1673 75.3731 12.9344V29.3613C75.3731 30.1289 75.9974 30.7528 76.7645 30.7528H95.3042Z" fill="#E9F3F5"/>
<path d="M76.7649 11.757C76.1151 11.757 75.5855 12.2862 75.5855 12.9364V29.3633C75.5855 30.0136 76.1147 30.5427 76.7649 30.5427H95.3045C95.9544 30.5427 96.4839 30.0136 96.4839 29.3633V12.9364C96.4839 12.2866 95.9548 11.757 95.3045 11.757H76.7649ZM76.7649 11.332H95.3045C96.189 11.332 96.9089 12.0516 96.9089 12.9364V29.3633C96.9089 30.2482 96.1894 30.9677 95.3045 30.9677H76.7649C75.8805 30.9677 75.1605 30.2482 75.1605 29.3633V12.9364C75.1605 12.0516 75.8801 11.332 76.7649 11.332Z" fill="#5E4A4C"/>
<path d="M72.0845 30.7528C72.8521 30.7528 73.476 30.1285 73.476 29.3613V12.9344C73.476 12.1669 72.8517 11.543 72.0845 11.543H53.5449C52.7748 11.543 52.1488 12.1673 52.1488 12.9344V29.3613C52.1488 30.1289 52.7753 30.7528 53.5449 30.7528H72.0845Z" fill="#E9F3F5"/>
<path d="M53.5449 11.757C52.8904 11.757 52.3608 12.2862 52.3608 12.9364V29.3633C52.3608 30.0136 52.89 30.5427 53.5449 30.5427H72.0845C72.7343 30.5427 73.2639 30.0136 73.2639 29.3633V12.9364C73.2639 12.2866 72.7348 11.757 72.0845 11.757H53.5449ZM53.5449 11.332H72.0845C72.9689 11.332 73.6889 12.0516 73.6889 12.9364V29.3633C73.6889 30.2482 72.9694 30.9677 72.0845 30.9677H53.5449C52.6579 30.9677 51.9358 30.2482 51.9358 29.3633V12.9364C51.9358 12.0516 52.6579 11.332 53.5449 11.332Z" fill="#5E4A4C"/>
<path d="M29.1416 12.9372V29.3641C29.1416 30.0144 29.6711 30.5435 30.321 30.5435H48.8606C49.5151 30.5435 50.04 30.0144 50.04 29.3641V12.9372C50.04 12.2874 49.5155 11.7578 48.8606 11.7578H30.321C29.6707 11.7578 29.1416 12.2869 29.1416 12.9372Z" fill="#E9F3F5"/>
<path d="M30.3229 11.761C29.6714 11.761 29.1431 12.2893 29.1431 12.9408V29.3656C29.1431 30.0171 29.6714 30.5454 30.3229 30.5454H48.863C49.5145 30.5454 50.0428 30.0171 50.0428 29.3656V12.9408C50.0428 12.2893 49.5145 11.761 48.863 11.761H30.3229ZM30.3229 11.2969H48.863C49.7695 11.2969 50.5073 12.0347 50.5073 12.9412V29.366C50.5073 30.2725 49.7695 31.0104 48.863 31.0104H30.3229C29.4164 31.0104 28.6786 30.2725 28.6786 29.366V12.9412C28.6786 12.0343 29.4164 11.2969 30.3229 11.2969Z" fill="#5E4A4C"/>
<path d="M5.79798 33.3333H9.55419C10.204 33.3333 10.7336 32.8042 10.7336 32.1539V12.9411C10.7336 12.2913 10.2045 11.7617 9.55419 11.7617H9.46579C8.10577 15.8941 5.79798 26.4941 5.79798 33.3333Z" fill="#E9F3F5"/>
<path d="M5.79792 33.3326H9.55413C10.204 33.3326 10.7335 32.8035 10.7335 32.1532V12.9404C10.7335 12.2905 10.2044 11.761 9.55413 11.761H9.46573L9.5588 11.2969C10.4641 11.3016 11.1976 12.0351 11.1976 12.9404V32.1532C11.1976 33.0585 10.4594 33.7967 9.55413 33.7967H5.76563V33.509L5.79792 33.3326Z" fill="#5E4A4C"/>
<path d="M137.973 12.9372V29.3641C137.973 30.0144 138.502 30.5435 139.153 30.5435H157.692C158.346 30.5435 158.876 30.0144 158.876 29.3641V12.9372C158.876 12.2874 158.347 11.7578 157.692 11.7578H139.152C138.502 11.7578 137.973 12.2869 137.973 12.9372Z" fill="#E9F3F5"/>
<path d="M139.156 11.7649C138.504 11.7649 137.976 12.2932 137.976 12.9447V29.3695C137.976 30.021 138.504 30.5493 139.156 30.5493H157.696C158.348 30.5493 158.876 30.021 158.876 29.3695V12.9447C158.876 12.2932 158.348 11.7649 157.696 11.7649H139.156ZM139.156 11.3008H157.696C158.603 11.3008 159.34 12.0386 159.34 12.9451V29.3699C159.34 30.2764 158.603 31.0143 157.696 31.0143H139.156C138.249 31.0143 137.512 30.2764 137.512 29.3699V12.9451C137.512 12.0382 138.249 11.3008 139.156 11.3008Z" fill="#5E4A4C"/>
<path d="M161.71 12.9372V29.3641C161.71 30.014 162.234 30.5435 162.889 30.5435H163.902V11.7578H162.889C162.234 11.7578 161.71 12.2874 161.71 12.9372Z" fill="#E9F3F5"/>
<path d="M162.889 11.293H163.902V11.7571H162.889C162.235 11.7571 161.71 12.2862 161.71 12.9365V29.3634C161.71 30.0132 162.234 30.5428 162.889 30.5428H163.902V31.0069H162.889C161.979 31.0069 161.246 30.2686 161.246 29.3634V12.9365C161.245 12.0312 161.979 11.293 162.889 11.293Z" fill="#5E4A4C"/>
<path d="M114.754 12.9372V29.3641C114.754 30.0144 115.283 30.5435 115.933 30.5435H134.473C135.123 30.5435 135.652 30.0144 135.652 29.3641V12.9372C135.652 12.2874 135.123 11.7578 134.473 11.7578H115.933C115.283 11.7578 114.754 12.2869 114.754 12.9372Z" fill="#E9F3F5"/>
<path d="M115.935 11.761C115.283 11.761 114.755 12.2893 114.755 12.9408V29.3656C114.755 30.0171 115.283 30.5454 115.935 30.5454H134.475C135.126 30.5454 135.655 30.0171 135.655 29.3656V12.9408C135.655 12.2893 135.126 11.761 134.475 11.761H115.935ZM115.935 11.2969H134.475C135.381 11.2969 136.119 12.0347 136.119 12.9412V29.366C136.119 30.2725 135.381 31.0104 134.475 31.0104H115.935C115.028 31.0104 114.29 30.2725 114.29 29.366V12.9412C114.29 12.0343 115.028 11.2969 115.935 11.2969Z" fill="#5E4A4C"/>
<path d="M5.76596 36.293C5.29208 37.6475 5.43403 38.8507 5.76596 40.0075H7.1264C8.04569 40.0075 8.79327 39.2599 8.79327 38.3406V37.9552C8.79327 37.0359 8.04569 36.293 7.1264 36.293H5.76596Z" fill="#98C6CF"/>
<path d="M7.12633 36.0625C8.171 36.0625 9.02527 36.9121 9.02527 37.9568V38.3422C9.02527 39.3869 8.171 40.2412 7.12633 40.2412H5.76589V39.777H7.12633C7.91557 39.777 8.56116 39.1315 8.56116 38.3422V37.9568C8.56116 37.1675 7.91557 36.5266 7.12633 36.5266H5.76589V36.0625H7.12633Z" fill="#5E4A4C"/>
<path d="M5.76591 42.8828C5.38425 43.6385 5.49688 44.2675 5.76591 44.8561H7.28871C7.82719 44.8561 8.26367 44.4196 8.26367 43.8812V43.8578C8.26367 43.3193 7.82719 42.8828 7.28871 42.8828H5.76591Z" fill="#E9F3F5"/>
<path d="M163.904 42.8828C164.286 43.6385 164.173 44.2675 163.904 44.8561H162.381C161.843 44.8561 161.406 44.4196 161.406 43.8812V43.8578C161.406 43.3193 161.843 42.8828 162.381 42.8828H163.904Z" fill="#E9F3F5"/>
<path d="M132.102 46.3086L132.747 49.9624H163.901V46.3086H132.102Z" fill="#98C6CF"/>
<path d="M45.8997 46.3086L46.5452 49.9628H115.122L115.712 46.615C115.73 46.513 115.749 46.4106 115.772 46.3086H45.8997Z" fill="#98C6CF"/>
<path d="M5.76589 46.3086V49.9628H28.916L29.5054 46.615C29.5241 46.513 29.5424 46.4106 29.5658 46.3086H5.76589Z" fill="#98C6CF"/>
<path d="M12.7386 10.3711H27.2088V49.3722H12.7386V10.3711Z" fill="#5E4A4C"/>
<path d="M20.2928 48.9084H26.7444V10.8359H20.2928V48.9084ZM13.202 10.8359H19.6536V48.9084H13.202V10.8359Z" fill="#98C6CF"/>
<path d="M17.8561 30.7576C18.4519 30.7576 18.9368 30.2726 18.9368 29.6768V12.6323C18.9368 12.0339 18.4519 11.5469 17.8561 11.5469H15.0004C14.4046 11.5469 13.9196 12.0339 13.9196 12.6323V29.6768C13.9196 30.1137 14.1785 30.5038 14.5801 30.6717C14.7119 30.7291 14.8508 30.7576 15.0004 30.7576H17.8561ZM24.946 30.7576C25.5419 30.7576 26.0268 30.2726 26.0268 29.6768V12.6323C26.0268 12.0339 25.5419 11.5469 24.946 11.5469H22.0904C21.4945 11.5469 21.0096 12.0339 21.0096 12.6323V29.6768C21.0096 30.2726 21.4945 30.7576 22.0904 30.7576H24.946Z" fill="#E9F3F5"/>
<path d="M15.0008 11.7609C14.5227 11.7609 14.1325 12.1511 14.1325 12.6339V29.6783C14.1325 30.0358 14.351 30.3469 14.6621 30.4769C14.7688 30.5233 14.8801 30.5466 15.0008 30.5466H17.8564C18.3346 30.5466 18.7247 30.1565 18.7247 29.6783V12.6339C18.7247 12.1511 18.3346 11.7609 17.8564 11.7609H15.0008ZM22.0904 11.7609C21.6122 11.7609 21.2221 12.1511 21.2221 12.6339V29.6783C21.2221 30.1565 21.6122 30.5466 22.0904 30.5466H24.946C25.4241 30.5466 25.8143 30.1565 25.8143 29.6783V12.6339C25.8143 12.1511 25.4241 11.7609 24.946 11.7609H22.0904ZM15.0008 11.3359H17.8564C18.5696 11.3359 19.1497 11.9182 19.1497 12.6339V29.6783C19.1497 30.3915 18.5696 30.9716 17.8564 30.9716H15.0008C14.8236 30.9716 14.6527 30.9364 14.4925 30.8667C14.0178 30.6682 13.7075 30.2011 13.7075 29.6783V12.6339C13.7075 11.9182 14.2877 11.3359 15.0008 11.3359ZM22.0904 11.3359H24.946C25.6591 11.3359 26.2393 11.9182 26.2393 12.6339V29.6783C26.2393 30.3915 25.6591 30.9716 24.946 30.9716H22.0904C21.3772 30.9716 20.7971 30.3915 20.7971 29.6783V12.6339C20.7975 11.9182 21.3776 11.3359 22.0904 11.3359Z" fill="#5E4A4C"/>
<path d="M98.5558 10.3672H113.028V49.3683H98.5558V10.3672Z" fill="#5E4A4C"/>
<path d="M112.564 10.832V48.9045H106.11V10.832H112.564ZM105.469 10.832V48.9045H99.0204V10.832H105.469Z" fill="#98C6CF"/>
<path d="M100.817 11.7617H103.673C104.156 11.7617 104.541 12.1519 104.541 12.6347V29.6791C104.541 30.1573 104.156 30.5474 103.673 30.5474H100.817C100.339 30.5474 99.9488 30.1573 99.9488 29.6791V12.6347C99.9488 12.1519 100.339 11.7617 100.817 11.7617ZM107.911 11.7617H110.762C111.245 11.7617 111.635 12.1519 111.635 12.6347V29.6791C111.635 30.1573 111.245 30.5474 110.762 30.5474H107.911C107.428 30.5474 107.038 30.1573 107.038 29.6791V12.6347C107.039 12.1519 107.428 11.7617 107.911 11.7617Z" fill="#E9F3F5"/>
<path d="M100.819 11.761C100.338 11.761 99.9487 12.1507 99.9487 12.6314V29.6754C99.9487 30.1561 100.338 30.5458 100.819 30.5458H103.672C104.153 30.5458 104.543 30.1561 104.543 29.6754V12.6314C104.543 12.1507 104.153 11.761 103.672 11.761H100.819ZM107.91 11.761C107.429 11.761 107.039 12.1507 107.039 12.6314V29.6754C107.039 30.1561 107.429 30.5458 107.91 30.5458H110.763C111.243 30.5458 111.633 30.1561 111.633 29.6754V12.6314C111.633 12.1507 111.243 11.761 110.763 11.761H107.91ZM100.819 11.2969H103.672C104.408 11.2969 105.007 11.8957 105.007 12.6318V29.6758C105.007 30.4119 104.408 31.0108 103.672 31.0108H100.819C100.083 31.0108 99.4842 30.4119 99.4842 29.6758V12.6318C99.4842 11.8957 100.083 11.2969 100.819 11.2969ZM107.91 11.2969H110.763C111.499 11.2969 112.098 11.8957 112.098 12.6318V29.6758C112.098 30.4119 111.499 31.0108 110.763 31.0108H107.91C107.173 31.0108 106.575 30.4119 106.575 29.6758V12.6318C106.575 11.8957 107.174 11.2969 107.91 11.2969Z" fill="#5E4A4C"/>
<path d="M113.028 32.1953H163.901V36.606H113.028V32.1953Z" fill="#1F8297"/>
<path d="M27.2284 32.1953H98.5563V36.606H27.2284V32.1953Z" fill="#1F8297"/>
<path d="M106.11 32.1953H112.564V36.606H106.11V32.1953Z" fill="#1F8297"/>
<path d="M99.0202 32.1953H105.469V36.606H99.0202V32.1953Z" fill="#1F8297"/>
<path d="M113.028 37.6172H163.901V39.1587H113.028V37.6172Z" fill="#1F8297"/>
<path d="M27.2284 37.6172H98.5563V39.1587H27.2284V37.6172Z" fill="#1F8297"/>
<path d="M106.11 37.6172H112.564V39.1587H106.11V37.6172Z" fill="#1F8297"/>
<path d="M99.0202 37.6172H105.469V39.1587H99.0202V37.6172Z" fill="#1F8297"/>
<path d="M20.291 32.1953H26.7448V36.606H20.291V32.1953Z" fill="#1F8297"/>
<path d="M13.2018 32.1953H19.6508V36.606H13.2018V32.1953Z" fill="#1F8297"/>
<path d="M20.291 37.6172H26.7448V39.1587H20.291V37.6172Z" fill="#1F8297"/>
<path d="M13.2018 37.6172H19.6508V39.1587H13.2018V37.6172Z" fill="#1F8297"/>
<path d="M117.211 3.36752H117.219C117.441 3.36752 117.621 3.18732 117.621 2.96547V0.984087C117.621 0.761808 117.441 0.582031 117.219 0.582031H117.211C116.989 0.582031 116.809 0.762233 116.809 0.984087V2.96547C116.808 3.18732 116.989 3.36752 117.211 3.36752Z" fill="#362A2B"/>
<path d="M115.76 3.36752H115.768C115.99 3.36752 116.17 3.18732 116.17 2.96547V0.984087C116.17 0.761808 115.99 0.582031 115.768 0.582031H115.76C115.538 0.582031 115.358 0.762233 115.358 0.984087V2.96547C115.358 3.18732 115.538 3.36752 115.76 3.36752Z" fill="#362A2B"/>
<path d="M114.309 3.36752H114.317C114.539 3.36752 114.719 3.18732 114.719 2.96547V0.984087C114.719 0.761808 114.539 0.582031 114.317 0.582031H114.309C114.087 0.582031 113.907 0.762233 113.907 0.984087V2.96547C113.907 3.18732 114.087 3.36752 114.309 3.36752Z" fill="#362A2B"/>
<path d="M112.858 3.36752H112.866C113.088 3.36752 113.268 3.18732 113.268 2.96547V0.984087C113.268 0.761808 113.088 0.582031 112.866 0.582031H112.858C112.636 0.582031 112.456 0.762233 112.456 0.984087V2.96547C112.456 3.18732 112.636 3.36752 112.858 3.36752Z" fill="#362A2B"/>
<path d="M111.407 3.36752H111.415C111.637 3.36752 111.817 3.18732 111.817 2.96547V0.984087C111.817 0.761808 111.637 0.582031 111.415 0.582031H111.407C111.184 0.582031 111.005 0.762233 111.005 0.984087V2.96547C111.005 3.18732 111.185 3.36752 111.407 3.36752Z" fill="#362A2B"/>
<path d="M109.956 3.36752H109.964C110.186 3.36752 110.366 3.18732 110.366 2.96547V0.984087C110.366 0.761808 110.186 0.582031 109.964 0.582031H109.956C109.733 0.582031 109.554 0.762233 109.554 0.984087V2.96547C109.554 3.18732 109.734 3.36752 109.956 3.36752Z" fill="#362A2B"/>
<path d="M53.3997 3.36752H53.4078C53.6301 3.36752 53.8099 3.18732 53.8099 2.96547V0.984087C53.8099 0.761808 53.6297 0.582031 53.4078 0.582031H53.3997C53.1775 0.582031 52.9977 0.762233 52.9977 0.984087V2.96547C52.9977 3.18732 53.1775 3.36752 53.3997 3.36752Z" fill="#362A2B"/>
<path d="M51.9488 3.36752H51.9568C52.1791 3.36752 52.3589 3.18732 52.3589 2.96547V0.984087C52.3589 0.761808 52.1787 0.582031 51.9568 0.582031H51.9488C51.7265 0.582031 51.5467 0.762233 51.5467 0.984087V2.96547C51.5467 3.18732 51.7265 3.36752 51.9488 3.36752Z" fill="#362A2B"/>
<path d="M50.4978 3.36752H50.5058C50.7281 3.36752 50.9079 3.18732 50.9079 2.96547V0.984087C50.9079 0.761808 50.7277 0.582031 50.5058 0.582031H50.4978C50.2755 0.582031 50.0957 0.762233 50.0957 0.984087V2.96547C50.0957 3.18732 50.2755 3.36752 50.4978 3.36752Z" fill="#362A2B"/>
<path d="M49.0468 3.36752H49.0549C49.2771 3.36752 49.4569 3.18732 49.4569 2.96547V0.984087C49.4569 0.761808 49.2767 0.582031 49.0549 0.582031H49.0468C48.8245 0.582031 48.6447 0.762233 48.6447 0.984087V2.96547C48.6447 3.18732 48.8249 3.36752 49.0468 3.36752Z" fill="#362A2B"/>
<path d="M47.5957 3.36752H47.6038C47.8261 3.36752 48.0059 3.18732 48.0059 2.96547V0.984087C48.0059 0.761808 47.8257 0.582031 47.6038 0.582031H47.5957C47.3735 0.582031 47.1937 0.762233 47.1937 0.984087V2.96547C47.1937 3.18732 47.3739 3.36752 47.5957 3.36752Z" fill="#362A2B"/>
<path d="M46.1447 3.36752H46.1528C46.3751 3.36752 46.5549 3.18732 46.5549 2.96547V0.984087C46.5549 0.761808 46.3747 0.582031 46.1528 0.582031H46.1447C45.9225 0.582031 45.7427 0.762233 45.7427 0.984087V2.96547C45.7427 3.18732 45.9229 3.36752 46.1447 3.36752Z" fill="#362A2B"/>
<path d="M76.0749 51.093H76.0829C76.3052 51.093 76.485 50.9128 76.485 50.691V47.781C76.485 47.5587 76.3048 47.3789 76.0829 47.3789H76.0749C75.8526 47.3789 75.6728 47.5591 75.6728 47.781V50.691C75.6728 50.9133 75.853 51.093 76.0749 51.093Z" fill="#362A2B"/>
<path d="M74.6239 51.093H74.6319C74.8542 51.093 75.034 50.9128 75.034 50.691V47.781C75.034 47.5587 74.8538 47.3789 74.6319 47.3789H74.6239C74.4016 47.3789 74.2218 47.5591 74.2218 47.781V50.691C74.2218 50.9133 74.402 51.093 74.6239 51.093Z" fill="#362A2B"/>
<path d="M73.1733 51.093H73.1814C73.4037 51.093 73.5834 50.9128 73.5834 50.691V47.781C73.5834 47.5587 73.4032 47.3789 73.1814 47.3789H73.1733C72.951 47.3789 72.7713 47.5591 72.7713 47.781V50.691C72.7708 50.9133 72.951 51.093 73.1733 51.093Z" fill="#362A2B"/>
<path d="M71.7223 51.093H71.7303C71.9526 51.093 72.1324 50.9128 72.1324 50.691V47.781C72.1324 47.5587 71.9522 47.3789 71.7303 47.3789H71.7223C71.5 47.3789 71.3202 47.5591 71.3202 47.781V50.691C71.3198 50.9133 71.5 51.093 71.7223 51.093Z" fill="#362A2B"/>
<path d="M70.2713 51.093H70.2793C70.5016 51.093 70.6814 50.9128 70.6814 50.691V47.781C70.6814 47.5587 70.5012 47.3789 70.2793 47.3789H70.2713C70.049 47.3789 69.8692 47.5591 69.8692 47.781V50.691C69.8688 50.9133 70.049 51.093 70.2713 51.093Z" fill="#362A2B"/>
<path d="M68.8203 51.093H68.8284C69.0506 51.093 69.2304 50.9128 69.2304 50.691V47.781C69.2304 47.5587 69.0502 47.3789 68.8284 47.3789H68.8203C68.598 47.3789 68.4182 47.5591 68.4182 47.781V50.691C68.4178 50.9133 68.598 51.093 68.8203 51.093Z" fill="#362A2B"/>
<path d="M161.756 35.5738V39.3487C161.756 40.1473 162.411 40.8018 163.209 40.8018H163.901V34.125H163.209C162.411 34.1254 161.756 34.7753 161.756 35.5738Z" fill="#5E4A4C"/>
<path d="M163.21 40.3355H163.902C164.177 38.4842 164.18 36.5699 163.902 34.5898H163.21C162.665 34.5898 162.223 35.0314 162.223 35.5767V39.3491C162.223 39.8939 162.664 40.3355 163.21 40.3355Z" fill="#4C9BAC"/>
<path d="M51.0762 44.8561H53.1846C53.5999 44.8561 53.936 44.5195 53.936 44.1047V43.6342C53.936 43.219 53.5994 42.8828 53.1846 42.8828H51.0762C50.6609 42.8828 50.3248 43.2194 50.3248 43.6342V44.1047C50.3248 44.5195 50.6614 44.8561 51.0762 44.8561Z" fill="#E9F3F5"/>
<path d="M135.065 44.8561H137.173C137.588 44.8561 137.924 44.5195 137.924 44.1047V43.6342C137.924 43.219 137.588 42.8828 137.173 42.8828H135.065C134.65 42.8828 134.313 43.2194 134.313 43.6342V44.1047C134.313 44.5195 134.65 44.8561 135.065 44.8561Z" fill="#E9F3F5"/>
<path d="M110.651 30.079L107.503 20.5703V29.6752C107.503 29.8979 107.684 30.079 107.911 30.079H110.651Z" fill="white"/>
<path d="M100.413 12.6311V16.74L104.076 27.6372V12.6311C104.076 12.4084 103.895 12.2227 103.672 12.2227H100.821C100.594 12.2227 100.413 12.4084 100.413 12.6311Z" fill="white"/>
<path d="M107.502 14.2227V18.7541L111.138 29.8276C111.161 29.7813 111.171 29.7303 111.171 29.6742V25.4352L107.502 14.2227Z" fill="white"/>
<path d="M163.616 24.6155V30.079H162.685C162.458 30.079 162.277 29.8979 162.277 29.6752V20.5703L163.616 24.6155Z" fill="white"/>
<path d="M163.616 18.318V22.8341L162.276 18.7545V14.2227L163.616 18.318Z" fill="white"/>
<path d="M24.8322 30.079L21.6842 20.5703V29.6752C21.6842 29.8979 21.8653 30.079 22.0926 30.079H24.8322Z" fill="white"/>
<path d="M14.5944 12.6311V16.74L18.2575 27.6372V12.6311C18.2575 12.4084 18.0764 12.2227 17.8537 12.2227H15.0028C14.7754 12.2227 14.5944 12.4084 14.5944 12.6311Z" fill="white"/>
<path d="M21.6841 14.2227V18.7541L25.3196 29.8276C25.3429 29.7813 25.3519 29.7303 25.3519 29.6742V25.4352L21.6841 14.2227Z" fill="white"/>
<path d="M147.485 12.2305L153.396 30.0867H147.644L141.639 12.2305H147.485Z" fill="white"/>
<path d="M149.595 12.2305L155.433 30.0867H153.967L148.101 12.2305H149.595Z" fill="white"/>
<path d="M124.328 12.2305L130.239 30.0867H124.487L118.482 12.2305H124.328Z" fill="white"/>
<path d="M126.438 12.2305L132.276 30.0867H130.81L124.944 12.2305H126.438Z" fill="white"/>
<path d="M84.9848 12.2305L90.8958 30.0867H85.1442L79.1389 12.2305H84.9848Z" fill="white"/>
<path d="M87.0945 12.2305L92.9324 30.0867H91.4666L85.6015 12.2305H87.0945Z" fill="white"/>
<path d="M61.7631 12.2305L67.6745 30.0867H61.9225L55.9176 12.2305H61.7631Z" fill="white"/>
<path d="M63.8732 12.2305L69.7111 30.0867H68.2453L62.3798 12.2305H63.8732Z" fill="white"/>
<path d="M38.5421 12.2305L44.4531 30.0867H38.7011L32.6962 12.2305H38.5421Z" fill="white"/>
<path d="M40.6519 12.2305L46.4897 30.0867H45.0239L39.1584 12.2305H40.6519Z" fill="white"/>
<path d="M6.8376 26.2365L9.21678 32.8683H9.55424C9.94865 32.8683 10.2691 32.5479 10.2691 32.1534V23.9309L8.30982 18.0156C7.61366 21.1636 6.8376 26.2365 6.8376 26.2365Z" fill="white"/>
<path d="M8.55166 16.9559L10.2695 22.1886V18.0099L9.14114 14.5508C8.94606 15.2843 8.74631 16.0923 8.55166 16.9559Z" fill="white"/>
<path opacity="0.4" d="M116.196 45.1147C117.151 43.101 119.192 41.7461 121.512 41.7461H126.729C128.971 41.7461 130.931 43.1133 131.758 45.1147H116.196Z" fill="#362A2B"/>
<path opacity="0.4" d="M29.9895 45.1167C30.9432 43.0997 32.9867 41.7422 35.3085 41.7422H40.5258C42.7699 41.7422 44.733 43.112 45.5575 45.1167H29.9895Z" fill="#362A2B"/>
<path opacity="0.3" d="M154.24 25.3281H155.083C155.692 25.3281 156.157 25.8734 156.06 26.4752L155.406 30.5468H152.557L153.262 26.1607C153.339 25.6809 153.754 25.3281 154.24 25.3281Z" fill="#362A2B"/>
<path opacity="0.3" d="M143.87 25.3281H144.714C145.323 25.3281 145.788 25.8734 145.691 26.4752L145.037 30.5468H142.188L142.893 26.1607C142.97 25.6809 143.384 25.3281 143.87 25.3281Z" fill="#362A2B"/>
<path opacity="0.3" d="M129.47 25.3281H130.313C130.923 25.3281 131.387 25.8734 131.291 26.4752L130.636 30.5468H127.788L128.493 26.1607C128.57 25.6809 128.984 25.3281 129.47 25.3281Z" fill="#362A2B"/>
<path opacity="0.3" d="M119.101 25.3281H119.944C120.554 25.3281 121.018 25.8734 120.922 26.4752L120.267 30.5468H117.419L118.124 26.1607C118.2 25.6809 118.615 25.3281 119.101 25.3281Z" fill="#362A2B"/>
<path opacity="0.3" d="M90.7104 25.3281H91.5541C92.1635 25.3281 92.6281 25.8734 92.5316 26.4752L91.8771 30.5468H89.0283L89.7334 26.1607C89.8103 25.6809 90.2242 25.3281 90.7104 25.3281Z" fill="#362A2B"/>
<path opacity="0.3" d="M80.341 25.3281H81.1846C81.7941 25.3281 82.2586 25.8734 82.1621 26.4752L81.5076 30.5468H78.6588L79.3639 26.1607C79.4408 25.6809 79.8548 25.3281 80.341 25.3281Z" fill="#362A2B"/>
<path opacity="0.3" d="M67.4891 25.3281H68.3323C68.9418 25.3281 69.4063 25.8734 69.3098 26.4752L68.6553 30.5468H65.8065L66.5116 26.1607C66.589 25.6809 67.0033 25.3281 67.4891 25.3281Z" fill="#362A2B"/>
<path opacity="0.3" d="M57.1196 25.3281H57.9633C58.5727 25.3281 59.0372 25.8734 58.9408 26.4752L58.2863 30.5468H55.4374L56.1425 26.1607C56.2195 25.6809 56.6338 25.3281 57.1196 25.3281Z" fill="#362A2B"/>
<path opacity="0.3" d="M44.2678 25.3281H45.1114C45.7208 25.3281 46.1854 25.8734 46.0889 26.4752L45.4344 30.5468H42.5856L43.2907 26.1607C43.3676 25.6809 43.7815 25.3281 44.2678 25.3281Z" fill="#362A2B"/>
<path opacity="0.3" d="M33.8987 25.3281H34.7419C35.3514 25.3281 35.8159 25.8734 35.7195 26.4752L35.0649 30.5468H32.2161L32.9212 26.1607C32.9981 25.6809 33.4125 25.3281 33.8987 25.3281Z" fill="#362A2B"/>
<path opacity="0.3" d="M21.2781 28.7725L21.2828 28.7678C21.4872 28.5405 21.854 28.4754 22.2484 28.4614H22.253C22.4668 28.4567 22.6432 28.6331 22.6245 28.8469L22.5225 30.5461H22.0907C21.6126 30.5461 21.2224 30.1559 21.2224 29.6778V28.2757C21.2454 28.4427 21.264 28.6055 21.2781 28.7725ZM7.53465 28.4848C7.3723 28.4567 7.26095 28.2991 7.29325 28.132C7.3213 27.965 7.48366 27.8579 7.64601 27.886L10.7337 28.4572V29.0794L10.2649 28.991L10.1582 29.6179H10.1769C10.2742 29.6366 10.3486 29.7016 10.3907 29.7802L10.7341 29.4972V30.0216L10.358 30.3327L10.1722 31.3867L10.4646 31.4377C10.562 31.4518 10.6504 31.4841 10.7341 31.5304V32.1526C10.7341 32.8024 10.205 33.332 9.55471 33.332H7.50236L7.69276 31.9346C7.78584 31.4101 8.28691 31.0569 8.8118 31.15L9.0719 31.1917L9.27165 30.0497L8.5194 28.6705L7.53465 28.4848ZM9.47056 29.5664C9.53091 29.5341 9.59593 29.5201 9.66564 29.5295L9.75871 29.5482L9.86539 28.9166L9.03408 28.7632L9.47056 29.5664ZM16.8856 29.8682C16.9137 29.3667 16.9507 29.0369 16.9507 29.0186C16.9507 26.985 17.8653 25.8149 17.8653 25.8149L17.921 25.7962L17.8372 25.8102L17.7862 25.2671C17.7025 25.304 17.6239 25.3368 17.5448 25.3508L17.15 25.3882C16.9689 25.4069 16.8295 25.3185 16.7322 25.1884C16.6255 25.0537 16.5605 24.8633 16.5465 24.7056C16.5465 24.7056 16.5465 24.0137 16.5371 23.893L16.3608 23.8561C16.24 23.8373 16.161 23.7166 16.1984 23.6006L16.3608 23.1595L16.3977 23.0621C16.3977 23.0621 16.365 23.0065 16.3327 22.9321C16.3187 22.904 16.3047 22.8764 16.2957 22.8484C16.2911 22.7183 16.2957 22.5976 16.3098 22.4816C16.1937 22.4863 16.0824 22.4909 15.9757 22.4909C15.8737 22.4909 15.7713 22.4863 15.6833 22.4769C15.3352 22.4489 15.0845 22.3469 14.931 22.0961C14.931 22.0727 15.3535 22.0311 15.7436 21.9988C16.0824 21.9707 16.3982 21.9478 16.3982 21.9478L16.4309 21.7761L16.4449 21.7064C16.6026 20.9728 17.2528 20.4343 17.9958 20.578L18.7246 20.7221V29.6782C18.7246 30.1563 18.3345 30.5465 17.8564 30.5465H15.0007C14.88 30.5465 14.7687 30.5231 14.662 30.4768C14.3509 30.3467 14.1325 30.0356 14.1325 29.6782V29.3301L16.8533 29.9243L16.8856 29.8682Z" fill="#362A2B"/>
<path opacity="0.3" d="M107.039 15.8672H111.635V16.5217H107.039V15.8672Z" fill="#362A2B"/>
<path opacity="0.3" d="M99.949 15.8672H104.541V16.5217H99.949V15.8672Z" fill="#362A2B"/>
<path opacity="0.3" d="M29.1416 15.8659V16.5208H39.3235V16.8969H39.4998V30.5473H40.1964V16.8969H40.3868V16.5208H50.0396V15.8659H40.3868V15.5781H39.3235V15.8659H29.1416Z" fill="#362A2B"/>
<path opacity="0.3" d="M137.973 15.8659V16.5208H148.258V16.8969H148.434V30.5473H149.13V16.8969H149.321V16.5208H158.876V15.8659H149.321V15.5781H148.258V15.8659H137.973Z" fill="#362A2B"/>
<path opacity="0.3" d="M114.754 15.8659V16.5208H123.831V16.8969H124.007V30.5473H124.704V16.8969H124.894V16.5208H135.652V15.8659H124.894V15.5781H123.831V15.8659H114.754Z" fill="#362A2B"/>
<path opacity="0.3" d="M75.5856 15.8659V16.5208H85.396V16.8969H85.5774V30.5473H86.2736V16.8969H86.464V16.5208H96.4835V15.8659H86.464V15.5781H85.396V15.8659H75.5856Z" fill="#362A2B"/>
<path opacity="0.3" d="M52.3612 15.8659V16.5208H62.3624V16.8969H62.5388V30.5473H63.2354V16.8969H63.4258V16.5208H73.2642V15.8659H63.4258V15.5781H62.3624V15.8659H52.3612Z" fill="#362A2B"/>
</svg>
