<svg width="18" height="19" viewBox="0 0 18 19" fill="none" xmlns="http://www.w3.org/2000/svg">
<mask id="path-1-inside-1_2427_9224" fill="white">
<path d="M15.5239 15.8119H2.47612C2.43045 15.812 2.38524 15.8034 2.34305 15.7866C2.30087 15.7699 2.26253 15.7454 2.23025 15.7145C2.19796 15.6836 2.17235 15.647 2.15488 15.6066C2.1374 15.5663 2.12841 15.523 2.12842 15.4793V3.10452C2.12842 2.16374 2.86521 1.39844 3.7708 1.39844H14.2292C15.1348 1.39844 15.8716 2.16374 15.8716 3.10452V15.4793C15.8716 15.523 15.8626 15.5663 15.8451 15.6066C15.8277 15.647 15.802 15.6836 15.7698 15.7145C15.7375 15.7454 15.6991 15.7699 15.6569 15.7866C15.6148 15.8034 15.5695 15.812 15.5239 15.8119ZM2.82378 15.1467H15.1762V3.10452C15.1762 2.53061 14.7514 2.06371 14.2292 2.06371H3.77079C3.2486 2.06371 2.8238 2.53061 2.8238 3.10452L2.82378 15.1467Z"/>
</mask>
<path d="M15.5239 15.8119H2.47612C2.43045 15.812 2.38524 15.8034 2.34305 15.7866C2.30087 15.7699 2.26253 15.7454 2.23025 15.7145C2.19796 15.6836 2.17235 15.647 2.15488 15.6066C2.1374 15.5663 2.12841 15.523 2.12842 15.4793V3.10452C2.12842 2.16374 2.86521 1.39844 3.7708 1.39844H14.2292C15.1348 1.39844 15.8716 2.16374 15.8716 3.10452V15.4793C15.8716 15.523 15.8626 15.5663 15.8451 15.6066C15.8277 15.647 15.802 15.6836 15.7698 15.7145C15.7375 15.7454 15.6991 15.7699 15.6569 15.7866C15.6148 15.8034 15.5695 15.812 15.5239 15.8119ZM2.82378 15.1467H15.1762V3.10452C15.1762 2.53061 14.7514 2.06371 14.2292 2.06371H3.77079C3.2486 2.06371 2.8238 2.53061 2.8238 3.10452L2.82378 15.1467Z" fill="#6A7070"/>
<path d="M15.5239 15.8119L15.524 14.8119H15.5239V15.8119ZM2.47612 15.8119V14.8119H2.47602L2.47612 15.8119ZM2.12842 15.4793L3.12842 15.4794V15.4793H2.12842ZM15.8716 15.4793H14.8716V15.4794L15.8716 15.4793ZM2.82378 15.1467L1.82378 15.1467L1.82378 16.1467H2.82378V15.1467ZM15.1762 15.1467V16.1467H16.1762V15.1467H15.1762ZM2.8238 3.10452L3.8238 3.10452V3.10452H2.8238ZM15.5239 14.8119H2.47612V16.8119H15.5239V14.8119ZM2.47602 14.8119C2.55571 14.8119 2.63557 14.8269 2.71141 14.857L1.9747 16.7163C2.13491 16.7798 2.3052 16.812 2.47621 16.8119L2.47602 14.8119ZM2.71141 14.857C2.78732 14.887 2.85908 14.9322 2.92153 14.9919L1.53896 16.4371C1.66599 16.5586 1.81441 16.6528 1.9747 16.7163L2.71141 14.857ZM2.92153 14.9919C2.98407 15.0518 3.03617 15.1252 3.07257 15.2093L1.23718 16.0039C1.30853 16.1687 1.41184 16.3155 1.53896 16.4371L2.92153 14.9919ZM3.07257 15.2093C3.10903 15.2935 3.12843 15.3855 3.12842 15.4794L1.12842 15.4792C1.1284 15.6605 1.16578 15.839 1.23718 16.0039L3.07257 15.2093ZM3.12842 15.4793V3.10452H1.12842V15.4793H3.12842ZM3.12842 3.10452C3.12842 2.67985 3.45299 2.39844 3.7708 2.39844V0.398438C2.27742 0.398438 1.12842 1.64764 1.12842 3.10452H3.12842ZM3.7708 2.39844H14.2292V0.398438H3.7708V2.39844ZM14.2292 2.39844C14.547 2.39844 14.8716 2.67984 14.8716 3.10452H16.8716C16.8716 1.64764 15.7226 0.398438 14.2292 0.398438V2.39844ZM14.8716 3.10452V15.4793H16.8716V3.10452H14.8716ZM14.8716 15.4794C14.8716 15.3855 14.891 15.2935 14.9274 15.2093L16.7628 16.0039C16.8342 15.839 16.8716 15.6605 16.8716 15.4792L14.8716 15.4794ZM14.9274 15.2093C14.9638 15.1252 15.0159 15.0518 15.0785 14.9919L16.461 16.4371C16.5882 16.3155 16.6915 16.1687 16.7628 16.0039L14.9274 15.2093ZM15.0785 14.9919C15.1409 14.9322 15.2127 14.887 15.2886 14.8569L16.0253 16.7163C16.1856 16.6528 16.334 16.5587 16.461 16.4371L15.0785 14.9919ZM15.2886 14.8569C15.3645 14.8269 15.4443 14.8119 15.524 14.8119L15.5237 16.8119C15.6948 16.812 15.8651 16.7798 16.0253 16.7163L15.2886 14.8569ZM2.82378 16.1467H15.1762V14.1467H2.82378V16.1467ZM16.1762 15.1467V3.10452H14.1762V15.1467H16.1762ZM16.1762 3.10452C16.1762 2.06933 15.3905 1.06371 14.2292 1.06371V3.06371C14.2087 3.06371 14.1895 3.05874 14.1754 3.05216C14.1623 3.0461 14.1579 3.04079 14.1589 3.04188C14.1617 3.04498 14.1762 3.06477 14.1762 3.10452H16.1762ZM14.2292 1.06371H3.77079V3.06371H14.2292V1.06371ZM3.77079 1.06371C2.60951 1.06371 1.8238 2.06933 1.8238 3.10452H3.8238C3.8238 3.06477 3.83831 3.04498 3.84113 3.04188C3.84213 3.04079 3.83768 3.0461 3.82466 3.05216C3.81054 3.05874 3.79133 3.06371 3.77079 3.06371V1.06371ZM1.8238 3.10452L1.82378 15.1467L3.82378 15.1467L3.8238 3.10452L1.8238 3.10452Z" fill="#6A7070" mask="url(#path-1-inside-1_2427_9224)"/>
<mask id="path-3-inside-2_2427_9224" fill="white">
<path d="M4.1281 17.599H3.79718C3.44696 17.5986 3.11119 17.4654 2.86355 17.2285C2.6159 16.9916 2.47659 16.6704 2.4762 16.3353V15.5592C2.4762 15.471 2.51283 15.3864 2.57803 15.324C2.64324 15.2616 2.73168 15.2266 2.82389 15.2266C2.91611 15.2266 3.00455 15.2616 3.06975 15.324C3.13496 15.3864 3.17159 15.471 3.17159 15.5592V16.3353C3.1718 16.494 3.23778 16.6461 3.35506 16.7583C3.47234 16.8704 3.63134 16.9335 3.79718 16.9337H4.1281C4.29395 16.9335 4.45296 16.8704 4.57024 16.7582C4.68752 16.6461 4.7535 16.4939 4.7537 16.3353V15.5592C4.7537 15.471 4.79034 15.3864 4.85554 15.324C4.92075 15.2616 5.00919 15.2266 5.1014 15.2266C5.19362 15.2266 5.28205 15.2616 5.34726 15.324C5.41247 15.3864 5.4491 15.471 5.4491 15.5592V16.3353C5.4487 16.6704 5.30939 16.9916 5.06174 17.2285C4.81409 17.4654 4.47832 17.5987 4.1281 17.599Z"/>
</mask>
<path d="M4.1281 17.599H3.79718C3.44696 17.5986 3.11119 17.4654 2.86355 17.2285C2.6159 16.9916 2.47659 16.6704 2.4762 16.3353V15.5592C2.4762 15.471 2.51283 15.3864 2.57803 15.324C2.64324 15.2616 2.73168 15.2266 2.82389 15.2266C2.91611 15.2266 3.00455 15.2616 3.06975 15.324C3.13496 15.3864 3.17159 15.471 3.17159 15.5592V16.3353C3.1718 16.494 3.23778 16.6461 3.35506 16.7583C3.47234 16.8704 3.63134 16.9335 3.79718 16.9337H4.1281C4.29395 16.9335 4.45296 16.8704 4.57024 16.7582C4.68752 16.6461 4.7535 16.4939 4.7537 16.3353V15.5592C4.7537 15.471 4.79034 15.3864 4.85554 15.324C4.92075 15.2616 5.00919 15.2266 5.1014 15.2266C5.19362 15.2266 5.28205 15.2616 5.34726 15.324C5.41247 15.3864 5.4491 15.471 5.4491 15.5592V16.3353C5.4487 16.6704 5.30939 16.9916 5.06174 17.2285C4.81409 17.4654 4.47832 17.5987 4.1281 17.599Z" fill="#6A7070"/>
<path d="M4.1281 17.599V18.599L4.12914 18.599L4.1281 17.599ZM3.79718 17.599L3.79613 18.599H3.79718V17.599ZM2.4762 16.3353H1.4762L1.4762 16.3365L2.4762 16.3353ZM2.4762 15.5592L1.4762 15.5592V15.5592H2.4762ZM3.17159 15.5592H4.17159V15.5592L3.17159 15.5592ZM3.17159 16.3353H2.17159L2.17159 16.3366L3.17159 16.3353ZM3.79718 16.9337L3.7961 17.9337H3.79718V16.9337ZM4.1281 16.9337V17.9337L4.12916 17.9337L4.1281 16.9337ZM4.7537 16.3353L5.7537 16.3365V16.3353H4.7537ZM5.4491 16.3353L6.4491 16.3365V16.3353H5.4491ZM4.1281 16.599H3.79718V18.599H4.1281V16.599ZM3.79823 16.599C3.69893 16.5989 3.61214 16.5607 3.55482 16.5059L2.17228 17.9511C2.61024 18.3701 3.19499 18.5984 3.79613 18.599L3.79823 16.599ZM3.55482 16.5059C3.49898 16.4525 3.47626 16.3897 3.4762 16.3341L1.4762 16.3365C1.47693 16.951 1.73281 17.5307 2.17228 17.9511L3.55482 16.5059ZM3.4762 16.3353V15.5592H1.4762V16.3353H3.4762ZM3.4762 15.5592C3.4762 15.7508 3.39621 15.9252 3.26932 16.0466L1.88675 14.6014C1.62945 14.8476 1.4762 15.1911 1.4762 15.5592L3.4762 15.5592ZM3.26932 16.0466C3.14393 16.1665 2.98296 16.2266 2.82389 16.2266V14.2266C2.4804 14.2266 2.14255 14.3567 1.88675 14.6014L3.26932 16.0466ZM2.82389 16.2266C2.66483 16.2266 2.50385 16.1665 2.37847 16.0466L3.76104 14.6014C3.50524 14.3567 3.16739 14.2266 2.82389 14.2266V16.2266ZM2.37847 16.0466C2.25158 15.9252 2.17159 15.7508 2.17159 15.5592L4.17159 15.5592C4.17159 15.1911 4.01834 14.8476 3.76104 14.6014L2.37847 16.0466ZM2.17159 15.5592V16.3353H4.17159V15.5592H2.17159ZM2.17159 16.3366C2.17218 16.7747 2.35475 17.1852 2.66383 17.4809L4.04629 16.0356C4.12082 16.1069 4.17143 16.2132 4.17159 16.334L2.17159 16.3366ZM2.66383 17.4809C2.97141 17.7751 3.37936 17.9333 3.7961 17.9337L3.79826 15.9337C3.88331 15.9338 3.97326 15.9658 4.04629 16.0356L2.66383 17.4809ZM3.79718 17.9337H4.1281V15.9337H3.79718V17.9337ZM4.12916 17.9337C4.54592 17.9333 4.95389 17.7751 5.26149 17.4809L3.879 16.0356C3.95203 15.9658 4.04199 15.9338 4.12705 15.9337L4.12916 17.9337ZM5.26149 17.4809C5.57058 17.1852 5.75315 16.7746 5.7537 16.3365L3.7537 16.334C3.75386 16.2132 3.80447 16.1069 3.879 16.0356L5.26149 17.4809ZM5.7537 16.3353V15.5592H3.7537V16.3353H5.7537ZM5.7537 15.5592C5.7537 15.7508 5.67372 15.9252 5.54682 16.0466L4.16426 14.6014C3.90695 14.8476 3.7537 15.1911 3.7537 15.5592H5.7537ZM5.54682 16.0466C5.42144 16.1665 5.26047 16.2266 5.1014 16.2266V14.2266C4.75791 14.2266 4.42005 14.3567 4.16426 14.6014L5.54682 16.0466ZM5.1014 16.2266C4.94233 16.2266 4.78136 16.1665 4.65598 16.0466L6.03854 14.6014C5.78275 14.3567 5.4449 14.2266 5.1014 14.2266V16.2266ZM4.65598 16.0466C4.52909 15.9252 4.4491 15.7508 4.4491 15.5592H6.4491C6.4491 15.1911 6.29584 14.8476 6.03854 14.6014L4.65598 16.0466ZM4.4491 15.5592V16.3353H6.4491V15.5592H4.4491ZM4.4491 16.3341C4.44903 16.3897 4.42631 16.4525 4.37048 16.5059L5.75301 17.9511C6.19247 17.5307 6.44837 16.951 6.4491 16.3365L4.4491 16.3341ZM4.37048 16.5059C4.31315 16.5607 4.22636 16.5989 4.12706 16.599L4.12914 18.599C4.73029 18.5984 5.31504 18.3701 5.75301 17.9511L4.37048 16.5059Z" fill="#6A7070" mask="url(#path-3-inside-2_2427_9224)"/>
<path d="M14.2031 17.599H13.8721C13.5219 17.5986 13.1861 17.4654 12.9385 17.2285C12.6908 16.9916 12.5515 16.6704 12.5511 16.3353V15.5592C12.5511 15.471 12.5878 15.3864 12.653 15.324C12.7182 15.2616 12.8066 15.2266 12.8988 15.2266C12.9911 15.2266 13.0795 15.2616 13.1447 15.324C13.2099 15.3864 13.2465 15.471 13.2465 15.5592V16.3353C13.2467 16.494 13.3127 16.6461 13.43 16.7583C13.5472 16.8705 13.7062 16.9336 13.8721 16.9337H14.2031C14.3689 16.9336 14.5279 16.8705 14.6452 16.7583C14.7624 16.6461 14.8284 16.494 14.8286 16.3353V15.5592C14.8286 15.471 14.8652 15.3864 14.9304 15.324C14.9956 15.2616 15.0841 15.2266 15.1763 15.2266C15.2685 15.2266 15.357 15.2616 15.4222 15.324C15.4874 15.3864 15.524 15.471 15.524 15.5592V16.3353C15.5236 16.6704 15.3843 16.9916 15.1367 17.2285C14.889 17.4654 14.5533 17.5986 14.2031 17.599Z" fill="#6A7070"/>
<path d="M11.7821 14.259H6.21806C6.12584 14.259 6.03741 14.224 5.9722 14.1616C5.90699 14.0992 5.87036 14.0146 5.87036 13.9264C5.87036 13.8382 5.90699 13.7536 5.9722 13.6912C6.03741 13.6288 6.12584 13.5938 6.21806 13.5938H11.7821C11.8743 13.5938 11.9628 13.6288 12.028 13.6912C12.0932 13.7536 12.1298 13.8382 12.1298 13.9264C12.1298 14.0146 12.0932 14.0992 12.028 14.1616C11.9628 14.224 11.8743 14.259 11.7821 14.259Z" fill="#6A7070"/>
<path d="M11.7821 12.9036H6.21806C6.12584 12.9036 6.03741 12.8685 5.9722 12.8061C5.90699 12.7437 5.87036 12.6591 5.87036 12.5709C5.87036 12.4827 5.90699 12.3981 5.9722 12.3357C6.03741 12.2733 6.12584 12.2383 6.21806 12.2383H11.7821C11.8743 12.2383 11.9628 12.2733 12.028 12.3357C12.0932 12.3981 12.1298 12.4827 12.1298 12.5709C12.1298 12.6591 12.0932 12.7437 12.028 12.8061C11.9628 12.8685 11.8743 12.9036 11.7821 12.9036Z" fill="#6A7070"/>
<path d="M15.5239 5.93871H2.47612C2.3839 5.93871 2.29546 5.90366 2.23026 5.84128C2.16505 5.7789 2.12842 5.69429 2.12842 5.60607C2.12842 5.51785 2.16505 5.43325 2.23026 5.37086C2.29546 5.30848 2.3839 5.27344 2.47612 5.27344H15.5239C15.6161 5.27344 15.7045 5.30848 15.7697 5.37086C15.8349 5.43325 15.8716 5.51785 15.8716 5.60607C15.8716 5.69429 15.8349 5.7789 15.7697 5.84128C15.7045 5.90366 15.6161 5.93871 15.5239 5.93871Z" fill="#6A7070"/>
<path d="M15.5239 11.2825H2.47612C2.3839 11.2825 2.29546 11.2474 2.23026 11.185C2.16505 11.1227 2.12842 11.038 2.12842 10.9498C2.12842 10.8616 2.16505 10.777 2.23026 10.7146C2.29546 10.6522 2.3839 10.6172 2.47612 10.6172H15.5239C15.6161 10.6172 15.7045 10.6522 15.7697 10.7146C15.8349 10.777 15.8716 10.8616 15.8716 10.9498C15.8716 11.038 15.8349 11.1227 15.7697 11.185C15.7045 11.2474 15.6161 11.2825 15.5239 11.2825Z" fill="#6A7070"/>
<path d="M9.01493 5.93766C8.96927 5.93767 8.92406 5.92907 8.88187 5.91235C8.83968 5.89564 8.80135 5.87113 8.76906 5.84025C8.73678 5.80936 8.71117 5.77269 8.69369 5.73233C8.67622 5.69197 8.66723 5.64871 8.66724 5.60503V1.73107C8.66724 1.64285 8.70387 1.55825 8.76907 1.49586C8.83428 1.43348 8.92272 1.39844 9.01493 1.39844C9.10715 1.39844 9.19559 1.43348 9.26079 1.49586C9.326 1.55825 9.36263 1.64285 9.36263 1.73107V5.60504C9.36264 5.64872 9.35364 5.69198 9.33617 5.73234C9.3187 5.77269 9.29309 5.80936 9.2608 5.84025C9.22851 5.87114 9.19018 5.89564 9.14799 5.91235C9.10581 5.92907 9.06059 5.93767 9.01493 5.93766Z" fill="#6A7070"/>
<path d="M5.10148 12.9036H4.65617C4.56395 12.9036 4.47552 12.8685 4.41031 12.8061C4.3451 12.7437 4.30847 12.6591 4.30847 12.5709C4.30847 12.4827 4.3451 12.3981 4.41031 12.3357C4.47552 12.2733 4.56395 12.2383 4.65617 12.2383H5.10148C5.1937 12.2383 5.28214 12.2733 5.34734 12.3357C5.41255 12.3981 5.44918 12.4827 5.44918 12.5709C5.44918 12.6591 5.41255 12.7437 5.34734 12.8061C5.28214 12.8685 5.1937 12.9036 5.10148 12.9036Z" fill="#6A7070"/>
<path d="M13.344 12.9036H12.8987C12.8065 12.9036 12.7181 12.8685 12.6529 12.8061C12.5877 12.7437 12.551 12.6591 12.551 12.5709C12.551 12.4827 12.5877 12.3981 12.6529 12.3357C12.7181 12.2733 12.8065 12.2383 12.8987 12.2383H13.344C13.4363 12.2383 13.5247 12.2733 13.5899 12.3357C13.6551 12.3981 13.6917 12.4827 13.6917 12.5709C13.6917 12.6591 13.6551 12.7437 13.5899 12.8061C13.5247 12.8685 13.4363 12.9036 13.344 12.9036Z" fill="#6A7070"/>
<path d="M1.24784 9.0995C1.20218 9.09951 1.15697 9.09091 1.11478 9.07419C1.07259 9.05748 1.03426 9.03298 1.00197 9.00209C0.969687 8.9712 0.944076 8.93453 0.926604 8.89417C0.909132 8.85381 0.900142 8.81055 0.900146 8.76687V6.33264C0.900146 6.24442 0.936779 6.15981 1.00198 6.09743C1.06719 6.03505 1.15563 6 1.24784 6C1.34006 6 1.4285 6.03505 1.4937 6.09743C1.55891 6.15981 1.59554 6.24442 1.59554 6.33264V8.76687C1.59555 8.81055 1.58656 8.85381 1.56908 8.89417C1.55161 8.93453 1.526 8.9712 1.49371 9.00209C1.46143 9.03298 1.42309 9.05748 1.38091 9.07419C1.33872 9.09091 1.29351 9.09951 1.24784 9.0995Z" fill="#6A7070"/>
<path d="M2.4762 8.69519C2.42784 8.69525 2.38 8.68564 2.33576 8.66697C2.29151 8.64831 2.25183 8.62101 2.21926 8.58681L0.990919 7.29916C0.960133 7.26689 0.936293 7.22913 0.920759 7.18805C0.905225 7.14696 0.898303 7.10335 0.900387 7.05971C0.90247 7.01606 0.913519 6.97324 0.932903 6.93368C0.952286 6.89412 0.979625 6.8586 1.01336 6.82914C1.04709 6.79969 1.08656 6.77688 1.1295 6.76202C1.17245 6.74716 1.21803 6.74054 1.26365 6.74253C1.30928 6.74453 1.35404 6.7551 1.39539 6.77364C1.43674 6.79219 1.47387 6.81834 1.50466 6.85061L2.733 8.13826C2.77847 8.18589 2.80848 8.24515 2.81937 8.30881C2.83027 8.37247 2.82158 8.43778 2.79437 8.4968C2.76715 8.55582 2.72258 8.606 2.66609 8.64122C2.6096 8.67643 2.54362 8.6952 2.4762 8.69519Z" fill="#6A7070"/>
<path d="M16.7522 9.0995C16.7066 9.09951 16.6614 9.09091 16.6192 9.07419C16.577 9.05748 16.5387 9.03298 16.5064 9.00209C16.4741 8.9712 16.4485 8.93453 16.431 8.89417C16.4135 8.85381 16.4045 8.81055 16.4045 8.76687V6.33264C16.4045 6.24442 16.4412 6.15981 16.5064 6.09743C16.5716 6.03505 16.66 6 16.7522 6C16.8445 6 16.9329 6.03505 16.9981 6.09743C17.0633 6.15981 17.0999 6.24442 17.0999 6.33264V8.76687C17.0999 8.81055 17.091 8.85381 17.0735 8.89417C17.056 8.93453 17.0304 8.9712 16.9981 9.00209C16.9658 9.03298 16.9275 9.05748 16.8853 9.07419C16.8431 9.09091 16.7979 9.09951 16.7522 9.0995Z" fill="#6A7070"/>
<path d="M15.5239 8.69516C15.4565 8.69518 15.3905 8.67643 15.334 8.64122C15.2775 8.606 15.2329 8.55582 15.2057 8.4968C15.1785 8.43778 15.1698 8.37247 15.1807 8.30881C15.1916 8.24515 15.2216 8.18589 15.2671 8.13826L16.4954 6.85061C16.5262 6.81834 16.5633 6.79219 16.6047 6.77364C16.6461 6.7551 16.6908 6.74453 16.7364 6.74253C16.7821 6.74054 16.8276 6.74716 16.8706 6.76202C16.9135 6.77688 16.953 6.79969 16.9867 6.82914C17.0205 6.8586 17.0478 6.89412 17.0672 6.93368C17.0866 6.97324 17.0976 7.01606 17.0997 7.05971C17.1018 7.10335 17.0949 7.14696 17.0793 7.18805C17.0638 7.22913 17.04 7.26689 17.0092 7.29916L15.7808 8.58681C15.7483 8.621 15.7086 8.6483 15.6643 8.66696C15.6201 8.68562 15.5723 8.69522 15.5239 8.69516Z" fill="#6A7070"/>
</svg>
