<svg width="68" height="74" viewBox="0 0 68 74" fill="none" xmlns="http://www.w3.org/2000/svg">
<path d="M33.4322 0.649123V68.7849C33.4322 68.9571 33.3633 69.1222 33.2407 69.2439C33.118 69.3657 32.9516 69.4341 32.7781 69.4341C32.6047 69.4341 32.4383 69.3657 32.3156 69.2439C32.193 69.1222 32.124 68.9571 32.124 68.7849V0.649123C32.124 0.476965 32.193 0.311858 32.3156 0.190124C32.4383 0.0683896 32.6047 0 32.7781 0C32.9516 0 33.118 0.0683896 33.2407 0.190124C33.3633 0.311858 33.4322 0.476965 33.4322 0.649123ZM12.3755 34.4165V36.6235H29.369V34.4165H12.3755ZM12.3755 37.9217V40.1288H29.369V37.9217H12.3755ZM4.14698 24.5888V26.7958H29.369V24.5888H4.14698ZM4.14698 28.094V30.2881H29.369V28.094H4.14698ZM18.2232 18.2533V20.4603H29.369V18.2533H18.2232ZM18.2232 14.7481V16.9551H29.369V14.7481H18.2232ZM0 4.92035V7.12737H29.369V4.92035H0ZM0 8.42561V10.6326H29.369V8.42561H0ZM36.1847 34.4165V40.1288H51.4382V34.4165H36.1847ZM52.7464 34.4165V40.1288H68V34.4165H52.7464ZM46.0092 24.5888V30.2881H54.5125V24.5888H46.0092ZM36.1847 24.5888V30.2881H44.701V24.5888H36.1847ZM36.1847 14.7481V20.4603H39.7822V14.7481H36.1847ZM41.0904 14.7481V20.4603H44.701V14.7481H41.0904ZM49.6591 4.92035V10.6326H61.8122V4.92035H49.6591ZM36.1847 4.92035V10.6326H48.3509V4.92035H36.1847ZM59.8499 57.3046L56.4486 51.4495C56.1942 51.0275 55.7838 50.7207 55.3049 50.5946C54.8259 50.4685 54.3163 50.533 53.8846 50.7744C53.8453 50.7882 53.8096 50.8103 53.7799 50.8393C53.7416 50.8286 53.7019 50.8242 53.6622 50.8263H52.7857C53.6971 50.6565 54.5119 50.1551 55.0703 49.4203C55.6287 48.6855 55.8906 47.7703 55.8047 46.854C55.7187 45.9376 55.2912 45.0861 54.6057 44.4662C53.9202 43.8463 53.0263 43.5027 52.0989 43.5027C51.1715 43.5027 50.2775 43.8463 49.5921 44.4662C48.9066 45.0861 48.479 45.9376 48.3931 46.854C48.3071 47.7703 48.569 48.6855 49.1275 49.4203C49.6859 50.1551 50.5006 50.6565 51.4121 50.8263H50.5356C50.4872 50.8242 50.4388 50.8285 50.3917 50.8393C50.3645 50.8134 50.3336 50.7915 50.3001 50.7744C49.8691 50.53 49.3584 50.4638 48.8786 50.5901C48.3988 50.7165 47.9883 51.0252 47.736 51.4495L44.3347 57.2916C44.175 57.5778 44.0895 57.8991 44.0862 58.2263C44.085 58.6357 44.2201 59.0339 44.4705 59.3592C44.7209 59.6845 45.0725 59.9187 45.4708 60.0252C45.8691 60.1318 46.2916 60.1049 46.6729 59.9486C47.0541 59.7923 47.3727 59.5155 47.5791 59.161L48.4817 57.6031V62.8351C48.4791 62.9046 48.4835 62.9742 48.4948 63.0428L47.3043 66.9375C47.2789 67.0367 47.2751 67.1401 47.2931 67.2409C47.3112 67.3416 47.3507 67.4374 47.409 67.5217C47.4704 67.6018 47.5495 67.6669 47.6402 67.7119C47.7309 67.7569 47.8309 67.7807 47.9323 67.7814H49.319V71.8709C49.3181 72.1507 49.373 72.428 49.4805 72.6867C49.588 72.9454 49.746 73.1804 49.9454 73.3783C50.1448 73.5762 50.3817 73.733 50.6424 73.8397C50.903 73.9464 51.1824 74.0008 51.4644 74H52.7334C53.3022 73.9996 53.8478 73.7752 54.25 73.376C54.6523 72.9768 54.8784 72.4354 54.8788 71.8709V67.7814H56.2524C56.3554 67.7794 56.4568 67.7551 56.5494 67.7103C56.6421 67.6655 56.7237 67.6011 56.7888 67.5217C56.8481 67.4379 56.8873 67.3415 56.9032 67.2402C56.919 67.1389 56.9112 67.0354 56.8803 66.9375L55.703 63.0428C55.703 62.9779 55.716 62.9 55.716 62.8351V57.6161L56.6056 59.161C56.855 59.5883 57.2645 59.9005 57.7448 60.0293C58.2251 60.1582 58.7373 60.0934 59.1697 59.8491C59.5989 59.6003 59.9134 59.195 60.0462 58.7196C60.1664 58.2404 60.0962 57.7337 59.8499 57.3046ZM21.7945 57.3175L18.3932 51.4495C18.138 51.0248 17.7252 50.7162 17.2435 50.59C16.7617 50.4638 16.2493 50.53 15.8161 50.7744C15.7899 50.7874 15.7638 50.8133 15.7245 50.8393C15.6862 50.8286 15.6465 50.8242 15.6068 50.8263H14.7172C15.6278 50.658 16.4421 50.1582 17.0007 49.425C17.5592 48.6918 17.8216 47.7779 17.7365 46.8626C17.6513 45.9474 17.2247 45.0967 16.5404 44.4773C15.856 43.8579 14.9632 43.5146 14.0369 43.5146C13.1107 43.5146 12.2179 43.8579 11.5335 44.4773C10.8491 45.0967 10.4226 45.9474 10.3374 46.8626C10.2522 47.7779 10.5147 48.6918 11.0732 49.425C11.6317 50.1582 12.4461 50.658 13.3567 50.8263H12.4802C12.4318 50.8242 12.3834 50.8285 12.3363 50.8393C12.3066 50.8103 12.2709 50.7882 12.2316 50.7744C12.0178 50.6523 11.7817 50.5733 11.537 50.5421C11.2922 50.5109 11.0437 50.5281 10.8057 50.5926C10.5694 50.6563 10.3483 50.766 10.1551 50.9154C9.96195 51.0647 9.80067 51.2507 9.68064 51.4624L6.29242 57.2916C6.12436 57.5751 6.03414 57.8974 6.03078 58.2263C6.03176 58.6346 6.16804 59.0312 6.41861 59.355C6.66918 59.6788 7.02012 59.9118 7.41733 60.0181C7.81454 60.1244 8.23596 60.0981 8.6166 59.9432C8.99725 59.7883 9.31598 59.5135 9.52366 59.161L10.4263 57.6161V62.8351C10.422 62.9396 10.4308 63.0443 10.4525 63.1467V67.1323C10.4525 67.3044 10.5214 67.4695 10.6441 67.5913C10.7667 67.713 10.9331 67.7814 11.1066 67.7814H11.2636V71.8709C11.2622 72.1498 11.3163 72.4262 11.4228 72.6843C11.5293 72.9424 11.6861 73.177 11.8842 73.3748C12.0824 73.5727 12.3179 73.7297 12.5773 73.837C12.8367 73.9443 13.1149 73.9996 13.3959 74H14.678C14.9599 74.0008 15.2393 73.9464 15.5 73.8397C15.7607 73.733 15.9975 73.5762 16.1969 73.3783C16.3963 73.1804 16.5543 72.9454 16.6618 72.6867C16.7694 72.428 16.8243 72.1507 16.8234 71.8709V67.7814H16.9804C17.153 67.7787 17.3178 67.7095 17.4399 67.5883C17.562 67.4671 17.6318 67.3036 17.6345 67.1323V63.1467C17.6497 63.0434 17.6584 62.9394 17.6606 62.8351V57.6161L18.5633 59.174C18.8171 59.5931 19.2251 59.8978 19.7011 60.0238C20.1772 60.1497 20.6839 60.0871 21.1143 59.8491H21.1274C21.5536 59.6008 21.8633 59.1948 21.9883 58.7202C22.1134 58.2456 22.0437 57.7412 21.7945 57.3175Z" fill="#1F8297"/>
</svg>
