<svg width="96" height="115" viewBox="0 0 96 115" fill="none" xmlns="http://www.w3.org/2000/svg">
<path d="M90.3941 22.0911V17.9217L86.1588 17.4546C85.9227 16.548 85.5623 15.6922 85.0993 14.9038L87.7655 11.5767L84.8169 8.62827L81.4894 11.2941C80.7006 10.8311 79.8447 10.4708 78.9382 10.2347L78.471 6H74.301L73.8338 10.2347C72.9271 10.4708 72.0711 10.8311 71.2826 11.2941L67.9546 8.62827L65.006 11.5764L67.6722 14.9035C67.2091 15.6922 66.8487 16.548 66.6126 17.4543L62.3773 17.9215V22.0908L66.6126 22.558C66.8487 23.4646 67.2091 24.3204 67.6722 25.1088L65.006 28.4359L67.9546 31.384L71.2821 28.7182C72.0708 29.1812 72.9268 29.5415 73.8332 29.7776L74.3005 34.0123H78.4704L78.9377 29.7776C79.8444 29.5415 80.7003 29.1812 81.4888 28.7182L84.8164 31.384L87.765 28.4359L85.0988 25.1088C85.5618 24.3202 85.9222 23.4643 86.1583 22.558L90.3941 22.0911ZM76.3857 26.233C72.9464 26.233 70.1583 23.4453 70.1583 20.0064C70.1583 16.5675 72.9464 13.7798 76.3857 13.7798C79.8251 13.7798 82.6132 16.5675 82.6132 20.0064C82.6132 23.4453 79.8251 26.233 76.3857 26.233Z" stroke="#003940" stroke-miterlimit="10" stroke-linecap="round" stroke-linejoin="round"/>
<path d="M10.9756 88.468L9.63179 90.145L13.6973 94.2097L18.2851 90.5342C19.3724 91.1724 20.5525 91.6692 21.8027 91.9946L22.4471 97.8334H28.1965L28.8409 91.9946C30.0908 91.6692 31.2709 91.1721 32.3585 90.5342L36.9463 94.2097L41.0115 90.145L37.3355 85.5579C37.9738 84.4707 38.4707 83.2908 38.7962 82.0407L44.6357 81.3964V75.6481L38.7962 75.0038C38.4707 73.7541 37.9736 72.5741 37.3355 71.4867L41.0113 66.8996L36.946 62.8349L32.3583 66.5104C31.2709 65.8722 30.0908 65.3754 28.8406 65.0497L28.1962 59.2109H22.4468L21.8024 65.0497C20.5525 65.3751 19.3724 65.8722 18.2848 66.5104L16.7543 65.2842M15.7077 64.4458L13.697 62.8349L9.63152 66.8996L13.3075 71.4867C12.6692 72.5738 12.1724 73.7538 11.8466 75.0038L6.00732 75.6481V81.3967L11.8469 82.041C12.1724 83.2908 12.6695 84.4707 13.3078 85.5581L12.0513 87.126M27.7641 86.7548C26.9899 86.984 26.1699 87.1072 25.3214 87.1072C20.5795 87.1072 16.7353 83.2635 16.7353 78.5223C16.7353 73.781 20.5795 69.9374 25.3214 69.9374C30.0633 69.9374 33.9075 73.781 33.9075 78.5223C33.9075 81.9133 31.941 84.8454 29.086 86.2403" stroke="#003940" stroke-miterlimit="10" stroke-linecap="round" stroke-linejoin="round"/>
<path d="M70.085 97.9716V93.326L65.3658 92.8054C65.1027 91.7955 64.701 90.8418 64.1854 89.9633L67.1559 86.2563L63.8705 82.9713L60.163 85.9417C59.2843 85.4259 58.3305 85.0243 57.3204 84.7612L56.7998 80.043H52.1536L51.6329 84.7612C50.6228 85.0243 49.669 85.4259 48.7904 85.9417L45.0829 82.9713L41.7977 86.2563L44.7682 89.9633C44.2523 90.8418 43.8509 91.7955 43.5878 92.8054L38.8689 93.326V97.9716L43.5878 98.4921C43.8509 99.5021 44.2526 100.456 44.7682 101.334L41.7977 105.041L45.0829 108.326L48.7904 105.356C49.669 105.872 50.6228 106.273 51.6329 106.536L52.1536 111.255H56.7998L57.3204 106.536C58.3305 106.273 59.2843 105.872 60.163 105.356L63.8705 108.326L67.1559 105.041L64.1854 101.334C64.7013 100.456 65.1027 99.5021 65.3658 98.4921L70.085 97.9716ZM54.4768 102.586C50.6448 102.586 47.538 99.4804 47.538 95.6487C47.538 91.8172 50.6445 88.7109 54.4768 88.7109C58.3088 88.7109 61.4156 91.8169 61.4156 95.6487C61.4156 99.4804 58.3088 102.586 54.4768 102.586Z" stroke="#003940" stroke-miterlimit="10" stroke-linecap="round" stroke-linejoin="round"/>
<path d="M49.3618 17C43.9527 22.0421 30.107 27.1309 13.9644 37.9289C13.9644 37.9289 14.973 74.4171 49.3618 94.3615V17Z" fill="#98C6CF" stroke="#69ABB9" stroke-miterlimit="10" stroke-linecap="round" stroke-linejoin="round"/>
<path d="M49.3622 17C54.7713 22.0421 68.6169 27.1309 84.7596 37.9289C84.7596 37.9289 83.7513 74.4171 49.3622 94.3615V17Z" fill="#69ABB9" stroke="#69ABB9" stroke-miterlimit="10" stroke-linecap="round" stroke-linejoin="round"/>
<path d="M49.3621 20.1094C42.8328 24.6411 31.5194 28.9589 16.5609 38.9649C16.5609 38.9649 17.4954 72.777 49.3621 91.2586C81.2289 72.777 82.1632 38.9649 82.1632 38.9649C67.2048 28.9589 55.9417 24.6411 49.3621 20.1094Z" fill="#98C6CF" stroke="#69ABB9" stroke-miterlimit="10" stroke-linecap="round" stroke-linejoin="round"/>
<path d="M27.0981 70.1148C31.9493 77.6569 39.0276 85.2628 49.3619 91.2562C66.5493 81.288 74.7359 66.8621 78.6333 55.685C54.6708 47.5215 36.2999 60.8766 27.0981 70.1148Z" fill="#69ABB9" stroke="#69ABB9" stroke-miterlimit="10" stroke-linecap="round" stroke-linejoin="round"/>
<path d="M67.1872 47.7024H54.7093V35.2266H44.0143V47.7024H31.5366V58.3963H44.0143V70.8721H54.7093V58.3963H67.1872V47.7024Z" fill="white" stroke="#69ABB9" stroke-miterlimit="10" stroke-linecap="round" stroke-linejoin="round"/>
<path d="M67.1873 53.2858C57.8935 52.5555 49.7029 54.9017 42.8844 58.3986H44.0143V70.8744H54.7094V58.3986H67.187V53.2858H67.1873Z" fill="#E9F3F5"/>
<path d="M67.1872 47.7024H54.7093V35.2266H44.0143V47.7024H31.5366V58.3963H44.0143V70.8721H54.7093V58.3963H67.1872V47.7024Z" stroke="#69ABB9" stroke-miterlimit="10" stroke-linecap="round" stroke-linejoin="round"/>
</svg>
