<svg width="115" height="114" viewBox="0 0 115 114" fill="none" xmlns="http://www.w3.org/2000/svg">
<g clip-path="url(#clip0_1834_10242)">
<path d="M97.7965 22.828C97.7381 23.7246 97.688 24.2214 97.688 24.2214L101.12 22.3987C100.923 22.0609 100.726 21.723 100.518 21.3828L97.7965 22.828Z" fill="#B0BABA"/>
<path d="M110.141 17.6253L113.8 15.9629C113.8 15.9629 113.356 15.6966 112.58 15.2617L109.096 16.8445C109.096 16.8445 123.822 39.4087 102 63.362C98.9272 68.2194 95.8325 70.956 95.8325 70.956C127.784 44.6577 110.141 17.6253 110.141 17.6253Z" fill="#B0BABA"/>
<path d="M18.3572 63.6992L17.2036 64.3119C17.0476 66.706 16.8321 71.9714 17.3499 78.3932C11.1587 76.5821 4.97166 73.3085 2.42011 71.8788L2.24524 71.9582C2.24524 71.9582 10.3205 76.8119 18.395 79.1739C17.6835 70.3471 18.3572 63.6992 18.3572 63.6992Z" fill="#B0BABA"/>
<path d="M13.4373 64.9721L13.8801 64.7369C-2.34016 36.8886 20.2128 16.9609 20.2128 16.9609C17.4528 19.2325 15.0633 21.5096 13.0001 23.7742C7.67627 32.1902 2.41846 46.9785 13.4373 64.9721Z" fill="#B0BABA"/>
<path d="M73.3927 40.2168H73.4604C73.2893 35.3974 72.6969 30.7728 71.6955 26.4453C67.9052 27.043 63.9409 27.4036 59.8804 27.5203V28.9702C63.9409 28.8535 67.9052 28.4929 71.6955 27.8952C72.596 31.7865 73.1627 35.9194 73.3927 40.2168Z" fill="#B0BABA"/>
<path d="M19.975 47.4851H29.8362C29.946 48.0395 30.1474 48.5609 30.4197 49.0359C30.7226 48.9267 31.0305 48.8301 31.3447 48.7574C31.3086 48.7233 31.2695 48.6922 31.2345 48.657C30.5347 47.9575 30.0367 47.0481 29.8362 46.0352H19.8322C19.8694 46.5203 19.9191 47.0033 19.975 47.4851Z" fill="#B0BABA"/>
<path d="M51.5923 70.6316L51.6196 70.6314L51.6921 70.6298L51.7023 70.6294C51.7073 72.4869 51.7092 74.3599 51.7096 76.1098C51.7096 75.8187 51.7098 75.5237 51.7098 75.2229C51.7098 73.3189 51.7078 71.2354 51.7024 69.1794L51.6922 69.1798L51.6197 69.1814L51.5924 69.1817C51.1461 69.1819 50.7207 69.0721 50.3453 68.8789C50.3449 69.4727 50.3446 70.0702 50.3446 70.6688C50.3446 70.9873 50.3447 71.3056 50.3448 71.6232C50.3449 71.1908 50.345 70.7581 50.3453 70.3287C50.7207 70.5221 51.1461 70.632 51.5923 70.6316Z" fill="#B0BABA"/>
<path d="M36.2617 26.7125C36.3573 26.2514 36.4535 25.7906 36.5574 25.3351C32.7437 24.4401 29.301 23.307 26.2938 21.957C22.5554 27.3782 20.3377 33.6469 19.8322 40.218H19.975C20.6764 34.1763 22.8314 28.4278 26.2938 23.407C29.2223 24.7215 32.5667 25.8287 36.2617 26.7125Z" fill="#B0BABA"/>
<path d="M42.2607 27.8952C46.0509 28.4929 50.0145 28.8538 54.0747 28.9702V27.5203C50.0146 27.4039 46.0509 27.043 42.2607 26.4453C42.1354 26.9853 42.0179 27.5224 41.9096 28.0523C41.1211 31.9089 40.6465 35.995 40.4965 40.2167H40.5622C40.761 36.509 41.2117 32.9154 41.9097 29.5022C42.0179 28.9724 42.1354 28.4352 42.2607 27.8952Z" fill="#B0BABA"/>
<path d="M68.2919 40.1139C68.3102 39.9831 68.3191 39.8527 68.319 39.7236C68.319 39.4969 68.2891 39.2758 68.2372 39.0625L68.0786 40.217H68.2777L68.2919 40.1139Z" fill="#B0BABA"/>
<path d="M46.8745 40.1171L46.8739 40.1123L46.8883 40.2175H47.0875L46.9288 39.0625C46.8769 39.2759 46.8469 39.497 46.8469 39.7239C46.8469 39.8526 46.8557 39.9842 46.8745 40.1171Z" fill="#B0BABA"/>
<path d="M29.006 75.9106L28.9455 75.8595C28.913 75.832 28.8805 75.8048 28.8476 75.7764C28.5547 75.5234 28.2656 75.2664 27.9883 75.0134L27.9285 74.9581L27.9017 74.933C27.6545 74.7063 27.4089 74.4759 27.171 74.2473C27.1132 74.1917 27.0561 74.1358 26.9991 74.0796L26.913 73.9949L26.7968 73.8822C26.7058 73.7939 26.615 73.7056 26.5252 73.6157C26.4935 73.584 26.4624 73.5518 26.4312 73.5194L26.3736 73.4601C26.2854 73.371 26.1982 73.2811 26.1109 73.1913L26.0846 73.1641C25.9147 72.989 25.7462 72.8124 25.5794 72.6348C25.4877 72.5368 25.3961 72.4386 25.305 72.3397C25.1334 72.1533 24.9637 71.9648 24.7951 71.7753L24.7329 71.7053C24.6719 71.6365 24.611 71.5681 24.5502 71.4991C24.3646 71.2864 24.1816 71.0713 23.9999 70.8549L23.932 70.7745C23.8942 70.7301 23.8566 70.6856 23.8191 70.6403C23.6197 70.3995 23.4137 70.1447 23.1892 69.8605L23.1621 69.8272L23.1031 69.7538L23.0506 69.6823C20.1529 65.9757 17.896 61.8541 16.3419 57.431C14.8087 53.0677 13.9958 48.5016 13.9196 43.8477C13.9156 44.0891 13.9121 44.3307 13.9121 44.5726C13.9117 49.4773 14.7292 54.2913 16.3419 58.881C17.8959 63.3041 20.1528 67.4256 23.0506 71.1322L23.1031 71.2037L23.1621 71.277L23.1892 71.3103C23.4138 71.5945 23.6197 71.8494 23.8191 72.0902C23.8566 72.1354 23.8942 72.18 23.932 72.2243L23.9999 72.3047C24.1816 72.5211 24.3645 72.7362 24.5502 72.9489C24.611 73.0179 24.6719 73.0863 24.7329 73.1551L24.7951 73.2251C24.9637 73.4145 25.1334 73.6031 25.305 73.7895C25.3962 73.8885 25.4877 73.9866 25.5794 74.0846C25.7462 74.2622 25.9147 74.4388 26.0846 74.6138L26.1109 74.6411C26.1982 74.7309 26.2854 74.8208 26.3736 74.9099L26.4312 74.9692C26.4624 75.0016 26.4935 75.0337 26.5252 75.0655C26.6151 75.1553 26.7059 75.2436 26.7968 75.332L26.913 75.4447L26.9991 75.5293C27.0561 75.5856 27.1132 75.6414 27.171 75.6971C27.4089 75.9256 27.6545 76.156 27.9017 76.3828L27.9285 76.4078L27.9883 76.4631C28.2656 76.7161 28.5547 76.9731 28.8476 77.2261C28.8805 77.2546 28.913 77.2818 28.9455 77.3092L29.006 77.3603C29.0414 77.3905 29.0776 77.4198 29.113 77.45C29.1133 76.9835 29.1136 76.4995 29.1136 76.0006C29.0779 75.9704 29.0416 75.9409 29.006 75.9106Z" fill="#B0BABA"/>
<path d="M62.2718 7.94807C61.4853 7.30664 60.6812 6.80251 59.8804 6.44922V7.89915C60.6813 8.25238 61.4853 8.75657 62.2718 9.39793C63.8016 10.6443 65.2544 12.3922 66.5904 14.593C67.7059 16.4274 68.7103 18.5356 69.5931 20.8787C69.7593 20.8551 69.9266 20.8331 70.0921 20.8086C69.0964 17.905 67.9212 15.3315 66.5904 13.143C65.2544 10.9424 63.8016 9.19447 62.2718 7.94807Z" fill="#B0BABA"/>
<path d="M47.4475 13.0068C46.435 14.6525 45.5014 16.5407 44.6728 18.6182C44.3943 19.3159 44.1237 20.0486 43.8636 20.8082C44.0288 20.8328 44.1959 20.8547 44.3618 20.8783C44.4646 20.605 44.5676 20.3318 44.6728 20.0682C45.5014 17.9906 46.4349 16.1025 47.4475 14.4567C48.9027 12.0882 50.5545 10.1943 52.2247 8.97966C52.8356 8.53442 53.4555 8.17266 54.0746 7.89915V6.44922C53.4556 6.72267 52.8356 7.08449 52.2247 7.52973C50.5546 8.74428 48.9027 10.6383 47.4475 13.0068Z" fill="#B0BABA"/>
<path d="M66.6377 96.5963C62.6092 96.7392 54.3614 96.6389 50.3812 97.2782C47.6533 97.7162 44.8642 99.2601 43.4115 101.487H23.3753C23.3612 101.078 23.3538 100.679 23.3485 100.283C23.3367 101.137 23.3437 102.019 23.3753 102.937H43.4115C44.8642 100.71 47.6533 99.166 50.3812 98.728C54.3614 98.0888 62.6092 98.1891 66.6377 98.0461C77.2989 97.6679 91.277 81.2727 92.2203 80.1877C92.7616 79.5651 92.8103 78.8632 92.5505 78.2266C92.4727 78.4007 92.3643 78.5721 92.2203 78.7378C91.277 79.8229 77.2989 96.2179 66.6377 96.5963Z" fill="#B0BABA"/>
<path d="M31.7256 17.1433L31.8149 17.0596C31.8471 17.0294 31.8793 16.9991 31.912 16.9695C32.1406 16.7611 32.3805 16.5484 32.6247 16.337C32.6732 16.2948 32.7225 16.2536 32.7717 16.2123L32.8792 16.1215C33.0406 15.9844 33.2025 15.8471 33.3667 15.7124C33.4407 15.6516 33.5161 15.5911 33.5914 15.5305L33.6802 15.4594C33.8283 15.3405 33.977 15.2217 34.1271 15.1049C34.2376 15.0187 34.3486 14.9338 34.46 14.8491C34.6089 14.7357 34.7585 14.6239 34.9089 14.5127C35.0208 14.4305 35.1331 14.3483 35.2459 14.2667C35.4024 14.1539 35.5607 14.0427 35.7194 13.9321L35.7972 13.8777C35.8786 13.8209 35.9601 13.7641 36.0424 13.7078C36.2224 13.585 36.4043 13.4652 36.5865 13.3454L36.7013 13.2697C36.7516 13.236 36.8017 13.2027 36.8524 13.17C37.1333 12.9891 37.4093 12.8161 37.6728 12.656L37.7354 12.6191L37.8151 12.572C38.0476 12.4321 38.2809 12.2943 38.5162 12.1595C38.574 12.1265 38.6324 12.0938 38.6909 12.0614L38.8056 11.9975C38.9943 11.8918 39.1845 11.7861 39.3763 11.6831C39.4677 11.6338 39.5598 11.5855 39.6518 11.5373L39.7011 11.5114C39.8852 11.4148 40.0701 11.3192 40.2558 11.2257C40.3663 11.17 40.4768 11.1147 40.5877 11.0603C40.7789 10.9665 40.9714 10.8743 41.1648 10.7835L41.226 10.7548C41.3102 10.715 41.3944 10.6753 41.4791 10.6365C41.692 10.5387 41.9062 10.444 42.1209 10.3505L42.2304 10.3022C42.2617 10.2884 42.293 10.2747 42.3244 10.2612C42.3514 10.2161 42.3773 10.1688 42.4045 10.124C42.7927 9.48567 43.1929 8.87335 43.6041 8.28906C43.5009 8.32876 43.4004 8.3679 43.3032 8.40641L43.2748 8.41801C42.9893 8.53109 42.6886 8.65515 42.3809 8.78655C42.3305 8.80793 42.2805 8.83026 42.2304 8.85228L42.1209 8.90057C41.9062 8.99408 41.692 9.08879 41.4791 9.18656C41.3944 9.22539 41.3102 9.26509 41.226 9.30479L41.1648 9.33351C40.9715 9.42427 40.7789 9.51653 40.5877 9.61035C40.4768 9.66479 40.3663 9.72005 40.2558 9.77568C40.07 9.86919 39.8852 9.96484 39.7011 10.0614L39.6518 10.0874C39.5598 10.1357 39.4677 10.184 39.3763 10.2331C39.1845 10.3361 38.9943 10.4419 38.8056 10.5476L38.6909 10.6115C38.6324 10.6438 38.574 10.6766 38.5162 10.7096C38.2809 10.8443 38.0476 10.9821 37.8151 11.1221L37.7354 11.1692L37.6728 11.2062C37.4093 11.3663 37.1333 11.5392 36.8524 11.7201C36.8017 11.7528 36.7516 11.7861 36.7013 11.8197L36.5865 11.8955C36.4043 12.0153 36.2224 12.1351 36.0424 12.2579C35.9601 12.3141 35.8786 12.371 35.7972 12.4278L35.7194 12.4822C35.5607 12.5929 35.4024 12.7041 35.2459 12.8168C35.133 12.8984 35.0207 12.9807 34.9089 13.0628C34.7585 13.1741 34.6089 13.2859 34.46 13.3992C34.3486 13.4839 34.2375 13.5688 34.1271 13.655C33.977 13.7717 33.8283 13.8906 33.6802 14.0094L33.5914 14.0806C33.5161 14.1411 33.4407 14.2016 33.3667 14.2624C33.2025 14.3972 33.0406 14.5344 32.8792 14.6716L32.7717 14.7624C32.7225 14.8036 32.6732 14.8449 32.6247 14.8871C32.3805 15.0985 32.1406 15.3112 31.912 15.5196C31.8794 15.5492 31.8472 15.5795 31.8149 15.6097L31.7256 15.6934C31.5491 15.8563 31.3731 16.0201 31.1996 16.1866C31.145 16.2388 31.0912 16.292 31.0372 16.3452L30.9493 16.4314C30.7995 16.578 30.6503 16.725 30.5028 16.8738C30.4232 16.9545 30.3445 17.0358 30.2656 17.1171L30.2353 17.1486C30.1965 17.1886 30.1577 17.2286 30.119 17.2689C30.4607 17.4063 30.81 17.5402 31.1634 17.6719C31.1756 17.6601 31.1875 17.6482 31.1998 17.6365C31.3731 17.47 31.5491 17.3062 31.7256 17.1433Z" fill="#B0BABA"/>
<path d="M48.1301 48.7453C48.2575 48.7737 48.3853 48.7996 48.5113 48.834C48.6829 48.8814 48.853 48.9359 49.0216 48.9952C48.9089 48.6921 48.7984 48.3948 48.6941 48.1133C48.5235 48.3397 48.3351 48.5507 48.1301 48.7453Z" fill="#B0BABA"/>
<path d="M83.7009 17.1289C83.6182 17.0434 83.5355 16.9581 83.4516 16.8732C83.3044 16.7243 83.1552 16.5773 83.0061 16.4316L82.9164 16.3436C82.8629 16.2908 82.8093 16.2382 82.755 16.186C82.5817 16.0197 82.4059 15.8559 82.2286 15.6921L82.1396 15.609C82.1076 15.5791 82.0754 15.5488 82.0434 15.5195C81.8133 15.3099 81.5734 15.0969 81.3309 14.8873C81.2815 14.8445 81.2313 14.8024 81.1814 14.7602L81.0746 14.6704C80.9134 14.5334 80.752 14.3966 80.5891 14.2627C80.5107 14.1983 80.4315 14.1351 80.3523 14.0715L80.2745 14.0091C80.1264 13.89 79.9781 13.7714 79.8279 13.6547C79.7174 13.5685 79.6062 13.4835 79.4944 13.3986C79.346 13.2855 79.1964 13.1737 79.0463 13.0628C78.9343 12.9803 78.822 12.8977 78.709 12.8165C78.5524 12.7037 78.3945 12.5928 78.2363 12.4825L78.1562 12.4262C78.075 12.3697 77.9941 12.3131 77.9123 12.2573C77.7329 12.135 77.5516 12.0155 77.3694 11.8958L77.259 11.8227C77.2069 11.7883 77.1552 11.7537 77.1024 11.7198C76.8229 11.5398 76.547 11.3672 76.2826 11.2061L76.2171 11.1673L76.1351 11.119C75.9047 10.9803 75.6731 10.8433 75.4395 10.7095C75.3785 10.6747 75.3168 10.6404 75.2554 10.6062L75.1475 10.5463C74.9591 10.4406 74.7702 10.3354 74.5794 10.2331C74.4904 10.1852 74.4009 10.1381 74.3114 10.091L74.2526 10.0605C74.0694 9.96421 73.8852 9.86919 73.6997 9.77568C73.5888 9.71948 73.4775 9.66417 73.3662 9.60948C73.1756 9.51596 72.9841 9.42427 72.792 9.33383L72.7247 9.30234C72.6418 9.26321 72.5589 9.22413 72.4753 9.18594C72.2638 9.08879 72.0508 8.99465 71.8374 8.90145L71.7269 8.85284C71.6758 8.83026 71.6247 8.80762 71.5732 8.7856C71.2606 8.65239 70.9707 8.53291 70.6848 8.41952L70.6604 8.40942C70.5585 8.36909 70.4556 8.32908 70.3511 8.28906C70.7272 8.82317 71.094 9.38087 71.451 9.96082C71.5114 10.059 71.5704 10.1609 71.6304 10.2606C71.6625 10.2746 71.6947 10.2886 71.7269 10.3028L71.8374 10.3514C72.0508 10.4446 72.2638 10.5387 72.4753 10.6359C72.5589 10.6741 72.6418 10.7131 72.7247 10.7523L72.792 10.7838C72.9841 10.8742 73.1756 10.9659 73.3662 11.0594C73.4776 11.1141 73.5888 11.1694 73.6997 11.2256C73.8852 11.3191 74.0694 11.4141 74.2526 11.5104L74.3114 11.541C74.4009 11.588 74.4904 11.6351 74.5794 11.6831C74.7702 11.7854 74.9591 11.8905 75.1475 11.9963L75.2554 12.0562C75.3169 12.0904 75.3785 12.1247 75.4395 12.1595C75.6731 12.2933 75.9047 12.4302 76.1351 12.569L76.2171 12.6173L76.2826 12.6561C76.5471 12.8172 76.8229 12.9898 77.1024 13.1698C77.1552 13.2037 77.2069 13.2382 77.259 13.2727L77.3694 13.3457C77.5516 13.4655 77.7329 13.585 77.9123 13.7073C77.9941 13.7632 78.075 13.8197 78.1562 13.8762L78.2363 13.9324C78.3945 14.0427 78.5524 14.1537 78.709 14.2664C78.822 14.3477 78.9343 14.4301 79.0463 14.5127C79.1965 14.6236 79.346 14.7355 79.4944 14.8485C79.6063 14.9335 79.7175 15.0184 79.8279 15.1046C79.9781 15.2213 80.1264 15.3399 80.2745 15.459L80.3523 15.5214C80.4315 15.585 80.5107 15.6482 80.5891 15.7127C80.752 15.8465 80.9135 15.9834 81.0746 16.1203L81.1814 16.2101C81.2314 16.2522 81.2815 16.2944 81.3309 16.3372C81.5734 16.5468 81.8133 16.7598 82.0434 16.9694C82.0754 16.9987 82.1076 17.029 82.1396 17.0589L82.2286 17.142C82.4059 17.3059 82.5817 17.4696 82.755 17.6359C82.7674 17.6477 82.7794 17.6597 82.7917 17.6716C83.145 17.5399 83.4942 17.406 83.8359 17.2686C83.7974 17.2286 83.7587 17.1886 83.7201 17.1485L83.7009 17.1289Z" fill="#B0BABA"/>
<path d="M66.4392 48.2031C66.3708 48.3875 66.3004 48.5772 66.2283 48.7712C66.1051 49.1026 65.9774 49.4451 65.8495 49.788C66.3197 49.539 66.8128 49.3354 67.3183 49.1849C67.2687 49.1416 67.2162 49.1015 67.1683 49.0564C66.8953 48.8008 66.6532 48.5127 66.4392 48.2031Z" fill="#B0BABA"/>
<path d="M40.604 48.1953C40.6183 48.4237 40.6351 48.6507 40.6513 48.8781C40.806 48.8328 40.9609 48.7875 41.1179 48.7511C41.0818 48.717 41.0426 48.6859 41.0076 48.6507C40.8643 48.5074 40.7296 48.3552 40.604 48.1953Z" fill="#B0BABA"/>
<path d="M90.9043 69.6876L90.8503 69.7609L90.7915 69.8339L90.7652 69.8663C90.5421 70.1487 90.3362 70.4035 90.1356 70.6458C90.0987 70.6904 90.0612 70.7348 90.0236 70.7787L89.9545 70.8603C89.7731 71.0764 89.5903 71.2912 89.4049 71.5036C89.3422 71.5754 89.2787 71.6466 89.2152 71.7178L89.1587 71.781C89.0466 71.9075 88.9328 72.0318 88.8195 72.1566L89.1566 73.2333C89.1574 73.2326 89.1581 73.2318 89.1588 73.231L89.2153 73.1677C89.2788 73.0965 89.3423 73.0253 89.405 72.9535C89.5903 72.7411 89.7732 72.5263 89.9546 72.3102L90.0237 72.2286C90.0612 72.1847 90.0988 72.1403 90.1357 72.0957C90.3363 71.8535 90.5422 71.5986 90.7652 71.3162L90.7916 71.2839L90.8503 71.2108L90.9044 71.1375C93.8021 67.4309 96.0591 63.3093 97.613 58.8865C99.2257 54.2968 100.043 49.4828 100.043 44.5781C100.043 44.3329 100.039 44.0883 100.035 43.8438C99.96 48.501 99.1471 53.0703 97.613 57.4365C96.0591 61.8595 93.8021 65.9811 90.9043 69.6876Z" fill="#B0BABA"/>
<path d="M93.9799 40.218H94.1228C93.6172 33.6469 91.3996 27.3782 87.6611 21.957C84.654 23.307 81.2111 24.4401 77.3972 25.3354C77.5014 25.7919 77.5998 26.2521 77.6951 26.7122C81.3893 25.8282 84.7332 24.7214 87.6611 23.407C91.1235 28.4278 93.2784 34.1763 93.9799 40.218Z" fill="#B0BABA"/>
<path d="M93.98 47.4851C94.0359 47.0033 94.0855 46.5203 94.1229 46.0352H86.0427C85.8642 47.1597 85.3365 48.1726 84.569 48.9396C84.4889 49.0199 84.4025 49.0938 84.3173 49.169C84.6401 49.2606 84.9583 49.3765 85.27 49.5129C85.6563 48.9095 85.9257 48.2221 86.0428 47.4851H93.98Z" fill="#B0BABA"/>
<path d="M63.5883 70.5232C63.634 70.5219 63.6787 70.5162 63.724 70.5127L64.1334 69.0039C63.9569 69.0445 63.7747 69.0681 63.5883 69.0733C63.5882 69.3827 63.5881 69.6926 63.5881 70.0025C63.5881 70.2993 63.5881 70.5955 63.5883 70.8914C63.5883 70.7687 63.5883 70.6459 63.5883 70.5232Z" fill="#B0BABA"/>
<path d="M68.2923 40.1094L68.2919 40.1123V40.1124L68.2923 40.1094Z" fill="#B0BABA"/>
<path d="M45.2057 112.551H21.2511V114.001H45.2057V104.676V112.551Z" fill="#B0BABA"/>
<path d="M109.096 16.8428L112.58 15.26L112.755 15.1805C112.755 15.1805 104.679 10.3269 96.6049 7.96484C97.3165 16.7916 96.6427 23.4395 96.6427 23.4395L97.7964 22.8269L100.518 21.3817C100.726 21.7218 100.923 22.0597 101.12 22.3976C117.34 50.2458 94.7872 70.1736 94.7872 70.1736C97.5472 67.902 99.9367 65.6249 102 63.3603C123.822 39.407 109.096 16.8428 109.096 16.8428Z" fill="#F3F5F5"/>
<path d="M17.2037 64.3072C17.262 63.4106 17.3121 62.9138 17.3121 62.9138L13.8801 64.7365L13.4373 64.9717C2.41851 46.9781 7.67632 32.1898 13.0001 23.7738C16.0729 18.9163 19.1676 16.1797 19.1676 16.1797C-12.7842 42.4781 4.85933 69.5105 4.85933 69.5105L1.2001 71.1729C1.2001 71.1729 1.64399 71.4392 2.42014 71.874C4.97169 73.3038 11.1588 76.5774 17.3499 78.3884C16.8322 71.9667 17.0477 66.7013 17.2037 64.3072Z" fill="#F3F5F5"/>
<path d="M46.3458 40.2188C46.6212 40.318 46.8865 40.4382 47.1372 40.5808L47.0875 40.2188H46.8883H46.3458Z" fill="#F26721" fill-opacity="0.4"/>
<path d="M62.3495 40.7355L62.4206 40.2188H62.0392C62.1508 40.3853 62.2564 40.5564 62.3495 40.7355Z" fill="#F26721" fill-opacity="0.4"/>
<path d="M52.8489 40.9706C52.9698 40.7074 53.1128 40.457 53.2719 40.2188H52.7457L52.8489 40.9706Z" fill="#F26721" fill-opacity="0.4"/>
<path d="M72.8145 25.7449C72.7567 25.5024 72.6966 25.263 72.6366 25.0234C68.284 25.7724 63.5684 26.2169 58.6304 26.2985V37.9729C59.0686 38.0549 59.4867 38.1924 59.8803 38.3753V28.972V27.5221C63.9408 27.4054 67.9051 27.0448 71.6954 26.4471C72.6968 30.7746 73.2892 35.3991 73.4603 40.2186H73.3926H72.5196C73.2745 40.4841 73.9542 40.9106 74.5053 41.4636C74.5075 41.4657 74.5093 41.4679 74.5115 41.4701H74.7453C74.6328 35.8307 73.9488 30.5023 72.8145 25.7449Z" fill="#F26721" fill-opacity="0.4"/>
<path d="M68.0787 40.2188L68.0129 40.6978C68.3268 40.5044 68.6636 40.3439 69.017 40.2188H68.2778H68.0787Z" fill="#F26721" fill-opacity="0.4"/>
<path d="M41.3187 25.0234C41.0912 25.9295 40.8789 26.8553 40.6852 27.8028C39.8229 32.0196 39.308 36.6308 39.2113 41.47H40.9559C40.9734 41.4519 40.9898 41.4329 41.0076 41.415C41.5351 40.8857 42.1846 40.4763 42.9054 40.2184H40.5622H40.4964C40.6465 35.9967 41.1211 31.9106 41.9095 28.054C42.0179 27.5242 42.1354 26.987 42.2607 26.447C46.0509 27.0447 50.0145 27.4056 54.0746 27.522V28.9719V39.2842C54.4453 38.9421 54.8655 38.6527 55.3245 38.4268V26.2984C50.3865 26.2168 45.671 25.7724 41.3187 25.0234Z" fill="#F26721" fill-opacity="0.4"/>
<path d="M95.4493 41.4718C95.1171 33.6001 92.4327 26.3472 88.0781 20.3867C84.629 22.0404 80.5054 23.3946 75.8881 24.3951C76.1107 25.2926 76.3178 26.2081 76.5084 27.1407C77.3725 31.3679 77.8941 35.9457 78.0272 40.7347C78.4099 40.493 78.8234 40.2948 79.2641 40.157C79.1083 35.5623 78.5946 31.1049 77.733 26.8897C77.721 26.8311 77.7072 26.773 77.6951 26.7145C77.5998 26.2544 77.5014 25.7941 77.3972 25.3377C81.2111 24.4424 84.654 23.3093 87.6611 21.9593C91.3996 27.3805 93.6172 33.6492 94.1228 40.2203H93.9799H82.5832C83.3381 40.4856 84.0179 40.9123 84.569 41.4652C84.5711 41.4674 84.5728 41.4697 84.575 41.4718H95.4493Z" fill="#F26721" fill-opacity="0.4"/>
<path d="M28.9184 69.5286C28.9804 69.5946 29.0436 69.6596 29.1061 69.7252C29.1053 69.4449 29.1044 69.1652 29.1035 68.8867C28.9208 68.9787 28.7264 69.0509 28.5239 69.1007C28.561 69.1414 28.5975 69.1828 28.6348 69.2233C28.7287 69.3257 28.8233 69.4273 28.9184 69.5286Z" fill="#F26721" fill-opacity="0.4"/>
<path d="M86.0933 44.7773C86.1043 44.9163 86.1146 45.0554 86.1144 45.197C86.1146 45.4805 86.0858 45.7571 86.0426 46.0291H94.1227C94.0854 46.5143 94.0357 46.9973 93.9799 47.4791C93.4899 51.6985 92.288 55.7733 90.429 59.5585C90.4315 59.5689 90.4343 59.5798 90.4368 59.5903C90.4386 59.5989 90.4408 59.6082 90.4432 59.6197C90.4444 59.6248 90.4465 59.6325 90.4475 59.6371C90.4556 59.6747 90.4596 59.6995 90.4633 59.722C90.4703 59.7663 90.4745 59.8007 90.479 59.8383C90.4875 59.9118 90.4953 59.9936 90.504 60.0921C90.5212 60.288 90.541 60.546 90.5627 60.8499C90.5843 61.1505 90.6077 61.4957 90.6319 61.8622C93.4683 56.7666 95.1881 50.9648 95.4492 44.7774H86.0933V44.7773Z" fill="#F26721" fill-opacity="0.4"/>
<path d="M65.7328 84.0766C65.6404 84.0963 65.5488 84.1178 65.4562 84.1369C65.0853 84.2134 64.7127 84.2852 64.3383 84.3518C64.2656 84.3647 64.1923 84.3756 64.1195 84.3881C63.8263 84.4386 63.5325 84.4868 63.2373 84.5312C63.2304 84.5442 63.2241 84.5574 63.217 84.5704C63.3104 84.5828 63.4038 84.5969 63.4971 84.6089C64.3947 84.7243 65.3089 84.8124 66.2269 84.8614C66.0781 84.6096 65.9662 84.3331 65.9015 84.0391C65.8452 84.0513 65.7892 84.0645 65.7328 84.0766Z" fill="#F26721" fill-opacity="0.4"/>
<path d="M25.2111 64.9161L25.3051 62.7702C22.4215 58.1218 20.6067 52.9205 19.975 47.4791C19.9191 46.9973 19.8694 46.5143 19.8321 46.0291H29.8363C29.7723 45.7058 29.7373 45.3725 29.7374 45.0315C29.7374 44.9457 29.7461 44.8621 29.7502 44.7773H18.5056C18.8204 52.238 21.251 59.1406 25.2111 64.9161Z" fill="#F26721" fill-opacity="0.4"/>
<path d="M38.0687 24.3954C33.4505 23.395 29.3264 22.0407 25.8769 20.3867C21.5222 26.3473 18.8378 33.6001 18.5056 41.4718H31.1846C31.2018 41.4541 31.217 41.4344 31.2345 41.4169C31.7619 40.8875 32.4115 40.4781 33.1323 40.2203H19.9751H19.8322C20.3377 33.6492 22.5554 27.3805 26.2939 21.9593C29.301 23.3093 32.7438 24.4424 36.5575 25.3374C36.4535 25.7929 36.3573 26.2537 36.2618 26.7148C35.3908 30.9165 34.866 35.3441 34.6986 39.9251C34.749 39.9237 34.7984 39.9175 34.8492 39.9175C35.2265 39.9173 35.5939 39.9615 35.949 40.0397C36.1418 34.6781 36.825 29.5929 37.9249 24.978C37.9715 24.7823 38.0206 24.5895 38.0687 24.3954Z" fill="#F26721" fill-opacity="0.4"/>
<path d="M51.4901 6.52062C49.6941 7.82711 47.9493 9.80543 46.3833 12.3541C45.3387 14.0522 44.3726 16.0004 43.5121 18.1577C43.0488 19.3189 42.6179 20.5435 42.2192 21.8194C46.2844 22.5002 50.6997 22.9089 55.3244 22.9879V4.73828C54.9517 4.81693 54.5805 4.92073 54.2101 5.0525C53.2974 5.37751 52.3882 5.86615 51.4901 6.52062ZM54.0746 7.90287V21.7064C50.7462 21.6048 47.4927 21.3272 44.3619 20.882C44.196 20.8584 44.029 20.8365 43.8637 20.812C44.1237 20.0523 44.3944 19.3196 44.6729 18.622C45.5015 16.5444 46.435 14.6563 47.4475 13.0105C48.9028 10.642 50.5546 8.74806 52.2248 7.53339C52.8357 7.08815 53.4556 6.7264 54.0746 6.45288L54.0746 7.90287Z" fill="#F26721" fill-opacity="0.4"/>
<path d="M23.0505 69.6835L23.103 69.755L23.162 69.8283L23.189 69.8617C23.4136 70.1458 23.6196 70.4007 23.819 70.6415C23.8565 70.6867 23.894 70.7313 23.9318 70.7757L23.9997 70.8561C24.1814 71.0724 24.3644 71.2875 24.5501 71.5002C24.6109 71.5693 24.6717 71.6377 24.7327 71.7065L24.795 71.7765C24.9636 71.9659 25.1333 72.1545 25.3049 72.3409C25.396 72.4398 25.4875 72.538 25.5792 72.636C25.746 72.8136 25.9146 72.9902 26.0844 73.1653L26.1108 73.1925C26.198 73.2823 26.2852 73.3721 26.3734 73.4613L26.4311 73.5206C26.4622 73.5529 26.4934 73.5851 26.5251 73.6169C26.6149 73.7067 26.7058 73.795 26.7966 73.8834L26.9129 73.9961L26.9989 74.0807C27.056 74.137 27.1131 74.1929 27.1709 74.2485C27.4087 74.4771 27.6544 74.7075 27.9015 74.9342L27.9284 74.9593L27.9882 75.0145C28.2654 75.2676 28.5546 75.5246 28.8475 75.7776C28.8803 75.806 28.9128 75.8331 28.9453 75.8607L29.0059 75.9117C29.0415 75.9422 29.0778 75.9716 29.1134 76.0019C29.1134 75.8868 29.1134 75.7736 29.1134 75.657C29.1134 75.2277 29.1134 74.7868 29.1131 74.3409C29.019 74.2566 28.923 74.1744 28.8297 74.0893C28.8015 74.0635 28.7738 74.0368 28.7457 74.0109C28.5068 73.7919 28.2703 73.5702 28.0366 73.3457C27.9522 73.2646 27.8694 73.182 27.7856 73.1003C27.6601 72.9776 27.5333 72.8563 27.4092 72.7321C27.3594 72.6822 27.311 72.6307 27.2614 72.5806C27.1673 72.4854 27.0742 72.3891 26.981 72.2931C26.816 72.123 26.6523 71.9518 26.4902 71.7789C26.4011 71.6839 26.3123 71.5885 26.224 71.4926C26.0573 71.3115 25.8925 71.1285 25.7289 70.9444C25.6494 70.855 25.5696 70.766 25.4909 70.6759C25.3106 70.4694 25.1328 70.2605 24.9565 70.0504C24.8981 69.9809 24.8387 69.9123 24.7808 69.8424C24.5739 69.5927 24.3705 69.34 24.1694 69.0854C24.1421 69.051 24.1137 69.0175 24.0866 68.983C24.0762 68.9698 24.0679 68.9554 24.0579 68.942C18.4876 61.8295 15.1611 52.8605 15.1619 43.1238C15.1611 33.3871 18.4876 24.4181 24.0581 17.3057C24.068 17.2922 24.0764 17.2777 24.0868 17.2645C24.114 17.2299 24.1424 17.1964 24.1697 17.1619C24.3707 16.9075 24.574 16.655 24.7807 16.4054C24.8392 16.3349 24.8992 16.2656 24.9581 16.1954C25.1337 15.9862 25.3105 15.7783 25.49 15.5727C25.5697 15.4814 25.6506 15.3912 25.7311 15.3007C25.8935 15.1179 26.0572 14.9363 26.2227 14.7564C26.312 14.6594 26.4018 14.5631 26.4919 14.467C26.6528 14.2954 26.8154 14.1253 26.9792 13.9565C27.0735 13.8592 27.1676 13.762 27.2629 13.6656C27.312 13.6159 27.36 13.5649 27.4093 13.5155C27.5319 13.3927 27.6575 13.2727 27.7816 13.1513C27.8672 13.0677 27.9519 12.9833 28.0381 12.9004C28.2688 12.6789 28.5022 12.4602 28.7378 12.244C28.7691 12.2154 28.7995 12.1859 28.8308 12.1574C29.105 11.9073 29.3828 11.661 29.6635 11.4182C29.7167 11.3722 29.771 11.3277 29.8244 11.282C30.0482 11.0905 30.2735 10.9005 30.5013 10.7137C30.5897 10.6412 30.6793 10.5701 30.7684 10.4985C30.9642 10.3405 31.161 10.1837 31.3597 10.0293C31.4607 9.95073 31.5625 9.87302 31.6643 9.79544C31.8558 9.64937 32.0486 9.50493 32.2427 9.36212C32.3477 9.28479 32.4529 9.20764 32.5587 9.13125C32.7571 8.98813 32.9573 8.84726 33.1583 8.70753C33.2594 8.63716 33.3602 8.56616 33.4619 8.49667C33.6879 8.3425 33.9161 8.19148 34.1452 8.04164C34.2228 7.9909 34.2993 7.93897 34.3773 7.88873C34.6866 7.68941 34.9985 7.49367 35.3133 7.30232C35.3528 7.27836 35.3932 7.2554 35.4329 7.23151C35.7053 7.06737 35.9792 6.90575 36.2556 6.74757C36.3645 6.68523 36.4747 6.62502 36.5842 6.56362C36.7936 6.44627 37.0036 6.32968 37.2153 6.21578C37.3428 6.14717 37.4712 6.08018 37.5994 6.01282C37.7967 5.9094 37.9946 5.80717 38.1936 5.70682C38.2615 5.67258 38.3281 5.63632 38.3961 5.60246C38.4636 5.5689 38.5324 5.53773 38.6 5.50449C38.7966 5.40809 38.9943 5.31351 39.1926 5.22C39.3299 5.1554 39.467 5.09042 39.6052 5.0272C39.8119 4.9325 40.0202 4.84068 40.2288 4.74923C40.3583 4.69247 40.4872 4.63452 40.6175 4.57895C40.8799 4.46713 41.1444 4.35913 41.4096 4.25257C41.4864 4.22171 41.5622 4.18903 41.6393 4.15861C41.9768 4.02534 42.3168 3.89676 42.6586 3.77195C42.7789 3.72811 42.9005 3.68685 43.0213 3.64407C43.2503 3.56291 43.4795 3.48226 43.7103 3.40499C43.8507 3.35807 43.992 3.31317 44.133 3.26763C44.3482 3.19808 44.5638 3.12959 44.7805 3.06355C44.9261 3.01914 45.0723 2.97593 45.2186 2.93309C45.4354 2.8695 45.653 2.80785 45.8713 2.74776C46.0157 2.708 46.1601 2.66848 46.3051 2.63029C46.5345 2.56977 46.765 2.51213 46.9959 2.45549C47.13 2.42263 47.2636 2.3887 47.3982 2.35715C47.6707 2.29311 47.9447 2.23309 48.2193 2.17451C48.3127 2.15457 48.4053 2.13287 48.4989 2.11355C48.8695 2.0371 49.2418 1.96535 49.6159 1.8988C49.6899 1.88563 49.7646 1.87459 49.8387 1.86186C50.1382 1.81018 50.4385 1.76082 50.7401 1.71566C50.8688 1.69635 50.9982 1.67948 51.1274 1.66135C51.3769 1.62635 51.6268 1.59249 51.8777 1.56194C52.0219 1.54438 52.1665 1.52839 52.311 1.51233C52.5502 1.48568 52.7899 1.46084 53.0303 1.43832C53.1789 1.42434 53.3278 1.41098 53.4768 1.39856C53.7193 1.37849 53.9626 1.36105 54.2061 1.345C54.3509 1.33553 54.4955 1.32549 54.6406 1.31753C54.9041 1.30298 55.1686 1.29231 55.4332 1.28259C55.5579 1.27808 55.682 1.27181 55.8069 1.26836C56.1959 1.25763 56.5859 1.25123 56.9773 1.25136C57.3689 1.25123 57.7589 1.25769 58.1478 1.26836C58.2723 1.27181 58.3962 1.27808 58.5204 1.28259C58.7857 1.29225 59.0508 1.30298 59.3148 1.31753C59.4592 1.32556 59.6031 1.33553 59.747 1.34494C59.9914 1.36099 60.2355 1.37849 60.4787 1.39869C60.6272 1.41104 60.7754 1.42434 60.9234 1.43826C61.1643 1.4609 61.4046 1.48568 61.6442 1.51233C61.7886 1.52845 61.9329 1.54432 62.0769 1.56194C62.328 1.59249 62.5781 1.62642 62.8278 1.66141C62.9567 1.67948 63.0858 1.69628 63.2143 1.71554C63.5161 1.76076 63.8165 1.81018 64.1162 1.86192C64.1903 1.87459 64.265 1.88569 64.3389 1.8988C64.7131 1.96541 65.0856 2.03716 65.4563 2.11368C65.5486 2.13268 65.64 2.15419 65.7322 2.17376C66.0082 2.23272 66.2837 2.29311 66.5577 2.3574C66.6911 2.3887 66.8237 2.42231 66.9566 2.45486C67.1884 2.51181 67.4199 2.56958 67.6502 2.63041C67.7949 2.66848 67.9388 2.70793 68.0828 2.74757C68.3014 2.80778 68.5194 2.86956 68.7366 2.93322C68.8828 2.97599 69.0289 3.01927 69.1744 3.06355C69.3911 3.12972 69.6068 3.1982 69.822 3.26763C69.9629 3.31317 70.104 3.35801 70.2443 3.40493C70.4749 3.48213 70.7042 3.56285 70.9332 3.64395C71.0542 3.68684 71.176 3.72818 71.2967 3.77214C71.6385 3.89689 71.9784 4.0254 72.3159 4.15868C72.3919 4.18866 72.4667 4.22089 72.5424 4.25131C72.8087 4.35831 73.0742 4.46681 73.3377 4.57914C73.4679 4.63465 73.5966 4.69254 73.726 4.74923C73.9345 4.84061 74.1427 4.9325 74.3494 5.02714C74.4878 5.09055 74.6253 5.15559 74.7629 5.22044C74.961 5.31383 75.1583 5.40822 75.3546 5.50443C75.4224 5.53773 75.4914 5.5689 75.5589 5.60252C75.6269 5.63639 75.6936 5.67264 75.7615 5.70688C75.9605 5.80723 76.1585 5.90953 76.3558 6.01307C76.4839 6.08031 76.6122 6.14723 76.7395 6.21572C76.9515 6.32974 77.1618 6.44659 77.3715 6.56418C77.4807 6.62533 77.5906 6.68542 77.6992 6.74757C77.975 6.90543 78.2485 7.06668 78.5202 7.23057C78.5606 7.25496 78.6017 7.27817 78.6419 7.30257C78.9565 7.49373 79.2681 7.68929 79.5771 7.88848C79.6559 7.93922 79.7334 7.99178 79.8118 8.04309C80.0402 8.19242 80.2678 8.343 80.493 8.49673C80.5949 8.56628 80.6956 8.63728 80.7969 8.70765C80.9977 8.84732 81.1977 8.988 81.3959 9.13113C81.5021 9.20764 81.6077 9.28516 81.7131 9.36275C81.9067 9.50512 82.0989 9.64924 82.2899 9.79481C82.3922 9.87277 82.4944 9.95079 82.5958 10.0297C82.794 10.1837 82.9902 10.34 83.1854 10.4974C83.275 10.5697 83.3653 10.6413 83.4544 10.7143C83.6818 10.9008 83.9066 11.0903 84.13 11.2815C84.1836 11.3274 84.2382 11.3722 84.2915 11.4183C84.5723 11.6609 84.8499 11.9071 85.124 12.1571C85.1561 12.1865 85.1874 12.2168 85.2195 12.2462C85.4542 12.4617 85.6867 12.6795 85.9166 12.9002C86.0033 12.9835 86.0885 13.0684 86.1745 13.1525C86.2983 13.2734 86.4234 13.393 86.5457 13.5155C86.595 13.5648 86.6428 13.6157 86.6917 13.6652C86.7873 13.7619 86.8819 13.8596 86.9765 13.9573C87.1399 14.1257 87.3021 14.2953 87.4626 14.4664C87.5531 14.5629 87.6431 14.6596 87.7327 14.7569C87.8981 14.9366 88.0616 15.118 88.2238 15.3006C88.3044 15.3913 88.3853 15.4815 88.465 15.5729C88.6441 15.778 88.8207 15.9855 88.9959 16.1942C89.0553 16.265 89.1157 16.3348 89.1746 16.4059C89.3811 16.6552 89.5842 16.9074 89.785 17.1615C89.8124 17.1962 89.841 17.2298 89.8682 17.2645C89.8787 17.2778 89.8872 17.2922 89.8971 17.3059C95.4674 24.4181 98.7937 33.3869 98.7931 43.1234C98.7931 43.1234 98.7931 43.1236 98.7931 43.1238C98.7931 43.124 98.7931 43.124 98.7931 43.1242C98.7937 52.8607 95.4674 61.8295 89.897 68.9419C89.887 68.9554 89.8786 68.9697 89.8682 68.983C89.841 69.0176 89.8125 69.0512 89.7852 69.0857C89.5841 69.3401 89.3808 69.5927 89.174 69.8423C89.116 69.9125 89.0565 69.9812 88.9979 70.0509C88.8218 70.2607 88.6444 70.4693 88.4643 70.6755C88.4382 70.7054 88.4115 70.735 88.3852 70.7648L88.8196 72.1526C88.9331 72.0278 89.0468 71.9035 89.1589 71.777L89.2154 71.7138C89.2789 71.6426 89.3424 71.5714 89.4051 71.4995C89.5905 71.2872 89.7733 71.0724 89.9547 70.8563L90.0238 70.7747C90.0613 70.7307 90.0989 70.6864 90.1358 70.6418C90.3364 70.3995 90.5423 70.1446 90.7653 69.8623L90.7917 69.8299L90.8505 69.7569L90.9045 69.6836C93.8022 65.977 96.0592 61.8554 97.6132 57.4327C99.1472 53.0664 99.9602 48.4971 100.036 43.8399C100.039 43.6015 100.043 43.3631 100.043 43.1243C100.044 33.3955 96.8837 24.2125 90.9046 16.5641L90.8503 16.4905L90.7915 16.4177L90.7653 16.385C90.5417 16.102 90.3361 15.8478 90.1365 15.6068C90.0984 15.5607 90.0598 15.5154 90.0211 15.4698L89.9525 15.3889C89.7721 15.1741 89.5904 14.9605 89.4058 14.749C89.3437 14.6778 89.2809 14.6072 89.2182 14.537L89.1575 14.4685C88.9904 14.2809 88.8221 14.0939 88.652 13.909C88.5595 13.8085 88.4667 13.7089 88.3735 13.6095C88.2083 13.4332 88.0412 13.2588 87.8731 13.0852L87.8612 13.0729C87.7678 12.9767 87.6745 12.8804 87.5799 12.7848L87.5229 12.7262C87.4919 12.6944 87.4609 12.662 87.4294 12.6305C87.3421 12.5431 87.2536 12.4573 87.1649 12.3711L87.0474 12.2568L86.9581 12.1691C86.8996 12.1114 86.8411 12.0539 86.7818 11.9971C86.5537 11.778 86.3122 11.5516 86.0638 11.3236L86.0312 11.2931L85.9651 11.2317C85.6894 10.9802 85.401 10.7241 85.1082 10.4711C85.0745 10.4421 85.0405 10.4131 85.0063 10.3847L84.9423 10.3306C84.7118 10.1332 84.4803 9.93819 84.2463 9.74633C84.1826 9.69409 84.1184 9.64247 84.054 9.5911L83.9689 9.52268C83.7681 9.36074 83.5661 9.19968 83.3621 9.04106C83.2576 8.95978 83.1523 8.87975 83.0471 8.79941C82.8505 8.64939 82.6525 8.50087 82.453 8.35417C82.3446 8.2747 82.2359 8.19468 82.1265 8.11584C81.9225 7.96858 81.7165 7.8237 81.5097 7.67982L81.4172 7.61535C81.3441 7.56429 81.2709 7.5133 81.1972 7.46319C80.9645 7.30432 80.7303 7.1491 80.4951 6.99537L80.4047 6.93579C80.3544 6.90217 80.3039 6.86856 80.2528 6.83588C79.9265 6.62565 79.6027 6.42275 79.2903 6.23297L79.2084 6.18411L79.1655 6.15902C78.8693 5.98027 78.5927 5.81771 78.3193 5.66122C78.2438 5.61782 78.1679 5.57561 78.0921 5.53384L77.9818 5.47213C77.7658 5.35114 77.549 5.23072 77.3306 5.11338C77.2157 5.05166 77.0996 4.99051 76.9835 4.92974L76.9357 4.90465C76.7326 4.79803 76.5288 4.69291 76.3237 4.5893L76.2458 4.54897C76.2024 4.52665 76.1593 4.50407 76.1155 4.48205C76.071 4.46004 76.0266 4.43897 75.9821 4.41789L75.9045 4.38095C75.7025 4.28167 75.4992 4.18445 75.2954 4.08849L75.2568 4.07018C75.128 4.00941 74.9991 3.94857 74.8695 3.8893C74.6562 3.79184 74.4419 3.69707 74.2272 3.60299L74.1064 3.54981C74.0136 3.5086 73.9209 3.46758 73.8273 3.42788C73.5557 3.3121 73.2821 3.20021 73.0078 3.0902L72.9204 3.05414C72.8721 3.03432 72.8239 3.01413 72.775 2.99487C72.4427 2.86379 72.0895 2.72964 71.7248 2.59667C71.6441 2.56707 71.5629 2.53866 71.4819 2.5105L71.3504 2.4644C71.1145 2.38098 70.8785 2.29788 70.6409 2.21842C70.5275 2.18053 70.414 2.14391 70.3006 2.10722L70.2057 2.07667C69.9841 2.00517 69.762 1.93493 69.5386 1.86644C69.3885 1.82091 69.2382 1.77631 69.0874 1.73229C68.8642 1.66662 68.6396 1.60302 68.4144 1.54099C68.266 1.50035 68.1177 1.45971 67.9687 1.42032C67.7315 1.35798 67.4931 1.29809 67.2543 1.23938L67.13 1.20884C67.0345 1.18532 66.9392 1.1618 66.8433 1.13916C66.561 1.07286 66.2772 1.01083 65.993 0.949998L65.8868 0.926478C65.8279 0.913684 65.7689 0.900512 65.7095 0.888282C65.3232 0.808504 64.9358 0.733932 64.5578 0.66676C64.5105 0.658482 64.462 0.650579 64.4135 0.642614L64.3282 0.628878C64.0198 0.575693 63.7104 0.524703 63.3994 0.477915C63.3104 0.464493 63.2209 0.452263 63.1312 0.440033L63.0018 0.422284C62.7441 0.386221 62.4868 0.351411 62.2281 0.319613C62.0872 0.302491 61.946 0.286937 61.8049 0.271321L61.7824 0.268874C61.5358 0.241341 61.2884 0.215689 61.0405 0.192483C60.888 0.178121 60.7355 0.164385 60.5828 0.151528C60.3317 0.130768 60.0808 0.112705 59.8292 0.09621L59.7263 0.0894995C59.6125 0.0818478 59.4986 0.0745095 59.3844 0.0681122C59.1119 0.0531225 58.8391 0.0421469 58.566 0.0320493L58.4291 0.0265924C58.347 0.0232056 58.265 0.0198816 58.1827 0.0176865C57.7537 0.00576996 57.3622 0 56.9854 0H56.9776C56.5933 0 56.2018 0.00583268 55.7731 0.0176865C55.6889 0.0198189 55.6049 0.0232055 55.5212 0.0268431L55.3877 0.0323622C55.1158 0.0421463 54.8436 0.0531225 54.5723 0.0681122C54.45 0.0748231 54.3283 0.0830396 54.2066 0.0910048L54.1244 0.0965239C53.8742 0.113019 53.6238 0.130768 53.3742 0.151528C53.2202 0.164323 53.0672 0.178121 52.9144 0.192483C52.6664 0.215752 52.4195 0.241403 52.1732 0.268561L52.1558 0.270693C52.0127 0.286561 51.8698 0.302491 51.7271 0.319613C51.4688 0.351411 51.2114 0.38622 50.9545 0.42197L50.8292 0.439406C50.7376 0.451949 50.6462 0.464493 50.555 0.478229C50.245 0.524703 49.9359 0.575693 49.6273 0.628565L49.538 0.643492C49.4912 0.65083 49.4446 0.658482 49.398 0.66676C49.0167 0.734622 48.6298 0.809132 48.247 0.887969C48.1871 0.900513 48.1276 0.91362 48.0681 0.926791L47.959 0.950938C47.6766 1.01115 47.3943 1.07318 47.1135 1.13884C47.015 1.16205 46.9174 1.1862 46.82 1.21034L46.6993 1.23995C46.461 1.29865 46.2235 1.35786 45.9872 1.42026C45.8381 1.4594 45.6894 1.50029 45.5406 1.54125C45.3158 1.60296 45.0917 1.66656 44.8684 1.73191C44.7175 1.77619 44.5671 1.82078 44.4171 1.86632C44.1938 1.93449 43.9719 2.00505 43.7501 2.07655L43.6543 2.1074C43.5408 2.14378 43.4276 2.18047 43.3146 2.21829C43.077 2.29776 42.8408 2.38086 42.6049 2.46427L42.4741 2.51037C42.3928 2.53853 42.3116 2.56694 42.2309 2.59655C41.8694 2.72826 41.5161 2.8621 41.1813 2.99443C41.132 3.014 41.0832 3.0342 41.0344 3.05433L40.9447 3.09102C40.6714 3.20103 40.3991 3.31223 40.1286 3.42776C40.0364 3.46689 39.9444 3.50753 39.8524 3.54811L39.7283 3.60286C39.5132 3.69726 39.2988 3.79171 39.0858 3.88917C38.9613 3.94631 38.8374 4.0047 38.7135 4.06303L38.661 4.0878C38.4566 4.18408 38.2528 4.28154 38.0504 4.38114L37.9737 4.41777C37.9293 4.43859 37.8848 4.45998 37.8409 4.48161C37.7964 4.50363 37.7526 4.52652 37.709 4.54916L37.6321 4.58918C37.4269 4.69279 37.223 4.7979 37.0198 4.90453L36.9621 4.93476C36.8493 4.99402 36.7365 5.05298 36.6243 5.1135C36.4061 5.23085 36.1899 5.35096 35.9742 5.47194L35.8656 5.5324C35.7888 5.57492 35.712 5.61763 35.6357 5.66141C35.3614 5.81846 35.0843 5.98134 34.7888 6.15946L34.7444 6.18574L34.6657 6.23253C34.3525 6.42288 34.0282 6.62577 33.7014 6.83663C33.6515 6.86874 33.6022 6.90142 33.5533 6.93385L33.4625 6.99399C33.2266 7.14803 32.9915 7.30388 32.7588 7.46275C32.6825 7.51437 32.6069 7.56755 32.531 7.62043L32.4459 7.67969C32.2391 7.82357 32.033 7.96845 31.8287 8.11603C31.7196 8.19455 31.6114 8.27401 31.5033 8.35348C31.3033 8.50074 31.1047 8.64957 30.9074 8.79991C30.7988 8.88307 30.6959 8.96154 30.5939 9.04075C30.3893 9.19993 30.1865 9.3613 29.9848 9.52387L29.9044 9.58866C29.8392 9.6409 29.7739 9.69315 29.7092 9.74633C29.4755 9.93794 29.2434 10.1335 29.013 10.3309L28.9498 10.3841C28.9154 10.4131 28.8812 10.4418 28.8472 10.4711C28.5552 10.7235 28.2666 10.9796 27.9899 11.232L27.9264 11.2913L27.8939 11.3215C27.6466 11.5485 27.4043 11.7759 27.1737 11.9971C27.1139 12.0546 27.0551 12.1126 26.9961 12.1707L26.9093 12.2556L26.7929 12.369C26.7035 12.4557 26.6141 12.5425 26.526 12.6308C26.4942 12.6623 26.4625 12.6953 26.4308 12.728L26.3751 12.7854C26.2834 12.878 26.1926 12.9715 26.1018 13.0653L26.0829 13.0849C25.9145 13.2584 25.747 13.4336 25.5813 13.6102C25.4887 13.7091 25.3962 13.8085 25.3042 13.9081C25.1338 14.0935 24.9652 14.2806 24.7979 14.4688L24.7383 14.5357C24.6752 14.6066 24.6122 14.6775 24.5499 14.7487C24.365 14.9605 24.1828 15.1747 24.0019 15.3901L23.9348 15.4693C23.8962 15.5148 23.8574 15.5607 23.8193 15.6065C23.6208 15.8461 23.415 16.1009 23.1901 16.3854L23.1648 16.4169L23.1047 16.4915L23.0506 16.5648C20.1532 20.2711 17.8963 24.3929 16.3423 28.8154C14.7296 33.4051 13.9122 38.2193 13.9126 43.1241C13.9126 43.366 13.9161 43.6076 13.9201 43.849C13.9963 48.5029 14.8092 53.0691 16.3424 57.4324C17.8958 61.8554 20.1527 65.9769 23.0505 69.6835Z" fill="#F26721" fill-opacity="0.4"/>
<path d="M39.7356 46.5391C39.63 46.8836 39.4873 47.2117 39.3157 47.5212C39.3434 48.0389 39.3719 48.5563 39.4092 49.0676C39.4897 49.0982 39.5722 49.1231 39.6516 49.1567C39.6857 49.1714 39.7177 49.1894 39.7499 49.207C39.7968 49.1863 39.8427 49.1633 39.89 49.1437C40.1379 49.0422 40.3932 48.9585 40.6513 48.883C40.635 48.6557 40.6183 48.4286 40.604 48.2002C40.2201 47.7115 39.9227 47.1491 39.7356 46.5391Z" fill="#F26721" fill-opacity="0.4"/>
<path d="M74.5054 48.9314C74.4253 49.0117 74.3388 49.0857 74.2535 49.1607C74.3453 49.1869 74.4362 49.2168 74.5272 49.2464C74.5364 49.1239 74.5461 49.0018 74.5548 48.8789C74.538 48.8961 74.5224 48.9143 74.5054 48.9314Z" fill="#F26721" fill-opacity="0.4"/>
<path d="M85.3218 17.0208C85.2265 16.9172 85.1306 16.8141 85.0342 16.7114C84.8963 16.5647 84.7572 16.4191 84.6171 16.2745C84.5249 16.1794 84.4329 16.0842 84.3398 15.99C84.1876 15.8362 84.0335 15.6844 83.8789 15.5331C83.7926 15.4487 83.7071 15.3636 83.6199 15.28C83.4407 15.108 83.259 14.9387 83.0765 14.7702C83.0122 14.7108 82.9491 14.6501 82.8844 14.5911C82.6417 14.3701 82.3961 14.1523 82.1479 13.9375C82.0606 13.8619 81.9713 13.7883 81.8833 13.7134C81.7168 13.5719 81.5501 13.4306 81.3812 13.2919C81.2738 13.2037 81.1649 13.1172 81.0565 13.0301C80.9035 12.9072 80.7501 12.7848 80.5952 12.664C80.4809 12.5751 80.3659 12.4872 80.2506 12.3995C80.097 12.2827 79.9426 12.1669 79.7872 12.0523C79.6714 11.9669 79.5554 11.8818 79.4385 11.7977C79.2768 11.6812 79.1138 11.5665 78.9502 11.4525C78.8387 11.3748 78.7277 11.2966 78.6154 11.2201C78.4298 11.0936 78.2425 10.9699 78.0547 10.8466C77.9624 10.7862 77.8711 10.7243 77.7783 10.6645C77.4982 10.4841 77.216 10.3069 76.931 10.1337C76.8805 10.1029 76.8291 10.0738 76.7784 10.0433C76.5403 9.90009 76.3011 9.75866 76.0597 9.62049C75.9596 9.56323 75.8584 9.50779 75.7578 9.4514C75.5629 9.34215 75.3676 9.23371 75.1707 9.12778C75.0585 9.06744 74.9455 9.00849 74.8327 8.94915C74.6432 8.84968 74.4531 8.75134 74.2617 8.65494C74.1468 8.59711 74.0317 8.53979 73.9163 8.48303C73.7194 8.38632 73.5215 8.29161 73.3228 8.19816C73.2139 8.14692 73.1051 8.09543 72.9956 8.04513C72.7769 7.9449 72.5568 7.84744 72.336 7.75117C72.2449 7.7114 72.1544 7.67057 72.0629 7.6315C71.7592 7.50186 71.4538 7.37561 71.1462 7.25368C71.1372 7.25011 71.1284 7.24622 71.1193 7.24271C70.798 7.11558 70.4743 6.99327 70.1489 6.87461C70.0658 6.84432 69.9817 6.81597 69.8984 6.78624C69.6603 6.70138 69.4216 6.61778 69.1814 6.53744C69.0667 6.49905 68.9512 6.46249 68.836 6.42517C68.6246 6.35675 68.4126 6.28945 68.1996 6.2246C68.0733 6.18615 67.9467 6.14865 67.8199 6.11145C67.6141 6.05112 67.4074 5.99254 67.2001 5.93553C67.0707 5.8999 66.9412 5.86441 66.8112 5.83016C66.7624 5.81724 66.7132 5.80564 66.6643 5.79297C68.0125 7.15346 69.2535 8.77392 70.3865 10.6143C71.5451 12.4983 72.5905 14.614 73.5128 16.9259C74.0539 18.2822 74.5498 19.7099 75.0029 21.1943C79.1683 20.3047 82.8802 19.1161 85.9512 17.7224C85.8738 17.6338 85.7954 17.5461 85.7172 17.4583C85.5863 17.3117 85.4548 17.1656 85.3218 17.0208ZM82.7915 17.669C80.6765 18.4578 78.3553 19.1462 75.8498 19.7243C75.4783 18.5845 75.0842 17.4912 74.6736 16.462C73.7701 14.1973 72.7462 12.1139 71.6301 10.258C71.5701 10.1583 71.5111 10.0565 71.4507 9.95823C71.0937 9.37827 70.7268 8.82058 70.3508 8.28647C70.4553 8.32648 70.5581 8.3665 70.6601 8.40683L70.6845 8.41692C70.9704 8.53026 71.2603 8.64973 71.5729 8.78301C71.6244 8.80503 71.6755 8.8276 71.7266 8.85024L71.8371 8.89885C72.0505 8.99205 72.2635 9.08613 72.475 9.18334C72.5586 9.22154 72.6415 9.26061 72.7244 9.29975L72.7917 9.33123C72.9838 9.42167 73.1753 9.51337 73.3659 9.60688C73.4773 9.66157 73.5885 9.71689 73.6994 9.77309C73.8849 9.8666 74.0691 9.96162 74.2523 10.0579L74.3111 10.0884C74.4006 10.1355 74.4901 10.1825 74.5791 10.2306C74.7699 10.3329 74.9588 10.438 75.1472 10.5437L75.2551 10.6036C75.3166 10.6378 75.3782 10.6721 75.4392 10.7069C75.6728 10.8407 75.9044 10.9776 76.1348 11.1164L76.2167 11.1647L76.2823 11.2035C76.5468 11.3646 76.8226 11.5372 77.1021 11.7172C77.1549 11.7511 77.2066 11.7857 77.2587 11.8202L77.3691 11.8932C77.5513 12.013 77.7326 12.1324 77.912 12.2547C77.9938 12.3106 78.0747 12.3671 78.1559 12.4236L78.236 12.4799C78.3942 12.5902 78.5521 12.7012 78.7087 12.8139C78.8217 12.8952 78.934 12.9777 79.046 13.0602C79.1961 13.1711 79.3457 13.2829 79.4941 13.396C79.606 13.4809 79.7172 13.5659 79.8276 13.6521C79.9777 13.7688 80.1261 13.8874 80.2742 14.0065L80.352 14.0689C80.4312 14.1324 80.5104 14.1957 80.5888 14.2602C80.7517 14.394 80.9132 14.5309 81.0743 14.6678L81.1811 14.7576C81.2311 14.7997 81.2811 14.8419 81.3306 14.8847C81.5731 15.0943 81.813 15.3073 82.0431 15.5169C82.0751 15.5462 82.1073 15.5765 82.1393 15.6064L82.2283 15.6895C82.4056 15.8533 82.5813 16.0171 82.7547 16.1834C82.809 16.2356 82.8626 16.2882 82.9161 16.341L83.0058 16.429C83.1549 16.5748 83.3041 16.7218 83.4513 16.8706C83.5353 16.9555 83.6179 17.0408 83.7006 17.1263L83.7197 17.1459C83.7583 17.186 83.7971 17.226 83.8355 17.266C83.494 17.4034 83.1448 17.5373 82.7915 17.669Z" fill="#F26721" fill-opacity="0.4"/>
<path d="M63.0613 6.97472C62.1365 6.22028 61.1958 5.64321 60.2514 5.24351C59.7127 5.01584 59.1734 4.84493 58.6304 4.73047V22.9815C63.2556 22.9025 67.6715 22.4937 71.7371 21.8127C70.618 18.2319 69.231 15.0759 67.6584 12.4898C66.2433 10.1586 64.6795 8.29332 63.0613 6.97472ZM69.5931 20.8757C66.4619 21.3208 63.2089 21.5984 59.8803 21.7V7.89612V6.4462C60.6812 6.79943 61.4853 7.30362 62.2718 7.94504C63.8016 9.19145 65.2544 10.9393 66.5904 13.1401C67.9211 15.3286 69.0963 17.9021 70.0921 20.8056C69.9266 20.8301 69.7592 20.8521 69.5931 20.8757Z" fill="#F26721" fill-opacity="0.4"/>
<path d="M47.291 5.79297C47.2415 5.80583 47.1917 5.81756 47.1423 5.83066C47.0132 5.86466 46.8846 5.89997 46.7561 5.93521C46.5479 5.99248 46.3403 6.05131 46.1334 6.11196C46.0074 6.14896 45.8815 6.18615 45.7561 6.22441C45.542 6.28957 45.329 6.35725 45.1164 6.42599C45.0024 6.46299 44.8881 6.49918 44.7746 6.53713C44.532 6.61828 44.2909 6.70258 44.0504 6.78837C43.9695 6.81729 43.8878 6.84476 43.8072 6.87417C43.4811 6.99303 43.1568 7.11564 42.8349 7.24302C42.8281 7.24565 42.8214 7.2486 42.8147 7.2513C42.5046 7.37423 42.1969 7.50148 41.8907 7.63213C41.8007 7.67057 41.7116 7.71084 41.622 7.74985C41.3998 7.84675 41.1784 7.94472 40.9585 8.04557C40.8497 8.09543 40.7418 8.14673 40.6335 8.1976C40.4338 8.29142 40.2349 8.38669 40.037 8.48385C39.9225 8.54017 39.8083 8.59699 39.6943 8.65444C39.5022 8.75121 39.311 8.85 39.1207 8.94991C39.0086 9.0088 38.8963 9.06738 38.7848 9.12746C38.5867 9.23396 38.3904 9.34296 38.1944 9.45285C38.0949 9.50873 37.9948 9.56342 37.8958 9.61999C37.6526 9.75929 37.4114 9.90172 37.1715 10.0461C37.1227 10.0755 37.073 10.1037 37.0242 10.1333C36.739 10.3067 36.4565 10.4841 36.1762 10.6646C36.084 10.724 35.9932 10.7855 35.9015 10.8457C35.7132 10.9693 35.5252 11.0934 35.3391 11.2203C35.2272 11.2966 35.1165 11.3745 35.0054 11.4519C34.8415 11.5663 34.678 11.6811 34.516 11.7979C34.3993 11.8819 34.2835 11.9669 34.1678 12.0522C34.0123 12.1668 33.8577 12.2827 33.7041 12.3997C33.589 12.4872 33.4741 12.5749 33.3601 12.6638C33.2048 12.7846 33.0511 12.9073 32.8978 13.0306C32.7897 13.1175 32.681 13.2039 32.5738 13.2918C32.4043 13.431 32.2372 13.5727 32.0701 13.7146C31.9826 13.789 31.8941 13.8621 31.8073 13.9372C31.559 14.1522 31.3132 14.37 31.0704 14.5911C31.0057 14.6501 30.9427 14.7108 30.8784 14.7702C30.6959 14.9387 30.5141 15.108 30.3349 15.28C30.2478 15.3636 30.1623 15.4488 30.0759 15.5331C29.9212 15.6844 29.767 15.8363 29.615 15.9902C29.522 16.0841 29.4301 16.1792 29.3382 16.274C29.1978 16.4189 29.0583 16.5648 28.9202 16.7118C28.824 16.8144 28.7283 16.9172 28.6332 17.0208C28.5002 17.1655 28.3686 17.3118 28.2377 17.4586C28.1594 17.5464 28.0811 17.6342 28.0037 17.7227C31.0742 19.1161 34.7854 20.3047 38.9499 21.1941C40.1538 17.2494 41.6765 13.7297 43.4721 10.7721C44.6309 8.8658 45.9044 7.19222 47.291 5.79297ZM31.1633 17.669C30.8098 17.5372 30.4606 17.4034 30.1188 17.2659C30.1576 17.2256 30.1964 17.1856 30.2351 17.1456L30.2654 17.1141C30.3443 17.0328 30.423 16.9515 30.5027 16.8709C30.65 16.722 30.7993 16.5751 30.9491 16.4284L31.037 16.3422C31.091 16.289 31.1448 16.2359 31.1995 16.1836C31.373 16.0171 31.5489 15.8533 31.7254 15.6905L31.8148 15.6067C31.847 15.5765 31.8792 15.5462 31.9118 15.5166C32.1404 15.3082 32.3803 15.0955 32.6246 14.8841C32.673 14.8419 32.7223 14.8007 32.7715 14.7594L32.879 14.6686C33.0404 14.5315 33.2023 14.3942 33.3665 14.2595C33.4405 14.1987 33.5159 14.1382 33.5912 14.0776L33.68 14.0065C33.8282 13.8876 33.9768 13.7688 34.1269 13.652C34.2374 13.5659 34.3485 13.4809 34.4598 13.3963C34.6087 13.2829 34.7583 13.1711 34.9087 13.0599C35.0206 12.9777 35.1329 12.8955 35.2458 12.8139C35.4023 12.7011 35.5605 12.5899 35.7192 12.4793L35.797 12.4248C35.8785 12.368 35.96 12.3112 36.0422 12.2549C36.2222 12.1321 36.4041 12.0123 36.5863 11.8925L36.7012 11.8168C36.7514 11.7832 36.8016 11.7498 36.8522 11.7171C37.1331 11.5362 37.4092 11.3633 37.6727 11.2032L37.7352 11.1662L37.8149 11.1192C38.0474 10.9792 38.2807 10.8414 38.516 10.7066C38.5738 10.6736 38.6323 10.6409 38.6907 10.6085L38.8055 10.5446C38.9942 10.4389 39.1843 10.3332 39.3761 10.2302C39.4675 10.181 39.5596 10.1327 39.6516 10.0844L39.7009 10.0584C39.8851 9.96187 40.0699 9.86622 40.2557 9.77271C40.3661 9.71708 40.4766 9.66176 40.5876 9.60738C40.7787 9.51356 40.9712 9.4213 41.1646 9.33055L41.2258 9.30182C41.31 9.26206 41.3943 9.22235 41.479 9.18359C41.6918 9.08582 41.906 8.99105 42.1207 8.8976L42.2302 8.84931C42.2803 8.82729 42.3303 8.80503 42.3807 8.78358C42.6885 8.65218 42.9892 8.52812 43.2746 8.41504L43.303 8.40344C43.4002 8.36493 43.5008 8.32579 43.6039 8.28609C43.1927 8.87038 42.7925 9.4827 42.4044 10.121C42.3772 10.1658 42.3513 10.2131 42.3243 10.2582C40.6831 12.9885 39.2648 16.1658 38.103 19.7239C35.5983 19.1456 33.2776 18.4574 31.1633 17.669Z" fill="#F26721" fill-opacity="0.4"/>
<path d="M63.6119 83.019V83.0235C63.6123 83.5644 63.4756 84.0773 63.2374 84.5268C63.5326 84.4823 63.8264 84.4342 64.1196 84.3837C64.1924 84.3711 64.2657 84.3603 64.3384 84.3474C64.7128 84.2807 65.0854 84.2089 65.4563 84.1325C65.5488 84.1134 65.6405 84.0918 65.7329 84.0721C65.7894 84.0601 65.8453 84.0469 65.9017 84.0346C65.8588 83.8398 65.8346 83.6384 65.8348 83.432L65.8351 83.4024C65.8351 83.4017 65.8408 83.1689 65.851 82.7494C65.8611 82.3299 65.8755 81.7245 65.8927 80.9815C65.8963 80.8234 65.9002 80.6584 65.9042 80.4883C65.3904 80.7872 64.8283 81.0275 64.2833 81.2302C64.0593 81.3135 63.8326 81.3895 63.607 81.4684C63.6074 81.6235 63.6078 81.7695 63.6082 81.9035C63.6105 82.6139 63.6119 83.0178 63.6119 83.019Z" fill="#1F8297"/>
<path d="M38.4635 48.6541C38.4316 48.6861 38.3959 48.7144 38.363 48.7456C38.7184 48.826 39.0673 48.9362 39.409 49.066C39.3717 48.5546 39.3432 48.0373 39.3155 47.5195C39.0838 47.9374 38.7975 48.3203 38.4635 48.6541Z" fill="#1F8297"/>
<path d="M74.5271 49.2484C74.9567 49.3879 75.3783 49.5643 75.7822 49.7876C75.8025 49.7988 75.8219 49.8121 75.842 49.8234C76.333 49.5574 76.8502 49.3417 77.3805 49.1837C77.287 49.1022 77.1933 49.0211 77.1058 48.9335C76.5155 48.3434 76.0641 47.6084 75.8056 46.7891C75.5544 47.585 75.1202 48.2997 74.5547 48.8809C74.546 49.0038 74.5362 49.1259 74.5271 49.2484Z" fill="#1F8297"/>
<path d="M88.9977 70.0495C89.0562 69.9798 89.1157 69.9111 89.1738 69.841C89.3806 69.5914 89.5839 69.3389 89.785 69.0844C89.8123 69.0498 89.8408 69.0163 89.868 68.9816C89.8784 68.9684 89.8868 68.954 89.8968 68.9405C95.4671 61.8281 98.7935 52.8593 98.7929 43.1228C98.7929 43.1226 98.7929 43.1226 98.7929 43.1225C98.7929 43.1223 98.7929 43.1221 98.7929 43.1221C98.7935 33.3856 95.4672 24.4168 89.8969 17.3045C89.8869 17.2909 89.8784 17.2765 89.868 17.2632C89.8407 17.2284 89.8122 17.1948 89.7848 17.1601C89.584 16.906 89.3809 16.6538 89.1744 16.4046C89.1155 16.3334 89.0551 16.2636 88.9957 16.1929C88.8205 15.9841 88.6439 15.7767 88.4647 15.5715C88.385 15.4801 88.3041 15.39 88.2236 15.2993C88.0614 15.1167 87.8978 14.9352 87.7325 14.7556C87.6429 14.6582 87.5529 14.5615 87.4623 14.465C87.3019 14.2939 87.1397 14.1244 86.9763 13.9559C86.8816 13.8582 86.7871 13.7605 86.6915 13.6639C86.6425 13.6143 86.5948 13.5634 86.5455 13.5142C86.4232 13.3916 86.2981 13.2721 86.1742 13.1511C86.0882 13.067 86.0031 12.9821 85.9164 12.8988C85.6866 12.6781 85.4541 12.4603 85.2193 12.2448C85.1872 12.2154 85.1559 12.1852 85.1237 12.1557C84.8497 11.9058 84.572 11.6596 84.2913 11.4169C84.2379 11.3708 84.1834 11.326 84.1298 11.2801C83.9064 11.0889 83.6816 10.8994 83.4542 10.713C83.3651 10.64 83.2748 10.5683 83.1852 10.4961C82.9899 10.3387 82.7937 10.1823 82.5956 10.0283C82.4942 9.94944 82.3919 9.87142 82.2897 9.79346C82.0987 9.64782 81.9064 9.50376 81.7129 9.36139C81.6075 9.2838 81.5019 9.20629 81.3957 9.12977C81.1975 8.98671 80.9975 8.84597 80.7967 8.70629C80.6955 8.63592 80.5947 8.56486 80.4928 8.49537C80.2675 8.34165 80.04 8.19112 79.8116 8.04173C79.7332 7.99042 79.6557 7.93786 79.5769 7.88713C79.2679 7.68787 78.9563 7.49231 78.6417 7.30121C78.6014 7.27675 78.5604 7.25354 78.52 7.22921C78.2483 7.06533 77.9747 6.90408 77.699 6.74621C77.5904 6.68406 77.4805 6.62398 77.3713 6.56282C77.1616 6.44523 76.9512 6.32845 76.7393 6.21436C76.6119 6.14581 76.4837 6.07895 76.3555 6.01172C76.1583 5.90823 75.9603 5.80594 75.7613 5.70553C75.6934 5.67128 75.6267 5.63503 75.5587 5.60116C75.4911 5.56754 75.4222 5.53637 75.3544 5.50307C75.1581 5.4068 74.9608 5.31241 74.7627 5.21908C74.6251 5.15423 74.4877 5.08919 74.3492 5.02578C74.1425 4.93114 73.9343 4.83926 73.7258 4.74788C73.5964 4.69118 73.4676 4.63329 73.3375 4.57778C73.074 4.46552 72.8085 4.35701 72.5422 4.24995C72.4665 4.21954 72.3917 4.1873 72.3157 4.15732C71.9782 4.02398 71.6383 3.89553 71.2965 3.77078C71.1758 3.72682 71.054 3.68555 70.9329 3.64259C70.704 3.56149 70.4748 3.48077 70.244 3.40357C70.1038 3.35665 69.9627 3.31181 69.8218 3.26628C69.6066 3.19685 69.3909 3.1283 69.1741 3.06219C69.0286 3.01791 68.8826 2.97464 68.7364 2.93186C68.5192 2.8682 68.3012 2.80642 68.0826 2.74621C67.9386 2.70658 67.7946 2.66706 67.65 2.62906C67.4197 2.56822 67.1883 2.51039 66.9564 2.45351C66.8235 2.42096 66.6909 2.38734 66.5575 2.35604C66.2835 2.29176 66.008 2.23136 65.7319 2.1724C65.6398 2.15277 65.5484 2.13132 65.4561 2.11232C65.0854 2.03587 64.713 1.96411 64.3387 1.89744C64.2648 1.88427 64.1902 1.87324 64.116 1.86057C63.8163 1.80882 63.5159 1.75946 63.2141 1.71418C63.0856 1.69493 62.9565 1.67812 62.8276 1.66006C62.5779 1.62506 62.3278 1.59113 62.0767 1.56058C61.9328 1.54302 61.7884 1.52709 61.644 1.51097C61.4043 1.48432 61.1641 1.45948 60.9232 1.4369C60.7751 1.42304 60.627 1.40968 60.4785 1.39733C60.2352 1.37713 59.9912 1.35963 59.7468 1.34358C59.6028 1.33417 59.459 1.3242 59.3146 1.31617C59.0505 1.30162 58.7855 1.29089 58.5202 1.28124C58.3959 1.27672 58.2721 1.27045 58.1476 1.267C57.7586 1.25627 57.3687 1.24988 56.9771 1.25C56.5857 1.24988 56.1957 1.25634 55.8067 1.267C55.6818 1.27045 55.5577 1.27672 55.433 1.28124C55.1684 1.29096 54.9039 1.30162 54.6404 1.31617C54.4954 1.3242 54.3507 1.33417 54.2059 1.34364C53.9623 1.35963 53.7191 1.37707 53.4766 1.3972C53.3275 1.40956 53.1787 1.42298 53.0301 1.43697C52.7897 1.45948 52.55 1.48432 52.3108 1.51097C52.1662 1.52703 52.0217 1.54296 51.8775 1.56058C51.6266 1.59113 51.3767 1.625 51.1272 1.65999C50.998 1.67812 50.8686 1.69499 50.7399 1.71431C50.4383 1.75946 50.138 1.80889 49.8385 1.8605C49.7644 1.87324 49.6897 1.88434 49.6157 1.89744C49.2416 1.96399 48.8693 2.03574 48.4987 2.11219C48.4051 2.13151 48.3125 2.15321 48.2191 2.17316C47.9445 2.23174 47.6705 2.29182 47.398 2.35579C47.2634 2.38734 47.1297 2.42127 46.9957 2.45413C46.7648 2.51077 46.5343 2.56841 46.3049 2.62893C46.1599 2.66713 46.0155 2.7067 45.8711 2.7464C45.6529 2.80649 45.4353 2.86814 45.2184 2.93174C45.0721 2.97457 44.926 3.01779 44.7803 3.06219C44.5636 3.12823 44.348 3.19678 44.1327 3.26628C43.9918 3.31181 43.8505 3.35672 43.7101 3.40363C43.4793 3.4809 43.2501 3.56156 43.0211 3.64271C42.9003 3.68549 42.7787 3.72676 42.6584 3.7706C42.3166 3.89534 41.9766 4.02392 41.6391 4.15726C41.562 4.18767 41.4862 4.22035 41.4094 4.25121C41.1442 4.35777 40.8797 4.46577 40.6173 4.5776C40.487 4.63316 40.3581 4.69112 40.2286 4.74788C40.02 4.83932 39.8117 4.93114 39.605 5.02585C39.4668 5.08913 39.3297 5.15404 39.1924 5.21864C38.9941 5.31216 38.7964 5.40673 38.5998 5.50313C38.5322 5.53637 38.4633 5.56754 38.3959 5.6011C38.3279 5.63497 38.2613 5.67122 38.1934 5.70546C37.9944 5.80581 37.7965 5.90804 37.5992 6.01147C37.471 6.07889 37.3425 6.14587 37.2151 6.21442C37.0034 6.32832 36.7934 6.44491 36.584 6.56226C36.4745 6.62366 36.3643 6.68387 36.2554 6.74621C35.979 6.90439 35.705 7.06602 35.4327 7.23015C35.393 7.25405 35.3526 7.277 35.313 7.30096C34.9983 7.49231 34.6864 7.68806 34.3771 7.88738C34.2991 7.93761 34.2225 7.98955 34.145 8.04029C33.9159 8.19012 33.6877 8.34108 33.4617 8.49531C33.36 8.56486 33.2592 8.6358 33.1581 8.70617C32.9571 8.8459 32.7569 8.98677 32.5585 9.12989C32.4526 9.20628 32.3475 9.28343 32.2424 9.36076C32.0483 9.50357 31.8556 9.64801 31.6641 9.79408C31.5623 9.87167 31.4605 9.94938 31.3595 10.0279C31.1608 10.1824 30.964 10.3391 30.7682 10.4971C30.6792 10.5688 30.5895 10.6399 30.5011 10.7123C30.2732 10.8992 30.048 11.0891 29.8242 11.2806C29.7708 11.3263 29.7165 11.3709 29.6633 11.4168C29.3826 11.6596 29.1048 11.9059 28.8306 12.156C28.7993 12.1845 28.7689 12.214 28.7376 12.2427C28.502 12.4589 28.2685 12.6776 28.0379 12.8991C27.9516 12.9819 27.867 13.0664 27.7814 13.15C27.6573 13.2714 27.5318 13.3913 27.4091 13.5141C27.3597 13.5635 27.3118 13.6146 27.2627 13.6643C27.1674 13.7607 27.0733 13.8579 26.979 13.9551C26.8152 14.1239 26.6526 14.294 26.4917 14.4656C26.4016 14.5617 26.3118 14.6581 26.2225 14.7551C26.057 14.9349 25.8933 15.1166 25.7308 15.2994C25.6504 15.3899 25.5695 15.4801 25.4898 15.5713C25.3103 15.7769 25.1334 15.9849 24.9579 16.194C24.899 16.2642 24.839 16.3334 24.7805 16.4041C24.5738 16.6536 24.3705 16.9062 24.1695 17.1606C24.1422 17.195 24.1138 17.2285 24.0866 17.2632C24.0762 17.2764 24.0677 17.2908 24.0579 17.3043C18.4875 24.4168 15.1611 33.3857 15.1619 43.1225C15.1611 52.8592 18.4876 61.8281 24.0581 68.9407C24.0681 68.9541 24.0764 68.9684 24.0868 68.9816C24.1139 69.0162 24.1423 69.0496 24.1695 69.084C24.3707 69.3386 24.5741 69.5913 24.781 69.841C24.8388 69.911 24.8983 69.9795 24.9566 70.0491C25.133 70.2592 25.3108 70.468 25.4911 70.6746C25.5698 70.7646 25.6496 70.8536 25.729 70.943C25.8926 71.1272 26.0575 71.3101 26.2242 71.4912C26.3125 71.5872 26.4013 71.6825 26.4904 71.7775C26.6524 71.9504 26.8162 72.1216 26.9812 72.2917C27.0744 72.3878 27.1675 72.4841 27.2616 72.5792C27.3112 72.6293 27.3596 72.6808 27.4094 72.7307C27.5334 72.8549 27.6603 72.9762 27.7858 73.0989C27.8695 73.1806 27.9523 73.2633 28.0368 73.3443C28.2705 73.5688 28.5069 73.7905 28.7458 74.0096C28.7741 74.0355 28.8016 74.0621 28.8299 74.088C28.9232 74.1731 29.0192 74.2552 29.1133 74.3395C29.1126 72.8468 29.1105 71.2782 29.1062 69.7274C29.0436 69.6618 28.9804 69.5968 28.9184 69.5308C28.8234 69.4295 28.7288 69.3279 28.6348 69.2256C28.5974 69.185 28.561 69.1436 28.5239 69.1029C28.3165 69.1539 28.1006 69.1816 27.8792 69.1814C27.8359 69.1814 27.7941 69.1804 27.7537 69.1786L27.7507 69.1785C27.0231 69.1449 26.3647 68.823 25.8999 68.3325C25.4335 67.8435 25.1462 67.1729 25.1465 66.4479C25.1465 66.4031 25.1476 66.3598 25.1496 66.318L25.1494 66.3226L25.211 64.9165C21.2509 59.1411 18.8203 52.2384 18.5054 44.7778H29.75C29.813 43.4951 30.3471 42.329 31.1844 41.4673H18.5055C18.8377 33.5956 21.5221 26.3427 25.8767 20.3822C29.3262 22.0362 33.4504 23.3905 38.0685 24.3909C38.0204 24.585 37.9713 24.7779 37.9247 24.9735C36.8248 29.5885 36.1416 34.6736 35.9488 40.0353C36.9186 40.2489 37.7892 40.7357 38.4636 41.4124C39.045 41.9933 39.4873 42.7193 39.7356 43.5291C39.9763 42.7441 40.4006 42.0391 40.9558 41.4673H39.2112C39.3079 36.6281 39.8228 32.0168 40.6851 27.8001C40.8788 26.8526 41.0911 25.9267 41.3186 25.0208C45.671 25.7696 50.3864 26.2142 55.3244 26.2958V38.4241C56.0294 38.0769 56.8202 37.876 57.6558 37.8764C57.9887 37.8762 58.3137 37.9109 58.6303 37.9701V26.2957C63.5683 26.2141 68.284 25.7696 72.6366 25.0206C72.6966 25.2602 72.7567 25.4996 72.8144 25.7421C73.9488 30.4995 74.6328 35.8279 74.7453 41.4673H74.5114C75.0988 42.0563 75.548 42.7887 75.8056 43.6053C76.0642 42.7857 76.5154 42.0508 77.1059 41.4608C77.3824 41.1834 77.6935 40.941 78.0272 40.7303C77.8942 35.9412 77.3726 31.3634 76.5085 27.1363C76.3178 26.2036 76.1107 25.2881 75.8881 24.3906C80.5055 23.3902 84.629 22.036 88.0781 20.3823C92.4327 26.3429 95.1171 33.5957 95.4493 41.4674H84.575C85.4319 42.3266 85.992 43.4915 86.0935 44.7778H95.4493C95.1882 50.9653 93.4686 56.767 90.632 61.8627C90.6566 62.2363 90.682 62.632 90.7068 63.0269C90.8051 64.5907 90.8949 66.1317 90.895 66.1326L90.8959 66.1489C90.8977 66.1914 90.8987 66.2342 90.8987 66.2778C90.899 67.0202 90.605 67.7066 90.1275 68.2074C89.6516 68.7097 88.9776 69.0394 88.2324 69.0736L88.2277 69.0738C88.1871 69.0756 88.145 69.0766 88.1015 69.0766C88.0179 69.0766 87.9352 69.0717 87.8532 69.0644L88.3852 70.7636C88.4116 70.7338 88.4382 70.7043 88.4644 70.6743C88.6442 70.4679 88.8216 70.2593 88.9977 70.0495ZM38.9498 21.1944C34.7853 20.305 31.0741 19.1164 28.0036 17.723C28.081 17.6345 28.1593 17.5467 28.2376 17.4589C28.3685 17.3121 28.5 17.1659 28.6331 17.0211C28.7282 16.9176 28.8239 16.8147 28.9201 16.7121C29.0582 16.5651 29.1977 16.4192 29.3381 16.2743C29.43 16.1795 29.5219 16.0844 29.6149 15.9905C29.767 15.8366 29.9211 15.6848 30.0758 15.5334C30.1622 15.449 30.2477 15.3639 30.3348 15.2803C30.514 15.1083 30.6958 14.939 30.8783 14.7705C30.9426 14.7111 31.0057 14.6504 31.0703 14.5914C31.3131 14.3703 31.5588 14.1525 31.8071 13.9375C31.894 13.8624 31.9825 13.7893 32.07 13.7149C32.2371 13.573 32.4042 13.4313 32.5737 13.2921C32.6809 13.2042 32.7895 13.1179 32.8977 13.0309C33.051 12.9076 33.2047 12.785 33.36 12.6641C33.474 12.5753 33.5889 12.4875 33.704 12.4C33.8576 12.283 34.0122 12.1672 34.1677 12.0525C34.2834 11.9672 34.3992 11.8822 34.5158 11.7982C34.6779 11.6814 34.8414 11.5665 35.0053 11.4522C35.1164 11.3748 35.2271 11.2968 35.339 11.2206C35.5251 11.0937 35.7131 10.9696 35.9014 10.846C35.9931 10.7858 36.0839 10.7244 36.1761 10.6649C36.4564 10.4844 36.739 10.307 37.0241 10.1336C37.0728 10.104 37.1226 10.0758 37.1714 10.0464C37.4113 9.90202 37.6525 9.75959 37.8957 9.62029C37.9947 9.56372 38.0948 9.50897 38.1943 9.45315C38.3903 9.34326 38.5866 9.23426 38.7847 9.12776C38.8962 9.06774 39.0085 9.00916 39.1206 8.95021C39.311 8.85029 39.5021 8.75151 39.6942 8.65474C39.8082 8.59729 39.9224 8.54047 40.0369 8.48414C40.2348 8.38699 40.4337 8.29172 40.6334 8.1979C40.7416 8.14703 40.8496 8.09579 40.9584 8.04587C41.1783 7.94502 41.3998 7.84705 41.6219 7.75015C41.7115 7.71114 41.8006 7.67087 41.8906 7.63243C42.1967 7.50178 42.5045 7.37453 42.8146 7.2516C42.8213 7.2489 42.828 7.24602 42.8348 7.24332C43.1567 7.11594 43.481 6.99339 43.8071 6.87447C43.8878 6.84506 43.9694 6.81753 44.0503 6.78867C44.2908 6.70288 44.5318 6.61858 44.7745 6.53742C44.888 6.49948 45.0023 6.46329 45.1163 6.42629C45.3288 6.35755 45.5419 6.28987 45.7559 6.22471C45.8814 6.18645 46.0073 6.14926 46.1333 6.11226C46.3402 6.05161 46.5478 5.99278 46.756 5.93551C46.8845 5.9002 47.0131 5.86489 47.1421 5.83096C47.1916 5.81792 47.2415 5.80613 47.2909 5.79327C45.9043 7.19252 44.6308 8.8661 43.4718 10.7723C41.6765 13.73 40.1537 17.2498 38.9498 21.1944ZM55.3244 22.9847C50.6996 22.9057 46.2843 22.497 42.2192 21.8162C42.6178 20.5403 43.0487 19.3158 43.512 18.1545C44.3724 15.9972 45.3386 14.049 46.3832 12.3509C47.9492 9.80217 49.694 7.82384 51.49 6.51742C52.3882 5.86295 53.2973 5.37437 54.21 5.0493C54.5804 4.91753 54.9516 4.81373 55.3244 4.73508V22.9847ZM58.6303 22.9847V4.73377C59.1733 4.84823 59.7126 5.01913 60.2514 5.2468C61.1958 5.64644 62.1365 6.22358 63.0613 6.97802C64.6795 8.29662 66.2432 10.1619 67.6584 12.493C69.2309 15.0792 70.618 18.2352 71.7371 21.816C67.6714 22.497 63.2556 22.9057 58.6303 22.9847ZM75.0029 21.1949C74.5497 19.7105 74.0538 18.2828 73.5127 16.9265C72.5904 14.6146 71.5451 12.4989 70.3865 10.6149C69.2534 8.77453 68.0124 7.15407 66.6642 5.79358C66.7131 5.80625 66.7624 5.81785 66.8112 5.83077C66.9411 5.86502 67.0707 5.90052 67.2001 5.93614C67.4074 5.99315 67.614 6.05173 67.8198 6.11207C67.9467 6.14926 68.0733 6.18676 68.1995 6.22521C68.4125 6.29006 68.6245 6.35736 68.836 6.42579C68.9512 6.4631 69.0666 6.49967 69.1813 6.53805C69.4215 6.61839 69.6602 6.702 69.8983 6.78685C69.9816 6.81658 70.0657 6.84493 70.1488 6.87523C70.4743 6.99383 70.798 7.11613 71.1193 7.24332C71.1283 7.24683 71.1371 7.25072 71.1462 7.2543C71.4537 7.37622 71.7591 7.50247 72.0628 7.63211C72.1543 7.67119 72.2448 7.71202 72.3359 7.75178C72.5568 7.84805 72.7769 7.94552 72.9955 8.04574C73.105 8.09604 73.2138 8.14747 73.3227 8.19878C73.5214 8.29223 73.7194 8.38693 73.9162 8.48364C74.0317 8.5404 74.1468 8.59773 74.2616 8.65555C74.453 8.75195 74.6431 8.8503 74.8327 8.94977C74.9455 9.00904 75.0585 9.06805 75.1706 9.12839C75.3676 9.23426 75.5629 9.34276 75.7577 9.45202C75.8583 9.5084 75.9596 9.56378 76.0596 9.62111C76.301 9.75921 76.5402 9.9007 76.7783 10.0439C76.829 10.0744 76.8805 10.1035 76.931 10.1343C77.2159 10.3074 77.4982 10.4847 77.7783 10.6651C77.871 10.7248 77.9623 10.7867 78.0547 10.8473C78.2424 10.9706 78.4298 11.0942 78.6153 11.2207C78.7277 11.2972 78.8387 11.3755 78.9501 11.4531C79.1137 11.5672 79.2767 11.6818 79.4385 11.7983C79.5552 11.8824 79.6713 11.9675 79.7871 12.053C79.9425 12.1675 80.0969 12.2833 80.2505 12.4002C80.3658 12.4878 80.4809 12.5757 80.5951 12.6646C80.7501 12.7853 80.9035 12.9078 81.0565 13.0307C81.1648 13.1178 81.2737 13.2043 81.3811 13.2925C81.55 13.4313 81.7168 13.5725 81.8832 13.714C81.9712 13.7888 82.0605 13.8625 82.1479 13.9381C82.3961 14.153 82.6417 14.3707 82.8843 14.5917C82.949 14.6507 83.0121 14.7114 83.0764 14.7708C83.2589 14.9393 83.4407 15.1086 83.6199 15.2806C83.707 15.3642 83.7925 15.4494 83.8789 15.5337C84.0335 15.685 84.1876 15.8368 84.3398 15.9906C84.4328 16.0848 84.5249 16.18 84.617 16.2751C84.7572 16.4197 84.8963 16.5653 85.0341 16.7121C85.1305 16.8147 85.2265 16.9178 85.3217 17.0215C85.4547 17.1662 85.5862 17.3123 85.7171 17.4592C85.7953 17.5469 85.8736 17.6347 85.9511 17.7233C82.8801 19.1167 79.1682 20.3053 75.0029 21.1949Z" fill="#1F8297"/>
<path d="M30.3026 79.6164C30.3113 73.1074 30.3086 59.6666 30.1405 58.3069C30.1405 58.3069 29.7205 59.8234 29.7079 59.8599L29.4159 66.5194C29.3764 67.3701 28.6559 68.0275 27.8065 67.988C26.9571 67.9485 26.3004 67.227 26.3399 66.3764L26.6357 59.6283C26.6439 59.4514 28.7111 51.8922 28.7111 51.8922C29.2767 50.409 31.5252 49.7087 33.4502 49.7087H36.2479C37.2433 49.7087 38.3028 49.8758 39.1844 50.2516C38.6337 50.6291 38.2023 51.1072 37.977 51.698C37.9706 51.7146 37.9651 51.7313 37.9606 51.7485C35.8776 59.3659 35.8702 59.526 35.8667 59.6031L35.5707 66.3525C35.5449 66.9075 35.7371 67.4408 36.1118 67.8525C36.4864 68.2642 36.9988 68.5052 37.5545 68.5311C37.5872 68.5326 37.6199 68.5333 37.6523 68.5333C38.3719 68.5333 39.0076 68.1686 39.3816 67.6098C39.3774 70.5523 39.3803 73.7206 39.385 76.4228C39.6155 76.4028 39.8468 76.3859 40.0785 76.3708C40.0803 69.4297 40.0572 59.4673 39.9137 58.3067C39.9137 58.3067 39.4937 59.8232 39.481 59.8597L39.189 66.5192C39.1507 67.3454 38.4698 67.9896 37.6523 67.9896C37.6282 67.9896 37.604 67.989 37.5797 67.9878C36.7303 67.9483 36.0736 67.2268 36.1131 66.3762L36.4089 59.6281C36.4172 59.4512 38.4842 51.892 38.4842 51.892C39.0498 50.4089 41.2985 49.7085 43.2234 49.7085H46.0211C47.9461 49.7085 50.1166 50.3261 50.7602 51.892C50.7602 51.892 51.5845 54.9055 52.1942 57.1717C52.2835 58.0174 52.3281 62.4983 52.3473 67.7905C52.1444 67.9049 51.9133 67.9762 51.6648 67.9877C51.6404 67.989 51.6164 67.9896 51.5922 67.9896C50.7747 67.9896 50.0937 67.3453 50.0555 66.5192L49.763 59.8506C49.7511 59.8183 49.2557 58.0333 49.2557 58.0333C49.1469 58.8646 49.1457 69.2206 49.1582 76.3624C49.556 76.3622 49.9534 76.3596 50.3499 76.3517C50.3473 74.8747 50.3453 73.2629 50.3448 71.6242C50.3447 71.3065 50.3446 70.9883 50.3446 70.6697C50.3446 70.0711 50.3449 69.4735 50.3453 68.8798C50.7207 69.073 51.146 69.1829 51.5924 69.1827L51.6197 69.1823L51.6921 69.1808L51.7024 69.1803C51.7079 71.2363 51.7097 73.3198 51.7097 75.2239C51.7097 75.5246 51.7097 75.8196 51.7096 76.1107C51.7096 76.1759 51.7095 76.2389 51.7095 76.3035C52.108 76.2833 52.5053 76.2571 52.9013 76.2234C52.9038 68.9521 52.8809 58.2959 52.729 57.0672L51.8674 53.2005C51.4551 52.1034 49.0401 45.6717 49.0163 45.5012L48.0546 38.4994C47.9313 37.6169 48.5455 36.8015 49.4267 36.678C49.5024 36.6672 49.5776 36.6621 49.6521 36.6621C50.4427 36.6621 51.1328 37.2454 51.2456 38.0517L52.1958 44.9712C52.2042 44.9887 53.3133 46.8319 54.1829 48.3089C54.84 48.1492 55.5341 48.0706 56.1921 48.0706H59.1194C59.7428 48.0706 60.3907 48.1327 61.0082 48.2666C61.8739 46.7972 62.9622 44.9886 62.9705 44.9712L63.9208 38.0517C64.0336 37.2452 64.7236 36.6621 65.5142 36.6621C65.5886 36.6621 65.6639 36.6672 65.7397 36.678C66.6208 36.8015 67.2351 37.6169 67.1117 38.4994L66.1501 45.5012C66.1293 45.6506 64.273 50.6057 63.536 52.5692L62.5041 56.7812C62.3997 57.5788 62.39 66.7539 62.3992 74.0338C62.8752 73.9752 63.3546 73.9535 63.8393 73.9898C63.8961 73.994 63.953 74.0046 64.0099 74.0113L66.9326 63.2403C66.9824 59.558 66.5019 56.4339 66.4299 55.8512C66.4299 55.8512 65.4293 60.6122 65.4161 60.65L65.1119 66.3523C65.0719 67.2134 64.3623 67.8846 63.5103 67.8846C63.4853 67.8846 63.46 67.8841 63.4347 67.8828C63.2609 67.8747 63.0953 67.8384 62.9409 67.7799C62.9456 63.0076 62.9655 58.7716 63.0154 57.3289C63.5353 55.4179 64.1604 53.1362 64.1604 53.1362C64.8462 51.3352 67.3101 50.0711 69.3162 50.0711H72.2319C74.238 50.0711 76.4367 51.0824 77.3876 53.1359C77.3876 53.1359 79.2041 59.7684 79.2162 59.8797C79.2828 60.044 79.6419 66.2034 79.6419 66.2034C79.6829 67.0898 78.9987 67.8416 78.1135 67.8828C78.0881 67.8841 78.0629 67.8846 78.0378 67.8846C77.1859 67.8846 76.4762 67.2133 76.4362 66.3523L76.1315 60.6404C76.1192 60.6069 75.3122 55.679 75.3122 55.679C75.2563 56.1062 74.6894 59.3609 74.7168 63.2403L78.4875 75.2833H77.2739H75.0652L74.9476 83.4336C74.9476 83.4632 74.9405 83.4909 74.9389 83.5202C75.616 83.2083 76.2694 82.8408 76.8859 82.3966C76.9595 82.3436 77.0382 82.2832 77.1192 82.2193C77.1516 80.8589 77.2065 78.4923 77.2625 75.827H78.4875C78.6603 75.827 78.8227 75.7446 78.9251 75.6052C79.0274 75.4655 79.0573 75.2857 79.0056 75.1205L76.7839 68.0247C77.1369 68.2791 77.5701 68.4282 78.0378 68.4282C78.0713 68.4282 78.1049 68.4275 78.1387 68.4259C79.3214 68.371 80.2391 67.3627 80.1843 66.1782C79.9018 61.332 79.8033 60.1544 79.7537 59.8212L79.756 59.8208C79.7502 59.767 79.7393 59.6666 77.9114 52.9922C77.9034 52.9631 77.893 52.9347 77.8804 52.9074C77.5212 52.1317 76.9809 51.4602 76.3143 50.9243C77.2652 50.3858 78.3794 50.0711 79.3799 50.0711H82.2955C84.3016 50.0711 86.5004 51.0824 87.4513 53.1359C87.4513 53.1359 89.2678 59.7684 89.2799 59.8797C89.3464 60.044 89.7055 66.2034 89.7055 66.2034C89.7466 67.0898 89.0622 67.8416 88.1771 67.8828C87.2919 67.9239 86.541 67.2388 86.4999 66.3523L86.1952 60.6404C86.1828 60.6069 85.3759 55.679 85.3759 55.679C85.3199 56.1062 84.753 59.3609 84.7805 63.2403L88.4517 74.9659C88.6067 74.9299 88.7623 74.8954 88.9193 74.8651C89.1629 74.818 89.4101 74.8064 89.6557 74.8221L89.157 73.2293L88.8198 72.1526L88.3853 70.7648L87.8533 69.0656C87.9353 69.0729 88.018 69.0778 88.1017 69.0777C88.1451 69.0777 88.1872 69.0767 88.2279 69.075L88.2325 69.0748C88.9778 69.0405 89.6518 68.7108 90.1276 68.2086C90.6051 67.7077 90.8992 67.0212 90.8989 66.279C90.8989 66.2354 90.8979 66.1925 90.896 66.15L90.8951 66.1338C90.895 66.1329 90.8052 64.5919 90.7069 63.028C90.6821 62.6332 90.6568 62.2375 90.6322 61.8638C90.608 61.4973 90.5846 61.1521 90.563 60.8515C90.5412 60.5476 90.5215 60.2896 90.5043 60.0937C90.4956 59.9952 90.4879 59.9134 90.4793 59.8399C90.4749 59.8023 90.4706 59.7679 90.4636 59.7236C90.4599 59.701 90.4558 59.6763 90.4478 59.6387C90.4468 59.6341 90.4446 59.6264 90.4435 59.6213C90.4411 59.6098 90.4389 59.6005 90.4371 59.5919C90.4346 59.5814 90.4318 59.5705 90.4293 59.5601C90.4193 59.5192 90.4088 59.4778 90.3936 59.4192C90.3241 59.1523 90.1793 58.6143 89.9986 57.947C89.4572 55.9485 88.6007 52.8208 88.6005 52.8202C88.5819 52.7522 88.5619 52.6978 88.5323 52.6339C87.9399 51.3525 86.954 50.4014 85.846 49.7892C85.6578 49.6852 85.4649 49.5937 85.2701 49.5085C84.9583 49.3721 84.6402 49.2563 84.3173 49.1647C84.4025 49.0895 84.489 49.0155 84.569 48.9352C85.3365 48.1682 85.8642 47.1553 86.0428 46.0308C86.086 45.7587 86.1147 45.4821 86.1146 45.1986C86.1147 45.0571 86.1045 44.918 86.0935 44.779C85.992 43.4926 85.4319 42.3278 84.575 41.4685C84.5729 41.4665 84.5712 41.4641 84.569 41.4619C84.0179 40.909 83.3382 40.4823 82.5833 40.217C82.0353 40.0242 81.4489 39.914 80.8375 39.9143C80.2907 39.9141 79.762 39.9981 79.2642 40.1538C78.8235 40.2916 78.41 40.4898 78.0273 40.7315C77.6936 40.9422 77.3824 41.1847 77.106 41.462C76.5156 42.0521 76.0642 42.7869 75.8057 43.6065C75.548 42.7899 75.0989 42.0575 74.5115 41.4685C74.5094 41.4664 74.5075 41.4641 74.5054 41.462C73.9543 40.909 73.2745 40.4824 72.5196 40.217C71.9717 40.0242 71.3853 39.914 70.774 39.9143C70.1597 39.914 69.5679 40.0218 69.017 40.217C68.6636 40.3422 68.3268 40.5026 68.0129 40.696L68.0787 40.217L68.2373 39.0625L68.292 38.6639C68.3102 38.5332 68.3191 38.4028 68.319 38.2736C68.319 37.5828 68.0647 36.9365 67.6378 36.4416C67.213 35.9469 66.6035 35.5945 65.9082 35.4968C65.7732 35.4774 65.6411 35.4687 65.5142 35.4688C64.8245 35.4688 64.179 35.7234 63.6848 36.1509C63.1898 36.577 62.8375 37.1887 62.7407 37.8864L62.7403 37.8891L62.4207 40.217L62.3496 40.7338C62.2565 40.5547 62.1509 40.3836 62.0392 40.217C61.85 39.9344 61.6379 39.6691 61.3989 39.4303C60.9641 38.994 60.4481 38.6377 59.8803 38.3737C59.4867 38.1909 59.0686 38.0534 58.6304 37.9714C58.3137 37.9122 57.9887 37.8775 57.6558 37.8777C56.8202 37.8773 56.0295 38.0782 55.3244 38.4254C54.8655 38.6513 54.4453 38.9407 54.0746 39.2829C54.021 39.3323 53.9642 39.3787 53.9127 39.4303C53.6736 39.6692 53.4609 39.9342 53.2719 40.217C53.1128 40.4552 52.9699 40.7056 52.849 40.9689L52.7458 40.217L52.426 37.8891L52.4256 37.886C52.3286 37.1885 51.9761 36.577 51.4813 36.1509C50.9872 35.7235 50.3418 35.4688 49.652 35.4688C49.5251 35.4687 49.3931 35.4774 49.2583 35.4968C48.563 35.5944 47.9533 35.9467 47.5283 36.4415C47.1014 36.9363 46.847 37.5825 46.8469 38.2734C46.8469 38.4021 46.8557 38.5337 46.8745 38.6666L46.8738 38.6618L46.9288 39.062L47.0875 40.217L47.1372 40.579C46.8865 40.4364 46.6212 40.3162 46.3458 40.217C45.8062 40.0224 45.2255 39.9139 44.6222 39.9143C44.0204 39.914 43.4435 40.0245 42.9053 40.217C42.1845 40.4748 41.535 40.8843 41.0075 41.4136C40.9897 41.4314 40.9733 41.4505 40.9558 41.4685C40.4006 42.0403 39.9763 42.7453 39.7356 43.5303C39.4872 42.7205 39.045 41.9945 38.4636 41.4136C37.7893 40.7369 36.9186 40.2502 35.9488 40.0365C35.5937 39.9583 35.2263 39.9141 34.849 39.9143C34.7982 39.9142 34.7488 39.9204 34.6984 39.9219C34.151 39.9378 33.625 40.0407 33.1322 40.217C32.4114 40.4748 31.7619 40.8843 31.2344 41.4136C31.217 41.4311 31.2017 41.4508 31.1845 41.4685C30.3472 42.3302 29.8132 43.4963 29.7502 44.779C29.746 44.8638 29.7373 44.9474 29.7374 45.0331C29.7372 45.3742 29.7723 45.7075 29.8362 46.0308C30.0367 47.0438 30.5346 47.9532 31.2344 48.6526C31.2695 48.6877 31.3086 48.7189 31.3447 48.753C31.0305 48.8258 30.7225 48.9223 30.4196 49.0315C30.3187 49.0679 30.216 49.1001 30.1169 49.1407C29.5889 49.3591 29.0871 49.6407 28.6453 50.0178C28.2057 50.3931 27.8228 50.8756 27.5978 51.4659C27.5801 51.5123 27.5749 51.5284 27.5617 51.5764C27.5616 51.5771 27.0446 53.4674 26.5264 55.3811C26.2672 56.3382 26.0077 57.3008 25.8118 58.0378C25.7139 58.4065 25.6319 58.7183 25.573 58.9484C25.5434 59.0637 25.5197 59.1578 25.5016 59.2339C25.4923 59.2724 25.4846 59.3055 25.4769 59.3417L25.4642 59.4065L25.4557 59.46C25.4526 59.4845 25.4484 59.5129 25.4452 59.5734L25.4451 59.5759L25.305 62.7719L25.211 64.9177L25.1494 66.3238L25.1496 66.3192C25.1476 66.361 25.1465 66.4043 25.1465 66.4491C25.1462 67.1741 25.4335 67.8447 25.8999 68.3338C26.3646 68.8243 27.0231 69.1461 27.7507 69.1797L27.7537 69.1798C27.7941 69.1816 27.836 69.1826 27.8792 69.1826C28.1006 69.1827 28.3165 69.1551 28.5239 69.1041C28.7264 69.0543 28.9208 68.9821 29.1035 68.8902C29.1044 69.1687 29.1053 69.4483 29.1061 69.7287C29.1104 71.2795 29.1125 72.8481 29.1132 74.3408C29.1135 74.7867 29.1135 75.2276 29.1135 75.657C29.1135 75.7736 29.1135 75.8867 29.1135 76.0018C29.1135 76.5008 29.1132 76.9849 29.113 77.4513C29.1122 78.7044 29.1107 79.823 29.1092 80.7299C29.5031 80.3177 29.9024 79.946 30.3026 79.6164ZM63.5882 69.0742C63.7747 69.069 63.9569 69.0455 64.1334 69.0048L63.7239 70.5136L63.5882 71.0138C63.5882 70.9733 63.5882 70.9327 63.5882 70.8923C63.5881 70.5964 63.5881 70.3002 63.5881 70.0034C63.588 69.6935 63.5881 69.3837 63.5882 69.0742ZM75.399 59.5599C75.4623 59.9421 75.5059 60.2026 75.5371 60.3854C75.5026 60.5467 75.4813 60.6451 75.4796 60.6503L75.3332 63.3923L75.2592 63.1556C75.2533 61.9973 75.3002 60.7954 75.399 59.5599ZM65.8495 49.7883C65.9774 49.4454 66.1051 49.1029 66.2283 48.7715C66.3004 48.5775 66.3708 48.3878 66.4392 48.2034C66.6532 48.513 66.8954 48.8011 67.1683 49.0568C67.2162 49.1018 67.2687 49.142 67.3183 49.1853C66.8129 49.3357 66.3198 49.5393 65.8495 49.7883ZM80.8375 41.108C83.0937 41.108 84.9228 42.9396 84.9228 45.1989C84.9228 47.4584 83.0937 49.29 80.8375 49.29C78.5811 49.29 76.7519 47.4584 76.7519 45.1989C76.7519 42.9396 78.5811 41.108 80.8375 41.108ZM77.1059 48.9355C77.1933 49.0232 77.2871 49.1043 77.3806 49.1857C76.8502 49.3438 76.3331 49.5594 75.8421 49.8255C75.8219 49.8142 75.8026 49.8009 75.7823 49.7896C75.3783 49.5664 74.9568 49.39 74.5272 49.2505C74.4361 49.2209 74.3451 49.1909 74.2535 49.1648C74.3387 49.0898 74.4252 49.0158 74.5053 48.9355C74.5223 48.9184 74.5379 48.9002 74.5547 48.883C75.1204 48.3018 75.5545 47.587 75.8056 46.7911C76.0642 47.6105 76.5154 48.3454 77.1059 48.9355ZM70.7739 49.2899C68.615 49.2899 66.8484 47.6127 66.6998 45.4889L66.9303 43.81C67.4983 42.2343 69.0046 41.1079 70.7739 41.1079C73.0301 41.1079 74.8592 42.9395 74.8592 45.199C74.8592 47.4583 73.0302 49.2899 70.7739 49.2899ZM57.6558 39.0712C59.9213 39.0712 61.7576 40.9103 61.7576 43.1787C61.7576 45.4473 59.9212 47.2862 57.6558 47.2862C55.3903 47.2862 53.5539 45.4473 53.5539 43.1787C53.5539 40.9103 55.3903 39.0712 57.6558 39.0712ZM40.6512 48.8803C40.3932 48.9557 40.1379 49.0394 39.89 49.1409C39.8426 49.1606 39.7968 49.1836 39.7499 49.2042C39.7176 49.1867 39.6857 49.1686 39.6515 49.154C39.5721 49.1204 39.4896 49.0955 39.4091 49.0649C39.0674 48.935 38.7185 48.8248 38.3632 48.7445C38.396 48.7133 38.4317 48.685 38.4636 48.653C38.7977 48.3191 39.0838 47.9363 39.3156 47.5184C39.4872 47.2089 39.6299 46.8808 39.7356 46.5363C39.9227 47.1464 40.2201 47.7088 40.6039 48.1975C40.7296 48.3575 40.8642 48.5097 41.0076 48.6529C41.0426 48.6881 41.0818 48.7192 41.1179 48.7533C40.9608 48.7897 40.8059 48.835 40.6512 48.8803ZM48.5113 48.8357C48.3853 48.8013 48.2574 48.7754 48.1301 48.747C48.335 48.5524 48.5235 48.3413 48.6941 48.1149C48.7985 48.3965 48.909 48.6938 49.0217 48.9968C48.853 48.9376 48.6829 48.883 48.5113 48.8357ZM44.6222 41.108C46.1996 41.108 47.5558 42.043 48.1777 43.3879L48.4781 45.5756C48.4798 45.5875 48.4816 45.6006 48.4915 45.6357C48.2015 47.517 46.5823 48.9589 44.6222 48.9589C42.4572 48.9589 40.7021 47.2015 40.7021 45.0334C40.7021 42.8656 42.4572 41.108 44.6222 41.108ZM30.9289 45.0334C30.9289 42.8656 32.6839 41.108 34.8491 41.108C37.014 41.108 38.7692 42.8656 38.7692 45.0334C38.7692 47.2015 37.014 48.9589 34.8491 48.9589C32.6839 48.9589 30.9289 47.2015 30.9289 45.0334Z" fill="#F26721" fill-opacity="0.4"/>
<path d="M85.1286 75.2852L85.1155 76.1968C85.8167 75.8454 86.549 75.5338 87.3116 75.2852H85.1286Z" fill="#F26721" fill-opacity="0.4"/>
<path d="M34.8309 67.8711L34.6948 77.3043C34.7927 77.2734 34.8897 77.2397 34.9879 77.2106L34.8309 67.8711Z" fill="#F26721" fill-opacity="0.4"/>
<path d="M44.6041 67.8711L44.4827 76.2889C44.5704 76.2901 44.658 76.2913 44.7458 76.2927L44.6041 67.8711Z" fill="#F26721" fill-opacity="0.4"/>
<path d="M71.3468 83.4354C71.3468 83.4354 71.4392 79.6918 71.5306 75.2852H70.7446L70.627 83.4354C70.627 84.0205 70.3118 84.5276 69.8451 84.8088C70.4994 84.7492 71.146 84.6567 71.782 84.5297C71.5141 84.2425 71.3468 83.8595 71.3468 83.4354Z" fill="#F26721" fill-opacity="0.4"/>
<path d="M67.0263 83.4359C67.0263 83.4359 67.0655 81.8512 67.118 79.5312C66.7832 79.9087 66.364 80.2247 65.9041 80.4923C65.9002 80.6624 65.8964 80.8274 65.8927 80.9855C65.8754 81.7285 65.861 82.3338 65.8509 82.7534C65.8409 83.1729 65.8351 83.4057 65.835 83.4064L65.8347 83.436C65.8345 83.6425 65.8588 83.8438 65.9016 84.0386C65.9663 84.3327 66.0782 84.6093 66.227 84.861C66.8104 84.8921 67.3949 84.9069 67.9782 84.9016C67.4181 84.6505 67.0263 84.0901 67.0263 83.4359Z" fill="#F26721" fill-opacity="0.4"/>
<path d="M57.9037 82.9492C57.738 82.978 57.5723 83.006 57.4062 83.0326C57.4054 83.2582 57.3661 83.4742 57.297 83.6767C57.5492 83.7116 57.8015 83.7461 58.0536 83.7834C57.9584 83.5491 57.905 83.2934 57.905 83.0248L57.9037 82.9492Z" fill="#F26721" fill-opacity="0.4"/>
<path d="M63.6119 83.0238V83.0193C63.6119 83.0181 63.6105 82.6142 63.6082 81.9039C63.6078 81.7699 63.6073 81.6238 63.6069 81.4688C63.2123 81.6066 62.8155 81.7374 62.4164 81.8611C62.4187 82.5986 62.4203 83.0239 62.4203 83.0239C62.4203 83.5459 62.2205 84.02 61.8954 84.378C62.3361 84.4443 62.7766 84.5075 63.2172 84.5662C63.2242 84.5533 63.2306 84.5401 63.2375 84.5271C63.4756 84.0777 63.6124 83.5647 63.6119 83.0238Z" fill="#F26721" fill-opacity="0.4"/>
<path d="M66.7231 75.2852C66.8976 75.4478 67.0583 75.6206 67.1993 75.8047C67.2029 75.6326 67.2066 75.4596 67.2102 75.2852H66.7231Z" fill="#F26721" fill-opacity="0.4"/>
<path d="M81.5941 75.2852H80.8081L80.7533 79.0835C81.0024 78.8817 81.26 78.6789 81.5255 78.4765C81.5474 77.4898 81.5708 76.4093 81.5941 75.2852Z" fill="#F26721" fill-opacity="0.4"/>
<path d="M57.5168 75.3956C57.603 75.3701 57.6891 75.3446 57.7753 75.318L57.6367 67.082L57.5168 75.3956Z" fill="#F26721" fill-opacity="0.4"/>
<path d="M68.2923 38.6602L68.2919 38.663V38.6632L68.2923 38.6602Z" fill="#F26721" fill-opacity="0.4"/>
<path d="M34.8492 48.9603C37.0141 48.9603 38.7693 47.2029 38.7693 45.0349C38.7693 42.867 37.0141 41.1094 34.8492 41.1094C32.6841 41.1094 30.929 42.867 30.929 45.0349C30.929 47.2029 32.684 48.9603 34.8492 48.9603Z" fill="url(#paint0_linear_1834_10242)"/>
<path d="M39.3817 67.6081C39.0077 68.1669 38.372 68.5316 37.6524 68.5316C37.6199 68.5316 37.5873 68.5308 37.5546 68.5294C36.9989 68.5035 36.4865 68.2625 36.1118 67.8508C35.7371 67.4391 35.5449 66.9058 35.5707 66.3508L35.8667 59.6014C35.8702 59.5243 35.8776 59.3642 37.9606 51.7468C37.9652 51.7296 37.9707 51.7129 37.977 51.6963C38.2024 51.1055 38.6337 50.6274 39.1845 50.2499C38.3028 49.874 37.2434 49.707 36.248 49.707H33.4503C31.5252 49.707 29.2768 50.4073 28.7111 51.8905C28.7111 51.8905 26.644 59.4497 26.6358 59.6266L26.34 66.3747C26.3004 67.2253 26.9571 67.9468 27.8066 67.9863C28.6559 68.0258 29.3765 67.3684 29.4159 66.5177L29.7079 59.8581C29.7205 59.8217 30.1405 58.3052 30.1405 58.3052C30.3086 59.6649 30.3113 73.1057 30.3026 79.6147C31.1586 78.91 32.0173 78.3874 32.8291 78.0169C33.4412 77.7375 34.0642 77.5056 34.6947 77.3067L34.8308 67.8735L34.9879 77.2131C36.4165 76.7901 37.8876 76.5513 39.385 76.4212C39.3803 73.7189 39.3775 70.5505 39.3817 67.6081Z" fill="url(#paint1_linear_1834_10242)"/>
<path d="M80.8375 49.2914C83.0938 49.2914 84.9228 47.4598 84.9228 45.2003C84.9228 42.941 83.0938 41.1094 80.8375 41.1094C78.5812 41.1094 76.752 42.941 76.752 45.2003C76.752 47.4598 78.5812 49.2914 80.8375 49.2914Z" fill="url(#paint2_linear_1834_10242)"/>
<path d="M84.7802 63.2356C84.7527 59.3562 85.3196 56.1015 85.3756 55.6743C85.3756 55.6743 86.1825 60.6022 86.1949 60.6358L86.4996 66.3477C86.5408 67.2342 87.2916 67.9193 88.1769 67.8782C89.062 67.8369 89.7464 67.0851 89.7053 66.1987C89.7053 66.1987 89.3462 60.0393 89.2796 59.8751C89.2675 59.7637 87.4511 53.1313 87.4511 53.1313C86.5001 51.0777 84.3014 50.0664 82.2952 50.0664H79.3796C78.3792 50.0664 77.265 50.3811 76.3141 50.9197C76.9807 51.4556 77.521 52.1271 77.8801 52.9027C77.8928 52.9301 77.9032 52.9585 77.9112 52.9876C79.7391 59.662 79.75 59.7623 79.7558 59.8162L79.7534 59.8166C79.8031 60.1498 79.9015 61.3273 80.184 66.1735C80.2389 67.3581 79.3211 68.3664 78.1384 68.4212C78.1046 68.4229 78.071 68.4236 78.0376 68.4236C77.5699 68.4236 77.1367 68.2743 76.7837 68.0201L79.0054 75.1159C79.057 75.2811 79.0272 75.4609 78.9248 75.6005C78.8225 75.74 78.66 75.8223 78.4872 75.8223H77.2623C77.2062 78.4877 77.1513 80.8542 77.119 82.2147C77.9564 81.5552 79.1904 80.3429 80.7532 79.077L80.808 75.2786H81.5941C81.5707 76.4027 81.5474 77.4832 81.5254 78.47C82.5968 77.6533 83.7996 76.8498 85.1154 76.1902L85.1285 75.2786H87.3115C87.6845 75.1569 88.0648 75.0511 88.4513 74.9612L84.7802 63.2356Z" fill="url(#paint3_linear_1834_10242)"/>
<path d="M75.4796 60.649C75.4814 60.6438 75.5027 60.5455 75.5371 60.3841C75.5059 60.2014 75.4623 59.9409 75.399 59.5586C75.3002 60.7941 75.2533 61.9961 75.2592 63.1543L75.3333 63.391L75.4796 60.649Z" fill="url(#paint4_linear_1834_10242)"/>
<path d="M40.7021 45.0349C40.7021 47.2029 42.4573 48.9603 44.6223 48.9603C46.5823 48.9603 48.2016 47.5184 48.4916 45.6371C48.4817 45.602 48.4799 45.5889 48.4782 45.5771L48.1778 43.3893C47.5559 42.0444 46.1997 41.1094 44.6223 41.1094C42.4573 41.1094 40.7021 42.867 40.7021 45.0349Z" fill="url(#paint5_linear_1834_10242)"/>
<path d="M49.2557 58.0318C49.2557 58.0318 49.7511 59.8168 49.7629 59.8491L50.0554 66.5177C50.0936 67.3438 50.7746 67.988 51.5921 67.988C51.6163 67.988 51.6404 67.9874 51.6647 67.9862C51.9132 67.9747 52.1444 67.9034 52.3472 67.789C52.3281 62.4968 52.2835 58.0159 52.1941 57.1702C51.5845 54.904 50.7602 51.8905 50.7602 51.8905C50.1166 50.3246 47.9461 49.707 46.021 49.707H43.2234C41.2985 49.707 39.0498 50.4073 38.4843 51.8905C38.4843 51.8905 36.4172 59.4497 36.409 59.6266L36.1131 66.3747C36.0736 67.2253 36.7303 67.9468 37.5797 67.9863C37.6041 67.9875 37.6282 67.9881 37.6524 67.9881C38.4698 67.9881 39.1507 67.3439 39.1891 66.5177L39.4811 59.8582C39.4937 59.8217 39.9137 58.3052 39.9137 58.3052C40.0572 59.4657 40.0803 69.4282 40.0785 76.3692C41.529 76.2747 43.0017 76.2703 44.4826 76.2914L44.604 67.8736L44.7457 76.2952C46.2141 76.3188 47.6894 76.3613 49.1582 76.361C49.1457 69.2191 49.1469 58.8631 49.2557 58.0318Z" fill="url(#paint6_linear_1834_10242)"/>
<path d="M70.7738 41.1094C69.0045 41.1094 67.4982 42.2358 66.9303 43.8115L66.6997 45.4904C66.8483 47.6143 68.615 49.2914 70.7738 49.2914C73.03 49.2914 74.8592 47.4598 74.8592 45.2005C74.8592 42.941 73.0301 41.1094 70.7738 41.1094Z" fill="url(#paint7_linear_1834_10242)"/>
<path d="M75.065 75.2786H77.2737H78.4872L74.7165 63.2356C74.6891 59.3562 75.2559 56.1015 75.3119 55.6743C75.3119 55.6743 76.1189 60.6022 76.1312 60.6358L76.4359 66.3477C76.4759 67.2086 77.1856 67.88 78.0375 67.88C78.0627 67.88 78.0878 67.8794 78.1132 67.8782C78.9984 67.8369 79.6826 67.0851 79.6416 66.1987C79.6416 66.1987 79.2826 60.0393 79.2159 59.8751C79.2038 59.7637 77.3873 53.1313 77.3873 53.1313C76.4364 51.0777 74.2377 50.0664 72.2316 50.0664H69.3159C67.3098 50.0664 64.8459 51.3306 64.1601 53.1315C64.1601 53.1315 63.535 55.4133 63.0151 57.3242C62.9652 58.767 62.9453 63.0029 62.9407 67.7752C63.095 67.8337 63.2606 67.8701 63.4344 67.8782C63.4598 67.8794 63.485 67.88 63.51 67.88C64.362 67.88 65.0717 67.2088 65.1116 66.3477L65.4159 60.6454C65.429 60.6075 66.4296 55.8465 66.4296 55.8465C66.5016 56.4292 66.9821 59.5533 66.9324 63.2356L64.0096 74.0066C65.0027 74.1225 65.9918 74.5964 66.723 75.2786H67.2101C67.2065 75.4529 67.2028 75.6259 67.1992 75.7981C67.7706 76.5438 68.042 77.4463 67.7721 78.37C67.6432 78.8111 67.4131 79.1913 67.1178 79.5242C67.0652 81.8441 67.0261 83.4288 67.0261 83.4288C67.0261 84.083 67.4178 84.6434 67.978 84.8945C68.6037 84.8889 69.2271 84.8585 69.8449 84.8022C70.3115 84.521 70.6268 84.0139 70.6268 83.4288L70.7444 75.2786H71.5304C71.439 79.6852 71.3466 83.4288 71.3466 83.4288C71.3466 83.8529 71.5138 84.2359 71.7818 84.5231C72.8764 84.3046 73.936 83.9773 74.9385 83.5155C74.9401 83.4862 74.9472 83.4585 74.9472 83.4288L75.065 75.2786Z" fill="url(#paint8_linear_1834_10242)"/>
<path d="M61.6485 44.1391C62.1804 41.9339 60.8264 39.7144 58.6242 39.1818C56.4221 38.6491 54.2056 40.005 53.6737 42.2102C53.1418 44.4154 54.4958 46.6349 56.698 47.1676C58.9002 47.7002 61.1166 46.3443 61.6485 44.1391Z" fill="url(#paint9_linear_1834_10242)"/>
<path d="M62.5041 56.7832L63.536 52.5712C64.273 50.6077 66.1293 45.6526 66.1501 45.5032L67.1117 38.5013C67.235 37.6188 66.6208 36.8034 65.7397 36.68C65.6639 36.6692 65.5886 36.6641 65.5142 36.6641C64.7236 36.6641 64.0335 37.2473 63.9207 38.0537L62.9705 44.9733C62.9621 44.9906 61.874 46.7992 61.0082 48.2686C60.3907 48.1347 59.7428 48.0726 59.1194 48.0726H56.1921C55.534 48.0726 54.84 48.1513 54.1828 48.3109C53.3133 46.834 52.2041 44.9908 52.1958 44.9733L51.2455 38.0537C51.1327 37.2474 50.4426 36.6641 49.652 36.6641C49.5776 36.6641 49.5024 36.6692 49.4267 36.68C48.5455 36.8034 47.9313 37.6189 48.0546 38.5013L49.0162 45.5032C49.04 45.6737 51.4551 52.1053 51.8674 53.2024L52.729 57.0692C52.8809 58.2979 52.9038 68.9541 52.9012 76.2253C54.3902 76.0985 55.86 75.868 57.2947 75.4604C57.3687 75.4393 57.4428 75.4167 57.5168 75.3947L57.6368 67.0812L57.7753 75.3171C59.3097 74.8438 60.8347 74.2285 62.3992 74.0358C62.39 66.756 62.3997 57.5808 62.5041 56.7832Z" fill="url(#paint10_linear_1834_10242)"/>
<path d="M54.6041 83.3718C55.5017 83.4431 56.3994 83.5514 57.297 83.6754C57.3662 83.473 57.4055 83.2568 57.4063 83.0312C56.4769 83.1796 55.5423 83.2959 54.6041 83.3718Z" fill="url(#paint11_linear_1834_10242)"/>
<path d="M62.4163 81.8594C60.9373 82.3182 59.4294 82.6813 57.9037 82.9465L57.905 83.0221C57.905 83.2907 57.9585 83.5464 58.0536 83.7807C59.3347 83.97 60.6155 84.1838 61.8954 84.3763C62.2204 84.0183 62.4202 83.5442 62.4202 83.0222C62.4202 83.0222 62.4187 82.5969 62.4163 81.8594Z" fill="url(#paint12_linear_1834_10242)"/>
<path d="M89.6555 74.8226C89.41 74.8069 89.1627 74.8185 88.9192 74.8656C88.7621 74.896 88.6065 74.9305 88.4515 74.9665C88.0649 75.0563 87.6846 75.1622 87.3117 75.2838C86.5491 75.5324 85.8167 75.844 85.1156 76.1955C83.7999 76.855 82.597 77.6586 81.5256 78.4752C81.2601 78.6776 81.0025 78.8804 80.7534 79.0822C79.1905 80.3481 77.9566 81.5604 77.1192 82.2199C77.0381 82.2838 76.9595 82.3442 76.8859 82.3972C76.2694 82.8413 75.616 83.2088 74.9389 83.5208C73.9363 83.9826 72.8767 84.3099 71.7821 84.5285C71.146 84.6554 70.4994 84.7479 69.8452 84.8075C69.2273 84.8638 68.6041 84.8942 67.9783 84.8998C67.3951 84.905 66.8104 84.8902 66.2271 84.8592C65.3091 84.8101 64.3949 84.722 63.4973 84.6066C63.404 84.5946 63.3106 84.5806 63.2173 84.5681C62.7768 84.5094 62.3362 84.4462 61.8955 84.3799C60.6156 84.1874 59.3348 83.9735 58.0537 83.7842C57.8016 83.7469 57.5494 83.7124 57.2971 83.6776C56.3995 83.5536 55.5018 83.4453 54.6042 83.374C55.5424 83.2982 56.4769 83.1818 57.4064 83.0334C57.5724 83.0069 57.7381 82.9789 57.9038 82.9501C59.4295 82.6848 60.9374 82.3218 62.4165 81.8629C62.8156 81.7392 63.2124 81.6084 63.607 81.4706C63.8326 81.3917 64.0593 81.3157 64.2834 81.2323C64.8283 81.0296 65.3905 80.7894 65.9042 80.4905C66.364 80.2229 66.7832 79.9069 67.1181 79.5294C67.4133 79.1965 67.6435 78.8163 67.7725 78.3752C68.0423 77.4516 67.7709 76.549 67.1996 75.8034C67.0585 75.6192 66.8978 75.4466 66.7234 75.2838C65.9921 74.6016 65.003 74.1278 64.01 74.0119C63.9531 74.0052 63.8962 73.9946 63.8394 73.9904C63.3546 73.9541 62.8752 73.9758 62.3993 74.0344C60.8348 74.2271 59.3098 74.8424 57.7754 75.3157C57.6893 75.3423 57.6031 75.3679 57.517 75.3934C57.4429 75.4154 57.369 75.4379 57.2949 75.459C55.8601 75.8667 54.3904 76.0971 52.9014 76.224C52.5054 76.2576 52.1081 76.2839 51.7096 76.3041C51.2577 76.327 50.8045 76.3433 50.3501 76.3523C49.9536 76.3602 49.5562 76.3628 49.1584 76.3629C47.6896 76.3633 46.2143 76.3208 44.7459 76.2972C44.6581 76.2958 44.5704 76.2946 44.4827 76.2934C43.0018 76.2723 41.5292 76.2766 40.0787 76.3712C39.847 76.3863 39.6157 76.4032 39.3852 76.4233C37.8878 76.5534 36.4166 76.7921 34.988 77.2151C34.8898 77.2442 34.7927 77.2779 34.6949 77.3087C34.0644 77.5076 33.4414 77.7395 32.8293 78.0189C32.0175 78.3894 31.1588 78.912 30.3028 79.6168C29.9026 79.9464 29.5033 80.318 29.1094 80.7305C25.9803 84.0072 23.2121 90.0005 23.3486 100.285C23.3539 100.681 23.3613 101.081 23.3753 101.489H43.4116C44.8642 99.2624 47.6534 97.7185 50.3813 97.2804C54.3615 96.6412 62.6092 96.7415 66.6378 96.5986C77.2989 96.2202 91.277 79.8251 92.2204 78.7401C92.3644 78.5745 92.4728 78.4031 92.5506 78.2289C93.2356 76.6967 91.4957 74.9407 89.6555 74.8226Z" fill="#F26721" fill-opacity="0.4"/>
<path d="M45.2057 104.676V103.227H21.2511V104.676V112.551H45.2057V104.676Z" fill="#F26721" fill-opacity="0.4"/>
</g>
<defs>
<linearGradient id="paint0_linear_1834_10242" x1="40.7344" y1="41.1094" x2="28.6763" y2="47.8804" gradientUnits="userSpaceOnUse">
<stop stop-color="#1F8297"/>
<stop offset="0.448113" stop-color="#166C7D"/>
<stop offset="1" stop-color="#003940"/>
</linearGradient>
<linearGradient id="paint1_linear_1834_10242" x1="42.6551" y1="49.707" x2="17.7605" y2="55.8135" gradientUnits="userSpaceOnUse">
<stop stop-color="#1F8297"/>
<stop offset="0.448113" stop-color="#166C7D"/>
<stop offset="1" stop-color="#003940"/>
</linearGradient>
<linearGradient id="paint2_linear_1834_10242" x1="86.9708" y1="41.1094" x2="74.4043" y2="48.1659" gradientUnits="userSpaceOnUse">
<stop stop-color="#1F8297"/>
<stop offset="0.448113" stop-color="#166C7D"/>
<stop offset="1" stop-color="#003940"/>
</linearGradient>
<linearGradient id="paint3_linear_1834_10242" x1="93.0639" y1="50.0664" x2="67.3805" y2="56.0828" gradientUnits="userSpaceOnUse">
<stop stop-color="#1F8297"/>
<stop offset="0.448113" stop-color="#166C7D"/>
<stop offset="1" stop-color="#003940"/>
</linearGradient>
<linearGradient id="paint4_linear_1834_10242" x1="75.6068" y1="59.5586" x2="75.0446" y2="59.5816" gradientUnits="userSpaceOnUse">
<stop stop-color="#1F8297"/>
<stop offset="0.448113" stop-color="#166C7D"/>
<stop offset="1" stop-color="#003940"/>
</linearGradient>
<linearGradient id="paint5_linear_1834_10242" x1="50.444" y1="41.1094" x2="38.4268" y2="47.8136" gradientUnits="userSpaceOnUse">
<stop stop-color="#1F8297"/>
<stop offset="0.448113" stop-color="#166C7D"/>
<stop offset="1" stop-color="#003940"/>
</linearGradient>
<linearGradient id="paint6_linear_1834_10242" x1="56.4167" y1="49.707" x2="27.0196" y2="59.7727" gradientUnits="userSpaceOnUse">
<stop stop-color="#1F8297"/>
<stop offset="0.448113" stop-color="#166C7D"/>
<stop offset="1" stop-color="#003940"/>
</linearGradient>
<linearGradient id="paint7_linear_1834_10242" x1="76.9043" y1="41.1094" x2="64.3469" y2="48.1509" gradientUnits="userSpaceOnUse">
<stop stop-color="#1F8297"/>
<stop offset="0.448113" stop-color="#166C7D"/>
<stop offset="1" stop-color="#003940"/>
</linearGradient>
<linearGradient id="paint8_linear_1834_10242" x1="83.8299" y1="50.0664" x2="52.3321" y2="58.5601" gradientUnits="userSpaceOnUse">
<stop stop-color="#1F8297"/>
<stop offset="0.448113" stop-color="#166C7D"/>
<stop offset="1" stop-color="#003940"/>
</linearGradient>
<linearGradient id="paint9_linear_1834_10242" x1="55.1196" y1="36.2157" x2="59.0612" y2="50.1537" gradientUnits="userSpaceOnUse">
<stop stop-color="#1F8297"/>
<stop offset="0.448113" stop-color="#166C7D"/>
<stop offset="1" stop-color="#003940"/>
</linearGradient>
<linearGradient id="paint10_linear_1834_10242" x1="71.9119" y1="36.6641" x2="35.9448" y2="46.4223" gradientUnits="userSpaceOnUse">
<stop stop-color="#1F8297"/>
<stop offset="0.448113" stop-color="#166C7D"/>
<stop offset="1" stop-color="#003940"/>
</linearGradient>
<linearGradient id="paint11_linear_1834_10242" x1="58.1086" y1="83.0313" x2="57.297" y2="85.0167" gradientUnits="userSpaceOnUse">
<stop stop-color="#1F8297"/>
<stop offset="0.448113" stop-color="#166C7D"/>
<stop offset="1" stop-color="#003940"/>
</linearGradient>
<linearGradient id="paint12_linear_1834_10242" x1="63.5523" y1="81.8594" x2="59.0249" y2="86.4275" gradientUnits="userSpaceOnUse">
<stop stop-color="#1F8297"/>
<stop offset="0.448113" stop-color="#166C7D"/>
<stop offset="1" stop-color="#003940"/>
</linearGradient>
<clipPath id="clip0_1834_10242">
<rect width="115" height="114" fill="white"/>
</clipPath>
</defs>
</svg>
