<svg width="305" height="243" viewBox="0 0 305 243" fill="none" xmlns="http://www.w3.org/2000/svg">
<g clip-path="url(#clip0_1081_11561)">
<rect x="0.666748" y="-8" width="305" height="273" fill="#98C6CF"/>
<g opacity="0.7">
<path d="M114.892 51.3979C113.139 51.3979 111.523 51.9664 110.203 52.92C108.688 46.6377 103.045 41.9647 96.2974 41.9647C91.3235 41.9647 86.9451 44.5025 84.3784 48.3519C82.8482 47.5347 81.1019 47.068 79.2457 47.068C77.1199 47.068 75.1424 47.6855 73.4646 48.737C72.18 43.6124 67.5566 39.8126 62.0338 39.8126C61.7944 39.8126 61.5576 39.822 61.322 39.8358C61.4571 38.989 61.5293 38.1209 61.5293 37.2358C61.5293 28.1801 54.1885 20.8393 45.1328 20.8393C42.5039 20.8393 40.0214 21.4618 37.819 22.5611C34.7498 12.9564 25.755 6 15.132 6C9.83963 6 4.95245 7.7281 1 10.6491V63.4086H121.843C122.519 62.2326 122.912 60.8727 122.912 59.4184C122.912 54.9886 119.321 51.3979 114.892 51.3979Z" fill="#E9F3F5"/>
<path d="M29.3085 37.2367H28.6803C28.6803 30.9832 32.1509 25.3473 37.7379 22.5293L38.0212 23.0903C32.6472 25.8008 29.3085 31.2219 29.3085 37.2367Z" fill="#98C6CF"/>
<path d="M42.4468 47.457C39.2004 39.3793 29.9883 35.4457 21.9106 38.6934C17.9651 40.2782 14.8852 43.3117 13.2387 47.2333L12.6595 46.9903C14.3713 42.9122 17.5731 39.7587 21.6763 38.1104C30.075 34.734 39.6546 38.8234 43.0297 47.2227L42.4468 47.457Z" fill="#98C6CF"/>
<path d="M53.105 44.1722L52.6263 43.7651C54.7414 41.2788 57.6925 39.775 60.9364 39.5312L60.9829 40.1582C57.9086 40.3893 55.1108 41.8147 53.105 44.1722Z" fill="#98C6CF"/>
<path d="M66.7828 56.5111L66.1974 56.2818C68.4324 50.5698 73.1437 48.5314 73.3428 48.4473L73.5872 49.0264C73.5407 49.0459 68.9167 51.0548 66.7828 56.5111Z" fill="#98C6CF"/>
<path d="M92.7665 56.2241C89.5892 50.5844 84.3257 48.6678 84.2729 48.649L84.4821 48.0566C84.7064 48.1358 90.0157 50.0624 93.3136 55.9163L92.7665 56.2241Z" fill="#98C6CF"/>
<path d="M107.551 59.8207L106.923 59.8132C106.986 54.8538 109.898 52.7494 110.023 52.6621L110.384 53.1753C110.356 53.1954 107.609 55.1987 107.551 59.8207Z" fill="#98C6CF"/>
</g>
<path d="M81.7723 47.3911L82.2291 36.1051C82.2337 35.9897 82.3311 35.8999 82.4464 35.9045C82.5559 35.9086 82.6424 35.9977 82.647 36.1051L83.1043 47.3911C83.1143 48.3027 81.7639 48.3077 81.7723 47.3911Z" fill="#BAD8DF"/>
<path d="M0.666791 149.616L1.12403 138.33C1.12863 138.214 1.22601 138.124 1.34137 138.129C1.45087 138.134 1.53739 138.222 1.54199 138.33L1.99923 149.616C2.00885 150.527 0.658014 150.532 0.666791 149.616Z" fill="#BAD8DF"/>
<path d="M12.4828 36.461L12.9397 25.1754C12.9442 25.06 13.0416 24.9702 13.157 24.9748C13.2665 24.9794 13.3526 25.068 13.3576 25.1754L13.8149 36.4614C13.8249 37.3722 12.4745 37.378 12.4828 36.461Z" fill="#BAD8DF"/>
<path d="M6.277 60.9009L6.73424 49.6148C6.73884 49.4995 6.83623 49.4096 6.95158 49.4142C7.06109 49.4188 7.1476 49.5074 7.1522 49.6148L7.60944 60.9009C7.61906 61.812 6.26864 61.8175 6.277 60.9009Z" fill="#BAD8DF"/>
<path d="M20.3725 11.0982L20.8297 -0.187885C20.8343 -0.30324 20.9317 -0.393101 21.0471 -0.388503C21.1566 -0.383906 21.2431 -0.295299 21.2477 -0.187885L21.7045 11.0982C21.7145 12.0093 20.3641 12.0147 20.3725 11.0982Z" fill="#BAD8DF"/>
<path d="M49.5442 29.6724L50.001 18.3863C50.0056 18.271 50.103 18.1811 50.2183 18.1857C50.3278 18.1903 50.4143 18.2789 50.4189 18.3863L50.8758 29.6724C50.8862 30.5839 49.5358 30.5894 49.5442 29.6724Z" fill="#BAD8DF"/>
<path d="M28.0362 42.104L28.493 30.818C28.4976 30.7026 28.595 30.6128 28.7103 30.6174C28.8198 30.6215 28.9064 30.7106 28.911 30.818L29.3682 42.104C29.3782 43.0152 28.0278 43.0206 28.0362 42.104Z" fill="#BAD8DF"/>
<path d="M142.506 128.95L142.963 117.664C142.968 117.548 143.065 117.458 143.181 117.463C143.29 117.468 143.377 117.556 143.381 117.664L143.838 128.95C143.848 129.861 142.498 129.866 142.506 128.95Z" fill="#BAD8DF"/>
<path d="M153.664 182.002L154.122 170.716C154.126 170.601 154.224 170.511 154.339 170.516C154.448 170.52 154.535 170.609 154.54 170.716L154.997 182.002C155.006 182.914 153.656 182.919 153.664 182.002Z" fill="#BAD8DF"/>
<path d="M136.086 139.606L136.544 128.32C136.548 128.205 136.646 128.115 136.761 128.119C136.87 128.124 136.957 128.213 136.962 128.32L137.419 139.606C137.428 140.517 136.078 140.523 136.086 139.606Z" fill="#BAD8DF"/>
<path d="M163.609 164.686L164.066 153.4C164.07 153.285 164.168 153.195 164.283 153.199C164.392 153.204 164.479 153.293 164.484 153.4L164.941 164.686C164.95 165.598 163.6 165.603 163.609 164.686Z" fill="#BAD8DF"/>
<path d="M27.2989 81.7525L27.7561 70.4664C27.7607 70.3511 27.8581 70.2612 27.9734 70.2658C28.083 70.2704 28.1695 70.359 28.1741 70.4664L28.6313 81.7525C28.6413 82.664 27.2905 82.6695 27.2989 81.7525Z" fill="#BAD8DF"/>
<path d="M83.8432 86.5552L84.3 75.2692C84.3046 75.1538 84.402 75.0639 84.5173 75.0685C84.6268 75.0731 84.7129 75.1617 84.718 75.2692L85.1752 86.5552C85.1852 87.4663 83.8348 87.4718 83.8432 86.5552Z" fill="#BAD8DF"/>
<path d="M66.695 77.4087L67.1522 66.1227C67.1568 66.0073 67.2542 65.9174 67.3696 65.922C67.4791 65.9266 67.5656 66.0152 67.5702 66.1227L68.0274 77.4087C68.037 78.3199 66.6866 78.3253 66.695 77.4087Z" fill="#BAD8DF"/>
<path d="M8.66105 154.784L9.1183 143.498C9.12289 143.382 9.22028 143.292 9.33563 143.297C9.44514 143.302 9.53165 143.39 9.53625 143.498L9.99349 154.784C10.0031 155.695 8.65228 155.701 8.66105 154.784Z" fill="#BAD8DF"/>
<path d="M21.674 98.3657L22.1313 87.0797C22.1359 86.9643 22.2333 86.8745 22.3486 86.8791C22.4581 86.8837 22.5446 86.9723 22.5492 87.0797L23.0061 98.3657C23.0161 99.2769 21.6657 99.2823 21.674 98.3657Z" fill="#BAD8DF"/>
<path d="M33.4796 100.692L33.9364 89.4059C33.941 89.2905 34.0384 89.2006 34.1538 89.2052C34.2633 89.2098 34.3498 89.2984 34.3544 89.4059L34.8112 100.692C34.8217 101.603 33.4712 101.608 33.4796 100.692Z" fill="#BAD8DF"/>
<path d="M44.2032 115.624L44.66 104.337C44.6646 104.222 44.762 104.132 44.8773 104.137C44.9868 104.141 45.0733 104.23 45.0779 104.337L45.5348 115.624C45.5452 116.535 44.1948 116.54 44.2032 115.624Z" fill="#BAD8DF"/>
<path d="M151.844 136.094L152.301 124.808C152.306 124.693 152.403 124.603 152.518 124.608C152.628 124.612 152.714 124.701 152.719 124.808L153.176 136.094C153.186 137.005 151.835 137.011 151.844 136.094Z" fill="#BAD8DF"/>
<path d="M114.251 144.809L114.708 133.523C114.712 133.408 114.81 133.318 114.925 133.322C115.034 133.327 115.121 133.416 115.126 133.523L115.583 144.809C115.593 145.721 114.242 145.726 114.251 144.809Z" fill="#BAD8DF"/>
<path d="M172.713 180.028L173.17 168.742C173.175 168.626 173.272 168.537 173.387 168.541C173.497 168.546 173.583 168.634 173.588 168.742L174.045 180.028C174.055 180.939 172.704 180.945 172.713 180.028Z" fill="#BAD8DF"/>
<path d="M98.1515 141.12L98.6088 129.834C98.6134 129.718 98.7108 129.628 98.8261 129.633C98.9356 129.638 99.0221 129.726 99.0267 129.834L99.4836 141.12C99.4932 142.031 98.1428 142.037 98.1515 141.12Z" fill="#BAD8DF"/>
<path d="M176.441 86.1724L176.898 74.8863C176.903 74.771 177 74.6811 177.116 74.6857C177.225 74.6903 177.312 74.7789 177.316 74.8863L177.774 86.1724C177.783 87.0835 176.433 87.089 176.441 86.1724Z" fill="#BAD8DF"/>
<path d="M43.5373 187.016L43.9941 175.73C43.9987 175.615 44.0961 175.525 44.2114 175.529C44.3209 175.534 44.4075 175.623 44.4121 175.73L44.8689 187.016C44.8789 187.927 43.5285 187.933 43.5373 187.016Z" fill="#BAD8DF"/>
<path d="M54.2599 191.315L54.7172 180.029C54.7218 179.914 54.8192 179.824 54.9345 179.828C55.044 179.833 55.1305 179.922 55.1351 180.029L55.592 191.315C55.6016 192.226 54.2512 192.232 54.2599 191.315Z" fill="#BAD8DF"/>
<path d="M158.601 147.784L159.058 136.498C159.062 136.382 159.16 136.292 159.275 136.297C159.384 136.302 159.471 136.39 159.476 136.498L159.933 147.784C159.943 148.695 158.592 148.701 158.601 147.784Z" fill="#BAD8DF"/>
<path d="M224.669 35.7583L225.127 24.4723C225.131 24.3569 225.229 24.2671 225.344 24.2717C225.454 24.2763 225.54 24.3649 225.545 24.4723L226.002 35.7583C226.012 36.6695 224.661 36.6749 224.669 35.7583Z" fill="#BAD8DF"/>
<path d="M219.272 14.0435L219.729 2.75743C219.734 2.64207 219.831 2.55221 219.947 2.55681C220.056 2.56141 220.143 2.65001 220.147 2.75743L220.604 14.0435C220.614 14.9546 219.264 14.9601 219.272 14.0435Z" fill="#BAD8DF"/>
<path d="M227.737 5.87551L228.194 -5.41054C228.199 -5.5259 228.296 -5.61576 228.411 -5.61116C228.521 -5.60656 228.607 -5.51796 228.612 -5.41054L229.069 5.87551C229.079 6.78665 227.729 6.79208 227.737 5.87551Z" fill="#BAD8DF"/>
<path d="M247.471 66.9868L247.928 55.7008C247.933 55.5854 248.03 55.4956 248.146 55.5002C248.255 55.5043 248.342 55.5934 248.346 55.7008L248.803 66.9868C248.813 67.898 247.462 67.9038 247.471 66.9868Z" fill="#BAD8DF"/>
<path d="M221.274 147.208L221.731 135.921C221.736 135.806 221.833 135.716 221.949 135.721C222.058 135.725 222.145 135.814 222.149 135.921L222.606 147.208C222.616 148.119 221.266 148.124 221.274 147.208Z" fill="#BAD8DF"/>
<path d="M283.287 5.01223L283.745 -6.27382C283.749 -6.38918 283.847 -6.47904 283.962 -6.47444C284.071 -6.46984 284.158 -6.38124 284.163 -6.27382L284.62 5.01223C284.629 5.92337 283.279 5.92922 283.287 5.01223Z" fill="#BAD8DF"/>
<path d="M213.488 127.858L213.945 116.572C213.95 116.457 214.047 116.367 214.163 116.371C214.272 116.376 214.359 116.464 214.363 116.572L214.82 127.858C214.83 128.769 213.48 128.775 213.488 127.858Z" fill="#BAD8DF"/>
<path d="M245.714 150.893L246.172 139.607C246.176 139.492 246.274 139.402 246.389 139.406C246.498 139.411 246.585 139.5 246.59 139.607L247.047 150.893C247.056 151.804 245.706 151.81 245.714 150.893Z" fill="#BAD8DF"/>
<path d="M226.092 189.081L226.549 177.795C226.554 177.679 226.651 177.589 226.766 177.594C226.876 177.598 226.962 177.687 226.967 177.795L227.424 189.081C227.434 189.992 226.083 189.997 226.092 189.081Z" fill="#BAD8DF"/>
<path d="M248.139 179.567L248.597 168.281C248.601 168.166 248.699 168.076 248.814 168.08C248.923 168.085 249.01 168.173 249.015 168.281L249.472 179.567C249.481 180.478 248.131 180.484 248.139 179.567Z" fill="#BAD8DF"/>
<path d="M253.974 182.051L254.431 170.765C254.435 170.65 254.533 170.56 254.648 170.565C254.758 170.569 254.844 170.657 254.849 170.765L255.306 182.051C255.316 182.962 253.965 182.968 253.974 182.051Z" fill="#BAD8DF"/>
<path d="M200.016 150.893L200.474 139.607C200.478 139.492 200.576 139.402 200.691 139.406C200.8 139.411 200.887 139.5 200.892 139.607L201.349 150.893C201.358 151.804 200.008 151.81 200.016 150.893Z" fill="#BAD8DF"/>
<path d="M192.853 141.266L193.31 129.98C193.315 129.865 193.412 129.775 193.528 129.779C193.637 129.784 193.724 129.873 193.728 129.98L194.186 141.266C194.195 142.177 192.845 142.183 192.853 141.266Z" fill="#BAD8DF"/>
<path d="M46.3739 79.3286L46.8308 68.0426C46.8354 67.9272 46.9327 67.8374 47.0481 67.842C47.1576 67.8466 47.2441 67.9352 47.2487 68.0426L47.7055 79.3286C47.716 80.2402 46.3656 80.2456 46.3739 79.3286Z" fill="#BAD8DF"/>
<path d="M117.354 3.61183L117.812 -7.67421C117.816 -7.78957 117.914 -7.87943 118.029 -7.87483C118.138 -7.87023 118.225 -7.78163 118.23 -7.67421L118.686 3.61183C118.696 4.52298 117.346 4.52841 117.354 3.61183Z" fill="#BAD8DF"/>
<path d="M75.1347 12.7427L75.5915 1.45665C75.5961 1.34129 75.6935 1.25143 75.8088 1.25603C75.9184 1.26021 76.0049 1.34881 76.0095 1.45665L76.4667 12.7427C76.4767 13.6543 75.1263 13.6597 75.1347 12.7427Z" fill="#BAD8DF"/>
<path d="M114.917 100.094L115.374 88.8082C115.379 88.6929 115.476 88.603 115.591 88.6076C115.701 88.6122 115.788 88.7008 115.792 88.8082L116.249 100.094C116.259 101.005 114.909 101.011 114.917 100.094Z" fill="#BAD8DF"/>
<path d="M74.9031 148.805L75.3604 137.519C75.365 137.404 75.4623 137.314 75.5777 137.319C75.6872 137.323 75.7737 137.412 75.7783 137.519L76.2351 148.805C76.2452 149.716 74.8948 149.722 74.9031 148.805Z" fill="#BAD8DF"/>
<path d="M86.7635 157.624L87.2207 146.338C87.2253 146.222 87.3227 146.132 87.438 146.137C87.5475 146.141 87.6341 146.23 87.6387 146.338L88.0955 157.624C88.1055 158.535 86.7551 158.54 86.7635 157.624Z" fill="#BAD8DF"/>
<path d="M93.1105 135.034L93.5674 123.748C93.572 123.632 93.6694 123.542 93.7847 123.547C93.8942 123.552 93.9803 123.64 93.9853 123.748L94.4426 135.034C94.4526 135.945 93.1022 135.95 93.1105 135.034Z" fill="#BAD8DF"/>
<path d="M107.924 86.6548L108.381 75.3688C108.386 75.2534 108.483 75.1635 108.599 75.1681C108.708 75.1727 108.795 75.2613 108.799 75.3688L109.256 86.6548C109.266 87.5664 107.915 87.5714 107.924 86.6548Z" fill="#BAD8DF"/>
<path d="M97.3465 109.465L97.8037 98.1793C97.8083 98.0639 97.9057 97.9741 98.0211 97.9787C98.1306 97.9829 98.2171 98.0719 98.2217 98.1793L98.6789 109.465C98.6885 110.376 97.3381 110.382 97.3465 109.465Z" fill="#BAD8DF"/>
<path d="M144.011 14.4868L144.469 3.20079C144.473 3.08543 144.57 2.99557 144.686 3.00017C144.795 3.00477 144.882 3.09337 144.886 3.20079L145.344 14.4868C145.354 15.398 144.003 15.4034 144.011 14.4868Z" fill="#BAD8DF"/>
<path d="M131.382 15.4888L131.839 4.20274C131.844 4.08738 131.941 3.99752 132.056 4.00212C132.166 4.00672 132.252 4.09533 132.257 4.20274L132.714 15.4888C132.724 16.3999 131.373 16.4058 131.382 15.4888Z" fill="#BAD8DF"/>
<path d="M136.086 5.87551L136.544 -5.41054C136.548 -5.5259 136.646 -5.61576 136.761 -5.61116C136.87 -5.60656 136.957 -5.51796 136.962 -5.41054L137.419 5.87551C137.428 6.78665 136.078 6.79208 136.086 5.87551Z" fill="#BAD8DF"/>
<path d="M176.396 3.48683L176.853 -7.79921C176.857 -7.91457 176.955 -8.00443 177.07 -7.99983C177.18 -7.99523 177.266 -7.90705 177.271 -7.79921L177.728 3.48683C177.738 4.39798 176.387 4.40341 176.396 3.48683Z" fill="#BAD8DF"/>
<path d="M121.186 77.7993L121.644 66.5133C121.648 66.3979 121.746 66.3081 121.861 66.3127C121.97 66.3168 122.057 66.4059 122.062 66.5133L122.519 77.7993C122.528 78.7109 121.178 78.7159 121.186 77.7993Z" fill="#BAD8DF"/>
<path d="M191.833 11.0982L192.29 -0.187885C192.295 -0.30324 192.392 -0.393101 192.507 -0.388503C192.617 -0.383906 192.703 -0.295299 192.708 -0.187885L193.165 11.0982C193.175 12.0093 191.824 12.0147 191.833 11.0982Z" fill="#BAD8DF"/>
<path d="M196.127 88.4204L196.585 77.1344C196.589 77.019 196.687 76.9292 196.802 76.9338C196.911 76.9379 196.998 77.027 197.003 77.1344L197.459 88.4204C197.469 89.332 196.119 89.337 196.127 88.4204Z" fill="#BAD8DF"/>
<path d="M175.171 145.252L175.629 133.966C175.633 133.851 175.731 133.761 175.846 133.766C175.956 133.77 176.042 133.859 176.047 133.966L176.504 145.252C176.513 146.164 175.163 146.169 175.171 145.252Z" fill="#BAD8DF"/>
<path d="M162.492 6.65676L162.948 -4.62929C162.953 -4.74465 163.05 -4.83451 163.166 -4.82991C163.275 -4.82573 163.362 -4.73671 163.366 -4.62929L163.824 6.65676C163.834 7.5679 162.483 7.57333 162.492 6.65676Z" fill="#BAD8DF"/>
<path d="M147.232 31.0396L147.69 19.7535C147.694 19.6382 147.792 19.5483 147.907 19.5529C148.016 19.5575 148.103 19.6461 148.108 19.7535L148.565 31.0396C148.574 31.9507 147.224 31.9561 147.232 31.0396Z" fill="#BAD8DF"/>
<path d="M168.812 13.2993L169.269 2.01329C169.274 1.89793 169.371 1.80807 169.487 1.81267C169.596 1.81727 169.683 1.90545 169.687 2.01329L170.144 13.2993C170.154 14.2105 168.804 14.2159 168.812 13.2993Z" fill="#BAD8DF"/>
<path d="M166.225 77.4087L166.682 66.1227C166.686 66.0073 166.784 65.9174 166.899 65.922C167.008 65.9266 167.095 66.0152 167.1 66.1227L167.557 77.4087C167.567 78.3199 166.216 78.3257 166.225 77.4087Z" fill="#BAD8DF"/>
<path d="M137.987 87.2446L138.444 75.9586C138.448 75.8432 138.546 75.7534 138.661 75.758C138.771 75.7626 138.857 75.8512 138.862 75.9586L139.319 87.2446C139.329 88.1558 137.978 88.1612 137.987 87.2446Z" fill="#BAD8DF"/>
<path d="M144.677 81.1587L145.135 69.8727C145.139 69.7573 145.237 69.6674 145.352 69.672C145.462 69.6766 145.548 69.7652 145.553 69.8727L146.01 81.1587C146.02 82.0699 144.669 82.0757 144.677 81.1587Z" fill="#BAD8DF"/>
<path d="M14.6608 78.7974L15.118 67.5113C15.1226 67.396 15.22 67.3061 15.3354 67.3107C15.4449 67.3153 15.531 67.4039 15.536 67.5113L15.9928 78.7974C16.0028 79.7085 14.6524 79.714 14.6608 78.7974Z" fill="#BAD8DF"/>
<path d="M81.1061 173.942L81.5629 162.656C81.5675 162.541 81.6649 162.451 81.7803 162.455C81.8898 162.46 81.9759 162.548 81.9809 162.656L82.4381 173.942C82.4482 174.853 81.0978 174.858 81.1061 173.942Z" fill="#BAD8DF"/>
<path d="M215.517 55.2583L215.974 43.9723C215.979 43.8569 216.076 43.7671 216.192 43.7717C216.301 43.7763 216.388 43.8649 216.392 43.9723L216.85 55.2583C216.859 56.1699 215.509 56.1753 215.517 55.2583Z" fill="#BAD8DF"/>
<path d="M222.606 91.5005L223.063 80.2145C223.068 80.0991 223.165 80.0092 223.281 80.0138C223.39 80.0184 223.476 80.107 223.481 80.2145L223.938 91.5005C223.948 92.4116 222.598 92.4175 222.606 91.5005Z" fill="#BAD8DF"/>
<path d="M108.823 41.3032L109.28 30.0172C109.285 29.9018 109.382 29.812 109.498 29.8166C109.607 29.8212 109.694 29.9098 109.698 30.0172L110.156 41.3032C110.165 42.2144 108.815 42.2198 108.823 41.3032Z" fill="#BAD8DF"/>
<path d="M72.8711 120.751L73.328 109.464C73.3326 109.349 73.4299 109.259 73.5453 109.264C73.6548 109.268 73.7409 109.357 73.7459 109.464L74.2032 120.751C74.2132 121.662 72.8628 121.668 72.8711 120.751Z" fill="#BAD8DF"/>
<path d="M97.5977 79.7837L98.0549 68.4977C98.0595 68.3823 98.1569 68.2924 98.2723 68.297C98.3818 68.3016 98.4683 68.3902 98.4729 68.4977L98.9297 79.7837C98.9397 80.6953 97.5893 80.7007 97.5977 79.7837Z" fill="#BAD8DF"/>
<path d="M168.146 128.95L168.603 117.664C168.608 117.548 168.705 117.458 168.82 117.463C168.93 117.468 169.016 117.556 169.021 117.664L169.478 128.95C169.488 129.861 168.137 129.867 168.146 128.95Z" fill="#BAD8DF"/>
<path d="M237.944 56.8052L238.401 45.5191C238.406 45.4038 238.503 45.3139 238.619 45.3185C238.728 45.3231 238.815 45.4117 238.819 45.5191L239.277 56.8052C239.286 57.7163 237.936 57.7222 237.944 56.8052Z" fill="#BAD8DF"/>
<path d="M257.798 5.87551L258.255 -5.41054C258.26 -5.5259 258.357 -5.61576 258.473 -5.61116C258.582 -5.60656 258.669 -5.51837 258.673 -5.41054L259.131 5.87551C259.14 6.78665 257.79 6.79208 257.798 5.87551Z" fill="#BAD8DF"/>
<path d="M212.045 5.01223L212.502 -6.27382C212.507 -6.38918 212.604 -6.47904 212.719 -6.47444C212.829 -6.46984 212.915 -6.38165 212.92 -6.27382L213.377 5.01223C213.387 5.92337 212.036 5.92922 212.045 5.01223Z" fill="#BAD8DF"/>
<path d="M107.946 120.751L108.404 109.464C108.408 109.349 108.506 109.259 108.621 109.264C108.73 109.268 108.817 109.357 108.822 109.464L109.279 120.751C109.288 121.662 107.938 121.668 107.946 120.751Z" fill="#BAD8DF"/>
<path d="M64.4066 41.3032L64.8639 30.0172C64.8685 29.9018 64.9659 29.812 65.0812 29.8166C65.1907 29.8212 65.2772 29.9098 65.2818 30.0172L65.7387 41.3032C65.7483 42.2144 64.3983 42.2198 64.4066 41.3032Z" fill="#BAD8DF"/>
<path d="M133.761 78.7974L134.218 67.5113C134.223 67.396 134.32 67.3061 134.435 67.3107C134.545 67.3153 134.632 67.4039 134.636 67.5113L135.093 78.7974C135.103 79.7085 133.753 79.714 133.761 78.7974Z" fill="#BAD8DF"/>
<path d="M81.1061 115.936L81.5629 104.65C81.5675 104.535 81.6649 104.445 81.7802 104.449C81.8897 104.454 81.9762 104.543 81.9808 104.65L82.4381 115.936C82.4481 116.848 81.0977 116.853 81.1061 115.936Z" fill="#BAD8DF"/>
<path d="M211.378 79.3286L211.836 68.0426C211.84 67.9272 211.938 67.8374 212.053 67.842C212.163 67.8466 212.249 67.9352 212.254 68.0426L212.711 79.3286C212.721 80.2402 211.37 80.2456 211.378 79.3286Z" fill="#BAD8DF"/>
<path d="M58.6828 20.1294L59.1396 8.84337C59.1442 8.72801 59.2416 8.63815 59.3569 8.64275C59.4664 8.64734 59.553 8.73553 59.5576 8.84337L60.0148 20.1294C60.0248 21.0406 58.6744 21.0464 58.6828 20.1294Z" fill="#BAD8DF"/>
<path d="M0.666787 87.9048L1.12403 76.6188C1.12863 76.5034 1.22601 76.4135 1.34137 76.4181C1.45087 76.4227 1.53697 76.5113 1.54199 76.6188L1.99881 87.9048C2.00884 88.8159 0.658428 88.8218 0.666787 87.9048Z" fill="#BAD8DF"/>
<path d="M67.3612 153.44L67.8185 142.154C67.8231 142.039 67.9205 141.949 68.0358 141.953C68.1453 141.958 68.2318 142.047 68.2364 142.154L68.6933 153.44C68.7029 154.351 67.3529 154.357 67.3612 153.44Z" fill="#BAD8DF"/>
<path d="M277.333 104.956L277.79 93.6695C277.795 93.5542 277.892 93.4643 278.007 93.4689C278.117 93.4735 278.203 93.5621 278.208 93.6695L278.665 104.956C278.675 105.867 277.324 105.872 277.333 104.956Z" fill="#BAD8DF"/>
<path d="M232.568 136.958L233.025 125.671C233.029 125.556 233.127 125.466 233.242 125.471C233.352 125.475 233.438 125.564 233.443 125.671L233.9 136.958C233.91 137.869 232.559 137.874 232.568 136.958Z" fill="#BAD8DF"/>
<path d="M225.336 155.702L225.793 144.416C225.798 144.3 225.895 144.21 226.01 144.215C226.12 144.22 226.206 144.308 226.211 144.416L226.668 155.702C226.677 156.613 225.327 156.619 225.336 155.702Z" fill="#BAD8DF"/>
<path d="M179.606 134.333L180.063 123.046C180.067 122.931 180.165 122.841 180.28 122.846C180.39 122.85 180.476 122.939 180.481 123.046L180.938 134.333C180.948 135.244 179.597 135.25 179.606 134.333Z" fill="#BAD8DF"/>
<path d="M213.488 158.6L213.945 147.314C213.95 147.199 214.047 147.109 214.163 147.113C214.272 147.118 214.359 147.207 214.363 147.314L214.82 158.6C214.83 159.511 213.48 159.517 213.488 158.6Z" fill="#BAD8DF"/>
<path d="M215.233 100.094L215.69 88.8082C215.695 88.6929 215.792 88.603 215.908 88.6076C216.017 88.6122 216.104 88.7004 216.108 88.8082L216.565 100.094C216.575 101.005 215.224 101.011 215.233 100.094Z" fill="#BAD8DF"/>
<path d="M298.453 55.2583L298.91 43.9723C298.915 43.8569 299.012 43.7671 299.127 43.7717C299.237 43.7763 299.323 43.8649 299.328 43.9723L299.785 55.2583C299.795 56.1699 298.444 56.1753 298.453 55.2583Z" fill="#BAD8DF"/>
<path d="M279.631 55.2583L280.088 43.9723C280.093 43.8569 280.19 43.7671 280.306 43.7717C280.415 43.7763 280.502 43.8649 280.506 43.9723L280.963 55.2583C280.973 56.1699 279.623 56.1753 279.631 55.2583Z" fill="#BAD8DF"/>
<path d="M290.089 20.5728L290.546 9.28672C290.55 9.17137 290.648 9.08151 290.763 9.08611C290.873 9.0907 290.959 9.17889 290.964 9.28672L291.421 20.5728C291.43 21.4839 290.08 21.4893 290.089 20.5728Z" fill="#BAD8DF"/>
<path d="M275.53 15.979L275.987 4.69297C275.992 4.57762 276.089 4.48776 276.205 4.49236C276.314 4.49695 276.401 4.58556 276.405 4.69297L276.862 15.979C276.872 16.8902 275.522 16.8956 275.53 15.979Z" fill="#BAD8DF"/>
<path d="M260.996 112.543L261.453 101.257C261.458 101.142 261.555 101.052 261.671 101.057C261.78 101.061 261.866 101.15 261.871 101.257L262.329 112.543C262.338 113.455 260.988 113.46 260.996 112.543Z" fill="#BAD8DF"/>
<path d="M254.64 106.456L255.097 95.1695C255.102 95.0542 255.199 94.9643 255.314 94.9689C255.424 94.9731 255.51 95.0621 255.515 95.1695L255.972 106.456C255.982 107.367 254.631 107.372 254.64 106.456Z" fill="#BAD8DF"/>
<path d="M286.744 66.5689L287.201 55.2828C287.206 55.1675 287.303 55.0776 287.418 55.0822C287.528 55.0868 287.614 55.1754 287.619 55.2828L288.076 66.5689C288.086 67.4804 286.735 67.4859 286.744 66.5689Z" fill="#BAD8DF"/>
<path d="M303.029 78.7974L303.486 67.5113C303.49 67.396 303.588 67.3061 303.703 67.3107C303.813 67.3153 303.899 67.4039 303.904 67.5113L304.361 78.7974C304.371 79.7085 303.02 79.714 303.029 78.7974Z" fill="#BAD8DF"/>
<path d="M295.318 132.848L295.775 121.562C295.78 121.447 295.877 121.357 295.993 121.361C296.102 121.366 296.189 121.455 296.193 121.562L296.651 132.848C296.66 133.759 295.31 133.765 295.318 132.848Z" fill="#BAD8DF"/>
<path d="M286.383 126.393L286.84 115.107C286.845 114.992 286.942 114.902 287.058 114.906C287.167 114.911 287.254 115 287.258 115.107L287.716 126.393C287.725 127.304 286.375 127.31 286.383 126.393Z" fill="#BAD8DF"/>
<path d="M248.805 129.651L249.262 118.365C249.267 118.249 249.364 118.16 249.48 118.164C249.589 118.168 249.676 118.257 249.68 118.365L250.138 129.651C250.147 130.562 248.797 130.568 248.805 129.651Z" fill="#BAD8DF"/>
<path d="M232.568 67.5103L233.025 56.2242C233.029 56.1089 233.127 56.019 233.242 56.0236C233.352 56.0282 233.438 56.1168 233.443 56.2242L233.9 67.5103C233.91 68.4214 232.559 68.4273 232.568 67.5103Z" fill="#BAD8DF"/>
<path d="M282.621 171.614L283.078 160.328C283.083 160.212 283.18 160.123 283.296 160.127C283.405 160.132 283.492 160.22 283.496 160.328L283.953 171.614C283.963 172.525 282.613 172.531 282.621 171.614Z" fill="#BAD8DF"/>
<path d="M304.681 168.28L305.138 159.009C305.15 158.752 305.544 158.747 305.556 159.009L306.013 168.28C306.03 169.199 304.665 169.204 304.681 168.28Z" fill="#BAD8DF"/>
<path d="M192.716 79.3286L193.173 68.0426C193.177 67.9272 193.275 67.8374 193.39 67.842C193.5 67.8466 193.586 67.9352 193.591 68.0426L194.048 79.3286C194.057 80.2402 192.707 80.2456 192.716 79.3286Z" fill="#BAD8DF"/>
<path d="M299.119 110.364L299.576 99.0777C299.581 98.9624 299.678 98.8725 299.794 98.8771C299.903 98.8817 299.99 98.9699 299.994 99.0777L300.451 110.364C300.461 111.275 299.111 111.28 299.119 110.364Z" fill="#BAD8DF"/>
<path d="M281.251 113.965L281.708 102.679C281.713 102.564 281.81 102.474 281.926 102.479C282.035 102.483 282.122 102.572 282.126 102.679L282.583 113.965C282.593 114.876 281.243 114.882 281.251 113.965Z" fill="#BAD8DF"/>
<path d="M89.8505 189.651L90.2909 180.961C90.2953 180.872 90.3892 180.803 90.5004 180.807C90.6059 180.81 90.6893 180.879 90.6938 180.961L91.1345 189.651C91.1442 190.353 89.8424 190.357 89.8505 189.651Z" fill="#BAD8DF"/>
<path d="M23.0571 181.235L23.4975 172.545C23.5019 172.456 23.5958 172.387 23.707 172.391C23.8126 172.394 23.8956 172.463 23.9004 172.545L24.3412 181.235C24.3508 181.937 23.0491 181.941 23.0571 181.235Z" fill="#BAD8DF"/>
<path d="M17.0749 200.054L17.5156 191.364C17.5201 191.275 17.6139 191.206 17.7251 191.209C17.8307 191.213 17.9141 191.281 17.9185 191.364L18.3593 200.054C18.3686 200.755 17.0668 200.76 17.0749 200.054Z" fill="#BAD8DF"/>
<path d="M30.6626 161.706L31.1034 153.016C31.1078 152.927 31.2017 152.858 31.3129 152.861C31.4185 152.865 31.5019 152.933 31.5063 153.016L31.9467 161.706C31.9563 162.408 30.6546 162.412 30.6626 161.706Z" fill="#BAD8DF"/>
<path d="M58.7834 176.007L59.2237 167.317C59.2282 167.228 59.322 167.159 59.4332 167.162C59.5388 167.166 59.6222 167.234 59.6266 167.317L60.067 176.007C60.0771 176.709 58.7753 176.713 58.7834 176.007Z" fill="#BAD8DF"/>
<path d="M38.0502 185.581L38.4906 176.891C38.495 176.802 38.5889 176.733 38.7001 176.736C38.8056 176.74 38.889 176.808 38.8935 176.891L39.3342 185.581C39.3439 186.283 38.0422 186.287 38.0502 185.581Z" fill="#BAD8DF"/>
<path d="M37.3395 216.109L37.7803 207.418C37.7847 207.329 37.8786 207.26 37.9898 207.264C38.0953 207.267 38.1787 207.336 38.1832 207.418L38.6239 216.109C38.6336 216.81 37.3314 216.815 37.3395 216.109Z" fill="#BAD8DF"/>
<path d="M91.8468 219.808L92.2872 211.118C92.2916 211.029 92.3855 210.959 92.4967 210.963C92.6023 210.967 92.6853 211.035 92.6901 211.118L93.1309 219.808C93.1406 220.509 91.8388 220.513 91.8468 219.808Z" fill="#BAD8DF"/>
<path d="M75.3163 212.765L75.7571 204.075C75.7615 203.986 75.8554 203.917 75.9666 203.92C76.0722 203.924 76.1556 203.992 76.16 204.075L76.6008 212.765C76.61 213.466 75.3083 213.471 75.3163 212.765Z" fill="#BAD8DF"/>
<path d="M31.9173 228.901L32.358 220.211C32.3625 220.122 32.4564 220.053 32.5676 220.057C32.6731 220.06 32.7565 220.129 32.7609 220.211L33.2013 228.901C33.211 229.603 31.9092 229.607 31.9173 228.901Z" fill="#BAD8DF"/>
<path d="M43.2975 230.692L43.7379 222.002C43.7423 221.913 43.8362 221.844 43.9474 221.848C44.053 221.851 44.1364 221.92 44.1408 222.002L44.5812 230.692C44.5912 231.394 43.2895 231.398 43.2975 230.692Z" fill="#BAD8DF"/>
<path d="M53.6347 242.191L54.0751 233.5C54.0795 233.411 54.1734 233.342 54.2846 233.346C54.3901 233.349 54.4735 233.418 54.478 233.5L54.9183 242.191C54.9284 242.892 53.6267 242.896 53.6347 242.191Z" fill="#BAD8DF"/>
<path d="M181.109 219.513L181.55 210.823C181.554 210.734 181.648 210.665 181.759 210.668C181.865 210.672 181.948 210.74 181.953 210.823L182.393 219.513C182.402 220.214 181.101 220.219 181.109 219.513Z" fill="#BAD8DF"/>
<path d="M227.6 180.694L228.041 172.004C228.045 171.915 228.139 171.846 228.25 171.85C228.356 171.853 228.439 171.922 228.444 172.004L228.884 180.694C228.894 181.396 227.592 181.4 227.6 180.694Z" fill="#BAD8DF"/>
<path d="M222.397 163.974L222.838 155.284C222.842 155.195 222.936 155.125 223.047 155.129C223.153 155.133 223.236 155.201 223.241 155.284L223.681 163.974C223.691 164.675 222.389 164.68 222.397 163.974Z" fill="#BAD8DF"/>
<path d="M230.557 157.685L230.998 148.994C231.002 148.906 231.096 148.836 231.207 148.84C231.313 148.844 231.396 148.912 231.4 148.994L231.841 157.685C231.85 158.386 230.549 158.39 230.557 157.685Z" fill="#BAD8DF"/>
<path d="M249.58 204.739L250.021 196.049C250.025 195.96 250.119 195.891 250.23 195.895C250.336 195.898 250.419 195.966 250.424 196.049L250.864 204.739C250.874 205.441 249.572 205.445 249.58 204.739Z" fill="#BAD8DF"/>
<path d="M284.106 157.019L284.547 148.328C284.551 148.24 284.645 148.17 284.756 148.174C284.862 148.177 284.945 148.246 284.95 148.328L285.39 157.019C285.4 157.72 284.098 157.725 284.106 157.019Z" fill="#BAD8DF"/>
<path d="M216.821 251.61L217.262 242.92C217.266 242.831 217.36 242.762 217.471 242.766C217.577 242.769 217.66 242.838 217.665 242.92L218.106 251.61C218.115 252.312 216.813 252.317 216.821 251.61Z" fill="#BAD8DF"/>
<path d="M55.7273 214.243L56.1677 205.553C56.1721 205.464 56.266 205.395 56.3772 205.399C56.4828 205.402 56.5662 205.47 56.5706 205.553L57.011 214.243C57.021 214.945 55.7193 214.949 55.7273 214.243Z" fill="#BAD8DF"/>
<path d="M124.151 155.942L124.592 147.252C124.596 147.163 124.69 147.094 124.801 147.098C124.907 147.101 124.99 147.17 124.994 147.252L125.435 155.942C125.444 156.644 124.143 156.648 124.151 155.942Z" fill="#BAD8DF"/>
<path d="M83.4521 162.972L83.8924 154.282C83.8969 154.193 83.9907 154.124 84.1019 154.127C84.2075 154.13 84.2909 154.199 84.2953 154.282L84.7361 162.972C84.7458 163.674 83.444 163.678 83.4521 162.972Z" fill="#BAD8DF"/>
<path d="M121.801 230.232L122.242 221.541C122.246 221.452 122.34 221.383 122.451 221.387C122.557 221.39 122.64 221.459 122.645 221.541L123.086 230.232C123.095 230.933 121.793 230.937 121.801 230.232Z" fill="#BAD8DF"/>
<path d="M115.06 219.884L115.501 211.194C115.505 211.105 115.599 211.036 115.711 211.039C115.816 211.043 115.899 211.111 115.904 211.194L116.344 219.884C116.354 220.586 115.052 220.59 115.06 219.884Z" fill="#BAD8DF"/>
<path d="M104.864 237.448L105.304 228.758C105.309 228.669 105.403 228.6 105.514 228.604C105.62 228.607 105.703 228.675 105.707 228.758L106.148 237.448C106.157 238.15 104.856 238.154 104.864 237.448Z" fill="#BAD8DF"/>
<path d="M149.847 164.316L150.288 155.625C150.293 155.536 150.386 155.467 150.498 155.471C150.603 155.474 150.687 155.543 150.691 155.625L151.132 164.316C151.141 165.017 149.84 165.021 149.847 164.316Z" fill="#BAD8DF"/>
<path d="M137.673 165.087L138.114 156.397C138.118 156.308 138.212 156.239 138.323 156.242C138.429 156.246 138.512 156.314 138.517 156.397L138.957 165.087C138.967 165.789 137.664 165.793 137.673 165.087Z" fill="#BAD8DF"/>
<path d="M142.208 157.685L142.649 148.994C142.653 148.906 142.747 148.836 142.858 148.84C142.964 148.844 143.047 148.912 143.052 148.994L143.492 157.685C143.502 158.386 142.2 158.39 142.208 157.685Z" fill="#BAD8DF"/>
<path d="M181.065 155.845L181.506 147.155C181.51 147.066 181.604 146.997 181.715 147C181.821 147.004 181.904 147.072 181.909 147.155L182.35 155.845C182.359 156.546 181.057 156.551 181.065 155.845Z" fill="#BAD8DF"/>
<path d="M127.845 213.066L128.285 204.375C128.29 204.286 128.384 204.217 128.495 204.221C128.6 204.224 128.684 204.293 128.688 204.375L129.129 213.066C129.138 213.767 127.837 213.771 127.845 213.066Z" fill="#BAD8DF"/>
<path d="M195.946 161.706L196.387 153.016C196.391 152.927 196.485 152.858 196.596 152.861C196.702 152.865 196.785 152.933 196.79 153.016L197.231 161.706C197.24 162.408 195.938 162.412 195.946 161.706Z" fill="#BAD8DF"/>
<path d="M200.086 221.243L200.527 212.553C200.531 212.464 200.625 212.395 200.736 212.399C200.842 212.402 200.925 212.47 200.93 212.553L201.37 221.243C201.379 221.945 200.078 221.949 200.086 221.243Z" fill="#BAD8DF"/>
<path d="M167.662 158.286L168.102 149.596C168.107 149.507 168.201 149.438 168.312 149.442C168.417 149.445 168.501 149.513 168.505 149.596L168.946 158.286C168.956 158.988 167.654 158.992 167.662 158.286Z" fill="#BAD8DF"/>
<path d="M152.952 177.062L153.393 168.371C153.398 168.283 153.491 168.213 153.603 168.217C153.708 168.22 153.792 168.289 153.796 168.371L154.237 177.062C154.246 177.763 152.945 177.767 152.952 177.062Z" fill="#BAD8DF"/>
<path d="M173.755 163.4L174.195 154.709C174.2 154.62 174.294 154.551 174.405 154.555C174.51 154.558 174.594 154.626 174.598 154.709L175.039 163.4C175.048 164.101 173.746 164.105 173.755 163.4Z" fill="#BAD8DF"/>
<path d="M171.261 212.765L171.701 204.075C171.705 203.986 171.799 203.917 171.911 203.92C172.016 203.924 172.099 203.992 172.104 204.075L172.545 212.765C172.554 213.466 171.253 213.471 171.261 212.765Z" fill="#BAD8DF"/>
<path d="M144.04 220.337L144.48 211.647C144.485 211.558 144.579 211.489 144.69 211.492C144.795 211.496 144.878 211.564 144.883 211.647L145.324 220.337C145.334 221.039 144.032 221.043 144.04 220.337Z" fill="#BAD8DF"/>
<path d="M150.49 215.651L150.93 206.961C150.935 206.872 151.029 206.803 151.14 206.807C151.245 206.81 151.329 206.879 151.333 206.961L151.774 215.651C151.783 216.353 150.481 216.358 150.49 215.651Z" fill="#BAD8DF"/>
<path d="M25.1567 213.833L25.5974 205.143C25.6019 205.054 25.6957 204.985 25.8069 204.988C25.9125 204.992 25.9955 205.06 26.0003 205.143L26.4407 213.833C26.4504 214.535 25.1486 214.539 25.1567 213.833Z" fill="#BAD8DF"/>
<path d="M218.778 195.708L219.218 187.018C219.222 186.929 219.316 186.86 219.427 186.863C219.533 186.867 219.616 186.935 219.621 187.018L220.062 195.708C220.071 196.41 218.769 196.414 218.778 195.708Z" fill="#BAD8DF"/>
<path d="M225.611 223.616L226.052 214.926C226.056 214.837 226.15 214.768 226.261 214.772C226.367 214.775 226.45 214.843 226.454 214.926L226.895 223.616C226.904 224.318 225.603 224.322 225.611 223.616Z" fill="#BAD8DF"/>
<path d="M115.927 184.962L116.368 176.272C116.372 176.183 116.466 176.114 116.577 176.117C116.683 176.121 116.766 176.189 116.771 176.272L117.211 184.962C117.22 185.664 115.919 185.668 115.927 184.962Z" fill="#BAD8DF"/>
<path d="M81.2699 246.138L81.7103 237.448C81.7147 237.359 81.8086 237.29 81.9198 237.293C82.0254 237.296 82.1084 237.365 82.1132 237.448L82.554 246.138C82.5636 246.839 81.2619 246.844 81.2699 246.138Z" fill="#BAD8DF"/>
<path d="M105.106 214.593L105.547 205.903C105.551 205.814 105.645 205.745 105.756 205.748C105.862 205.752 105.945 205.82 105.95 205.903L106.39 214.593C106.4 215.295 105.098 215.299 105.106 214.593Z" fill="#BAD8DF"/>
<path d="M240.396 196.901L240.837 188.211C240.842 188.122 240.935 188.053 241.047 188.057C241.152 188.06 241.236 188.129 241.24 188.211L241.681 196.901C241.69 197.603 240.388 197.608 240.396 196.901Z" fill="#BAD8DF"/>
<path d="M259.535 157.685L259.976 148.994C259.98 148.906 260.074 148.836 260.185 148.84C260.291 148.844 260.374 148.911 260.379 148.994L260.82 157.685C260.829 158.386 259.527 158.39 259.535 157.685Z" fill="#BAD8DF"/>
<path d="M215.43 157.019L215.871 148.328C215.875 148.24 215.969 148.17 216.08 148.174C216.186 148.177 216.269 148.245 216.274 148.328L216.714 157.019C216.724 157.72 215.422 157.725 215.43 157.019Z" fill="#BAD8DF"/>
<path d="M115.082 246.138L115.522 237.448C115.527 237.359 115.621 237.29 115.732 237.293C115.837 237.297 115.921 237.365 115.925 237.448L116.366 246.138C116.375 246.839 115.074 246.844 115.082 246.138Z" fill="#BAD8DF"/>
<path d="M73.1105 184.962L73.5513 176.272C73.5557 176.183 73.6496 176.114 73.7608 176.117C73.8663 176.121 73.9498 176.189 73.9542 176.272L74.3945 184.962C74.4038 185.664 73.1025 185.668 73.1105 184.962Z" fill="#BAD8DF"/>
<path d="M139.966 213.833L140.407 205.143C140.411 205.054 140.505 204.985 140.616 204.988C140.722 204.992 140.805 205.06 140.81 205.143L141.251 213.833C141.26 214.535 139.958 214.539 139.966 213.833Z" fill="#BAD8DF"/>
<path d="M89.2083 242.431L89.6486 233.741C89.6531 233.652 89.7469 233.583 89.8581 233.586C89.9637 233.59 90.0471 233.658 90.0515 233.741L90.4923 242.431C90.502 243.133 89.2002 243.137 89.2083 242.431Z" fill="#BAD8DF"/>
<path d="M214.788 214.243L215.229 205.553C215.233 205.464 215.327 205.395 215.438 205.399C215.544 205.402 215.627 205.47 215.631 205.553L216.072 214.243C216.081 214.945 214.78 214.949 214.788 214.243Z" fill="#BAD8DF"/>
<path d="M67.5927 168.659L68.0331 159.969C68.0375 159.88 68.1314 159.811 68.2426 159.815C68.3481 159.818 68.4315 159.886 68.436 159.969L68.8767 168.659C68.8864 169.361 67.5846 169.365 67.5927 168.659Z" fill="#BAD8DF"/>
<path d="M11.6668 220.847L12.1076 212.157C12.112 212.068 12.2059 211.999 12.3171 212.002C12.4226 212.006 12.5056 212.074 12.5105 212.157L12.9508 220.847C12.9605 221.548 11.6587 221.553 11.6668 220.847Z" fill="#BAD8DF"/>
<path d="M278.366 233.976L278.807 225.285C278.811 225.197 278.905 225.127 279.016 225.131C279.122 225.135 279.205 225.203 279.21 225.285L279.65 233.976C279.66 234.677 278.358 234.681 278.366 233.976Z" fill="#BAD8DF"/>
<path d="M218.503 230.232L218.944 221.541C218.948 221.452 219.042 221.383 219.153 221.387C219.259 221.39 219.342 221.458 219.347 221.541L219.788 230.232C219.797 230.933 218.495 230.937 218.503 230.232Z" fill="#BAD8DF"/>
<path d="M298.725 195.708L299.166 187.018C299.17 186.929 299.264 186.86 299.375 186.863C299.481 186.867 299.564 186.935 299.569 187.018L300.01 195.708C300.019 196.41 298.717 196.414 298.725 195.708Z" fill="#BAD8DF"/>
<path d="M280.581 195.708L281.022 187.018C281.027 186.929 281.121 186.86 281.232 186.863C281.337 186.867 281.421 186.935 281.425 187.018L281.866 195.708C281.875 196.41 280.573 196.414 280.581 195.708Z" fill="#BAD8DF"/>
<path d="M290.662 169.001L291.103 160.311C291.108 160.222 291.201 160.153 291.313 160.156C291.418 160.16 291.502 160.228 291.506 160.311L291.947 169.001C291.956 169.703 290.654 169.707 290.662 169.001Z" fill="#BAD8DF"/>
<path d="M276.628 165.464L277.069 156.774C277.073 156.685 277.167 156.616 277.278 156.619C277.384 156.623 277.467 156.691 277.472 156.774L277.913 165.464C277.922 166.166 276.62 166.17 276.628 165.464Z" fill="#BAD8DF"/>
<path d="M262.618 239.817L263.059 231.127C263.063 231.038 263.157 230.969 263.268 230.973C263.374 230.976 263.457 231.044 263.462 231.127L263.902 239.817C263.912 240.519 262.61 240.524 262.618 239.817Z" fill="#BAD8DF"/>
<path d="M256.49 235.13L256.931 226.44C256.936 226.351 257.029 226.282 257.141 226.285C257.246 226.289 257.33 226.357 257.334 226.44L257.775 235.13C257.784 235.832 256.482 235.836 256.49 235.13Z" fill="#BAD8DF"/>
<path d="M287.438 204.417L287.879 195.727C287.883 195.638 287.977 195.569 288.088 195.572C288.194 195.576 288.277 195.644 288.282 195.727L288.722 204.417C288.732 205.119 287.43 205.123 287.438 204.417Z" fill="#BAD8DF"/>
<path d="M303.136 213.833L303.577 205.143C303.581 205.054 303.675 204.985 303.786 204.988C303.892 204.992 303.975 205.06 303.98 205.143L304.42 213.833C304.43 214.535 303.128 214.539 303.136 213.833Z" fill="#BAD8DF"/>
<path d="M287.09 250.482L287.531 241.791C287.535 241.703 287.629 241.633 287.741 241.637C287.846 241.64 287.929 241.709 287.934 241.791L288.375 250.482C288.384 251.183 287.082 251.187 287.09 250.482Z" fill="#BAD8DF"/>
<path d="M235.213 205.142L235.654 196.451C235.659 196.363 235.753 196.293 235.864 196.297C235.969 196.301 236.052 196.369 236.057 196.451L236.498 205.142C236.507 205.843 235.205 205.848 235.213 205.142Z" fill="#BAD8DF"/>
<path d="M196.797 214.243L197.238 205.553C197.242 205.464 197.336 205.395 197.447 205.399C197.553 205.402 197.636 205.47 197.641 205.553L198.081 214.243C198.09 214.945 196.789 214.949 196.797 214.243Z" fill="#BAD8DF"/>
<path d="M299.367 238.14L299.808 229.45C299.813 229.361 299.907 229.292 300.018 229.295C300.123 229.299 300.207 229.367 300.211 229.45L300.652 238.14C300.661 238.841 299.359 238.846 299.367 238.14Z" fill="#BAD8DF"/>
<path d="M282.143 240.913L282.584 232.223C282.588 232.134 282.682 232.065 282.793 232.068C282.899 232.072 282.982 232.14 282.987 232.223L283.428 240.913C283.437 241.615 282.135 241.619 282.143 240.913Z" fill="#BAD8DF"/>
<path d="M305 243.682V219.702C301.715 218.043 298.011 217.108 294.089 217.108C287.227 217.108 281.027 219.967 276.585 224.571C275.327 222.838 273.282 221.706 270.966 221.706C267.14 221.706 264.038 224.786 264.038 228.586C264.038 229.159 264.116 229.713 264.249 230.244C264.247 230.244 264.241 230.243 264.241 230.243L264.247 230.246C263.319 230.097 262.368 230.017 261.399 230.017C254.732 230.017 248.914 233.668 245.776 239.098C243.607 236 239.999 233.97 235.912 233.97C231.323 233.97 227.336 236.528 225.315 240.286C222.724 237.844 219.252 236.347 215.44 236.347C213.406 236.347 211.402 236.784 209.562 237.608C206.69 229.28 198.935 223.557 189.912 223.557C182.686 223.557 176.31 227.301 172.573 232.971L172.571 232.969L172.573 232.971C172.572 232.973 172.571 232.975 172.569 232.976C171.057 231.653 169.077 230.843 166.903 230.843C162.874 230.843 159.502 233.604 158.578 237.322C155.319 232.828 150.053 229.957 144.309 229.957C141.516 229.957 138.776 230.631 136.313 231.895C132.993 221.282 123.064 213.688 111.79 213.688C101.434 213.688 92.2165 219.963 88.1991 229.35C85.0808 227.317 81.4484 226.226 77.6628 226.226C68.919 226.226 61.3949 232.079 58.9724 240.297C57.9183 240.016 56.8313 239.871 55.7365 239.871C53.7951 239.871 51.9529 240.311 50.3026 241.098C47.4661 237.237 42.8773 234.726 37.6956 234.726C36.565 234.726 35.4638 234.848 34.402 235.075C34.3861 235.04 34.3686 235.005 34.3524 234.97C32.075 227.641 25.2003 222.315 17.0727 222.315C15.4407 222.315 13.8608 222.533 12.357 222.936C9.58798 218.238 5.22241 214.583 0 212.703V243.682H305Z" fill="#E9F3F5"/>
<path d="M4.10489 225.802L3.72913 225.646C5.89178 220.493 12.2358 218.591 12.2996 218.572L12.4139 218.96C12.3521 218.978 6.1919 220.829 4.10489 225.802Z" fill="#98C6CF"/>
<path d="M28.0413 235.65L27.683 235.458C29.6895 231.762 34.1682 230.749 34.3577 230.707L34.4451 231.102C34.4004 231.112 29.9571 232.12 28.0413 235.65Z" fill="#98C6CF"/>
<path d="M31.4399 238.185C29.8881 235.549 26.0939 234.737 23.1561 236.409L22.9536 236.059C26.0808 234.279 30.1284 235.159 31.7908 237.981L31.4399 238.185Z" fill="#98C6CF"/>
<path d="M62.7629 238.558C61.4201 237.135 58.9345 236.328 58.9093 236.32L59.0342 235.936C59.1403 235.969 61.6442 236.782 63.0602 238.282L62.7629 238.558Z" fill="#98C6CF"/>
<path d="M96.606 232.687C92.8671 228.327 88.1388 225.382 88.0912 225.353L88.3056 225.01C88.3536 225.039 93.1339 228.016 96.9155 232.425L96.606 232.687Z" fill="#98C6CF"/>
<path d="M90.5524 235.378L90.2425 235.117C91.7459 233.356 94.3234 232.296 96.9757 232.35C99.471 232.4 101.674 233.411 103.021 235.123L102.701 235.371C101.429 233.755 99.3396 232.801 96.9671 232.754C96.9061 232.752 96.8443 232.752 96.7837 232.752C94.3185 232.752 91.9444 233.749 90.5524 235.378Z" fill="#98C6CF"/>
<path d="M122.21 236.259L121.9 235.998C123.427 234.211 125.953 233.169 128.633 233.231C131.128 233.281 133.332 234.292 134.679 236.004L134.359 236.253C133.087 234.637 130.997 233.682 128.625 233.635C126.098 233.589 123.637 234.589 122.21 236.259Z" fill="#98C6CF"/>
<path d="M169.384 236.711L169.075 236.45C170.578 234.69 173.171 233.642 175.807 233.683C178.303 233.733 180.506 234.744 181.853 236.456L181.533 236.705C180.262 235.089 178.172 234.134 175.799 234.087C173.253 234.04 170.81 235.042 169.384 236.711Z" fill="#98C6CF"/>
<path d="M131.218 233.963L130.832 233.835C132.331 229.373 136.069 227.615 136.227 227.543L136.398 227.91C136.361 227.926 132.659 229.672 131.218 233.963Z" fill="#98C6CF"/>
<path d="M124.562 234.413H124.155C124.155 229.969 120.516 226.353 116.042 226.353C113.553 226.353 111.237 227.465 109.687 229.403L109.368 229.153C110.996 227.117 113.428 225.949 116.042 225.949C120.74 225.949 124.562 229.746 124.562 234.413Z" fill="#98C6CF"/>
<path d="M157.837 237.314C157.806 235.108 158.359 233.178 158.382 233.098L158.773 233.21C158.768 233.229 158.213 235.165 158.243 237.309L157.837 237.314Z" fill="#98C6CF"/>
<path d="M175.26 233.926C174.822 230.786 172.47 228.987 172.446 228.968L172.691 228.646C172.793 228.723 175.201 230.567 175.663 233.871L175.26 233.926Z" fill="#98C6CF"/>
<path d="M204.863 237.432L204.537 237.19C206.199 234.977 209.335 233.329 209.467 233.26L209.657 233.617C209.625 233.634 206.469 235.293 204.863 237.432Z" fill="#98C6CF"/>
<path d="M225.472 235.985L225.168 236.254L226.844 238.126L227.148 237.858L225.472 235.985Z" fill="#98C6CF"/>
<path d="M245.576 234.854L244.47 237.914L244.853 238.051L245.958 234.99L245.576 234.854Z" fill="#98C6CF"/>
<path d="M277.33 233.099C271.909 226.694 264.316 226.282 264.24 226.278L264.258 225.875C264.336 225.878 272.107 226.3 277.641 232.838L277.33 233.099Z" fill="#98C6CF"/>
<path d="M275.083 236.686L274.678 236.641C274.859 235.03 275.941 233.574 277.646 232.649C279.768 231.496 282.356 231.404 284.4 232.408L284.22 232.77C282.293 231.823 279.85 231.913 277.841 233.003C276.254 233.865 275.249 235.207 275.083 236.686Z" fill="#98C6CF"/>
<path d="M273.711 225.467L273.322 225.349C274.154 222.622 276.346 220.357 276.439 220.262L276.731 220.543C276.709 220.566 274.513 222.836 273.711 225.467Z" fill="#98C6CF"/>
<g opacity="0.7">
<path d="M186.855 34.2376C188.481 34.2376 189.991 34.7315 191.245 35.5779C192.782 29.5018 198.27 25 204.824 25C212.274 25 218.351 30.8148 218.803 38.151C219.455 37.8799 220.17 37.7288 220.921 37.7288C223.971 37.7288 226.444 40.2015 226.444 43.2523C226.444 44.2537 226.174 45.1901 225.707 46H216.977H216.134H193.662H192.67H180.048C179.385 44.8486 179 43.5168 179 42.0924C179.001 37.7542 182.517 34.2376 186.855 34.2376Z" fill="#E9F3F5"/>
<path d="M194.723 41.283C193.887 37.1806 191.138 35.8859 191.11 35.8736L191.378 35.2793C191.503 35.3353 194.456 36.7063 195.361 41.1534L194.723 41.283Z" fill="#98C6CF"/>
<path d="M215.281 41.9149L214.687 41.6477C215.975 38.7827 218.59 37.8796 218.7 37.8418L218.907 38.4595C218.883 38.468 216.448 39.3176 215.281 41.9149Z" fill="#98C6CF"/>
<path d="M191.48 43.8117L191.009 43.3615C193.632 40.6189 196.435 40.4065 199.337 42.7301L198.93 43.239C196.3 41.1324 193.863 41.3207 191.48 43.8117Z" fill="#98C6CF"/>
</g>
<g opacity="0.7">
<path d="M259.825 93.038C259.932 92.4074 260 91.7627 260 91.102C260 84.732 254.836 79.5688 248.467 79.5688C245.628 79.5688 243.034 80.598 241.025 82.2981C241.031 82.0847 241.041 81.872 241.041 81.6566C241.041 70.0702 231.648 60.6774 220.062 60.6774C212.942 60.6774 206.654 64.2276 202.862 69.6511C199.755 58.8804 189.831 51 178.059 51C164.273 51 153.013 61.8059 152.281 75.4091C149.15 70.9193 143.95 67.9785 138.062 67.9785C128.491 67.9785 120.733 75.7365 120.733 85.3069C120.733 85.7305 120.754 86.1489 120.784 86.5648C119.106 84.955 116.834 83.9605 114.324 83.9605C109.255 83.9605 105.138 88.0029 105 93.0386H259.825V93.038Z" fill="#E9F3F5"/>
<path d="M123.172 90.5115C122.476 88.4986 120.591 86.8222 120.572 86.8055L120.995 86.3242C121.077 86.3966 123.024 88.1269 123.777 90.3026L123.172 90.5115Z" fill="#98C6CF"/>
<path d="M152.29 84.2765C151.607 80.5647 151.947 75.5963 151.962 75.3867L152.601 75.4316C152.597 75.4822 152.252 80.5295 152.921 84.1599L152.29 84.2765Z" fill="#98C6CF"/>
<path d="M147.128 88.0374L146.581 87.7029C147.771 85.7508 149.926 84.4006 152.493 83.9988C155.295 83.5585 158.08 84.3237 160.131 86.0963L159.712 86.5807C157.804 84.9325 155.209 84.2231 152.593 84.6313C150.211 85.0043 148.22 86.2456 147.128 88.0374Z" fill="#98C6CF"/>
<path d="M199.504 79.853L198.868 79.7742C199.586 74.0239 202.473 69.6559 202.596 69.4727L203.128 69.8296C203.1 69.8725 200.202 74.2591 199.504 79.853Z" fill="#98C6CF"/>
<path d="M207.853 83.266C203.179 79.6581 196.28 79.2428 191.807 82.2996L191.446 81.7703C196.137 78.5635 203.36 78.9877 208.245 82.7591L207.853 83.266Z" fill="#98C6CF"/>
<path d="M193.424 81.0362C189.918 72.5771 181.769 74.5195 181.424 74.606L181.267 73.985C181.357 73.9626 190.296 71.8132 194.016 80.7908L193.424 81.0362Z" fill="#98C6CF"/>
<path d="M238.062 88.2998L237.438 88.1524C238.331 84.3855 240.707 82.1561 240.807 82.0625L241.243 82.5329C241.219 82.554 238.908 84.731 238.062 88.2998Z" fill="#98C6CF"/>
</g>
<path d="M67.1849 54H67.0883V101.472H67.1849V54Z" fill="white"/>
<path d="M72.0642 95.6055H63.7672L60.6667 106.073H65.7714L62.0892 116.002L75.9329 101.971H68.5216L72.0642 95.6055Z" fill="#FFDD82"/>
<path d="M68.5216 101.887H66.6804V102.054H68.5216V101.887Z" fill="#FFAD0D"/>
<path d="M66.1817 104.672L65.6912 106.047L65.8483 106.103L66.3388 104.728L66.1817 104.672Z" fill="#FFAD0D"/>
<path d="M212.758 31H212.637V43.8287H212.758V31Z" fill="white"/>
<path d="M217.94 39.4551H208.194L204.552 51.7507H210.548L206.223 63.4129L222.484 46.9324H213.779L217.94 39.4551Z" fill="#FFDD82"/>
<path d="M213.779 46.8125H211.616V47.0545H213.779V46.8125Z" fill="#FFAD0D"/>
<path d="M211.015 50.1022L210.439 51.7168L210.667 51.7981L211.243 50.1835L211.015 50.1022Z" fill="#FFAD0D"/>
<path d="M236.144 27H235.982V134.013H236.144V27Z" fill="white"/>
<path d="M243.303 133H234.104L230.667 144.606H236.326L232.244 155.613L247.592 140.058H239.376L243.303 133Z" fill="#FFDD82"/>
<path d="M239.375 139.965H237.334V140.15H239.375V139.965Z" fill="#FFAD0D"/>
<path d="M236.785 143.058L236.241 144.582L236.415 144.644L236.959 143.12L236.785 143.058Z" fill="#FFAD0D"/>
<path d="M304.737 53.5498C304.555 53.5498 304.375 53.5598 304.199 53.5787C304.074 50.5516 301.582 48.1356 298.524 48.1356C297.413 48.1356 296.378 48.4557 295.502 49.0069C295.373 43.4586 290.839 39 285.26 39C280.688 39 276.818 41.9933 275.497 46.1264C274.549 45.6534 273.481 45.3856 272.35 45.3856C268.453 45.3856 265.294 48.5446 265.294 52.4416C265.294 52.8225 265.325 53.196 265.383 53.5605C265.282 53.5545 265.18 53.5506 265.077 53.5506C262.273 53.5506 260 55.8236 260 58.6277C260 61.4317 262.273 63.7048 265.077 63.7048C267.708 63.7048 302.186 63.7048 304.737 63.7048C307.541 63.7048 309.814 61.4317 309.814 58.6277C309.814 55.8229 307.541 53.5498 304.737 53.5498Z" fill="white"/>
<path d="M293.022 53.7767H292.712C292.712 51.7747 293.73 49.9512 295.436 48.8984L295.599 49.1623C293.985 50.1582 293.022 51.8832 293.022 53.7767Z" fill="#98C6CF"/>
<path d="M279.449 52.4441H279.139C279.139 49.8638 277.707 47.5377 275.401 46.3744L275.54 46.0977C277.951 47.3144 279.449 49.7461 279.449 52.4441Z" fill="#98C6CF"/>
<path d="M273.523 56.8474L273.236 56.7318C273.942 54.9763 275.288 53.5999 277.029 52.8572C278.769 52.115 280.695 52.0943 282.45 52.7993C284.221 53.5106 285.603 54.8717 286.341 56.6312L286.056 56.751C285.35 55.0684 284.028 53.767 282.335 53.0866C278.869 51.6946 274.916 53.3815 273.523 56.8474Z" fill="#98C6CF"/>
<path d="M303.471 57.792C303.061 56.8143 302.293 56.0589 301.31 55.6641C300.436 55.3134 299.465 55.2864 298.575 55.5904L298.475 55.297C299.435 54.9695 300.483 54.9976 301.426 55.3767C302.487 55.8024 303.314 56.618 303.757 57.6721L303.471 57.792Z" fill="#98C6CF"/>
<path d="M268.904 55.4399C268.044 54.4298 266.845 53.8185 265.527 53.7196L265.55 53.4102C266.952 53.5154 268.226 54.1649 269.14 55.239L268.904 55.4399Z" fill="#98C6CF"/>
<path d="M300.959 55.4399L300.723 55.239C301.636 54.1652 302.911 53.5158 304.312 53.4102L304.335 53.7196C303.018 53.8188 301.819 54.4298 300.959 55.4399Z" fill="#98C6CF"/>
<path d="M61.7368 55.5498C61.5551 55.5498 61.3755 55.5598 61.1987 55.5787C61.0738 52.5516 58.5817 50.1356 55.5241 50.1356C54.413 50.1356 53.3776 50.4557 52.502 51.0069C52.3732 45.4586 47.8385 41 42.2596 41C37.6882 41 33.8179 43.9933 32.497 48.1264C31.5491 47.6534 30.4811 47.3856 29.3497 47.3856C25.4531 47.3856 22.2941 50.5446 22.2941 54.4416C22.2941 54.8225 22.325 55.196 22.3833 55.5605C22.282 55.5545 22.1799 55.5506 22.0771 55.5506C19.273 55.5506 17 57.8236 17 60.6277C17 63.4317 19.273 65.7048 22.0771 65.7048C24.7083 65.7048 59.186 65.7048 61.7372 65.7048C64.5412 65.7048 66.8143 63.4317 66.8143 60.6277C66.8139 57.8229 64.5409 55.5498 61.7368 55.5498Z" fill="white"/>
<path d="M50.0219 55.7767H49.7122C49.7122 53.7747 50.7304 51.9512 52.4362 50.8984L52.5991 51.1623C50.9851 52.1582 50.0219 53.8832 50.0219 55.7767Z" fill="#98C6CF"/>
<path d="M36.4488 54.4441H36.139C36.139 51.8638 34.7068 49.5377 32.4006 48.3744L32.5404 48.0977C34.9515 49.3144 36.4488 51.7461 36.4488 54.4441Z" fill="#98C6CF"/>
<path d="M30.5233 58.8474L30.236 58.7318C30.9416 56.9763 32.2881 55.5999 34.0288 54.8572C35.7694 54.115 37.6946 54.0943 39.4505 54.7993C41.221 55.5106 42.6031 56.8717 43.3415 58.6312L43.0559 58.751C42.3499 57.0684 41.0282 55.767 39.3349 55.0866C35.8693 53.6946 31.9161 55.3815 30.5233 58.8474Z" fill="#98C6CF"/>
<path d="M60.4713 59.792C60.0609 58.8143 59.2934 58.0589 58.3103 57.6641C57.4365 57.3134 56.4651 57.2864 55.5749 57.5904L55.475 57.297C56.4349 56.9695 57.4827 56.9976 58.4259 57.3767C59.4865 57.8024 60.3141 58.618 60.7569 59.6721L60.4713 59.792Z" fill="#98C6CF"/>
<path d="M25.9037 57.4399C25.044 56.4298 23.8451 55.8185 22.5273 55.7196L22.5505 55.4102C23.9518 55.5154 25.2265 56.1649 26.1398 57.239L25.9037 57.4399Z" fill="#98C6CF"/>
<path d="M57.9589 57.4399L57.7228 57.239C58.6365 56.1652 59.9112 55.5158 61.3121 55.4102L61.3353 55.7196C60.0179 55.8188 58.8189 56.4298 57.9589 57.4399Z" fill="#98C6CF"/>
<path d="M135.73 75.6685C135.51 75.6685 135.292 75.6806 135.077 75.7035C134.925 72.0276 131.899 69.0937 128.186 69.0937C126.837 69.0937 125.58 69.4824 124.516 70.1518C124.36 63.4143 118.853 58 112.078 58C106.527 58 101.827 61.6348 100.223 66.6539C99.0723 66.0795 97.7753 65.7543 96.4014 65.7543C91.6696 65.7543 87.8335 69.5904 87.8335 74.3227C87.8335 74.7852 87.871 75.2387 87.9419 75.6814C87.8188 75.6741 87.6948 75.6693 87.57 75.6693C84.1649 75.6693 81.4047 78.4296 81.4047 81.8347C81.4047 85.2397 84.1649 88 87.57 88C90.7652 88 132.633 88 135.731 88C139.136 88 141.896 85.2397 141.896 81.8347C141.896 78.4287 139.135 75.6685 135.73 75.6685Z" fill="white"/>
<path d="M121.505 75.9454H121.128C121.128 73.5142 122.365 71.2999 124.436 70.0215L124.634 70.342C122.674 71.5513 121.505 73.646 121.505 75.9454Z" fill="#98C6CF"/>
<path d="M105.022 74.324H104.646C104.646 71.1905 102.907 68.3659 100.106 66.9532L100.276 66.6172C103.204 68.0947 105.022 71.0476 105.022 74.324Z" fill="#98C6CF"/>
<path d="M97.8266 79.673L97.4776 79.5326C98.3345 77.4008 99.9697 75.7293 102.083 74.8275C104.197 73.9261 106.535 73.9011 108.667 74.7571C110.817 75.6209 112.496 77.2738 113.392 79.4104L113.045 79.5559C112.188 77.5126 110.583 75.9323 108.527 75.1061C104.318 73.4156 99.5179 75.4641 97.8266 79.673Z" fill="#98C6CF"/>
<path d="M134.194 80.8187C133.695 79.6315 132.763 78.7141 131.57 78.2347C130.508 77.8088 129.329 77.776 128.248 78.1453L128.126 77.789C129.292 77.3912 130.564 77.4253 131.71 77.8857C132.998 78.4027 134.003 79.393 134.541 80.6732L134.194 80.8187Z" fill="#98C6CF"/>
<path d="M92.2168 77.9629C91.1729 76.7363 89.717 75.9939 88.1168 75.8738L88.1449 75.498C89.8466 75.6259 91.3945 76.4145 92.5036 77.7189L92.2168 77.9629Z" fill="#98C6CF"/>
<path d="M131.143 77.9629L130.856 77.7189C131.966 76.415 133.514 75.6263 135.215 75.498L135.243 75.8738C133.643 75.9943 132.187 76.7363 131.143 77.9629Z" fill="#98C6CF"/>
<path d="M157.442 232.93L157.87 232.93L157.87 199.583L157.442 199.583L157.442 232.93Z" fill="white"/>
<path d="M151.244 78.0762L152.047 73.001L153.097 73.001L153.839 78.036L151.244 78.0762Z" fill="#003940"/>
<path d="M150.973 190.447L153.749 190.447L153.749 110.173L150.973 110.173L150.973 190.447Z" fill="white"/>
<path d="M154.096 192.556L154.096 181.597L150.626 181.597L150.626 192.556C150.626 196.432 153.78 199.586 157.656 199.586C161.533 199.586 164.687 196.432 164.687 192.556L164.687 189.695C164.687 188.737 163.91 187.96 162.952 187.96C161.994 187.96 161.217 188.737 161.217 189.695L161.217 192.556C161.217 194.519 159.62 196.116 157.657 196.116C155.694 196.116 154.096 194.519 154.096 192.556Z" fill="#003940"/>
<path d="M73.6668 116.824C73.6668 116.824 94.6177 78.0168 152.361 78.0168C210.105 78.0168 231.056 116.824 231.056 116.824C220.976 111.255 213.222 111.37 208.192 116.824C195.801 109.92 184.743 110.441 175.395 116.824C160.325 108.01 144.969 107.898 129.328 116.824C120.367 110.335 109.411 109.483 96.5316 116.824C90.4948 112.404 82.6228 112.205 73.6668 116.824Z" fill="#69ABB9"/>
<path d="M152.361 77.5902C193.15 77.5902 208.441 116.282 208.591 116.673L207.792 116.979C207.644 116.594 192.552 78.4458 152.361 78.4458C112.17 78.4458 97.0783 116.594 96.9303 116.979L96.1312 116.673C96.2809 116.281 111.572 77.5902 152.361 77.5902Z" fill="#E9F3F5"/>
<path d="M152.361 77.5907C159.568 77.5907 165.71 84.2119 170.617 97.272C174.235 106.903 175.803 116.662 175.818 116.759L174.973 116.893C174.913 116.508 168.705 78.4454 152.361 78.4454C136.017 78.4454 129.81 116.508 129.75 116.893L128.904 116.759C128.921 116.662 130.487 106.902 134.105 97.272C139.013 84.2119 145.155 77.5907 152.361 77.5907Z" fill="#E9F3F5"/>
</g>
<defs>
<clipPath id="clip0_1081_11561">
<rect width="305" height="243" fill="white"/>
</clipPath>
</defs>
</svg>
