<svg width="83" height="83" viewBox="0 0 83 83" fill="none" xmlns="http://www.w3.org/2000/svg">
<path d="M32.2648 19.3678C35.3397 19.3678 37.8111 16.6792 37.8111 13.3733C37.8111 10.0745 35.3428 7.37891 32.2648 7.37891C29.2126 7.37891 26.7444 10.0675 26.7444 13.3733C26.7444 16.6792 29.2126 19.3678 32.2648 19.3678Z" fill="#69ABB9"/>
<path d="M7.92682 13.5848H11.5678C13.1455 13.5848 14.4215 14.8922 14.4215 16.5087V44.2664C15.6179 43.801 16.8384 43.4777 18.1006 43.2539V36.3012C18.1006 35.3172 18.5895 34.4077 19.4148 33.9067C20.1846 33.3596 21.2977 32.7734 22.1333 32.2725L22.1299 22.9929C22.1299 21.3764 20.8538 20.069 19.2761 20.069C17.6984 20.069 16.4224 21.3764 16.4224 22.9929V16.5057C16.4224 13.7665 14.2379 11.5318 11.5678 11.5318H7.92681V11.0664L1.47721 11.07C0.669266 11.07 0 11.7272 0 12.555C0 13.3792 0.669239 14.0506 1.47721 14.0506H7.92681L7.92682 13.5848Z" fill="#69ABB9"/>
<path d="M72.7363 79.3125H57.1777C57.2435 79.6044 57.2837 79.9156 57.2837 80.2267C57.2837 80.5539 57.2472 80.865 57.1777 81.1569H72.7363C73.3173 81.1569 73.7777 80.7367 73.7777 80.2267C73.7777 79.7135 73.3173 79.3125 72.7363 79.3125Z" fill="#69ABB9"/>
<path d="M26.8861 45.5702V49.4865C28.7185 50.1589 30.3666 51.1674 31.7914 52.4479L23.9123 60.3985C23.5331 60.1732 23.1255 60.0158 22.7073 59.9121V54.9228C22.0019 54.9407 21.3001 54.8191 20.6622 54.5223V59.9121C20.2369 60.0158 19.8399 60.1732 19.4784 60.3985L11.5816 52.4479C13.414 50.8026 15.6364 49.6081 18.089 49.0001V45.1875C9.35932 46.8899 2.7666 54.6153 2.7666 63.9214C2.7666 74.469 11.2305 82.9986 21.6721 82.9986C32.1248 82.9986 40.5777 74.4579 40.5777 63.9214C40.5883 55.2019 34.8007 47.8418 26.8861 45.5702ZM10.1464 53.9035L18.0254 61.8542C17.8021 62.219 17.6462 62.6195 17.5257 63.0702H6.48866C6.69069 59.5866 8.03395 56.4002 10.1464 53.9035ZM6.50634 65.1159H17.5152C17.6357 65.5629 17.7917 65.9671 18.015 66.3319L10.3025 74.1144C8.1723 71.6931 6.76511 68.5636 6.50634 65.1159ZM20.6556 79.2507C17.2778 79.0075 14.1836 77.6734 11.7486 75.5598L19.4611 67.7951C19.8226 68.0205 20.2196 68.1778 20.6449 68.2816V79.2503L20.6556 79.2507ZM22.7112 79.2329V68.2851C23.1366 68.1814 23.5335 68.0241 23.9163 67.7987L31.6111 75.5634C29.1726 77.6736 26.0997 79.0075 22.7112 79.2329ZM33.0532 74.122L25.3407 66.3395C25.564 65.9747 25.7377 65.5741 25.8405 65.1235H36.8494C36.5871 68.5641 35.2082 71.6936 33.0532 74.122ZM25.8405 63.0709C25.7377 62.6238 25.5641 62.2196 25.3408 61.8549L33.2198 53.9043C35.35 56.3971 36.6933 59.5837 36.8775 63.0711L25.8405 63.0709Z" fill="#69ABB9"/>
<path d="M81.6249 21.1583L56.0187 0.773244C54.7225 -0.257748 52.9649 -0.257748 51.6652 0.773244L39.9784 10.0702V10.088C40.3553 11.055 40.5772 12.1037 40.5772 13.188C40.5772 16.4304 38.6999 19.2354 35.9666 20.5437C36.509 20.7463 37.0443 21.0094 37.541 21.3045L53.8382 8.33519L77.1451 26.8827C78.6985 28.1377 81.0019 27.8497 82.2136 26.2783C83.457 24.7069 83.1994 22.4026 81.6249 21.1583Z" fill="#69ABB9"/>
<path d="M38.7334 22.5383C38.8172 22.6222 38.8871 22.6922 38.9709 22.7762C40.794 24.6032 41.8278 27.0635 41.8278 29.6603V44.2723C41.8278 45.6617 42.9769 46.8131 44.3809 46.8131H48.5963C50.0213 46.8131 51.4253 47.1701 52.6756 47.884C53.2868 48.241 53.8421 48.6785 54.3346 49.172V35.0814H66.4961V56.2553H72.6185C73.7676 56.2553 74.7001 55.3243 74.7001 54.1694V28.0159L53.249 11.0664L38.7334 22.5383Z" fill="#69ABB9"/>
<path d="M52.5665 74.9302L50.3018 68.1017C50.1839 67.6453 49.7955 67.3203 49.3411 67.3203H42.8556C42.7377 68.0251 42.6025 68.7334 42.4221 69.409H48.6371L50.7041 75.6203C51.2729 75.2442 51.9041 75.0178 52.5665 74.9302Z" fill="#69ABB9"/>
<path d="M52.5755 76.543C51.0339 76.543 49.8 77.7808 49.8 79.3096C49.8 80.8561 51.0339 82.0763 52.5755 82.0763C54.0995 82.0763 55.3334 80.8385 55.3334 79.3096C55.3229 77.7773 54.0995 76.543 52.5755 76.543Z" fill="#69ABB9"/>
<path d="M42.4221 58.1104C42.6937 59.5927 42.8579 61.1238 42.9444 62.7127H46.4125C47.2631 62.7127 47.9555 61.6831 47.9555 60.396C47.9555 59.1311 47.263 58.1016 46.4125 58.1016H42.4221L42.4221 58.1104Z" fill="#69ABB9"/>
<path d="M51.1061 57.0536L61.2069 74.6998H72.2847C73.9309 74.6998 74.3558 72.6745 72.8476 71.6207C72.5431 71.4171 72.228 71.2742 71.8386 71.192L65.0767 69.8775C64.8006 69.8132 64.5315 69.6524 64.3934 69.3917L54.3144 51.792C53.7515 50.8026 52.9726 50.0096 52.0663 49.4881C51.16 48.9665 50.0979 48.6772 48.9579 48.6772H44.6849C42.1324 48.6772 40.0683 46.5697 40.0683 44.0191L40.0719 29.1053C40.0719 26.9406 39.1833 24.9544 37.7601 23.5149C36.3369 22.0968 34.3862 21.2109 32.2195 21.2109C30.0741 21.2109 28.1057 22.1075 26.6967 23.5149C25.2735 24.9509 24.3849 26.9406 24.3849 29.1053V31.0271L29.805 27.8622C30.2865 27.5836 30.906 27.7408 31.1928 28.2266C31.4689 28.7303 31.3132 29.3661 30.814 29.6447L23.9459 33.6597H23.9105V33.6776H23.8928V33.6955H23.8574V33.7133H23.822L20.6322 35.578C20.3915 35.7352 20.2888 35.9602 20.2888 36.2496V50.6093C20.2888 51.9452 21.3721 52.9812 22.6396 52.9812C23.9247 52.9812 24.9904 51.9275 24.9904 50.6093L24.9798 39.1283C24.9798 38.7282 25.2205 38.3817 25.5639 38.2138L33.1932 33.7523C33.6747 33.4736 34.2942 33.6308 34.5809 34.1345C34.8571 34.6203 34.7013 35.2454 34.2198 35.5347L27.0331 39.7069V43.5791C33.6179 45.2579 38.9991 50.1375 41.4026 56.5205L50.2532 56.5383C50.5789 56.5491 50.9185 56.7356 51.1061 57.0536Z" fill="#69ABB9"/>
</svg>
