<svg width="18" height="19" viewBox="0 0 18 19" fill="none" xmlns="http://www.w3.org/2000/svg">
<g clip-path="url(#clip0_2427_1828)">
<path d="M14.1584 4.66094C14.1578 4.65496 14.1569 4.64902 14.1559 4.64308L13.7794 2.52204C13.6799 1.96151 13.1946 1.55469 12.6253 1.55469H11.3128C11.1674 1.55469 11.0495 1.67257 11.0495 1.81801C11.0495 1.96345 11.1674 2.08133 11.3128 2.08133H12.6253C12.9388 2.08133 13.2061 2.30538 13.2609 2.61408L13.6358 4.72623C13.7024 5.34684 13.7521 5.98031 13.7835 6.60933C13.7854 6.64775 13.7666 6.67356 13.7552 6.68551C13.7438 6.69743 13.7191 6.7174 13.6808 6.7174H4.31906C4.28081 6.7174 4.25609 6.69739 4.24474 6.68551C4.23335 6.67356 4.21457 6.64772 4.21644 6.60933C4.24783 5.98031 4.29747 5.34684 4.36409 4.72623L4.739 2.61412C4.79377 2.30541 5.0611 2.08136 5.37465 2.08136H10.0827C10.2281 2.08136 10.346 1.96348 10.346 1.81804C10.346 1.6726 10.2281 1.55472 10.0827 1.55472H5.37465C4.80537 1.55472 4.31997 1.96155 4.22048 2.52204L3.84399 4.64308C3.84297 4.64899 3.84209 4.65493 3.84146 4.66094C3.77329 5.29435 3.72249 5.94108 3.69047 6.5831C3.68192 6.75452 3.74489 6.92415 3.86319 7.0485C3.98142 7.17274 4.1476 7.24404 4.31906 7.24404H13.6809C13.8523 7.24404 14.0185 7.17278 14.1367 7.0485C14.255 6.92415 14.318 6.75452 14.3094 6.5831C14.2774 5.94108 14.2266 5.29438 14.1584 4.66094Z" fill="#6A7070" stroke="#6A7070" stroke-width="0.2"/>
<path d="M16.714 4.12354H16.3528C16.0668 4.12354 15.8342 4.3562 15.8342 4.6422V7.07486C15.8342 7.20912 15.908 7.32626 16.017 7.38845C15.947 7.5148 15.8349 7.61637 15.6937 7.67297L15.4012 7.77682C15.4012 7.77689 15.4012 7.77693 15.4012 7.777C15.3858 6.69623 15.3206 5.61564 15.2056 4.54675L14.9106 1.80538C14.8305 1.0612 14.2057 0.5 13.4572 0.5H4.54257C3.7941 0.5 3.16927 1.0612 3.08918 1.80538L2.79419 4.54671C2.67919 5.6155 2.61387 6.69605 2.59854 7.77679L2.30604 7.67294C2.16486 7.61634 2.05274 7.51477 1.98275 7.38842C2.09177 7.32623 2.16559 7.20909 2.16559 7.07483V4.64216C2.16559 4.35617 1.93293 4.12351 1.64694 4.12351H1.28571C0.825549 4.12351 0.451172 4.49788 0.451172 4.95804V6.0824C0.451172 6.69349 0.858385 7.21106 1.41561 7.37861C1.50916 7.7321 1.76358 8.02534 2.1169 8.16445C2.11968 8.16554 2.12249 8.1666 2.12531 8.16758L2.59534 8.33447C2.59534 8.33443 2.59534 8.3344 2.59534 8.3344C2.59615 8.80669 2.60621 9.27862 2.62621 9.74926C2.62621 9.7494 2.62621 9.74954 2.62621 9.74971L2.62632 9.75179C2.62632 9.75189 2.62632 9.75196 2.62632 9.75207C2.62639 9.75348 2.62646 9.75492 2.62653 9.75636C2.62656 9.75699 2.62656 9.75762 2.6266 9.75822L2.6267 9.76023C2.6267 9.76026 2.6267 9.76026 2.6267 9.7603C2.65873 10.5089 2.71505 11.2614 2.79422 11.997L2.80892 12.1335H2.59003C2.20806 12.1335 1.89735 12.4443 1.89735 12.8263V14.3267C1.89735 14.6726 2.15241 14.9592 2.48418 15.0104V17.1378C2.48418 17.7018 2.943 18.1606 3.50698 18.1606H3.96742C4.53135 18.1606 4.99021 17.7018 4.99021 17.1378V17.0686H5.06281C5.49519 17.0686 5.847 16.7168 5.847 16.2844V16.0438H6.9193V16.0932C6.9193 16.3997 7.16856 16.6489 7.47494 16.6489H7.74694V17.4772C7.74694 18.0412 8.20577 18.5 8.76974 18.5H9.23018C9.79412 18.5 10.253 18.0412 10.253 17.4772V16.6489H10.5261C10.8326 16.6489 11.0818 16.3997 11.0818 16.0932V16.0438H12.153V16.2844C12.153 16.7168 12.5048 17.0686 12.9371 17.0686H13.0097V17.1378C13.0097 17.7018 13.4686 18.1606 14.0325 18.1606H14.493C15.0569 18.1606 15.5158 17.7018 15.5158 17.1378V15.0104C15.8475 14.9592 16.1026 14.6726 16.1026 14.3267V12.8263C16.1026 12.4443 15.7919 12.1335 15.4099 12.1335H15.191L15.2057 11.997C15.285 11.2605 15.3413 10.5075 15.3733 9.75892C15.3733 9.75878 15.3734 9.75861 15.3734 9.75847L15.3734 9.75639C15.3735 9.75495 15.3736 9.75351 15.3736 9.75207C15.3736 9.75179 15.3736 9.75151 15.3736 9.75119C15.3937 9.27978 15.4038 8.80704 15.4046 8.33394C15.4046 8.33412 15.4046 8.33433 15.4046 8.3345L15.8747 8.16762C15.8775 8.16663 15.8803 8.16558 15.8831 8.16449C16.2363 8.02538 16.4908 7.73214 16.5843 7.37864H16.5843C17.1415 7.21109 17.5487 6.69356 17.5487 6.08244V4.95808C17.5486 4.49792 17.1742 4.12354 16.714 4.12354ZM1.63896 6.89258C1.26215 6.81565 0.977775 6.48164 0.977775 6.08244V4.95808C0.977775 4.78831 1.1159 4.65018 1.28567 4.65018H1.63896V6.89258ZM2.59 14.4928V14.4927C2.49842 14.4927 2.42392 14.4182 2.42392 14.3267V12.8263C2.42392 12.7347 2.49842 12.6602 2.59 12.6602H2.86555L3.06274 14.4928H2.59ZM4.46354 17.1378C4.46354 17.4114 4.24097 17.6339 3.96738 17.6339H3.50691C3.23332 17.6339 3.01075 17.4114 3.01075 17.1378V15.0193H3.14761C3.32698 15.5949 3.84697 16.0087 4.46354 16.0415V17.1378ZM5.0627 16.5419H4.99011V16.0437H5.32026V16.2844H5.32029C5.32029 16.4264 5.20477 16.5419 5.0627 16.5419ZM7.74687 16.1223H7.47487C7.45887 16.1223 7.44583 16.1092 7.44583 16.0932V15.7536C7.44583 15.7375 7.45887 15.7245 7.47487 15.7245H7.74687V16.1223ZM7.74687 15.1979H7.47487C7.46506 15.1979 7.4555 15.1988 7.44583 15.1994V14.7665C7.53773 14.8349 7.63894 14.8908 7.74687 14.9325V15.1979ZM9.72627 17.4771C9.72627 17.7507 9.50369 17.9733 9.23011 17.9733H8.76967C8.49609 17.9733 8.27351 17.7507 8.27351 17.4771V15.0193H9.72627V17.4771ZM10.526 16.1223H10.2529V15.7245H10.526C10.54 15.7245 10.5512 15.7346 10.5539 15.7478L10.5551 16.0932C10.5551 16.1092 10.5421 16.1223 10.526 16.1223ZM10.2529 15.1979V14.9325C10.3608 14.8907 10.4621 14.8349 10.5539 14.7665V15.1993C10.5446 15.1988 10.5355 15.1979 10.526 15.1979H10.2529ZM10.7832 13.0548L10.5116 13.9534C10.4302 14.2228 10.213 14.4179 9.9473 14.475C9.94016 14.4762 9.93316 14.4776 9.92624 14.4793C9.88039 14.4878 9.83339 14.4927 9.78526 14.4927H8.21448C8.16639 14.4927 8.11935 14.4878 8.07351 14.4793C8.06658 14.4776 8.05959 14.4762 8.05245 14.475C7.78678 14.4179 7.56955 14.2228 7.48812 13.9534L7.21658 13.0548C7.1379 12.7945 7.13646 12.5243 7.2124 12.2736C7.44871 11.4934 8.18372 10.9484 8.99987 10.9484C9.81602 10.9484 10.5511 11.4934 10.7873 12.2736C10.8633 12.5243 10.8619 12.7945 10.7832 13.0548ZM12.937 16.5419C12.795 16.5419 12.6795 16.4264 12.6795 16.2843V16.0437H13.0096V16.5419H12.937ZM11.0806 15.5171V13.8913L11.2873 13.2071C11.3961 12.847 11.3975 12.4714 11.2914 12.121C11.1456 11.6396 10.843 11.2069 10.4394 10.9027C10.0218 10.5881 9.52409 10.4218 8.99991 10.4218C8.47577 10.4218 7.97802 10.5881 7.56044 10.9027C7.15678 11.2069 6.85419 11.6395 6.70843 12.121C6.6023 12.4714 6.6037 12.847 6.71248 13.2071L6.91923 13.8912V15.5171H4.54261C4.0764 15.5171 3.68525 15.1767 3.61768 14.7193C3.61761 14.7188 3.61761 14.7183 3.61754 14.7178C3.61575 14.7058 3.61406 14.6938 3.61273 14.6816C3.61273 14.6816 3.61273 14.6815 3.61273 14.6815L3.36407 12.3705C3.36403 12.37 3.36396 12.3695 3.36389 12.369L3.3178 11.9406C3.24925 11.3034 3.19806 10.6533 3.16522 10.0041H5.23437C5.37981 10.0041 5.49769 9.88626 5.49769 9.74082C5.49769 9.59538 5.37981 9.4775 5.23437 9.4775H3.1429C3.08581 7.8528 3.14438 6.21431 3.3178 4.60303L3.6128 1.8617C3.66402 1.38562 4.06378 1.0266 4.54261 1.0266H13.4572C13.936 1.0266 14.3358 1.38562 14.387 1.8617L14.682 4.60307C14.8554 6.21438 14.9139 7.85294 14.8569 9.47754H6.45956C6.31412 9.47754 6.19624 9.59541 6.19624 9.74085C6.19624 9.8863 6.31412 10.0042 6.45956 10.0042H14.8346C14.8018 10.6529 14.7506 11.3031 14.682 11.9406L14.6359 12.3691C14.6358 12.3695 14.6358 12.3701 14.6357 12.3706L14.3871 14.6816C14.3871 14.6816 14.3871 14.6816 14.3871 14.6816C14.3857 14.694 14.3839 14.7062 14.3822 14.7184C14.3821 14.7188 14.3822 14.7192 14.3821 14.7196C14.3144 15.1768 13.9233 15.5171 13.4572 15.5171H11.0806ZM14.9891 17.1378C14.989 17.4114 14.7665 17.6339 14.4929 17.6339H14.0324C13.7589 17.6339 13.5363 17.4114 13.5363 17.1378V16.0414C14.1528 16.0086 14.6728 15.5948 14.8522 15.0193H14.9891V17.1378ZM15.4098 12.6601C15.5014 12.6601 15.5759 12.7346 15.5759 12.8262V14.3266C15.5759 14.4182 15.5014 14.4927 15.4098 14.4927H14.937L15.1342 12.6601H15.4098ZM17.022 6.08244C17.022 6.48164 16.7376 6.81565 16.3608 6.89258V4.65018H16.7141C16.8838 4.65018 17.022 4.78831 17.022 4.95808V6.08244Z" fill="#6A7070" stroke="#6A7070" stroke-width="0.2"/>
</g>
<defs>
<clipPath id="clip0_2427_1828">
<rect width="18" height="18" fill="white" transform="translate(0 0.5)"/>
</clipPath>
</defs>
</svg>
