<svg width="157" height="106" viewBox="0 0 157 106" fill="none" xmlns="http://www.w3.org/2000/svg">
<path d="M36.3127 42.0469H11.904C9.77568 42.0469 8.05017 43.7711 8.05017 45.8979V55.0459C8.05017 57.1726 9.77568 58.8969 11.904 58.8969H25.9971C26.6351 60.2775 27.8315 61.3859 29.1829 62.116C30.2883 62.7132 31.4914 63.0897 32.719 63.3753C33.2009 63.4874 33.5615 62.9402 33.26 62.5484C32.4393 61.4829 31.878 60.2183 31.6214 58.8969H36.3125C38.4409 58.8969 40.1664 57.1726 40.1664 55.0459V45.8979C40.1666 43.7711 38.4411 42.0469 36.3127 42.0469Z" fill="white"/>
<path d="M36.3128 42.0469C36.3128 42.0469 36.3536 42.0464 36.4341 42.0492C36.5141 42.0557 36.6354 42.0483 36.7919 42.0721C37.1057 42.105 37.5749 42.2031 38.1228 42.4822C38.6616 42.7661 39.2765 43.2614 39.7144 44.0413C39.9271 44.4317 40.0898 44.8897 40.1557 45.3956C40.19 45.648 40.194 45.9128 40.1936 46.1805C40.194 46.4495 40.1946 46.7261 40.195 47.0104C40.1957 49.2848 40.2106 52.0403 40.1986 55.1998C40.19 55.5983 40.1076 56.0009 39.9656 56.386C39.8229 56.7703 39.6255 57.1453 39.3559 57.4729C38.8255 58.1287 38.0646 58.6474 37.187 58.8391C36.751 58.9426 36.292 58.9456 35.8419 58.942C35.3888 58.9424 34.93 58.9426 34.4662 58.943C33.5387 58.9437 32.5901 58.9443 31.6217 58.9449L31.6688 58.8878C31.8678 59.9069 32.2549 60.9199 32.8336 61.8461C32.9786 62.0776 33.1354 62.3022 33.3031 62.5227C33.3939 62.6429 33.4388 62.8029 33.413 62.9545C33.3867 63.1055 33.302 63.2453 33.1753 63.3337C33.052 63.427 32.8862 63.4576 32.7359 63.4295C32.593 63.4003 32.4587 63.3654 32.3198 63.3314C32.0441 63.2623 31.768 63.1876 31.4927 63.1052C30.3936 62.7766 29.2929 62.3253 28.3115 61.6391C27.3362 60.956 26.4714 60.043 25.9484 58.9197L25.9969 58.9508C22.7518 58.9512 19.3901 58.9514 15.9467 58.9519C15.0887 58.9519 14.2357 58.9519 13.3882 58.9519C12.9645 58.9519 12.5421 58.9519 12.1214 58.9519C11.9123 58.9556 11.6979 58.9426 11.4861 58.929L11.1711 58.8809C11.066 58.8654 10.965 58.8311 10.8618 58.8072C10.4539 58.6932 10.0662 58.5153 9.71563 58.2824C9.36889 58.0441 9.0625 57.7522 8.80738 57.4227C8.55058 57.0945 8.34905 56.7243 8.21729 56.3325C8.08574 55.9417 8.00105 55.533 8 55.1225C8.00147 51.8878 8.00315 48.768 8.00462 45.7956C8.00609 45.4184 8.08616 45.0489 8.19186 44.6938C8.30639 44.3395 8.47766 44.0096 8.67814 43.703C8.88871 43.4023 9.13647 43.1329 9.41176 42.8979C9.69525 42.6741 9.99786 42.4759 10.3259 42.3341C10.6537 42.1968 10.994 42.0857 11.3434 42.0445C11.6918 41.99 12.0411 42.0013 12.3807 42.0004C13.0639 42.0009 13.7364 42.0015 14.3975 42.0019C17.042 42.0042 19.5053 42.0065 21.7543 42.0086C26.2506 42.016 29.8895 42.0219 32.4066 42.0261C33.6626 42.0305 34.6386 42.034 35.3028 42.0364C35.6323 42.0387 35.8841 42.0406 36.056 42.0418C36.2258 42.0433 36.3128 42.0469 36.3128 42.0469C36.3128 42.0469 36.2258 42.0506 36.0562 42.0525C35.8843 42.0538 35.6326 42.0557 35.303 42.058C34.6388 42.0603 33.6631 42.0639 32.4068 42.0683C29.8897 42.0725 26.2508 42.0784 21.7545 42.0857C19.5055 42.0878 17.0422 42.0899 14.3977 42.0924C13.7366 42.0928 13.0641 42.0933 12.3809 42.0939C12.0384 42.0952 11.695 42.0847 11.3571 42.1384C11.0162 42.1787 10.6846 42.2879 10.365 42.4219C10.0454 42.5605 9.75073 42.7543 9.47418 42.9727C9.20603 43.2022 8.96478 43.4651 8.75989 43.7585C8.56508 44.0577 8.39823 44.3792 8.28706 44.7244C8.18493 45.0705 8.10675 45.4304 8.10591 45.7981C8.10654 48.7688 8.10717 51.8874 8.10781 55.1202C8.10907 55.5196 8.19165 55.9169 8.31963 56.2968C8.44782 56.6777 8.64389 57.0376 8.89375 57.3566C9.14173 57.6768 9.43992 57.9605 9.777 58.1923C10.1179 58.4185 10.4949 58.5913 10.8912 58.702C10.9914 58.7251 11.0896 58.7587 11.1917 58.7736L11.4979 58.8202C11.7042 58.8332 11.9098 58.8462 12.1216 58.8425C12.5423 58.8425 12.9647 58.8425 13.3884 58.8425C14.2357 58.8425 15.0887 58.8425 15.9469 58.8425C19.3903 58.8429 22.7521 58.8433 25.9971 58.8435H26.0314L26.0459 58.8746C26.5582 59.9766 27.4093 60.8775 28.372 61.5528C29.3399 62.2309 30.4304 62.6794 31.5223 63.0068C31.7959 63.0887 32.0704 63.1634 32.3448 63.2323C32.4812 63.2659 32.6212 63.302 32.7546 63.3293C32.8805 63.3524 33.0146 63.3283 33.1165 63.2512C33.2213 63.1787 33.2917 63.0616 33.3134 62.9379C33.3342 62.8134 33.2985 62.6844 33.2228 62.583C33.0545 62.3615 32.8952 62.1326 32.7489 61.8989C32.1645 60.9613 31.7743 59.9367 31.5744 58.9061L31.5633 58.849H31.6215C32.5898 58.8496 33.5385 58.8502 34.466 58.8509C34.9298 58.8513 35.3884 58.8515 35.8417 58.8519C36.2962 58.8561 36.74 58.8536 37.167 58.7534C38.0249 58.5678 38.7698 58.0617 39.2902 57.421C39.5547 57.101 39.7483 56.7342 39.8889 56.3583C40.0288 55.9816 40.1104 55.5876 40.1194 55.197C40.1267 52.0415 40.133 49.2848 40.1383 47.0108C40.1312 46.4434 40.1633 45.9012 40.1057 45.4025C40.0427 44.9029 39.8842 44.4498 39.676 44.0628C39.2469 43.2894 38.6412 42.7948 38.1087 42.5088C37.5674 42.2277 37.1019 42.1252 36.79 42.0876C36.6343 42.0613 36.5135 42.0664 36.4338 42.0574C36.3536 42.0515 36.3128 42.0469 36.3128 42.0469Z" fill="#263238"/>
<path d="M15.1892 51.7114C16.0746 50.8266 16.0746 49.3921 15.1892 48.5074C14.3038 47.6226 12.8682 47.6226 11.9828 48.5074C11.0974 49.3921 11.0974 50.8266 11.9828 51.7114C12.8682 52.5961 14.3038 52.5961 15.1892 51.7114Z" fill="#4C9BAC"/>
<path d="M35.3652 47.8594H17.4301V48.9127H35.3652V47.8594Z" fill="#E0E0E0"/>
<path d="M35.3652 50.3789H17.4301V51.4322H35.3652V50.3789Z" fill="#E0E0E0"/>
<path d="M24.6675 52.8945H17.4301V53.9478H24.6675V52.8945Z" fill="#E0E0E0"/>
<path d="M126.176 21.3293C131.244 21.3293 135.352 17.2262 135.352 12.1647C135.352 7.10316 131.244 3 126.176 3C121.108 3 117 7.10316 117 12.1647C117 17.2262 121.108 21.3293 126.176 21.3293Z" fill="#F5F5F5"/>
<path d="M129.513 11.9894C129.233 12.5954 129.378 13.2588 129.837 13.4712C130.297 13.6836 130.897 13.3645 131.178 12.7584C131.458 12.1524 131.313 11.489 130.854 11.2766C130.394 11.0644 129.794 11.3835 129.513 11.9894Z" fill="#E0E0E0"/>
<path d="M122.592 8.79026C122.311 9.39632 122.456 10.0597 122.915 10.2721C123.375 10.4845 123.975 10.1654 124.256 9.55931C124.537 8.95325 124.392 8.28988 123.932 8.07748C123.473 7.86507 122.872 8.1842 122.592 8.79026Z" fill="#E0E0E0"/>
<path d="M123.208 11.043C122.428 12.7274 123.082 14.6874 124.668 15.4208C126.255 16.1541 128.174 15.383 128.955 13.6985L123.208 11.043Z" fill="#E0E0E0"/>
<path d="M123.381 14.2807C123.381 14.2807 124.283 13.8204 125.211 14.2491C126.139 14.6779 126.375 15.6641 126.375 15.6641C126.375 15.6641 124.554 15.9423 123.381 14.2807Z" fill="#EBEBEB"/>
<path d="M48.3574 7.00144L45.7487 7.80859L47.9206 14.8112L50.5294 14.004L48.3574 7.00144Z" fill="#E0E0E0"/>
<path d="M49.0622 6.7866L46.4534 7.59375L48.6253 14.5963L51.2341 13.7892L49.0622 6.7866Z" fill="#EBEBEB"/>
<path d="M47.7626 9.04779C47.8633 9.37244 48.2086 9.5541 48.5336 9.45351C48.8587 9.35293 49.0407 9.0081 48.9398 8.68345C48.8391 8.35881 48.4939 8.17715 48.1688 8.27773C47.844 8.37831 47.6619 8.72314 47.7626 9.04779Z" fill="white"/>
<path d="M46.0801 8.86177C46.0988 8.83785 46.3413 8.99594 46.6217 9.21474C46.9023 9.43355 47.1144 9.63047 47.0957 9.65422C47.077 9.67814 46.8345 9.52005 46.5539 9.30125C46.2736 9.08261 46.0614 8.88585 46.0801 8.86177Z" fill="#EBEBEB"/>
<path d="M46.3208 9.62739C46.3395 9.60348 46.582 9.76156 46.8624 9.98037C47.143 10.1993 47.3551 10.3961 47.3364 10.4198C47.3177 10.4438 47.0752 10.2857 46.7947 10.0669C46.5143 9.84806 46.3022 9.65131 46.3208 9.62739Z" fill="#EBEBEB"/>
<path d="M46.5611 10.4125C46.5798 10.3886 46.8223 10.5467 47.1027 10.7655C47.3832 10.9843 47.5953 11.1813 47.5766 11.2052C47.558 11.2291 47.3154 11.071 47.0349 10.8522C46.7545 10.6332 46.5424 10.4363 46.5611 10.4125Z" fill="#EBEBEB"/>
<path d="M46.8014 11.186C46.8201 11.1621 47.0626 11.3202 47.343 11.539C47.6236 11.7579 47.8357 11.9547 47.817 11.9786C47.7983 12.0025 47.5558 11.8444 47.2753 11.6256C46.9949 11.4067 46.7828 11.2099 46.8014 11.186Z" fill="#EBEBEB"/>
<path d="M47.0411 11.9477C47.0597 11.9238 47.3023 12.0819 47.5826 12.3007C47.8632 12.5197 48.0753 12.7164 48.0566 12.7403C48.0379 12.7642 47.7954 12.6062 47.5149 12.3874C47.2345 12.1684 47.0224 11.9716 47.0411 11.9477Z" fill="#EBEBEB"/>
<path d="M47.2818 12.729C47.3005 12.705 47.543 12.8631 47.8234 13.0819C48.1039 13.3009 48.316 13.4977 48.2973 13.5216C48.2787 13.5455 48.0362 13.3874 47.7556 13.1686C47.4752 12.9496 47.2631 12.7529 47.2818 12.729Z" fill="#EBEBEB"/>
<path d="M47.5215 13.5024C47.5402 13.4785 47.7827 13.6366 48.0633 13.8554C48.3438 14.0743 48.5559 14.2711 48.5373 14.295C48.5186 14.3189 48.2761 14.1608 47.9955 13.942C47.715 13.7231 47.5028 13.5263 47.5215 13.5024Z" fill="#EBEBEB"/>
<path d="M45.8752 8.18208C45.8938 8.15816 46.1364 8.31625 46.4167 8.53505C46.6973 8.75403 46.9094 8.95079 46.8907 8.9747C46.872 8.99862 46.6295 8.84053 46.349 8.62173C46.0686 8.40292 45.8565 8.206 45.8752 8.18208Z" fill="#EBEBEB"/>
<path d="M46.0262 7.71104C46.0449 7.68712 46.1947 7.77278 46.3606 7.90236C46.5267 8.03195 46.6461 8.15628 46.6274 8.1802C46.6087 8.20411 46.4589 8.11846 46.293 7.98887C46.1269 7.85928 46.0075 7.73495 46.0262 7.71104Z" fill="#EBEBEB"/>
<path d="M46.4331 14.6627L44.3722 8.51848C44.3722 8.51848 42.9097 8.67775 41.0995 7.18546C39.9016 6.19778 39.7942 4.79199 39.4692 4.2962C39.2705 3.99326 38.5059 4.30298 38.1743 4.44936C37.8599 4.58811 37.3773 4.936 37.3107 5.52117C37.1872 6.60588 38.4832 8.70896 38.4832 8.70896C38.4832 8.70896 38.8838 9.09501 38.2315 9.29685L35.9052 10.0167C35.6036 10.11 35.3375 10.301 35.1695 10.5681C35.0221 10.8027 34.9333 11.1175 35.0838 11.4948C35.4278 12.3573 36.0165 12.6085 36.0742 12.7947C36.1319 12.9808 35.9767 13.3858 36.3291 13.8633C36.6815 14.3408 36.7834 14.2582 36.8629 14.5141C36.9422 14.7701 37.191 15.407 37.4766 15.752C37.7623 16.097 38.0065 16.2255 38.0065 16.2255C38.0065 16.2255 38.1729 17.1077 38.5808 17.5012C39.1158 18.0172 40.7799 17.9546 41.3235 17.4685C41.5779 17.241 42.8603 16.483 43.462 16.1183C44.0635 15.7535 45.7105 14.5548 46.4331 14.6627Z" fill="#E0E0E0"/>
<path d="M47.2875 14.4741L45.3462 8.21594C45.3462 8.21594 43.8837 8.37521 42.0735 6.88275C40.8756 5.89524 40.1983 5.00764 39.8732 4.51184C39.6746 4.20874 39.286 4.08254 38.9543 4.22892C38.64 4.36767 38.2874 4.61684 38.2208 5.20185C38.0974 6.28655 39.457 8.40625 39.457 8.40625C39.457 8.40625 39.8576 8.7923 39.2053 8.99398L36.879 9.71383C36.5774 9.80712 36.3113 9.99811 36.1435 10.2651C35.9961 10.4997 35.9073 10.8145 36.0578 11.1917C36.4018 12.0542 36.9905 12.3054 37.0482 12.4917C37.1059 12.6777 36.9507 13.0828 37.3031 13.5602C37.6555 14.0377 37.7574 13.9551 37.8369 14.2111C37.9162 14.467 38.165 15.1039 38.4506 15.4491C38.7364 15.7941 38.9805 15.9227 38.9805 15.9227C38.9805 15.9227 39.1703 16.7818 39.5548 17.1984C39.9393 17.6148 40.997 17.5681 41.3231 17.4672C41.6491 17.3663 43.8341 16.1801 44.4358 15.8156C45.0375 15.4508 46.5647 14.3663 47.2875 14.4741Z" fill="#EBEBEB"/>
<path d="M37.8786 7.52997C37.8947 7.50351 38.2303 7.68059 38.6433 7.89736C39.0562 8.11498 39.3921 8.29121 39.3794 8.31954C39.3673 8.34668 39.0085 8.21421 38.5921 7.99455C38.1755 7.77575 37.863 7.55507 37.8786 7.52997Z" fill="#EBEBEB"/>
<path d="M37.4936 6.72933C37.5103 6.70355 37.8137 6.86231 38.2032 7.0287C38.5939 7.1951 38.9035 7.3564 38.8894 7.38558C38.8769 7.41102 38.5528 7.29704 38.1588 7.12928C37.7635 6.96018 37.4768 6.75426 37.4936 6.72933Z" fill="#EBEBEB"/>
<path d="M37.3227 5.95693C37.3405 5.9286 37.5851 6.06413 37.9074 6.17472C38.2374 6.28276 38.4896 6.42507 38.475 6.45255C38.461 6.47901 38.2009 6.3864 37.8705 6.27818C37.5341 6.16234 37.3067 5.97898 37.3227 5.95693Z" fill="#EBEBEB"/>
<path d="M37.3837 5.24907C37.3958 5.22125 37.5952 5.28028 37.829 5.38103C38.063 5.48178 38.2429 5.58593 38.2308 5.61391C38.2188 5.64173 38.0194 5.58271 37.7855 5.48195C37.5517 5.38103 37.3718 5.27689 37.3837 5.24907Z" fill="#EBEBEB"/>
<path d="M37.7411 4.71604C37.7484 4.68652 37.872 4.69687 38.0174 4.7391C38.1627 4.78134 38.2726 4.83901 38.2629 4.86767C38.2532 4.89634 38.1294 4.88616 37.9866 4.84461C37.8438 4.80305 37.7339 4.74555 37.7411 4.71604Z" fill="#EBEBEB"/>
<path d="M38.402 8.57681C38.4141 8.54899 38.6245 8.61311 38.8719 8.71996C39.1195 8.82699 39.3104 8.93623 39.2984 8.96404C39.2863 8.99186 39.0759 8.92775 38.8283 8.82089C38.5809 8.71403 38.39 8.60462 38.402 8.57681Z" fill="#EBEBEB"/>
<path d="M35.2929 11.9309C35.3019 11.9019 35.6959 11.9981 36.1729 12.1455C36.6501 12.2931 37.0295 12.4361 37.0205 12.4651C37.0115 12.4941 36.6175 12.3981 36.1405 12.2505C35.6633 12.1029 35.2839 11.9598 35.2929 11.9309Z" fill="#EBEBEB"/>
<path d="M35.0003 10.8561C35.0093 10.8271 35.2472 10.8754 35.5315 10.964C35.8159 11.0525 36.0391 11.1476 36.0301 11.1767C36.0211 11.2057 35.7833 11.1573 35.4989 11.0688C35.2144 10.9802 34.9913 10.8851 35.0003 10.8561Z" fill="#EBEBEB"/>
<path d="M36.1197 13.334C36.1253 13.305 36.4263 13.3398 36.7815 13.4493C37.1373 13.5581 37.4058 13.6982 37.3941 13.7253C37.382 13.754 37.0991 13.6612 36.7493 13.5543C36.3999 13.4464 36.1136 13.3643 36.1197 13.334Z" fill="#EBEBEB"/>
<path d="M36.8329 14.4318C36.8431 14.4031 37.1303 14.4796 37.4742 14.6023C37.8183 14.7251 38.0888 14.8477 38.0786 14.8762C38.0684 14.9047 37.7812 14.8284 37.4373 14.7056C37.0933 14.5831 36.8227 14.4605 36.8329 14.4318Z" fill="#EBEBEB"/>
<path d="M37.547 15.7778C37.5595 15.7493 37.8831 15.8661 38.2842 15.9993C38.6852 16.1334 39.0139 16.234 39.007 16.2644C39.0005 16.2932 38.6559 16.2396 38.2494 16.1036C37.8426 15.9686 37.5348 15.8047 37.547 15.7778Z" fill="#EBEBEB"/>
<path d="M38.2181 16.898C38.2303 16.8709 38.6073 17.0054 39.0769 17.1601C39.5455 17.318 39.9279 17.4366 39.9213 17.4656C39.9147 17.4958 39.5145 17.4235 39.0423 17.2642C38.5688 17.1082 38.2054 16.926 38.2181 16.898Z" fill="#EBEBEB"/>
<path d="M47.2575 45.0881H17.3821C16.5433 45.0881 15.8633 44.409 15.8633 43.5712V34.763C15.8633 33.9252 16.5433 33.2461 17.3821 33.2461H47.2575C48.0963 33.2461 48.7763 33.9252 48.7763 34.763V43.5712C48.7761 44.409 48.0961 45.0881 47.2575 45.0881Z" fill="#F5F5F5"/>
<path d="M21.4766 41.2681C22.6717 41.2681 23.6406 40.3004 23.6406 39.1067C23.6406 37.913 22.6717 36.9453 21.4766 36.9453C20.2814 36.9453 19.3125 37.913 19.3125 39.1067C19.3125 40.3004 20.2814 41.2681 21.4766 41.2681Z" fill="#E0E0E0"/>
<path d="M42.2622 38.1016H25.1448V39.1063H42.2622V38.1016Z" fill="#E0E0E0"/>
<path d="M32.0521 39.875H25.1448V40.8797H32.0521V39.875Z" fill="#E0E0E0"/>
<path d="M151.355 63.8891H121.48C120.641 63.8891 119.961 63.2099 119.961 62.3722V53.5638C119.961 52.726 120.641 52.0469 121.48 52.0469H151.355C152.194 52.0469 152.874 52.726 152.874 53.5638V62.3722C152.874 63.2099 152.194 63.8891 151.355 63.8891Z" fill="#F5F5F5"/>
<path d="M127.355 59.1431C128.035 58.1609 127.788 56.8148 126.805 56.1364C125.821 55.458 124.474 55.7043 123.794 56.6864C123.115 57.6686 123.362 59.0148 124.345 59.6932C125.328 60.3716 126.676 60.1253 127.355 59.1431Z" fill="#E0E0E0"/>
<path d="M146.36 56.9023H129.243V57.907H146.36V56.9023Z" fill="#E0E0E0"/>
<path d="M136.15 58.6758H129.243V59.6805H136.15V58.6758Z" fill="#E0E0E0"/>
<path d="M20.1613 72.313L22.1791 74.4274C22.406 74.6652 22.743 74.7776 23.08 74.7277L26.0774 74.2856C26.9264 74.1605 27.5324 75.0221 27.1028 75.7437L25.5861 78.2913C25.4154 78.5778 25.4006 78.9232 25.5461 79.2151L26.8398 81.8087C27.2062 82.5433 26.5267 83.3836 25.6895 83.2307L22.7345 82.691C22.4023 82.6303 22.0559 82.7315 21.8087 82.9615L19.611 85.0066C18.9884 85.5859 17.9624 85.2438 17.8747 84.4277L17.5652 81.5464C17.5304 81.2225 17.3313 80.9393 17.033 80.7897L14.3808 79.4598C13.6296 79.0833 13.6753 78.0314 14.458 77.68L17.2215 76.4393C17.5322 76.2997 17.7555 76.0238 17.8184 75.7014L18.3772 72.8343C18.5357 72.022 19.5898 71.7141 20.1613 72.313Z" fill="#E0E0E0"/>
<path d="M143.692 80.3429L147.182 85.3277C147.565 85.874 148.379 85.8602 148.743 85.3019L152.121 80.1172L143.692 80.3429Z" fill="#E0E0E0"/>
<path d="M151.969 83.105H143.32C141.487 83.105 140 81.6205 140 79.789V75.316C140 73.4848 141.486 72 143.32 72H151.969C153.802 72 155.289 73.4845 155.289 75.316V79.7893C155.289 81.6205 153.802 83.105 151.969 83.105Z" fill="#E0E0E0"/>
<path d="M150.638 76.5293C150.148 75.6346 149.336 75.4955 148.789 75.6994C148.196 75.9211 147.887 76.5293 147.887 76.5293C147.887 76.5293 147.579 75.9211 146.985 75.6994C146.439 75.4955 145.626 75.6346 145.136 76.5293C144.113 78.3963 147.887 80.8268 147.887 80.8268C147.887 80.8268 151.661 78.3963 150.638 76.5293Z" fill="white"/>
<path d="M148.456 94.1087C148.456 94.1386 118.662 94.1627 81.917 94.1627C45.1592 94.1627 15.3711 94.1386 15.3711 94.1087C15.3711 94.0788 45.1592 94.0547 81.917 94.0547C118.662 94.0547 148.456 94.079 148.456 94.1087Z" fill="#263238"/>
<path d="M128.626 99.6802H40.7494C37.8448 99.6802 35.49 97.2326 35.49 94.2136V31.5267C35.49 29.3243 37.2076 27.5391 39.3265 27.5391H130.259C132.262 27.5391 133.885 29.2263 133.885 31.3073V94.2136C133.885 97.2326 131.53 99.6802 128.626 99.6802Z" fill="#455A64"/>
<path d="M133.782 100.765H36.4594C33.6513 100.765 31.375 98.3991 31.375 95.4805V94.6568C31.375 94.5443 31.4628 94.4531 31.571 94.4531H137.782C137.891 94.4531 137.978 94.5443 137.978 94.6568V96.4033C137.978 98.8124 136.1 100.765 133.782 100.765Z" fill="#455A64"/>
<path d="M133.782 100.763C133.782 100.763 133.83 100.759 133.926 100.753C134.02 100.741 134.164 100.751 134.35 100.712C134.721 100.663 135.284 100.534 135.916 100.139C136.235 99.9496 136.559 99.6785 136.865 99.3319C137.17 98.9851 137.453 98.5522 137.654 98.0345C137.859 97.5182 137.967 96.9183 137.96 96.2748C137.959 95.9524 137.959 95.6197 137.959 95.2766C137.958 95.105 137.958 94.9309 137.958 94.7541C137.959 94.6646 137.966 94.5766 137.902 94.5213C137.846 94.4591 137.758 94.4737 137.669 94.4725C132.071 94.4768 123.973 94.483 113.967 94.4905C93.9516 94.4948 66.3039 94.5005 35.7678 94.5071C34.8133 94.5071 33.8615 94.5071 32.9127 94.5071H32.2016H31.8464H31.6689H31.5802C31.5535 94.5069 31.5357 94.5101 31.5152 94.519C31.4762 94.5365 31.4447 94.5732 31.4342 94.6163C31.4248 94.6516 31.431 94.7282 31.4292 94.7854V95.1536C31.4246 95.4001 31.4351 95.6425 31.449 95.8843C31.4892 96.366 31.5777 96.8463 31.7481 97.2963C31.8184 97.5273 31.9329 97.7385 32.0303 97.9573C32.153 98.1614 32.2587 98.3779 32.4058 98.5645C32.9483 99.3463 33.7098 99.9501 34.5573 100.317C34.9842 100.496 35.4324 100.612 35.8871 100.67C36.3416 100.716 36.8047 100.707 37.2664 100.707C38.189 100.707 39.1084 100.707 40.0236 100.707C41.8544 100.707 43.6706 100.707 45.4708 100.707C52.6713 100.708 59.6171 100.71 66.2334 100.71C79.466 100.715 91.3823 100.719 101.39 100.723C111.396 100.73 119.494 100.736 125.091 100.741C127.888 100.745 130.06 100.749 131.535 100.751C132.271 100.754 132.832 100.756 133.211 100.757C133.588 100.759 133.782 100.763 133.782 100.763C133.782 100.763 133.588 100.767 133.211 100.769C132.832 100.77 132.271 100.772 131.535 100.774C130.061 100.777 127.888 100.78 125.091 100.785C119.494 100.789 111.396 100.796 101.39 100.803C91.3826 100.807 79.4662 100.811 66.2336 100.815C59.6171 100.816 52.6716 100.817 45.471 100.818C43.6708 100.819 41.8546 100.819 40.0239 100.819C39.1084 100.819 38.1892 100.819 37.2666 100.819C36.806 100.819 36.3431 100.829 35.8752 100.782C35.4105 100.723 34.9527 100.604 34.5167 100.421C33.6505 100.047 32.873 99.4299 32.3187 98.6315C32.1685 98.4406 32.0602 98.2198 31.9352 98.0111C31.8355 97.7878 31.7187 97.5718 31.6468 97.3357C31.4727 96.8759 31.3819 96.3851 31.3411 95.8932C31.327 95.6455 31.3165 95.3983 31.321 95.1538V94.7856C31.3244 94.7206 31.3133 94.6723 31.3297 94.5876C31.3484 94.511 31.4034 94.4465 31.4727 94.4155C31.5063 94.3998 31.5482 94.3939 31.5806 94.3946H31.6694H31.8469H32.2021H32.9132C33.862 94.3946 34.8137 94.3946 35.7683 94.3946C66.3043 94.401 93.952 94.4069 113.967 94.4112C123.974 94.4187 132.072 94.4249 137.67 94.4292L137.802 94.4304C137.85 94.4349 137.896 94.4559 137.931 94.4903C137.966 94.524 137.989 94.5698 137.997 94.6186C138.003 94.6696 137.998 94.7092 138 94.7548C138 94.9316 137.999 95.1057 137.999 95.2773C137.999 95.6204 137.998 95.9531 137.998 96.2755C138.004 96.9224 137.892 97.5287 137.685 98.0477C137.48 98.5686 137.194 99.0036 136.886 99.3515C136.576 99.699 136.249 99.9701 135.928 100.159C135.291 100.553 134.724 100.679 134.352 100.725C134.166 100.761 134.021 100.749 133.926 100.759C133.83 100.762 133.782 100.763 133.782 100.763Z" fill="#263238"/>
<path d="M74.9874 94.3164L76.3101 96.6494H94.9244L96.1529 94.3164H74.9874Z" fill="#263238"/>
<path d="M130.515 33.0078H40.3146V92.1014H130.515V33.0078Z" fill="white"/>
<path d="M130.515 33.0078H40.3146V38.932H130.515V33.0078Z" fill="#E0E0E0"/>
<path d="M44.009 35.7295C44.009 36.2271 43.6198 36.6307 43.1398 36.6307C42.6598 36.6307 42.2706 36.2271 42.2706 35.7295C42.2706 35.2317 42.6598 34.8281 43.1398 34.8281C43.6198 34.8284 44.009 35.2319 44.009 35.7295Z" fill="white"/>
<path d="M46.5475 35.7295C46.5475 36.2271 46.1583 36.6307 45.6783 36.6307C45.198 36.6307 44.8091 36.2271 44.8091 35.7295C44.8091 35.2317 45.1983 34.8281 45.6783 34.8281C46.1583 34.8284 46.5475 35.2319 46.5475 35.7295Z" fill="white"/>
<path d="M49.0855 35.7295C49.0855 36.2271 48.6963 36.6307 48.2163 36.6307C47.7363 36.6307 47.3469 36.2271 47.3469 35.7295C47.3469 35.2317 47.7361 34.8281 48.2163 34.8281C48.6963 34.8284 49.0855 35.2319 49.0855 35.7295Z" fill="white"/>
<path d="M57.4508 58.102C59.7623 55.7934 59.7623 52.0504 57.4508 49.7418C55.1394 47.4331 51.3917 47.4331 49.0803 49.7418C46.7688 52.0504 46.7688 55.7934 49.0803 58.102C51.3917 60.4106 55.1394 60.4106 57.4508 58.102Z" fill="#4C9BAC"/>
<path d="M66.3556 69.715H46.823C46.2342 69.715 45.757 69.2383 45.757 68.6503V64.0335C45.757 63.4454 46.2342 62.9688 46.823 62.9688H66.3556C66.9444 62.9688 67.4216 63.4454 67.4216 64.0335V68.6503C67.4216 69.2383 66.9444 69.715 66.3556 69.715Z" fill="#E0E0E0"/>
<path d="M66.3556 78.6486H46.823C46.2342 78.6486 45.757 78.1719 45.757 77.5839V72.9671C45.757 72.379 46.2342 71.9023 46.823 71.9023H66.3556C66.9444 71.9023 67.4216 72.379 67.4216 72.9671V77.5839C67.4216 78.1717 66.9444 78.6486 66.3556 78.6486Z" fill="#E0E0E0"/>
<path d="M66.3556 87.3791H46.823C46.2342 87.3791 45.757 86.9024 45.757 86.3143V81.6976C45.757 81.1095 46.2342 80.6328 46.823 80.6328H66.3556C66.9444 80.6328 67.4216 81.1095 67.4216 81.6976V86.3143C67.4216 86.9022 66.9444 87.3791 66.3556 87.3791Z" fill="#E0E0E0"/>
<path d="M123.562 47.6758H69.8728V92.0957H123.562V47.6758Z" fill="#E0E0E0"/>
<g opacity="0.3">
<path d="M109.575 86.0257H52.5262C51.6055 86.0257 50.859 85.2804 50.859 84.3606V29.6886C50.859 28.769 51.6053 28.0234 52.5262 28.0234H109.575C110.496 28.0234 111.242 28.7688 111.242 29.6886V84.3606C111.242 85.2801 110.496 86.0257 109.575 86.0257Z" fill="black"/>
</g>
<path d="M116.624 3.90672V82.7321C116.624 83.7572 115.792 84.588 114.766 84.588H53.9215C52.8951 84.588 52.0632 83.7572 52.0632 82.7321V3.90672C52.0632 2.88165 52.8951 2.05078 53.9215 2.05078H114.766C115.792 2.05078 116.624 2.88165 116.624 3.90672Z" fill="white"/>
<path d="M116.624 9.36367H52.0632V3.87139C52.0632 2.86582 52.8793 2.05078 53.8861 2.05078H114.926C115.864 2.05078 116.624 2.81002 116.624 3.74639V9.36367Z" fill="#4C9BAC"/>
<path d="M116.624 3.90907C116.624 3.90907 116.618 3.84547 116.611 3.72048C116.591 3.59719 116.567 3.40884 116.468 3.18102C116.368 2.95612 116.197 2.6881 115.909 2.46052C115.624 2.23319 115.21 2.06019 114.725 2.06604C112.784 2.06872 109.924 2.07287 106.241 2.07798C98.8715 2.08286 88.2101 2.08968 75.0364 2.09821C71.7427 2.09942 68.2922 2.10089 64.6968 2.10235C62.899 2.10284 61.0652 2.10357 59.1965 2.1043C58.2621 2.10454 57.3192 2.10478 56.3678 2.10527C55.8921 2.10552 55.4142 2.10552 54.9343 2.10576C54.6943 2.10576 54.4537 2.106 54.2127 2.106C53.9697 2.10625 53.7331 2.09894 53.5042 2.15644C53.0458 2.26267 52.6338 2.56018 52.3862 2.96416C52.2615 3.16543 52.1774 3.39203 52.1405 3.62691C52.1039 3.85936 52.12 4.1074 52.1164 4.35326C52.1166 5.33666 52.1169 6.3281 52.1171 7.32758C52.1176 9.3263 52.1181 11.3567 52.1186 13.4173C52.1193 17.5383 52.1203 21.7794 52.1212 26.1287C52.1227 43.5258 52.1244 62.6522 52.1261 82.7279C52.1276 83.0315 52.2037 83.3331 52.3489 83.5992C52.4989 83.8609 52.7075 84.0938 52.9666 84.251C53.2222 84.4123 53.5186 84.509 53.8207 84.5222C54.1261 84.5324 54.444 84.5251 54.7545 84.5273C56.0036 84.5273 57.2487 84.5273 58.4897 84.5273C60.9718 84.5273 63.4375 84.5275 65.8853 84.5275C70.7808 84.5278 75.6046 84.5283 80.3444 84.5285C89.8241 84.5297 98.9679 84.5309 107.678 84.5322C109.856 84.5326 112.006 84.5329 114.129 84.5334C114.392 84.53 114.664 84.5412 114.918 84.5258C115.173 84.5053 115.424 84.4298 115.646 84.3031C116.092 84.0534 116.421 83.6092 116.526 83.1126C116.584 82.867 116.562 82.607 116.567 82.3448C116.567 82.0844 116.567 81.8246 116.567 81.5651C116.567 81.0461 116.567 80.5291 116.567 80.014C116.568 75.8928 116.569 71.8917 116.57 68.0234C116.573 60.2865 116.576 53.0799 116.578 46.5009C116.587 33.3434 116.594 22.6958 116.598 15.3366C116.604 11.6581 116.608 8.80171 116.61 6.86366C116.613 5.89585 116.615 5.15757 116.617 4.66026C116.619 4.1632 116.624 3.90907 116.624 3.90907C116.624 3.90907 116.628 4.16345 116.63 4.65978C116.632 5.15733 116.634 5.89536 116.637 6.86317C116.639 8.80122 116.644 11.6576 116.649 15.3361C116.654 22.6953 116.66 33.3429 116.669 46.5004C116.671 53.0796 116.674 60.2863 116.677 68.0229C116.678 71.8912 116.679 75.8923 116.68 80.0135C116.68 80.5286 116.68 81.0457 116.68 81.5646C116.68 81.8241 116.68 82.0841 116.68 82.3444C116.676 82.6012 116.699 82.8689 116.637 83.1357C116.526 83.664 116.176 84.136 115.702 84.4018C115.466 84.5365 115.2 84.6169 114.928 84.6391C114.655 84.6554 114.397 84.6437 114.129 84.6474C112.007 84.6479 109.857 84.6481 107.679 84.6486C98.9686 84.6498 89.8246 84.6511 80.3452 84.6523C75.6053 84.6525 70.7815 84.653 65.886 84.6532C63.4382 84.6532 60.9725 84.6535 58.4905 84.6535C57.2495 84.6535 56.0043 84.6535 54.7553 84.6535C54.4415 84.6511 54.1339 84.6589 53.8143 84.6481C53.4908 84.6338 53.1732 84.5304 52.8995 84.3575C52.6221 84.1888 52.3986 83.9403 52.2383 83.6596C52.0829 83.3753 52.0012 83.051 52 82.7271C52.0017 62.6515 52.0034 43.5251 52.0051 26.1279C52.0061 21.7787 52.0068 17.5376 52.0078 13.4166C52.0083 11.3562 52.0088 9.32582 52.0093 7.32685C52.0095 6.32737 52.0098 5.33593 52.01 4.35252C52.0141 4.10741 51.9968 3.8618 52.0359 3.60961C52.0749 3.36084 52.1644 3.12084 52.2964 2.90764C52.5589 2.47977 52.9951 2.16545 53.4806 2.05313C53.7238 1.99221 53.9756 2.0005 54.2132 2.00026C54.4542 2.00026 54.6948 2.0005 54.9348 2.0005C55.4147 2.00074 55.8926 2.00074 56.3683 2.00099C57.3197 2.00123 58.2626 2.00147 59.197 2.00196C61.0657 2.00269 62.8995 2.00318 64.6972 2.00391C68.2927 2.00537 71.7432 2.00659 75.0369 2.00805C88.2106 2.01658 98.872 2.0234 106.241 2.02828C109.925 2.03339 112.785 2.03754 114.726 2.04022C115.216 2.03607 115.635 2.2137 115.921 2.44493C116.212 2.67665 116.382 2.94808 116.48 3.17542C116.578 3.40567 116.6 3.59548 116.618 3.71926C116.623 3.84547 116.624 3.90907 116.624 3.90907Z" fill="#263238"/>
<path d="M70.114 15.9357L70.6791 14.8325C71.17 15.0827 71.8249 15.243 72.3976 15.243C72.8961 15.243 73.0744 15.1532 73.0744 14.9994C73.0744 14.4353 70.1953 14.8906 70.1953 13.2167C70.1953 12.3831 71.0065 11.7031 72.6208 11.7031C73.3201 11.7031 74.0415 11.8317 74.5849 12.0942L74.0567 13.1908C73.5433 12.9662 73.06 12.8574 72.6059 12.8574C72.0926 12.8574 71.9291 12.9856 71.9291 13.1393C71.9291 13.6783 74.8081 13.2291 74.8081 14.8837C74.8081 15.7046 73.997 16.3973 72.3827 16.3973C71.5127 16.3973 70.6346 16.2114 70.114 15.9357Z" fill="#263238"/>
<path d="M75.9817 14.2273V11.7031H77.6061V14.1814C77.6061 14.8828 77.8883 15.1449 78.3425 15.1449C78.7967 15.1449 79.0788 14.8828 79.0788 14.1814V11.7031H80.6758V14.2273C80.6758 15.604 79.8086 16.3973 78.3288 16.3973C76.8489 16.3973 75.9817 15.604 75.9817 14.2273Z" fill="#263238"/>
<path d="M83.4234 15.2168H83.0876V16.3969H81.8494V11.7031H83.6176C84.6408 11.7031 85.2911 12.3873 85.2911 13.4735C85.2911 14.1504 85.0393 14.6601 84.5986 14.9487L85.37 16.3973H84.0478L83.4234 15.2168ZM83.5387 12.9233H83.0876V14.0229H83.5387C83.8799 14.0229 84.0424 13.8152 84.0424 13.4731C84.0424 13.1314 83.8799 12.9233 83.5387 12.9233Z" fill="#263238"/>
<path d="M91.2377 11.7031L89.13 16.3973H87.4777L85.37 11.7031H87.1788L88.3681 14.4458L89.5857 11.7031H91.2377Z" fill="#263238"/>
<path d="M97.1053 15.2037V16.3973H92.4111V11.7031H97.0006V12.8967H94.2825V13.4465H96.6699V14.5863H94.2825V15.2033H97.1053V15.2037Z" fill="#263238"/>
<path d="M100.178 14.6939V16.3973H98.7275V14.6737L97.1053 11.7031H98.6355L99.514 13.3259L100.399 11.7031H101.799L100.178 14.6939Z" fill="#263238"/>
<path d="M69.9413 40.6179H63.9016C63.3813 40.6179 62.9592 40.1966 62.9592 39.6766V33.6444C62.9592 33.1247 63.381 32.7031 63.9016 32.7031H69.9413C70.4616 32.7031 70.8837 33.1244 70.8837 33.6444V39.6766C70.8837 40.1966 70.4619 40.6179 69.9413 40.6179Z" fill="#4C9BAC"/>
<path d="M66.8078 38.5404L64.5878 36.827L65.1864 36.0534L66.6751 37.2022L68.7921 34.7695L69.5308 35.4108L66.8078 38.5404Z" fill="white"/>
<path d="M103.344 23.3789H75.1108V25.2643H103.344V23.3789Z" fill="#E0E0E0"/>
<path d="M69.9413 28.2819H63.9016C63.3813 28.2819 62.9592 27.8606 62.9592 27.3407V21.3084C62.9592 20.7887 63.381 20.3672 63.9016 20.3672H69.9413C70.4616 20.3672 70.8837 20.7885 70.8837 21.3084V27.3407C70.8837 27.8606 70.4619 28.2819 69.9413 28.2819Z" fill="#E0E0E0"/>
<path d="M97.7132 36.1406H75.1108V38.026H97.7132V36.1406Z" fill="#4C9BAC"/>
<path d="M69.9414 53.5007H63.9018C63.3814 53.5007 62.9594 53.0794 62.9594 52.5594V46.5272C62.9594 46.0075 63.3812 45.5859 63.9018 45.5859H69.9414C70.4618 45.5859 70.8838 46.0072 70.8838 46.5272V52.5594C70.8838 53.0791 70.462 53.5007 69.9414 53.5007Z" fill="#E0E0E0"/>
<path d="M100.109 48.8984H75.1108V50.7839H100.109V48.8984Z" fill="#E0E0E0"/>
<path d="M69.9413 66.2624H63.9016C63.3813 66.2624 62.9592 65.8411 62.9592 65.3211V59.2889C62.9592 58.7692 63.381 58.3477 63.9016 58.3477H69.9413C70.4616 58.3477 70.8837 58.7689 70.8837 59.2889V65.3211C70.8837 65.8409 70.4619 66.2624 69.9413 66.2624Z" fill="#E0E0E0"/>
<path d="M69.9413 78.3132H63.9016C63.3813 78.3132 62.9592 77.8919 62.9592 77.3719V71.3397C62.9592 70.82 63.381 70.3984 63.9016 70.3984H69.9413C70.4616 70.3984 70.8837 70.8197 70.8837 71.3397V77.3719C70.8837 77.8916 70.4619 78.3132 69.9413 78.3132Z" fill="#E0E0E0"/>
<path d="M90.3411 61.6562H75.1108V63.5417H90.3411V61.6562Z" fill="#E0E0E0"/>
<path d="M103.344 73.5781H75.1108V75.4635H103.344V73.5781Z" fill="#E0E0E0"/>
<path d="M56.9514 5.51186C56.9514 6.15268 56.4313 6.67216 55.7897 6.67216C55.148 6.67216 54.6279 6.15268 54.6279 5.51186C54.6279 4.87104 55.148 4.35156 55.7897 4.35156C56.4313 4.35156 56.9514 4.87104 56.9514 5.51186Z" fill="white"/>
<path d="M60.088 5.51186C60.088 6.15268 59.5679 6.67216 58.9262 6.67216C58.2846 6.67216 57.7645 6.15268 57.7645 5.51186C57.7645 4.87104 58.2846 4.35156 58.9262 4.35156C59.5679 4.35156 60.088 4.87104 60.088 5.51186Z" fill="white"/>
<path d="M63.2244 5.51186C63.2244 6.15268 62.7043 6.67216 62.0627 6.67216C61.4211 6.67216 60.901 6.15268 60.901 5.51186C60.901 4.87104 61.4211 4.35156 62.0627 4.35156C62.7043 4.35156 63.2244 4.87104 63.2244 5.51186Z" fill="white"/>
<g opacity="0.3">
<path d="M121.659 67.2058H86.2869C85.8443 67.2058 85.4855 66.8474 85.4855 66.4054V56.6402C85.4855 56.1982 85.8443 55.8398 86.2869 55.8398H121.659C122.101 55.8398 122.46 56.1982 122.46 56.6402V66.4054C122.46 66.8474 122.101 67.2058 121.659 67.2058Z" fill="black"/>
</g>
<path d="M123.266 66.237H87.8936C87.451 66.237 87.0922 65.8787 87.0922 65.4366V55.6715C87.0922 55.2295 87.451 54.8711 87.8936 54.8711H123.266C123.708 54.8711 124.067 55.2295 124.067 55.6715V65.4366C124.067 65.8787 123.708 66.237 123.266 66.237Z" fill="white"/>
<path d="M123.266 66.2361C123.265 66.2307 123.351 66.2405 123.506 66.1933C123.655 66.1456 123.89 66.0133 124.004 65.715C124.068 65.5688 124.053 65.3892 124.053 65.1936C124.053 64.9978 124.052 64.7838 124.051 64.552C124.05 64.088 124.048 63.5532 124.046 62.951C124.043 61.7458 124.04 60.272 124.037 58.5616C124.036 57.706 124.034 56.7912 124.033 55.8209C124.032 55.698 124.037 55.5794 124.004 55.4665C123.973 55.3527 123.914 55.2464 123.834 55.1586C123.673 54.9767 123.429 54.8887 123.177 54.9065C122.664 54.9071 122.138 54.9078 121.599 54.9084C112.971 54.9125 101.056 54.9179 87.896 54.9242C87.7033 54.9235 87.5135 54.9998 87.3759 55.1333C87.2372 55.2653 87.1537 55.452 87.1478 55.6424C87.1472 56.0501 87.1468 56.4565 87.1464 56.8615C87.1464 57.6732 87.1462 58.4794 87.1462 59.2798C87.146 60.8806 87.1456 62.4577 87.1454 64.0074C87.1451 64.3949 87.1451 64.7806 87.1451 65.1645C87.1495 65.3591 87.1252 65.5489 87.1986 65.7125C87.2647 65.8784 87.3923 66.0183 87.5503 66.0999C87.6291 66.141 87.7154 66.168 87.8035 66.1778C87.8892 66.1869 87.9875 66.1828 88.0814 66.1838C88.2708 66.1838 88.46 66.184 88.6485 66.184C89.0256 66.1842 89.4007 66.1842 89.774 66.1844C91.2668 66.185 92.728 66.1857 94.1539 66.1863C99.8567 66.1906 104.992 66.1946 109.306 66.1979C113.617 66.2052 117.107 66.211 119.521 66.2151C120.725 66.2195 121.661 66.223 122.298 66.2253C122.614 66.2276 122.855 66.2295 123.02 66.2307C123.182 66.2324 123.266 66.2361 123.266 66.2361C123.266 66.2361 123.182 66.2398 123.019 66.2417C122.855 66.243 122.613 66.2446 122.297 66.2471C121.66 66.2494 120.724 66.2529 119.52 66.2573C117.106 66.2614 113.617 66.2673 109.305 66.2745C104.992 66.2778 99.8561 66.2818 94.1535 66.2862C92.7276 66.2868 91.2664 66.2874 89.7736 66.288C89.4005 66.2882 89.0252 66.2882 88.6481 66.2884C88.4596 66.2884 88.2706 66.2886 88.081 66.2886C87.9858 66.2874 87.8939 66.2926 87.7906 66.282C87.69 66.2708 87.5915 66.2401 87.5017 66.1933C87.3214 66.1003 87.1761 65.9411 87.1004 65.7517C87.0622 65.6575 87.0412 65.5557 87.0402 65.4536L87.0393 65.165C87.0393 64.7811 87.0391 64.3953 87.0391 64.0079C87.0389 62.4581 87.0385 60.8808 87.0383 59.2802C87.0383 58.4798 87.0381 57.6736 87.0381 56.862C87.0385 56.4554 87.0391 56.0476 87.0395 55.6386C87.0462 55.4206 87.1422 55.2065 87.3006 55.0556C87.4576 54.903 87.6763 54.8154 87.8958 54.8164C101.056 54.8226 112.971 54.8282 121.598 54.8322C122.137 54.8328 122.664 54.8334 123.177 54.8341C123.436 54.815 123.716 54.9125 123.886 55.1115C123.974 55.2078 124.038 55.3241 124.071 55.4482C124.107 55.573 124.101 55.7026 124.101 55.8213C124.1 56.7914 124.098 57.7064 124.097 58.562C124.094 60.2726 124.09 61.7462 124.088 62.9515C124.086 63.5534 124.084 64.0884 124.083 64.5525C124.082 64.7842 124.081 64.9982 124.08 65.194C124.078 65.3873 124.091 65.5727 124.025 65.7231C123.904 66.0283 123.661 66.1591 123.51 66.2041C123.351 66.2482 123.266 66.2361 123.266 66.2361Z" fill="#263238"/>
<path d="M105.218 58.1931L104.697 59.2491C104.638 59.3679 104.524 59.4503 104.393 59.4692L103.226 59.6386C102.896 59.6866 102.764 60.0923 103.003 60.3251L103.847 61.1471C103.942 61.2395 103.986 61.3727 103.963 61.5031L103.764 62.6638C103.707 62.9924 104.053 63.2433 104.348 63.088L105.392 62.54C105.509 62.4784 105.649 62.4784 105.767 62.54L106.81 63.088C107.106 63.2431 107.452 62.9924 107.395 62.6638L107.196 61.5031C107.173 61.3725 107.217 61.2395 107.311 61.1471L108.156 60.3251C108.395 60.0923 108.263 59.6866 107.932 59.6386L106.766 59.4692C106.635 59.4501 106.521 59.3679 106.463 59.2491L105.941 58.1931C105.793 57.894 105.366 57.894 105.218 58.1931Z" fill="#FFAD0D"/>
<path d="M111.938 58.1931L111.417 59.2491C111.358 59.3679 111.245 59.4503 111.113 59.4692L109.947 59.6386C109.616 59.6866 109.484 60.0923 109.723 60.3251L110.567 61.1471C110.662 61.2395 110.706 61.3727 110.683 61.5031L110.484 62.6638C110.427 62.9924 110.773 63.2433 111.068 63.088L112.112 62.54C112.23 62.4784 112.37 62.4784 112.487 62.54L113.531 63.088C113.826 63.2431 114.172 62.9924 114.115 62.6638L113.916 61.5031C113.893 61.3725 113.937 61.2395 114.032 61.1471L114.876 60.3251C115.115 60.0923 114.983 59.6866 114.653 59.6386L113.486 59.4692C113.355 59.4501 113.241 59.3679 113.182 59.2491L112.661 58.1931C112.513 57.894 112.086 57.894 111.938 58.1931Z" fill="#FFAD0D"/>
<path d="M118.659 58.1931L118.137 59.2491C118.079 59.3679 117.965 59.4503 117.834 59.4692L116.667 59.6386C116.336 59.6866 116.205 60.0923 116.444 60.3251L117.288 61.1471C117.383 61.2395 117.426 61.3727 117.404 61.5031L117.204 62.6638C117.148 62.9924 117.493 63.2433 117.789 63.088L118.833 62.54C118.95 62.4784 119.09 62.4784 119.208 62.54L120.251 63.088C120.547 63.2431 120.892 62.9924 120.836 62.6638L120.636 61.5031C120.614 61.3725 120.657 61.2395 120.752 61.1471L121.596 60.3251C121.835 60.0923 121.704 59.6866 121.373 59.6386L120.206 59.4692C120.075 59.4501 119.962 59.3679 119.903 59.2491L119.381 58.1931C119.234 57.894 118.807 57.894 118.659 58.1931Z" fill="#E0E0E0"/>
<path d="M98.4981 58.1931L97.9763 59.2491C97.9177 59.3679 97.8042 59.4503 97.673 59.4692L96.5061 59.6386C96.1756 59.6866 96.0438 60.0923 96.2829 60.3251L97.1271 61.1471C97.2221 61.2395 97.2653 61.3727 97.2429 61.5031L97.0435 62.6638C96.987 62.9924 97.3325 63.2433 97.6281 63.088L98.6717 62.54C98.7891 62.4784 98.9292 62.4784 99.0467 62.54L100.09 63.088C100.386 63.2431 100.731 62.9924 100.675 62.6638L100.475 61.5031C100.453 61.3725 100.496 61.2395 100.591 61.1471L101.435 60.3251C101.675 60.0923 101.543 59.6866 101.212 59.6386L100.045 59.4692C99.9142 59.4501 99.8007 59.3679 99.742 59.2491L99.2203 58.1931C99.0729 57.894 98.6457 57.894 98.4981 58.1931Z" fill="#FFAD0D"/>
<path d="M91.7776 58.1931L91.2558 59.2491C91.1972 59.3679 91.0837 59.4503 90.9525 59.4692L89.7857 59.6386C89.4551 59.6866 89.3233 60.0923 89.5624 60.3251L90.4066 61.1471C90.5016 61.2395 90.5449 61.3727 90.5224 61.5031L90.3231 62.6638C90.2665 62.9924 90.612 63.2433 90.9076 63.088L91.9512 62.54C92.0686 62.4784 92.2088 62.4784 92.3262 62.54L93.3698 63.088C93.6654 63.2431 94.0109 62.9924 93.9544 62.6638L93.755 61.5031C93.7325 61.3725 93.776 61.2395 93.8708 61.1471L94.715 60.3251C94.9541 60.0923 94.8223 59.6866 94.4917 59.6386L93.3249 59.4692C93.1937 59.4501 93.0802 59.3679 93.0216 59.2491L92.4998 58.1931C92.3524 57.894 91.9254 57.894 91.7776 58.1931Z" fill="#FFAD0D"/>
</svg>
