<svg width="148" height="136" viewBox="0 0 148 136" fill="none" xmlns="http://www.w3.org/2000/svg">
<path d="M13.838 131.549L0 71.4258H97.3235L111.161 131.549H13.838Z" fill="#BAD8DF"/>
<path d="M107.294 128.47H16.2882L3.86768 74.5039H94.8729L107.294 128.47Z" fill="#4C9BAC"/>
<path d="M148 133.641C148 134.813 147.05 135.763 145.879 135.763H66.5569C65.3854 135.763 64.4358 134.813 64.4358 133.641C64.4358 132.47 65.3856 131.52 66.5569 131.52H145.879C147.05 131.52 148 132.47 148 133.641Z" fill="#4C9BAC"/>
<path d="M23.2412 38.8743C23.1634 38.0635 23.1238 37.2114 23.1238 36.3428V36.3025H23.3375V36.3428C23.3375 37.205 23.3766 38.0499 23.4538 38.8537L23.2412 38.8743ZM23.4507 33.7478L23.238 33.7292C23.3111 32.8769 23.4196 32.0177 23.5613 31.1756L23.7723 31.2111C23.6315 32.0477 23.5233 32.9011 23.4507 33.7478ZM114.627 31.7607L114.414 31.7361C114.487 31.1033 114.548 30.4716 114.596 29.8597L114.808 29.876C114.762 30.4909 114.701 31.1248 114.627 31.7607ZM24.3007 28.7071L24.0936 28.6544C24.311 27.8051 24.5638 26.9763 24.8462 26.1906L25.0472 26.2626C24.7676 27.0422 24.5162 27.8648 24.3007 28.7071ZM114.929 27.3077L114.716 27.3047C114.718 27.1037 114.72 26.9042 114.72 26.7068C114.72 26.0432 114.701 25.3839 114.667 24.7488L114.88 24.7371C114.916 25.3761 114.934 26.0392 114.934 26.7068C114.934 26.9054 114.932 27.1059 114.929 27.3077ZM47.1816 24.3421L46.9142 24.0685C46.8135 23.9662 46.7129 23.8646 46.6133 23.7647L46.7642 23.6134C46.7768 23.6259 46.7894 23.639 46.8021 23.6515C46.6721 23.0685 46.5589 22.4869 46.4651 21.9169L46.6758 21.8823C46.789 22.5662 46.93 23.2683 47.0946 23.9692L47.1816 24.3421ZM26.0407 23.9114L25.8485 23.8165C26.2461 23.0119 26.683 22.2624 27.1481 21.5888L27.324 21.7105C26.8649 22.3751 26.4332 23.1158 26.0407 23.9114ZM114.42 22.2068C114.298 21.3421 114.136 20.4988 113.94 19.7003L114.147 19.6495C114.345 20.4545 114.508 21.3052 114.632 22.1767L114.42 22.2068ZM44.7496 22.0133C44.0808 21.4265 43.4121 20.8868 42.7616 20.4088L42.8879 20.2364C43.5437 20.7183 44.2171 21.2622 44.8911 21.8519L44.7496 22.0133ZM28.9557 19.7644L28.8069 19.6109C29.4552 18.9826 30.151 18.4617 30.8754 18.0633L30.9782 18.2509C30.2711 18.64 29.5908 19.1492 28.9557 19.7644ZM46.1616 19.3606C46.1208 18.7833 46.0998 18.2064 46.0998 17.6459C46.0998 17.3571 46.1055 17.0678 46.1166 16.7863L46.3305 16.7941C46.3195 17.0732 46.3137 17.3597 46.3137 17.6459C46.3137 18.2009 46.3341 18.7728 46.3745 19.3456L46.1616 19.3606ZM40.6256 19.0149C39.8452 18.5718 39.0699 18.208 38.3226 17.9333L38.396 17.7328C39.1549 18.0114 39.9412 18.3795 40.731 18.8285L40.6256 19.0149ZM80.3982 17.4943C79.9752 17.0692 79.5277 16.35 79.0281 15.296L79.2216 15.2045C79.7101 16.236 80.1442 16.9357 80.5494 17.3432L80.3982 17.4943ZM33.3442 17.3982L33.3054 17.1882C34.1325 17.0342 35.0014 17.0094 35.8884 17.1152L35.8621 17.3274C34.9973 17.2241 34.1493 17.248 33.3442 17.3982ZM113.188 17.2643C112.881 16.4517 112.523 15.6733 112.126 14.9506L112.312 14.8477C112.716 15.5789 113.077 16.3665 113.388 17.1889L113.188 17.2643ZM82.5787 16.9466L82.3949 16.8365C82.8334 16.1066 83.3303 15.3961 83.8734 14.7245L84.0396 14.8589C83.5034 15.5224 83.0112 16.2254 82.5787 16.9466ZM46.583 14.2586L46.3722 14.2235C46.5155 13.3613 46.7166 12.5179 46.9719 11.7173L47.1754 11.7819C46.9236 12.5732 46.7246 13.406 46.583 14.2586ZM85.7697 12.9871L85.6224 12.8319C86.2409 12.2449 86.9072 11.6898 87.6016 11.1816L87.7279 11.3547C87.0408 11.8571 86.3819 12.4063 85.7697 12.9871ZM78.0307 12.9246C77.9521 12.7207 77.873 12.5105 77.7929 12.2934C77.5731 11.7014 77.3237 11.1201 77.0517 10.5661L77.2436 10.4718C77.5188 11.0323 77.7708 11.6199 77.9932 12.219C78.0733 12.4352 78.1526 12.6451 78.2306 12.8486L78.0307 12.9246ZM110.725 12.8283C110.196 12.1559 109.609 11.5336 108.982 10.9795L109.125 10.8196C109.761 11.3819 110.356 12.0136 110.893 12.696L110.725 12.8283ZM89.877 9.97957L89.7725 9.79294C90.5232 9.37595 91.3051 9.00285 92.0993 8.68326L92.1784 8.88164C91.3933 9.19797 90.6186 9.56748 89.877 9.97957ZM106.931 9.4833C106.209 9.0544 105.437 8.6875 104.636 8.39254L104.71 8.19204C105.523 8.49124 106.307 8.86369 107.039 9.2996L106.931 9.4833ZM48.1356 9.42669L47.9449 9.33027C48.3359 8.55846 48.7914 7.82025 49.3004 7.1362L49.4724 7.26378C48.9699 7.93787 48.5208 8.66564 48.1356 9.42669ZM75.7665 8.36791C75.2838 7.66608 74.7459 6.99998 74.1677 6.38723L74.3233 6.2404C74.9089 6.86131 75.4541 7.53638 75.943 8.24637L75.7665 8.36791ZM94.6 8.08046L94.5465 7.87359C95.3841 7.65482 96.2353 7.4912 97.0776 7.38858L97.1034 7.6005C96.2709 7.70279 95.4286 7.8643 94.6 8.08046ZM102.183 7.72628C101.362 7.57668 100.51 7.49119 99.6497 7.47162L99.6544 7.25774C100.526 7.27748 101.389 7.36444 102.221 7.51583L102.183 7.72628ZM51.162 5.36613L51.0152 5.20984C51.6379 4.62417 52.3193 4.08662 53.0416 3.61205L53.159 3.79085C52.4472 4.25841 51.7753 4.78829 51.162 5.36613ZM72.2813 4.67931C71.612 4.16232 70.895 3.69313 70.151 3.28512L70.2538 3.0975C71.0075 3.51139 71.7335 3.98645 72.4118 4.50981L72.2813 4.67931ZM55.3955 2.57856L55.3095 2.38246C56.0888 2.03954 56.9098 1.75633 57.7464 1.53919L57.8004 1.74589C56.9742 1.96025 56.1644 2.2402 55.3955 2.57856ZM67.8313 2.23563C67.0373 1.94737 66.2117 1.7162 65.3794 1.54865L65.4214 1.33951C66.2647 1.50885 67.1003 1.74279 67.9043 2.03497L67.8313 2.23563ZM60.3062 1.29856L60.2853 1.08583C61.1359 1.00034 62.0076 0.978642 62.8631 1.02106L62.8526 1.23445C62.0076 1.19235 61.1468 1.21422 60.3062 1.29856Z" fill="#69ABB9" stroke="#69ABB9" stroke-width="0.5"/>
<path d="M17.7386 109.867C17.4637 112.013 18.6349 114.651 22.8954 115.173C27.7763 115.258 29.5827 112.2 29.4365 109.867H17.7386Z" fill="#F64C4C"/>
<path d="M29.2065 108.776L28.8786 51.3833L17.6104 51.3828L17.9379 108.776H29.2065Z" fill="#FFDD82"/>
<path d="M28.9855 51.4459L23.2446 40.9648L17.5037 51.4459H28.9855Z" fill="#FCD4CA"/>
<path d="M25.4275 44.95L23.2447 40.9648L21.0615 44.95H25.4275Z" fill="#1F8297"/>
<path d="M26.2406 51.5239L25.6406 51.5273L25.967 108.786L26.567 108.782L26.2406 51.5239Z" fill="white"/>
<path d="M21.0189 51.5239L20.4189 51.5273L20.7453 108.786L21.3453 108.782L21.0189 51.5239Z" fill="white"/>
<path d="M29.6676 108.359H17.4773V109.961H29.6676V108.359Z" fill="white"/>
<path fill-rule="evenodd" clip-rule="evenodd" d="M35.1392 35.0612C37.0661 34.9214 39.2443 35.8807 40.4121 37.4209C41.5327 35.7149 43.8736 34.4281 45.7998 34.2889C46.5781 34.232 47.3276 34.361 48.0048 34.6364L48.1851 28.7578L35.1789 29.6999L34.0886 35.2536C34.4249 35.154 34.7754 35.0875 35.1392 35.0612Z" fill="#4C9BAC"/>
<path fill-rule="evenodd" clip-rule="evenodd" d="M40.7349 33.0112L30.8093 28.4749L42.9982 23.25L51.3656 28.3566L40.7349 33.0112Z" fill="#1F8297"/>
<path fill-rule="evenodd" clip-rule="evenodd" d="M42.1563 28.1293C42.1563 28.5352 41.6779 28.8639 41.0871 28.8639C40.4969 28.8639 40.019 28.5352 40.019 28.1293C40.019 27.7234 40.497 27.3945 41.0871 27.3945C41.6779 27.3945 42.1563 27.7234 42.1563 28.1293Z" fill="white"/>
<path d="M32.7972 36.7591C32.2302 31.905 34.2281 29.2188 39.0829 28.3047L39.1227 28.5146C34.4012 29.4034 32.4587 32.0158 33.0095 36.7346L32.7972 36.7591Z" fill="#FFDD82"/>
<path fill-rule="evenodd" clip-rule="evenodd" d="M32.1683 42.7127C32.1301 44.3039 32.4985 43.7416 32.6316 42.6105C32.6903 42.1115 33.4545 43.259 33.4545 43.259C34.2429 43.3274 33.792 41.7408 34.0741 41.9479C34.6926 43.6726 34.918 42.8451 34.9086 42.3689C34.2429 38.6361 32.1045 31.2539 32.1683 42.7127Z" fill="#FFDD82"/>
<path d="M101.619 131.633C101.693 132.545 102.456 133.263 103.388 133.263H113.272C114.204 133.263 114.967 132.545 115.041 131.633H101.619Z" fill="#F2F2F2"/>
<path d="M70.7253 133.641C70.7253 134.813 69.7757 135.763 68.604 135.763H15.4518C14.2803 135.763 13.3303 134.813 13.3303 133.641C13.3303 132.47 14.2803 131.52 15.4518 131.52H68.604C69.7757 131.52 70.7253 132.47 70.7253 133.641Z" fill="#1F8297"/>
<path d="M41.2265 133.642C41.2265 134.051 40.8952 134.382 40.4863 134.382H32.3469C31.9386 134.382 31.6074 134.051 31.6074 133.642C31.6074 133.233 31.9386 132.902 32.3469 132.902H40.4863C40.8952 132.902 41.2265 133.233 41.2265 133.642Z" fill="white"/>
<path d="M28.4991 133.744C28.4991 134.152 28.1676 134.483 27.7592 134.483H24.4295C24.0207 134.483 23.6892 134.152 23.6892 133.744C23.6892 133.335 24.0207 133.004 24.4295 133.004H27.7592C28.1676 133.004 28.4991 133.335 28.4991 133.744Z" fill="white"/>
<path d="M61.907 134.286C61.907 134.695 61.5759 135.026 61.1669 135.026H59.334C58.9252 135.026 58.5945 134.695 58.5945 134.286C58.5945 133.878 58.9252 133.547 59.334 133.547H61.1669C61.5759 133.547 61.907 133.878 61.907 134.286Z" fill="white"/>
<path d="M55.7087 134.286C55.7087 134.695 55.3769 135.026 54.9686 135.026H53.1357C52.7269 135.026 52.395 134.695 52.395 134.286C52.395 133.878 52.7269 133.547 53.1357 133.547H54.9686C55.3769 133.547 55.7087 133.878 55.7087 134.286Z" fill="white"/>
<path d="M123.654 31.783C123.654 31.783 116.399 31.7721 113.435 31.7692C113.356 31.7692 113.291 31.7049 113.291 31.6256V22.2772C113.291 22.1984 113.355 22.1346 113.433 22.133C113.62 22.1307 113.833 22.1351 114.067 22.1406C114.289 22.1454 114.517 22.1504 114.761 22.1504C116.31 22.1504 118.203 21.9322 119.108 20.2326C119.147 20.0684 119.443 18.8123 119.557 18.1176C119.612 17.8272 119.805 17.6562 120.075 17.6562C120.353 17.6562 120.665 17.8344 120.932 18.1455C121.188 18.4421 121.759 19.2971 121.532 20.8097L121.316 21.809L125.159 21.9671C125.902 21.9671 126.509 22.5757 126.509 23.3229C126.509 23.8211 126.232 24.2721 125.812 24.5073C126.232 24.7426 126.509 25.1936 126.509 25.6914C126.509 26.2415 126.039 26.7161 125.527 26.9278C125.778 27.1032 126.12 27.3752 126.126 28.0576C126.132 28.6225 125.636 29.1084 125.103 29.3113C125.285 29.5162 125.498 29.8495 125.498 30.4265C125.498 31.4977 124.34 31.783 123.654 31.783ZM113.58 31.4817C116.624 31.4848 123.64 31.4956 123.654 31.4956C124.233 31.4951 125.21 31.27 125.21 30.4267C125.21 29.8139 124.932 29.5397 124.765 29.3762L124.733 29.3449C124.697 29.3072 124.682 29.2529 124.698 29.2022C124.712 29.1518 124.753 29.1133 124.805 29.1023C125.307 28.9933 125.842 28.549 125.838 28.0612C125.832 27.4889 125.561 27.3017 125.321 27.136C125.246 27.0844 125.175 27.0353 125.118 26.9773C125.08 26.9401 125.066 26.8852 125.081 26.8355C125.095 26.7848 125.136 26.7461 125.189 26.7352C125.687 26.6267 126.222 26.1811 126.222 25.6919C126.222 25.1932 125.867 24.7546 125.38 24.6484C125.314 24.6341 125.267 24.5753 125.267 24.5078C125.267 24.4399 125.314 24.3812 125.38 24.367C125.867 24.2616 126.222 23.8228 126.222 23.3234C126.222 22.7343 125.743 22.2555 125.153 22.2555L121.132 22.0897C121.09 22.088 121.051 22.0677 121.025 22.034C120.999 22.0003 120.989 21.9571 120.997 21.9153L121.249 20.758C121.456 19.3725 120.944 18.6003 120.714 18.3333C120.467 18.0463 120.222 17.9442 120.075 17.9442C119.946 17.9442 119.869 18.0173 119.84 18.1685C119.717 18.9146 119.386 20.303 119.383 20.3169C119.38 20.3286 119.376 20.3397 119.371 20.3505C118.397 22.2013 116.396 22.4384 114.761 22.4384C114.513 22.4384 114.273 22.4328 114.06 22.4279C113.889 22.4245 113.727 22.4206 113.579 22.4206V31.4817H113.58Z" fill="#FFDD82" stroke="#FFDD82"/>
<path d="M115.519 22.1172H109.984V31.7093H115.519V22.1172Z" fill="#FFDD82"/>
<path d="M116.982 73.3354L117.661 73.1886C118.542 72.9974 119.453 72.7992 120.373 72.6445L120.414 72.8866C119.5 73.0401 118.591 73.2369 117.713 73.4276L117.033 73.5754L116.982 73.3354Z" fill="#FFDD82"/>
<path d="M115.112 69.6942L115.45 69.0899C115.888 68.3011 116.341 67.4854 116.835 66.6914L117.043 66.8208C116.553 67.6101 116.1 68.4225 115.663 69.2093L115.326 69.8136L115.112 69.6942Z" fill="#FFDD82"/>
<path d="M115.735 78.7884L115.93 78.6406L116.347 79.1942C116.887 79.9133 117.447 80.6565 118.04 81.3716L117.851 81.5282C117.255 80.8086 116.694 80.0622 116.151 79.341L115.735 78.7884Z" fill="#FFDD82"/>
<path d="M89.433 131.402L88.6714 131.401L85.7861 71.2969L86.5472 71.298L89.433 131.402Z" fill="#BAD8DF"/>
<path d="M52.9741 131.367L52.2124 131.367L49.3264 71.2617L50.0881 71.2627L52.9741 131.367Z" fill="#BAD8DF"/>
<path d="M82.793 64.2109L67.6462 131.404L68.4068 131.406L83.5545 64.2109H82.793Z" fill="#1F8297"/>
<path d="M46.3359 64.2109L31.2039 131.335L31.9649 131.336L47.0981 64.2109H46.3359Z" fill="#1F8297"/>
<path d="M92.3465 104.308H43.6849L35.2473 36.8008H83.9084L92.3465 104.308Z" fill="#FFDD82"/>
<path d="M94.3147 104.308H45.6546L37.2158 36.8008H85.8764L94.3147 104.308Z" fill="#BAD8DF"/>
<path d="M60.9007 49.7204L60.3829 48.0716C59.7082 45.9343 59.0117 43.725 58.4177 41.4985L58.9928 41.4414C59.5824 43.6536 60.2774 45.8565 60.9488 47.9877L61.4678 49.6364L60.9007 49.7204Z" fill="url(#paint0_linear_1850_10568)"/>
<path d="M52.5377 53.5911L50.9967 52.6862C48.984 51.5078 46.9032 50.2895 44.8652 48.9801L45.1284 48.5039C47.1531 49.8035 49.2273 51.0194 51.2336 52.1941L52.7767 53.0999L52.5377 53.5911Z" fill="url(#paint1_linear_1850_10568)"/>
<path d="M44.335 64.278L44.1301 63.7005C46.2418 63.2931 48.3176 62.7805 50.325 62.2848L51.8953 61.8984L52.1259 62.4702L50.5572 62.8554C48.5427 63.3533 46.4603 63.868 44.335 64.278Z" fill="url(#paint2_linear_1850_10568)"/>
<path d="M74.3821 53.5948L73.978 53.1038L75.2166 52.198C76.8252 51.0231 78.4892 49.8074 80.0754 48.5078L80.4989 48.984C78.9034 50.2934 77.234 51.5117 75.6186 52.6901L74.3821 53.5948Z" fill="url(#paint3_linear_1850_10568)"/>
<path d="M86.1884 64.278C83.925 63.868 81.6691 63.3535 79.4878 62.8554L77.7878 62.4702L77.8257 61.8984L79.5261 62.2848C81.7017 62.7807 83.9498 63.2933 86.1995 63.7005L86.1884 64.278Z" fill="url(#paint4_linear_1850_10568)"/>
<path fill-rule="evenodd" clip-rule="evenodd" d="M66.4324 85.4269C66.4639 85.5542 67.4492 87.176 67.4807 87.3034C68.6605 87.3034 69.843 87.3034 71.0202 87.3034C70.9846 87.176 71.2594 85.5542 71.2236 85.4258C70.0485 85.4258 67.6075 85.4258 66.4324 85.4269Z" fill="#1F8297"/>
<path fill-rule="evenodd" clip-rule="evenodd" d="M62.4447 74.3348C62.9532 75.2306 64.0323 79.6595 64.5041 80.5674H72.0314C72.2257 79.6559 71.8405 75.2233 72.0795 74.327C72.7284 73.091 75.8969 68.5016 76.508 64.2036C77.3981 58.8086 71.0722 51.1913 63.2581 51.1802C55.4574 51.1126 51.1583 58.2001 53.8666 63.6124C55.9695 68.1012 60.4379 72.321 62.4447 74.3348Z" fill="white"/>
<path d="M69.5407 79.9817C68.4399 76.8451 67.6061 70.2499 67.9463 65.5017C67.7933 65.5183 67.638 65.5064 67.4792 65.4671C66.7329 65.2764 66.0741 64.466 65.5462 63.5402C65.2134 64.7532 64.6703 65.4198 63.9197 65.5289C63.6236 65.5718 63.3138 65.5242 63.0018 65.4062C64.4443 69.9453 66.2852 76.5348 66.6766 79.9528L66.2059 79.9272C65.8354 76.689 63.9683 69.8861 62.4416 65.1248C61.5861 64.5944 60.7533 63.6368 60.1301 62.6939C59.4718 61.6964 58.8369 60.3756 59.2139 59.9363L59.24 59.9112C59.5855 59.6418 59.9413 59.5758 60.2963 59.712C61.1549 60.0422 61.6649 61.4648 61.9388 62.2289L61.9504 62.2614C62.2008 62.9616 62.4997 63.8448 62.8232 64.8496C63.1539 65.0237 63.4795 65.1096 63.7766 65.0666C64.2893 64.9922 64.8726 64.5047 65.2028 62.8882C64.9292 62.3294 64.7042 61.7728 64.5376 61.321C63.9831 59.8146 64.1949 58.6416 64.6911 58.26C64.8923 58.106 65.1336 58.0912 65.3511 58.2191C65.7379 58.445 65.9459 59.0593 65.9377 59.9477C65.9278 61.1081 65.8455 62.0894 65.6945 62.8913C66.31 64.1073 66.9565 64.8715 67.5233 65.0157C67.6778 65.0545 67.8321 65.0498 67.9877 64.9993C68.114 63.6251 68.3494 62.431 68.7147 61.5594L68.777 61.409C68.9826 60.9058 69.1759 60.4288 69.5653 60.4681C69.8971 60.4991 70.0989 60.8923 70.165 61.0212C70.7171 62.0989 69.5906 64.0833 69.2583 64.555C69.0008 64.9214 68.7303 65.1819 68.4489 65.338C68.0747 69.9967 68.8824 76.7529 69.9862 79.8978L69.5407 79.9817ZM69.5947 60.9406C69.4772 61.0129 69.3054 61.4342 69.2204 61.6424L69.157 61.7959C68.8502 62.5257 68.6411 63.513 68.5132 64.6579C68.6276 64.5462 68.7418 64.4099 68.854 64.2491C69.3672 63.52 70.1046 61.8679 69.7492 61.1732C69.6736 61.0266 69.6203 60.9636 69.5947 60.9406ZM59.5881 60.2812C59.496 60.4411 59.7177 61.2812 60.5149 62.4873C60.9756 63.186 61.5884 63.9319 62.2204 64.4424C61.9667 63.6681 61.7256 62.9616 61.5065 62.3495L61.4946 62.3159C61.2869 61.7361 60.7999 60.3786 60.1916 60.1433C60.0038 60.0715 59.8071 60.1171 59.5881 60.2812ZM65.1256 58.6008C65.0853 58.6008 65.0429 58.6271 65.0182 58.6459C64.698 58.8922 64.4742 59.8555 64.9806 61.2289C65.0938 61.537 65.2106 61.83 65.3292 62.1074C65.4077 61.4894 65.4564 60.7504 65.4644 59.8662C65.4723 59.0172 65.271 58.6742 65.1634 58.6114C65.1514 58.6039 65.1382 58.6008 65.1256 58.6008Z" fill="#1F8297"/>
<path fill-rule="evenodd" clip-rule="evenodd" d="M63.0479 79.5586C63.6024 80.0702 63.8629 80.3102 64.1239 80.5513C63.258 80.4706 63.4448 81.8313 64.529 81.8962C63.4262 81.8527 63.6182 83.2563 64.6915 83.2712C63.6107 83.2129 63.8335 84.7921 64.8567 84.8807C64.6476 85.1607 64.4835 85.3798 64.3063 85.6157C65.8002 86.2635 73.4523 86.2221 73.4989 85.5454C73.273 85.3227 73.0219 85.0736 72.7661 84.8205C73.8249 84.7262 73.2992 83.3015 72.4134 83.3671C73.5949 83.2355 72.8945 81.8093 72.1628 81.9073C73.1425 81.7218 72.6614 80.6919 72.0648 80.5648C72.2504 80.2337 72.3966 79.9736 72.6299 79.5586C69.4041 79.5586 66.3788 79.5586 63.0479 79.5586Z" fill="url(#paint5_linear_1850_10568)"/>
<path d="M117.25 44.0672C117.386 43.9554 117.528 43.8505 117.667 43.7457C117.265 43.0502 117.085 42.5825 116.856 42.1646C116.461 41.4462 116.054 40.094 116.054 40.094C115.954 39.7392 115.724 39.6617 115.541 39.7647C115.217 39.9437 115.622 43.6139 115.74 44.5662C116.331 45.1452 116.604 43.5019 117.111 44.1829C117.16 44.1436 117.205 44.1038 117.25 44.0672Z" fill="#FCD4CA"/>
<path d="M119.052 47.3488C119.291 45.5198 119.705 43.6009 119.219 41.7887C118.636 41.6019 118.06 41.3958 117.497 41.1719C114.842 41.9152 115.832 47.9117 116.462 47.0643C117.381 47.0037 118.09 47.1698 119.052 47.3488Z" fill="#FCD4CA"/>
<path d="M108.667 46.0681C112.305 48.6316 113.342 55.6709 118.954 60.2748C118.836 61.374 118.971 62.8933 118.872 63.9906C114.947 63.3345 111.145 62.2817 108.201 58.174C108.175 58.1325 104.264 50.933 104.135 44.7461C104.135 44.7461 107.703 45.3903 108.667 46.0681Z" fill="#E9F3F5"/>
<path d="M88.0035 75.1758L85.6094 76.288C85.9835 78.9102 86.5497 84.6833 87.2873 84.3366C87.4356 84.2652 87.5817 84.2237 87.6498 84.2876C87.7876 84.4066 88.138 84.2065 88.2116 84.0261C88.288 83.842 88.6918 84.0546 88.7496 83.8874C88.8882 83.4917 89.2466 83.9613 89.2956 83.5149C89.3454 83.081 89.1799 82.2505 88.9904 81.4344C88.9095 81.0973 88.953 79.496 89.7979 79.9621C90.1483 80.1558 90.2958 80.908 90.7073 80.8645C91.0327 80.8299 91.0026 80.7881 90.4682 79.672C89.972 78.6362 88.9436 78.3437 88.0035 75.1758Z" fill="#FCD4CA"/>
<path d="M88.892 83.6731C88.6938 82.8027 88.491 81.9296 88.4143 81.0352L88.892 83.6731Z" fill="#E9F3F5"/>
<path d="M88.2619 83.968C88.0663 83.1001 87.8651 82.2281 87.7878 81.332L88.2619 83.968Z" fill="#E9F3F5"/>
<path d="M87.5677 84.2836C87.374 83.4121 87.1695 82.5406 87.0903 81.6445L87.5677 84.2836Z" fill="#E9F3F5"/>
<path d="M107.545 33.87C107.229 32.5433 107.369 29.1842 105.638 30.6877C105.156 31.1056 104.95 29.8367 102.102 30.2469C101.899 30.2914 101.874 33.4975 102.049 34.7121C102.036 34.8668 102.445 35.308 102.125 34.9302C100.813 33.446 99.6049 34.6715 99.9116 35.5391C100.357 36.7894 99.6652 36.1836 99.2864 36.5846C99.2554 36.6192 99.3711 38.5976 99.3711 38.5976L98.7744 44.4463C98.7744 44.4463 99.4912 45.172 102.914 45.3942C106.236 45.5649 105.984 43.2887 105.984 43.2887C105.984 43.2887 105.739 39.8853 106.202 39.9706C107.672 40.2337 107.627 40.5664 107.492 36.4993C107.49 36.4014 108.076 36.3233 108.43 36.1465C108.686 36.0173 107.885 35.2891 107.545 33.87Z" fill="#FCD4CA"/>
<path d="M102.661 38.2691C102.392 38.0388 105.984 43.2881 105.984 43.2881C105.984 43.2881 105.747 39.849 106.202 39.9699C106.348 40.0048 104.784 40.043 102.661 38.2691Z" fill="url(#paint6_linear_1850_10568)"/>
<path d="M90.0646 128.423L92.4786 128.379C92.4955 128.379 93.9528 128.379 93.9661 128.379C94.9986 129.118 96.5642 129.317 97.791 129.595C99.0004 129.868 99.5312 129.895 100.907 130.226C101.17 130.291 101.219 130.522 101.078 130.734C100.505 131.6 99.0626 131.587 98.1851 131.612C97.3153 131.636 95.5308 131.47 94.6649 131.421C92.708 131.316 91.7176 130.901 91.4613 131.289C91.2925 131.545 89.2554 131.361 89.3522 130.895C89.5933 129.705 89.9821 129.029 90.0646 128.423Z" fill="black"/>
<path d="M103.636 128.423L106.05 128.379C106.066 128.379 107.523 128.379 107.536 128.379C108.567 129.118 110.135 129.317 111.361 129.595C112.569 129.868 113.104 129.895 114.48 130.226C114.742 130.291 114.789 130.522 114.648 130.734C114.075 131.6 112.633 131.587 111.757 131.612C110.886 131.636 109.101 131.47 108.237 131.421C106.278 131.316 105.29 130.901 105.031 131.289C104.863 131.545 102.827 131.361 102.922 130.895C103.165 129.705 103.554 129.029 103.636 128.423Z" fill="black"/>
<path d="M94.671 70.5178C94.5091 69.6472 95.1672 69.9638 95.1122 69.7656L107.439 71.1347C109.95 72.2677 109.103 119.607 110.073 129.482C108.79 130.238 107.114 130.641 103.554 129.598C102.151 126.327 100.88 96.0353 103.045 84.9644C102.674 93.4735 96.7906 115.245 96.8933 128.86C93.5455 130.422 91.2909 128.936 89.887 128.386C90.2536 122.585 91.9858 77.8228 94.671 70.5178Z" fill="#040E31"/>
<path d="M109.222 50.2332C109.222 48.0373 107.67 44.2088 105.744 43.0473C105.646 42.9886 105.069 44.0378 105.069 44.0378C105.069 44.0378 100.22 42.1919 99.7642 41.9962C99.2121 41.7599 99.5782 41.9677 99.0458 41.678C97.2766 40.7116 92.9978 46.2216 92.9978 50.5648C92.9978 50.5648 95.2998 63.1398 94.4853 69.7927C94.0096 73.7183 107.116 74.5743 108.086 72.3045C108.614 71.0746 109.222 50.2332 109.222 50.2332Z" fill="#E9F3F5"/>
<path d="M106.947 44.9798L105.878 42.4291C105.878 42.4291 105.744 43.0263 105.435 43.4309C105.156 43.8017 100.868 42.1335 98.8357 41.6055C99.6706 42.5932 99.9186 42.8021 102.857 46.4336L105.596 43.8745L107.004 45.3897L106.947 44.9798Z" fill="#E6E6E6"/>
<path d="M105.756 43.7855C105.756 43.7855 105.043 43.3994 104.711 43.5937C104.38 43.7855 104.136 44.745 104.136 44.745L104.992 46.5012L104.814 63.1086L105.92 64.2109L106.78 62.8621C106.78 62.8621 105.753 46.4353 105.676 46.4032C105.557 46.3606 106.421 44.0896 105.756 43.7855Z" fill="#FFDD82"/>
<path d="M89.4796 66.172C88.1742 70.1472 88.1441 73.0245 88.7933 76.5269C87.6099 76.8574 86.4222 77.5326 85.2778 78.0081C83.9849 73.9037 83.7989 68.5741 84.1669 64.317C84.9684 55.0646 88.6084 48.405 91.587 45.2601C96.1846 40.9237 101.132 44.0828 99.6638 47.1638C96.3019 53.131 91.6908 59.4153 89.4796 66.172Z" fill="#E9F3F5"/>
<path opacity="0.5" d="M92.7399 52.0383C96.5615 49.9409 97.1794 53.0271 97.3029 57.5893V72.5919C95.5478 71.9667 94.3376 71.036 94.4851 69.792C94.9262 66.1935 94.4549 60.8678 93.9302 56.7316C92.1618 59.7786 90.5417 62.9182 89.4793 66.1672C87.9013 70.9815 87.2416 55.0526 92.7399 52.0383Z" fill="url(#paint7_linear_1850_10568)"/>
<path d="M107.407 37.833L107.445 38.3638C106.956 38.3685 105.708 37.6445 105.708 37.6445L107.407 37.833Z" fill="#E9F3F5"/>
<path d="M97.8709 33.025C98.032 32.9342 97.5493 31.789 97.5493 30.8661C97.5493 29.5831 99.0659 27.8936 101.237 28.6413C101.782 27.8534 102.522 27.5529 103.445 27.135C105.897 26.02 107.449 27.4117 107.989 28.8652C108.332 29.7951 108.03 30.4745 107.693 30.8478C106.662 31.9825 105.088 29.6368 104.645 31.6019C104.514 32.1745 103.413 32.4305 102.752 32.3522C102.785 33.5818 102.428 35.9584 102.257 35.6723C101.166 33.9509 100.331 35.0873 100.376 36.0348C100.418 36.8709 100.919 36.963 100.919 36.963C100.842 37.4689 99.2253 40.2181 99.2823 38.277C99.3258 36.6849 94.6062 34.8647 97.8709 33.025Z" fill="black"/>
<path d="M119.473 46.1886C119.473 46.1886 122.553 57.8977 121.928 62.4205C121.686 64.2008 119.27 64.7883 117.631 64.0547C115.992 63.3177 115.259 61.3935 115.998 59.7541L115.558 45.8828C116.53 46.2293 120 45.8828 119.473 46.1886Z" fill="#E9F3F5"/>
<path d="M116.991 59.5686C116.418 58.051 116.059 57.7061 115.647 56.6852L115.628 56.6133C115.689 56.6977 116.855 58.5834 117.186 59.6406L116.991 59.5686Z" fill="#02797D"/>
<path d="M103.405 84.8633L103.045 84.964L102.187 91.5987L103.405 84.8633Z" fill="#040E31"/>
<path d="M118.459 37.556C118.488 40.011 120.214 48.649 118.809 48.6579C116.603 49.4535 116.271 38.4244 116.217 37.2383C117.192 37.4367 116.981 37.8233 117.904 37.7594" fill="#1F8297"/>
<path fill-rule="evenodd" clip-rule="evenodd" d="M129.502 25.4062C127.997 29.2901 128.852 39.3284 131.668 42.7961C127.982 41.1218 121.976 38.6463 117.071 38.8428C116.506 38.866 115.784 39.1657 115.181 38.9709C113.72 38.5015 113.355 35.8428 114.745 34.9235C115.113 34.6816 115.563 34.833 115.997 34.776C120.761 34.1315 126.648 28.1856 129.502 25.4062Z" fill="url(#paint8_linear_1850_10568)"/>
<path fill-rule="evenodd" clip-rule="evenodd" d="M135.704 33.4939C136.289 38.3698 134.621 42.5791 131.976 42.8954C129.333 43.2137 126.716 39.5158 126.133 34.6426C125.547 29.7675 127.215 25.5557 129.859 25.2375C132.505 24.9225 135.12 28.6176 135.704 33.4939Z" fill="#1F8297"/>
<path d="M129.909 31.9766C128.653 31.66 127.408 31.4546 126.123 30.9258C125.982 32.0754 125.973 33.3346 126.133 34.6425C126.288 35.9479 126.591 37.1703 127.004 38.2543C128.125 37.437 129.285 36.9419 130.434 36.3362L129.909 31.9766Z" fill="#F64C4C"/>
<path fill-rule="evenodd" clip-rule="evenodd" d="M130.452 36.3392C130.087 36.3846 129.672 35.4431 129.53 34.239C129.382 33.0324 129.561 32.0222 129.928 31.978C130.295 31.9353 130.708 32.876 130.853 34.079C130.998 35.2848 130.818 36.2946 130.452 36.3392Z" fill="white"/>
<path d="M125.954 34.6584C125.353 29.6527 127.092 25.3144 129.83 24.9845C132.597 24.6574 135.278 28.4449 135.88 33.467C136.169 35.8811 135.931 38.2151 135.211 40.0342C134.48 41.8745 133.343 42.9754 132.006 43.1354C131.945 43.1434 131.885 43.1478 131.823 43.1517C129.121 43.2992 126.545 39.5681 125.954 34.6584ZM129.851 25.1713C127.216 25.4896 125.552 29.7326 126.141 34.6343C126.42 36.9631 127.166 39.1076 128.243 40.6723C129.306 42.2177 130.572 43.0321 131.814 42.9646C131.87 42.961 131.928 42.9566 131.984 42.9502C133.248 42.7972 134.334 41.7375 135.035 39.9644C135.747 38.172 135.98 35.8728 135.695 33.4881C135.414 31.1593 134.668 29.0156 133.591 27.4489C132.526 25.9036 131.257 25.0875 130.017 25.1558C129.963 25.1597 129.906 25.1641 129.851 25.1713Z" fill="white"/>
<path d="M130.961 34.0967C131.095 35.3833 130.889 36.4557 130.51 36.4919C130.129 36.5296 129.714 35.5159 129.583 34.2282C129.452 32.9427 129.655 31.8695 130.035 31.8329C130.417 31.7975 130.832 32.8109 130.961 34.0967Z" fill="#FEFF9F"/>
<path d="M130.43 36.604C129.949 36.516 129.583 35.3495 129.469 34.2426C129.36 33.1738 129.477 32.2234 129.762 31.8783C129.837 31.7859 129.928 31.7325 130.026 31.7236C130.055 31.722 130.085 31.722 130.115 31.7272C130.598 31.8144 130.963 32.9809 131.077 34.089C131.184 35.1567 131.069 36.1073 130.784 36.4521C130.707 36.5465 130.619 36.5979 130.521 36.6068C130.491 36.6101 130.462 36.6085 130.43 36.604ZM130.074 31.9492C130.067 31.9492 130.057 31.9475 130.047 31.9492C130.011 31.9508 129.975 31.976 129.937 32.0239C129.731 32.2719 129.583 33.1085 129.695 34.2199C129.835 35.6185 130.266 36.4089 130.498 36.3804C130.534 36.3768 130.57 36.3539 130.608 36.3093C130.814 36.0569 130.963 35.2208 130.849 34.1094C130.714 32.7681 130.311 31.9918 130.074 31.9492Z" fill="#1F8297"/>
<path d="M127.822 41.2406L127.849 41.1501C127.023 40.9188 126.109 39.1299 125.52 36.5941C124.833 33.6465 124.712 29.9292 126.061 28.7215L125.998 28.6523C124.613 29.8911 124.713 33.5444 125.426 36.6146C126.024 39.1866 126.966 40.9999 127.822 41.2406Z" fill="white"/>
<path d="M119.055 44.348C119.884 44.4308 120.316 44.2929 120.181 43.8839C120.023 43.3993 120.361 43.5335 120.361 43.1043C120.359 42.8837 120.077 42.6632 120.113 42.6286C120.337 42.4196 120.209 41.9965 120.088 41.9428C119.859 41.8485 119.889 41.7881 119.994 41.6387C120.149 41.4245 120.168 41.1212 119.847 40.9845C119.668 40.9042 119.378 40.9061 119.053 40.9441C118.604 40.8632 118.194 40.835 117.955 40.9355C117.627 41.073 117.637 41.3755 117.785 41.5905C117.885 41.738 117.914 41.8006 117.681 41.8966C117.557 41.9456 117.418 42.3715 117.631 42.5777C117.667 42.6114 117.398 42.7075 117.391 42.9272C117.377 43.3531 117.592 43.4483 117.519 43.7425C117.373 44.3198 118.086 44.4009 119.055 44.348Z" fill="#FCD4CA"/>
<path d="M117.866 41.8366C117.866 41.8269 117.875 41.8125 117.885 41.8081C118.332 41.6631 118.851 41.7049 119.35 41.7459C119.528 41.7594 119.688 41.7719 119.848 41.7769C119.863 41.7788 119.874 41.7893 119.874 41.8081C119.871 41.8233 119.859 41.8375 119.846 41.8366C119.685 41.833 119.522 41.817 119.348 41.8045C118.85 41.763 118.338 41.7218 117.902 41.8676C117.885 41.8712 117.87 41.8632 117.866 41.8482C117.868 41.843 117.868 41.8411 117.866 41.8366Z" fill="#EAC7C1"/>
<path d="M117.591 42.6726C117.591 42.6621 117.603 42.646 117.614 42.646C118.457 42.5002 119.271 42.5561 120.03 42.6275C120.045 42.6291 120.055 42.6416 120.055 42.6573C120.051 42.6745 120.041 42.6861 120.026 42.685C119.27 42.6158 118.459 42.5588 117.62 42.7047C117.606 42.7047 117.592 42.6939 117.591 42.6778C117.591 42.6759 117.591 42.6737 117.591 42.6726Z" fill="#EAC7C1"/>
<path d="M117.548 43.5595C117.548 43.5452 117.557 43.5346 117.571 43.5327C118.571 43.3478 119.182 43.3478 120.085 43.5366C120.098 43.5391 120.109 43.5515 120.107 43.5676C120.105 43.5676 120.105 43.5676 120.104 43.5692C120.104 43.5861 120.088 43.5969 120.075 43.5933C119.179 43.4065 118.571 43.4065 117.577 43.5897C117.563 43.5933 117.548 43.5809 117.548 43.5665C117.548 43.5648 117.547 43.5631 117.548 43.5595Z" fill="#EAC7C1"/>
<defs>
<linearGradient id="paint0_linear_1850_10568" x1="62.2323" y1="41.4414" x2="56.3161" y2="42.667" gradientUnits="userSpaceOnUse">
<stop stop-color="#1F8297"/>
<stop offset="0.448113" stop-color="#166C7D"/>
<stop offset="1" stop-color="#003940"/>
</linearGradient>
<linearGradient id="paint1_linear_1850_10568" x1="54.7597" y1="48.5039" x2="45.6905" y2="56.4346" gradientUnits="userSpaceOnUse">
<stop stop-color="#1F8297"/>
<stop offset="0.448113" stop-color="#166C7D"/>
<stop offset="1" stop-color="#003940"/>
</linearGradient>
<linearGradient id="paint2_linear_1850_10568" x1="54.1301" y1="61.8984" x2="50.5906" y2="68.5859" gradientUnits="userSpaceOnUse">
<stop stop-color="#1F8297"/>
<stop offset="0.448113" stop-color="#166C7D"/>
<stop offset="1" stop-color="#003940"/>
</linearGradient>
<linearGradient id="paint3_linear_1850_10568" x1="82.1333" y1="48.5078" x2="73.4522" y2="54.765" gradientUnits="userSpaceOnUse">
<stop stop-color="#1F8297"/>
<stop offset="0.448113" stop-color="#166C7D"/>
<stop offset="1" stop-color="#003940"/>
</linearGradient>
<linearGradient id="paint4_linear_1850_10568" x1="88.3079" y1="61.8984" x2="84.8709" y2="68.7301" gradientUnits="userSpaceOnUse">
<stop stop-color="#1F8297"/>
<stop offset="0.448113" stop-color="#166C7D"/>
<stop offset="1" stop-color="#003940"/>
</linearGradient>
<linearGradient id="paint5_linear_1850_10568" x1="76.1184" y1="79.5586" x2="64.454" y2="90.0727" gradientUnits="userSpaceOnUse">
<stop stop-color="#1F8297"/>
<stop offset="0.448113" stop-color="#166C7D"/>
<stop offset="1" stop-color="#003940"/>
</linearGradient>
<linearGradient id="paint6_linear_1850_10568" x1="105.156" y1="42.4945" x2="104.754" y2="40.6285" gradientUnits="userSpaceOnUse">
<stop offset="0.4182" stop-color="#E6AF92"/>
<stop offset="1" stop-color="#E6A392"/>
</linearGradient>
<linearGradient id="paint7_linear_1850_10568" x1="100.732" y1="61.9795" x2="88.3619" y2="61.9795" gradientUnits="userSpaceOnUse">
<stop stop-color="white"/>
<stop offset="0.5455" stop-color="#CCCCCC"/>
<stop offset="1" stop-color="white"/>
</linearGradient>
<linearGradient id="paint8_linear_1850_10568" x1="136.129" y1="25.4063" x2="109.084" y2="40.9675" gradientUnits="userSpaceOnUse">
<stop stop-color="#1F8297"/>
<stop offset="0.448113" stop-color="#166C7D"/>
<stop offset="1" stop-color="#003940"/>
</linearGradient>
</defs>
</svg>
