<svg width="60" height="60" viewBox="0 0 60 60" fill="none" xmlns="http://www.w3.org/2000/svg">
<rect x="0.5" y="0.5" width="59" height="59" rx="29.5" fill="#BAD8DF"/>
<rect x="0.5" y="0.5" width="59" height="59" rx="29.5" stroke="#1F8297"/>
<path fill-rule="evenodd" clip-rule="evenodd" d="M44.5455 28.0857C44.4612 28.3061 44.2505 28.4634 44.0007 28.4634H18.0809C17.8311 28.4634 17.6156 28.3061 17.5289 28.0857H44.5455ZM30.3479 18.0178V11.6844C30.3479 11.3089 30.6568 11 31.0325 11C31.4081 11 31.717 11.3089 31.717 11.6844V18.0129L31.64 17.9682C31.267 17.7512 30.8063 17.7512 30.4333 17.9682L30.3479 18.0178ZM31.0366 19.0055L44.5851 26.8857H17.4882L31.0366 19.0055ZM31.0325 25.1995C31.959 25.1995 32.7104 24.4482 32.7104 23.5216C32.7104 22.6033 31.959 21.852 31.0325 21.852C30.1142 21.852 29.3629 22.6033 29.3629 23.5216C29.3629 24.4482 30.1142 25.1995 31.0325 25.1995ZM26.4495 40.1775V29.6635H29.1543V40.1775H26.4495ZM32.9107 40.1775V29.6635H35.6238V40.1775H32.9107ZM39.3802 40.1775V29.6635H42.0849V40.1775H39.3802ZM22.6931 29.6635V32.5986C22.3457 32.3186 21.867 32.2525 21.4528 32.4366L20.7964 32.7285C20.534 32.5966 20.2642 32.4804 19.9883 32.3804V29.6635H22.6931ZM25.6212 41.3775H43.4957L43.7814 41.9472H24.5519C24.5617 41.9189 24.5713 41.8906 24.5808 41.8622C24.5808 41.8623 25.2504 41.6045 25.2504 41.6045C25.3896 41.5509 25.5145 41.4733 25.6212 41.3775ZM24.2872 43.1472H45.2904L46 44.9253H24.1412L24.2062 44.8602C24.5569 44.5095 24.6558 43.9792 24.4548 43.5258L24.2872 43.1472ZM18.8856 33.3009C19.5398 33.4564 20.1636 33.7149 20.737 34.0682L21.9404 33.5331L23.3577 34.9505L22.8246 36.1538C23.1779 36.7272 23.4364 37.3511 23.5919 38.0073L24.8194 38.4797V40.4846L23.5919 40.957C23.4364 41.6112 23.176 42.235 22.8246 42.8084L23.3577 44.0118L21.9404 45.4291L20.737 44.8961C20.1657 45.2494 19.5398 45.5078 18.8856 45.6633L18.4131 46.8908H16.4083L15.9359 45.6633C15.2797 45.5078 14.6558 45.2474 14.0824 44.8961L12.8791 45.4291L11.4618 44.0118L11.9968 42.8084C11.6435 42.237 11.385 41.6112 11.2275 40.957L10 40.4846V38.4797L11.2275 38.0073C11.385 37.3511 11.6435 36.7272 11.9968 36.1538L11.4618 34.9505L12.8791 33.5331L14.0824 34.0682C14.6558 33.7149 15.2797 33.4564 15.9338 33.3009L16.4083 32.0714H18.4131L18.8856 33.3009ZM17.4097 35.9842C15.4776 35.9842 13.9128 37.549 13.9128 39.4811C13.9128 41.4133 15.4776 42.9801 17.4097 42.9801C19.3419 42.9801 20.9086 41.4133 20.9086 39.4811C20.9086 37.549 19.3419 35.9842 17.4097 35.9842ZM32.8774 11.3016C34.5865 11.1582 35.7983 12.8702 37.8526 11.6844V17.4611C35.853 18.6117 34.8323 16.7019 32.917 17.01V11.6844C32.917 11.5534 32.9034 11.4253 32.8774 11.3016Z" fill="#1F8297"/>
</svg>
