<svg width="18" height="18" viewBox="0 0 18 18" fill="none" xmlns="http://www.w3.org/2000/svg">
<path d="M8.93928 12.9355C8.89357 12.8901 8.83177 12.8647 8.76737 12.8647C8.70296 12.8647 8.64117 12.8901 8.59545 12.9355L8.2831 13.2479L7.7964 12.7612C8.46378 12.0045 8.81048 11.0177 8.76309 10.0099C8.71571 9.00204 8.27796 8.0522 7.54253 7.36145C6.80709 6.6707 5.83171 6.29327 4.82287 6.30907C3.81404 6.32487 2.85095 6.73266 2.13751 7.4461C1.42407 8.15954 1.01628 9.12263 1.00048 10.1315C0.984676 11.1403 1.3621 12.1157 2.05285 12.8511C2.7436 13.5866 3.69345 14.0243 4.70129 14.0717C5.70914 14.1191 6.69586 13.7724 7.45257 13.105L7.93926 13.5917L7.62691 13.904C7.58154 13.9498 7.55609 14.0116 7.55609 14.076C7.55609 14.1404 7.58154 14.2022 7.62691 14.2479L10.0894 16.7104C10.2636 16.8837 10.4994 16.9809 10.7452 16.9806C10.9909 16.9803 11.2265 16.8826 11.4002 16.7088C11.574 16.5351 11.6717 16.2995 11.672 16.0537C11.6723 15.808 11.5751 15.5722 11.4018 15.398L8.93928 12.9355ZM4.89319 12.8653C4.3664 12.8653 3.85145 12.7091 3.41344 12.4164C2.97543 12.1237 2.63404 11.7078 2.43245 11.2211C2.23085 10.7344 2.17811 10.1988 2.28088 9.68217C2.38365 9.1655 2.63732 8.69091 3.00982 8.31841C3.38232 7.94592 3.8569 7.69224 4.37357 7.58947C4.89024 7.4867 5.42578 7.53945 5.91247 7.74104C6.39916 7.94263 6.81514 8.28402 7.10781 8.72203C7.40048 9.16004 7.55669 9.675 7.55669 10.2018C7.55627 10.9081 7.27552 11.5853 6.7761 12.0847C6.27669 12.5841 5.59947 12.8649 4.89319 12.8653Z" fill="#003940"/>
<path d="M14.0943 1C13.3239 1.00084 12.5853 1.30724 12.0406 1.85197C11.4959 2.3967 11.1895 3.13527 11.1886 3.90563C11.1886 3.96985 11.2142 4.03144 11.2596 4.07685C11.305 4.12226 11.3666 4.14777 11.4308 4.14777C11.495 4.14777 11.5566 4.12226 11.602 4.07685C11.6474 4.03144 11.6729 3.96985 11.6729 3.90563C11.6729 3.42673 11.8149 2.95859 12.081 2.5604C12.347 2.16221 12.7252 1.85185 13.1677 1.66859C13.6101 1.48532 14.097 1.43737 14.5667 1.5308C15.0364 1.62423 15.4678 1.85484 15.8064 2.19347C16.1451 2.5321 16.3757 2.96355 16.4691 3.43325C16.5625 3.90294 16.5146 4.3898 16.3313 4.83224C16.148 5.27469 15.8377 5.65285 15.4395 5.91892C15.0413 6.18498 14.5732 6.32699 14.0943 6.32699H8.76728C8.70306 6.32699 8.64148 6.3525 8.59607 6.39791C8.55066 6.44332 8.52515 6.50491 8.52515 6.56912C8.52515 6.63334 8.55066 6.69493 8.59607 6.74034C8.64148 6.78575 8.70306 6.81126 8.76728 6.81126H14.0943C14.8649 6.81126 15.604 6.50513 16.1489 5.96022C16.6938 5.41531 16.9999 4.67625 16.9999 3.90563C16.9999 3.13501 16.6938 2.39595 16.1489 1.85104C15.604 1.30613 14.8649 1 14.0943 1Z" fill="#003940"/>
<path d="M4.40888 5.35886H9.00946C9.24891 5.35886 9.48299 5.28785 9.68208 5.15482C9.88118 5.02179 10.0364 4.83271 10.128 4.61149C10.2196 4.39026 10.2436 4.14684 10.1969 3.91199C10.1502 3.67714 10.0349 3.46142 9.86554 3.2921C9.69623 3.12278 9.4805 3.00748 9.24566 2.96076C9.01081 2.91405 8.76738 2.93802 8.54616 3.02966C8.32493 3.12129 8.13585 3.27647 8.00282 3.47556C7.86979 3.67466 7.79879 3.90873 7.79879 4.14818C7.79879 4.2124 7.8243 4.27399 7.8697 4.3194C7.91511 4.36481 7.9767 4.39032 8.04092 4.39032C8.10514 4.39032 8.16673 4.36481 8.21214 4.3194C8.25755 4.27399 8.28306 4.2124 8.28306 4.14818C8.28306 4.00451 8.32566 3.86407 8.40548 3.74461C8.4853 3.62515 8.59875 3.53205 8.73148 3.47707C8.86421 3.42209 9.01027 3.4077 9.15118 3.43573C9.29209 3.46376 9.42152 3.53294 9.52311 3.63453C9.6247 3.73612 9.69389 3.86556 9.72191 4.00646C9.74994 4.14737 9.73556 4.29343 9.68058 4.42616C9.6256 4.5589 9.53249 4.67235 9.41303 4.75217C9.29358 4.83198 9.15313 4.87459 9.00946 4.87459H4.40888C4.34467 4.87459 4.28308 4.9001 4.23767 4.94551C4.19226 4.99092 4.16675 5.05251 4.16675 5.11672C4.16675 5.18094 4.19226 5.24253 4.23767 5.28794C4.28308 5.33335 4.34467 5.35886 4.40888 5.35886Z" fill="#003940"/>
<path d="M14.3363 7.29492H10.4621C10.3979 7.29492 10.3363 7.32043 10.2909 7.36584C10.2455 7.41125 10.22 7.47284 10.22 7.53706C10.22 7.60128 10.2455 7.66286 10.2909 7.70827C10.3363 7.75368 10.3979 7.77919 10.4621 7.77919H14.3363C14.5278 7.77919 14.7151 7.836 14.8744 7.94242C15.0337 8.04885 15.1578 8.20011 15.2311 8.37709C15.3044 8.55407 15.3236 8.74881 15.2862 8.93669C15.2488 9.12457 15.1566 9.29715 15.0211 9.4326C14.8857 9.56805 14.7131 9.6603 14.5252 9.69767C14.3374 9.73504 14.1426 9.71586 13.9656 9.64255C13.7887 9.56925 13.6374 9.44511 13.531 9.28583C13.4245 9.12656 13.3677 8.9393 13.3677 8.74774C13.3677 8.68352 13.3422 8.62193 13.2968 8.57652C13.2514 8.53111 13.1898 8.5056 13.1256 8.5056C13.0614 8.5056 12.9998 8.53111 12.9544 8.57652C12.909 8.62193 12.8835 8.68352 12.8835 8.74774C12.8835 9.03508 12.9687 9.31596 13.1283 9.55488C13.2879 9.79379 13.5148 9.98 13.7803 10.09C14.0458 10.1999 14.3379 10.2287 14.6197 10.1726C14.9015 10.1166 15.1604 9.97821 15.3636 9.77503C15.5668 9.57185 15.7051 9.31299 15.7612 9.03117C15.8172 8.74935 15.7885 8.45724 15.6785 8.19177C15.5685 7.9263 15.3823 7.6994 15.1434 7.53977C14.9045 7.38013 14.6236 7.29492 14.3363 7.29492Z" fill="#003940"/>
</svg>
