<svg width="20" height="20" viewBox="0 0 20 20" fill="none" xmlns="http://www.w3.org/2000/svg">
<path d="M9.99705 19C7.92063 18.9986 5.90854 18.2796 4.30157 16.9649C2.6946 15.6502 1.59155 13.8206 1.17927 11.786C0.766986 9.75132 1.07081 7.63674 2.03928 5.80039C3.00774 3.96405 4.58132 2.51884 6.49346 1.70955C8.69296 0.780537 11.1715 0.76314 13.3838 1.66119C15.5962 2.55924 17.3611 4.29917 18.2903 6.49822C19.2195 8.69727 19.2369 11.1753 18.3387 13.3872C17.4404 15.5991 15.7001 17.3636 13.5006 18.2926C12.3923 18.7617 11.2006 19.0023 9.99705 19ZM9.99705 1.69441C5.41574 1.69441 1.68865 5.42073 1.68865 10.0011C1.68865 14.5814 5.41574 18.3078 9.99705 18.3078C14.5783 18.3078 18.3054 14.5814 18.3054 10.0011C18.3054 5.42073 14.5783 1.69441 9.99705 1.69441Z" fill="#003940"/>
<path d="M5.75234 16.2604C5.68039 16.2603 5.6103 16.2376 5.55184 16.1956C4.01463 15.0937 2.94164 13.458 2.54184 11.6068C2.14203 9.75561 2.44403 7.82157 3.38902 6.18131C4.33401 4.54105 5.85434 3.31199 7.65393 2.73349C9.45352 2.15499 11.4035 2.26847 13.1242 3.05183C13.168 3.07186 13.2071 3.10084 13.2391 3.13691C13.271 3.17298 13.2951 3.21535 13.3098 3.2613C13.3244 3.30724 13.3293 3.35575 13.3242 3.40371C13.319 3.45167 13.3039 3.49801 13.2798 3.53978L6.05124 16.0874C6.02719 16.1292 5.99468 16.1655 5.9558 16.194C5.91693 16.2224 5.87254 16.2424 5.8255 16.2527C5.80145 16.2578 5.77693 16.2604 5.75234 16.2604ZM9.95927 3.05053C7.56369 3.05053 5.262 4.30847 3.98436 6.52631C2.25653 9.52539 2.98211 13.2726 5.64831 15.4026L12.4867 3.53243C11.6818 3.21452 10.8244 3.05106 9.95927 3.05053Z" fill="#003940"/>
<path d="M10.0194 17.6296C8.93468 17.6296 7.86264 17.3959 6.87588 16.9445C6.83208 16.9245 6.79295 16.8955 6.76098 16.8595C6.72902 16.8234 6.70493 16.781 6.69026 16.7351C6.67559 16.6892 6.67066 16.6407 6.6758 16.5927C6.68094 16.5447 6.69603 16.4984 6.72009 16.4566L13.947 3.91092C13.9711 3.86918 14.0036 3.83296 14.0425 3.80457C14.0814 3.77618 14.1258 3.75626 14.1729 3.74608C14.2199 3.7359 14.2685 3.73568 14.3156 3.74545C14.3628 3.75522 14.4073 3.77475 14.4465 3.80279C15.9841 4.90404 17.0576 6.53958 17.4578 8.39076C17.858 10.2419 17.5563 12.1761 16.6115 13.8165C15.943 14.9759 14.982 15.9386 13.8249 16.6079C12.6678 17.2772 11.3554 17.6295 10.0194 17.6296ZM7.51325 16.464C10.6865 17.7133 14.2862 16.4692 16.0145 13.4705C17.7427 10.4719 17.0156 6.72528 14.35 4.59558L7.51325 16.464Z" fill="#003940"/>
<path d="M7.54387 13.13H4.86396C4.7732 13.13 4.68615 13.0946 4.62197 13.0316C4.55779 12.9686 4.52173 12.8832 4.52173 12.7941V7.20502C4.52173 7.11594 4.55779 7.03051 4.62197 6.96752C4.68615 6.90453 4.7732 6.86914 4.86396 6.86914H10.8317C10.9224 6.86914 11.0095 6.90453 11.0737 6.96752C11.1378 7.03051 11.1739 7.11594 11.1739 7.20502C11.1739 7.29411 11.1378 7.37954 11.0737 7.44253C11.0095 7.50552 10.9224 7.54091 10.8317 7.54091H5.2062V12.4582H7.54387C7.63463 12.4582 7.72168 12.4936 7.78587 12.5566C7.85005 12.6196 7.8861 12.705 7.8861 12.7941C7.8861 12.8832 7.85005 12.9686 7.78587 13.0316C7.72168 13.0946 7.63463 13.13 7.54387 13.13Z" fill="#003940"/>
<path d="M15.1361 13.13H9.16841C9.07764 13.13 8.99059 13.0946 8.92641 13.0316C8.86223 12.9686 8.82617 12.8832 8.82617 12.7941C8.82617 12.705 8.86223 12.6196 8.92641 12.5566C8.99059 12.4936 9.07764 12.4582 9.16841 12.4582H14.7939V7.54091H12.4562C12.3654 7.54091 12.2784 7.50552 12.2142 7.44253C12.15 7.37954 12.114 7.29411 12.114 7.20502C12.114 7.11594 12.15 7.03051 12.2142 6.96752C12.2784 6.90453 12.3654 6.86914 12.4562 6.86914H15.1361C15.2269 6.86914 15.3139 6.90453 15.3781 6.96752C15.4423 7.03051 15.4783 7.11594 15.4783 7.20502V12.7941C15.4783 12.8832 15.4423 12.9686 15.3781 13.0316C15.3139 13.0946 15.2269 13.13 15.1361 13.13Z" fill="#003940"/>
<path d="M4.86583 9.21697C4.77457 9.21697 4.68704 9.18071 4.62251 9.11618C4.55798 9.05165 4.52173 8.96413 4.52173 8.87287C4.52173 8.78161 4.55798 8.69409 4.62251 8.62955C4.68704 8.56502 4.77457 8.52877 4.86583 8.52877C5.2146 8.52837 5.54898 8.38964 5.79561 8.14302C6.04223 7.8964 6.18096 7.56202 6.18136 7.21324C6.18136 7.12198 6.21761 7.03446 6.28214 6.96992C6.34667 6.90539 6.4342 6.86914 6.52546 6.86914C6.61672 6.86914 6.70424 6.90539 6.76877 6.96992C6.8333 7.03446 6.86955 7.12198 6.86955 7.21324C6.86899 7.74449 6.6577 8.25381 6.28205 8.62946C5.9064 9.00511 5.39707 9.2164 4.86583 9.21697Z" fill="#003940"/>
<path d="M6.52546 13.131C6.4342 13.131 6.34667 13.0948 6.28214 13.0302C6.21761 12.9656 6.18136 12.8781 6.18136 12.7868C6.18068 12.438 6.04182 12.1038 5.79523 11.8573C5.54864 11.6108 5.21442 11.4721 4.86583 11.4717C4.77457 11.4717 4.68704 11.4354 4.62251 11.3709C4.55798 11.3063 4.52173 11.2188 4.52173 11.1275C4.52173 11.0362 4.55798 10.9486 4.62251 10.884C4.68704 10.8195 4.77457 10.7832 4.86583 10.7832C5.39706 10.7838 5.90635 10.9952 6.28198 11.371C6.65762 11.7469 6.86893 12.2564 6.86955 12.7878C6.86927 12.879 6.83289 12.9663 6.76839 13.0306C6.70389 13.0949 6.61653 13.131 6.52546 13.131Z" fill="#003940"/>
<path d="M13.4745 13.131C13.3832 13.131 13.2957 13.0948 13.2312 13.0302C13.1666 12.9656 13.1304 12.8781 13.1304 12.7868C13.1313 12.2555 13.3427 11.7462 13.7183 11.3707C14.0939 10.9951 14.6031 10.7838 15.1341 10.7832C15.2254 10.7832 15.3129 10.8195 15.3774 10.884C15.4419 10.9486 15.4782 11.0362 15.4782 11.1275C15.4782 11.2188 15.4419 11.3063 15.3774 11.3709C15.3129 11.4354 15.2254 11.4717 15.1341 11.4717C14.7853 11.4721 14.4509 11.6109 14.2043 11.8576C13.9577 12.1044 13.819 12.4389 13.8186 12.7878C13.8183 12.879 13.7819 12.9663 13.7174 13.0306C13.6529 13.0949 13.5655 13.131 13.4745 13.131Z" fill="#003940"/>
<path d="M15.1341 9.21697C14.6029 9.2164 14.0935 9.00511 13.7179 8.62946C13.3422 8.25381 13.1309 7.74449 13.1304 7.21324C13.1304 7.12198 13.1666 7.03446 13.2312 6.96992C13.2957 6.90539 13.3832 6.86914 13.4745 6.86914C13.5657 6.86914 13.6533 6.90539 13.7178 6.96992C13.7823 7.03446 13.8186 7.12198 13.8186 7.21324C13.819 7.56202 13.9577 7.8964 14.2043 8.14302C14.4509 8.38964 14.7853 8.52837 15.1341 8.52877C15.2254 8.52877 15.3129 8.56502 15.3774 8.62955C15.4419 8.69409 15.4782 8.78161 15.4782 8.87287C15.4782 8.96413 15.4419 9.05165 15.3774 9.11618C15.3129 9.18071 15.2254 9.21697 15.1341 9.21697Z" fill="#003940"/>
</svg>
