<svg width="20" height="20" viewBox="0 0 20 20" fill="none" xmlns="http://www.w3.org/2000/svg">
<path d="M15.5652 12.9185V4.61739C15.5652 4.47668 15.4511 4.36259 15.3104 4.36259C15.1697 4.36259 15.0556 4.47668 15.0556 4.61739L15.0549 12.9185C14.127 13.0433 13.4097 13.8404 13.4097 14.8018C13.4097 15.8491 14.2623 16.7009 15.3104 16.7009C16.3585 16.7009 17.2096 15.8491 17.2096 14.8018C17.2096 13.8404 16.4924 13.044 15.5652 12.9185ZM15.3104 16.1906C14.5438 16.1906 13.9201 15.5677 13.9201 14.8011C13.9201 14.0351 14.5438 13.4107 15.3104 13.4107C16.0771 13.4107 16.7 14.0344 16.7 14.8011C16.7 15.5677 16.0771 16.1906 15.3104 16.1906ZM17.4371 11.7845V4.13003C17.4371 2.9572 16.4833 2.00339 15.3104 2.00339C14.4951 2.00339 13.7855 2.46431 13.4287 3.13971C12.6233 2.66586 11.7471 2.33424 10.8176 2.15322C8.65537 1.73414 6.45942 2.18136 4.63478 3.41353C2.80936 4.64568 1.57333 6.5145 1.15353 8.67599C0.733735 10.8375 1.18167 13.0342 2.41308 14.8589C3.64524 16.6843 5.51406 17.9203 7.67633 18.3401C8.19352 18.4405 8.71834 18.4899 9.24087 18.4899C10.5164 18.4899 11.7842 18.1941 12.9305 17.6214C13.5732 18.1644 14.4037 18.4922 15.3096 18.4922C17.3442 18.4922 19 16.8364 19 14.8019C19 13.5948 18.4181 12.4774 17.4362 11.7854L17.4371 11.7845ZM10.7195 2.65353C11.2557 2.75773 11.7737 2.9167 12.2688 3.12586C12.0757 4.0804 11.1462 4.52611 9.43346 4.48808C8.46676 4.46603 7.8134 4.62043 7.3775 4.97334C6.98047 5.29506 6.84281 5.72481 6.72111 6.10434C6.63669 6.36751 6.55682 6.61774 6.39939 6.80941C6.36744 6.6938 6.32789 6.47246 6.30888 6.05718C6.28378 5.50043 6.11645 5.16805 5.81145 5.06994C5.47678 4.96193 5.05543 5.18859 4.65535 5.6921C4.1564 6.32112 4.00048 7.14103 4.23931 7.88572C4.48498 8.65012 5.09573 9.2236 5.91718 9.45938C6.07538 9.50501 6.22521 9.54304 6.37049 9.57955C7.17823 9.78491 7.66576 9.90888 7.89698 10.7904L7.93121 10.922C8.38985 12.6782 8.40734 12.7467 9.36493 13.3551C9.60604 13.5088 9.90646 13.6997 10.3012 13.9811C10.5248 14.14 10.6382 14.2952 10.6374 14.4405C10.6366 14.6443 10.4153 14.9098 10.0152 15.1881C9.74448 15.376 9.20065 15.5045 8.62489 15.6399C7.55853 15.8917 6.25175 16.2012 5.68747 17.1139C5.22579 16.8744 4.79301 16.5907 4.39523 16.2689C4.96796 15.3501 5.21514 14.6527 5.1718 14.0868C5.12845 13.5148 4.8014 13.1832 4.51313 12.8904C4.10468 12.4751 3.80882 12.1754 4.24464 11.23C4.52986 10.6109 4.60135 10.2025 4.48348 9.86402C4.36787 9.53317 4.09253 9.33769 3.77385 9.11179C3.30456 8.77866 2.66643 8.32687 2.15076 7.1602C3.56773 3.91085 7.09829 1.9516 10.7195 2.65353ZM1.65396 8.77253C1.71785 8.44244 1.80228 8.12223 1.90496 7.81114C2.43586 8.78698 3.05269 9.22432 3.48168 9.52856C3.74941 9.7187 3.9426 9.85561 4.00421 10.0321C4.07266 10.2283 4.00268 10.5417 3.78364 11.0163C3.20026 12.2819 3.72811 12.8173 4.15176 13.2486C4.41187 13.5126 4.63626 13.74 4.66515 14.1256C4.69862 14.5607 4.48185 15.1531 4.00572 15.9305C2.10349 14.1712 1.12454 11.4969 1.65396 8.77253ZM7.77374 17.8387C7.20557 17.7284 6.66404 17.5573 6.15368 17.3352C6.62525 16.6377 7.74484 16.373 8.74432 16.1365C9.39539 15.9829 9.95823 15.8497 10.3081 15.6064C10.8717 15.2139 11.147 14.8336 11.1493 14.4426C11.1508 14.1209 10.966 13.8258 10.5986 13.5649C10.1925 13.2759 9.88673 13.0812 9.64028 12.9245C9.22728 12.6613 9.03866 12.5412 8.90404 12.31C8.75572 12.0544 8.6462 11.633 8.42639 10.7926L8.39217 10.661C8.08489 9.48816 7.34939 9.30104 6.49753 9.08503C6.35606 9.04928 6.20926 9.01201 6.05867 8.96866C5.40455 8.78079 4.91853 8.32899 4.7261 7.72965C4.53976 7.14779 4.66297 6.50509 5.0562 6.0092C5.34598 5.64487 5.58937 5.53383 5.65554 5.55513C5.68748 5.56578 5.7818 5.68367 5.80005 6.07994C5.83808 6.90974 5.95597 7.2733 6.22142 7.37675C6.31117 7.41174 6.49219 7.4414 6.69527 7.24213C6.98506 6.95462 7.09839 6.6017 7.20791 6.25944C7.43228 5.56047 7.62547 4.95655 9.42275 4.99761C10.4427 5.02043 11.2436 4.87059 11.8027 4.5542C12.2933 4.27582 12.6082 3.86967 12.7428 3.34486C12.9132 3.43081 13.0805 3.52284 13.2448 3.62248C13.2052 3.78525 13.1832 3.95486 13.1832 4.1298L13.1824 11.7843C12.2005 12.4772 11.6186 13.5945 11.6186 14.8008C11.6186 15.7363 11.9685 16.5904 12.5443 17.2415C11.052 17.9488 9.40904 18.1549 7.77308 17.8378L7.77374 17.8387ZM15.3104 17.9817C13.5565 17.9817 12.1288 16.5548 12.1288 14.8016C12.1288 13.7208 12.6704 12.7237 13.577 12.1335C13.6493 12.0864 13.6934 12.0057 13.6934 11.9198L13.6926 4.12977C13.6926 3.23836 14.4182 2.51351 15.3104 2.51351C16.2026 2.51351 16.9267 3.23836 16.9267 4.12977V4.95198H16.1896C16.0489 4.95198 15.9348 5.06607 15.9348 5.20678C15.9348 5.34749 16.0489 5.46158 16.1896 5.46158H16.9267V6.72035H16.1896C16.0489 6.72035 15.9348 6.83444 15.9348 6.97515C15.9348 7.11586 16.0489 7.22995 16.1896 7.22995H16.9267V8.48872H16.1896C16.0489 8.48872 15.9348 8.60281 15.9348 8.74352C15.9348 8.88423 16.0489 8.99831 16.1896 8.99831H16.9267V10.2571H16.1896C16.0489 10.2571 15.9348 10.3712 15.9348 10.5119C15.9348 10.6526 16.0489 10.7667 16.1896 10.7667H16.9267V11.9159C16.9267 12.0019 16.97 12.0825 17.043 12.1297C17.9497 12.7199 18.4912 13.717 18.4912 14.7978C18.4912 16.5517 17.0643 17.9778 15.3112 17.9778L15.3104 17.9817Z" fill="#003940" stroke="#003940" stroke-width="0.3"/>
</svg>
