<svg width="20" height="20" viewBox="0 0 20 20" fill="none" xmlns="http://www.w3.org/2000/svg">
<path fill-rule="evenodd" clip-rule="evenodd" d="M5.93471 5.64738C6.06065 5.8357 6.20491 6.0111 6.36539 6.17101C7.0362 6.83742 7.94356 7.21114 8.88912 7.21047C8.99235 7.21047 9.09554 7.20613 9.20038 7.1968C8.88595 7.5676 8.48981 7.86044 8.0431 8.0523C7.59638 8.24416 7.11126 8.32981 6.62585 8.30252C6.14045 8.27524 5.66798 8.13575 5.24559 7.89503C4.82319 7.65432 4.46237 7.31892 4.19148 6.91521C4.60645 6.30177 5.22329 5.85316 5.93474 5.64738H5.93471ZM5.79282 3.04993C6.58501 2.89725 7.4056 3.0522 8.08756 3.48325C8.05524 3.67377 8.03906 3.86668 8.0392 4.05992C8.04014 4.54206 8.13946 5.01894 8.33107 5.46137C7.64664 5.13157 6.87381 5.03229 6.12824 5.17838C5.77085 4.52997 5.65216 3.77676 5.79282 3.04986V3.04993ZM9.84207 1.44876C10.4552 1.86353 10.9037 2.48 11.1096 3.19106C10.478 3.61706 10.0011 4.23591 9.75008 4.95524C9.57489 4.4535 9.28885 3.9977 8.91322 3.62175C8.79803 3.50615 8.67466 3.39901 8.54406 3.30116C8.73466 2.54525 9.19673 1.88588 9.8422 1.44873L9.84207 1.44876ZM13.7075 3.04993C13.8474 3.77684 13.7287 4.52977 13.3721 5.17845C12.7085 5.04827 12.0214 5.11261 11.3934 5.36371C11.5588 4.94887 11.6441 4.5065 11.645 4.05992C11.6449 3.83341 11.6227 3.60743 11.5788 3.38521C12.2275 3.0284 12.9805 2.90979 13.7074 3.04993H13.7075ZM15.3088 6.91521C15.0379 7.3189 14.6771 7.65427 14.2547 7.89498C13.8323 8.13568 13.3599 8.27515 12.8745 8.30244C12.3891 8.32972 11.904 8.24408 11.4573 8.05223C11.0106 7.86038 10.6145 7.56755 10.3001 7.19676C10.4033 7.20613 10.5081 7.21044 10.6113 7.21044C11.5568 7.21081 12.464 6.83714 13.135 6.17098C13.2955 6.01106 13.4398 5.83567 13.5657 5.64735C14.2772 5.8531 14.894 6.30172 15.309 6.91518L15.3088 6.91521ZM9.29861 6.77329C9.10585 6.60832 8.93075 6.42376 8.77615 6.22259C8.21692 5.77168 7.52067 5.52492 6.8023 5.52303C6.6577 5.52318 6.51328 5.53346 6.37011 5.55379C6.45748 5.66889 6.55225 5.77818 6.65382 5.88098C6.99735 6.22166 7.4143 6.4792 7.87273 6.63386C8.33116 6.78853 8.81891 6.83622 9.29861 6.77329ZM11.0822 5.97279C10.8861 6.28033 10.6441 6.55605 10.3646 6.79038C10.8191 6.82625 11.276 6.76356 11.704 6.60659C12.1321 6.44962 12.5212 6.20208 12.8447 5.88088C12.9472 5.77892 13.042 5.66956 13.1284 5.55369C12.9853 5.53325 12.8409 5.52297 12.6963 5.52293C12.1274 5.52421 11.5696 5.67964 11.082 5.97269L11.0822 5.97279ZM10.8757 3.91205C10.5545 4.23568 10.307 4.62485 10.15 5.05296C9.99305 5.48106 9.93037 5.93801 9.96625 6.39257C10.2009 6.11342 10.4766 5.87151 10.7838 5.6751C11.0769 5.18723 11.2324 4.62907 11.2338 4.05992C11.2341 3.91536 11.2238 3.77097 11.203 3.6279C11.0875 3.71504 10.9782 3.80998 10.8756 3.91205H10.8757ZM8.4504 4.05992C8.45217 4.73558 8.67031 5.39291 9.07284 5.93557C9.23986 6.0739 9.3942 6.22684 9.53406 6.39257C9.56956 5.93804 9.5067 5.4812 9.34975 5.05315C9.1928 4.6251 8.94546 4.2359 8.62455 3.91205C8.57294 3.86044 8.51811 3.81077 8.46489 3.76367C8.45521 3.86166 8.45038 3.96041 8.4504 4.05992ZM3.77382 6.80781C3.75404 6.84012 3.74357 6.87726 3.74357 6.91514C3.74357 6.95302 3.75404 6.99017 3.77382 7.02247C4.08497 7.52948 4.51841 7.95027 5.0344 8.24629C5.55039 8.5423 6.13242 8.70407 6.72716 8.71676C7.32189 8.72945 7.9103 8.59266 8.43845 8.31893C8.96659 8.04519 9.41758 7.64327 9.75008 7.15C10.0826 7.64329 10.5336 8.04522 11.0617 8.31897C11.5899 8.59271 12.1783 8.72951 12.773 8.71681C13.3678 8.70412 13.9498 8.54235 14.4658 8.24632C14.9818 7.9503 15.4153 7.52949 15.7264 7.02247C15.7462 6.99017 15.7567 6.95302 15.7567 6.91514C15.7567 6.87726 15.7462 6.84012 15.7264 6.80781C15.2795 6.08462 14.5894 5.54446 13.7801 5.28437C14.1683 4.52771 14.2741 3.65746 14.0784 2.82983C14.0698 2.79293 14.051 2.75917 14.0242 2.73235C13.9975 2.70554 13.9637 2.68674 13.9268 2.67807C13.0991 2.48313 12.2289 2.58942 11.4724 2.97787C11.2125 2.16847 10.6728 1.47809 9.95011 1.03048C9.9176 1.01055 9.8802 1 9.84207 1C9.80393 1 9.76653 1.01055 9.73402 1.03048C8.98493 1.49426 8.43317 2.21799 8.18433 3.06316C7.39492 2.60676 6.46103 2.46902 5.57348 2.67807C5.53651 2.68695 5.50268 2.70579 5.47567 2.73254C5.44866 2.7593 5.4295 2.79295 5.42027 2.82983C5.226 3.6577 5.33232 4.52766 5.72025 5.28437C4.91086 5.54444 4.22072 6.0846 3.77382 6.80781ZM2.19668 4.75801C1.97782 4.76879 1.77217 4.86599 1.62492 5.02827C1.47767 5.19055 1.40085 5.40464 1.41133 5.62352L1.72084 12.027C1.72263 12.0882 1.73668 12.1484 1.76217 12.204C1.78765 12.2597 1.82404 12.3096 1.86919 12.351L4.50595 14.8275C4.54445 14.8639 4.56753 14.9137 4.57045 14.9667L4.58819 15.3222L8.18915 15.301L8.24237 13.3991C8.24874 13.2672 8.22488 13.1356 8.17262 13.0143C8.12036 12.8931 8.04107 12.7854 7.94082 12.6994L3.93669 9.12337C3.82057 9.01884 3.66792 8.9643 3.51185 8.97158C3.35578 8.97885 3.20887 9.04736 3.10297 9.16223C2.99832 9.2784 2.94383 9.43123 2.95138 9.5874C2.95893 9.74357 3.0279 9.89043 3.14327 9.99596L5.32515 11.9764C5.36546 12.013 5.38959 12.064 5.39224 12.1184C5.39489 12.1728 5.37583 12.2259 5.33926 12.2663C5.3027 12.3066 5.25162 12.3307 5.19726 12.3333C5.1429 12.336 5.08972 12.3169 5.04941 12.2804L2.86753 10.2995C2.73854 10.1833 2.64213 10.0354 2.58784 9.87052C2.53354 9.70563 2.52324 9.52942 2.55795 9.35932C2.59266 9.18923 2.67119 9.03114 2.78575 8.90071C2.90032 8.77028 3.04696 8.67203 3.21116 8.61567L3.06277 5.54381C3.05175 5.32491 2.95443 5.11931 2.79213 4.97202C2.62982 4.82473 2.41576 4.74776 2.19682 4.75798L2.19668 4.75801ZM8.69729 18.0626L4.09489 18.0895L4.08039 15.7354L8.68441 15.7081L8.69729 18.0626V18.0626ZM1.31135 12.0469C1.31531 12.1608 1.34187 12.2727 1.38949 12.3762C1.43711 12.4797 1.50484 12.5727 1.58873 12.6498L4.16407 15.0696L4.17696 15.3245L3.8738 15.3263C3.84679 15.3264 3.82007 15.3318 3.79515 15.3422C3.77024 15.3526 3.74762 15.3678 3.7286 15.387C3.70957 15.4062 3.69452 15.4289 3.68429 15.4539C3.67406 15.4789 3.66886 15.5057 3.66898 15.5327L3.68512 18.2972C3.68563 18.3513 3.70741 18.403 3.74574 18.4411C3.78407 18.4792 3.83587 18.5007 3.88993 18.501H3.89154L8.90515 18.4716C8.93195 18.4714 8.95844 18.4659 8.98309 18.4554C9.00773 18.4449 9.03004 18.4295 9.04871 18.4103C9.06772 18.3912 9.08278 18.3686 9.09301 18.3436C9.10325 18.3187 9.10846 18.292 9.10836 18.265L9.09226 15.5005C9.0918 15.4464 9.07004 15.3947 9.03169 15.3566C8.99335 15.3185 8.94152 15.297 8.88744 15.2969H8.88584L8.59871 15.2985L8.65193 13.4103C8.65986 13.2189 8.62471 13.0281 8.54907 12.8521C8.47343 12.6761 8.35924 12.5193 8.21492 12.3933L4.21083 8.81734C4.04662 8.67049 3.83866 8.58173 3.61901 8.56478L3.47227 5.52406C3.46517 5.36132 3.426 5.20158 3.35699 5.05402C3.28798 4.90647 3.19051 4.774 3.07016 4.66422C2.94981 4.55445 2.80896 4.46953 2.6557 4.41434C2.50243 4.35916 2.33978 4.33479 2.17707 4.34265C2.01437 4.35051 1.85482 4.39043 1.70759 4.46012C1.56036 4.52982 1.42834 4.62791 1.31913 4.74877C1.20992 4.86963 1.12566 5.01088 1.07119 5.1644C1.01672 5.31792 0.993115 5.48068 1.00173 5.64335L1.31135 12.0469ZM18.089 5.62352C18.0995 5.40455 18.0227 5.19034 17.8753 5.02803C17.7279 4.86572 17.5221 4.7686 17.3032 4.75803C17.0842 4.74746 16.87 4.82432 16.7077 4.97169C16.5454 5.11906 16.4482 5.32487 16.4377 5.54385L16.2893 8.61571C16.4473 8.66944 16.5889 8.76278 16.7005 8.8868C16.8786 9.08325 16.9714 9.3423 16.9588 9.60713C16.9461 9.87196 16.8288 10.1209 16.6328 10.2995L14.4509 12.2804C14.4106 12.3169 14.3574 12.336 14.3031 12.3334C14.2487 12.3307 14.1976 12.3066 14.1611 12.2663C14.1245 12.226 14.1054 12.1728 14.1081 12.1184C14.1107 12.0641 14.1348 12.013 14.1752 11.9764L16.357 9.99596C16.4145 9.94391 16.4611 9.88104 16.4943 9.81094C16.5274 9.74085 16.5464 9.6649 16.5502 9.58746C16.5539 9.51001 16.5423 9.43259 16.5161 9.35962C16.4899 9.28666 16.4495 9.21958 16.3973 9.16223C16.2911 9.04732 16.1439 8.97882 15.9876 8.97155C15.8313 8.96427 15.6784 9.01881 15.562 9.12337L11.5595 12.6993C11.4592 12.7853 11.3799 12.893 11.3277 13.0143C11.2754 13.1355 11.2515 13.2671 11.2579 13.399L11.3112 15.301L14.9121 15.3221L14.9298 14.9666C14.9328 14.9137 14.9559 14.8639 14.9944 14.8274L17.631 12.3509C17.6761 12.3096 17.7125 12.2597 17.738 12.2041C17.7634 12.1486 17.7775 12.0884 17.7794 12.0273L18.089 5.62346V5.62352ZM15.4057 18.0895L10.8033 18.0626L10.8162 15.708L15.4203 15.7354L15.4057 18.0895V18.0895ZM17.323 4.34811C16.9956 4.33314 16.6755 4.44843 16.4329 4.66878C16.1902 4.88913 16.0447 5.1966 16.0281 5.52395L15.8813 8.56467C15.6617 8.58162 15.4537 8.67038 15.2895 8.81724L11.2854 12.3934C11.1411 12.5194 11.0269 12.6762 10.9512 12.8522C10.8756 13.0282 10.8404 13.2189 10.8483 13.4103L10.9016 15.2985L10.6144 15.2969H10.6128C10.5586 15.2968 10.5066 15.318 10.4679 15.356C10.4301 15.3947 10.4087 15.4465 10.4082 15.5006L10.3921 18.2651C10.3921 18.3192 10.4129 18.3712 10.4502 18.4104C10.4692 18.4296 10.4918 18.445 10.5167 18.4555C10.5416 18.466 10.5683 18.4715 10.5954 18.4717L15.6088 18.501C15.6631 18.5009 15.7151 18.4795 15.7538 18.4414C15.7924 18.4032 15.8145 18.3514 15.8152 18.2971L15.8314 15.5326C15.8315 15.5056 15.8263 15.4788 15.816 15.4538C15.8058 15.4288 15.7908 15.4061 15.7717 15.3869C15.7527 15.3678 15.7301 15.3525 15.7052 15.3421C15.6803 15.3317 15.6535 15.3263 15.6265 15.3262L15.3234 15.3244L15.3363 15.0695L17.9116 12.6498C17.9955 12.5727 18.0632 12.4797 18.1109 12.3762C18.1585 12.2726 18.185 12.1607 18.189 12.0468L18.4986 5.64328C18.5142 5.31571 18.3991 4.99535 18.1787 4.75253C17.9583 4.5097 17.6505 4.36425 17.323 4.34811Z" fill="#003940"/>
</svg>
