<svg width="20" height="20" viewBox="0 0 20 20" fill="none" xmlns="http://www.w3.org/2000/svg">
<g clip-path="url(#clip0_667_9215)">
<mask id="path-1-outside-1_667_9215" maskUnits="userSpaceOnUse" x="0" y="0" width="20" height="20" fill="black">
<rect fill="white" width="20" height="20"/>
<path fill-rule="evenodd" clip-rule="evenodd" d="M18.1998 5.67433L16.8419 4.88887C16.799 4.86359 16.749 4.85092 16.7014 4.85092C16.6799 4.85092 16.6609 4.85305 16.6418 4.85712C16.194 4.95326 15.7508 4.98523 15.3292 4.95206C15.3292 4.95206 15.3268 4.95207 15.3268 4.95184C15.06 4.93107 14.7956 4.88382 14.5383 4.81204C14.505 4.80247 14.4716 4.79942 14.4358 4.80247L12.1156 5.0184C11.8655 5.04178 11.6439 4.8569 11.6201 4.60661C11.5987 4.35631 11.7821 4.13348 12.0322 4.11058L14.05 3.92282C14.1619 3.91232 14.2572 3.83691 14.2906 3.73027C14.3263 3.62364 14.2954 3.50598 14.212 3.43109C13.1733 2.49701 11.8727 1.92367 10.5053 1.77359C12.9184 1.11912 15.8652 1.9967 18.9788 4.32536L18.1998 5.67433ZM8.68767 18.3596L7.91108 17.0108L9.26891 16.2251C9.33086 16.1901 9.37613 16.1337 9.39753 16.0674C9.53809 15.6294 9.73105 15.23 9.97166 14.879C9.97405 14.8783 9.97405 14.8771 9.97405 14.8759C10.1242 14.6567 10.298 14.4515 10.4862 14.2656C10.5125 14.2417 10.5315 14.2129 10.5458 14.1819L11.5201 12.0613C11.5701 11.9515 11.6607 11.8675 11.775 11.8253C11.8917 11.7825 12.0132 11.7871 12.1228 11.8377C12.2347 11.888 12.3181 11.9789 12.361 12.0939C12.4015 12.2085 12.3968 12.3325 12.3467 12.4423L11.501 14.288C11.4534 14.3901 11.4701 14.5104 11.5463 14.5944C11.6202 14.6781 11.7369 14.7099 11.8441 14.675C13.171 14.2413 14.3168 13.4004 15.1292 12.2898C14.4883 14.7074 12.2562 16.8242 8.68767 18.3596ZM4.90235 11.9541C5.34309 12.5549 5.89095 13.0726 6.51747 13.4761L7.18927 12.3118C7.22739 12.2469 7.28694 12.1994 7.36078 12.1798C7.43223 12.1605 7.50846 12.1708 7.57518 12.2082L8.1517 12.5418C8.34942 12.6566 8.60432 12.5881 8.71866 12.3891C8.77583 12.2934 8.79011 12.1815 8.75916 12.0732C8.7306 11.9651 8.66388 11.8754 8.56621 11.8198L7.98969 11.4862C7.8563 11.4082 7.80863 11.2352 7.88725 11.1004L8.57094 9.91176C8.11593 9.55125 7.82291 8.99296 7.82291 8.36759C7.82291 7.74199 8.11593 7.18415 8.57094 6.82341L8.02781 5.87954L7.69668 6.07187C7.22739 6.34244 6.62708 6.18138 6.35552 5.71206C6.22685 5.48564 6.19113 5.22104 6.26023 4.96743C6.32691 4.71333 6.48891 4.50148 6.71525 4.37071L7.04637 4.17838L6.51991 3.26361C5.76954 3.74507 5.12157 4.3917 4.64034 5.16901C4.73323 5.38423 4.81185 5.60658 4.8714 5.83327L6.18874 7.69598C6.51509 8.15573 6.40552 8.79422 5.94578 9.11988C5.48842 9.44532 4.84996 9.3363 4.526 8.8765L3.75653 7.79017C3.62552 9.16518 3.96615 10.5485 4.72846 11.7043C4.74035 11.7234 4.75229 11.7425 4.76657 11.7618C4.78085 11.7838 4.79518 11.8055 4.81185 11.8274C4.82613 11.8503 4.8428 11.8735 4.85947 11.8964C4.87379 11.9154 4.88807 11.9348 4.90235 11.9541ZM1.69829 2.4173H3.25385V3.98845C3.25385 4.05859 3.28007 4.12591 3.3253 4.1779C3.63498 4.51954 3.88272 4.88697 4.06617 5.27042V5.27184C4.1805 5.51283 4.27344 5.76596 4.33773 6.02457C4.34724 6.05796 4.36156 6.08972 4.38301 6.1181L5.72895 8.02253C5.87428 8.22796 5.82423 8.51306 5.61939 8.65862C5.41454 8.8037 5.13103 8.75503 4.98574 8.54959L3.8137 6.89232C3.74937 6.80021 3.63503 6.75583 3.52546 6.77873C3.41585 6.8014 3.33012 6.88731 3.30629 6.99753C3.01805 8.36799 3.17289 9.78192 3.72558 11.04C1.95557 9.27518 1.24089 6.28062 1.69829 2.4173ZM9.78826 6.96463C10.5601 6.96463 11.189 7.59404 11.189 8.36754C11.189 9.14105 10.5601 9.76997 9.78826 9.76997C9.01645 9.76997 8.38754 9.14105 8.38754 8.36754C8.38754 7.59404 9.0164 6.96463 9.78826 6.96463ZM15.3483 10.7819C15.6437 10.1 15.8057 9.37659 15.8414 8.65034H14.4978C14.343 8.65034 14.2167 8.52364 14.2167 8.36759V7.7005C14.2167 7.47049 14.0285 7.28343 13.7998 7.28343C13.5711 7.28343 13.3829 7.47049 13.3829 7.7005V8.36759C13.3829 8.52364 13.2567 8.65034 13.1018 8.65034H11.732C11.5962 9.60209 10.7768 10.3355 9.78817 10.3355C9.53089 10.3355 9.28554 10.2854 9.06159 10.1952L8.51607 11.1379L8.84958 11.3302C9.07587 11.461 9.23787 11.6728 9.30459 11.9269C9.37366 12.1806 9.33793 12.4452 9.20931 12.6718C9.0783 12.8983 8.86629 13.0607 8.61378 13.1285C8.35889 13.1967 8.09448 13.1622 7.86815 13.0314L7.53702 12.8391L7.00578 13.7583C7.8062 14.1728 8.69478 14.4037 9.59761 14.4319C9.73816 14.2432 9.89062 14.0643 10.055 13.8986L11.0079 11.8253C11.1198 11.5779 11.3247 11.3893 11.5796 11.2949C11.8369 11.1997 12.1132 11.2099 12.361 11.3238C12.6063 11.4376 12.7946 11.6411 12.8898 11.8978C12.9851 12.154 12.9732 12.4313 12.8612 12.6785L12.3038 13.8891C13.6569 13.2712 14.7432 12.1694 15.3459 10.7886C15.3459 10.7864 15.3483 10.784 15.3483 10.7819ZM11.058 4.65864C11.0341 4.38784 11.1151 4.12298 11.2914 3.91255C11.4653 3.70233 11.7107 3.57254 11.9799 3.54725L13.302 3.42463C12.2681 2.68642 11.0222 2.29251 9.74776 2.30013C9.70253 2.30062 9.65964 2.30084 9.61436 2.30225C9.59769 2.30274 9.58341 2.30323 9.5667 2.30394C8.66622 2.33711 7.79435 2.57425 7.00821 2.98059L7.67762 4.14061C7.75624 4.27563 7.70858 4.44865 7.57518 4.52667L6.99871 4.86022C6.90342 4.91558 6.83432 5.00529 6.80337 5.11335C6.7748 5.22166 6.78909 5.33357 6.84625 5.42922C6.96059 5.62846 7.21549 5.69692 7.41322 5.58191L7.98969 5.24837C8.12548 5.17034 8.29698 5.21662 8.3756 5.3519L9.06168 6.53986C9.28563 6.44921 9.53097 6.39908 9.78826 6.39908C10.7769 6.39908 11.5963 7.133 11.7321 8.08475H12.8184V7.70036C12.8184 7.15877 13.2591 6.71806 13.7999 6.71806C14.3406 6.71806 14.7813 7.15873 14.7813 7.70036V8.08475H15.839C15.7985 7.19004 15.5603 6.30485 15.1291 5.50056C14.8957 5.47457 14.6646 5.43139 14.4383 5.37055L12.1681 5.5812C11.8989 5.60649 11.6344 5.52395 11.4224 5.34951C11.2128 5.17495 11.0841 4.9297 11.058 4.65864ZM19.5195 4.02613C17.5733 2.53492 15.6699 1.58246 13.8665 1.19454C12.0489 0.803734 10.4052 1.00248 8.98063 1.78409C8.08971 1.89338 7.22734 2.18229 6.4531 2.63611C5.61457 3.12642 4.89276 3.79807 4.34008 4.59518C4.19001 4.34825 4.01611 4.10939 3.81839 3.88133V2.1346C3.81839 1.97832 3.69215 1.85211 3.53493 1.85211H1.44817C1.30761 1.85211 1.18849 1.95733 1.16944 2.09811C0.852594 4.53248 0.981259 6.65832 1.54584 8.41652C2.11758 10.1897 3.11095 11.5156 4.49978 12.3597C5.03341 13.0679 5.70755 13.6672 6.47702 14.1127C6.47702 14.1136 6.47941 14.1139 6.47941 14.1146C7.32506 14.6042 8.27558 14.8991 9.2499 14.9785C9.11173 15.2326 8.99262 15.5032 8.89494 15.789L7.38461 16.6627C7.32028 16.6999 7.27266 16.7617 7.25361 16.834C7.23216 16.9066 7.2441 16.9838 7.27982 17.0485L8.32325 18.8585C8.37564 18.9487 8.47093 19 8.5686 19C8.60432 19 8.64243 18.9933 8.67816 18.9785C10.9389 18.0359 12.7136 16.8629 13.95 15.4922C15.1982 14.1112 15.8486 12.5876 15.8843 10.963C16.6276 9.21677 16.58 7.23002 15.7748 5.5286C16.063 5.52142 16.356 5.48949 16.6514 5.43223L18.1641 6.30547C18.207 6.33097 18.257 6.34364 18.3046 6.34364C18.4023 6.34364 18.4952 6.29258 18.5476 6.20167L19.5911 4.3917C19.6625 4.26881 19.6315 4.11253 19.5195 4.02613Z"/>
</mask>
<path fill-rule="evenodd" clip-rule="evenodd" d="M18.1998 5.67433L16.8419 4.88887C16.799 4.86359 16.749 4.85092 16.7014 4.85092C16.6799 4.85092 16.6609 4.85305 16.6418 4.85712C16.194 4.95326 15.7508 4.98523 15.3292 4.95206C15.3292 4.95206 15.3268 4.95207 15.3268 4.95184C15.06 4.93107 14.7956 4.88382 14.5383 4.81204C14.505 4.80247 14.4716 4.79942 14.4358 4.80247L12.1156 5.0184C11.8655 5.04178 11.6439 4.8569 11.6201 4.60661C11.5987 4.35631 11.7821 4.13348 12.0322 4.11058L14.05 3.92282C14.1619 3.91232 14.2572 3.83691 14.2906 3.73027C14.3263 3.62364 14.2954 3.50598 14.212 3.43109C13.1733 2.49701 11.8727 1.92367 10.5053 1.77359C12.9184 1.11912 15.8652 1.9967 18.9788 4.32536L18.1998 5.67433ZM8.68767 18.3596L7.91108 17.0108L9.26891 16.2251C9.33086 16.1901 9.37613 16.1337 9.39753 16.0674C9.53809 15.6294 9.73105 15.23 9.97166 14.879C9.97405 14.8783 9.97405 14.8771 9.97405 14.8759C10.1242 14.6567 10.298 14.4515 10.4862 14.2656C10.5125 14.2417 10.5315 14.2129 10.5458 14.1819L11.5201 12.0613C11.5701 11.9515 11.6607 11.8675 11.775 11.8253C11.8917 11.7825 12.0132 11.7871 12.1228 11.8377C12.2347 11.888 12.3181 11.9789 12.361 12.0939C12.4015 12.2085 12.3968 12.3325 12.3467 12.4423L11.501 14.288C11.4534 14.3901 11.4701 14.5104 11.5463 14.5944C11.6202 14.6781 11.7369 14.7099 11.8441 14.675C13.171 14.2413 14.3168 13.4004 15.1292 12.2898C14.4883 14.7074 12.2562 16.8242 8.68767 18.3596ZM4.90235 11.9541C5.34309 12.5549 5.89095 13.0726 6.51747 13.4761L7.18927 12.3118C7.22739 12.2469 7.28694 12.1994 7.36078 12.1798C7.43223 12.1605 7.50846 12.1708 7.57518 12.2082L8.1517 12.5418C8.34942 12.6566 8.60432 12.5881 8.71866 12.3891C8.77583 12.2934 8.79011 12.1815 8.75916 12.0732C8.7306 11.9651 8.66388 11.8754 8.56621 11.8198L7.98969 11.4862C7.8563 11.4082 7.80863 11.2352 7.88725 11.1004L8.57094 9.91176C8.11593 9.55125 7.82291 8.99296 7.82291 8.36759C7.82291 7.74199 8.11593 7.18415 8.57094 6.82341L8.02781 5.87954L7.69668 6.07187C7.22739 6.34244 6.62708 6.18138 6.35552 5.71206C6.22685 5.48564 6.19113 5.22104 6.26023 4.96743C6.32691 4.71333 6.48891 4.50148 6.71525 4.37071L7.04637 4.17838L6.51991 3.26361C5.76954 3.74507 5.12157 4.3917 4.64034 5.16901C4.73323 5.38423 4.81185 5.60658 4.8714 5.83327L6.18874 7.69598C6.51509 8.15573 6.40552 8.79422 5.94578 9.11988C5.48842 9.44532 4.84996 9.3363 4.526 8.8765L3.75653 7.79017C3.62552 9.16518 3.96615 10.5485 4.72846 11.7043C4.74035 11.7234 4.75229 11.7425 4.76657 11.7618C4.78085 11.7838 4.79518 11.8055 4.81185 11.8274C4.82613 11.8503 4.8428 11.8735 4.85947 11.8964C4.87379 11.9154 4.88807 11.9348 4.90235 11.9541ZM1.69829 2.4173H3.25385V3.98845C3.25385 4.05859 3.28007 4.12591 3.3253 4.1779C3.63498 4.51954 3.88272 4.88697 4.06617 5.27042V5.27184C4.1805 5.51283 4.27344 5.76596 4.33773 6.02457C4.34724 6.05796 4.36156 6.08972 4.38301 6.1181L5.72895 8.02253C5.87428 8.22796 5.82423 8.51306 5.61939 8.65862C5.41454 8.8037 5.13103 8.75503 4.98574 8.54959L3.8137 6.89232C3.74937 6.80021 3.63503 6.75583 3.52546 6.77873C3.41585 6.8014 3.33012 6.88731 3.30629 6.99753C3.01805 8.36799 3.17289 9.78192 3.72558 11.04C1.95557 9.27518 1.24089 6.28062 1.69829 2.4173ZM9.78826 6.96463C10.5601 6.96463 11.189 7.59404 11.189 8.36754C11.189 9.14105 10.5601 9.76997 9.78826 9.76997C9.01645 9.76997 8.38754 9.14105 8.38754 8.36754C8.38754 7.59404 9.0164 6.96463 9.78826 6.96463ZM15.3483 10.7819C15.6437 10.1 15.8057 9.37659 15.8414 8.65034H14.4978C14.343 8.65034 14.2167 8.52364 14.2167 8.36759V7.7005C14.2167 7.47049 14.0285 7.28343 13.7998 7.28343C13.5711 7.28343 13.3829 7.47049 13.3829 7.7005V8.36759C13.3829 8.52364 13.2567 8.65034 13.1018 8.65034H11.732C11.5962 9.60209 10.7768 10.3355 9.78817 10.3355C9.53089 10.3355 9.28554 10.2854 9.06159 10.1952L8.51607 11.1379L8.84958 11.3302C9.07587 11.461 9.23787 11.6728 9.30459 11.9269C9.37366 12.1806 9.33793 12.4452 9.20931 12.6718C9.0783 12.8983 8.86629 13.0607 8.61378 13.1285C8.35889 13.1967 8.09448 13.1622 7.86815 13.0314L7.53702 12.8391L7.00578 13.7583C7.8062 14.1728 8.69478 14.4037 9.59761 14.4319C9.73816 14.2432 9.89062 14.0643 10.055 13.8986L11.0079 11.8253C11.1198 11.5779 11.3247 11.3893 11.5796 11.2949C11.8369 11.1997 12.1132 11.2099 12.361 11.3238C12.6063 11.4376 12.7946 11.6411 12.8898 11.8978C12.9851 12.154 12.9732 12.4313 12.8612 12.6785L12.3038 13.8891C13.6569 13.2712 14.7432 12.1694 15.3459 10.7886C15.3459 10.7864 15.3483 10.784 15.3483 10.7819ZM11.058 4.65864C11.0341 4.38784 11.1151 4.12298 11.2914 3.91255C11.4653 3.70233 11.7107 3.57254 11.9799 3.54725L13.302 3.42463C12.2681 2.68642 11.0222 2.29251 9.74776 2.30013C9.70253 2.30062 9.65964 2.30084 9.61436 2.30225C9.59769 2.30274 9.58341 2.30323 9.5667 2.30394C8.66622 2.33711 7.79435 2.57425 7.00821 2.98059L7.67762 4.14061C7.75624 4.27563 7.70858 4.44865 7.57518 4.52667L6.99871 4.86022C6.90342 4.91558 6.83432 5.00529 6.80337 5.11335C6.7748 5.22166 6.78909 5.33357 6.84625 5.42922C6.96059 5.62846 7.21549 5.69692 7.41322 5.58191L7.98969 5.24837C8.12548 5.17034 8.29698 5.21662 8.3756 5.3519L9.06168 6.53986C9.28563 6.44921 9.53097 6.39908 9.78826 6.39908C10.7769 6.39908 11.5963 7.133 11.7321 8.08475H12.8184V7.70036C12.8184 7.15877 13.2591 6.71806 13.7999 6.71806C14.3406 6.71806 14.7813 7.15873 14.7813 7.70036V8.08475H15.839C15.7985 7.19004 15.5603 6.30485 15.1291 5.50056C14.8957 5.47457 14.6646 5.43139 14.4383 5.37055L12.1681 5.5812C11.8989 5.60649 11.6344 5.52395 11.4224 5.34951C11.2128 5.17495 11.0841 4.9297 11.058 4.65864ZM19.5195 4.02613C17.5733 2.53492 15.6699 1.58246 13.8665 1.19454C12.0489 0.803734 10.4052 1.00248 8.98063 1.78409C8.08971 1.89338 7.22734 2.18229 6.4531 2.63611C5.61457 3.12642 4.89276 3.79807 4.34008 4.59518C4.19001 4.34825 4.01611 4.10939 3.81839 3.88133V2.1346C3.81839 1.97832 3.69215 1.85211 3.53493 1.85211H1.44817C1.30761 1.85211 1.18849 1.95733 1.16944 2.09811C0.852594 4.53248 0.981259 6.65832 1.54584 8.41652C2.11758 10.1897 3.11095 11.5156 4.49978 12.3597C5.03341 13.0679 5.70755 13.6672 6.47702 14.1127C6.47702 14.1136 6.47941 14.1139 6.47941 14.1146C7.32506 14.6042 8.27558 14.8991 9.2499 14.9785C9.11173 15.2326 8.99262 15.5032 8.89494 15.789L7.38461 16.6627C7.32028 16.6999 7.27266 16.7617 7.25361 16.834C7.23216 16.9066 7.2441 16.9838 7.27982 17.0485L8.32325 18.8585C8.37564 18.9487 8.47093 19 8.5686 19C8.60432 19 8.64243 18.9933 8.67816 18.9785C10.9389 18.0359 12.7136 16.8629 13.95 15.4922C15.1982 14.1112 15.8486 12.5876 15.8843 10.963C16.6276 9.21677 16.58 7.23002 15.7748 5.5286C16.063 5.52142 16.356 5.48949 16.6514 5.43223L18.1641 6.30547C18.207 6.33097 18.257 6.34364 18.3046 6.34364C18.4023 6.34364 18.4952 6.29258 18.5476 6.20167L19.5911 4.3917C19.6625 4.26881 19.6315 4.11253 19.5195 4.02613Z" fill="#003940"/>
<path fill-rule="evenodd" clip-rule="evenodd" d="M18.1998 5.67433L16.8419 4.88887C16.799 4.86359 16.749 4.85092 16.7014 4.85092C16.6799 4.85092 16.6609 4.85305 16.6418 4.85712C16.194 4.95326 15.7508 4.98523 15.3292 4.95206C15.3292 4.95206 15.3268 4.95207 15.3268 4.95184C15.06 4.93107 14.7956 4.88382 14.5383 4.81204C14.505 4.80247 14.4716 4.79942 14.4358 4.80247L12.1156 5.0184C11.8655 5.04178 11.6439 4.8569 11.6201 4.60661C11.5987 4.35631 11.7821 4.13348 12.0322 4.11058L14.05 3.92282C14.1619 3.91232 14.2572 3.83691 14.2906 3.73027C14.3263 3.62364 14.2954 3.50598 14.212 3.43109C13.1733 2.49701 11.8727 1.92367 10.5053 1.77359C12.9184 1.11912 15.8652 1.9967 18.9788 4.32536L18.1998 5.67433ZM8.68767 18.3596L7.91108 17.0108L9.26891 16.2251C9.33086 16.1901 9.37613 16.1337 9.39753 16.0674C9.53809 15.6294 9.73105 15.23 9.97166 14.879C9.97405 14.8783 9.97405 14.8771 9.97405 14.8759C10.1242 14.6567 10.298 14.4515 10.4862 14.2656C10.5125 14.2417 10.5315 14.2129 10.5458 14.1819L11.5201 12.0613C11.5701 11.9515 11.6607 11.8675 11.775 11.8253C11.8917 11.7825 12.0132 11.7871 12.1228 11.8377C12.2347 11.888 12.3181 11.9789 12.361 12.0939C12.4015 12.2085 12.3968 12.3325 12.3467 12.4423L11.501 14.288C11.4534 14.3901 11.4701 14.5104 11.5463 14.5944C11.6202 14.6781 11.7369 14.7099 11.8441 14.675C13.171 14.2413 14.3168 13.4004 15.1292 12.2898C14.4883 14.7074 12.2562 16.8242 8.68767 18.3596ZM4.90235 11.9541C5.34309 12.5549 5.89095 13.0726 6.51747 13.4761L7.18927 12.3118C7.22739 12.2469 7.28694 12.1994 7.36078 12.1798C7.43223 12.1605 7.50846 12.1708 7.57518 12.2082L8.1517 12.5418C8.34942 12.6566 8.60432 12.5881 8.71866 12.3891C8.77583 12.2934 8.79011 12.1815 8.75916 12.0732C8.7306 11.9651 8.66388 11.8754 8.56621 11.8198L7.98969 11.4862C7.8563 11.4082 7.80863 11.2352 7.88725 11.1004L8.57094 9.91176C8.11593 9.55125 7.82291 8.99296 7.82291 8.36759C7.82291 7.74199 8.11593 7.18415 8.57094 6.82341L8.02781 5.87954L7.69668 6.07187C7.22739 6.34244 6.62708 6.18138 6.35552 5.71206C6.22685 5.48564 6.19113 5.22104 6.26023 4.96743C6.32691 4.71333 6.48891 4.50148 6.71525 4.37071L7.04637 4.17838L6.51991 3.26361C5.76954 3.74507 5.12157 4.3917 4.64034 5.16901C4.73323 5.38423 4.81185 5.60658 4.8714 5.83327L6.18874 7.69598C6.51509 8.15573 6.40552 8.79422 5.94578 9.11988C5.48842 9.44532 4.84996 9.3363 4.526 8.8765L3.75653 7.79017C3.62552 9.16518 3.96615 10.5485 4.72846 11.7043C4.74035 11.7234 4.75229 11.7425 4.76657 11.7618C4.78085 11.7838 4.79518 11.8055 4.81185 11.8274C4.82613 11.8503 4.8428 11.8735 4.85947 11.8964C4.87379 11.9154 4.88807 11.9348 4.90235 11.9541ZM1.69829 2.4173H3.25385V3.98845C3.25385 4.05859 3.28007 4.12591 3.3253 4.1779C3.63498 4.51954 3.88272 4.88697 4.06617 5.27042V5.27184C4.1805 5.51283 4.27344 5.76596 4.33773 6.02457C4.34724 6.05796 4.36156 6.08972 4.38301 6.1181L5.72895 8.02253C5.87428 8.22796 5.82423 8.51306 5.61939 8.65862C5.41454 8.8037 5.13103 8.75503 4.98574 8.54959L3.8137 6.89232C3.74937 6.80021 3.63503 6.75583 3.52546 6.77873C3.41585 6.8014 3.33012 6.88731 3.30629 6.99753C3.01805 8.36799 3.17289 9.78192 3.72558 11.04C1.95557 9.27518 1.24089 6.28062 1.69829 2.4173ZM9.78826 6.96463C10.5601 6.96463 11.189 7.59404 11.189 8.36754C11.189 9.14105 10.5601 9.76997 9.78826 9.76997C9.01645 9.76997 8.38754 9.14105 8.38754 8.36754C8.38754 7.59404 9.0164 6.96463 9.78826 6.96463ZM15.3483 10.7819C15.6437 10.1 15.8057 9.37659 15.8414 8.65034H14.4978C14.343 8.65034 14.2167 8.52364 14.2167 8.36759V7.7005C14.2167 7.47049 14.0285 7.28343 13.7998 7.28343C13.5711 7.28343 13.3829 7.47049 13.3829 7.7005V8.36759C13.3829 8.52364 13.2567 8.65034 13.1018 8.65034H11.732C11.5962 9.60209 10.7768 10.3355 9.78817 10.3355C9.53089 10.3355 9.28554 10.2854 9.06159 10.1952L8.51607 11.1379L8.84958 11.3302C9.07587 11.461 9.23787 11.6728 9.30459 11.9269C9.37366 12.1806 9.33793 12.4452 9.20931 12.6718C9.0783 12.8983 8.86629 13.0607 8.61378 13.1285C8.35889 13.1967 8.09448 13.1622 7.86815 13.0314L7.53702 12.8391L7.00578 13.7583C7.8062 14.1728 8.69478 14.4037 9.59761 14.4319C9.73816 14.2432 9.89062 14.0643 10.055 13.8986L11.0079 11.8253C11.1198 11.5779 11.3247 11.3893 11.5796 11.2949C11.8369 11.1997 12.1132 11.2099 12.361 11.3238C12.6063 11.4376 12.7946 11.6411 12.8898 11.8978C12.9851 12.154 12.9732 12.4313 12.8612 12.6785L12.3038 13.8891C13.6569 13.2712 14.7432 12.1694 15.3459 10.7886C15.3459 10.7864 15.3483 10.784 15.3483 10.7819ZM11.058 4.65864C11.0341 4.38784 11.1151 4.12298 11.2914 3.91255C11.4653 3.70233 11.7107 3.57254 11.9799 3.54725L13.302 3.42463C12.2681 2.68642 11.0222 2.29251 9.74776 2.30013C9.70253 2.30062 9.65964 2.30084 9.61436 2.30225C9.59769 2.30274 9.58341 2.30323 9.5667 2.30394C8.66622 2.33711 7.79435 2.57425 7.00821 2.98059L7.67762 4.14061C7.75624 4.27563 7.70858 4.44865 7.57518 4.52667L6.99871 4.86022C6.90342 4.91558 6.83432 5.00529 6.80337 5.11335C6.7748 5.22166 6.78909 5.33357 6.84625 5.42922C6.96059 5.62846 7.21549 5.69692 7.41322 5.58191L7.98969 5.24837C8.12548 5.17034 8.29698 5.21662 8.3756 5.3519L9.06168 6.53986C9.28563 6.44921 9.53097 6.39908 9.78826 6.39908C10.7769 6.39908 11.5963 7.133 11.7321 8.08475H12.8184V7.70036C12.8184 7.15877 13.2591 6.71806 13.7999 6.71806C14.3406 6.71806 14.7813 7.15873 14.7813 7.70036V8.08475H15.839C15.7985 7.19004 15.5603 6.30485 15.1291 5.50056C14.8957 5.47457 14.6646 5.43139 14.4383 5.37055L12.1681 5.5812C11.8989 5.60649 11.6344 5.52395 11.4224 5.34951C11.2128 5.17495 11.0841 4.9297 11.058 4.65864ZM19.5195 4.02613C17.5733 2.53492 15.6699 1.58246 13.8665 1.19454C12.0489 0.803734 10.4052 1.00248 8.98063 1.78409C8.08971 1.89338 7.22734 2.18229 6.4531 2.63611C5.61457 3.12642 4.89276 3.79807 4.34008 4.59518C4.19001 4.34825 4.01611 4.10939 3.81839 3.88133V2.1346C3.81839 1.97832 3.69215 1.85211 3.53493 1.85211H1.44817C1.30761 1.85211 1.18849 1.95733 1.16944 2.09811C0.852594 4.53248 0.981259 6.65832 1.54584 8.41652C2.11758 10.1897 3.11095 11.5156 4.49978 12.3597C5.03341 13.0679 5.70755 13.6672 6.47702 14.1127C6.47702 14.1136 6.47941 14.1139 6.47941 14.1146C7.32506 14.6042 8.27558 14.8991 9.2499 14.9785C9.11173 15.2326 8.99262 15.5032 8.89494 15.789L7.38461 16.6627C7.32028 16.6999 7.27266 16.7617 7.25361 16.834C7.23216 16.9066 7.2441 16.9838 7.27982 17.0485L8.32325 18.8585C8.37564 18.9487 8.47093 19 8.5686 19C8.60432 19 8.64243 18.9933 8.67816 18.9785C10.9389 18.0359 12.7136 16.8629 13.95 15.4922C15.1982 14.1112 15.8486 12.5876 15.8843 10.963C16.6276 9.21677 16.58 7.23002 15.7748 5.5286C16.063 5.52142 16.356 5.48949 16.6514 5.43223L18.1641 6.30547C18.207 6.33097 18.257 6.34364 18.3046 6.34364C18.4023 6.34364 18.4952 6.29258 18.5476 6.20167L19.5911 4.3917C19.6625 4.26881 19.6315 4.11253 19.5195 4.02613Z" stroke="#003940" stroke-width="0.4" mask="url(#path-1-outside-1_667_9215)"/>
</g>
<defs>
<clipPath id="clip0_667_9215">
<rect width="20" height="20" fill="white"/>
</clipPath>
</defs>
</svg>
