<svg width="20" height="20" viewBox="0 0 20 20" fill="none" xmlns="http://www.w3.org/2000/svg">
<path fill-rule="evenodd" clip-rule="evenodd" d="M6.86504 1.66679C6.81865 1.7132 6.75572 1.73928 6.6901 1.73929C6.64117 1.73928 6.59334 1.72476 6.55266 1.69757C6.51197 1.67038 6.48027 1.63174 6.46154 1.58653C6.44282 1.54132 6.43792 1.49158 6.44746 1.44359C6.45701 1.39559 6.48056 1.35151 6.51516 1.3169L6.7626 1.06946C6.80927 1.02439 6.87177 0.999446 6.93665 1.00001C7.00153 1.00057 7.06359 1.0266 7.10947 1.07247C7.15535 1.11835 7.18137 1.18041 7.18194 1.24529C7.1825 1.31017 7.15756 1.37268 7.11249 1.41935L6.86504 1.66679ZM5.03171 1.91418C5.07838 1.95926 5.14088 1.9842 5.20576 1.98364C5.27064 1.98307 5.3327 1.95705 5.37858 1.91117C5.42446 1.86529 5.45048 1.80323 5.45104 1.73835C5.45161 1.67347 5.42667 1.61097 5.38159 1.5643L5.13415 1.31686C5.08748 1.27178 5.02498 1.24684 4.9601 1.24741C4.89522 1.24797 4.83316 1.27399 4.78728 1.31987C4.7414 1.36575 4.71538 1.42781 4.71481 1.49269C4.71425 1.55757 4.73919 1.62007 4.78426 1.66674L5.03171 1.91418ZM6.56632 4.89732C6.50957 4.86432 6.46813 4.81025 6.45102 4.74687L6.08777 3.3941C6.08081 3.36849 6.07814 3.3419 6.07985 3.31541L6.14617 2.21083C6.14866 2.16866 6.1619 2.12784 6.18464 2.09224C6.20738 2.05664 6.23885 2.02745 6.27606 2.00746C6.31326 1.98747 6.35497 1.97733 6.3972 1.97802C6.43944 1.97871 6.48079 1.99019 6.51733 2.01139L8.87497 3.37134C8.9595 3.42004 9.0336 3.48492 9.09303 3.56228C9.15246 3.63964 9.19607 3.72796 9.22134 3.82218C9.24662 3.9164 9.25308 4.01468 9.24035 4.1114C9.22762 4.20812 9.19596 4.30138 9.14716 4.38585L8.40483 5.67256C8.38309 5.71021 8.35182 5.74147 8.31415 5.76319C8.27649 5.78491 8.23377 5.79632 8.1903 5.79628C8.14687 5.79646 8.10417 5.7851 8.06657 5.76337L6.56632 4.89732ZM8.62703 3.80164L6.61631 2.64088L6.57721 3.30552L6.90161 4.51972L8.09874 5.21083L8.71735 4.1394C8.7501 4.08262 8.75899 4.01516 8.74206 3.95184C8.72512 3.88851 8.68376 3.83449 8.62703 3.80164ZM12.8571 16.8334H1.24744C1.18182 16.8334 1.11888 16.8073 1.07247 16.7609C1.02607 16.7145 1 16.6515 1 16.5859V12.6268C0.999988 12.5924 1.00718 12.5583 1.02111 12.5267C1.03505 12.4952 1.05542 12.4669 1.08091 12.4437C1.10391 12.4238 1.13043 12.4084 1.15911 12.3982L2.84766 2.82262C2.88231 2.62903 2.99217 2.45702 3.15324 2.34417C3.31431 2.23132 3.51349 2.1868 3.70728 2.22035L4.92594 2.43538C4.97121 2.44335 5.01336 2.46379 5.04767 2.49438C5.08198 2.52497 5.10709 2.56452 5.12018 2.60859L5.42577 3.63127L6.20572 4.74476C6.22551 4.77132 6.23978 4.80158 6.24767 4.83375C6.25555 4.86592 6.2569 4.89935 6.25163 4.93205C6.24636 4.96475 6.23457 4.99606 6.21698 5.02412C6.19938 5.05218 6.17633 5.07643 6.14919 5.09541C6.12205 5.1144 6.09137 5.12775 6.05898 5.13466C6.02658 5.14157 5.99313 5.14191 5.96061 5.13566C5.92808 5.1294 5.89714 5.11668 5.86962 5.09824C5.8421 5.07981 5.81856 5.05604 5.8004 5.02834L4.9972 3.88168C4.98207 3.85988 4.97046 3.83583 4.96281 3.81042L4.69062 2.89636L3.6229 2.70781C3.55813 2.69683 3.49164 2.71174 3.43776 2.74932C3.38389 2.78691 3.34693 2.84416 3.33488 2.90873L1.65845 12.4175L2.89443 12.5353L3.09238 11.4087C3.10385 11.3441 3.14046 11.2867 3.19418 11.2492C3.24791 11.2116 3.31435 11.1969 3.37892 11.2082L4.84106 11.4661C4.90566 11.4775 4.96309 11.5141 5.00072 11.5678C5.03835 11.6215 5.0531 11.688 5.04174 11.7526L4.87051 12.7233L6.10624 12.8411L7.32985 5.90676C7.34268 5.84352 7.3797 5.78779 7.43302 5.75146C7.48635 5.71512 7.55176 5.70105 7.6153 5.71225C7.67885 5.72345 7.73551 5.75903 7.7732 5.81141C7.81089 5.86378 7.82663 5.92881 7.81707 5.99262L6.59395 12.929C6.6026 12.9343 6.61086 12.9403 6.6187 12.9468L6.86614 13.1942C6.91255 13.2406 6.93863 13.3035 6.93864 13.3692V13.7616L7.60847 14.4314C7.65488 14.4778 7.68096 14.5408 7.68097 14.6064V14.9988L7.92842 14.7514V14.2139L7.75347 14.039C7.70707 13.9926 7.68099 13.9297 7.68097 13.864V13.1217C7.68113 13.061 7.70357 13.0025 7.74404 12.9573C7.7845 12.9121 7.84017 12.8834 7.90046 12.8765L10.1903 12.6147L9.03251 6.04755C9.02457 6.00233 9.02937 5.95579 9.04636 5.91314C9.06336 5.87049 9.0919 5.83341 9.12877 5.80605L10.4617 4.81628C10.502 4.78568 10.5508 4.76838 10.6013 4.76679L11.385 4.74204H11.3931C11.4587 4.74103 11.5221 4.76612 11.5692 4.81181C11.6163 4.85749 11.6434 4.92002 11.6444 4.98565C11.6454 5.05128 11.6203 5.11462 11.5746 5.16174C11.529 5.20887 11.4664 5.23591 11.4008 5.23693L10.6946 5.26019L9.5462 6.11164L10.682 12.5588L12.4064 12.3608L12.256 11.5089C12.2446 11.4443 12.2593 11.3778 12.297 11.3241C12.3346 11.2703 12.392 11.2337 12.4566 11.2223L13.0637 11.1158C12.9251 11.2615 12.8523 11.4571 12.8573 11.6545L12.7877 11.6667L12.9001 12.3047L13.0774 12.2844C13.132 12.4755 13.1189 12.6475 13.0463 12.786L8.17586 13.3427V13.7616L8.3508 13.9365C8.39721 13.9829 8.42329 14.0459 8.4233 14.1115V14.8538C8.42329 14.9194 8.39721 14.9824 8.3508 15.0288L7.60847 15.7711C7.57387 15.8057 7.52978 15.8292 7.48179 15.8388C7.4338 15.8483 7.38405 15.8434 7.33884 15.8247C7.29364 15.806 7.25499 15.7743 7.2278 15.7336C7.20061 15.6929 7.1861 15.6451 7.18609 15.5962V14.7088L6.51626 14.039C6.46985 13.9926 6.44377 13.9297 6.44376 13.864V13.4726L6.33166 13.3605L3.82333 13.1217L4.3927 13.6891C4.43909 13.7355 4.46515 13.7984 4.46515 13.864C4.46515 13.9297 4.43909 13.9926 4.3927 14.039L3.23491 15.1968L4.01881 15.3537C4.07895 15.3659 4.1324 15.4 4.16879 15.4494C4.20519 15.4988 4.22193 15.56 4.21576 15.621C4.20959 15.6821 4.18096 15.7387 4.13542 15.7798C4.08988 15.8209 4.03068 15.8437 3.96932 15.8436C3.95303 15.8436 3.93677 15.842 3.92082 15.8386L2.81351 15.6172L2.41216 16.0185C2.38933 16.0422 2.36203 16.061 2.33184 16.074C2.30165 16.087 2.26918 16.0938 2.23633 16.0941C2.20347 16.0944 2.17089 16.0881 2.14048 16.0757C2.11007 16.0632 2.08244 16.0448 2.05921 16.0216C2.03597 15.9984 2.0176 15.9707 2.00516 15.9403C1.99272 15.9099 1.98646 15.8773 1.98674 15.8445C1.98703 15.8116 1.99385 15.7792 2.00682 15.749C2.01979 15.7188 2.03864 15.6915 2.06227 15.6687L3.86688 13.864L3.05205 13.0497L3.05056 13.0475L1.49489 12.899V16.3385H12.6298V15.946L12.28 15.5962H11.8875C11.8219 15.5962 11.7589 15.5701 11.7125 15.5237C11.6661 15.4773 11.6401 15.4143 11.6401 15.3487C11.6401 15.2831 11.6661 15.2201 11.7125 15.1737C11.7336 15.1527 11.758 15.1358 11.7846 15.1237C11.9199 15.2551 12.1043 15.3366 12.3076 15.3366C12.5468 15.3366 12.7388 15.3931 12.8751 15.4915L12.8773 15.4937L12.8776 15.4934C13.1472 15.6901 13.196 16.0521 12.9568 16.4648C12.8899 16.5805 12.8577 16.7075 12.8571 16.8334ZM15.9655 11.1668C16.0377 11.097 16.1056 11.0092 16.167 10.9033L16.2106 10.8281C16.2546 10.7541 16.3108 10.6915 16.375 10.6413L15.0244 2.98148C14.99 2.78754 14.8801 2.61514 14.7188 2.50209C14.5576 2.38904 14.358 2.34458 14.164 2.37846L12.7021 2.6363C12.6643 2.64296 12.6286 2.65832 12.5977 2.68117C12.5669 2.70402 12.5418 2.73372 12.5244 2.76794L11.9652 3.87154C11.9411 3.91935 11.9331 3.9737 11.9424 4.02644L12.1157 5.00136C12.1283 5.0648 12.1653 5.12075 12.2187 5.15725C12.2721 5.19374 12.3377 5.20787 12.4014 5.19662C12.4651 5.18536 12.5218 5.14961 12.5595 5.09702C12.5972 5.04443 12.6127 4.97918 12.6029 4.91525L12.4452 4.02174L12.9112 3.10224L14.2516 2.86568C14.2836 2.86002 14.3164 2.86072 14.3481 2.86774C14.3799 2.87476 14.4099 2.88797 14.4366 2.9066C14.4632 2.92524 14.4859 2.94894 14.5034 2.97635C14.5208 3.00376 14.5327 3.03435 14.5384 3.06636L15.9655 11.1668ZM3.53679 11.7383L4.51147 11.9115L4.37661 12.6785L3.38684 12.5845L3.53679 11.7383ZM6.80322 6.03319L6.6315 7.00787L6.63051 7.00713C6.6191 7.07173 6.58251 7.12915 6.52878 7.16678C6.47505 7.20441 6.40858 7.21917 6.34397 7.20781L3.41919 6.69288C3.35458 6.68141 3.29718 6.64476 3.25959 6.59098C3.222 6.5372 3.20732 6.4707 3.21876 6.40609L3.39197 5.43141C3.40337 5.36681 3.43997 5.30938 3.4937 5.27175C3.54743 5.23412 3.6139 5.21937 3.67851 5.23073L6.6028 5.74641C6.6674 5.75787 6.72481 5.79452 6.76239 5.8483C6.79998 5.90208 6.81466 5.96858 6.80322 6.03319ZM3.74903 6.24847L6.1861 6.67828L6.27196 6.19081L3.83514 5.761L3.74903 6.24847ZM14.2826 5.87625L12.8204 6.13409C12.7558 6.14549 12.6984 6.18208 12.6608 6.23581C12.6231 6.28955 12.6084 6.35602 12.6198 6.42063L12.8776 7.88252C12.8877 7.93976 12.9176 7.99162 12.9622 8.02899C13.0067 8.06636 13.0629 8.08687 13.1211 8.08691C13.1356 8.08688 13.1501 8.08564 13.1644 8.0832L14.6265 7.8266C14.6911 7.81519 14.7485 7.77861 14.7861 7.7249C14.8048 7.69833 14.8181 7.66831 14.8251 7.63658C14.8321 7.60485 14.8327 7.57204 14.8269 7.54006L14.5691 6.07792C14.5636 6.04584 14.5518 6.01518 14.5344 5.98767C14.517 5.96017 14.4943 5.93637 14.4677 5.91763C14.4411 5.8989 14.411 5.8856 14.3793 5.8785C14.3475 5.8714 14.3146 5.87064 14.2826 5.87625ZM13.322 7.55293L13.1488 6.5785L14.1235 6.40529L14.2967 7.37997L13.322 7.55293ZM12.0241 6.34638C11.9975 6.32764 11.9675 6.31439 11.9357 6.30738C11.9039 6.30037 11.8711 6.29975 11.8391 6.30555L10.3772 6.56438C10.3126 6.57584 10.2552 6.61245 10.2177 6.66618C10.1801 6.7199 10.1654 6.78635 10.1767 6.85092L10.4343 8.31306C10.4444 8.37035 10.4743 8.42226 10.5188 8.45968C10.5633 8.4971 10.6196 8.51764 10.6778 8.51769C10.6922 8.51773 10.7067 8.5164 10.7209 8.51374L12.182 8.25491C12.2466 8.2435 12.304 8.20691 12.3417 8.15318C12.3793 8.09945 12.394 8.03298 12.3827 7.96837L12.1248 6.50623C12.1137 6.44172 12.0775 6.38424 12.0241 6.34638ZM10.8787 7.98247L10.7055 7.0078L11.6802 6.83458L11.8534 7.80926L10.8787 7.98247ZM12.3649 8.74412C12.3966 8.75113 12.4267 8.7644 12.4532 8.78317C12.5067 8.82088 12.5431 8.87828 12.5544 8.94277L12.8122 10.4049C12.8179 10.4369 12.8172 10.4697 12.8102 10.5015C12.8032 10.5332 12.79 10.5633 12.7713 10.5899C12.7527 10.6165 12.729 10.6392 12.7016 10.6567C12.6742 10.6742 12.6436 10.6861 12.6116 10.6917L11.1502 10.9495C11.136 10.952 11.1215 10.9533 11.1071 10.9532C11.049 10.9532 10.9927 10.9327 10.9482 10.8953C10.9037 10.858 10.8737 10.8061 10.8636 10.7489L10.6058 9.28672C10.5944 9.22211 10.6092 9.15564 10.6468 9.10191C10.6844 9.04817 10.7419 9.01158 10.8065 9.00018L12.2684 8.74234C12.3003 8.7365 12.3332 8.73711 12.3649 8.74412ZM11.1343 9.44458L11.3075 10.4193L12.282 10.2463L12.1088 9.27137L11.1343 9.44458ZM13.2493 8.57091C13.1847 8.58237 13.1273 8.61902 13.0897 8.6728C13.0521 8.72658 13.0374 8.79309 13.0489 8.8577L13.3067 10.3198C13.3168 10.377 13.3467 10.4289 13.3912 10.4662C13.4357 10.5036 13.4919 10.5241 13.55 10.5242C13.5645 10.5243 13.579 10.5229 13.5933 10.5203L15.0554 10.2624C15.12 10.251 15.1774 10.2144 15.2151 10.1607C15.2527 10.107 15.2674 10.0405 15.2561 9.9759L14.9982 8.51375C14.9926 8.48174 14.9807 8.45116 14.9632 8.42375C14.9458 8.39633 14.9231 8.37263 14.8964 8.354C14.8698 8.33536 14.8397 8.32216 14.808 8.31513C14.7763 8.30811 14.7435 8.30741 14.7115 8.31308L13.2493 8.57091ZM13.7511 9.99025L13.5779 9.01532L14.5528 8.84211L14.7261 9.81679L13.7511 9.99025ZM2.80558 9.17017C2.85931 9.13254 2.92578 9.11779 2.99039 9.12915L5.91468 9.64482C5.97927 9.65623 6.0367 9.69282 6.07433 9.74655C6.11196 9.80028 6.12672 9.86676 6.11535 9.93136L5.94214 10.9063C5.93203 10.9635 5.90208 11.0154 5.85756 11.0528C5.81304 11.0901 5.75679 11.1106 5.69866 11.1107C5.68421 11.1107 5.6698 11.1094 5.6556 11.1067L2.73132 10.591C2.66672 10.5796 2.60929 10.543 2.57166 10.4893C2.53403 10.4356 2.51928 10.3691 2.53064 10.3045L2.70385 9.32983C2.71526 9.26523 2.75185 9.2078 2.80558 9.17017ZM3.0619 10.1466L5.49872 10.5767L5.58483 10.0892L3.14801 9.65942L3.0619 10.1466ZM6.28608 8.95732L6.4578 7.98239C6.46917 7.91782 6.45445 7.85138 6.41687 7.79765C6.37929 7.74393 6.32193 7.70731 6.25737 7.69585L3.33309 7.18043C3.26848 7.16906 3.20201 7.18382 3.14827 7.22145C3.09454 7.25908 3.05795 7.3165 3.04655 7.3811L2.87482 8.35553C2.86906 8.38765 2.8697 8.42059 2.87672 8.45245C2.88374 8.48432 2.89699 8.51448 2.91571 8.5412C2.93443 8.56793 2.95825 8.59068 2.9858 8.60817C3.01335 8.62565 3.04409 8.63751 3.07624 8.64306L5.99954 9.15775C6.01373 9.16042 6.02815 9.16175 6.04259 9.1617C6.10072 9.16166 6.15698 9.14116 6.2015 9.10378C6.24602 9.06641 6.27596 9.01456 6.28608 8.95732ZM5.84068 8.62772L3.40509 8.19767L3.49096 7.71045L5.92778 8.14001L5.84068 8.62772ZM11.2166 3.64644C11.2633 3.69151 11.3258 3.71645 11.3907 3.71589C11.4555 3.71533 11.5176 3.6893 11.5635 3.64342C11.6094 3.59755 11.6354 3.53548 11.6359 3.47061C11.6365 3.40573 11.6116 3.34322 11.5665 3.29655L11.319 3.04911C11.2724 3.00404 11.2099 2.9791 11.145 2.97966C11.0801 2.98022 11.0181 3.00625 10.9722 3.05212C10.9263 3.098 10.9003 3.16007 10.8997 3.22494C10.8991 3.28982 10.9241 3.35233 10.9692 3.399L11.2166 3.64644ZM10.1537 4.4617H9.9063C9.84067 4.4617 9.77774 4.43564 9.73133 4.38923C9.68493 4.34283 9.65886 4.27989 9.65886 4.21426C9.65886 4.14864 9.68493 4.0857 9.73133 4.03929C9.77774 3.99289 9.84067 3.96682 9.9063 3.96682H10.1537C10.2194 3.96682 10.2823 3.99289 10.3287 4.03929C10.3751 4.0857 10.4012 4.14864 10.4012 4.21426C10.4012 4.27989 10.3751 4.34283 10.3287 4.38923C10.2823 4.43564 10.2194 4.4617 10.1537 4.4617ZM8.74265 9.58491C8.78932 9.62998 8.85182 9.65492 8.9167 9.65436C8.98158 9.65379 9.04364 9.62777 9.08952 9.58189C9.1354 9.53602 9.16142 9.47395 9.16198 9.40907C9.16255 9.3442 9.13761 9.28169 9.09253 9.23502L8.84509 8.98758C8.79842 8.94251 8.73592 8.91756 8.67104 8.91813C8.60616 8.91869 8.5441 8.94471 8.49822 8.99059C8.45234 9.03647 8.42632 9.09853 8.42575 9.16341C8.42519 9.22829 8.45013 9.2908 8.4952 9.33746L8.74265 9.58491ZM8.42115 7.67824C8.48676 7.67824 8.54969 7.7043 8.59609 7.75069C8.64248 7.79709 8.66854 7.86002 8.66854 7.92563C8.66854 7.99124 8.64248 8.05417 8.59609 8.10057L8.34865 8.34802C8.32582 8.37165 8.29852 8.3905 8.26833 8.40347C8.23814 8.41644 8.20567 8.42326 8.17281 8.42355C8.13996 8.42383 8.10738 8.41757 8.07697 8.40513C8.04656 8.39269 8.01893 8.37432 7.99569 8.35108C7.97246 8.32785 7.95409 8.30022 7.94165 8.26981C7.9292 8.2394 7.92294 8.20682 7.92323 8.17396C7.92351 8.14111 7.93034 8.10864 7.94331 8.07845C7.95628 8.04826 7.97513 8.02096 7.99876 7.99813L8.24621 7.75069C8.29261 7.7043 8.35553 7.67824 8.42115 7.67824Z" fill="#003940"/>
<path d="M11.2891 14.5421V13.8454C11.2891 13.4338 11.6255 13.0933 12.0411 13.0933C12.7576 13.0933 13.0505 12.5867 12.6903 11.9652C12.4845 11.609 12.6072 11.1458 12.9674 10.94L13.6522 10.5481C13.9649 10.3621 14.3686 10.4729 14.5547 10.7856L14.5982 10.8608C14.9545 11.4823 15.5403 11.4823 15.9005 10.8608L15.9441 10.7856C16.1301 10.4729 16.5339 10.3621 16.8466 10.5481L17.5314 10.94C17.8916 11.1458 18.0143 11.609 17.8084 11.9652C17.4482 12.5867 17.7411 13.0933 18.4576 13.0933C18.8693 13.0933 19.2097 13.4298 19.2097 13.8454V14.5421C19.2097 14.9538 18.8732 15.2942 18.4576 15.2942C17.7411 15.2942 17.4482 15.8008 17.8084 16.4223C18.0143 16.7825 17.8916 17.2417 17.5314 17.4475L16.8466 17.8394C16.5339 18.0254 16.1301 17.9146 15.9441 17.6019L15.9005 17.5267C15.5443 16.9052 14.9584 16.9052 14.5982 17.5267L14.5547 17.6019C14.3686 17.9146 13.9649 18.0254 13.6522 17.8394L12.9674 17.4475C12.6072 17.2417 12.4845 16.7785 12.6903 16.4223C13.0505 15.8008 12.7576 15.2942 12.0411 15.2942C11.6255 15.2942 11.2891 14.9538 11.2891 14.5421Z" stroke="#003940" stroke-width="0.5" stroke-miterlimit="10" stroke-linecap="round" stroke-linejoin="round"/>
<path d="M15.25 15.3818C15.9058 15.3818 16.4375 14.8502 16.4375 14.1943C16.4375 13.5385 15.9058 13.0068 15.25 13.0068C14.5942 13.0068 14.0625 13.5385 14.0625 14.1943C14.0625 14.8502 14.5942 15.3818 15.25 15.3818Z" stroke="#003940" stroke-width="0.5" stroke-miterlimit="10" stroke-linecap="round" stroke-linejoin="round"/>
</svg>
