<svg width="20" height="20" viewBox="0 0 20 20" fill="none" xmlns="http://www.w3.org/2000/svg">
<g clip-path="url(#clip0_631_9891)">
<path d="M18.9902 9.61234V9.61159C18.7862 4.8281 14.8323 1 10 1C5.03719 0.99925 1 5.03642 1 9.99924C1 10.1185 1.0045 10.237 1.009 10.3547C1.009 10.357 1.0075 10.3585 1.0075 10.3607C1.0075 10.3645 1.009 10.3682 1.009 10.3712C1.1155 12.9782 2.33651 15.3018 4.20695 16.8791C4.2092 16.8813 4.21145 16.8828 4.21445 16.8851C5.78045 18.2021 7.79871 18.9986 9.99999 18.9986C14.9628 18.9986 19 14.9614 19 9.99862C19 9.86887 18.9955 9.74058 18.9902 9.61234ZM18.3685 9.30334C18.2965 9.29358 18.2185 9.28009 18.1405 9.25833C17.7452 9.14958 17.74 8.97183 17.7377 8.90432C17.7085 7.99382 16.9952 6.98432 16.0832 6.98432H16.0675C15.5184 6.98882 15.2117 7.41108 14.965 7.75083C14.794 7.98633 14.6327 8.20832 14.4399 8.25408C14.2532 8.29758 14.2044 8.28258 13.9269 7.60608C13.8354 7.38182 13.7207 7.10283 13.5677 6.79758C12.6362 4.94734 9.92199 4.57153 8.80666 5.07183C7.95017 5.45583 7.44841 5.18358 7.44016 5.17983C7.1694 5.00283 7.00741 4.68032 7.00816 4.31658C7.00816 4.02334 7.11841 3.76233 7.28865 3.65134C7.54514 3.48333 7.82114 3.42184 8.2029 3.33559C8.5254 3.26284 8.92739 3.17284 9.40889 2.98684C10.1244 2.71084 10.5054 2.08684 10.6981 1.63084C14.7743 1.96834 18.0331 5.22643 18.3691 9.30336L18.3685 9.30334ZM3.25287 5.00215C3.50936 5.1514 3.75537 5.2879 3.96087 5.39515C4.33512 5.58865 4.62838 5.99965 4.64338 6.35141C4.65388 6.58542 4.54287 6.77216 4.30363 6.92292C3.76213 7.26717 3.47413 7.70067 3.21989 8.08317C3.00688 8.40418 2.80513 8.70717 2.4699 8.94718C2.35514 9.02968 2.1174 9.12117 1.64339 9.14067C1.80014 7.60018 2.37539 6.18272 3.25289 5.00134L3.25287 5.00215ZM1.63137 10.6976C1.92536 10.7396 1.99736 10.8124 2.00712 10.8236C2.03712 10.8604 2.07537 10.9249 2.12412 11.0044C2.37163 11.4086 2.83287 12.1609 3.62487 12.3454C4.38688 12.5216 4.73411 13.0954 4.73411 13.5529C4.73411 13.7532 4.66286 13.9212 4.57211 14.1334C4.42211 14.4859 4.23461 14.9239 4.32086 15.6634C4.33811 15.8164 4.32461 15.9792 4.28711 16.1494C2.79611 14.7634 1.80992 12.8441 1.63213 10.6983L1.63137 10.6976ZM9.99989 18.3993C8.03035 18.3993 6.21845 17.7161 4.7844 16.5768C4.90365 16.2363 4.9509 15.9063 4.91565 15.5951C4.84815 15.0131 4.98765 14.6853 5.12264 14.3688C5.22614 14.1266 5.33265 13.8761 5.33265 13.5528C5.33265 12.7128 4.6854 11.9756 3.75916 11.7611C3.2124 11.6336 2.85015 11.0441 2.63415 10.6916C2.56965 10.5851 2.5179 10.5018 2.46915 10.4426C2.31015 10.2491 2.02889 10.1358 1.60215 10.0916C1.60215 10.0608 1.5999 10.0308 1.5999 10.0001C1.5999 9.91309 1.60365 9.82684 1.60665 9.74058C2.14965 9.72483 2.5539 9.62734 2.82015 9.43609C3.24464 9.13235 3.48616 8.76858 3.72015 8.41684C3.96315 8.0516 4.1919 7.70659 4.62539 7.43134C5.0439 7.16734 5.26289 6.77434 5.24415 6.32659C5.2194 5.75885 4.80616 5.15735 4.23915 4.86409C4.0629 4.77184 3.8544 4.65634 3.63465 4.53033C5.17665 2.73859 7.45738 1.6008 10.0014 1.6008C10.0179 1.6008 10.0336 1.6023 10.0494 1.6023C9.88363 1.91804 9.61588 2.26604 9.19363 2.4288C8.75338 2.5983 8.39113 2.68005 8.07239 2.75205C7.66289 2.8443 7.30888 2.9238 6.96163 3.1503C6.62114 3.37154 6.40963 3.8193 6.40888 4.31729C6.40813 4.88429 6.67139 5.39505 7.12138 5.68904C7.15288 5.70779 7.89237 6.14129 9.0527 5.62079C9.93621 5.22479 12.2777 5.57204 13.0323 7.06905C13.1755 7.35255 13.2798 7.60905 13.372 7.8348C13.6188 8.43854 13.8528 9.00855 14.5773 8.83981C14.9868 8.74231 15.2335 8.40406 15.4503 8.10556C15.6843 7.7838 15.8433 7.58806 16.0743 7.58656H16.0818C16.6285 7.58656 17.119 8.32006 17.1385 8.92532C17.146 9.16682 17.2435 9.38132 17.4183 9.54483C17.6943 9.80284 18.1128 9.88607 18.3978 9.91234C18.3978 9.94159 18.4 9.97084 18.4 10.0008C18.4 14.6328 14.632 18.4008 10 18.4008L9.99989 18.3993Z" fill="#003940" stroke="#003940" stroke-width="0.25"/>
<path d="M13.4678 9.96511C13.1716 9.80686 13.1326 9.40937 13.1078 8.82137C13.0868 8.33837 13.0658 7.83811 12.7216 7.56436C12.3961 7.3056 11.9528 7.04836 11.1143 7.1001C10.4843 7.1391 10.1941 7.0896 9.79281 7.02135C9.5828 6.98535 9.34432 6.94485 9.02032 6.90885C7.99206 6.7956 7.51131 6.9426 6.69385 8.03086C6.57385 8.19136 6.45984 8.33386 6.3571 8.46361C5.6371 9.37037 5.3386 9.85561 6.4186 10.9702C7.31711 11.8972 7.80461 11.9017 8.3484 11.8109C8.45265 11.7937 8.55165 11.7772 8.65289 11.7772C8.95738 11.7772 9.15013 12.1372 9.33989 13.0604C9.38639 13.2869 9.42764 13.6409 9.47113 14.0159C9.62414 15.3337 9.77563 16.3731 10.2046 16.7646C10.4206 16.9619 10.6441 17.0609 10.8706 17.0609C10.9141 17.0609 10.9576 17.0571 11.0011 17.0504C11.3881 16.9859 11.7316 16.6461 12.1127 15.9486C12.3819 15.4559 12.7262 15.0921 13.0036 14.7989C13.2039 14.5873 13.3614 14.4208 13.4529 14.2499C13.5609 14.0466 13.5324 13.8073 13.4986 13.5299C13.4491 13.1174 13.3921 12.6509 13.7656 12.2473C14.2021 11.7764 14.3806 11.3488 14.3116 10.9408C14.2479 10.5598 13.9636 10.2321 13.4672 9.96734L13.4678 9.96511ZM13.3253 11.8371C12.7628 12.4446 12.8468 13.1399 12.9031 13.5996C12.9196 13.7331 12.9413 13.9169 12.9233 13.9656C12.8701 14.0654 12.7298 14.2131 12.5678 14.3849C12.2828 14.6856 11.8928 15.0981 11.5868 15.6591C11.2471 16.2809 11.0273 16.4361 10.9035 16.4571C10.8735 16.4623 10.782 16.4766 10.6103 16.3206C10.3133 16.0491 10.1603 14.7329 10.0688 13.9461C10.0216 13.5411 9.98106 13.1924 9.92931 12.9396C9.79356 12.2804 9.56706 11.1771 8.65431 11.1771C8.50281 11.1771 8.36931 11.1996 8.25081 11.2191C7.88781 11.2799 7.60131 11.3271 6.85055 10.5531C6.08931 9.76787 6.18755 9.64411 6.82805 8.83786C6.93455 8.70436 7.05081 8.55737 7.1753 8.39236C7.8563 7.4856 8.12031 7.41512 8.95654 7.50661C9.26255 7.54036 9.4913 7.57936 9.69304 7.61386C10.1175 7.68661 10.452 7.74361 11.1525 7.70011C11.7495 7.66186 12.0623 7.80661 12.3488 8.03461C12.4793 8.13811 12.4951 8.51536 12.5093 8.84762C12.5341 9.43412 12.5656 10.1639 13.1858 10.4954C13.5098 10.6686 13.6898 10.8516 13.7213 11.0399C13.7648 11.3001 13.5308 11.6181 13.3261 11.8394L13.3253 11.8371Z" fill="#003940" stroke="#003940" stroke-width="0.25"/>
</g>
<defs>
<clipPath id="clip0_631_9891">
<rect width="20" height="20" fill="white"/>
</clipPath>
</defs>
</svg>
