<svg width="20" height="20" viewBox="0 0 20 20" fill="none" xmlns="http://www.w3.org/2000/svg">
<path fill-rule="evenodd" clip-rule="evenodd" d="M18.5904 15.1736C18.4691 15.4957 18.3029 15.7972 18.0958 16.07C18.0136 16.1785 17.8678 16.2095 17.7487 16.1433C17.3947 15.9464 16.9592 15.9543 16.6124 16.1631C16.2657 16.3722 16.0555 16.7533 16.0638 17.1583C16.0665 17.2945 15.9711 17.409 15.837 17.4309C15.4991 17.4865 15.1545 17.4923 14.8132 17.4489C14.6787 17.432 14.5788 17.321 14.5764 17.1853C14.5695 16.7807 14.3452 16.4077 13.9916 16.212C13.8208 16.1178 13.632 16.0707 13.4429 16.0707C13.2392 16.0707 13.0356 16.1257 12.8557 16.2343C12.739 16.3049 12.5918 16.2794 12.5058 16.1737C12.3982 16.0421 12.2989 15.9014 12.2104 15.7547C12.1219 15.6079 12.0437 15.4542 11.9779 15.2976C11.9248 15.1721 11.9713 15.0302 12.0878 14.9603C12.435 14.7518 12.6459 14.371 12.6384 13.9665C12.6311 13.5623 12.4061 13.1897 12.0515 12.994C11.9324 12.9288 11.881 12.7886 11.9289 12.6615C12.0498 12.3394 12.2162 12.0382 12.4232 11.765C12.5053 11.6567 12.6517 11.6257 12.7706 11.6919C13.1248 11.8887 13.5599 11.881 13.9066 11.6719C14.2532 11.4634 14.4634 11.0818 14.4551 10.6769C14.4524 10.5408 14.5479 10.4261 14.6822 10.4041C15.0202 10.3486 15.3646 10.3427 15.7058 10.3858C15.8408 10.403 15.9401 10.514 15.9425 10.65C15.9495 11.0545 16.1737 11.4273 16.5279 11.623C16.882 11.8191 17.3172 11.8105 17.6634 11.6007C17.78 11.5303 17.9271 11.5558 18.0136 11.6615C18.1207 11.7929 18.2202 11.9338 18.3087 12.0805C18.397 12.2271 18.4752 12.381 18.5414 12.5374C18.5944 12.6631 18.5482 12.8048 18.4311 12.8751C18.0841 13.0832 17.8732 13.4642 17.8805 13.8687C17.8884 14.2728 18.113 14.6457 18.4674 14.841C18.5865 14.9068 18.6382 15.0464 18.5904 15.1736ZM8.17238 11.9052C8.16487 11.6829 8.1277 11.468 8.06392 11.2646H10.8593C11.2647 11.2646 11.6152 11.533 11.735 11.9052H8.17238ZM11.6274 13.119H7.89257C8.02596 12.8678 8.11592 12.5902 8.15384 12.2965H11.6567C11.6234 12.3711 11.5917 12.4471 11.5628 12.5239C11.4853 12.7292 11.5148 12.9478 11.6274 13.119ZM5.753 14.0169C4.63391 14.0169 3.72334 13.1065 3.72334 11.9869C3.72334 10.8678 4.63391 9.9568 5.753 9.9568C6.87244 9.9568 7.78301 10.8678 7.78301 11.9869C7.78305 13.1065 6.87244 14.0169 5.753 14.0169ZM10.1104 18.5742H1.39559C1.49839 16.2599 3.41391 14.4083 5.753 14.4083C8.09248 14.4083 10.0075 16.2599 10.1104 18.5742ZM9.42795 3.75024V10.8733H8.94428V3.75024C9.0214 3.77168 9.1024 3.78397 9.18614 3.78397C9.26983 3.78393 9.35083 3.77168 9.42795 3.75024ZM9.1861 2.39133C9.46239 2.39133 9.68703 2.61593 9.68703 2.89167C9.68703 3.16796 9.46239 3.3926 9.1861 3.3926C8.91036 3.3926 8.68572 3.16796 8.68572 2.89167C8.68572 2.61593 8.91036 2.39133 9.1861 2.39133ZM5.82848 6.01902H2.54599L4.18706 3.27334L5.82848 6.01902ZM4.1975 7.26688C3.3767 7.26688 2.65465 6.89825 2.45036 6.41035H5.945C5.74071 6.89825 5.01886 7.26688 4.1975 7.26688ZM15.8264 6.01902H12.5437L14.1853 3.27334L15.8264 6.01902ZM14.1959 7.26688C13.3746 7.26688 12.6525 6.89825 12.4482 6.41035H15.9429C15.7386 6.89825 15.0167 7.26688 14.1959 7.26688ZM18.6565 14.4982C18.4242 14.3704 18.2771 14.1261 18.272 13.8618C18.2672 13.5963 18.4054 13.3471 18.6327 13.2106C18.9184 13.0391 19.0314 12.6921 18.9019 12.3852C18.8288 12.2119 18.7419 12.0413 18.6441 11.8786C18.5459 11.7161 18.436 11.5596 18.3165 11.4138C18.1056 11.1558 17.746 11.0937 17.4611 11.2663C17.2342 11.4032 16.949 11.409 16.7174 11.2806C16.4853 11.1527 16.3385 10.9081 16.3339 10.6434C16.3281 10.311 16.0846 10.0399 15.7552 9.99758C15.3769 9.94996 14.9945 9.95653 14.6192 10.0181C14.2909 10.0716 14.0573 10.3521 14.0641 10.6852C14.0696 10.9505 13.9318 11.2002 13.7048 11.3371C13.4778 11.4736 13.1926 11.4787 12.9606 11.3501C12.6698 11.1885 12.3125 11.2634 12.1116 11.5287C12.0883 11.5597 12.0658 11.591 12.0434 11.6224C11.8305 11.179 11.3758 10.8734 10.8593 10.8734H9.81936V3.51938C9.93514 3.4023 10.0189 3.25369 10.0564 3.08736H13.8402L12.0313 6.11445C12.0101 6.14998 12.0004 6.19158 12.0042 6.23297C12.0813 7.04537 13.0236 7.65801 14.196 7.65801C15.3679 7.65801 16.3102 7.04533 16.3871 6.23297C16.3926 6.17819 16.3743 6.12377 16.3371 6.08311C16.3268 6.07176 16.3155 6.06206 16.303 6.0538L14.3532 2.79166C14.3181 2.73249 14.2541 2.69622 14.1854 2.69622H10.0564C9.96676 2.29828 9.61061 2 9.1861 2C8.76159 2 8.40559 2.29828 8.31638 2.69622H4.18706C4.11854 2.69622 4.05476 2.73249 4.01923 2.79166L2.03336 6.11445C2.01227 6.14998 2.00241 6.19158 2.00644 6.23297C2.08336 7.04537 3.02567 7.65801 4.1975 7.65801C5.36989 7.65801 6.312 7.04533 6.38912 6.23297C6.39424 6.17819 6.37628 6.12377 6.33907 6.08311C6.32882 6.07176 6.31708 6.06206 6.30499 6.0538L4.53202 3.08736H8.31634C8.35355 3.25369 8.43725 3.4023 8.55303 3.51938V10.8733H7.90192C7.49776 10.0974 6.68666 9.56567 5.753 9.56567C4.41792 9.56567 3.33197 10.6518 3.33197 11.9869C3.33197 12.9275 3.87117 13.7443 4.657 14.1449C2.56266 14.6409 1 16.5262 1 18.7699C1 18.878 1.08757 18.9655 1.19549 18.9655H10.3103C10.4184 18.9655 10.506 18.878 10.506 18.7699C10.506 16.5262 8.94315 14.6409 6.84939 14.1449C7.15296 13.9899 7.41993 13.7727 7.63319 13.5103H12.073C12.1808 13.6389 12.244 13.8017 12.2473 13.9738C12.2522 14.2387 12.1141 14.4881 11.8864 14.6246C11.6013 14.7959 11.4882 15.1431 11.6172 15.4498C11.6909 15.6235 11.7773 15.7937 11.8756 15.9566C11.9734 16.1189 12.0837 16.2755 12.2029 16.4214C12.4135 16.6792 12.7731 16.7411 13.058 16.5689C13.2854 16.432 13.5701 16.426 13.8023 16.5544C14.0338 16.6825 14.181 16.9269 14.1857 17.1918C14.1916 17.524 14.4345 17.7951 14.764 17.8371C14.9303 17.8585 15.097 17.8691 15.2638 17.8691C15.477 17.8691 15.6898 17.8515 15.9002 17.8171C16.2286 17.7634 16.4618 17.4829 16.4552 17.1504C16.4497 16.8847 16.5875 16.635 16.8143 16.4979C17.0417 16.3614 17.3269 16.3563 17.5589 16.4851C17.8496 16.6467 18.2065 16.5716 18.4077 16.3063C18.6373 16.0034 18.8222 15.6685 18.9566 15.3112C19.0737 15.0006 18.9473 14.6587 18.6565 14.4982ZM15.8185 14.8449C16.3295 14.5369 16.4951 13.8702 16.1871 13.3588C16.0376 13.1111 15.8009 12.9367 15.5204 12.8669C15.433 12.8451 15.3451 12.8344 15.2579 12.8344C15.0633 12.8344 14.872 12.8874 14.7011 12.9902C14.4533 13.1397 14.2784 13.3764 14.2087 13.6569C14.1395 13.9376 14.1833 14.2287 14.3324 14.4764C14.6402 14.9874 15.3072 15.1529 15.8185 14.8449ZM15.6146 12.487C15.2324 12.3923 14.8365 12.4522 14.4992 12.6552C14.1619 12.8582 13.9239 13.1807 13.8291 13.5627C13.7344 13.9449 13.794 14.341 13.997 14.6783C14.2738 15.1369 14.7621 15.3912 15.2621 15.3912C15.5208 15.3912 15.783 15.323 16.0204 15.1798C16.7164 14.7608 16.9414 13.853 16.522 13.1569C16.3189 12.8196 15.9966 12.5818 15.6146 12.487Z" fill="#003940"/>
</svg>
