<svg width="20" height="20" viewBox="0 0 20 20" fill="none" xmlns="http://www.w3.org/2000/svg">
<path d="M9.21347 12.4032C9.09051 12.9159 8.9611 13.4271 8.83574 13.9399C8.80199 14.0781 8.8261 14.1086 8.9579 14.1086C9.16365 14.1094 9.3686 14.1086 9.59041 14.1086C9.57836 14.1657 9.57193 14.2035 9.56309 14.2412C9.41681 14.8328 9.41842 15.0458 9.27698 15.6389C9.26331 15.6951 9.26572 15.7964 9.29626 15.8197C9.3686 15.876 9.39994 15.7836 9.43289 15.7281C9.83715 15.061 10.0903 14.7717 10.493 14.1038C10.5999 13.927 10.8265 13.5653 10.9286 13.3853C10.7188 13.3805 10.3017 13.3636 10.0911 13.3636H9.92074C9.94083 13.3041 9.95289 13.2639 9.96816 13.2254C10.063 12.973 10.1594 12.7206 10.2543 12.4667C10.3089 12.3188 10.2848 12.2778 10.1418 12.277C9.88136 12.2754 9.62096 12.2786 9.36135 12.2754C9.27857 12.2762 9.23678 12.3075 9.21347 12.4032Z" fill="#003940" stroke="#003940" stroke-width="0.25"/>
<path d="M5.45719 10.5691L5.36878 10.6985C4.7202 11.6549 4.49515 12.666 4.71296 13.7535C5.10758 15.6486 6.85973 17.0679 8.88656 17.1436C9.03766 17.1677 9.19277 17.1854 9.35431 17.1854C9.38565 17.1854 9.417 17.1854 9.44914 17.1838L9.80196 17.1733L10.1234 17.183C10.1749 17.1846 10.2247 17.1846 10.2753 17.1846C11.0614 17.1846 11.7807 17.0029 12.3618 16.6557C14.1557 15.5852 15.0864 13.4779 14.6765 11.41C14.4724 10.3756 14.0126 9.37499 13.3118 8.43711C12.8151 7.77244 12.2734 7.12948 11.7494 6.50661L11.3371 6.01636C10.9369 5.53816 10.7335 5.14997 10.6564 4.71918C10.5647 4.20481 10.8372 3.74348 11.3049 3.62293C11.3636 3.60766 11.4239 3.59721 11.4866 3.58676L11.5935 3.56747C11.698 3.54819 11.7735 3.46139 11.8089 3.36092C11.8442 3.26046 11.8121 3.13588 11.7414 3.05551C11.7229 3.03461 11.6739 2.988 11.6497 2.97353C10.6668 2.34182 9.40338 2.3595 8.42855 3.01854C7.06226 3.9428 6.77051 5.74635 7.24229 7.09482C6.4418 6.98874 5.76427 7.16796 5.18561 7.63973C5.10684 7.70402 5.06666 7.80288 5.07791 7.90333C5.08916 8.0038 5.15024 8.0922 5.24106 8.1364C5.31822 8.17498 5.39537 8.20874 5.47092 8.24249C5.60836 8.30277 5.73776 8.35983 5.83179 8.43377C6.18059 8.70863 6.26579 9.20292 6.03914 9.63613C5.87518 9.956 5.66293 10.2677 5.45719 10.5691ZM9.33739 8.77766C9.63075 8.74551 9.93373 8.81784 10.1901 8.99145C10.85 9.43832 10.9488 10.3883 10.6627 11.0112L10.5968 11.1542C10.5486 11.2603 10.5663 11.3841 10.641 11.4725C10.7165 11.5609 10.8371 11.5979 10.948 11.5657C11.2189 11.4902 11.4495 11.4725 11.6521 11.5143C11.3121 11.8293 11.2325 12.3357 11.4624 12.7745C11.5749 12.9899 11.7107 13.1884 11.8418 13.3805L11.8932 13.456C12.2115 13.9246 12.3175 14.394 12.2131 14.9172C12.0202 15.843 11.1522 16.5374 10.1492 16.5664L9.8012 16.576L8.95329 16.5511C8.72987 16.5125 8.52492 16.4434 8.35051 16.3389C7.46483 15.8101 6.98743 14.7267 7.18997 13.7043C7.29766 13.1562 7.54361 12.6225 7.91974 12.1194C8.20826 11.7328 8.52733 11.3543 8.83676 10.9878L9.08429 10.6937C9.28039 10.459 9.51669 10.1335 9.59465 9.69624C9.65895 9.3418 9.556 9.0083 9.33739 8.77766ZM6.20446 7.96592C6.13776 7.91368 6.06783 7.86948 5.99631 7.8309C6.46406 7.61711 7.00657 7.60585 7.664 7.78911C7.77491 7.81965 7.89547 7.78428 7.97102 7.69588C8.04657 7.60747 8.06425 7.48371 8.01603 7.37841L7.90672 7.14052C7.3811 5.99765 7.55952 4.32671 8.76589 3.51092C9.36383 3.10747 10.0984 3.0062 10.7583 3.21194C10.231 3.52861 9.95135 4.14907 10.0719 4.82417C10.1941 5.50812 10.5686 6.02489 10.8812 6.39942L11.2951 6.89128C11.8135 7.50692 12.3496 8.14264 12.8367 8.79445C13.4836 9.66084 13.9064 10.5803 14.0937 11.5262C14.4151 13.1529 13.7497 14.8583 12.4645 15.8549C12.6237 15.5993 12.7402 15.3148 12.8037 15.0094C12.9339 14.356 12.7941 13.7203 12.3874 13.1223L12.3351 13.0451C12.2138 12.8667 12.0908 12.6891 11.992 12.4986C11.8835 12.2913 11.9212 12.0582 12.0836 11.9296C12.1278 11.8959 12.1945 11.8653 12.2733 11.8308C12.3207 11.8099 12.3689 11.789 12.4163 11.7649C12.5063 11.7199 12.5682 11.6314 12.5787 11.531C12.5899 11.4305 12.5489 11.3317 12.471 11.2674C12.1422 10.9997 11.7661 10.88 11.3329 10.8993C11.5483 10.0731 11.3321 9.04594 10.5244 8.49943C9.90234 8.07829 9.09461 8.06703 8.47333 8.46728C8.45083 8.48095 8.401 8.52837 8.38332 8.54765C8.30938 8.62722 8.28366 8.74054 8.31742 8.84422C8.35117 8.94709 8.43797 9.02425 8.54567 9.04514L8.61318 9.0572C8.64694 9.06283 8.67909 9.06845 8.71124 9.07649C8.93225 9.13436 9.05523 9.34653 9.01181 9.59487C8.96922 9.83115 8.85589 10.0466 8.63085 10.315L8.38492 10.6075C8.07068 10.9805 7.74516 11.3662 7.44619 11.7665C7.01702 12.3419 6.73492 12.956 6.60873 13.5925C6.43192 14.4862 6.66499 15.388 7.19545 16.0808C6.23905 15.5681 5.5165 14.6768 5.29067 13.5902C5.11385 12.7013 5.30192 11.8655 5.86613 11.0353L5.95373 10.9067C6.16913 10.5908 6.39175 10.2645 6.57418 9.91489C6.93264 9.22129 6.78153 8.42083 6.20446 7.96592Z" fill="#003940" stroke="#003940" stroke-width="0.25"/>
<path d="M4.21411 4.00941C5.7733 2.45023 7.84598 1.59187 10.0506 1.59187C12.2552 1.59187 14.3287 2.45023 15.887 4.00941C15.9449 4.06727 16.0221 4.09621 16.0976 4.09621C16.1732 4.09621 16.2503 4.06727 16.3082 4.00941C16.4247 3.89287 16.4247 3.704 16.3082 3.58826C12.8571 0.137246 7.24248 0.137246 3.79126 3.58826C3.67472 3.7048 3.67472 3.89367 3.79126 4.00941C3.90941 4.12595 4.09838 4.12595 4.21411 4.00941Z" fill="#003940" stroke="#003940" stroke-width="0.25"/>
<path d="M3.29804 4.87484H4.71096C4.87572 4.87484 5.00833 4.74142 5.00833 4.57747C5.00833 4.41271 4.87491 4.2801 4.71096 4.2801H3.59622V3.16456C3.59622 2.9998 3.4628 2.86719 3.29885 2.86719C3.13409 2.86719 3.00148 3.0006 3.00148 3.16456V4.57747C2.99987 4.74143 3.13329 4.87484 3.29804 4.87484Z" fill="#003940" stroke="#003940" stroke-width="0.25"/>
<path d="M15.1831 15.9917C11.9636 19.2098 6.72645 19.209 3.50855 15.9917C3.39201 15.8752 3.20314 15.8752 3.0874 15.9917C2.97087 16.1082 2.97087 16.2971 3.0874 16.4128C4.81295 18.1384 7.07851 19.0007 9.34585 19.0007C11.6124 19.0007 13.8787 18.1376 15.6043 16.4128C15.7208 16.2963 15.7208 16.1074 15.6043 15.9917C15.4878 15.8752 15.2989 15.8752 15.1831 15.9917Z" fill="#003940" stroke="#003940" stroke-width="0.25"/>
<path d="M16.099 15.127H14.686C14.5213 15.127 14.3887 15.2604 14.3887 15.4243C14.3887 15.5891 14.5221 15.7217 14.686 15.7217H15.8008V16.8364C15.8008 17.0012 15.9342 17.1338 16.0982 17.1338C16.2629 17.1338 16.3955 17.0004 16.3955 16.8364V15.4235C16.3971 15.2604 16.2637 15.127 16.099 15.127Z" fill="#003940" stroke="#003940" stroke-width="0.25"/>
</svg>
