<svg width="20" height="20" viewBox="0 0 20 20" fill="none" xmlns="http://www.w3.org/2000/svg">
<g clip-path="url(#clip0_669_9280)">
<path d="M14.7456 18.5472L14.6991 18.512L14.6456 18.5351C14.4965 18.5995 14.3324 18.6307 14.1592 18.6307V18.7307V18.8307H14.8224H15.1203L14.8827 18.6509L14.7456 18.5472Z" fill="#003940" stroke="#003940" stroke-width="0.2"/>
<path d="M14.9945 18.5029L14.9944 18.5028L14.8573 18.3992C14.8573 18.3992 14.8573 18.3992 14.8573 18.3991C14.7748 18.3368 14.6656 18.3242 14.5719 18.365L14.6117 18.4567L14.5721 18.3649C14.4502 18.4175 14.3116 18.4451 14.1591 18.4451C14.0015 18.4451 13.8739 18.5728 13.8739 18.7304C13.8739 18.888 14.0015 19.0156 14.1591 19.0156H14.8223C14.9449 19.0156 15.0536 18.9373 15.0926 18.8212L15.0926 18.8211C15.1315 18.7049 15.0921 18.5768 14.9945 18.5029Z" fill="#003940" stroke="#003940" stroke-width="0.2"/>
<path d="M14.6119 18.4594C14.7056 18.4189 14.8145 18.462 14.8554 18.556L14.7985 18.8913M14.6119 18.4594L14.5723 18.3676M14.6119 18.4594L14.5722 18.3677C14.5723 18.3676 14.5723 18.3676 14.5723 18.3676M14.6119 18.4594C14.4763 18.518 14.3239 18.5479 14.1593 18.5479H2.65957C1.94863 18.5479 1.37048 17.9696 1.37048 17.2586V2.6579C1.37048 1.94914 1.94863 1.37243 2.65957 1.37243L14.5723 18.3676M14.5723 18.3676C14.7168 18.3052 14.8843 18.3717 14.9471 18.5162L14.9472 18.5164C15.0095 18.6608 14.9434 18.8288 14.7985 18.8913M14.5723 18.3676C14.4504 18.4203 14.3118 18.4479 14.1593 18.4479H2.65957C2.00388 18.4479 1.47048 17.9144 1.47048 17.2586V2.6579C1.47048 2.00463 2.00361 1.47243 2.65957 1.47243H12.0557M14.5723 18.3676L12.0557 1.47243M14.7985 18.8913L14.7589 18.7998L14.7984 18.8914C14.7984 18.8913 14.7985 18.8913 14.7985 18.8913ZM12.0557 1.47243L15.3488 4.76555L12.0557 1.47243Z" fill="#003940" stroke="#003940" stroke-width="0.2"/>
<path d="M12.1275 0.98348L12.1277 0.983637L12.1277 0.983638L15.5074 4.36702C15.5075 4.36705 15.5075 4.36708 15.5075 4.36712L12.1275 0.98348ZM12.1275 0.98348C12.0459 0.902179 11.9234 0.877415 11.8167 0.921786M12.1275 0.98348L15.5695 4.67787C15.5254 4.78477 15.4211 4.85406 15.3059 4.85406H12.4835C12.0183 4.85406 11.6407 4.4742 11.6407 4.00785V1.18528C11.6407 1.07 11.7103 0.965874 11.8167 0.921786M11.8167 0.921786C11.8167 0.9218 11.8167 0.921815 11.8166 0.921829L11.8551 1.01415L11.8168 0.921743C11.8168 0.921758 11.8168 0.921772 11.8167 0.921786ZM12.2112 4.00785V1.87443L14.6178 4.28358H12.4835C12.3344 4.28358 12.2112 4.1606 12.2112 4.00785Z" fill="#003940" stroke="#003940" stroke-width="0.2"/>
<path d="M2.76639 4.52882L2.76639 4.52882L2.76562 4.5292C2.58013 4.62195 2.46323 4.80774 2.46323 5.01409V5.59206C2.46323 5.88911 2.70677 6.12912 3.00426 6.12912H10.5843C10.8805 6.12912 11.1213 5.88825 11.1213 5.59206V5.01409C11.1213 4.81009 11.0074 4.62541 10.823 4.52925L10.823 4.52922L10.8206 4.52806L7.03329 2.67886C6.88157 2.59921 6.70038 2.59908 6.55277 2.67632L2.76639 4.52882ZM3.03371 5.03318L6.79044 3.19497L10.5509 5.0312V5.55863H3.03371V5.03318Z" fill="#003940" stroke="#003940" stroke-width="0.2"/>
<path d="M3.44525 10.3484H4.71878C4.8764 10.3484 5.00402 10.2207 5.00402 10.0631V5.84149C5.00402 5.68387 4.8764 5.55625 4.71878 5.55625H3.44525C3.28763 5.55625 3.16001 5.68387 3.16001 5.84149V10.0631C3.16001 10.2207 3.28763 10.3484 3.44525 10.3484ZM4.43354 6.12673V9.77789H3.73049V6.12673H4.43354Z" fill="#003940" stroke="#003940" stroke-width="0.2"/>
<path d="M6.15643 10.3484H7.42996C7.58758 10.3484 7.7152 10.2207 7.7152 10.0631V5.84149C7.7152 5.68387 7.58758 5.55625 7.42996 5.55625H6.15643C5.99881 5.55625 5.87119 5.68387 5.87119 5.84149V10.0631C5.87119 10.2207 5.99881 10.3484 6.15643 10.3484ZM7.14472 6.12673V9.77789H6.44167V6.12673H7.14472Z" fill="#003940" stroke="#003940" stroke-width="0.2"/>
<path d="M8.86713 10.3484H10.1407C10.2983 10.3484 10.4259 10.2207 10.4259 10.0631V5.84149C10.4259 5.68387 10.2983 5.55625 10.1407 5.55625H8.86713C8.70951 5.55625 8.58188 5.68387 8.58188 5.84149V10.0631C8.58188 10.2207 8.70951 10.3484 8.86713 10.3484ZM9.85541 6.12673V9.77789H9.15237V6.12673H9.85541Z" fill="#003940" stroke="#003940" stroke-width="0.2"/>
<path d="M3.1005 11.5056H10.4881C10.8375 11.5056 11.1214 11.2215 11.1213 10.8721V10.4163C11.1213 10.067 10.8375 9.78281 10.4881 9.78281H3.1005C2.74962 9.78281 2.46323 10.0663 2.46323 10.4163V10.8721C2.46323 11.2222 2.74962 11.5056 3.1005 11.5056ZM3.03371 10.4163C3.03371 10.3838 3.06161 10.3533 3.1005 10.3533H10.4881C10.5225 10.3533 10.5509 10.3815 10.5509 10.4163V10.8721C10.5509 10.9069 10.5225 10.9351 10.4881 10.9351H3.1005C3.06161 10.9351 3.03371 10.9046 3.03371 10.8721V10.4163Z" fill="#003940" stroke="#003940" stroke-width="0.2"/>
<path d="M5.82822 4.67116C5.82822 5.20307 6.26086 5.63549 6.79256 5.63549C7.3246 5.63549 7.75726 5.2031 7.75726 4.67116C7.75726 4.13925 7.32462 3.70664 6.79256 3.70664C6.26083 3.70664 5.82822 4.13927 5.82822 4.67116ZM6.3987 4.67116C6.3987 4.4539 6.5754 4.27712 6.79256 4.27712C7.00981 4.27712 7.18678 4.454 7.18678 4.67116C7.18678 4.88811 7.00984 5.06501 6.79256 5.06501C6.57538 5.06501 6.3987 4.88821 6.3987 4.67116Z" fill="#003940" stroke="#003940" stroke-width="0.2"/>
<path d="M5.27142 13.5857H11.9549C12.1125 13.5857 12.2402 13.4581 12.2402 13.3005C12.2402 13.1429 12.1125 13.0152 11.9549 13.0152H5.27142C5.1138 13.0152 4.98618 13.1429 4.98618 13.3005C4.98618 13.4581 5.1138 13.5857 5.27142 13.5857Z" fill="#003940" stroke="#003940" stroke-width="0.2"/>
<path d="M2.6557 13.5838H4.36918C4.52679 13.5838 4.65442 13.4561 4.65442 13.2985C4.65442 13.1409 4.52679 13.0133 4.36918 13.0133H2.6557C2.49808 13.0133 2.37046 13.1409 2.37046 13.2985C2.37046 13.4561 2.49808 13.5838 2.6557 13.5838Z" fill="#003940" stroke="#003940" stroke-width="0.2"/>
<path d="M9.50262 15.2049H12.0736C12.2312 15.2049 12.3588 15.0772 12.3588 14.9196C12.3588 14.762 12.2312 14.6344 12.0736 14.6344H9.50262C9.34501 14.6344 9.21738 14.762 9.21738 14.9196C9.21738 15.0772 9.34501 15.2049 9.50262 15.2049Z" fill="#003940" stroke="#003940" stroke-width="0.2"/>
<path d="M2.65594 15.2049H8.42156C8.57918 15.2049 8.7068 15.0772 8.7068 14.9196C8.7068 14.762 8.57918 14.6344 8.42156 14.6344H2.65594C2.49833 14.6344 2.3707 14.762 2.3707 14.9196C2.3707 15.0772 2.49833 15.2049 2.65594 15.2049Z" fill="#003940" stroke="#003940" stroke-width="0.2"/>
<path d="M2.65594 16.826H9.34776C9.50538 16.826 9.633 16.6983 9.633 16.5407C9.633 16.3831 9.50538 16.2555 9.34776 16.2555H2.65594C2.49833 16.2555 2.3707 16.3831 2.3707 16.5407C2.3707 16.6983 2.49833 16.826 2.65594 16.826Z" fill="#003940" stroke="#003940" stroke-width="0.2"/>
<path d="M15.5247 11.5368C15.5363 11.5418 15.548 11.5457 15.5595 11.5488L18.256 12.6413C18.256 12.6413 18.2561 12.6413 18.2562 12.6414C18.4325 12.7139 18.5417 12.89 18.5281 13.0798L18.2872 16.3954L18.2872 16.3956C18.2784 16.5191 18.2164 16.6347 18.1172 16.7116C18.1172 16.7116 18.1171 16.7117 18.117 16.7118L15.6434 18.5965C15.6433 18.5966 15.6433 18.5966 15.6432 18.5966C15.4862 18.7157 15.2669 18.7152 15.1112 18.5978C15.1112 18.5978 15.1111 18.5977 15.111 18.5977L12.6386 16.7108L12.6383 16.7106C12.5371 16.634 12.4744 16.5189 12.4656 16.3954L12.4656 16.3952L12.225 13.0794L12.225 13.0793C12.2112 12.8901 12.3209 12.7142 12.4993 12.6418L12.4993 12.6418L15.2121 11.5412L15.2126 11.541C15.2667 11.5187 15.3222 11.5079 15.3764 11.5079C15.4272 11.5079 15.4774 11.5175 15.5247 11.5368ZM15.5247 11.5368C15.5242 11.5366 15.5238 11.5364 15.5234 11.5362L15.5634 11.4446L15.5256 11.5371C15.5253 11.537 15.525 11.5369 15.5247 11.5368ZM14.7651 19.0511L14.7653 19.0513L18.7567 16.4293L18.8564 16.4365L18.8564 16.4364L19.0974 13.1203L19.0974 13.1201C19.1283 12.6844 18.8772 12.2798 18.4724 12.1133L18.4719 12.1131L15.7558 11.0129L15.6628 10.9752L15.6608 10.9802C15.4444 10.9131 15.2114 10.9247 14.9963 11.013C14.9963 11.013 14.9962 11.013 14.9961 11.0131L12.2852 12.1131C11.8777 12.2784 11.6244 12.6832 11.6558 13.1205L11.6558 13.1206L11.8964 16.4363C11.8964 16.4363 11.8964 16.4363 11.8964 16.4363C11.9173 16.7245 12.0623 16.9904 12.2935 17.165C12.2935 17.1651 12.2936 17.1651 12.2937 17.1652L14.7651 19.0511Z" fill="#003940" stroke="#003940" stroke-width="0.2"/>
<path d="M13.0948 16.5169L13.0948 16.5169L15.0369 17.997C15.1367 18.0731 15.2562 18.1112 15.3758 18.1112C15.4949 18.1112 15.6144 18.0734 15.7142 17.9974L15.7142 17.9974L17.66 16.5164L17.6601 16.5163C17.7871 16.4193 17.8667 16.2722 17.8786 16.1125L17.8786 16.1123L18.0754 13.3892C18.0754 13.3892 18.0754 13.3892 18.0754 13.3892C18.093 13.1468 17.9532 12.9222 17.7283 12.8306L17.7282 12.8306L15.5856 11.9608L15.5856 11.9608C15.4501 11.9058 15.3008 11.9058 15.1653 11.9608L15.1652 11.9608L13.0259 12.8304L13.0259 12.8304C12.8009 12.922 12.6615 13.1464 12.6791 13.3885C12.6791 13.3885 12.6791 13.3885 12.6791 13.3885L12.8759 16.1132L12.8759 16.1134C12.8878 16.2727 12.9675 16.4198 13.0948 16.5169ZM15.3756 12.4913L17.5056 13.3561L17.3097 16.0661L15.3756 17.5382L13.4448 16.0666L13.2489 13.3556L15.3756 12.4913Z" fill="#003940" stroke="#003940" stroke-width="0.2"/>
<path d="M16.0949 13.966L16.0949 13.966L15.1359 14.9251L14.885 14.6742C14.7736 14.5628 14.593 14.5628 14.4816 14.6742C14.3702 14.7856 14.3702 14.9662 14.4816 15.0776L14.9342 15.5302C14.9877 15.5836 15.0601 15.6137 15.1359 15.6137C15.2117 15.6137 15.2841 15.5836 15.3376 15.5302L15.3376 15.5302L16.4982 14.3693C16.4982 14.3693 16.4982 14.3693 16.4982 14.3693C16.6096 14.2579 16.6096 14.0774 16.4982 13.966C16.3868 13.8546 16.2063 13.8546 16.0949 13.966Z" fill="#003940" stroke="#003940" stroke-width="0.2"/>
</g>
<defs>
<clipPath id="clip0_669_9280">
<rect width="20" height="20" fill="white"/>
</clipPath>
</defs>
</svg>
