<svg width="20" height="20" viewBox="0 0 20 20" fill="none" xmlns="http://www.w3.org/2000/svg">
<g clip-path="url(#clip0_631_9916)">
<path d="M13.2601 13.4945L12.6905 13.8037C12.6103 13.8474 12.5612 13.9238 12.5612 14.0057V19.7616C12.5612 19.8929 12.683 20 12.8348 20C12.9865 20 13.1084 19.8929 13.1084 19.7616V14.1378L13.5487 13.8994C14.4571 13.4069 15 12.5558 15 11.6229V9.36685C15 9.01582 14.8386 8.69739 14.5768 8.46461V6.80167C14.5768 6.12756 13.9473 5.58007 13.1746 5.58007C12.823 5.58007 12.5045 5.69739 12.2587 5.88453C12.0899 5.37523 11.5555 5 10.9175 5C10.4654 5 10.0668 5.18994 9.81028 5.48044C9.56981 5.19088 9.18186 5 8.74157 5C8.08325 5 7.5243 5.37523 7.33087 5.89385C7.08293 5.70111 6.76019 5.581 6.40216 5.581C5.62841 5.581 5 6.12942 5 6.8026V8.44318C5 8.878 5.26504 9.25883 5.65832 9.47483V10.4534C5.65832 11.2393 6.05374 11.9814 6.74415 12.4879L7.13638 12.7765V19.7616C7.13638 19.8929 7.25821 20 7.40997 20C7.56173 20 7.68356 19.8929 7.68356 19.7616V12.6649C7.68356 12.5942 7.64829 12.5281 7.58631 12.4825L7.09682 12.1231C6.5304 11.7069 6.20551 11.0979 6.20551 10.4527V9.64728C6.2707 9.65566 6.33483 9.66497 6.40216 9.66497C6.78688 9.66497 7.13637 9.52903 7.38966 9.30929C7.60234 9.69662 8.05334 9.96664 8.57809 9.96664H8.74161C9.18193 9.96664 9.57092 9.77576 9.81032 9.4862C9.82848 9.50668 9.84559 9.5281 9.86482 9.54765C9.96742 10.1733 10.5841 10.6556 11.33 10.6556H11.6058C11.5652 10.8381 11.4936 11.0849 11.3739 11.2944C11.3065 11.4117 11.361 11.5551 11.4957 11.6147C11.5352 11.6314 11.5769 11.6398 11.6175 11.6398C11.718 11.6398 11.8142 11.5914 11.8623 11.5076C12.0322 11.2124 12.1198 10.8717 12.1615 10.6557H12.309C12.4608 10.6557 12.5826 10.5486 12.5826 10.4173C12.5826 10.286 12.4608 10.1789 12.309 10.1789H11.329C10.8139 10.1789 10.3949 9.81397 10.3949 9.36516C10.3949 8.91637 10.8138 8.55137 11.329 8.55137H13.5135C14.0307 8.55137 14.4518 8.91823 14.4518 9.36888V11.6249C14.4539 12.3893 14.0071 13.0895 13.2601 13.4945ZM6.40333 9.18833C5.93201 9.18833 5.54835 8.85408 5.54835 8.44345V6.80287C5.54835 6.39225 5.93201 6.05799 6.40333 6.05799C6.87465 6.05799 7.2583 6.39225 7.2583 6.80287V8.44345C7.2583 8.85408 6.87465 9.18833 6.40333 9.18833ZM9.51544 8.81589C9.51544 9.1874 9.16812 9.49 8.7417 9.49H8.57818C8.15176 9.49 7.80443 9.1874 7.80443 8.81589V6.29357C7.80443 5.84385 8.22445 5.47699 8.74064 5.47699C9.16706 5.47699 9.51439 5.77959 9.51439 6.1511V8.74422L9.51544 8.81589ZM10.0626 8.70044V6.22197C10.0626 5.81134 10.4463 5.47709 10.9176 5.47709C11.3889 5.47709 11.7726 5.81134 11.7726 6.22197V8.07298H11.3301C10.7926 8.07298 10.3223 8.32521 10.0626 8.70044ZM12.3198 8.07288V6.80194C12.3198 6.39132 12.7034 6.05707 13.1747 6.05707C13.6461 6.05707 14.0297 6.39132 14.0297 6.80194V8.15483C13.8694 8.10269 13.6952 8.07289 13.5146 8.07289L12.3198 8.07382V8.07288Z" fill="#003940" stroke="#003940" stroke-width="0.5"/>
<path d="M9.77515 1.22524V3.21015C9.77515 3.33421 9.87534 3.43539 10.0001 3.43539C10.125 3.43539 10.2251 3.33421 10.2251 3.21015V1.22524C10.2251 1.10118 10.125 1 10.0001 1C9.87534 1 9.77515 1.10118 9.77515 1.22524Z" fill="#003940" stroke="#003940" stroke-width="0.5"/>
<path d="M5.49983 2.20616C5.3926 2.26862 5.35569 2.40588 5.41721 2.5141L6.40861 4.2333C6.45079 4.30544 6.52638 4.34592 6.60372 4.34592C6.6424 4.34592 6.68107 4.33624 6.71622 4.316C6.82345 4.25354 6.86036 4.11628 6.79884 4.00806L5.80745 2.28886C5.74504 2.18064 5.60706 2.14369 5.49983 2.20616Z" fill="#003940" stroke="#003940" stroke-width="0.5"/>
<path d="M4.31286 6.72295C4.37526 6.61561 4.33835 6.47749 4.23112 6.41501L2.51374 5.42256C2.40564 5.36097 2.26764 5.39705 2.20612 5.50527C2.14372 5.61261 2.18064 5.75073 2.28874 5.81321L4.00612 6.80566C4.04128 6.82589 4.07995 6.83557 4.11862 6.83557C4.19596 6.83557 4.27155 6.7951 4.31286 6.72295Z" fill="#003940" stroke="#003940" stroke-width="0.5"/>
<path d="M1.225 10.2356H3.20781C3.33262 10.2356 3.43281 10.1345 3.43281 10.0104C3.43281 9.88634 3.33262 9.78516 3.20781 9.78516H1.225C1.10019 9.78516 1 9.88634 1 10.0104C1 10.1345 1.10019 10.2356 1.225 10.2356Z" fill="#003940" stroke="#003940" stroke-width="0.5"/>
<path d="M2.20567 14.514C2.24786 14.5861 2.32344 14.6266 2.40079 14.6266C2.43946 14.6266 2.47813 14.6169 2.51329 14.5967L4.23067 13.6042C4.33789 13.5418 4.37481 13.4036 4.3124 13.2963C4.25 13.1881 4.11201 13.152 4.00478 13.2136L2.2874 14.206C2.18018 14.2685 2.14327 14.4066 2.20567 14.514Z" fill="#003940" stroke="#003940" stroke-width="0.5"/>
<path d="M17.7944 14.5144C17.8568 14.407 17.8198 14.2689 17.7117 14.2064L15.9944 13.214C15.8871 13.1515 15.7492 13.1885 15.6867 13.2967C15.6252 13.404 15.6621 13.5421 15.7694 13.6046L17.4867 14.5971C17.5228 14.6173 17.5614 14.627 17.5992 14.627C17.6775 14.627 17.7531 14.5865 17.7944 14.5144Z" fill="#003940" stroke="#003940" stroke-width="0.5"/>
<path d="M19 10.0104C19 9.88634 18.8998 9.78516 18.775 9.78516H16.7921C16.6673 9.78516 16.5671 9.88634 16.5671 10.0104C16.5671 10.1345 16.6673 10.2356 16.7921 10.2356H18.775C18.8998 10.2356 19 10.1345 19 10.0104Z" fill="#003940" stroke="#003940" stroke-width="0.5"/>
<path d="M17.4865 5.42256L15.7691 6.415C15.6619 6.47747 15.625 6.61561 15.6874 6.72295C15.7295 6.7951 15.8051 6.83557 15.8825 6.83557C15.9211 6.83557 15.9598 6.82589 15.995 6.80566L17.7124 5.81321C17.8196 5.75074 17.8565 5.61261 17.7941 5.50527C17.7317 5.39705 17.5937 5.36097 17.4865 5.42256Z" fill="#003940" stroke="#003940" stroke-width="0.5"/>
<path d="M14.5 2.20616C14.3928 2.14369 14.2548 2.18064 14.1924 2.28886L13.201 4.00806C13.1386 4.1154 13.1755 4.25352 13.2836 4.316C13.3188 4.33624 13.3574 4.34592 13.3961 4.34592C13.4735 4.34592 13.549 4.30544 13.5912 4.2333L14.5826 2.5141C14.6442 2.40588 14.6072 2.26864 14.5 2.20616Z" fill="#003940" stroke="#003940" stroke-width="0.5"/>
</g>
<defs>
<clipPath id="clip0_631_9916">
<rect width="20" height="20" fill="white"/>
</clipPath>
</defs>
</svg>
