<svg width="60" height="60" viewBox="0 0 60 60" fill="none" xmlns="http://www.w3.org/2000/svg">
<rect x="0.5" y="0.5" width="59" height="59" rx="29.5" fill="#47B881" fill-opacity="0.5"/>
<rect x="0.5" y="0.5" width="59" height="59" rx="29.5" stroke="#4D7479"/>
<path d="M30.7074 29.8052C30.7974 29.6252 31.016 29.552 31.196 29.642C31.376 29.732 31.4492 29.9507 31.3592 30.1307C31.3542 30.1398 29.7125 33.3398 30.6539 39.3184C30.6849 39.5174 30.5485 39.7038 30.3495 39.7347C30.1505 39.7649 29.9642 39.6292 29.9339 39.4302C28.9559 33.2202 30.7025 29.815 30.7074 29.8052Z" fill="#003940"/>
<path d="M28.6416 30.1307C28.5516 29.9507 28.6247 29.732 28.804 29.642C28.984 29.552 29.2027 29.6252 29.2927 29.8052C29.2962 29.8108 30.3333 31.8344 30.3635 35.5877C30.3656 35.7895 30.2032 35.954 30.0021 35.9554C29.801 35.9568 29.6365 35.7951 29.6351 35.594C29.6055 32.0109 28.6437 30.1363 28.6416 30.1307Z" fill="#003940"/>
<path d="M32.714 32.7851C32.5164 32.7478 32.3857 32.5572 32.4229 32.359C32.4595 32.1614 32.65 32.0306 32.8483 32.0679C35.1475 32.5059 37.1423 33.4622 38.5549 34.7447C39.9632 36.0229 40.7999 37.6268 40.7999 39.374C40.7999 41.4904 39.5709 43.398 37.5853 44.7698C35.6383 46.1149 32.9559 46.9467 30 46.9467C27.044 46.9467 24.3616 46.1149 22.4146 44.7698C20.429 43.398 19.2 41.4904 19.2 39.374C19.2 37.6268 20.0367 36.0229 21.445 34.7447C22.8576 33.4622 24.8524 32.5059 27.1516 32.0679C27.3499 32.0306 27.5404 32.1614 27.577 32.359C27.6142 32.5572 27.4835 32.7478 27.2859 32.7851C25.1217 33.1971 23.2528 34.0901 21.9365 35.2847C20.6786 36.4265 19.9319 37.844 19.9319 39.374C19.9319 41.2366 21.0393 42.9333 22.8295 44.1694C24.6583 45.4329 27.1938 46.2147 30 46.2147C32.8061 46.2147 35.3416 45.4329 37.1704 44.1694C38.9606 42.9333 40.068 41.2366 40.068 39.374C40.068 37.844 39.3213 36.4265 38.0634 35.2847C36.7471 34.0901 34.8782 33.1971 32.714 32.7851Z" fill="#003940"/>
<path d="M32.6782 35.2111C32.4848 35.1548 32.3744 34.9516 32.4314 34.7583C32.4876 34.5649 32.6908 34.4545 32.8842 34.5108C34.2328 34.908 35.3817 35.5781 36.1903 36.4226C36.9961 37.2649 37.4651 38.2788 37.4651 39.3743C37.4651 40.8551 36.6101 42.1868 35.227 43.1416C33.8834 44.069 32.0348 44.6435 30 44.6435C27.9651 44.6435 26.1166 44.069 24.773 43.1416C23.3899 42.1868 22.5349 40.8551 22.5349 39.3743C22.5349 38.2788 23.0039 37.2649 23.8097 36.4226C24.6183 35.5781 25.7672 34.908 27.1158 34.5108C27.3091 34.4545 27.5123 34.5649 27.5686 34.7583C27.6255 34.9516 27.5151 35.1548 27.3218 35.2111C26.0927 35.5732 25.0556 36.1737 24.3356 36.9253C23.6599 37.6319 23.2669 38.4736 23.2669 39.3743C23.2669 40.6012 24.0009 41.7213 25.1871 42.5412C26.4133 43.3877 28.1142 43.9115 30 43.9115C31.8858 43.9115 33.5866 43.3877 34.8129 42.5412C35.9991 41.7213 36.7331 40.6012 36.7331 39.3743C36.7331 38.4736 36.3401 37.6319 35.6644 36.9253C34.9444 36.1737 33.9073 35.5732 32.6782 35.2111Z" fill="#003940"/>
<path fill-rule="evenodd" clip-rule="evenodd" d="M15.1409 18.5391C15.9741 18.1377 16.7573 17.5927 17.4534 16.9037C15.0424 15.1058 12.9696 13.8711 12.0752 13.3613C12.0591 13.5209 12.0457 13.682 12.0345 13.8444C12.012 14.1755 12 14.5159 12 14.8653C12 16.4073 12.2348 17.8951 12.6701 19.2943C13.5202 19.1698 14.3541 18.9181 15.1409 18.5391Z" fill="#003940"/>
<path fill-rule="evenodd" clip-rule="evenodd" d="M12.9541 13.0274C14.0306 13.663 15.8686 14.8091 17.9512 16.3687C18.2142 16.0607 18.4518 15.7387 18.6635 15.4054L18.6811 15.3808C18.9504 14.954 19.1789 14.5082 19.3652 14.0498C17.6643 13.3727 15.8081 13 13.8654 13C13.5539 13 13.2508 13.0098 12.9541 13.0274Z" fill="#003940"/>
<path fill-rule="evenodd" clip-rule="evenodd" d="M18.0033 17.389C17.2418 18.1505 16.3791 18.7537 15.458 19.196L15.4566 19.1967C14.6417 19.5884 13.7831 19.8555 12.9084 19.9962C13.2192 20.8427 13.6052 21.6534 14.0581 22.4198C15.2154 22.4747 16.3805 22.2968 17.4767 21.8862C18.5883 21.4706 19.6331 20.8139 20.5303 19.9167C20.6245 19.8225 20.7159 19.7269 20.8045 19.6298C19.875 18.8016 18.9406 18.0387 18.0427 17.3496C18.0293 17.363 18.0167 17.3763 18.0033 17.389Z" fill="#003940"/>
<path fill-rule="evenodd" clip-rule="evenodd" d="M18.5342 16.8116C19.4243 17.4972 20.3496 18.2537 21.2707 19.0743C21.5379 18.727 21.7749 18.3648 21.9816 17.9901C22.3374 17.3446 22.6039 16.664 22.7804 15.9658C21.9317 15.3295 21.012 14.7817 20.0361 14.3359C19.8336 14.8302 19.5868 15.3105 19.2964 15.771L19.2809 15.797C19.058 16.1479 18.8091 16.4875 18.5342 16.8116Z" fill="#003940"/>
<path fill-rule="evenodd" clip-rule="evenodd" d="M22.6214 18.342C22.3873 18.7666 22.1187 19.1766 21.8142 19.5668C22.6734 20.3578 23.5228 21.203 24.3321 22.0973C24.5852 21.7669 24.8102 21.4237 25.0071 21.0694C25.3699 20.419 25.6413 19.7299 25.8213 19.0219C25.384 18.4327 24.9044 17.8765 24.3862 17.3583C24.0719 17.044 23.7436 16.7438 23.4026 16.459C23.2141 17.108 22.9533 17.7401 22.6214 18.342Z" fill="#003940"/>
<path fill-rule="evenodd" clip-rule="evenodd" d="M23.8631 22.6584C23.0573 21.7612 22.2072 20.9132 21.3466 20.1201C21.2503 20.2263 21.1504 20.3311 21.0478 20.433C20.0775 21.404 18.9426 22.1163 17.7311 22.5691C16.6982 22.9558 15.6112 23.152 14.5242 23.1597C15.0635 23.9606 15.678 24.7059 16.3579 25.3858C16.3621 25.39 16.3657 25.3943 16.3699 25.3978C17.6531 25.5686 18.9686 25.4491 20.2089 25.0392C21.4387 24.6328 22.5953 23.9395 23.5748 22.9607C23.6739 22.8616 23.7696 22.7604 23.8631 22.6584Z" fill="#003940"/>
<path fill-rule="evenodd" clip-rule="evenodd" d="M24.0924 23.4784C23.03 24.5408 21.7742 25.2932 20.4376 25.7347C19.4026 26.0771 18.3198 26.2325 17.2405 26.2016C18.3451 27.1417 19.5882 27.9229 20.9354 28.5114C21.9739 28.465 23.0068 28.2308 23.9778 27.8089C24.8975 27.4096 25.7624 26.8386 26.5252 26.0982C25.872 25.0928 25.1352 24.1288 24.3484 23.2119C24.2654 23.3019 24.1796 23.3912 24.0924 23.4784Z" fill="#003940"/>
<path fill-rule="evenodd" clip-rule="evenodd" d="M24.8242 22.6543C25.6216 23.5754 26.3697 24.5443 27.0391 25.5561C27.2148 25.3529 27.3794 25.1447 27.5327 24.9303C27.7837 24.5801 28.0037 24.2194 28.1922 23.8517C27.7844 22.3969 27.1607 21.0321 26.3577 19.7939C26.1749 20.3529 25.9373 20.8993 25.6448 21.4238C25.4071 21.8506 25.1336 22.2626 24.8242 22.6543Z" fill="#003940"/>
<path fill-rule="evenodd" clip-rule="evenodd" d="M28.1275 25.3561C27.9193 25.6458 27.6929 25.9264 27.4482 26.1964C27.9285 26.9754 28.3595 27.7791 28.7272 28.6032C28.7385 28.3662 28.7441 28.125 28.7441 27.8796C28.7441 26.8538 28.64 25.8525 28.4425 24.8857C28.3426 25.0461 28.2371 25.2028 28.1275 25.3561Z" fill="#003940"/>
<path fill-rule="evenodd" clip-rule="evenodd" d="M28.3806 29.6695C27.989 28.6591 27.494 27.6776 26.9223 26.7305C26.1243 27.4793 25.2243 28.0622 24.2687 28.4777C23.6676 28.7386 23.0439 28.9341 22.4097 29.062C23.8201 29.5064 25.322 29.7455 26.8794 29.7455V29.7441C27.2162 29.7441 27.5432 29.7335 27.8603 29.7124C28.0361 29.7012 28.2097 29.6864 28.3806 29.6695Z" fill="#003940"/>
<path fill-rule="evenodd" clip-rule="evenodd" d="M31.5575 24.8857C31.3599 25.8525 31.2559 26.8538 31.2559 27.8796C31.2559 28.125 31.2622 28.3662 31.2734 28.6032C31.6405 27.7791 32.0715 26.9754 32.5517 26.1964C32.307 25.9264 32.0806 25.6458 31.8732 25.3561C31.7628 25.2028 31.6573 25.0461 31.5575 24.8857Z" fill="#003940"/>
<path fill-rule="evenodd" clip-rule="evenodd" d="M31.8076 23.8517C31.9961 24.2194 32.2161 24.5801 32.4671 24.9303C32.6204 25.1447 32.785 25.3529 32.9607 25.5561C33.6301 24.5443 34.3789 23.5754 35.1756 22.6543C34.8662 22.2626 34.5927 21.8506 34.355 21.4238C34.0625 20.8993 33.8256 20.3529 33.6421 19.7939C32.8398 21.0321 32.2154 22.3969 31.8076 23.8517Z" fill="#003940"/>
<path fill-rule="evenodd" clip-rule="evenodd" d="M34.1787 19.0219C34.3587 19.7299 34.6301 20.419 34.9929 21.0694C35.1898 21.4237 35.4155 21.7676 35.6679 22.0973C36.4772 21.203 37.3266 20.3578 38.1858 19.5668C37.8821 19.1766 37.6128 18.7666 37.3786 18.342C37.0468 17.7401 36.7866 17.108 36.5975 16.459C36.2564 16.7438 35.9281 17.044 35.6138 17.3583C35.0956 17.8765 34.6161 18.4327 34.1787 19.0219Z" fill="#003940"/>
<path fill-rule="evenodd" clip-rule="evenodd" d="M37.2197 15.9658C37.3962 16.664 37.6627 17.3446 38.0192 17.9901C38.2252 18.3648 38.4622 18.727 38.7293 19.0743C39.6511 18.2537 40.5757 17.4972 41.4659 16.8116C41.1931 16.4882 40.9442 16.1493 40.7206 15.797C40.4225 15.3287 40.1707 14.8394 39.9647 14.3359C38.9881 14.7817 38.0691 15.3295 37.2197 15.9658Z" fill="#003940"/>
<path fill-rule="evenodd" clip-rule="evenodd" d="M40.6348 14.0498C40.8253 14.5173 41.0588 14.9709 41.3351 15.4054C41.546 15.738 41.7844 16.06 42.0487 16.3694C44.1314 14.8098 45.9694 13.663 47.0459 13.0274C46.7498 13.0098 46.4461 13 46.1353 13C44.1919 13 42.3363 13.3727 40.6348 14.0498Z" fill="#003940"/>
<path fill-rule="evenodd" clip-rule="evenodd" d="M47.9248 13.3613C47.0305 13.8711 44.9576 15.1058 42.5466 16.9037C43.2427 17.5927 44.026 18.1377 44.8592 18.5398C45.646 18.9181 46.4806 19.1698 47.33 19.2943C47.7652 17.8951 48.0001 16.4073 48.0001 14.8653C48.0001 14.5159 47.9888 14.1755 47.9656 13.8451C47.9544 13.682 47.941 13.5209 47.9248 13.3613Z" fill="#003940"/>
<path fill-rule="evenodd" clip-rule="evenodd" d="M44.5421 19.1967C43.621 18.7537 42.7583 18.1505 41.9968 17.389C41.9841 17.3763 41.9708 17.363 41.9574 17.3496C41.0595 18.0387 40.1251 18.8016 39.1956 19.6298C39.2842 19.7269 39.3756 19.8225 39.4698 19.9167C40.3677 20.8139 41.4118 21.4706 42.5234 21.8862C43.6203 22.2968 44.7854 22.4747 45.9427 22.4198C46.3949 21.6534 46.7809 20.8427 47.0917 19.9962C46.2177 19.8555 45.3584 19.5884 44.5435 19.1967H44.5421Z" fill="#003940"/>
<path fill-rule="evenodd" clip-rule="evenodd" d="M42.2689 22.5691C41.0574 22.1163 39.9233 21.404 38.9523 20.433C38.8496 20.3311 38.7505 20.2263 38.6534 20.1201C37.7928 20.9132 36.9434 21.7612 36.137 22.6584C36.2305 22.7604 36.3261 22.8616 36.4252 22.9607C37.4047 23.9395 38.5613 24.6328 39.7911 25.0392C41.0314 25.4491 42.347 25.5686 43.6302 25.3978C43.6344 25.3943 43.6386 25.39 43.6421 25.3858C44.3227 24.7059 44.9373 23.9599 45.4759 23.1597C44.3888 23.152 43.3018 22.9558 42.2689 22.5691Z" fill="#003940"/>
<path fill-rule="evenodd" clip-rule="evenodd" d="M39.5625 25.7347C38.2259 25.2932 36.9701 24.5408 35.9077 23.4784C35.8205 23.3912 35.7347 23.3019 35.6517 23.2119C34.8649 24.1288 34.1281 25.0928 33.4749 26.0982C34.2377 26.8386 35.1033 27.4096 36.023 27.8089C36.9933 28.2308 38.0262 28.465 39.0647 28.5114C40.4119 27.9229 41.655 27.1417 42.7596 26.2016C41.681 26.2325 40.5975 26.0771 39.5625 25.7347Z" fill="#003940"/>
<path fill-rule="evenodd" clip-rule="evenodd" d="M35.7313 28.4777C34.7757 28.0622 33.8757 27.4793 33.0784 26.7305C32.506 27.6776 32.011 28.6591 31.6194 29.6695C31.7909 29.6864 31.9646 29.7012 32.1404 29.7124C32.4568 29.7335 32.7845 29.7441 33.1213 29.7441V29.7455C34.678 29.7455 36.1799 29.5064 37.591 29.062C36.9561 28.9341 36.3324 28.7386 35.7313 28.4777Z" fill="#003940"/>
</svg>
