<svg width="60" height="60" viewBox="0 0 60 60" fill="none" xmlns="http://www.w3.org/2000/svg">
<rect x="0.5" y="0.5" width="59" height="59" rx="29.5" fill="#F7A47A"/>
<rect x="0.5" y="0.5" width="59" height="59" rx="29.5" stroke="#F26721"/>
<path d="M30.7267 41.2346C29.9098 41.2346 29.1263 40.9101 28.5487 40.3325C27.971 39.7548 27.6465 38.9713 27.6465 38.1544C27.6465 37.3375 27.971 36.554 28.5487 35.9764C29.1263 35.3987 29.9098 35.0742 30.7267 35.0742C32.4278 35.0742 38.9406 38.1544 38.9406 38.1544C38.9406 38.1544 32.4278 41.2346 30.7267 41.2346Z" fill="#F26721"/>
<path d="M18.8323 21.7068C18.6865 21.7061 18.5448 21.6579 18.4288 21.5693L16.4748 20.1047C16.4396 20.0782 16.3967 20.0638 16.3526 20.0638C16.3085 20.0638 16.2656 20.0782 16.2303 20.1047L14.2763 21.5698C14.1603 21.6582 14.0187 21.7063 13.8728 21.7068C13.7666 21.7062 13.6619 21.6809 13.5672 21.6329C13.4724 21.5849 13.3901 21.5155 13.3269 21.4301C13.2642 21.3461 13.2223 21.2485 13.2046 21.1452C13.1869 21.042 13.1938 20.936 13.2249 20.8359L13.9886 18.2922C14.0004 18.2533 14.0003 18.2117 13.9881 18.1729C13.976 18.134 13.9525 18.0997 13.9206 18.0744L12.2552 16.7417C12.146 16.6544 12.0667 16.5353 12.0281 16.401C11.9896 16.2666 11.9937 16.1236 12.0399 15.9917C12.0861 15.8598 12.1721 15.7455 12.2861 15.6645C12.4001 15.5836 12.5364 15.5401 12.6762 15.54H14.5842C14.6241 15.54 14.6632 15.5283 14.6965 15.5063C14.7298 15.4843 14.756 15.453 14.7717 15.4164L15.7322 13.1746C15.7842 13.0532 15.8707 12.9498 15.981 12.8771C16.0913 12.8044 16.2205 12.7656 16.3526 12.7656C16.4847 12.7656 16.6138 12.8044 16.7241 12.8771C16.8344 12.9498 16.9209 13.0532 16.973 13.1746L17.9334 15.4159C17.9491 15.4527 17.9752 15.4841 18.0085 15.5062C18.0419 15.5282 18.081 15.54 18.1209 15.54H20.029C20.1688 15.5401 20.3051 15.5836 20.4191 15.6645C20.533 15.7455 20.6191 15.8598 20.6653 15.9917C20.7115 16.1236 20.7156 16.2666 20.677 16.401C20.6385 16.5353 20.5591 16.6544 20.45 16.7417L18.7855 18.074C18.7534 18.0992 18.7296 18.1335 18.7173 18.1724C18.705 18.2114 18.7047 18.2531 18.7166 18.2922L19.4804 20.8359C19.5114 20.936 19.5183 21.042 19.5006 21.1452C19.4829 21.2485 19.441 21.3461 19.3783 21.4301C19.3151 21.5155 19.2328 21.5849 19.138 21.6329C19.0433 21.6809 18.9386 21.7062 18.8323 21.7068Z" fill="#F26721"/>
<path d="M46.1263 21.7068C45.9804 21.7061 45.8387 21.6579 45.7228 21.5693L43.7688 20.1047C43.7335 20.0782 43.6906 20.0638 43.6465 20.0638C43.6024 20.0638 43.5595 20.0782 43.5243 20.1047L41.5703 21.5698C41.4543 21.6582 41.3126 21.7063 41.1668 21.7068C41.0605 21.7062 40.9559 21.6809 40.8611 21.6329C40.7664 21.5849 40.6841 21.5155 40.6208 21.4301C40.5582 21.3461 40.5163 21.2485 40.4986 21.1452C40.4808 21.042 40.4878 20.936 40.5188 20.8359L41.2826 18.2922C41.2944 18.2533 41.2942 18.2117 41.2821 18.1729C41.27 18.134 41.2464 18.0997 41.2146 18.0744L39.5491 16.7417C39.44 16.6544 39.3607 16.5353 39.3221 16.401C39.2835 16.2666 39.2876 16.1236 39.3338 15.9917C39.3801 15.8598 39.4661 15.7455 39.5801 15.6645C39.694 15.5836 39.8303 15.5401 39.9701 15.54H41.8782C41.9181 15.54 41.9571 15.5283 41.9905 15.5063C42.0238 15.4843 42.05 15.453 42.0657 15.4164L43.0262 13.1746C43.0782 13.0532 43.1647 12.9498 43.275 12.8771C43.3853 12.8044 43.5145 12.7656 43.6466 12.7656C43.7786 12.7656 43.9078 12.8044 44.0181 12.8771C44.1284 12.9498 44.2149 13.0532 44.267 13.1746L45.2274 15.4159C45.2431 15.4527 45.2692 15.4841 45.3025 15.5062C45.3359 15.5282 45.375 15.54 45.4149 15.54H47.323C47.4628 15.5401 47.5991 15.5836 47.7131 15.6645C47.827 15.7455 47.9131 15.8598 47.9593 15.9917C48.0055 16.1236 48.0096 16.2666 47.971 16.401C47.9325 16.5353 47.8531 16.6544 47.744 16.7417L46.0794 18.074C46.0473 18.0992 46.0235 18.1335 46.0112 18.1724C45.9989 18.2114 45.9987 18.2531 46.0105 18.2922L46.7743 20.8359C46.8053 20.936 46.8123 21.042 46.7946 21.1452C46.7768 21.2485 46.7349 21.3461 46.6723 21.4301C46.609 21.5155 46.5267 21.5849 46.432 21.6329C46.3372 21.6809 46.2325 21.7062 46.1263 21.7068Z" fill="#F26721"/>
<path d="M32.7541 18.8823C32.598 18.8818 32.4463 18.8303 32.3221 18.7357L30.1512 17.1075C30.1075 17.0746 30.0542 17.0568 29.9995 17.057C29.9445 17.057 29.891 17.0747 29.8469 17.1075L27.6769 18.7358C27.5527 18.8303 27.401 18.8818 27.2449 18.8824C27.1308 18.8818 27.0184 18.8546 26.9166 18.803C26.8148 18.7514 26.7265 18.6767 26.6586 18.585C26.5914 18.4951 26.5464 18.3905 26.5274 18.2799C26.5084 18.1693 26.5159 18.0557 26.5492 17.9485L27.3975 15.1218C27.412 15.0734 27.4116 15.0218 27.3966 14.9735C27.3815 14.9253 27.3524 14.8827 27.313 14.8511L25.4628 13.3713C25.3457 13.2776 25.2606 13.1499 25.2192 13.0057C25.1779 12.8615 25.1823 12.708 25.232 12.5665C25.2816 12.425 25.374 12.3024 25.4964 12.2156C25.6187 12.1289 25.765 12.0823 25.915 12.0823H28.0345C28.0838 12.0825 28.1321 12.0682 28.1734 12.041C28.2146 12.0139 28.2468 11.9751 28.2661 11.9297L29.335 9.43841C29.3907 9.30831 29.4834 9.19741 29.6015 9.11948C29.7196 9.04154 29.858 9 29.9995 9C30.1411 9 30.2795 9.04154 30.3976 9.11948C30.5157 9.19741 30.6084 9.30831 30.6641 9.43841L31.7321 11.9288C31.7514 11.9744 31.7838 12.0133 31.8252 12.0406C31.8665 12.0679 31.915 12.0824 31.9646 12.0822H34.0841C34.2341 12.0823 34.3804 12.1288 34.5027 12.2156C34.6251 12.3023 34.7175 12.425 34.7671 12.5665C34.8168 12.708 34.8212 12.8615 34.7799 13.0057C34.7385 13.1498 34.6534 13.2776 34.5363 13.3713L32.6861 14.8515C32.6467 14.883 32.6175 14.9256 32.6025 14.9737C32.5874 15.0219 32.5871 15.0734 32.6016 15.1218L33.4499 17.9485C33.4832 18.0557 33.4907 18.1693 33.4717 18.2799C33.4527 18.3905 33.4077 18.4951 33.3405 18.585C33.2726 18.6767 33.1842 18.7513 33.0824 18.803C32.9807 18.8546 32.8682 18.8817 32.7541 18.8823Z" fill="#F26721"/>
<path d="M16.3938 26.101L16.5767 25.9351C20.0018 22.8436 24.3893 21.0295 28.9976 20.7995L29.2448 20.7871V29.1662L29.0288 29.1837C26.6197 29.3808 24.3333 30.3294 22.4921 31.8955L22.3266 32.0353L16.3938 26.101Z" fill="#F26721"/>
<path d="M37.5069 31.896C35.6659 30.3294 33.3794 29.3807 30.9701 29.1837L30.7542 29.1662V20.7871L31.0014 20.7995C35.6097 21.0299 39.9971 22.8441 43.4223 25.9355L43.6052 26.1019L37.6714 32.0357L37.5069 31.896Z" fill="#F26721"/>
<path d="M11.2295 41.0111C11.0613 41.0108 10.895 40.9764 10.7405 40.91C10.586 40.8437 10.4466 40.7468 10.3306 40.6251C10.2184 40.5087 10.1313 40.3706 10.0748 40.2192C10.0182 40.0678 9.99325 39.9064 10.0016 39.745C10.2446 35.1432 12.0658 30.7656 15.1587 27.3494L15.3251 27.166L21.2607 33.1007L21.1201 33.2662C19.5288 35.1324 18.5736 37.4572 18.3931 39.9031C18.3669 40.2069 18.2271 40.4896 18.0018 40.6949C17.7764 40.9003 17.482 41.0132 17.1771 41.0111H11.2295Z" fill="#F26721"/>
<path d="M42.822 41.0111C42.517 41.0131 42.2225 40.9002 41.9971 40.6948C41.7718 40.4893 41.6321 40.2065 41.606 39.9027C41.425 37.4573 40.4702 35.133 38.8799 33.2666L38.7393 33.1012L44.674 27.166L44.8403 27.3494C47.9333 30.7656 49.7548 35.1431 49.9984 39.745C50.0064 39.9066 49.9812 40.0681 49.9243 40.2196C49.8674 40.371 49.78 40.5092 49.6676 40.6255C49.5516 40.747 49.4123 40.8438 49.258 40.9101C49.1037 40.9764 48.9375 41.0107 48.7696 41.0111H42.822Z" fill="#F26721"/>
</svg>
