<svg width="60" height="60" viewBox="0 0 60 60" fill="none" xmlns="http://www.w3.org/2000/svg">
<rect x="0.5" y="0.5" width="59" height="59" rx="29.5" fill="#FFDD82"/>
<rect x="0.5" y="0.5" width="59" height="59" rx="29.5" stroke="#FFAD0D"/>
<path fill-rule="evenodd" clip-rule="evenodd" d="M29.9997 43.1924C31.0413 43.1924 32.0826 43.0686 33.0951 42.8241C33.8751 42.6357 34.4743 42.1576 34.8327 41.4398L36.9883 37.1828C37.125 36.9113 37.3358 36.8606 37.5985 36.8606C37.8901 36.8606 38.1293 37.0641 38.1761 37.3519C38.3067 38.1542 38.3622 38.9588 38.3247 39.7713C38.3108 40.0732 38.6252 40.2817 38.8976 40.1506L44.0873 37.6521C44.4091 37.4972 44.7817 37.5707 45.0208 37.8359C45.2083 38.044 45.2971 38.2254 45.2644 38.5076C45.2354 38.7578 45.0687 38.9377 44.8897 39.0996C43.1115 40.7084 40.3232 42.8678 38.2305 44.0265C35.7189 45.4171 32.8704 46.1435 29.9997 46.1435C20.5956 46.1435 12.9451 38.4928 12.9451 29.0889C12.9451 24.0996 15.1184 19.372 18.9015 16.131L19.0018 16.0451L19.1921 16.2283L19.11 16.3318C14.0728 22.6869 14.2737 32.3656 19.7167 38.4422C22.3762 41.4111 25.9951 43.1924 29.9997 43.1924ZM20.2012 37.6703L20.1786 37.7472L20.2317 37.8074C23.4399 41.4505 28.1659 43.1916 32.9075 42.0462C33.4558 41.9137 33.865 41.5872 34.117 41.0826L35.044 39.2472L34.2045 39.3146C33.1331 39.3772 32.1851 38.9962 31.4559 38.2056L28.4362 34.9616C28.2305 34.7396 28.0127 34.7495 27.7614 34.8206C27.4808 34.9 27.3069 35.1641 27.3417 35.4531C27.4389 36.2603 27.6081 37.049 27.8695 37.8192C27.9786 38.1405 27.6614 38.4433 27.3454 38.3205L22.57 36.4666C21.797 36.1666 20.9553 36.4237 20.4823 37.1049C20.3601 37.2808 20.2618 37.4641 20.2012 37.6703ZM39.1684 38.0889L39.0818 38.1335L39.1379 39.1472L43.7408 36.9308C44.1444 36.7364 44.6074 36.7183 45.0229 36.8854L45.1464 36.9352L45.2068 36.8165C48.7607 29.8294 47.0812 21.2555 41.0984 16.1308L40.9981 16.0449L40.8078 16.2282L40.8899 16.3317C44.2899 20.6212 45.3293 26.4884 43.896 31.7362C43.1459 34.4823 41.7426 36.7605 39.1684 38.0889Z" fill="#FFAD0D"/>
<path fill-rule="evenodd" clip-rule="evenodd" d="M45.12 38.4907C45.1011 38.6555 45.0095 38.795 44.7922 38.9916C43.0962 40.526 40.2968 42.7159 38.1602 43.8991C35.6797 45.2724 32.8582 45.9979 29.9998 45.9979C20.676 45.9979 13.0906 38.4125 13.0906 29.0887C13.0906 24.0385 15.3237 19.3875 18.9961 16.2413C13.9286 22.6347 14.1026 32.3923 19.6084 38.5391C23.1188 42.4582 28.1764 44.162 33.1293 42.9655C33.951 42.7666 34.5854 42.2612 34.9629 41.5048L37.1183 37.2483C37.23 37.0266 37.397 37.0061 37.5986 37.0061C37.8191 37.0061 37.9972 37.1581 38.0327 37.3753C38.168 38.2072 38.215 38.9894 38.1795 39.7646C38.1602 40.1763 38.5895 40.4608 38.9608 40.2816L44.1505 37.7832C44.417 37.6557 44.7158 37.7141 44.9128 37.9333C45.0933 38.133 45.1453 38.2743 45.12 38.4907ZM20.4035 25.4573C18.6315 26.4508 17.3361 28.6633 16.9775 31.3311C17.5087 33.3484 18.4032 35.1922 19.5767 36.7675C19.6163 36.7003 19.6586 36.6335 19.706 36.5659C20.4223 35.5328 21.7409 35.13 22.9125 35.5849L23.3678 35.7617V32.0263C23.3678 29.7231 24.0224 27.5571 25.124 25.9274C24.735 25.6139 24.3243 25.3694 23.8958 25.1991C22.8855 25.9606 21.519 26.0666 20.4035 25.4573ZM21.9494 20.4633C20.7648 20.4633 19.8013 21.4268 19.8013 22.6113C19.8013 23.7963 20.7648 24.7599 21.9494 24.7599C23.1344 24.7599 24.0979 23.7963 24.0979 22.6113C24.0979 21.4269 23.1344 20.4633 21.9494 20.4633ZM27.9101 24.7069C25.8348 25.9213 24.4588 28.8106 24.4588 32.0262V36.1856L26.663 37.0414C26.5511 36.5677 26.4651 36.0792 26.4033 35.5664C26.3131 34.8173 26.7735 34.1213 27.4985 33.9127L27.5832 33.8888C28.1504 33.7248 28.7286 33.8856 29.1301 34.3192L32.1509 37.5643C32.6873 38.1453 33.3598 38.4169 34.1498 38.3709C34.5766 38.346 34.9905 38.3055 35.3869 38.2507C35.4384 38.1498 35.49 38.0486 35.5411 37.9474V32.0262C35.5411 28.8105 34.1656 25.9204 32.0893 24.7068C30.8111 25.5057 29.1899 25.5048 27.9101 24.7069ZM29.9998 18.4828C28.4193 18.4828 27.1344 19.7681 27.1344 21.3481C27.1344 22.9285 28.4193 24.2143 29.9998 24.2143C31.5802 24.2143 32.866 22.9285 32.866 21.3481C32.866 19.7681 31.5802 18.4828 29.9998 18.4828ZM27.2928 38.4561L22.5175 36.6022C21.8062 36.326 21.0369 36.5613 20.6018 37.1878C20.4753 37.3701 20.3924 37.5359 20.3408 37.7112C23.5079 41.308 28.1806 43.0395 32.8733 41.9047C33.3797 41.7818 33.754 41.4839 33.987 41.0176C34.253 40.4849 34.5242 39.9477 34.7949 39.416C34.6029 39.4335 34.4095 39.4487 34.2129 39.4598C33.1088 39.5263 32.1119 39.1313 31.349 38.3043L28.3295 35.0605C28.1616 34.8794 27.9946 34.9052 27.801 34.9606C27.5896 35.0219 27.4603 35.2175 27.4861 35.4357C27.5874 36.2727 27.7577 37.0373 28.0072 37.7726C28.1558 38.21 27.7235 38.6234 27.2928 38.4561ZM36.1047 25.199C35.6765 25.3693 35.2654 25.6138 34.8765 25.9273C35.9781 27.557 36.6318 29.723 36.6318 32.0262V36.1875C36.9346 35.975 37.223 35.915 37.5986 35.915C38.3048 35.915 38.9065 36.3887 39.08 37.0594C40.9832 35.9513 42.2649 34.1205 42.984 31.4867C42.9983 31.437 43.0102 31.3868 43.0236 31.3366C42.6663 28.666 41.3694 26.4517 39.5971 25.4572C38.4798 26.0662 37.1164 25.961 36.1047 25.199ZM38.0507 20.4633C36.8661 20.4633 35.9026 21.4268 35.9026 22.6113C35.9026 23.7963 36.8661 24.7599 38.0507 24.7599C39.2356 24.7599 40.1992 23.7963 40.1992 22.6113C40.1991 21.4269 39.2356 20.4633 38.0507 20.4633ZM41.0039 16.2413C44.3736 20.4926 45.5081 26.3856 44.0364 31.7745C43.1884 34.8787 41.6153 36.99 39.2352 38.2182C39.2555 38.4529 39.2706 38.6873 39.2771 38.9189L43.6778 36.7998C44.1326 36.5811 44.6367 36.5733 45.0773 36.7505C48.6203 29.7852 46.905 21.2962 41.0039 16.2413ZM48 29.0886C48 21.3545 43.0791 14.4988 35.7557 12.0289C35.4822 11.9364 35.1848 12.0732 35.0757 12.3402C34.967 12.6072 35.0849 12.9124 35.3445 13.0376C40.928 15.7259 44.1474 22.1287 43.4925 28.7264C42.8453 27.0023 41.7979 25.5913 40.4973 24.7309C40.9904 24.1619 41.2901 23.4216 41.2901 22.6113C41.2901 20.8251 39.8372 19.3722 38.0505 19.3722C35.4926 19.3722 33.9509 22.2096 35.3215 24.3534C34.9338 24.5416 34.5614 24.7801 34.2055 25.0646C33.8257 24.6406 33.41 24.2714 32.962 23.9681C33.5803 23.2697 33.9569 22.3527 33.9569 21.3481C33.9569 19.1664 32.1818 17.3917 29.9996 17.3917C27.8179 17.3917 26.0432 19.1664 26.0432 21.3481C26.0432 22.3526 26.4193 23.2697 27.0376 23.9681C26.5902 24.2714 26.1735 24.6406 25.7947 25.0646C25.4393 24.7801 25.0659 24.5426 24.6783 24.3534C26.0475 22.2183 24.5141 19.3722 21.9493 19.3722C20.1631 19.3722 18.7102 20.8251 18.7102 22.6113C18.7102 23.4215 19.009 24.1618 19.502 24.7309C18.2033 25.5904 17.156 27.0005 16.5087 28.7245C15.8507 22.1374 19.0734 15.7203 24.6549 13.0376C24.9155 12.9124 25.0333 12.6071 24.9242 12.3401C24.816 12.0731 24.5177 11.9364 24.2447 12.0289C16.9208 14.4988 12 21.3545 12 29.0886C12 39.0356 20.0529 47.0889 29.9998 47.0889C33.0428 47.0889 36.0472 46.316 38.6888 44.8534C40.9013 43.6284 43.7828 41.3753 45.5238 39.8009C45.807 39.5453 46.1393 39.1798 46.2038 38.6159C46.2628 38.1104 46.1131 37.7403 45.9331 37.4705C47.287 34.9012 48 32.0116 48 29.0886Z" fill="#FFAD0D"/>
</svg>
