<svg width="20" height="20" viewBox="0 0 20 20" fill="none" xmlns="http://www.w3.org/2000/svg">
<path d="M16.47 11.7471C16.4251 11.7471 16.3778 11.7282 16.3448 11.6928L15.8841 11.2108C15.818 11.1423 15.8203 11.0313 15.8888 10.9652C15.9573 10.899 16.066 10.9014 16.1345 10.9699L16.5952 11.4518C16.6613 11.5203 16.659 11.6314 16.5905 11.6975C16.555 11.7329 16.5125 11.7471 16.47 11.7471Z" fill="#003940"/>
<path d="M16.1379 12.0616C16.0931 12.0616 16.0458 12.0427 16.0127 12.0072L15.5521 11.5253C15.4859 11.4568 15.4883 11.3458 15.5568 11.2796C15.6253 11.2135 15.7363 11.2158 15.8025 11.2843L16.2632 11.7663C16.3293 11.8348 16.3269 11.9458 16.2584 12.012C16.2254 12.0474 16.1805 12.0616 16.1379 12.0616Z" fill="#003940"/>
<path d="M18.1521 14.5026C18.0293 14.5026 17.9041 14.4553 17.8119 14.3584L15.9882 12.4496C15.9386 12.3953 15.9008 12.3315 15.8771 12.2654C15.8771 12.263 15.8771 12.263 15.8748 12.2607C15.8252 12.0906 15.8724 11.9087 16.0023 11.7858L16.3756 11.4267C16.5646 11.2472 16.8622 11.2543 17.0418 11.4409L18.8655 13.3497C19.0049 13.4962 19.0356 13.7159 18.9411 13.8931C18.9199 13.9332 18.8915 13.9757 18.8514 14.0112L18.4734 14.3726C18.3836 14.46 18.2679 14.5026 18.1521 14.5026ZM16.2079 12.1614C16.215 12.1803 16.2244 12.1992 16.2409 12.2134L18.0647 14.1198C18.1119 14.1695 18.1899 14.1695 18.2395 14.1246L18.6151 13.7655C18.6246 13.756 18.6317 13.7466 18.6364 13.7348C18.6624 13.6852 18.6553 13.6285 18.6175 13.5907L16.7937 11.6842C16.7465 11.6346 16.6685 11.6346 16.6166 11.6819L16.2433 12.0386C16.2079 12.0693 16.1961 12.1165 16.2079 12.1614Z" fill="#003940"/>
<path d="M13.8764 12.2265C13.0732 12.2265 12.2724 11.9123 11.6747 11.2887C10.5148 10.072 10.5573 8.14196 11.7716 6.98203C12.9835 5.81973 14.9159 5.86462 16.0782 7.07652C17.2381 8.29079 17.1956 10.2232 15.9813 11.3831C15.3907 11.9454 14.6324 12.2265 13.8764 12.2265ZM11.9251 11.0477C12.9551 12.1226 14.6678 12.1604 15.7427 11.1304C16.8176 10.1004 16.8578 8.39001 15.8278 7.31276C14.7978 6.23788 13.085 6.20008 12.0102 7.23008C10.9329 8.25771 10.8951 9.97044 11.9251 11.0477ZM13.8245 11.6454C13.163 11.6288 12.5511 11.3572 12.0976 10.8847C12.0503 10.8374 12.0078 10.7855 11.9676 10.7359C11.1621 9.74838 11.2518 8.2837 12.1732 7.40253C13.1559 6.46466 14.7174 6.49774 15.6577 7.48049C16.5176 8.37819 16.5719 9.77909 15.7876 10.7382C15.7333 10.8067 15.6671 10.88 15.5844 10.9626C15.1568 11.3737 14.5922 11.617 13.9969 11.6454H13.8245ZM12.4118 7.65058C11.6204 8.40891 11.5424 9.66806 12.2346 10.5185C12.27 10.5634 12.3078 10.6059 12.3456 10.6461C12.7354 11.0548 13.2599 11.2863 13.8245 11.3005L13.9804 11.2981C14.4859 11.2721 14.9702 11.0642 15.3387 10.7122C15.412 10.6414 15.4663 10.5823 15.5136 10.5209C16.1916 9.69404 16.1443 8.48923 15.4049 7.71673C14.5993 6.87336 13.2575 6.84265 12.4118 7.65058Z" fill="#003940"/>
<path d="M14.6205 18.6403H2.72315C2.32407 18.6403 2 18.3163 2 17.9172V4.62151C2 4.22543 2.32407 3.90137 2.72315 3.90137H12.6431C12.7632 3.90137 12.8622 4.00039 12.8622 4.12041C12.8622 4.24044 12.7632 4.33946 12.6431 4.33946H2.72315C2.56711 4.33946 2.44109 4.46548 2.44109 4.61851V17.9142C2.44109 18.0702 2.56711 18.1962 2.72315 18.1962H14.6205C14.7766 18.1962 14.9026 18.0702 14.9026 17.9142V11.826C14.9026 11.7059 15.0016 11.6069 15.1216 11.6069C15.2417 11.6069 15.3407 11.7059 15.3407 11.826V17.9142C15.3437 18.3163 15.0196 18.6403 14.6205 18.6403Z" fill="#003940"/>
<path d="M15.1194 6.60233C14.9994 6.60233 14.9004 6.50331 14.9004 6.38328V4.62193C14.9004 4.4659 14.7743 4.34287 14.6183 4.34287H12.6409C12.5209 4.34287 12.4219 4.24385 12.4219 4.12383C12.4219 4.00381 12.5209 3.90479 12.6409 3.90479H14.6183C15.0174 3.90479 15.3415 4.22885 15.3415 4.62493V6.38629C15.3385 6.50331 15.2394 6.60233 15.1194 6.60233Z" fill="#003940"/>
<path d="M12.643 4.33067C12.523 4.33067 12.424 4.24365 12.424 4.12063C12.424 3.40649 11.8599 2.84237 11.1667 2.84237H10.0775C9.95748 2.84237 9.85846 2.74335 9.85846 2.62333C9.85846 1.9692 9.32735 1.43809 8.67322 1.43809C8.01909 1.43809 7.48798 1.9692 7.48798 2.62333C7.48798 2.74335 7.38896 2.84237 7.26894 2.84237H6.17972C5.48658 2.84237 4.92246 3.40649 4.92246 4.09962C4.92246 4.21965 4.82344 4.33067 4.70342 4.33067C4.5834 4.33067 4.48438 4.24365 4.48438 4.12063V4.09962C4.48438 3.16344 5.24653 2.40428 6.17972 2.40428H7.06489C7.17292 1.61212 7.85405 1 8.67622 1C9.49839 1 10.1795 1.61212 10.2875 2.40428H11.1727C12.1089 2.40428 12.8681 3.16644 12.8681 4.09962C12.8651 4.22265 12.766 4.33067 12.643 4.33067Z" fill="#003940"/>
<path d="M8.67616 3.32254C8.23507 3.32254 7.875 2.96247 7.875 2.52138C7.875 2.08029 8.23507 1.72021 8.67616 1.72021C9.11725 1.72021 9.47732 2.08029 9.47732 2.52138C9.47432 2.96547 9.11725 3.32254 8.67616 3.32254ZM8.67616 2.1613C8.47812 2.1613 8.31609 2.32334 8.31609 2.52138C8.31609 2.71942 8.47812 2.88145 8.67616 2.88145C8.8742 2.88145 9.03623 2.71942 9.03623 2.52138C9.03623 2.32334 8.8742 2.1613 8.67616 2.1613Z" fill="#003940"/>
<path d="M10.7997 7.34336H8.71123C8.59121 7.34336 8.49219 7.24434 8.49219 7.12432C8.49219 7.00429 8.59121 6.90527 8.71123 6.90527H10.7997C10.9197 6.90527 11.0187 7.00429 11.0187 7.12432C11.0187 7.24434 10.9197 7.34336 10.7997 7.34336Z" fill="#003940"/>
<path d="M6.7686 8.77234H4.44613C4.17608 8.77234 3.95703 8.5533 3.95703 8.28325V5.96078C3.95703 5.69072 4.17608 5.47168 4.44613 5.47168H6.7686C7.03865 5.47168 7.2577 5.69072 7.2577 5.96078V8.28325C7.2577 8.5533 7.03865 8.77234 6.7686 8.77234ZM4.44613 5.91277C4.41912 5.91277 4.39812 5.93377 4.39812 5.96078V8.28325C4.39812 8.31025 4.41912 8.33126 4.44613 8.33126H6.7686C6.7956 8.33126 6.81661 8.31025 6.81661 8.28325V5.96078C6.81661 5.93377 6.7956 5.91277 6.7686 5.91277H4.44613Z" fill="#003940"/>
<path d="M5.34869 7.83829C5.29468 7.83829 5.23767 7.81729 5.19566 7.77828L4.67656 7.28018C4.58954 7.19616 4.58654 7.05813 4.67056 6.96812C4.75457 6.8811 4.8926 6.8781 4.98262 6.96211L5.34869 7.31318L6.23687 6.46401C6.32389 6.38 6.46492 6.383 6.54894 6.47002C6.63295 6.55703 6.62995 6.69806 6.54293 6.78208L5.50172 7.77528C5.45672 7.82029 5.4027 7.83829 5.34869 7.83829Z" fill="#003940"/>
<path d="M10.7997 11.4903H8.71123C8.59121 11.4903 8.49219 11.3913 8.49219 11.2713C8.49219 11.1513 8.59121 11.0522 8.71123 11.0522H10.7997C10.9197 11.0522 11.0187 11.1513 11.0187 11.2713C11.0187 11.3913 10.9197 11.4903 10.7997 11.4903Z" fill="#003940"/>
<path d="M6.7686 12.9222H4.44613C4.17608 12.9222 3.95703 12.7032 3.95703 12.4331V10.1107C3.95703 9.84063 4.17608 9.62158 4.44613 9.62158H6.7686C7.03865 9.62158 7.2577 9.84063 7.2577 10.1107V12.4331C7.2577 12.7032 7.03865 12.9222 6.7686 12.9222ZM4.44613 10.0597C4.41912 10.0597 4.39812 10.0807 4.39812 10.1077V12.4301C4.39812 12.4572 4.41912 12.4782 4.44613 12.4782H6.7686C6.7956 12.4782 6.81661 12.4572 6.81661 12.4301V10.1077C6.81661 10.0807 6.7956 10.0597 6.7686 10.0597H4.44613Z" fill="#003940"/>
<path d="M5.34869 11.9887C5.29468 11.9887 5.23767 11.9677 5.19566 11.9287L4.67656 11.4306C4.58954 11.3466 4.58654 11.2085 4.67056 11.1185C4.75457 11.0315 4.8926 11.0285 4.98262 11.1125L5.34869 11.4636L6.23687 10.6144C6.32389 10.5304 6.46492 10.5334 6.54894 10.6204C6.63295 10.7074 6.62995 10.8485 6.54293 10.9325L5.50172 11.9257C5.45672 11.9677 5.4027 11.9887 5.34869 11.9887Z" fill="#003940"/>
<path d="M13.1692 15.6363H8.70733C8.5873 15.6363 8.48828 15.5373 8.48828 15.4173C8.48828 15.2973 8.5873 15.1982 8.70733 15.1982H13.1692C13.2892 15.1982 13.3883 15.2973 13.3883 15.4173C13.3883 15.5403 13.2892 15.6363 13.1692 15.6363Z" fill="#003940"/>
<path d="M6.7686 17.0678H4.44613C4.17608 17.0678 3.95703 16.8487 3.95703 16.5787V14.2562C3.95703 13.9861 4.17608 13.7671 4.44613 13.7671H6.7686C7.03865 13.7671 7.2577 13.9861 7.2577 14.2562V16.5787C7.2577 16.8487 7.03865 17.0678 6.7686 17.0678ZM4.44613 14.2082C4.41912 14.2082 4.39812 14.2292 4.39812 14.2562V16.5787C4.39812 16.6057 4.41912 16.6267 4.44613 16.6267H6.7686C6.7956 16.6267 6.81661 16.6057 6.81661 16.5787V14.2562C6.81661 14.2292 6.7956 14.2082 6.7686 14.2082H4.44613Z" fill="#003940"/>
<path d="M5.34869 16.1352C5.29468 16.1352 5.23767 16.1142 5.19566 16.0752L4.67656 15.5771C4.58954 15.493 4.58654 15.355 4.67056 15.265C4.75457 15.178 4.8926 15.175 4.98262 15.259L5.34869 15.6101L6.23687 14.7609C6.32389 14.6769 6.46492 14.6799 6.54894 14.7669C6.63295 14.8539 6.62995 14.9949 6.54293 15.079L5.50172 16.0722C5.45672 16.1142 5.4027 16.1352 5.34869 16.1352Z" fill="#003940"/>
</svg>
