<svg width="20" height="20" viewBox="0 0 20 20" fill="none" xmlns="http://www.w3.org/2000/svg">
<path d="M13.0594 2.3668H6.94203C6.7093 2.3668 6.52061 2.55549 6.52061 2.78823C6.52061 3.02096 6.7093 3.20965 6.94203 3.20965H13.0594C13.2921 3.20965 13.4808 3.02096 13.4808 2.78823C13.4808 2.55549 13.2921 2.3668 13.0594 2.3668Z" fill="#003940" stroke="#003940" stroke-width="0.2"/>
<path d="M5.72213 15.617C6.66349 15.617 7.42928 14.8512 7.42928 13.9099C7.42928 12.9685 6.66349 12.2027 5.72213 12.2027C4.78078 12.2027 4.01499 12.9685 4.01499 13.9099C4.01499 14.8512 4.78078 15.617 5.72213 15.617ZM5.72213 13.0456C6.19864 13.0456 6.58642 13.4334 6.58642 13.9099C6.58642 14.3864 6.19864 14.7742 5.72213 14.7742C5.24562 14.7742 4.85785 14.3864 4.85785 13.9099C4.85785 13.4334 5.24562 13.0456 5.72213 13.0456Z" fill="#003940" stroke="#003940" stroke-width="0.2"/>
<path d="M14.2793 15.617C15.2206 15.617 15.9864 14.8512 15.9864 13.9099C15.9864 12.9685 15.2206 12.2027 14.2793 12.2027C13.3379 12.2027 12.5721 12.9685 12.5721 13.9099C12.5721 14.8512 13.3379 15.617 14.2793 15.617ZM14.2793 13.0456C14.7558 13.0456 15.1435 13.4334 15.1435 13.9099C15.1435 14.3864 14.7558 14.7742 14.2793 14.7742C13.8028 14.7742 13.415 14.3864 13.415 13.9099C13.415 13.4334 13.8028 13.0456 14.2793 13.0456Z" fill="#003940" stroke="#003940" stroke-width="0.2"/>
<path d="M8.43202 13.612H11.6215C11.8542 13.612 12.0429 13.4233 12.0429 13.1906C12.0429 12.9578 11.8542 12.7691 11.6215 12.7691H8.43202C8.19929 12.7691 8.0106 12.9578 8.0106 13.1906C8.0106 13.4233 8.19929 13.612 8.43202 13.612Z" fill="#003940" stroke="#003940" stroke-width="0.2"/>
<path d="M11.0986 14.2086H8.95497C8.72224 14.2086 8.53354 14.3973 8.53354 14.63C8.53354 14.8628 8.72224 15.0515 8.95497 15.0515H11.0986C11.3313 15.0515 11.52 14.8628 11.52 14.63C11.52 14.3973 11.3313 14.2086 11.0986 14.2086Z" fill="#003940" stroke="#003940" stroke-width="0.2"/>
<path d="M18.1906 4.62107H17.6897V4.26797C17.6901 4.26421 17.6905 4.25994 17.6905 4.25525C17.6905 4.25056 17.6901 4.24629 17.6897 4.24253V2.60714C17.6897 1.66579 16.9239 0.9 15.9825 0.9H4.01889C3.07753 0.9 2.31174 1.66579 2.31174 2.60714V4.23791C2.31096 4.24271 2.31033 4.24858 2.31033 4.25525C2.31033 4.26192 2.31096 4.26778 2.31174 4.27259V4.62107H1.80938C1.30664 4.62107 0.9 5.03457 0.9 5.54034V8.57147C0.9 9.07726 1.30666 9.49057 1.80938 9.49057H2.31174V10.9893C2.31096 10.9941 2.31033 11 2.31033 11.0067C2.31033 11.0133 2.31096 11.0192 2.31174 11.024V15.5272C2.31174 16.4108 2.98744 17.1335 3.84747 17.2201V17.8639C3.84747 18.3696 4.25414 18.783 4.75685 18.783H6.68935C7.19206 18.783 7.59873 18.3696 7.59873 17.8639V17.2344H12.4036V17.8639C12.4036 18.3697 12.8105 18.783 13.3132 18.783H15.2455C15.7482 18.783 16.155 18.3697 16.155 17.8639V17.2199C17.0145 17.1328 17.6897 16.4104 17.6897 15.5272V11.0194C17.6901 11.0156 17.6905 11.0114 17.6905 11.0067C17.6905 11.002 17.6901 10.9977 17.6897 10.9939V9.49058H18.1906C18.6933 9.49058 19.1 9.07726 19.1 8.57147V5.54034C19.1 5.03458 18.6934 4.62107 18.1906 4.62107ZM17.6856 10.9753C17.6855 10.9747 17.6856 10.9753 17.686 10.9765L17.6856 10.9753ZM17.6856 4.28665L17.686 4.28553L17.6856 4.28665ZM17.6856 4.22385C17.6855 4.22333 17.6856 4.22385 17.686 4.22497L17.6856 4.22385ZM2.31174 8.64771H1.80938C1.77808 8.64771 1.74286 8.61882 1.74286 8.57146V5.54033C1.74286 5.49276 1.77813 5.46392 1.80938 5.46392H2.31174V8.64771ZM3.1546 4.67668H9.57889V10.5852H3.1546V4.67668ZM6.75587 17.8639C6.75587 17.9112 6.72065 17.9401 6.68935 17.9401H4.75685C4.72555 17.9401 4.69033 17.9112 4.69033 17.8639V17.2344H6.75587L6.75587 17.8639ZM15.3122 17.8639C15.3122 17.9112 15.277 17.9401 15.2455 17.9401H13.3132C13.2816 17.9401 13.2465 17.9112 13.2465 17.8639V17.2344H15.3122L15.3122 17.8639ZM16.8468 15.5272C16.8468 16.0037 16.459 16.3915 15.9825 16.3915H4.01889C3.54238 16.3915 3.1546 16.0037 3.1546 15.5272V11.4281H16.8468V15.5272ZM16.8468 10.5852H10.4217V4.67668H16.8468V10.5852ZM16.8468 3.83382H3.1546V2.60715C3.1546 2.13064 3.54238 1.74286 4.01889 1.74286H15.9825C16.459 1.74286 16.8468 2.13064 16.8468 2.60715V3.83382ZM18.2571 8.57147C18.2571 8.61883 18.2219 8.64772 18.1906 8.64772H17.6897V5.46393H18.1906C18.2219 5.46393 18.2571 5.49276 18.2571 5.54034V8.57147Z" fill="#003940" stroke="#003940" stroke-width="0.2"/>
</svg>
