<svg width="18" height="18" viewBox="0 0 18 18" fill="none" xmlns="http://www.w3.org/2000/svg">
<path d="M5.11728 8.05714C3.62218 8.05714 2.40576 6.94144 2.40576 5.56996C2.40576 4.29855 4.61253 1.44074 4.86491 1.11928C4.92331 1.04428 5.01753 1 5.11798 1C5.21842 1 5.31265 1.04429 5.37105 1.11928C5.40531 1.16285 6.21672 2.20355 6.90042 3.32432C6.98452 3.46146 6.93079 3.63574 6.7805 3.71289C6.63021 3.79003 6.44099 3.74075 6.35689 3.60289C5.91771 2.8829 5.41232 2.1822 5.11719 1.78506C4.36262 2.79575 3.02863 4.75151 3.02863 5.56997C3.02863 6.62637 3.9654 7.48573 5.11719 7.48573C5.23322 7.48573 5.35003 7.47716 5.46449 7.46002C5.63347 7.43216 5.79465 7.5393 5.8227 7.69573C5.85073 7.85145 5.73548 7.99858 5.56572 8.02359C5.41777 8.04573 5.26757 8.05714 5.11728 8.05714Z" fill="#003940" stroke="#003940" stroke-width="0.1"/>
<path d="M5.27298 7.11222C4.27625 7.11222 3.46484 6.36795 3.46484 5.45368C3.46484 5.29582 3.60423 5.16797 3.77632 5.16797C3.94842 5.16797 4.0878 5.29582 4.0878 5.45368C4.0878 6.05295 4.61966 6.5408 5.27298 6.5408C5.44507 6.5408 5.58446 6.66866 5.58446 6.82651C5.58446 6.98437 5.44507 7.11222 5.27298 7.11222Z" fill="#003940" stroke="#003940" stroke-width="0.1"/>
<path d="M5.71247 15.4227C5.63304 15.4227 5.55283 15.3949 5.49209 15.3392C5.37061 15.2277 5.37061 15.047 5.49209 14.9349L6.1057 14.372C6.59316 13.9249 7.24182 13.6778 7.93176 13.6778H10.5404C11.0645 13.6778 11.5566 13.4906 11.9265 13.1513L15.9679 9.44434C16.094 9.32862 16.1423 9.17077 16.0987 9.01148C16.0551 8.8522 15.932 8.73435 15.7607 8.6865C15.5956 8.6415 15.4197 8.67578 15.2904 8.77935L12.2932 11.1835C12.2029 11.2564 12.0744 11.2742 11.9638 11.2307C11.8532 11.1871 11.7808 11.0885 11.7769 10.9778C11.7684 10.7407 11.5597 10.555 11.3027 10.555H6.92564C6.29178 10.555 5.67972 10.7978 5.24521 11.2214L3.29846 13.1114C3.1801 13.2256 2.9831 13.2314 2.85773 13.1228C2.73313 13.0142 2.7269 12.8335 2.84527 12.7192L4.79201 10.83C5.34333 10.2928 6.12126 9.98427 6.92642 9.98427H11.3035C11.7022 9.98427 12.0495 10.1764 12.2418 10.4671L14.8808 8.35003C15.1728 8.11576 15.5699 8.03719 15.9414 8.14004C16.3221 8.24575 16.6064 8.52003 16.7029 8.87288C16.7995 9.22645 16.6897 9.59145 16.4086 9.84858L12.3672 13.5556C11.8797 14.0027 11.2311 14.2499 10.5411 14.2499H7.93249C7.4092 14.2499 6.91705 14.437 6.5464 14.7763L5.93279 15.3391C5.87206 15.3948 5.79268 15.4227 5.71247 15.4227Z" fill="#003940" stroke="#003940" stroke-width="0.1"/>
<path d="M5.17149 17.0005C5.09596 17.0005 5.02043 16.9755 4.96124 16.9255L1.10128 13.6798C1.03899 13.6269 1.00239 13.5534 1.00005 13.4755C0.998496 13.3976 1.0312 13.3226 1.09116 13.2669L2.24676 12.2069C2.36512 12.0984 2.55513 12.0948 2.67739 12.1984L6.53734 15.444C6.59964 15.4969 6.63624 15.5705 6.63857 15.6483C6.64013 15.7262 6.60743 15.8012 6.54747 15.8569L5.39187 16.9169C5.33113 16.9726 5.25171 17.0005 5.17149 17.0005ZM1.76166 13.4606L5.16232 16.3199L5.87716 15.6642L2.4765 12.8049L1.76166 13.4606Z" fill="#003940" stroke="#003940" stroke-width="0.1"/>
<path d="M11.3031 11.9993H8.63838C8.46629 11.9993 8.3269 11.8715 8.3269 11.7136C8.3269 11.5558 8.46629 11.4279 8.63838 11.4279H11.3031C11.5663 11.4279 11.7796 11.2315 11.7796 10.9908C11.7796 10.8329 11.919 10.7051 12.0911 10.7051C12.2632 10.7051 12.4026 10.8329 12.4026 10.9908C12.4026 11.5472 11.9089 11.9993 11.3031 11.9993Z" fill="#003940" stroke="#003940" stroke-width="0.1"/>
<path d="M9.38079 9.51535C7.58822 9.51535 6.12964 8.17751 6.12964 6.53318C6.12964 4.97034 9.00542 1.27612 9.12762 1.11978C9.24442 0.970491 9.51696 0.970491 9.63378 1.11978C9.75604 1.2762 12.6318 4.9705 12.6318 6.53318C12.6318 8.17744 11.1734 9.51535 9.38079 9.51535ZM9.38079 1.78335C8.46503 3.00191 6.7526 5.49329 6.7526 6.53336C6.7526 7.86262 7.93156 8.94411 9.38079 8.94411C10.8299 8.94411 12.009 7.86269 12.009 6.53336C12.009 5.49338 10.2966 3.00208 9.38079 1.78335Z" fill="#003940" stroke="#003940" stroke-width="0.1"/>
<path d="M9.57207 8.35637C8.39 8.35637 7.42749 7.47425 7.42749 6.38923C7.42749 6.23137 7.56688 6.10352 7.73897 6.10352C7.91106 6.10352 8.05045 6.23137 8.05045 6.38923C8.05045 7.15849 8.7326 7.78492 9.57203 7.78492C9.74412 7.78492 9.88351 7.91277 9.88351 8.07063C9.88351 8.22848 9.74416 8.35637 9.57207 8.35637Z" fill="#003940" stroke="#003940" stroke-width="0.1"/>
</svg>
